<?xml version="1.0" encoding="utf-8"?>
<!-- Generator: Adobe Illustrator 24.3.0, SVG Export Plug-In . SVG Version: 6.00 Build 0)  -->
<svg version="1.1" id="fig_01" xmlns="http://www.w3.org/2000/svg" xmlns:xlink="http://www.w3.org/1999/xlink" x="0px" y="0px"
	 viewBox="0 0 462.4 505.2" style="enable-background:new 0 0 462.4 505.2;" xml:space="preserve">
<style type="text/css">
	.st0{fill:#E3E6E8;}
	.st1{fill:#FFFFFF;}
	.st2{fill:#FFF1D4;}
	.st3{fill:#FFC010;}
	.st4{fill:#9B9B9B;}
</style>
<circle class="st0" cx="231" cy="276.3" r="122.8"/>
<circle class="st1" cx="231" cy="276.3" r="103.9"/>
<circle class="st1" cx="351.5" cy="160" r="107.9"/>
<path class="st2" d="M351.5,55.1c57.9,0,104.9,47,104.9,104.9s-47,104.9-104.9,104.9S246.6,218,246.6,160l0,0
	C246.6,102.1,293.6,55.1,351.5,55.1 M351.5,49.1c-61.3,0-110.9,49.7-110.9,110.9c0,61.3,49.7,110.9,110.9,110.9
	c61.3,0,110.9-49.7,110.9-110.9c0-29.4-11.7-57.6-32.5-78.4C409.2,60.7,380.9,49,351.5,49.1L351.5,49.1z"/>
<path class="st2" d="M351.5,55c-49.7,0-92.6,35-102.7,83.6h205.5C444.2,89.9,401.3,54.9,351.5,55z"/>
<circle class="st1" cx="110.9" cy="160" r="107.9"/>
<path class="st2" d="M110.9,55.1c57.9,0,104.9,47,104.9,104.9c0,57.9-47,104.9-104.9,104.9C53,264.9,6,218,6,160c0,0,0,0,0,0
	C6,102.1,53,55.1,110.9,55.1 M110.9,49.1C49.7,49.1,0,98.8,0,160s49.7,110.9,110.9,110.9S221.8,221.2,221.8,160
	c0-29.4-11.7-57.6-32.5-78.4C168.6,60.7,140.3,49,110.9,49.1z"/>
<path class="st2" d="M110.9,55C61.2,55,18.3,89.9,8.2,138.6h205.5C203.6,89.9,160.6,54.9,110.9,55z"/>
<circle class="st1" cx="110.9" cy="394.3" r="107.9"/>
<path class="st2" d="M110.9,289.4c57.9,0,104.9,47,104.9,104.9c0,57.9-47,104.9-104.9,104.9S6,452.3,6,394.3c0,0,0,0,0,0
	C6,336.4,53,289.4,110.9,289.4 M110.9,283.4C49.6,283.4,0,333,0,394.3s49.7,110.9,110.9,110.9s110.9-49.7,110.9-110.9
	c0-29.4-11.7-57.6-32.5-78.4C168.6,295,140.3,283.3,110.9,283.4z"/>
<path class="st2" d="M110.9,289.2c-49.7,0-92.7,34.9-102.7,83.6h205.5C203.6,324.2,160.6,289.2,110.9,289.2z"/>
<circle class="st1" cx="351.5" cy="394.3" r="107.9"/>
<path class="st2" d="M351.5,289.4c57.9,0,104.9,47,104.9,104.9s-47,104.9-104.9,104.9s-104.9-47-104.9-104.9
	S293.6,289.4,351.5,289.4L351.5,289.4 M351.5,283.4c-61.3,0-110.9,49.6-110.9,110.9c0,61.3,49.6,110.9,110.9,110.9
	s110.9-49.6,110.9-110.9c0-29.4-11.7-57.7-32.5-78.5C409.2,295,381,283.3,351.5,283.4L351.5,283.4z"/>
<path class="st2" d="M351.5,289.2c-49.7,0-92.6,35-102.7,83.6h205.5C444.2,324.2,401.3,289.2,351.5,289.2z"/>
<path class="st3" d="M64.5,19.6v3.2h-4v-3.2h-9.2v-3.9l7.8-15.5h4.5l-7.8,15.5h4.7v-4.2h4v4.2h2.1v3.9H64.5z"/>
<path class="st3" d="M80.9,28.8v-7.5c-0.5,0.6-1.1,1-1.8,1.3c-0.7,0.3-1.5,0.4-2.2,0.4c-0.8,0-1.5-0.1-2.3-0.4
	c-0.7-0.2-1.3-0.6-1.8-1.1c-0.4-0.4-0.8-0.9-1-1.4c-0.2-0.6-0.4-1.2-0.5-1.8c-0.1-0.6-0.2-1.3-0.2-1.9c0-0.7,0-1.3,0-1.9
	s0-1.2,0-1.9c0-0.6,0.1-1.3,0.2-1.9c0.1-0.6,0.3-1.2,0.5-1.7c0.2-0.5,0.6-1,1-1.5c0.5-0.5,1.1-0.9,1.8-1.1C75.3,6.2,76.1,6,76.9,6
	c0.8,0,1.6,0.1,2.3,0.4c0.7,0.3,1.3,0.8,1.8,1.3V6.2h4v22.6H80.9z M80.8,12.6c0-0.5-0.2-1-0.4-1.5c-0.2-0.4-0.5-0.7-0.9-1
	c-0.9-0.5-2-0.5-2.9,0c-0.4,0.2-0.7,0.6-0.8,1c-0.2,0.5-0.3,1-0.4,1.5c-0.1,0.6-0.1,1.2-0.1,1.9c0,0.6,0,1.3,0.1,1.9
	c0,0.5,0.2,1,0.4,1.5c0.2,0.4,0.5,0.8,0.8,1c0.9,0.5,2,0.5,2.9,0c0.4-0.3,0.7-0.6,0.9-1c0.2-0.5,0.3-1,0.4-1.5
	c0.1-0.6,0.1-1.3,0.1-1.9C80.9,13.9,80.9,13.2,80.8,12.6z"/>
<path class="st3" d="M101.1,22.8v-1.5c-0.5,0.6-1.2,1-1.9,1.3c-0.7,0.3-1.5,0.4-2.2,0.4c-0.8,0-1.5-0.1-2.2-0.4
	c-0.6-0.2-1.2-0.6-1.7-1.1c-0.6-0.6-1.1-1.4-1.3-2.2c-0.2-0.8-0.4-1.7-0.3-2.5V6.2h4.2v10c0,0.5,0.1,1,0.3,1.4
	c0.1,0.4,0.4,0.7,0.6,0.9c0.3,0.2,0.6,0.4,0.9,0.5c0.6,0.2,1.3,0.2,1.9,0c0.3-0.1,0.6-0.3,0.9-0.5c0.3-0.3,0.5-0.6,0.6-0.9
	c0.2-0.5,0.3-0.9,0.3-1.4v-10h4.2v16.5H101.1z"/>
<path class="st3" d="M120.1,22.8v-1.4c-0.5,0.5-1.1,0.9-1.7,1.2c-0.7,0.3-1.5,0.4-2.3,0.4c-1.5,0.1-3.1-0.4-4.2-1.5
	c-0.4-0.5-0.8-1-1-1.7c-0.2-0.7-0.4-1.4-0.4-2.1c0-0.6,0.1-1.3,0.4-1.9c0.2-0.6,0.6-1.1,1-1.5c0.5-0.4,1.1-0.8,1.8-1
	c0.8-0.3,1.6-0.4,2.5-0.4h3.9v-0.8c0.1-0.7-0.2-1.5-0.7-2c-0.7-0.5-1.5-0.7-2.4-0.6c-0.3,0-0.7,0-1,0.1c-0.3,0-0.5,0.1-0.8,0.2
	c-0.2,0.1-0.5,0.3-0.7,0.4c-0.2,0.2-0.4,0.4-0.6,0.6l-2.6-2.6c0.7-0.8,1.6-1.4,2.6-1.8c1.1-0.4,2.3-0.5,3.4-0.5
	c1.9-0.1,3.7,0.4,5.3,1.5c1.3,1.1,1.9,2.7,1.8,4.4v10.9H120.1z M120,15.8h-3.2c-0.6,0-1.2,0.1-1.7,0.5c-0.4,0.3-0.6,0.9-0.6,1.4
	c0,0.5,0.2,1,0.6,1.4c0.5,0.4,1.1,0.6,1.8,0.5c0.5,0,1,0,1.5-0.1c0.4-0.1,0.8-0.3,1.1-0.7c0.5-0.6,0.7-1.3,0.6-2.1L120,15.8z"/>
<path class="st3" d="M135.3,22.8c-0.8,0-1.5-0.1-2.2-0.4c-0.6-0.3-1.1-0.6-1.5-1.1c-0.4-0.4-0.7-1-0.9-1.5c-0.2-0.6-0.3-1.1-0.3-1.7
	V0.1h4.2v17.6c0,0.4,0.1,0.8,0.3,1.1c0.3,0.3,0.7,0.4,1.1,0.4h1.6v3.5H135.3z"/>
<path class="st3" d="M142.7,3.4V0h4.3v3.4L142.7,3.4z M142.8,22.8V6.2h4.2v16.5H142.8z"/>
<path class="st3" d="M161.9,22.8v-1.4c-0.5,0.5-1.1,0.9-1.7,1.2c-0.7,0.3-1.5,0.4-2.3,0.4c-1.5,0.1-3.1-0.4-4.2-1.5
	c-0.4-0.5-0.8-1-1-1.7c-0.2-0.7-0.4-1.4-0.4-2.1c0-0.6,0.1-1.3,0.4-1.9c0.2-0.6,0.6-1.1,1-1.5c0.5-0.4,1.1-0.8,1.8-1
	c0.8-0.3,1.6-0.4,2.5-0.4h3.9v-0.8c0.1-0.7-0.2-1.5-0.7-2c-0.7-0.5-1.5-0.7-2.4-0.6c-0.3,0-0.7,0-1,0.1c-0.3,0-0.5,0.1-0.8,0.2
	c-0.2,0.1-0.5,0.3-0.7,0.4c-0.2,0.2-0.4,0.4-0.6,0.6l-2.6-2.6c0.7-0.8,1.6-1.4,2.6-1.8c1.1-0.4,2.3-0.5,3.4-0.5
	c1.9-0.1,3.7,0.4,5.3,1.5c1.3,1.1,1.9,2.7,1.8,4.4v10.9H161.9z M161.8,15.8h-3.3c-0.6,0-1.2,0.1-1.7,0.5c-0.4,0.3-0.6,0.9-0.6,1.4
	c0,0.5,0.2,1,0.6,1.4c0.5,0.4,1.1,0.6,1.8,0.5c0.5,0,1,0,1.4-0.1c0.4-0.1,0.8-0.3,1.1-0.7c0.5-0.6,0.7-1.3,0.6-2.1V15.8z"/>
<path class="st3" d="M173.4,21.7c0-0.5,0-0.6-0.1-1.2c-0.4-2.5-0.6-4.9-0.6-7.4c0-3.3,0.3-6.5,1-9.7c0.2-0.8,0.3-1.5,0.4-2.3
	l3.3,0.3c-0.8,2.4-1.3,4.9-1.5,7.4c-0.2,1.8-0.4,3.7-0.4,5.5c0,0.5,0,0.7,0,1.4c0.4-1.1,0.8-2.2,1.3-3.3l2,0.9
	c-1.2,2.3-2,4.9-2.2,7.5c0,0.2,0,0.4,0,0.7L173.4,21.7z M184,11.9c-1.2,1.5-1.8,2.5-1.8,3.6c0,1.4,1.4,2.2,4,2.2c2,0,4-0.3,5.9-0.9
	l0.3,3.2c-0.3,0-0.7,0.1-1,0.2c-1.7,0.3-3.4,0.5-5.1,0.5c-3.1,0-5.1-0.7-6.2-2.2c-0.5-0.7-0.8-1.6-0.7-2.4c0.1-1.9,0.9-3.7,2.3-5.1
	L184,11.9z M179.9,3.6c1.5,0.3,3.1,0.5,4.6,0.4c2.3,0.1,4.5-0.2,6.8-0.7l0.1,3l-1.8,0.2c-1.8,0.2-3.5,0.3-5.3,0.3
	c-1.5,0-3-0.1-4.5-0.3L179.9,3.6z"/>
<path class="st3" d="M199.5,13.3c0-0.8,0-1.3,0.1-2.7c-0.5,0.8-1,1.6-1.7,2.4c-0.3-1-0.6-2-1.1-3c1.7-1.9,3.1-4.2,4-6.6
	c0.4-1.1,0.7-2.2,0.9-3.4l2.8,0.8c-0.2,0.4-0.3,0.7-0.4,1.1c-0.5,1.7-1.2,3.3-2,4.9v13.3c0,1.1,0,1.9,0.1,2.9h-2.9
	c0.1-1,0.2-1.9,0.1-2.9L199.5,13.3z M220,9.6c-1.5,1.4-3,2.6-4.7,3.8c1.2,2.6,3.1,4.8,5.4,6.5c-0.7,0.8-1.2,1.7-1.7,2.7
	c-4.8-4.2-7.2-9-7.9-15.8c-0.5,1.2-1.2,2.4-2,3.5V19c1.7-0.4,3.3-0.9,4.9-1.4v2.6c-3.5,1.1-3.5,1.1-8.9,2.3
	c-0.4,0.1-0.8,0.2-1.2,0.3l-0.5-2.8c1-0.1,2-0.2,3-0.4v-6.1c-0.8,0.8-1.7,1.5-2.6,2.2c-0.5-0.8-1-1.6-1.6-2.4c2.7-1.7,4.9-4.1,6.2-7
	h-2.4c-0.9,0-1.7,0-2.6,0.1V3.8c0.9,0.1,1.7,0.1,2.6,0.1h3.8v-2c0-0.6,0-1.2-0.1-1.8h3c-0.1,0.6-0.1,1.2-0.1,1.8v1.9h4.4
	c0.9,0,1.9,0,2.8-0.2v2.8c-0.9-0.1-1.9-0.2-2.8-0.2h-3.6c0.2,1.6,0.4,3.1,0.9,4.6c1.4-0.9,2.6-2,3.6-3.3L220,9.6z"/>
<path class="st3" d="M234.6,4.8c-0.6,0-1.1-0.1-2.1-0.1h-2v1.6h1.6c0.7,0,1.4,0,2.1-0.1c-0.1,0.7-0.1,1.3-0.1,2v3.3
	c0,0.7,0,1.3,0.1,2c-0.6,0-1-0.1-2-0.1h-1.1c1,1.4,2.2,2.5,3.7,3.4c-0.5,0.7-1,1.4-1.3,2.2c-0.3-0.3-0.7-0.6-1-0.9
	c-0.8-0.7-1.5-1.6-2.1-2.5c0.1,1.2,0.1,2,0.1,2.9v1.7c0,0.8,0,1.7,0.1,2.5H228c0.1-0.8,0.2-1.7,0.1-2.5v-1.6c0-0.9,0-1.7,0.1-2.7
	c-0.9,1.8-2.2,3.5-3.8,4.8c-0.3-0.9-0.8-1.7-1.4-2.3c1.8-1.3,3.3-3,4.5-5h-1c-1,0-1.4,0-2.1,0.1c0.1-0.8,0.1-1.5,0.1-2.3V8.5
	c0-0.7,0-1.5-0.1-2.2c0.8,0.1,1.6,0.1,2.4,0.1h1.3V4.8h-1.7c-0.9,0-1.8,0-2.7,0.1V2.2c0.9,0.1,1.8,0.1,2.7,0.1h1.7
	c0-0.7,0-1.5-0.1-2.2h2.6c-0.1,0.7-0.2,1.4-0.1,2.1v0.2h2.1c0.7,0,1.3,0,2-0.1V0.6c0.9,0.1,1.8,0.2,2.6,0.2h6.5c0.9,0,1.8,0,2.7-0.1
	v2.6c-0.9-0.1-1.8-0.2-2.7-0.1h-1.8c-0.3,0.8-0.5,1.3-0.7,1.9h2c1.3,0,1.8,0,2.4-0.1c0,0.7-0.1,1.4-0.1,2.4v8.2c0,1,0,1.9,0.1,2.6
	c-0.9,0-1.4-0.1-2.1-0.1h-0.7c1.2,1.4,2.7,2.4,4.4,3c-0.7,0.6-1.2,1.3-1.7,2.1c-1.7-0.9-3.3-2.2-4.6-3.7l1.6-1.4h-4.6l1.8,1.4
	c-1.4,1.6-3.1,2.9-5.1,3.7c-0.4-0.8-0.9-1.4-1.5-2c1.3-0.4,2.5-1.1,3.5-1.9c0.4-0.3,0.8-0.7,1.1-1.1h-0.4c-0.8,0-1.4,0-1.9,0.1
	c0-0.8,0-1.2,0-2.3V7.3c0-1.1,0-1.6-0.1-2.3c0.6,0,1,0,2.1,0h1.1c0.3-0.6,0.5-1.2,0.7-1.9h-2.7c-0.6,0-1.2,0-1.8,0.1L234.6,4.8z
	 M226.8,8.6v2.7h1.3V8.6H226.8z M230.5,11.3h1.4V8.6h-1.4V11.3z M237.8,8.8h5.2V7.3h-5.2V8.8z M237.8,12.2h5.2v-1.5h-5.2V12.2z
	 M237.8,15.8h5.2v-1.5h-5.2V15.8z"/>
<path class="st3" d="M265,9.8c0,0.1,0,0.3,0,0.6c0.5,1.1,0.8,2.3,0.8,3.5c0,2.7-1.4,5.2-3.7,6.7c-1.4,0.9-2.9,1.6-4.5,2
	c-0.4-1-1-2-1.8-2.8c1.5-0.2,2.9-0.7,4.2-1.4c1.5-0.7,2.6-2.1,2.9-3.7c-0.8,1.2-2.2,1.9-3.6,1.8c-1,0-2.1-0.3-2.9-0.9
	c-1.1-0.7-1.8-2-1.7-3.4c0-2.6,2.1-4.5,4.9-4.5c0.9,0,1.8,0.2,2.6,0.7c0-0.1,0-0.2,0-0.3c0,0,0-1.4,0-2.1c-3.5,0.1-5.9,0.2-7,0.3
	c-3.8,0.3-3.8,0.3-4.4,0.4l-0.1-3c0.4,0,0.8,0,1.2,0c0.6,0,1,0,4.2-0.1l3.9-0.1l2.1-0.1c0.1-1,0-2-0.1-3h3.1c-0.1,1-0.2,2-0.1,3
	c4.3,0,6.3-0.1,7.2-0.2v2.9C271.3,6,270.1,6,268,6c-0.6,0-1,0-3,0v1.6L265,9.8z M259.9,10.1c-1.2-0.1-2.2,0.8-2.3,2c0,1.1,0.9,2,2,2
	c0,0,0.1,0,0.1,0c1.3,0.1,2.3-0.8,2.4-2.1c0-0.1,0-0.1,0-0.2C262.1,10.8,261.3,10.1,259.9,10.1z"/>
<path class="st3" d="M285.2,10.6c1.6-0.8,3.4-1.2,5.2-1.2c4.3,0,7,2.2,7,5.6c0,2.3-1.3,4.5-3.4,5.5c-1.8,1-3.9,1.5-6,1.4
	c-1.7,0.1-3.4-0.3-4.8-1.1c-0.9-0.7-1.5-1.7-1.5-2.9c0-2.1,1.8-3.6,4.3-3.6c1.7,0,3.3,0.7,4.3,2c0.5,0.7,0.9,1.5,1.1,2.3
	c2.1-0.8,3-1.8,3-3.6c0-1.9-1.9-3.2-4.9-3.2c-3.8,0.1-7.5,1.6-10.3,4.2l-1.7-2.7c1.2-0.7,2.4-1.5,3.5-2.3c2.6-2,5.1-4.2,7.4-6.5
	l0.5-0.5l0,0c-1,0.1-2.5,0.2-7,0.4c-0.4,0-0.8,0.1-1.2,0.1l-0.1-3c1,0.1,2,0.2,2.9,0.2c2.1,0,5.2-0.1,7.6-0.3c0.5,0,1.1-0.1,1.5-0.3
	l1.5,2.2c-0.5,0.3-0.9,0.6-1.3,1c-1.3,1.1-3.1,2.8-3.9,3.5c-0.5,0.4-2.2,1.7-2.7,2C285.8,10.2,285.6,10.3,285.2,10.6L285.2,10.6z
	 M285.9,16.8c-0.9,0-1.5,0.5-1.5,1.1c0,1,1.1,1.6,3,1.6c0.4,0,0.9,0,1.3-0.1C288.3,17.8,287.3,16.8,285.9,16.8z"/>
<path class="st3" d="M321.8,2.2c-0.3,0.6-0.6,1.2-0.9,1.8c-0.9,2.4-2.1,4.8-3.5,7c2,1.6,3.8,3.4,5.5,5.3l-2.4,2.6
	c-1.5-1.9-3.2-3.7-5-5.3c-1.1,1.5-2.4,2.9-3.9,4.2c-1.8,1.6-3.8,2.9-5.9,4.1c-0.5-1-1.3-1.9-2.2-2.6c2.4-1.1,4.5-2.5,6.4-4.3
	c1.2-1,2.2-2.2,3.2-3.4c-2.1-1.7-4.3-3.2-6.6-4.5l2.2-2.2c1.8,1.1,2.9,1.8,4.1,2.6c1.9,1.3,1.9,1.3,2.1,1.5c1.5-2.5,2.7-5.2,3.5-8
	L321.8,2.2z"/>
<path class="st3" d="M336.5,1.3c-0.1,0.7-0.1,1.5-0.1,2.2v6.9c0,0.7,0,1.5,0.1,2.2h-3.4c0.1-0.7,0.1-1.5,0.1-2.2V3.5
	c0-0.7,0-1.5-0.1-2.2L336.5,1.3z M347.8,1.3c-0.1,0.8-0.2,1.5-0.1,2.3V7c0.1,2.5-0.1,5.1-0.6,7.5c-0.8,2.5-2.5,4.6-4.9,5.8
	c-1.5,0.8-3.2,1.5-4.8,1.9c-0.4-1.1-1-2.1-1.7-3c1.9-0.3,3.7-0.9,5.4-2c2.3-1.5,3.2-3.1,3.4-6.3c0.1-1.1,0.1-2.2,0.1-4.2v-3
	c0-0.8,0-1.6-0.1-2.4L347.8,1.3z"/>
<path class="st3" d="M361,6.6c1,1.9,1.8,3.8,2.4,5.9l-2.8,0.9c-0.5-2.1-1.2-4.1-2.3-6L361,6.6z M375.3,6.8c-0.2,0.4-0.3,0.8-0.3,1.3
	c-0.5,3-1.7,5.8-3.4,8.3c-1.8,2.5-3.9,4.1-7.6,6c-0.5-0.9-1.2-1.8-2-2.5c1.5-0.5,2.9-1.3,4.2-2.3c2.9-2.1,4.9-5.2,5.6-8.6
	c0.3-0.9,0.4-1.9,0.5-2.9L375.3,6.8z M366.3,5.6c1.1,1.8,1.9,3.7,2.5,5.7l-2.8,0.9c-0.5-2-1.3-4-2.3-5.8L366.3,5.6z"/>
<path class="st3" d="M387.4,22c0.1-0.9,0.2-1.9,0.1-2.8V3.3c0-0.8,0-1.7-0.1-2.5h3.4c-0.1,0.9-0.1,1.7-0.1,2.6V8
	c3.9,1.4,7.7,3.2,11.3,5.3l-1.7,2.9c-2.8-1.8-5.7-3.4-8.8-4.8c-0.3-0.1-0.6-0.3-0.8-0.4c0.1,0.6,0.1,1.1,0.1,1.7v6.6
	c0,0.9,0,1.8,0.1,2.8H387.4z"/>
<path class="st3" d="M77.7,108.3c-1,0-2.1,0-3.1,0.1v-3.2c1,0.2,2.1,0.2,3.1,0.2h11.4V94.4h-11c-1.1,0-2.1,0-3.2,0.1v-3.3
	c1.1,0.2,2.2,0.2,3.2,0.2h12c1.3,0,1.3,0,2.2,0c-0.1,0.7-0.1,1.4-0.1,2.1v13.7c0,0.9,0,1.7,0.1,2.6H89v-1.5L77.7,108.3z"/>
<path class="st3" d="M118.5,110.3c-2.3-2.8-4.8-5.2-7.7-7.4c-2.6,3-5.9,5.5-9.5,7.2c-0.5-1-1.2-2-2-2.8c1.8-0.7,3.5-1.6,5-2.8
	c3.7-2.5,6.6-6.1,8.4-10.2l0.3-0.6c-0.4,0-0.4,0-8.3,0.1c-0.9,0-1.8,0.1-2.7,0.2l-0.1-3.2c0.7,0.1,1.5,0.2,2.2,0.1h0.6l8.8-0.1
	c0.8,0.1,1.5,0,2.2-0.3l1.6,1.7c-0.3,0.4-0.6,0.9-0.8,1.4c-1,2.4-2.3,4.8-3.9,6.9c1.6,1.1,3.2,2.3,4.6,3.6c0.6,0.6,0.6,0.6,3.6,3.5
	L118.5,110.3z"/>
<path class="st3" d="M130.7,110.6c0.1-0.9,0.2-1.9,0.1-2.8v-16c0-0.9,0-1.7-0.1-2.6h3.4c-0.1,0.9-0.1,1.8-0.1,2.6v4.6
	c3.9,1.4,7.7,3.2,11.4,5.3l-1.8,3c-2.8-1.8-5.7-3.5-8.8-4.8c-0.3-0.1-0.6-0.3-0.9-0.4c0.1,0.6,0.1,1.1,0.1,1.7v6.6
	c0,1.3,0,2,0.1,2.8L130.7,110.6z"/>
<path class="st4" d="M45.1,179.1c-1.1,1-1.6,1.7-1.6,2.5c0,1.2,1.3,1.7,4.4,1.7c1.9,0,3.8-0.2,5.6-0.8l0.2,2.5c-0.3,0-0.4,0-0.8,0.1
	c-1.6,0.3-3.2,0.4-4.9,0.4c-1.5,0.1-3-0.1-4.5-0.6c-1.4-0.4-2.3-1.6-2.3-3c0-1.4,0.7-2.6,2.3-3.9L45.1,179.1z M42.3,171.7
	c1.8,0.4,3.6,0.5,5.4,0.5c1.6,0.1,3.2-0.1,4.8-0.4l0.1,2c-1.7,0.9-3.3,1.9-4.8,3l-1.6-1.2c0.9-0.6,1.8-1.1,2.6-1.6
	c-0.9,0.1-1.8,0.2-2.7,0.1c-1.1,0-2.2-0.1-3.3-0.2l-0.7-0.1L42.3,171.7z M51.3,175.3c0.7,0.7,1.2,1.4,1.6,2.3l-1.3,0.8
	c-0.4-0.8-1-1.6-1.6-2.3L51.3,175.3z M53.6,177.2c-0.4-0.8-1-1.6-1.6-2.2l1.3-0.7c0.6,0.6,1.2,1.4,1.6,2.2L53.6,177.2z"/>
<path class="st4" d="M73.3,172c-0.7,0.6-1.4,1.2-2.1,1.7c-1.1,0.7-1.9,1.3-2.8,1.8l0.8,0.6l-0.5,0.5h3.2c0.7,0,1.3,0,2-0.1l1.1,1.2
	c0,0-0.4,0.5-1.2,1.5c-0.8,1.1-1.8,2.1-2.9,3c-0.4-0.5-1-1-1.6-1.4c1-0.7,1.9-1.5,2.6-2.4h-4.2v6.2c0,1.5-0.6,1.9-2.8,1.9
	c-0.6,0-1.5,0-2.1-0.1c-0.1-0.7-0.3-1.4-0.5-2c0.9,0.1,1.7,0.2,2.6,0.2c0.6,0,0.7-0.1,0.7-0.5v-5.7h-4.8c-0.8,0-1.5,0-2.3,0.1v-2
	c0.8,0.1,1.6,0.1,2.4,0.1h5.6c-1.3-0.9-2.6-1.8-4-2.6L64,173c1.2,0.6,1.6,0.9,2.6,1.6c1-0.5,2-1.1,2.9-1.9h-7c-0.7,0-1.4,0-2.2,0.1
	v-2c0.7,0.1,1.5,0.1,2.2,0.1h8c0.5,0,1,0,1.6-0.1L73.3,172z"/>
<path class="st4" d="M80.7,172.8c-0.6,0.8-1.2,1.6-2,2.3c-0.4-0.5-0.8-1-1.3-1.5c0.7-0.6,1.4-1.3,1.9-2.1c0.4-0.5,0.7-1.1,0.9-1.7
	l1.9,0.4c-0.1,0.1-0.2,0.4-0.4,0.9h2.3c0.6,0,1.1,0,1.7-0.1v1.6c0.7-0.8,1.3-1.8,1.6-2.9l1.9,0.5l-0.4,0.9H92c0.6,0,1.2,0,1.8-0.1
	v1.8c-0.6-0.1-1.2-0.1-1.8-0.1h-1.4c0.2,0.4,0.5,0.7,0.7,1.1l-1.2,0.4c0.9,0,1.3,0,1.7-0.1c0,0.5-0.1,1-0.1,2v3.4
	c0,0.6,0,1.3,0.1,1.9c-0.6,0-0.9-0.1-1.9-0.1h-0.4v0.8h2.3c0.7,0,1.4,0,2.1-0.1v1.8c-0.7-0.1-1.4-0.1-2.1-0.1h-2.3v1.3
	c0,0.5,0,1.1,0.1,1.6h-2.1c0.1-0.5,0.1-1.1,0.1-1.6v-1.3H84c-0.3,0.9-0.9,1.6-1.7,2.1c-0.9,0.5-1.8,0.8-2.9,1
	c-0.3-0.6-0.7-1.1-1.1-1.6c0.7,0,1.5-0.2,2.2-0.4c0.6-0.2,1.2-0.5,1.6-1.1h-2.4c-0.7,0-1.3,0-2,0.1v-1.8c0.7,0.1,1.3,0.1,2,0.1h2.8
	c0-0.3,0-0.4,0-0.8h-0.7c-1,0-1.3,0-1.9,0.1c0.1-0.6,0.1-1.2,0.1-1.8v-4.2c0-0.5,0-0.9,0-1.3c0.4,0,0.7,0.1,1.4,0.1h1
	c-0.2-0.5-0.4-1-0.7-1.5L80.7,172.8z M81.8,176.3H90v-0.6h-8.2L81.8,176.3z M81.8,178.2H90v-0.7h-8.2L81.8,178.2z M81.8,180.1H90
	v-0.7h-8.2L81.8,180.1z M83.4,172.8c0.3,0.4,0.5,0.8,0.7,1.1l-1.3,0.4h3.3c-0.4-0.4-0.8-0.7-1.2-0.9c0.2-0.2,0.4-0.4,0.6-0.6
	c-0.4,0-0.8,0-1.3,0L83.4,172.8z M87.7,182.2v-0.8h-3.3c0,0.3,0,0.5,0,0.8H87.7z M89.7,174.3c-0.2-0.5-0.5-1.1-0.9-1.5h-1.1
	c-0.4,0.5-0.8,1.1-1.2,1.5L89.7,174.3z"/>
<path class="st4" d="M98.4,185.8c0-0.3,0-0.4-0.1-0.9c-0.3-1.8-0.5-3.6-0.5-5.4c0-2.4,0.3-4.7,0.7-7c0.1-0.5,0.2-1.1,0.3-1.7
	l2.4,0.3c-0.6,1.7-1,3.5-1.1,5.4c-0.2,1.3-0.3,2.7-0.3,4c0,0.4,0,0.5,0,1c0.3-0.8,0.6-1.6,0.9-2.4l1.4,0.6c-0.9,1.7-1.4,3.6-1.6,5.5
	c0,0.1,0,0.3,0,0.5L98.4,185.8z M106.1,178.6c-0.7,0.7-1.2,1.6-1.3,2.6c0,1,1,1.6,2.9,1.6c1.5,0,2.9-0.2,4.3-0.7l0.2,2.3
	c-0.2,0-0.5,0.1-0.7,0.1c-1.2,0.2-2.5,0.3-3.7,0.3c-2.2,0-3.7-0.5-4.5-1.6c-0.4-0.5-0.5-1.1-0.5-1.8c0.1-1.4,0.7-2.7,1.7-3.7
	L106.1,178.6z M103.1,172.6c1.1,0.2,2.2,0.3,3.3,0.3c1.6,0,3.3-0.1,4.9-0.5l0.1,2.2l-1.3,0.2c-1.3,0.2-2.6,0.2-3.9,0.2
	c-1.1,0-2.2-0.1-3.2-0.2L103.1,172.6z"/>
<path class="st4" d="M128.2,175.2c-0.1,0.2-0.2,0.3-0.2,0.5c-0.2,0.5-0.2,0.5-0.3,0.7c0.7,0.2,1.3,0.5,1.9,0.9
	c1.1,0.8,1.8,2.1,1.7,3.4c0,2-1.3,3.8-3.1,4.5c-1.1,0.6-2.4,0.9-3.7,1c-0.2-0.7-0.5-1.4-1-2c1.2,0,2.4-0.2,3.4-0.7
	c1.4-0.7,2.1-1.6,2.1-2.8c0-1.2-0.9-2.2-2-2.5c-0.7,1.8-1.8,3.4-3.1,4.8c-1.6,1.7-3.2,2.6-4.7,2.6c-1.6,0-2.8-1.3-2.8-2.9
	c0-0.1,0-0.2,0-0.3c0-1.5,0.7-3,1.8-4c0.7-0.7,1.5-1.3,2.5-1.7c0-0.6,0-1.3,0.1-2.2c-0.2,0-1.2,0-2.9-0.1h-0.3c-0.1,0-0.3,0-0.4,0
	v-2c1.1,0.2,2.2,0.3,3.4,0.3h0.4c0-0.4,0-0.4,0.1-1.1c0-0.2,0-0.7,0-1c0-0.1,0-0.2,0-0.3l2.2,0.1c-0.2,0.7-0.3,1.5-0.3,2.2
	c2.3-0.1,4.6-0.4,6.8-0.9l0.1,2c-0.3,0-0.3,0-0.7,0.1c-2.1,0.3-4.2,0.5-6.3,0.6c-0.1,0.8-0.1,1.4-0.1,1.7c0.8-0.2,1.6-0.3,2.5-0.2
	c0.2,0,0.5,0,0.7,0c0.2-0.4,0.3-0.9,0.4-1.4L128.2,175.2z M119.3,180c-0.5,0.6-0.8,1.4-0.8,2.2c0,0.8,0.4,1.3,1,1.3
	c0.6,0,1.1-0.3,1.6-0.7c-0.2-1.3-0.4-2.7-0.3-4.1C120.2,179.1,119.7,179.5,119.3,180z M122.8,181.5c0.1-0.1,0.1-0.2,0.2-0.3
	c0.9-1.1,1.7-2.3,2.2-3.6c-0.2,0-0.3,0-0.5,0c-0.7,0-1.5,0.1-2.2,0.3c0,1,0,2.1,0.1,3.1c0,0.1,0,0.2,0,0.2
	C122.7,181.4,122.7,181.4,122.8,181.5L122.8,181.5z"/>
<path class="st4" d="M134.8,181c1.1-0.9,2.2-1.9,3.3-2.9c0-1.1,0-1.1,0.1-2.6c-0.9,0-1.8,0.1-2.7,0.3l-0.1-2h0.6
	c0.3,0,1.3-0.1,2.3-0.1c0-0.4,0.1-0.9,0.1-1.4c0-0.4,0-0.6,0-0.8v-0.2c0-0.3,0-0.5-0.1-0.8h2.3c-0.1,0.6-0.2,1.1-0.2,1.7l-0.1,0.9
	v0.3c0.1,0,0.2,0,0.3-0.1l0.7,0.7c-0.4,0.4-0.7,0.7-1,1.2c0,0.8-0.1,1.2-0.1,1.2l0,0c0.1-0.1,0.3-0.2,0.4-0.3c1.5-1.2,3.3-1.9,5.2-2
	c1.3,0,2.6,0.5,3.5,1.5c0.9,1,1.4,2.3,1.4,3.7c0.1,2.1-1,4.1-2.9,5.1c-1,0.5-2.1,0.7-3.2,0.7c-0.9,0-1.8-0.1-2.7-0.4
	c0-0.8-0.1-1.6-0.4-2.3c1,0.4,2.1,0.7,3.2,0.7c2,0.1,3.6-1.4,3.7-3.4c0-0.1,0-0.2,0-0.3c0.1-1.6-1-3-2.6-3.1c-0.1,0-0.3,0-0.4,0
	c-1.5,0-3.3,0.9-5.2,2.7v1.8c0,2.6,0.1,4.6,0.1,5.4h-2.3c0.1-1,0.2-1.9,0.1-2.9v-1.6c0-0.5,0-0.7,0-1.1l0,0
	c-0.2,0.3-0.5,0.6-0.8,0.9c-0.5,0.5-1,1-1.4,1.6L134.8,181z"/>
<path class="st4" d="M168.6,185.3c-0.3,0-0.5,0-0.8,0.1c-1.3,0.1-3.7,0.3-4.9,0.3c-3.4,0-4.8-0.6-5.4-2.4c-0.3-0.8-0.3-1.8-0.3-4.9
	c0-0.3,0-0.3,0-1.7c-1.1,0-2.2,0.1-3.3,0.3l-0.1-2.1h0.5c0.2,0,1.2-0.1,2.9-0.2c0-0.3,0-0.4,0-0.6c0-1,0-2-0.1-3.1h2.4
	c-0.1,1.2-0.2,2.3-0.2,3.5l5.2-0.3c0.1-1.2,0-2.4-0.1-3.6h2.3c-0.1,0.4-0.1,0.8-0.1,1.2v2.3c2.9-0.1,2.9-0.1,3.5-0.2v2.1
	c-0.3,0-0.7-0.1-1-0.1h-2.5c0.1,1.3-0.1,2.6-0.5,3.8c-0.4,0.9-1.3,1.4-2.2,1.4c-0.9,0-1.8-0.2-2.6-0.6c0-0.4,0-0.5,0-0.7
	c0-0.5,0-1-0.1-1.5c0.7,0.5,1.5,0.8,2.4,0.9c0.5,0,0.7-0.2,0.8-0.9c0.1-0.7,0.2-1.5,0.2-2.3c-2.7,0.1-2.7,0.1-5.2,0.3v0.5
	c0,0.1,0,0.1,0,1v0.4c0,0.9,0,2.9,0.1,3.3c0.1,1.5,0.9,1.9,3.9,1.9c1.8,0.1,3.5-0.1,5.2-0.7L168.6,185.3z"/>
<path class="st4" d="M173.9,173.3c0.8,0.1,1.6,0.2,2.4,0.2h0.8c0.2-0.9,0.3-1.8,0.3-2.8c0-0.1,0-0.2,0-0.3l2.4,0.2
	c-0.2,0.6-0.3,1.1-0.4,1.7c-0.1,0.5-0.1,0.6-0.2,1c1-0.1,2.1-0.2,3.1-0.5l0.1,2.1l-0.6,0.1c-1,0.2-2,0.3-3,0.4
	c-0.2,1.1-0.6,3-1.1,4.7c-0.6,2-1.2,4-2,6l-2.3-0.9c1.5-3.1,2.6-6.3,3.2-9.7h-1.9c-0.3,0-0.6,0-0.7,0c-0.1,0-0.2,0-0.3,0
	L173.9,173.3z M182.8,180.3c-0.6,0.5-0.9,1.2-0.9,2c0,0.9,0.9,1.4,2.7,1.4c1.4,0,2.8-0.2,4.1-0.7l0.2,2.2c-0.3,0-0.5,0.1-0.9,0.1
	c-1.1,0.2-2.2,0.3-3.4,0.3c-1.2,0.1-2.5-0.2-3.6-0.7c-0.8-0.5-1.3-1.3-1.3-2.2c0.1-1.2,0.5-2.3,1.3-3.1L182.8,180.3z M188.1,177.9
	c-0.8-0.1-1.5-0.1-2.3-0.1c-1.6,0-3.2,0.1-4.8,0.5l-0.2-2c1.8-0.4,3.6-0.6,5.4-0.6h1.8L188.1,177.9z"/>
<path class="st4" d="M36.4,212.8c-1.7,0.3-1.7,0.3-3.7,0.6c-1.4,0.2-2.1,0.3-2.5,0.4l-0.4-1.9c0.1,0,0.2,0,0.3,0
	c0.3,0,0.8,0,1.6-0.1v-5.6c-0.6,0-1.2,0-1.8,0.1v-1.7c0.6,0.1,1.2,0.1,1.9,0.1h12.7c0.6,0,1.3,0,1.9-0.1v1.7
	c-0.6-0.1-1.3-0.1-1.9-0.1h-6.3v6.6c0.9-0.3,1.7-0.7,2.4-1.3c-0.6-0.7-1.2-1.5-1.6-2.3l1.5-0.7H40c-0.5,0-0.9,0-1.3,0.1V207
	c0.5,0.1,1,0.1,1.5,0.1h3c0.5,0,0.9,0,1.4-0.1l0.9,1c-0.1,0.2-0.2,0.3-0.3,0.5c-0.5,1.1-1.2,2.2-2.1,3.1c1,0.6,2.1,1,3.2,1.3
	c-0.4,0.6-0.7,1.1-0.9,1.8c-1.3-0.4-2.5-1-3.5-1.9c-0.8,0.7-1.8,1.3-2.8,1.8c-0.2-0.6-0.5-1.1-0.9-1.5c0,0.6,0,1.2,0.1,1.7h-2
	c0.1-0.6,0.1-1.2,0.1-1.8L36.4,212.8z M44.4,202.6c0,0.5,0,1,0.1,1.6c-0.4,0-1.1-0.1-1.7-0.1h-9.2c-0.8,0-1.3,0-1.8,0.1
	c0.1-0.5,0.1-1,0.1-1.6v-2.4c0-0.5,0-1-0.1-1.6c0.6,0.1,1.1,0.1,1.9,0.1h8.9c0.8,0,1.3,0,1.9-0.1c-0.1,0.5-0.1,1-0.1,1.6L44.4,202.6
	z M36.4,206.3h-3v0.8h3V206.3z M36.4,208.4h-3v0.9h3V208.4z M36.4,210.6h-3v1.1c0.9-0.1,1.3-0.1,3-0.4V210.6z M33.7,200.8h8.8V200
	h-8.8L33.7,200.8z M33.7,202.8h8.8V202h-8.8L33.7,202.8z M40.6,208.6c0.3,0.7,0.8,1.3,1.3,1.9c0.5-0.6,1-1.2,1.3-1.9H40.6z"/>
<path class="st4" d="M48.8,204.9c0.5,0.1,1,0.1,1.4,0.1h1.3c0.5,0,0.9,0,1.4-0.1c-0.1,0.7-0.1,1.3-0.1,2v3.8c0.2,0.4,0.4,0.7,0.8,1
	c0.4,0.3,0.7,0.4,1.2,0.5c1,0.2,1.9,0.3,2.9,0.3c2.7,0,5.3-0.1,8-0.4c-0.3,0.6-0.5,1.3-0.5,2.1c-1.8,0.1-3.8,0.1-5.8,0.1
	c-1.7,0.1-3.5,0-5.2-0.4c-0.9-0.3-1.7-0.9-2.3-1.6c-0.8,0.8-1.7,1.5-2.6,2.2l-0.9-2.1c0.9-0.5,1.8-1,2.5-1.8v-3.9h-1
	c-0.4,0-0.8,0-1.2,0.1L48.8,204.9z M50.3,198.3c1.1,1,2.2,2.1,3.1,3.3l-1.5,1.5c-0.9-1.2-1.9-2.4-3-3.4L50.3,198.3z M58.3,210.3v0.8
	h-1.5c0-0.4,0.1-0.8,0.1-1.2v-2.1c0-0.4,0-0.8-0.1-1.2c0.4,0,0.8,0.1,1.3,0.1h0.5v-0.9h-0.8c-0.5,0-1,0-1.5,0.1v-1.5
	c0.5,0.1,1,0.1,1.5,0.1h0.8v-0.9h-2.6v6.1c0,0.7,0,1.3,0.1,2h-1.9c0-0.5,0.1-1.3,0.1-2v-5.8c0-0.9,0-1.3-0.1-1.9
	c0.5,0,1,0.1,1.9,0.1h0.5c-0.2-0.4-0.3-0.8-0.5-1.1h-0.5c-0.6,0-1.2,0-1.9,0.1v-1.8c0.6,0.1,1.3,0.1,1.9,0.1h3c0-0.4,0-0.9-0.1-1.3
	h2.1c-0.1,0.4-0.1,0.9-0.1,1.3h3.1c0.6,0,1.2,0,1.9-0.1v1.8c-0.6-0.1-1.2-0.1-1.7-0.1h-0.7c-0.2,0.4-0.3,0.8-0.5,1.1h0.8
	c0.6,0,1.2,0,1.8-0.1c-0.1,0.6-0.1,1.3-0.1,1.9v6.2c0,1-0.2,1.4-0.9,1.6c-0.7,0.1-1.3,0.2-2,0.2c-0.1,0-0.3,0-0.7,0
	c-0.1-0.5-0.2-1-0.3-1.5L58.3,210.3z M60.2,202c0.1-0.3,0.3-0.6,0.4-1.1h-2.9c0.2,0.4,0.3,0.7,0.5,1.1H60.2z M58.3,209h2v-1.1h-2
	V209z M61.9,209.3v0.8h0.3c0.6,0,0.7-0.1,0.7-0.4v-6.2h-2.7v0.9H61c0.5,0,1,0,1.5-0.1v1.4c-0.5-0.1-1-0.1-1.5-0.1h-0.8v0.9h0.7
	c0.4,0,0.8,0,1.2-0.1c0,0.3-0.1,0.7-0.1,1.2L61.9,209.3z"/>
<path class="st4" d="M79.7,200.1c0.3,0,0.6,0,1,0c0-1.1,0.9-2,2-2s2,0.9,2,2s-0.9,2-2,2h-0.2c-0.5,2.1-1.3,4-2.4,5.8
	c-1.2,1.7-2.7,3.2-4.5,4.4c-1.1,0.7-2.2,1.3-3.4,1.8c-0.4-0.8-0.9-1.5-1.6-2.1c1.4-0.4,2.7-1,3.9-1.8c2.8-1.8,4.8-4.6,5.5-7.9h-8.6
	c-0.8,0-1.5,0-2.3,0.1V200c0.8,0.1,1.5,0.2,2.3,0.1L79.7,200.1z M81.7,200.1c0,0.6,0.5,1,1,1c0.6,0,1-0.5,1-1c0-0.6-0.4-1-1-1
	C82.2,199.1,81.7,199.5,81.7,200.1C81.7,200.1,81.7,200.1,81.7,200.1z"/>
<path class="st4" d="M102.4,204.5c-0.2,0.4-0.4,0.7-0.5,1.1c-0.8,2.4-2.2,4.5-4.2,6.1c-1.4,1.1-3,1.9-4.7,2.4
	c-0.3-0.8-0.8-1.5-1.4-2.1c1.8-0.4,3.5-1.2,5-2.4c1.3-1.1,2.3-2.6,2.9-4.2h-8.8c-0.8,0-1.5,0-2.3,0.1v-2.2c0.8,0.1,1.6,0.2,2.3,0.1
	h8.6c0.7,0,1.3,0,2-0.2L102.4,204.5z M89.9,199.1c0.7,0.1,1.4,0.2,2.1,0.1h6.3c0.7,0,1.4,0,2.1-0.1v2.2c-0.7-0.1-1.4-0.1-2.1-0.1H92
	c-0.7,0-1.4,0-2.1,0.1L89.9,199.1z"/>
<path class="st4" d="M107.5,211.1c1.8-0.2,3.6-0.6,5.3-1.3c2.2-0.9,4-2.4,5.4-4.4c0.8-1.1,1.4-2.3,1.8-3.6c0.5,0.7,1.2,1.3,1.9,1.8
	c-1.2,2.9-3.2,5.3-5.7,7.1c-2.1,1.3-4.4,2.2-6.9,2.7c-0.4,0.1-0.8,0.2-1.2,0.3L107.5,211.1z M109.1,199.9c1.7,1,3.2,2.1,4.6,3.5
	l-1.6,2c-1.3-1.5-2.9-2.7-4.6-3.7L109.1,199.9z"/>
<path class="st4" d="M126.5,200.3c1.4,0.2,2.8,0.3,4.2,0.2c0.4-0.7,0.6-1.5,0.7-2.2l2.4,0.3c-0.3,0.5-0.5,1.1-0.7,1.6
	c0,0.1-0.1,0.2-0.2,0.3l1.1-0.1c1.6,0,3.2-0.2,4.7-0.6l0.1,2.1c-0.5,0-0.5,0-1.4,0.1c-1.3,0.2-3.6,0.3-5.4,0.4
	c-0.4,0.9-1,1.7-1.7,2.4l0,0l0.4-0.3c0.7-0.5,1.6-0.8,2.5-0.8c1.2-0.1,2.3,0.7,2.6,1.9c1.4-0.5,2.3-0.8,2.8-1
	c0.5-0.1,0.9-0.3,1.3-0.5l0.9,2.1c-0.7,0.1-1.3,0.3-2,0.5c-0.3,0.1-1.1,0.4-2.7,0.9v0.2c0,0.5,0,0.5,0,0.7v0.7c0,0.3,0,0.5,0,0.6
	c0,0.3,0,0.7,0,1l-2.1,0.1c0.1-0.7,0.1-1.4,0.1-2.1v-0.4c-0.6,0.3-1.2,0.6-1.7,0.9c-0.5,0.3-0.9,0.9-0.9,1.5c0,0.9,0.9,1.3,3,1.3
	c1.8,0.1,3.6-0.2,5.3-0.8l0.2,2.3c-0.3,0-0.5,0-0.8,0.1c-1.5,0.2-3.1,0.3-4.6,0.3c-1.4,0.1-2.8-0.2-4-0.8c-0.8-0.5-1.3-1.4-1.3-2.3
	c0-0.7,0.3-1.5,0.8-2c1-1.2,2.4-2.1,3.9-2.5c0-0.6-0.4-1-1-1c0,0-0.1,0-0.1,0c-1.4,0.2-2.7,0.8-3.7,1.9c-0.6,0.5-1.1,1-1.6,1.6
	l-1.6-1.6c0.6-0.5,1.1-1,1.6-1.6c0.8-1,1.5-2,2.2-3.1c0-0.1,0.1-0.2,0.1-0.2h-0.3h-2.3h-0.5c-0.1,0-0.2,0-0.3,0L126.5,200.3z"/>
<path class="st4" d="M150,207.1c-1.1,1-1.6,1.7-1.6,2.5c0,1.2,1.3,1.7,4.4,1.7c1.9,0,3.8-0.2,5.6-0.8l0.2,2.5c-0.3,0-0.4,0-0.8,0.1
	c-1.6,0.3-3.2,0.4-4.9,0.4c-1.5,0.1-3-0.1-4.5-0.6c-1.4-0.4-2.3-1.6-2.3-3c0-1.4,0.7-2.6,2.3-3.9L150,207.1z M147.3,199.7
	c1.8,0.4,3.6,0.5,5.4,0.5c1.6,0.1,3.2-0.1,4.8-0.4l0.1,2c-1.7,0.9-3.3,1.9-4.8,3l-1.6-1.2c0.9-0.6,1.8-1.1,2.6-1.6
	c-0.9,0.1-1.8,0.2-2.7,0.1c-1.1,0-2.2-0.1-3.3-0.2l-0.7-0.1L147.3,199.7z M156.3,203.3c0.7,0.7,1.2,1.4,1.6,2.3l-1.3,0.8
	c-0.4-0.8-1-1.6-1.6-2.3L156.3,203.3z M158.5,205.2c-0.4-0.8-1-1.6-1.6-2.2l1.3-0.7c0.6,0.6,1.2,1.4,1.6,2.2L158.5,205.2z"/>
<path class="st4" d="M175.1,212.5c0.6,0.1,1.3,0.1,1.9,0.1c1.1,0,2,0,3-0.1c-0.2,0.6-0.4,1.2-0.5,1.9c-0.6,0-1.3,0-1.8,0
	c-2.6,0-4-0.2-5.1-0.8c-0.8-0.4-1.4-1-2-1.6c-0.5,1-1.1,1.9-1.9,2.8c-0.4-0.5-0.9-0.9-1.4-1.2c-0.2,0.8-0.7,1.1-2.1,1.1
	c-0.4,0-0.9,0-1.5-0.1c0-0.6-0.2-1.3-0.4-1.9c0.5,0.1,1,0.1,1.5,0.1c0.5,0,0.6-0.1,0.6-0.5v-4c-0.4,0.2-0.6,0.2-1,0.3
	s-0.7,0.3-0.9,0.4l-0.3-2c0.7-0.1,1.5-0.3,2.2-0.6v-3.2h-0.8c-0.4,0-0.9,0-1.3,0.1v-1.9c0.4,0.1,0.9,0.1,1.3,0.1h0.7V200
	c0-0.6,0-1.2-0.1-1.8h2.1c-0.1,0.6-0.1,1.2-0.1,1.8v1.4h0.6h0.8c0.1,0,0.1,0,0.2,0h0.1v1.9c-0.4,0-0.6-0.1-1.1-0.1h-0.6v2.5
	c0.7-0.3,0.8-0.3,1.6-0.6v0.8c0.5,0.1,1,0.1,1.5,0.1h7.5c0.6,0,1.1,0,1.6-0.1v1.8c-0.5-0.1-1.1-0.1-1.6-0.1h-2.9v1.5h2.3
	c0.5,0,1.1,0,1.6-0.1v1.7c-0.5-0.1-1.1-0.1-1.6-0.1h-2.3L175.1,212.5z M171.9,208.6c0,0.1-0.1,0.4-0.3,1c-0.1,0.2-0.1,0.4-0.2,0.7
	c0.5,0.7,1.1,1.3,1.9,1.7v-4.4h-2.9c-0.5,0-0.9,0-1.4,0.1v-0.7c-0.6,0.3-0.8,0.4-1.5,0.6v5.4c0,0.1,0,0.3,0,0.4
	c0.6-0.6,1.2-1.2,1.6-2c0.5-1,0.9-2.1,1-3.2L171.9,208.6z M171.3,205c-0.7,0-1,0-1.5,0c0-0.3,0-0.9,0-1.8v-2.8c0-0.7,0-1.3,0-1.7
	c0.6,0.1,1.2,0.1,1.8,0.1h5.4c0.6,0,1.2,0,1.7-0.1c-0.1,0.5-0.1,1.1-0.1,1.6v3c0,0.7,0,0.7,0.1,1.8c-0.5,0-1-0.1-1.8-0.1L171.3,205z
	 M171.7,201.2h5v-0.8h-5V201.2z M171.7,203.5h5v-0.9h-5V203.5z"/>
<path class="st4" d="M196.6,208.6c0.7,0,1.4,0,2-0.1v1.8c-0.7-0.1-1.4-0.1-2-0.1H193c1.8,1.3,3.9,2.2,6.1,2.6
	c-0.4,0.5-0.8,1.2-1,1.8c-1.4-0.4-2.7-0.9-4-1.7c-1-0.6-1.9-1.2-2.7-2c0,0.5,0,1.2,0,1.4v0.8c0,0.5,0,1,0.1,1.5h-2.1
	c0.1-0.5,0.1-1,0.1-1.5v-0.8c0-0.2,0-0.3,0-0.6v-0.4c0-0.1,0-0.3,0-0.4c-1.8,1.7-4,2.9-6.4,3.6c-0.3-0.6-0.6-1.2-1.1-1.7
	c2.1-0.5,4.1-1.4,5.9-2.7h-3.3c-0.7,0-1.3,0-2,0.1v-1.8c0.7,0.1,1.3,0.1,2,0.1h4.9v-0.1c0-0.4,0-0.8-0.1-1.2h2.1
	c-0.1,0.4-0.1,0.8-0.1,1.2v0.1L196.6,208.6z M194.9,203.8c-0.4,0.6-1,1.2-1.6,1.6c1.5,0.4,3.1,0.8,4.6,1.3l-1.2,1.4
	c-1.7-0.7-3.4-1.3-5.2-1.7c-2.5,1-5.1,1.5-7.8,1.5c-0.1-0.6-0.4-1.1-0.8-1.6h0.6c1.8,0,3.5-0.2,5.2-0.6c-0.6-0.1-1-0.2-3.5-0.5
	c0.6-0.5,1.1-1,1.6-1.6h-2.2c-0.7,0-1.3,0-2,0.1v-1.6c0.6,0.1,1.2,0.1,1.8,0.1h3.5c0.4-0.5,0.7-1,0.9-1.5l1.9,0.4
	c-0.1,0.1-0.2,0.3-0.4,0.5l-0.2,0.3c-0.1,0.1-0.1,0.2-0.2,0.3h6.5c0.6,0,1.2,0,1.8-0.1v1.7c-0.7-0.1-1.3-0.1-2-0.1L194.9,203.8z
	 M189.6,199.2c0-0.4,0-0.8-0.1-1.2h2.2c-0.1,0.4-0.1,0.8-0.1,1.2h4.8c0.7,0,1.3,0,2-0.1c-0.1,0.4-0.1,0.9-0.1,1.3v0.5
	c0,0.4,0,0.7,0.1,1.1h-1.9v-1.2H185v1.2h-1.9c0-0.3,0.1-0.7,0.1-1v-0.6c0-0.4,0-0.8-0.1-1.3c0.6,0.1,1.2,0.1,2,0.1L189.6,199.2z
	 M189,203.8c-0.2,0.2-0.3,0.3-0.6,0.6c1.3,0.2,1.6,0.3,2.7,0.5c0.6-0.3,1.1-0.7,1.6-1.2H189z"/>
<path class="st3" d="M291.3,98c0.7,0.1,1.3,0.1,2,0.1h1.8c0.6,0,1.3,0,1.9-0.1c-0.1,0.9-0.1,1.8-0.1,2.7v5.6c0.5,1,1.5,1.7,2.5,1.9
	c0.9,0.3,2.4,0.4,5.8,0.4c3.1,0,6.3-0.1,9.4-0.4c-0.4,0.8-0.6,1.7-0.8,2.6c-3.4,0.1-5.5,0.2-8.4,0.2c-1.5,0-3.6-0.1-4.6-0.1
	c-2.1,0-4.1-1-5.3-2.6c-0.9,0.9-1.9,1.7-2.9,2.4l-0.7,0.6l-1.2-2.9c1.3-0.6,2.5-1.5,3.6-2.4v-5.4H293c-0.6,0-1.1,0-1.7,0.1L291.3,98
	z M293.4,88.8c1.4,1.3,2.7,2.8,3.8,4.4l-2,2.1c-1-1.7-2.3-3.3-3.8-4.7L293.4,88.8z M300.9,94.8c-0.6,0-1.2,0-1.9,0.1V94h-1.7
	c0.1-0.5,0.1-1,0.1-1.5v-1.6c0-0.6,0-1.1-0.1-1.6c0.8,0.1,1.6,0.1,2.4,0.1h11.7c0.8,0,1.6,0,2.4-0.1c-0.1,0.5-0.1,1.1-0.1,1.6v1.5
	c0,0.5,0,1.1,0.1,1.6h-1.8v0.9c-0.6-0.1-1.2-0.1-1.8-0.1h-3.5v1.1h3.8c0.7,0,1.4,0,2-0.1c-0.1,0.6-0.1,1.2-0.1,1.9v3.8
	c0,0.6,0,1.2,0.1,1.8c-0.8,0-1.3-0.1-2-0.1h-3.8v1.1h5c0.7,0,1.3,0,2-0.1v2.4c-0.7-0.1-1.4-0.1-2.1-0.1h-5c0,0.6,0.1,1.2,0.2,1.8
	h-2.8c0.1-0.6,0.1-1.2,0.1-1.8h-4.6c-0.7,0-1.3,0-2,0.1v-2.4c0.7,0.1,1.3,0.1,2,0.1h4.7v-1.1h-3.6c-0.7,0-1.3,0-2,0.1
	c0.1-0.6,0.1-1.2,0.1-1.8v-3.8c0-0.6,0-1.2-0.1-1.9c0.6,0.1,1,0.1,2,0.1h3.5v-1H300.9z M304.2,91.5H300v1.2c0.3,0,0.5,0,0.8,0h3.4
	L304.2,91.5z M301.2,97.6v1.1h3v-1.1H301.2z M301.2,100.3v1h3v-1H301.2z M310.5,92.7h0.7v-1.3h-4.5v1.2L310.5,92.7z M306.7,98.7h3.3
	v-1.1h-3.3V98.7z M306.7,101.4h3.3v-1h-3.3V101.4z"/>
<path class="st3" d="M322.4,103.7c-0.2,2.8-1,5.5-2.5,7.9c-0.7-0.8-1.5-1.4-2.4-2c0.9-1.3,1.5-2.7,1.8-4.2c0.3-1.3,0.4-2.5,0.5-3.8
	c0.1-2.1,0.2-5.6,0.2-8.6c0-1.2,0-2.4-0.1-3.6c1,0.1,1.9,0.1,2.9,0.1h14c1,0,1.9,0,2.9-0.1c-0.1,0.9-0.1,1.9-0.1,2.8v16.4
	c0,2.1-0.8,2.6-3.6,2.6c-0.8,0-2,0-2.8-0.1c-0.1-0.9-0.4-1.8-0.7-2.6c1.3,0.1,2.3,0.2,3.1,0.2c1,0,1.3-0.1,1.3-0.6v-4.4h-6v4.1
	c0,1,0,2,0.1,3h-3c0.1-1,0.2-2,0.2-3v-4.1L322.4,103.7z M328.1,97.8h-5.5c0,0.7,0,1.2,0,1.6c0,1.2,0,1.4,0,1.9h5.6L328.1,97.8z
	 M328.1,92.1h-5.5v2.6v0.7h5.5L328.1,92.1z M336.8,95.3v-3.3h-6v3.3H336.8z M336.8,101.2v-3.5h-6v3.4L336.8,101.2z"/>
<path class="st3" d="M357,89.9l-9,23.7h-3.1l9-23.7H357z"/>
<path class="st3" d="M367.9,103.6c-0.9,0-1.9,0-2.8,0.1c0.1-0.9,0.1-1.8,0.1-2.7v-5c0-0.9,0-1.8-0.1-2.7c0.9,0.1,1.9,0.1,2.8,0.1h5
	v-1.7H366c-1,0-2,0-3,0.1v-2.7c1,0.1,2,0.2,3,0.2h16.3c1,0,2.1,0,3.1-0.2v2.7c-1-0.1-2-0.2-3.1-0.1h-6.7v1.8h4.9
	c0.9,0,1.9,0,2.8-0.1c-0.1,0.9-0.1,1.7-0.1,2.7v5c0,1,0,1.7,0.1,2.6c-0.9-0.1-1.9-0.1-2.8-0.1h-5.5c-0.3,1.2-0.8,2.3-1.5,3.3
	c3,1.3,6.2,1.9,9.5,1.8c0.8,0,1.4,0,2.8-0.1c-0.5,0.9-0.8,1.9-1,2.9c-5.7,0-9.6-0.8-13-2.7c-2.1,1.7-4.3,2.5-8,3.1
	c-0.3-0.9-0.7-1.8-1.2-2.6c3.6-0.4,5.1-0.9,6.8-2.1c-0.8-0.6-1.5-1.3-2.2-2.1l-0.4-0.4l2.2-1.1L367.9,103.6z M367.8,95.8v1.7h5
	l0-1.7H367.8z M367.8,99.6v1.7h4.9c0-0.6,0-0.8,0.1-1.7H367.8z M369.4,103.6c0.6,0.7,1.2,1.3,1.9,1.9c0.4-0.6,0.8-1.2,1-1.9H369.4z
	 M375.6,99.6c0,0.9,0,1.2-0.1,1.7h5.2v-1.7H375.6z M375.6,97.5h5.1v-1.7h-5L375.6,97.5z"/>
<path class="st3" d="M391.5,99c-0.8,0-1.5,0-2.3,0.1v-2.7c0.8,0.1,1.5,0.1,2.3,0.1h0.6c-0.2-1.1-0.6-2.1-1.1-3l2.2-0.6h-1.2
	c-0.8,0-1.6,0-2.4,0.1v-2.6c0.8,0.1,1.6,0.1,2.4,0.1h1.9v-0.4c0-0.6,0-1.2-0.1-1.8h3c-0.1,0.6-0.1,1.2-0.1,1.8v0.4h1.7
	c0.8,0,1.6,0,2.3-0.1v2.7c-0.8-0.1-1.6-0.1-2.4-0.1h-1l2.1,0.6c-0.1,0.3-0.1,0.3-0.4,0.9c-0.2,0.3-0.3,0.6-0.4,0.9
	c-0.2,0.4-0.3,0.7-0.5,1.1h0.5c0.8,0,1.5,0,2.3-0.1v2.7c-0.8-0.1-1.5-0.1-2.3-0.1h-2v1.8h1.9c0.8,0,1.5,0,2.3-0.1v2.6
	c-0.8-0.1-1.5-0.1-2.3-0.1h-0.9c0.7,0.9,1.6,1.6,2.6,2.2c-0.5,0.8-0.9,1.6-1.2,2.4c-0.9-0.8-1.8-1.7-2.5-2.7c0,0.3,0,0.3,0,1
	c0,0.1,0,0.9,0,1v2.5c0,0.7,0,1.4,0.2,2.1H394c0.1-0.7,0.1-1.3,0.1-2v-2.5c0-0.5,0-1.1,0.1-1.7c-1,1.9-2.4,3.4-4.1,4.6
	c-0.3-0.9-0.7-1.8-1.3-2.6c1.8-1.1,3.3-2.5,4.4-4.3h-1.6c-0.8,0-1.5,0-2.3,0.1v-2.6c0.8,0.1,1.5,0.2,2.3,0.1h2.5V99L391.5,99z
	 M393.4,93c0.5,0.9,0.9,1.9,1.1,2.9l-2.2,0.6h3.4c0.6-1.1,1.1-2.3,1.4-3.5H393.4z M410.1,96c0.8,0,1.5,0,2.3-0.1v2.8
	c-0.7-0.1-1.3-0.1-2-0.1h-0.6v10.1c0,1,0,2,0.2,3H407c0.1-1,0.2-2,0.1-3v-10h-2.7c0,2.7-0.3,5.4-0.9,8.1c-0.4,1.8-1.2,3.5-2.2,5
	c-0.8-0.7-1.6-1.2-2.5-1.6c2.4-2.9,3-6.2,3-15.6c0-1.3,0-2.6-0.2-3.9c2.8-0.1,7.2-1.2,8.4-2.1l2,2.4c-0.3,0.1-0.4,0.1-0.8,0.3
	c-2.2,0.8-4.5,1.4-6.9,1.7V96L410.1,96z"/>
<path class="st4" d="M271.8,172.3c0.7,0,1.4,0,2.2-0.1v2.1c-0.7-0.1-1.4-0.1-2.2-0.1h-7.4c-0.6,1.3-1.4,2.6-2.4,3.8v6.6
	c0,0.7,0,1.4,0.1,2.1h-2.2c0.1-0.7,0.1-1.4,0.1-2.1v-4.4c-0.4,0.4-0.9,0.8-1.4,1.2c-0.3-0.7-0.8-1.3-1.3-1.8c1-0.7,1.9-1.5,2.7-2.4
	c0-0.7,0-0.7-0.1-1h0.8c0.5-0.6,0.9-1.3,1.3-2h-2.2c-0.7,0-1.4,0-2.2,0.1v-2.1c0.7,0.1,1.4,0.1,2.2,0.1h3.1c0.3-0.8,0.6-1.6,0.7-2.4
	l2.2,0.4c-0.1,0.2-0.2,0.5-0.3,0.7c-0.1,0.4-0.3,0.9-0.5,1.2L271.8,172.3z M271.2,178.1c0.6,0,1.3,0,1.9-0.1v2
	c-0.6-0.1-1.3-0.1-1.9-0.1H269v4.2h2.8c0.7,0,1.3,0,2-0.1v2.1c-0.7-0.1-1.3-0.1-2-0.1h-7.2c-0.7,0-1.3,0-2,0.1V184
	c0.7,0.1,1.3,0.1,2,0.1h2.4v-4.2h-1.9c-0.7,0-1.3,0-2,0.1v-2c0.6,0.1,1.3,0.1,1.9,0.1h1.9v-1.1c0-0.6,0-1.2-0.1-1.9h2.2
	c-0.1,0.6-0.1,1.3-0.1,1.9v1.1L271.2,178.1z"/>
<path class="st4" d="M279.6,172.8c-0.5,0.7-1.2,1.4-1.9,2c-0.4-0.5-0.8-1-1.3-1.3c0.8-0.5,1.4-1.2,1.9-1.9c0.4-0.5,0.6-1,0.8-1.6
	l1.9,0.3l-0.5,0.9h2.6c0.5,0,1.1,0,1.6-0.1v1.4c0.6-0.7,1.1-1.6,1.3-2.6l1.9,0.3c-0.2,0.4-0.3,0.6-0.4,0.9h3.7c0.6,0,1.2,0,1.8-0.1
	v1.8c-0.6-0.1-1.1-0.1-1.7-0.1h-1.8c0.2,0.3,0.3,0.4,0.6,1l-0.6,0.3h1.6c-0.1,0.4-0.1,0.7-0.1,1.1v0.1h0.5c0.4,0,0.7,0,1.1-0.1v1.6
	c-0.4-0.1-0.7-0.1-1.1-0.1H291v1.1h0.9c0.4,0,0.7,0,1.1-0.1v1.7c-0.4-0.1-0.7-0.1-1.1-0.1H285c-0.3,0-0.7,0-1,0.1v1.5
	c-0.4-0.1-0.7-0.1-1.1-0.1h-1c0.7,0.9,1.5,1.7,2.4,2.3c-0.3,0.5-0.6,1.1-0.8,1.6c-0.8-0.7-1.5-1.5-2-2.4l0,0.6c0,0,0,0.5,0,0.6v1.2
	c0,0.6,0,1.3,0.1,1.9h-2c0.1-0.6,0.1-1.2,0.1-1.8v-1.2c0-0.4,0-0.8,0.1-1.2c-0.6,1.2-1.5,2.3-2.5,3.2c-0.3-0.5-0.7-1-1.1-1.5
	c1.2-0.8,2.3-2,3-3.3h-1.5c-0.4,0-0.7,0-1.1,0.1v-1.7c0.4,0.1,0.7,0.1,1.1,0.1h2v-0.7h-1.5c-0.3,0-0.7,0-1,0.1v-1.5
	c0.3,0.1,0.7,0.1,1,0.1h1.5v-0.8h-1.7c-0.4,0-0.8,0-1.1,0v-1.6c0.4,0.1,0.7,0.1,1.1,0.1h1.7c0-0.4,0-0.8-0.1-1.1h1.6
	c-0.2-0.4-0.4-0.8-0.7-1.2L279.6,172.8z M282.4,172.8c0.3,0.5,0.5,0.6,0.7,1.1l-1.5,0.6c0,0.2,0,0.5,0,0.7h1.3c0.4,0,0.7,0,1.1-0.1
	v1.6c-0.3,0-0.6,0-1.1,0h-1.3v0.8h1c0.3,0,0.7,0,1-0.1v1.5c-0.3,0-0.7-0.1-1-0.1h-1v0.7h1.4c0.3,0,0.7,0,1-0.1v-1.6
	c0.4,0.1,0.7,0.1,1.1,0.1h0.5v-1.1c-0.4,0-0.8,0-1.2,0.1v-1.6c0.4,0.1,0.8,0.1,1.2,0.1v-0.1c0-0.4,0-0.6,0-0.9l-0.4,0.4
	c-0.3-0.5-0.8-0.9-1.3-1.3c0.2-0.2,0.5-0.4,0.7-0.6c-0.3,0-0.6,0-0.9,0L282.4,172.8z M284.7,181.9c0-0.8,0-1.3-0.1-1.9
	c0.6,0.1,1.3,0.1,1.9,0.1h3.7c0.7,0,1.3,0,2-0.1c-0.1,0.6-0.1,1.2-0.1,1.8v3.1c0,0.6,0,1.2,0.1,1.9h-1.9V186h-3.7v0.7h-1.9
	c0.1-0.6,0.1-1.2,0.1-1.8V181.9z M288.5,174.4c-0.3-0.6-0.6-1.1-0.9-1.6h-1c-0.3,0.4-0.6,0.9-0.9,1.2h1.6c-0.1,0.4-0.1,0.7-0.1,1.1
	v0.1h2v-0.1c0-0.3,0-0.7,0-1L288.5,174.4z M286.5,182.3h3.7v-0.8h-3.7V182.3z M286.5,184.5h3.7v-0.8h-3.7V184.5z M289.4,177.8v-1.1
	h-2v1.1L289.4,177.8z"/>
<path class="st4" d="M305.8,177.2c0,0.1,0,0.2,0,0.4c0.4,0.8,0.6,1.7,0.6,2.5c0,2-1,3.8-2.7,4.9c-1,0.6-2.1,1.1-3.3,1.5
	c-0.3-0.8-0.7-1.4-1.3-2c1.1-0.1,2.1-0.5,3.1-1.1c1.1-0.5,1.8-1.5,2.1-2.6c-0.6,0.9-1.6,1.3-2.6,1.3c-0.8,0-1.5-0.2-2.1-0.6
	c-0.8-0.5-1.3-1.5-1.2-2.4c0-1.8,1.5-3.3,3.3-3.3c0.1,0,0.2,0,0.3,0c0.7,0,1.3,0.2,1.9,0.5c0-0.1,0-0.1,0-0.2c0,0,0-1,0-1.5
	c-2.6,0.1-4.3,0.1-5.1,0.2c-2.7,0.2-2.7,0.2-3.2,0.3l-0.1-2.1c0.4,0,0.6,0,0.9,0s0.7,0,3.1-0.1l2.8-0.1l1.5-0.1c0-0.7,0-1.5-0.1-2.2
	h2.3c-0.1,0.7-0.1,1.4-0.1,2.1c3.1,0,4.5-0.1,5.2-0.1v2.1c-0.7-0.1-1.5-0.1-3-0.1c-0.4,0-0.8,0-2.2,0v1.2L305.8,177.2z M302.1,177.4
	c-0.9-0.1-1.6,0.6-1.7,1.4c0,0.8,0.6,1.4,1.4,1.4c0,0,0.1,0,0.1,0c0.9,0.1,1.7-0.6,1.8-1.5c0,0,0-0.1,0-0.1
	C303.8,177.9,303.1,177.4,302.1,177.4L302.1,177.4z"/>
<path class="st4" d="M319,177.8c1.2-0.6,2.5-0.8,3.8-0.8c3.1,0,5.1,1.6,5.1,4c0,1.7-0.9,3.2-2.4,4c-1.3,0.7-2.8,1-4.4,1
	c-1.2,0.1-2.4-0.2-3.5-0.8c-0.7-0.5-1.1-1.2-1.1-2.1c0-1.5,1.3-2.6,3.1-2.6c1.2,0,2.4,0.5,3.1,1.5c0.4,0.5,0.7,1,0.8,1.6
	c1.5-0.6,2.1-1.3,2.1-2.6s-1.4-2.3-3.6-2.3c-2.8,0-5.4,1.1-7.4,3l-1.2-1.9c0.9-0.5,1.7-1,2.5-1.7c1.9-1.5,3.7-3,5.4-4.7l0.3-0.3l0,0
	c-0.7,0.1-1.8,0.2-5.1,0.3c-0.3,0-0.6,0-0.9,0.1l-0.1-2.2c0.7,0.1,1.4,0.1,2.1,0.1c1.5,0,3.7-0.1,5.5-0.2c0.4,0,0.8-0.1,1.1-0.2
	l1.1,1.6c-0.3,0.2-0.7,0.4-0.9,0.7c-0.9,0.8-2.2,2-2.8,2.5c-0.3,0.3-1.6,1.2-2,1.5C319.5,177.4,319.2,177.6,319,177.8L319,177.8z
	 M319.5,182.2c-0.6,0-1.1,0.3-1.1,0.8c0,0.7,0.8,1.1,2.1,1.1c0.3,0,0.6,0,0.9-0.1C321.2,182.9,320.5,182.3,319.5,182.2L319.5,182.2z
	"/>
<path class="st4" d="M342.4,185.4c-0.1-0.6-0.3-1.2-0.4-1.8l-1.9-6.7c-0.2-0.8-0.4-1.5-0.5-2.3c-0.2,1-0.4,1.7-0.5,2.3l-1.9,6.7
	c-0.2,0.6-0.3,1.2-0.4,1.8h-2.4c-0.1-0.6-0.3-1.2-0.5-1.9l-2.9-10.3c-0.2-0.7-0.4-1.4-0.7-2.1h2.9c0,0.7,0.2,1.3,0.3,1.9l1.7,6.9
	c0.1,0.6,0.3,1.5,0.4,2.1c0.2-1.1,0.4-1.6,0.5-2.1l2-6.9c0.2-0.6,0.3-1.2,0.4-1.8h2.2c0.1,0.6,0.2,1.2,0.4,1.8l2,6.9
	c0.1,0.5,0.2,0.8,0.5,2.2c0.1-0.4,0.1-0.4,0.2-1.1c0-0.3,0.2-1,0.2-1.1l1.7-6.8c0.2-0.6,0.3-1.3,0.3-1.9h2.9
	c-0.3,0.7-0.5,1.4-0.7,2.1l-2.9,10.3c-0.1,0.5-0.2,0.8-0.3,1c-0.1,0.3-0.2,0.6-0.2,0.9L342.4,185.4z"/>
<path class="st4" d="M352.4,180.9c0,0.7,0.2,1.4,0.7,2c1.1,1.2,3,1.4,4.2,0.3c0.1-0.1,0.1-0.1,0.2-0.2c0.2-0.3,0.4-0.6,0.5-0.9
	l2.1,0.7c-0.3,0.6-0.6,1.2-1.1,1.6c-1,0.9-2.3,1.4-3.7,1.4c-3.2,0-5.2-2.1-5.2-5.5s2-5.5,5.1-5.5c1.9-0.1,3.7,1,4.5,2.8
	c0.3,0.9,0.5,1.8,0.5,2.7c0,0,0,0.1,0,0.5L352.4,180.9z M357.9,179.1c-0.1-0.6-0.3-1.3-0.8-1.7c-0.5-0.5-1.2-0.8-2-0.7
	c-1.4,0-2.6,1.1-2.7,2.4H357.9z"/>
<path class="st4" d="M362.7,185.4c0.1-0.8,0.1-1.6,0.1-2.4v-9.5c0-0.8,0-1.6-0.1-2.4h2.5c-0.1,0.8-0.1,1.6-0.1,2.4v1.8
	c0,0.3,0,0.7,0,1.4c0.8-1.2,2.2-1.9,3.7-1.8c3,0,4.8,2,4.8,5.3c0.1,1.5-0.4,3.1-1.5,4.2c-0.9,0.9-2.2,1.4-3.5,1.3
	c-1.4,0.1-2.8-0.6-3.6-1.8c0,0.2,0,0.4,0,0.6v0.9H362.7z M368.5,176.8c-0.9,0-1.8,0.3-2.4,1c-0.6,0.7-0.9,1.6-0.9,2.5
	c0,1.1,0.4,2.1,1.2,2.9c0.5,0.4,1.2,0.7,1.9,0.7c1.8,0,3-1.4,3-3.6S370.2,176.8,368.5,176.8L368.5,176.8z"/>
<path class="st4" d="M384,172.1c-0.2,0.3-0.4,0.7-0.5,1c-0.2,0.3-0.5,0.9-0.8,1.3c0.6,0,1.1,0,1.7-0.1c0,0.3,0,0.6,0,0.9
	c0.7-0.3,1.2-0.7,1.7-1.2c0.4-0.4,0.7-1,0.8-1.6h-0.5c-0.5,0-1.1,0-1.6,0.1v-1.9c0.6,0.1,1.3,0.1,1.9,0.1h4.4c0.5,0,1.1,0,1.6-0.1
	c0,0.4-0.1,0.9-0.2,1.9c0,1-0.2,2.1-0.7,3c-0.3,0.4-0.7,0.6-1.8,0.6h-1.3c0-0.6-0.2-1.2-0.4-1.8c0.5,0.1,0.9,0.2,1.4,0.2
	c0.5,0,0.6-0.1,0.7-0.4c0.1-0.6,0.2-1.2,0.3-1.8h-2c-0.1,0.9-0.5,1.8-1,2.5c-0.5,0.7-1.2,1.3-2,1.7l1.7,0.4c-0.2,0.7-0.2,0.7-0.2,1
	h1v-0.1c0-0.4,0-0.9-0.1-1.3h2c0,0.4-0.1,0.9-0.1,1.3v0.1h1.1c0.5,0,1.1,0,1.6-0.1v1.9c-0.5-0.1-1.1-0.1-1.6-0.1h-1.1v1.6h1.4
	c0.6,0,1.2,0,1.7-0.1v1.9c-0.6-0.1-1.1-0.1-1.7-0.1h-1.4v1.8c0,0.6,0,1.2,0.1,1.8h-2.1c0.1-0.6,0.1-1.2,0.1-1.8v-1.8h-1.8
	c-0.5,0-1.1,0-1.6,0.1v-1.9c0.5,0.1,1.1,0.1,1.6,0.1h1.8v-1.6h-1.4c-0.2,0.5-0.3,0.9-0.6,1.4c-0.5-0.3-1-0.6-1.6-0.8
	c0.5-0.7,0.8-1.5,1-2.4c0.1-0.4,0.1-0.8,0.2-1.2c0,0,0,0,0-0.1l-0.2,0.1c-0.3-0.6-0.7-1.1-1.1-1.5v9.5c0,1.3-0.5,1.6-2.3,1.6H381
	c0-0.6-0.2-1.2-0.4-1.8c0.5,0.1,1,0.1,1.5,0.1c0.6,0,0.8-0.1,0.8-0.4v-2.2h-3.8c0,1.5-0.4,3-1.1,4.4c-0.4-0.5-0.9-1-1.5-1.4
	c0.9-1.6,1.1-3.2,1.1-8.4v-1c-0.3-0.5-0.7-0.9-1.2-1.2c0.9-0.8,1.6-1.7,2-2.8c0.3-0.6,0.5-1.3,0.7-1.9l1.9,0.4
	c-0.1,0.2-0.1,0.2-0.4,1h1.6c0.3,0,0.6,0,0.9-0.1L384,172.1z M380.9,174.4c0.3-0.5,0.6-1,0.8-1.6H380c-0.3,0.5-0.6,1.1-0.9,1.6
	H380.9L380.9,174.4z M380.3,180.6V179h-1.1v0.7c0,0.5,0,0.6,0,0.9H380.3z M379.3,176v1.5h1V176H379.3z M382.8,176h-1v1.5h1V176z
	 M382.8,179h-1v1.6h1V179z"/>
<path class="st4" d="M400.6,175.2c0.5,1.2,1.2,2.2,2.2,3.1c-0.4,0.5-0.8,1.1-1,1.7c-0.5-0.7-1-1.5-1.3-2.3c0,0.4,0,1.6,0,2.7v4.5
	c0,0.7,0,1.3,0.1,2h-2.1c0.1-0.7,0.1-1.3,0.1-2v-3.6c0-1.1,0-1.1,0.1-2.5c-0.5,1.4-1.2,2.8-2,4c-0.3-0.6-0.7-1.2-1.2-1.6
	c0.8-1,1.5-2.1,2-3.3c0.4-0.8,0.7-1.7,1-2.6h-1c-0.4,0-0.8,0-1.2,0.1v-2c0.4,0.1,0.9,0.1,1.3,0.1h1.2v-1.6c0-0.6,0-1.1-0.1-1.6h2.1
	c-0.1,0.5-0.1,1.1-0.1,1.6v1.6h1c0.4,0,0.8,0,1.1-0.1v2c-0.4-0.1-0.7-0.1-1.1-0.1H400.6z M410.3,175.7c0.7,0,1.4,0,2.1-0.1v2.2
	c-0.7-0.1-1.4-0.1-2.1-0.1h-0.5v7c0,0.7,0,1.5,0.1,2.2h-2.2c0.1-0.7,0.1-1.5,0.1-2.2v-7h-2.6c-0.2,4.5-0.8,6.9-2.5,9.1
	c-0.5-0.5-1-1-1.6-1.4c1.8-2.1,2.3-4.4,2.3-10.7c0-1,0-2-0.1-2.9h0.4c2.4-0.1,4.8-0.6,7-1.6l1.4,1.8c-0.4,0.1-0.4,0.1-1.8,0.5
	c-1.6,0.5-3.3,0.8-5,0.9v2.3L410.3,175.7z"/>
<path class="st4" d="M421.9,172.3c0-0.7,0-1.4-0.1-2.1h2.4c-0.1,0.7-0.1,1.4-0.1,2.1v3.1h4.6c0.8,0,1.7,0,2.5-0.1v2.2
	c-0.8-0.1-1.6-0.1-2.4-0.1h-4.6v6.5h3.8c0.8,0,1.5,0,2.3-0.1v2.2c-0.7-0.1-1.5-0.1-2.3-0.1h-9.6c-0.8,0-1.5,0-2.3,0.1v-2.1
	c0.7,0.1,1.5,0.1,2.3,0.1h3.6v-6.5h-4.2c-0.9,0-1.8,0-2.6,0.1v-2.2c0.9,0.1,1.8,0.1,2.6,0.1h4.2L421.9,172.3z"/>
<path class="st4" d="M440.9,170.8c0,0.2-0.1,0.4-0.2,0.6s0,0.3-0.1,0.6s-0.1,0.4-0.3,1.8c-0.1,0.4-0.1,0.4-0.1,0.6
	c0.5,0,0.8,0,1.1,0c1-0.1,2,0.3,2.7,0.9c0.6,0.7,0.8,1.6,0.8,3.2c0,3.1-0.5,5.6-1.4,6.6c-0.5,0.6-1.2,0.9-2,0.8
	c-1,0-1.9-0.2-2.8-0.5c0-0.3,0-0.6,0-0.8c0-0.5-0.1-1-0.2-1.5c0.8,0.4,1.7,0.6,2.6,0.7c0.5,0,0.8-0.3,1.1-1.2
	c0.3-1.3,0.5-2.7,0.5-4.1c0-1.6-0.4-2.1-1.8-2.1c-0.4,0-0.6,0-1,0.1c-0.5,2.2-0.7,2.7-1.1,3.9c-0.6,1.7-1.3,3.4-2.2,5.1
	c-0.1,0.2-0.1,0.2-0.3,0.5c-0.1,0.1-0.1,0.1-0.2,0.3l-2.1-1.1c0.7-1.1,1.4-2.2,1.9-3.4c0.7-1.6,1.3-3.3,1.7-5.1
	c-1.1,0.1-2.2,0.3-3.2,0.6l-0.2-2.1c0.7,0,2.8-0.2,3.8-0.4c0.2-1.2,0.4-2.4,0.5-3.6v-0.3L440.9,170.8z M446.3,170.9
	c0.7,0.7,1.2,1.5,1.7,2.4l-1.4,0.7c-0.5-0.9-1-1.7-1.7-2.4L446.3,170.9z M447.6,174.1c1.4,1.8,2.4,3.9,2.9,6.1l-2,1
	c-0.3-1.4-0.8-2.7-1.4-4c-0.3-0.8-0.8-1.5-1.3-2.1L447.6,174.1z M448.7,173c-0.5-0.8-1-1.6-1.7-2.3l1.3-0.7c0.7,0.7,1.2,1.4,1.7,2.3
	L448.7,173z"/>
<path class="st4" d="M269.7,201.1c0.5,0.1,1,0.1,1.5,0.1h3.3c0.5,0,1,0,1.5-0.1v1.8c-0.5,0-0.9-0.1-1.4-0.1h-3.4c-0.5,0-1,0-1.5,0.1
	V201.1z M275.7,213.2c0,0.4,0,0.8,0.1,1.3H274v-0.6h-1.8v0.9h-1.8c0-0.6,0.1-1.2,0.1-1.8v-2.6c0-0.5,0-0.9-0.1-1.4
	c0.5,0,0.9,0.1,1.4,0.1h2.8c0.4,0,0.8,0,1.2-0.1c0,0.4,0,0.6,0,1.3v2.1c1.4-0.8,2.6-2,3.5-3.4h-1.3c-0.6,0-1.1,0-1.7,0.1v-2
	c0.6,0.1,1.2,0.1,1.8,0.1h2.3V206h-1.9c-0.5,0-1.1,0-1.6,0.1c0.1-0.5,0.1-1.1,0.1-1.6v-4.2c0-0.6,0-1.1-0.1-1.7
	c0.5,0.1,1.1,0.1,1.6,0.1h6c0.5,0,1,0,1.5-0.1c-0.1,0.6-0.1,1.1-0.1,1.7v4.1c0,0.7,0,1.3,0.1,1.7c-0.6-0.1-1.2-0.1-1.7-0.1h-2v1.1
	h2.6c0.6,0,1.2,0,1.8-0.1v1.9c-0.6-0.1-1.1-0.1-1.7-0.1h-1.9c0.3,0.5,0.7,0.9,1.1,1.4c0.8,0.8,1.7,1.5,2.7,2c-0.4,0.6-0.7,1.2-1,1.8
	c-1.6-1-2.9-2.4-3.8-4c0,0.6,0,0.9,0,1.4v1.5c0,0.6,0,1.1,0.1,1.7h-2c0.1-0.6,0.1-1.1,0.1-1.7v-1.5c0-0.5,0-0.9,0.1-1.4
	c-0.8,1.5-2,2.9-3.5,3.9c-0.3-0.5-0.6-1-1.1-1.5L275.7,213.2z M270.3,198.6c0.5,0.1,1,0.1,1.5,0.1h2.4c0.5,0,1,0,1.5-0.1v1.8
	c-0.5-0.1-1-0.1-1.5-0.1h-2.4c-0.5,0-1,0-1.5,0.1L270.3,198.6z M270.3,203.9c0.4,0,0.8,0,1.1,0h3c0.4,0,0.7,0,1.1,0v1.7
	c-0.4,0-0.7-0.1-1.1-0.1h-3c-0.4,0-0.8,0-1.1,0.1V203.9z M270.3,206.4c0.4,0,0.8,0.1,1.1,0.1h3c0.4,0,0.7,0,1.1-0.1v1.7
	c-0.4,0-0.8-0.1-1.1-0.1h-3c-0.4,0-0.8,0-1.1,0.1L270.3,206.4z M272.1,212.3h1.8v-1.8h-1.8V212.3z M278.3,200.2v1.3h1.8v-1.3H278.3z
	 M278.3,203v1.4h1.8V203H278.3z M281.9,201.5h2v-1.3h-2V201.5z M281.9,204.5h2V203h-2V204.5z"/>
<path class="st4" d="M292.6,207.1h-2c-0.6,0-1.2,0-1.7,0.1v-1.8c0.6,0.1,1.2,0.1,1.7,0.1h5c0.5,0,1,0,1.5-0.1v1.8
	c-0.5-0.1-1.1-0.1-1.7-0.1h-1.1v1.4h0.9c0.5,0,1,0,1.4-0.1v1.8c-0.5-0.1-1-0.1-1.5-0.1h-0.9v2c0.9,0.2,1.9,0.4,2.9,0.4
	c-0.3-0.4-0.6-0.7-1-1c1.1-0.3,2-1,2.8-1.8c-0.7,0-1,0-1.4,0.1c0-0.4,0-0.9,0-1.5V203c0-0.6,0-1,0-1.5c0.5,0,1,0.1,1.5,0.1h0.7
	c0.2-0.4,0.3-0.8,0.5-1.2h-1.5c-0.6,0-1.2,0-1.8,0.1v-1.8c0.6,0.1,1.3,0.1,2,0.1h4.5c0.6,0,1.3,0,1.9-0.1v1.7
	c-0.4,0-1.1-0.1-1.7-0.1h-1.6c-0.1,0.4-0.3,0.8-0.5,1.2h1.5c0.5,0,1,0,1.5-0.1c-0.1,0.5-0.1,1-0.1,1.5v5c0,0.6,0,1.1,0.1,1.7
	c-0.5,0-0.8-0.1-1.5-0.1h-0.3c0.8,0.7,1.7,1.3,2.8,1.6c-0.3,0.3-0.6,0.7-0.8,1.1c0.3,0,0.7,0,1-0.1c-0.3,0.6-0.5,1.3-0.6,2
	c-1.2,0.1-3.3,0.1-4.8,0.1c-2.1,0.1-4.3-0.1-6.3-0.5c-1.2-0.4-2.2-1.1-2.9-2c-0.2,1-0.6,1.9-1.2,2.7c-0.4-0.5-0.9-0.9-1.5-1.2
	c0.6-0.8,1-1.7,1.2-2.7c0.2-0.8,0.3-1.7,0.3-2.5c0-0.2,0-0.3,0-0.5l1.8,0.3c0,0.2-0.1,0.4,0,0.6c0,0.4-0.1,0.8-0.1,1.4
	c0.3,0.4,0.6,0.8,1,1.1L292.6,207.1z M289.8,200.2c0-0.5,0-1-0.1-1.6c0.5,0.1,1.1,0.1,1.6,0.1h3.5c0.5,0,1.1,0,1.6-0.1
	c-0.1,0.5-0.1,1.1-0.1,1.6v3.1c0,0.5,0,1,0.1,1.5c-0.5-0.1-1.1-0.1-1.6-0.1h-3.5c-0.5,0-1.1,0-1.6,0.1c0.1-0.5,0.1-1,0.1-1.6
	L289.8,200.2z M291.6,201.1h3v-0.9h-3V201.1z M291.6,203.3h3v-0.9h-3V203.3z M300.6,210.5c-0.7,0.8-1.5,1.5-2.5,2.1h1.8
	c1.3,0,2.9,0,4.1-0.1c-1-0.5-1.8-1.2-2.6-2l1.1-0.8h-3.2L300.6,210.5z M299.4,203.9h3.5V203h-3.5V203.9z M299.4,206h3.5v-0.8h-3.5
	V206z M299.4,208.2h3.5v-0.8h-3.5V208.2z"/>
<path class="st4" d="M315.3,200.1c-0.2,0.3-0.4,0.7-0.5,1c-0.2,0.3-0.5,0.9-0.8,1.3c0.6,0,1.1,0,1.7-0.1c0,0.3,0,0.4,0,0.9
	c0.7-0.3,1.2-0.7,1.7-1.2c0.4-0.5,0.7-1,0.8-1.6h-0.5c-0.5,0-1.1,0-1.6,0.1v-1.9c0.6,0.1,1.3,0.1,1.9,0.1h4.4c0.5,0,1.1,0,1.6-0.1
	c0,0.4-0.1,0.9-0.2,1.9c0,1-0.2,2.1-0.7,3c-0.3,0.4-0.7,0.6-1.8,0.6H320c0-0.6-0.2-1.2-0.4-1.8c0.5,0.1,0.9,0.2,1.4,0.2
	c0.5,0,0.7-0.1,0.7-0.4c0.1-0.6,0.2-1.2,0.3-1.8H320c-0.1,0.9-0.5,1.8-1,2.5c-0.5,0.7-1.2,1.3-2,1.7l1.7,0.4c-0.2,0.7-0.2,0.7-0.2,1
	h1v-0.1c0-0.4,0-0.9-0.1-1.3h2c0,0.4-0.1,0.9-0.1,1.3v0.1h1.1c0.5,0,1.1,0,1.6-0.1v1.9c-0.5-0.1-1.1-0.1-1.6-0.1h-1.1v1.6h1.4
	c0.6,0,1.2,0,1.7-0.1v1.9c-0.6-0.1-1.1-0.1-1.7-0.1h-1.4v1.8c0,0.6,0,1.2,0.1,1.8h-2.1c0.1-0.6,0.1-1.2,0.1-1.8v-1.8h-1.8
	c-0.5,0-1.1,0-1.6,0.1v-1.9c0.5,0.1,1.1,0.1,1.6,0.1h1.8v-1.6H318c-0.2,0.5-0.3,0.9-0.6,1.4c-0.5-0.3-1-0.6-1.6-0.8
	c0.5-0.7,0.8-1.5,1-2.4c0.1-0.4,0.2-0.8,0.2-1.2c0,0,0,0,0-0.1l-0.2,0.1c-0.3-0.6-0.7-1.1-1.1-1.5v9.5c0,1.3-0.5,1.6-2.3,1.6h-1.1
	c0-0.6-0.2-1.2-0.4-1.8c0.5,0.1,1,0.1,1.5,0.1c0.6,0,0.8-0.1,0.8-0.4v-2.2h-3.7c0,1.5-0.4,3-1.1,4.4c-0.4-0.5-0.9-1-1.5-1.4
	c0.9-1.6,1.1-3.2,1.1-8.4v-1c-0.3-0.5-0.7-0.9-1.2-1.2c0.9-0.8,1.6-1.7,2-2.8c0.3-0.6,0.5-1.3,0.7-1.9l1.9,0.4
	c-0.1,0.2-0.1,0.2-0.4,1h1.6c0.3,0,0.6,0,0.9-0.1L315.3,200.1z M312.1,202.4c0.3-0.5,0.6-1,0.8-1.6h-1.8c-0.3,0.5-0.6,1.1-0.9,1.6
	H312.1z M311.5,208.6V207h-1.1v0.7c0,0.5,0,0.6,0,0.9H311.5z M310.5,204v1.5h1V204H310.5z M314,204h-1v1.5h1V204z M314,207h-1v1.6h1
	V207z"/>
<path class="st4" d="M328,202.7c1.2,0.6,2.2,1.4,3.2,2.3l-1.2,1.7c-1-0.9-2.1-1.8-3.2-2.5L328,202.7z M331.2,208.8
	c-0.5,1.6-1.2,3.2-2,4.8c-0.1,0.2-0.5,0.9-0.6,1l-1.7-1.5c1.2-1.6,2.1-3.5,2.7-5.4L331.2,208.8z M328.8,198.2
	c1.2,0.7,2.2,1.5,3.2,2.4l-1.3,1.6c-0.9-1-2-1.9-3.2-2.6L328.8,198.2z M338.2,207.6c1.1,2.3,3.1,4.1,5.5,5c-0.5,0.6-0.8,1.3-1.1,2.1
	c-2.5-1.2-4.5-3.2-5.6-5.6c-0.9,2.6-2.8,4.6-5.2,5.8c-0.3-0.7-0.7-1.3-1.2-1.8c2.8-1.2,4.3-2.8,4.9-5.4h-1.7c-0.7,0-1.3,0-2,0.1
	v-2.1c0.7,0.1,1.3,0.1,2,0.1h2c0.1-1,0.1-2.1,0.1-3.1h-1.5c-0.6,0-1.3,0-1.9,0.1v-2c0.6,0.1,1.3,0.1,1.9,0.1h1.5v-1
	c0-0.6,0-1.1-0.1-1.7h2.1c-0.1,0.5-0.2,1.1-0.1,1.7v1h2.8c0.6,0,1.1,0,1.7-0.1c-0.1,0.5-0.1,1-0.1,1.4v3.6c0.5,0,1,0,1.5-0.1v2.1
	c-0.7-0.1-1.3-0.1-2-0.1L338.2,207.6z M340.2,205.7v-3.1h-2.5c0,1.4-0.1,2.1-0.2,3.1H340.2z"/>
<path class="st4" d="M347.4,200.3c1.4,0.2,2.8,0.3,4.2,0.2c0.4-0.7,0.6-1.5,0.7-2.2l2.3,0.3c-0.1,0.2-0.1,0.2-0.7,1.6
	c0,0.1-0.1,0.2-0.2,0.3l1.1-0.1c1.6,0,3.2-0.2,4.7-0.6l0.1,2.1c-0.5,0-0.5,0-1.4,0.1c-1.3,0.2-3.6,0.3-5.4,0.4
	c-0.4,0.9-1,1.7-1.7,2.4l0,0l0.4-0.3c0.7-0.5,1.6-0.8,2.5-0.8c1.2-0.1,2.3,0.7,2.6,1.9c1.4-0.5,2.3-0.8,2.8-1
	c0.5-0.1,0.9-0.3,1.3-0.5l0.9,2.1c-0.7,0.1-1.3,0.3-2,0.5c-0.3,0.1-1.2,0.4-2.7,0.9v0.2c0,0.5,0,0.5,0,0.7v0.7c0,0.3,0,0.5,0,0.6
	c0,0.3,0,0.7,0,1l-2.1,0.1c0.1-0.7,0.1-1.4,0.1-2.1v-0.4c-0.6,0.3-1.2,0.6-1.7,0.9c-0.5,0.3-0.9,0.9-0.9,1.5c0,0.9,0.9,1.3,3,1.3
	c1.8,0.1,3.6-0.2,5.3-0.8l0.2,2.3c-0.3,0-0.6,0-0.8,0.1c-1.5,0.2-3.1,0.3-4.6,0.3c-1.4,0.1-2.8-0.2-4-0.8c-0.8-0.5-1.3-1.4-1.3-2.3
	c0-0.7,0.3-1.5,0.8-2c1-1.2,2.4-2.1,3.9-2.5c0-0.6-0.4-1-1-1c0,0-0.1,0-0.1,0c-1.4,0.2-2.7,0.8-3.7,1.9c-0.6,0.5-1.1,1-1.6,1.6
	l-1.6-1.6c0.6-0.5,1.1-1,1.6-1.6c0.8-1,1.5-2,2.2-3.1c0-0.1,0.1-0.2,0.1-0.2h-0.3h-2.3h-0.5c-0.1,0-0.2,0-0.3,0L347.4,200.3z"/>
<path class="st4" d="M375,202.1v-0.8v-0.6c0-0.7,0-1.3-0.1-2h2.3c-0.1,0.4-0.1,0.8-0.1,1.2c0,1.1,0,1.1,0,2.2h1.1
	c0.8,0,1.6,0,2.3-0.1v2.2c-0.8-0.1-1.5-0.1-2.3-0.1h-1.2c0,1,0,2-0.1,3c-0.1,2-1,3.9-2.6,5.2c-1,0.9-2.2,1.5-3.5,1.9
	c-0.3-0.7-0.8-1.4-1.4-1.9c1.3-0.3,2.4-0.9,3.4-1.7c1.2-1.1,1.9-2.7,1.9-4.3c0-0.4,0-0.9,0.1-2.1h-4.7v2.7c0,0.5,0,1,0.1,1.5h-2.3
	c0.1-0.5,0.1-1,0.1-1.6v-2.7H367c-0.8,0-1.5,0-2.3,0.1V202c0.8,0.1,1.6,0.2,2.3,0.1h1.1v-1.8c0-0.5,0-1.1-0.1-1.6h2.4
	c-0.1,0.5-0.1,1-0.1,1.6v1.9L375,202.1z"/>
<path class="st4" d="M388.8,205.6c-0.1,0.2-0.1,0.2-0.1,0.6c-0.5,2.5-1.5,4.9-3,7c-0.6-0.5-1.3-0.9-2.1-1.2c1.2-1.4,2-3,2.5-4.7
	c0.3-0.7,0.4-1.4,0.5-2.2L388.8,205.6z M390.6,200.8c0-0.6,0-1.2-0.1-1.9h2.4c-0.1,0.6-0.1,1.3-0.1,1.9v0.9h4.1c0.8,0,1.6,0,2.3-0.1
	v2.2c-0.8-0.1-1.5-0.1-2.3-0.1h-4.2v8.7c0,0.7,0,1.3,0.1,2h-2.5c0.1-0.7,0.1-1.3,0.1-2v-8.7h-4c-0.8,0-1.5,0-2.3,0.1v-2.2
	c0.8,0.1,1.5,0.2,2.3,0.1h4L390.6,200.8z M396.8,205.1c0.2,0.7,0.4,1.4,0.6,2c0.6,1.7,1.4,3.4,2.6,4.9c-0.7,0.3-1.4,0.8-2.1,1.2
	c-1.3-2.1-2.3-4.4-3-6.7c-0.1-0.3-0.2-0.6-0.3-0.8L396.8,205.1z M400.1,199.4c0,1.1-0.9,2-2,2c-1.1,0-2-0.9-2-2s0.9-2,2-2
	C399.2,197.4,400.1,198.3,400.1,199.4z M397.1,199.4c0,0.6,0.5,1,1,1s1-0.5,1-1c0-0.6-0.4-1-1-1
	C397.6,198.4,397.2,198.8,397.1,199.4C397.1,199.4,397.1,199.4,397.1,199.4L397.1,199.4z"/>
<path class="st4" d="M403.1,205.1c1,0.1,1.9,0.2,2.9,0.1h9.6c1,0,2,0,2.9-0.1v2.5c-1-0.1-2-0.1-2.9-0.1h-9.6c-1,0-2,0-2.9,0.1V205.1
	z"/>
<path class="st4" d="M425.7,214c0.1-0.7,0.1-1.3,0.1-2v-11.6c0-0.6,0-1.2-0.1-1.8h2.5c-0.1,0.6-0.1,1.3-0.1,1.9v3.4
	c2.8,1,5.6,2.3,8.2,3.8l-1.3,2.1c-2-1.3-4.2-2.5-6.4-3.4c-0.2-0.1-0.4-0.2-0.6-0.3c0,0.4,0.1,0.8,0.1,1.2v4.8c0,0.9,0,1.4,0.1,2
	H425.7z"/>
<path class="st3" d="M73.6,315.7v-1.1v-0.8c0-0.9,0-1.9-0.1-2.8h3.2c-0.1,0.6-0.1,1.1-0.1,1.7c0,1.5,0,1.5,0,3h1.6
	c1.1,0,2.2,0,3.3-0.2v3c-1.1-0.1-2.1-0.1-3.2-0.1h-1.7c0,1.4,0,2.8-0.2,4.1c-0.1,2.8-1.4,5.5-3.6,7.3c-1.4,1.2-3.1,2.1-4.9,2.6
	c-0.4-1-1.1-1.9-1.9-2.6c1.8-0.4,3.4-1.2,4.8-2.4c1.7-1.5,2.4-3.1,2.6-6c0.1-0.6,0.1-1.2,0.1-2.9h-6.5v3.8c0,0.7,0,1.4,0.1,2.1H64
	c0.1-0.7,0.1-1.4,0.1-2.1v-3.7h-1.5c-1.1,0-2.1,0-3.2,0.1v-3c1.1,0.2,2.2,0.2,3.3,0.2h1.5v-2.5c0-0.7,0-1.5-0.1-2.2h3.3
	c-0.1,0.7-0.1,1.4-0.1,2.1v2.6L73.6,315.7z"/>
<path class="st3" d="M86.2,319.8c1.3,0.2,2.7,0.2,4,0.2h13.3c1.3,0.1,2.7,0,4-0.2v3.5c-1.4-0.1-2.7-0.2-4.1-0.1H90.2
	c-1.4-0.1-2.7,0-4.1,0.1V319.8z"/>
<path class="st3" d="M121.2,313c-0.2,0.6-0.3,1.3-0.3,1.9c-0.4,2.9-1.1,5.8-2,8.5c-1,2.8-2.5,5.4-4.4,7.7c-0.8-0.9-1.8-1.6-2.8-2.1
	c1.5-1.5,2.7-3.3,3.6-5.3c1.2-2.7,2-5.6,2.4-8.6c0.1-0.8,0.2-1.6,0.2-2.4v-0.4L121.2,313z M128.3,312.3c0.2,1.9,0.5,3.9,1.1,5.8
	c0.9,4,2.8,7.7,5.6,10.8c-1,0.6-2,1.4-2.8,2.3c-1.8-2.2-3.2-4.7-4.3-7.4c-1.2-2.9-1.9-6-2.4-9.1c-0.1-0.6-0.2-1.2-0.4-1.8
	L128.3,312.3z M131,312.6c0.8,1.1,1.4,2.3,1.9,3.5L131,317c-0.5-1.3-1.1-2.5-1.9-3.6L131,312.6z M133.7,315.8
	c-0.5-1.2-1.1-2.4-1.8-3.5l1.8-0.8c0.8,1,1.4,2.2,1.9,3.4L133.7,315.8z"/>
<path class="st3" d="M139.2,319.8c1.3,0.2,2.7,0.2,4,0.2h13.3c1.3,0,2.7,0,4-0.2v3.5c-1.4-0.1-2.7-0.2-4.1-0.1h-13.2
	c-1.4-0.1-2.7,0-4.1,0.1V319.8z"/>
<path class="st3" d="M89.6,341.5c-0.7,0.9-1.5,1.7-2.4,2.4c-0.5-0.7-1.1-1.3-1.8-1.9c1.7-1.1,3.1-2.8,3.8-4.7l2.7,0.5
	c-0.2,0.5-0.5,0.9-0.8,1.4h3.4c0.7,0,1.5,0,2.2-0.1v2c1-1,1.8-2.3,2.2-3.7l2.7,0.4c-0.4,0.9-0.4,1-0.7,1.5h4.9c0.8,0,1.6,0,2.4-0.1
	v2.5c-0.8-0.1-1.5-0.1-2.3-0.1h-2.3c0.4,0.5,0.7,1.1,0.9,1.7l-2.5,0.7c-0.3-0.8-0.7-1.7-1.2-2.4h-1.4c-0.5,0.6-1,1.2-1.5,1.8v0.5
	v0.4h7c1.4,0,1.9,0,2.7-0.1c-0.1,0.5-0.1,1-0.1,1.5v1.8c0,0.6,0,1.1,0.1,1.6H105v-2.7H88.9v2.7h-2.6c0-0.5,0.1-1,0.1-1.6v-1.7
	c0-0.5,0-1.1-0.1-1.6c0.8,0,1.2,0.1,2.6,0.1h6.5v-0.4c0-0.4,0-0.8-0.1-1.2H97c-0.4-0.3-0.7-0.6-1.1-0.8l0.4-0.3c-0.4,0-0.7,0-1.1,0
	h-1.6c0.4,0.7,0.6,1,0.9,1.6l-2.4,0.8c-0.2-0.9-0.5-1.7-0.9-2.5L89.6,341.5z M89.5,360.7c0.1-0.9,0.2-1.8,0.1-2.8v-9
	c0-0.6,0-1.1-0.1-1.6c0.7,0.1,1.4,0.1,2.1,0.1h10.2c0.7,0,1.4,0,2.1-0.1c-0.1,0.6-0.1,1.1-0.1,1.7v1.9c0,0.7,0,1.3,0.1,2
	c-0.6,0-1.2-0.1-2.1-0.1h-9.7v1.2H103c0.7,0,1.3,0,2-0.1c-0.1,0.7-0.1,1.4-0.1,2.1v2.5c0,0.8,0,1.5,0.1,2.3h-2.8v-1.1h-10v1.1
	L89.5,360.7z M92.3,350.8h9v-1.3h-9V350.8z M92.3,357.6h10V356h-10V357.6z"/>
<path class="st3" d="M113.8,341.4c-0.6,0-1.3,0-1.9,0.1v-2.7c0.8,0.1,1.5,0.2,2.3,0.1h3.5c0.7,0,1.5,0,2.2-0.1v2.7
	c-0.6-0.1-1.2-0.1-1.9-0.1h-0.8v4.9h0.6c0.5,0,1.1,0,1.6-0.1v2.5c-0.5-0.1-1-0.1-1.6-0.1h-0.6v4.9c1.1-0.5,1.4-0.6,2.4-1.1l0.1,2.6
	c-2.2,1.1-3.1,1.5-7,3.1l-0.5,0.2l-0.7-2.8c1-0.2,2.1-0.6,3.1-1v-6H114c-0.6,0-1.1,0-1.7,0.1v-2.6c0.6,0.1,1.2,0.1,1.8,0.1h0.8v-4.9
	L113.8,341.4z M125.9,355h-2.8c-0.9,0-1.7,0-2.6,0.1v-2.5c0.9,0.1,1.7,0.2,2.6,0.1h2.8v-2h-2.4c-1.7,0-2.3,0-3,0.1
	c0-0.6,0-0.6,0.1-3.1v-5.6c0-1.1,0-2.2-0.1-3.4c1.1,0.1,2.2,0.1,3.4,0.1h6.9c1.1,0,2.2,0,3.2-0.1c-0.1,0.7-0.1,1.9-0.1,3.4v5.3
	c0,1.8,0,2.6,0.1,3.4c-0.9-0.1-1.8-0.1-2.7-0.1h-2.9v2h3.2c0.9,0,1.8,0,2.6-0.1v2.6c-0.9-0.1-1.7-0.1-2.6-0.1h-3.2v2.6h4
	c0.9,0,1.8,0,2.6-0.1v2.7c-0.9-0.1-1.9-0.2-2.8-0.1h-10.5c-0.9,0-1.9,0-2.8,0.1v-2.7c0.8,0.1,1.7,0.2,2.5,0.1h4.5L125.9,355z
	 M123.1,341.1v2.5h2.8v-2.5H123.1z M123.1,345.7v2.5h2.8v-2.5H123.1z M128.4,343.6h2.9v-2.5h-2.9V343.6z M128.4,348.2h2.9v-2.5h-2.9
	V348.2z"/>
<path class="st4" d="M43.2,407.9c0.3-0.6,0.6-1.2,0.8-1.8h-4.6c-0.7,0-1.5,0-2.2,0.1v-2c0.7,0.1,1.5,0.1,2.2,0.1h11.9
	c0.7,0,1.5,0,2.2-0.1v2c-0.7-0.1-1.5-0.1-2.2-0.1h-5.1c-0.2,0.6-0.5,1.3-0.8,1.8h5.4c0.7,0,1.4,0,2.1-0.1c-0.1,0.8-0.1,1.5-0.1,2.3
	v7.8c0,0.8,0,1.6,0.1,2.4h-2v-0.9H39.8v0.9h-2c0.1-0.8,0.1-1.6,0.1-2.5v-7.8c0-0.8,0-1.5-0.1-2.3c0.7,0.1,1.4,0.1,2.1,0.1H43.2z
	 M41.9,409.6h-2.1v8.2h2.1L41.9,409.6z M43.7,411.2h3.3v-1.6h-3.3V411.2z M46.9,412.8h-3.3v1.6h3.3V412.8z M46.9,417.8v-1.8h-3.3
	v1.7L46.9,417.8z M48.7,417.8h2.2v-8.2h-2.2V417.8z"/>
<path class="st4" d="M60.6,404.6c0,0.1,0,0.2-0.1,0.3c-0.3,1-0.6,2-1.1,3v10.2c0,0.7,0,1.4,0.1,2.2h-2c0.1-0.7,0.1-1.4,0.1-2.2v-4.9
	c0-0.9,0-1.4,0.1-2.2c-0.3,0.7-0.7,1.4-1.2,2c-0.2-0.8-0.5-1.5-0.8-2.2c1.7-2.1,2.8-4.6,3.2-7.3l1.9,0.6l-0.1,0.3
	c0.5,0.1,1.1,0.1,1.6,0.1h3.1c0.6,0,1.2,0,1.8-0.1v1.9c-0.4,0-0.9,0-1.6,0H64c-0.3,1-0.8,1.9-1.2,2.8c1.4-0.1,1.6-0.1,2.3-0.2
	c-0.3-0.6-0.4-0.8-0.8-1.5l1.4-0.6c0.7,1.1,1.3,2.2,1.8,3.4v-3.6c0-0.5,0-1-0.1-1.5h1.9c-0.1,0.5-0.1,1-0.1,1.5v7.8
	c0,0.5,0,1,0.1,1.5h-1.9c0.1-0.5,0.1-1,0.1-1.5v-3.5l-1.3,0.8c-0.2-0.5-0.3-0.7-0.4-1.1c-1.8,0.3-2.4,0.3-4.6,0.5
	c-0.3,0-0.7,0.1-1,0.1l-0.2-1.9c0.2,0,0.4,0,0.6,0h0.4c0.5-0.9,0.9-1.9,1.2-3h-0.6c-0.3,0-0.7,0-1,0.1L60.6,404.6z M65.6,413
	c0.4,0,0.8,0,1.2-0.1v1.8c-0.3,0-0.7,0-1.2,0h-1.1v2c1.2-0.2,1.6-0.3,2.8-0.5v1.7c-2,0.5-4,0.9-6.1,1.2c-0.3,0-0.7,0.1-1,0.2l-0.3-2
	H60c0.9,0,1.7-0.1,2.5-0.3v-2.2h-1.1c-0.4,0-0.8,0-1.2,0.1V413c0.4,0.1,0.8,0.1,1.2,0.1h1.1v-0.8c0-0.4,0-0.7-0.1-1.1h2
	c-0.1,0.3-0.1,0.7-0.1,1.1v0.8L65.6,413z M72.3,418.3c0,1.4-0.6,1.9-2.6,1.9h-1.6c-0.1-0.6-0.2-1.3-0.4-1.9c0.7,0.1,1.3,0.1,2,0.2
	c0.7,0,0.8-0.1,0.8-0.5v-11.8c0-0.7,0-1.4-0.1-2.1h2c-0.1,0.7-0.1,1.5-0.1,2.2L72.3,418.3z"/>
<path class="st4" d="M82.3,404.1c-0.1,0.4-0.2,0.8-0.3,1.2c-0.1,0.4-0.2,0.8-0.4,1.6c1-0.1,1.9-0.2,2.9-0.5l0.1,2.1
	c-0.2,0-0.4,0-0.6,0.1c-0.6,0.1-1.8,0.2-2.9,0.3c-0.5,1.8-1.2,3.5-2,5.2c-0.4,0.9-0.6,1.2-1.3,2.5l-0.3,0.6l-2.1-1.1
	c0.7-0.9,1.3-1.9,1.8-2.9c0.7-1.4,1.2-2.8,1.7-4.3H77h-1v-2.1c0.8,0.1,1.6,0.2,2.4,0.2c0.2,0,0.5,0,0.9,0c0.3-1,0.5-2.1,0.5-3.1
	L82.3,404.1z M90.5,418.8c-0.8-0.9-1.7-1.6-2.8-2.2c0,0.1,0,0.2,0,0.4c0,0.7-0.3,1.4-0.8,1.9c-0.8,0.7-1.9,1.1-3,1
	c-2.4,0-3.9-1.2-3.9-3s1.6-3.1,3.9-3.1c0.6,0,1.1,0.1,1.7,0.2c-0.1-0.8-0.1-1.5-0.1-2.1c0-0.6,0-1.2,0.1-1.8l2.1,0.1
	c-0.2,0.6-0.2,1.2-0.2,1.8c0,0.8,0.1,1.6,0.2,2.5c1,0.4,2,1,2.8,1.7c0.2,0.1,0.4,0.3,0.6,0.5l0.3,0.3L90.5,418.8z M84.1,415.5
	c-1.2,0-1.9,0.5-1.9,1.2s0.6,1.2,1.8,1.2s1.8-0.5,1.8-1.5c0-0.2,0-0.6,0-0.6C85.2,415.5,84.6,415.4,84.1,415.5L84.1,415.5z
	 M90.6,410.5c-1.6-1.1-3.4-1.9-5.2-2.5l1.1-1.8c1.8,0.6,3.5,1.4,5.1,2.4L90.6,410.5z"/>
<path class="st4" d="M101.8,406.6c-2.4,0.2-3.3,0.3-5.6,0.3c-0.2-0.6-0.4-1.3-0.7-1.9h0.9c2.7,0,5.4-0.2,8.1-0.6
	c1.1-0.1,2.3-0.4,3.3-0.9l1.5,1.8c-1.8,0.4-3.6,0.8-5.5,1v2.3h3.7c0.8,0,1.5,0,2.3-0.1v2c-0.7-0.1-1.5-0.1-2.2-0.1h-3.8v2.2h4.6
	c0.7,0,1.5,0,2.2-0.1v2c-0.7-0.1-1.5-0.1-2.2-0.1h-4.6v3.5c0,0.8-0.3,1.4-0.7,1.5c-0.6,0.2-1.3,0.3-2,0.3c-0.5,0-1.4,0-2.4-0.1
	c0-0.7-0.2-1.4-0.5-2c1,0.2,2,0.2,3,0.3c0.5,0,0.7-0.1,0.7-0.6v-3h-5c-0.7,0-1.5,0-2.2,0.1v-2c0.7,0.1,1.5,0.1,2.2,0.1h5v-2.2h-4
	c-0.8,0-1.5,0-2.3,0.1v-2c0.7,0.1,1.5,0.1,2.2,0.1h4L101.8,406.6z"/>
<path class="st4" d="M115.5,414c0,1.8-0.3,3.7-0.7,5.5l-1.6-0.8c0.5-1.6,0.7-3.3,0.7-4.9L115.5,414z M113.3,411.3c0.2,0,0.5,0,0.7,0
	h0.6c0.5-0.7,0.5-0.7,0.9-1.3c-0.7-1-1.5-1.9-2.4-2.7l0.9-1.6l0.7,0.7c0.6-0.9,1-1.9,1.3-2.9l1.7,0.7c-0.1,0.2-0.3,0.4-0.4,0.7
	c-0.5,1-1,1.9-1.6,2.8l0.7,0.8c0.7-0.9,1.2-1.9,1.6-3l1.6,0.9c-0.3,0.4-0.6,0.9-0.9,1.4c-0.6,0.9-1.7,2.5-2.4,3.5
	c1-0.1,1.3-0.1,1.9-0.1c-0.1-0.5-0.3-0.9-0.5-1.4l1.2-0.4c0.4,1,0.8,2,1,3v-0.4c0-0.4,0-0.9-0.1-1.3c0.5,0.1,1.1,0.1,1.6,0.1h6.2
	c0.6,0,1.1,0,1.7-0.1c0,0.4,0,0.7,0,1.3v1.1c0,0.4,0,0.9,0.1,1.3h-1.9v-2h-6v2h-1.7c0.1-0.4,0.1-0.8,0.1-1.2l-1.2,0.4
	c-0.1-0.4-0.1-0.5-0.1-0.8c-0.4,0.1-0.5,0.1-1.1,0.1v5.7c0,0.6,0,1.3,0.1,1.9h-1.9c0.1-0.6,0.1-1.3,0.1-1.9v-5.5l-0.7,0.1
	c-0.4,0-0.6,0-0.7,0c-0.4,0-0.8,0-1.1,0.1L113.3,411.3z M119.6,413.6c0.3,1.3,0.5,2.6,0.6,4l-1.5,0.4c0-1.3-0.2-2.7-0.5-4
	L119.6,413.6z M124.3,413.1c0,0.3,0,0.3-0.1,1.3c0,1.4-0.4,2.7-1.2,3.8c-0.8,0.9-1.8,1.7-2.9,2.1c-0.3-0.7-0.7-1.2-1.2-1.7
	c1-0.2,1.9-0.8,2.6-1.5c0.7-0.9,1-2,0.9-3.1c0-0.3,0-0.6-0.1-0.8H124.3z M122,406.8c-0.7,0-1.3,0-2,0.1v-1.8c0.7,0.1,1.3,0.1,2,0.1
	h1.7V405c0-0.5,0-0.9-0.1-1.4h2.1c-0.1,0.5-0.1,0.9-0.1,1.4v0.2h2.2c0.7,0,1.3,0,2-0.1v1.8c-0.6-0.1-1.3-0.1-1.9-0.1h-2.3v1.3h1.8
	c0.6,0,1.2,0,1.8-0.1v1.8c-0.6-0.1-1.2-0.1-1.8-0.1h-5.3c-0.6,0-1.2,0-1.8,0.1V408c0.6,0.1,1.2,0.1,1.8,0.1h1.5v-1.3H122z M127,413
	c-0.1,0.4-0.1,0.9-0.1,1.3v3.5c0,0.3,0.1,0.4,0.5,0.4c0.2,0,0.5,0,0.7-0.2c0.3-0.7,0.4-1.5,0.3-2.3c0.5,0.3,1.1,0.5,1.7,0.6
	c0,0.9-0.2,1.8-0.4,2.7c-0.3,0.7-0.9,0.9-2.4,0.9c-1.8,0-2.2-0.3-2.2-1.5v-4.1c0-0.4,0-0.9-0.1-1.3L127,413z"/>
<path class="st4" d="M134.2,406.5c0.6,0.1,1.2,0.1,1.7,0.1c1.2,0,2.5-0.1,3.7-0.2c-0.1-0.2-0.1-0.3-0.2-0.5c-0.4-1-0.7-1.6-0.7-1.6
	l2.3-0.3c0.2,0.8,0.4,1.5,0.7,2.2c1.6-0.2,3.3-0.6,4.9-1.1l0.2,1.9l-0.6,0.1c-1.2,0.3-3.2,0.7-3.8,0.8c0.2,0.5,0.4,1,0.7,1.5
	l2.5-0.5c0.6-0.1,1.2-0.3,1.7-0.5l0.2,2c-0.4,0.1-0.8,0.1-1.1,0.2c-0.7,0.2-1.3,0.3-1.8,0.4l-0.7,0.1c0.7,1.2,1.5,2.3,2.4,3.3
	l-1.6,1.1c-1.3-0.5-2.7-0.8-4.1-0.7c-1-0.1-2.1,0.1-3,0.5c-0.4,0.2-0.7,0.6-0.8,1.1c0,0.5,0.3,0.8,0.8,1c0.8,0.3,1.7,0.4,2.6,0.4
	c1.9,0,3.8-0.4,5.5-1.2l0.3,2.2c-0.4,0.1-0.8,0.1-1.2,0.3c-1.5,0.4-3.1,0.6-4.6,0.6c-1.5,0.1-3-0.2-4.4-0.9
	c-0.9-0.5-1.4-1.5-1.4-2.5c0-1,0.6-2,1.5-2.5c1.3-0.7,2.7-1,4.2-0.9c1.1,0,2.1,0.1,3.1,0.4c-0.5-0.6-1-1.3-1.4-2
	c-2.3,0.3-4.7,0.5-7,0.5l-0.7,0l-0.1-2c0.6,0.1,1.2,0.1,1.9,0.1c1.7,0,3.4-0.1,5.1-0.3c-0.1-0.2-0.2-0.3-0.3-0.7s-0.2-0.5-0.4-0.8
	c-1.6,0.2-3.2,0.3-4.8,0.3c-0.8,0-0.9,0-1.2,0L134.2,406.5z"/>
<path class="st4" d="M158.6,404.3c-0.1,0.2-0.1,0.4-0.1,0.6c0,0.2-0.1,0.3-0.1,0.6s0,0.4-0.3,1.7c-0.1,0.4-0.1,0.4-0.1,0.7
	c0.5,0,0.8-0.1,1.1-0.1c1-0.1,2,0.3,2.7,1c0.6,0.7,0.9,1.5,0.9,3.2c0,3.1-0.5,5.6-1.4,6.6c-0.5,0.6-1.2,0.9-2,0.8
	c-0.9,0-1.9-0.2-2.8-0.5c0-0.4,0-0.6,0-0.8c0-0.5-0.1-1-0.2-1.5c0.8,0.4,1.7,0.6,2.6,0.7c0.5,0,0.8-0.4,1.1-1.2
	c0.3-1.3,0.5-2.7,0.5-4.1c0-1.7-0.4-2.1-1.8-2.1c-0.4,0-0.7,0-1.1,0.1c-0.5,2.2-0.7,2.7-1.1,3.9c-0.6,1.7-1.3,3.4-2.2,5.1l-0.3,0.5
	c0,0.1,0,0.1-0.1,0.3l-2.1-1.2c0.7-1.1,1.4-2.2,1.9-3.4c0.7-1.6,1.3-3.3,1.8-5.1c-0.9,0.1-2.6,0.4-3.2,0.6l-0.2-2.1
	c0.7,0,2.9-0.2,3.8-0.4c0.2-1.2,0.4-2.4,0.5-3.6V404L158.6,404.3z M164.6,406.6c1.8,2,3,4.4,3.7,7l-2.1,1c-0.3-1.4-0.8-2.8-1.4-4.1
	c-0.5-1.1-1.2-2.2-2.1-3.1L164.6,406.6z"/>
<path class="st4" d="M175.9,407.7c-0.4,1.5-0.6,2.9-0.8,4.4c0,0.3,0,0.3-0.1,0.5l0,0c1.6-1.2,3.5-1.8,5.5-1.7c3.1,0,5.1,1.5,5.1,3.8
	c0,1.4-0.7,2.7-1.9,3.5c-1.4,0.9-3.1,1.3-4.8,1.2c-1.6,0-3.1-0.2-4.6-0.6c0-0.8-0.1-1.6-0.3-2.3c1.6,0.6,3.2,0.9,4.8,0.9
	c2.5,0,4.3-1.1,4.3-2.6c0-1.2-1.1-1.9-3-1.9c-1.6,0-3.1,0.5-4.5,1.3c-0.3,0.2-0.6,0.5-0.8,0.8l-2.3-0.1c0-0.3,0-0.4,0.1-1.1
	c0.1-1.1,0.4-3.1,0.8-5.2c0.1-0.3,0.1-0.7,0.1-1L175.9,407.7z M176.1,404.1c2.1,1,4.4,1.6,6.7,2l-0.7,2.1c-2.4-0.5-4.8-1.2-7-2.3
	L176.1,404.1z"/>
<path class="st4" d="M25.5,441.2v4c0,0.7,0,1.4,0.1,2.1h-2c0-0.6,0.1-1.3,0.1-2.1v-3.6c0-0.1,0-0.3,0-0.4c-0.6,0.6-1.2,1.2-1.9,1.6
	c-0.2-0.6-0.5-1.2-0.9-1.7c0.9-0.6,1.8-1.2,2.5-2c0.9-0.9,1.6-1.9,2.2-3.1h-2.4c-0.5,0-1,0-1.5,0.1v-1.8c0.5,0.1,1.1,0.1,1.6,0.1
	h0.6v-1.2c0-0.5,0-0.9-0.1-1.4h2c-0.1,0.5-0.1,0.9-0.1,1.4v1.2h0.3c0.4,0,0.8,0,1.2-0.1l0.8,1c-0.1,0.2-0.3,0.5-0.4,0.7
	c-0.5,1.1-1.1,2.1-1.8,3.1c0.2,0.2,0.4,0.4,0.6,0.6c0.7-0.7,1.2-1.5,1.6-2.4l1.3,1c-0.5,0.8-1.1,1.6-1.8,2.3
	c0.3,0.2,0.5,0.4,1.1,0.7c-0.4,0.4-0.7,0.9-1,1.4c-0.7-0.5-1.4-1.1-2.1-1.7L25.5,441.2z M29.9,434.5c-0.7,0-1.3,0-2,0.1v-1.8
	c0.7,0.1,1.3,0.1,2,0.1h4.9c0.5,0,1.1,0,1.6-0.1c-0.1,1.2-0.1,2.4-0.1,3.6c0.1,3-0.2,6-0.7,9c-0.1,0.5-0.4,1-0.9,1.2
	c-0.5,0.2-1.1,0.3-1.7,0.3c-0.5,0-0.7,0-1.8-0.1c0-0.7-0.2-1.3-0.4-1.9c0.7,0.1,1.4,0.2,2.1,0.2c0.7,0,0.9-0.2,1.1-1.4
	c0.1-0.7,0.3-2.6,0.4-4c0.1-1.7,0.1-2.3,0.1-5.3h-2.4c0,2.1-0.2,4.3-0.7,6.3c-0.4,1.6-1.1,3.1-2.1,4.4c-0.5,0.7-1.1,1.4-1.8,2
	c-0.3-0.6-0.8-1.2-1.3-1.6c1.1-0.8,1.9-1.8,2.5-3c0.9-1.8,1.4-3.8,1.5-5.9c0-0.7,0-0.9,0-2.1L29.9,434.5z"/>
<path class="st4" d="M40.8,433.3c0-0.5,0-1-0.1-1.5h1.9c-0.1,0.5-0.1,1-0.1,1.5v0.3h2.4v-0.3c0-0.5,0-1-0.1-1.5h1.9
	c-0.1,0.5-0.1,1-0.1,1.5v0.3c0.4,0,0.8,0,1.2-0.1v1.7c-0.4-0.1-0.8-0.1-1.2-0.1v6.6c0.3,0,0.7,0,1-0.1v1.7c-0.3,0-0.7,0-1.4,0h-5.6
	c-0.4,0-0.9,0-1.3,0.1v-1.7c0.4,0.1,0.8,0.1,1.3,0.1h0.2v-6.6c-0.4,0-0.9,0-1.3,0.1v-1.7c0.4,0.1,0.9,0.1,1.3,0.1V433.3z
	 M43.2,444.3c-0.7,1.2-1.5,2.2-2.6,3.1c-0.4-0.5-0.8-1-1.3-1.3c1-0.7,1.9-1.6,2.5-2.6L43.2,444.3z M44.9,436.2v-1.1h-2.4v1.1H44.9z
	 M44.9,438.9v-1.1h-2.4v1.2L44.9,438.9z M44.9,441.7v-1.3h-2.4v1.3H44.9z M45.3,443.4c0.4,0.7,0.9,1.3,1.6,1.8
	c-0.5,0.4-0.9,0.8-1.3,1.3c-0.7-0.6-1.2-1.4-1.6-2.2L45.3,443.4z M49.8,442c-0.3,2.7-0.7,3.9-1.9,5.5c-0.4-0.5-0.9-1-1.4-1.4
	c0.8-0.9,1.3-2,1.5-3.2c0.3-2.8,0.4-5.6,0.3-8.4c0-0.7,0-1.5-0.1-2.2c0.6,0.1,1.3,0.1,1.9,0.1h2.5c0.6,0,1.2,0,1.8-0.1
	c-0.1,0.6-0.1,1.2-0.1,1.9v11.3c0,0.8-0.2,1.4-0.7,1.6c-0.5,0.2-1.1,0.3-1.7,0.2c-0.2,0-0.2,0-1.1,0c-0.1-0.6-0.2-1.3-0.4-1.9
	c0.5,0.1,1,0.2,1.5,0.2c0.5,0,0.6-0.1,0.6-0.4V442H49.8z M50,438c0,1,0,1.6-0.1,2.4h2.6V438H50z M52.6,434.1H50v2.3h2.5V434.1z"/>
<path class="st4" d="M62.9,440.6c0-0.5,0-0.8,0-1.2c-0.4,0.3-0.7,0.7-0.9,1.2c-0.4-0.6-0.8-1.2-1-1.8c0.1,0.8,0.1,1.6,0.1,2.5v4.2
	c0,0.7,0,1.4,0.1,2.1h-1.9c0.1-0.7,0.1-1.4,0.1-2.1v-3.3c0-0.6,0-1.5,0.1-2.4c-0.3,1.2-0.8,2.4-1.5,3.4c-0.3-0.5-0.7-1-1.1-1.5
	c1.1-1.6,1.8-3.4,2.3-5.3h-0.6c-0.4,0-0.8,0-1.1,0.1v-1.8c0.4,0.1,0.8,0.1,1.1,0.1h0.8v-1.4c0-0.6,0-1.2-0.1-1.8h1.9
	c-0.1,0.6-0.1,1.2-0.1,1.8v1.3h0.4c0.3,0,0.7,0,1-0.1v1.8c-0.3-0.1-0.7-0.1-1-0.1h-0.3c0.3,0.7,0.6,1.3,1,1.9v-1.4
	c0.5,0.1,1,0.1,1.5,0.1h0.9v-0.7h-0.4c-0.6,0-1,0-1.3,0v-1.4c0.4,0.1,0.9,0.1,1.3,0.1h0.4v-0.7H64c-0.5,0-1,0-1.4,0.1v-1.5
	c0.5,0.1,0.9,0.1,1.4,0.1h0.7c0-0.4,0-0.8-0.1-1.2h1.9c-0.1,0.4-0.1,0.8-0.1,1.2h2.2c0-0.4,0-0.8-0.1-1.2h1.9
	c-0.1,0.4-0.1,0.8-0.1,1.2h1.1c0.5,0,0.9,0,1.4-0.1v1.5c-0.5-0.1-0.9-0.1-1.4-0.1h-1.1v0.7h0.8c0.4,0,0.9,0,1.3-0.1v1.4
	c-0.4-0.1-0.9-0.1-1.3-0.1h-0.8v0.7h1.2c0.5,0,1,0,1.6-0.1v1.6c-0.5-0.1-1.1-0.1-1.6-0.1h-3.2v0.7h2.2c0.5,0,1.1,0,1.6-0.1
	c-0.1,0.6-0.1,1.1-0.1,1.7v2.5c0.4,0,0.8,0,1.1-0.1v1.6c-0.4-0.1-0.8-0.1-1.1-0.1v1c0,1.3-0.4,1.6-2.2,1.6h-1.3c0-0.5-0.1-1-0.3-1.5
	c0.5,0.1,1,0.1,1.5,0.1c0.6,0,0.7-0.1,0.7-0.4v-0.8h-5.6v0.7c0,0.7,0,1.4,0.1,2.1h-1.8c0.1-0.7,0.1-1.4,0.1-2.1v-0.7
	c-0.3,0-0.7,0-1,0.1v-1.6c0.3,0.1,0.7,0.1,1,0.1L62.9,440.6z M64.5,439h2.1v-0.7h-2.7c-0.5,0-1,0-1.5,0.1c0.2,0.2,0.3,0.4,0.5,0.6
	C63.4,439,63.8,439,64.5,439L64.5,439z M66.5,441.2v-0.8h-1.9v0.8H66.5z M66.5,443.2v-0.8h-1.9v0.8H66.5z M68.5,434.9v-0.7h-2.2v0.7
	H68.5z M68.5,436.9v-0.7h-2.2v0.7H68.5z M70.2,441.2v-0.8h-2v0.8H70.2z M70.2,443.2v-0.8h-2v0.8H70.2z"/>
<path class="st4" d="M87.3,435.8c0.4,0,0.9,0,1.3-0.1c-0.1,0.5-0.1,1-0.1,1.6v1.7c0,0.3,0.1,0.3,0.4,0.3s0.4,0,0.5-0.2
	c0.1-0.5,0.1-0.9,0.1-1.4v-0.2c0-0.1,0-0.2,0-0.3c0.5,0.3,0.9,0.5,1.5,0.6c-0.1,2.6-0.3,2.9-2.1,2.9c-0.5,0.1-1,0-1.5-0.2
	c-0.4-0.2-0.5-0.4-0.5-1v-2.4h-2.6c0,0.3,0,0.7-0.1,1l1-0.7c0.5,0.6,1,1.3,1.5,2l-1.2,0.9c-0.4-0.7-0.8-1.4-1.3-2
	c-0.1,0.8-0.5,1.6-1.1,2.2H84c-0.1,0.4-0.1,0.7-0.1,1.1h4.9c0.7,0,1.3,0,2-0.1v1.8c-0.7-0.1-1.3-0.1-2-0.1h-3.4
	c1.7,1.1,3.7,1.9,5.7,2.2c-0.4,0.6-0.8,1.2-1,1.8c-2.3-0.6-4.5-1.7-6.3-3.3c0,0.2,0,0.6,0.1,1.1v0.8c0,0.5,0,1,0.1,1.5H82
	c0.1-0.5,0.1-1,0.1-1.5v-0.8c0-0.3,0-0.4,0-1.1c-0.8,0.8-1.7,1.4-2.8,1.9c-1,0.6-2.2,1-3.3,1.3c-0.2-0.6-0.6-1.2-1-1.7
	c2-0.3,3.9-1.1,5.7-2.2h-3.1c-0.7,0-1.3,0-2,0.1v-1.8c0.7,0.1,1.3,0.1,2,0.1h4.5v-0.4c-0.4-0.4-0.8-0.8-1.2-1.2
	c0.3-0.2,0.6-0.4,0.9-0.6c-0.9,0.3-1.9,0.6-2.9,0.8c-0.8,0.2-1.3,0.3-2.1,0.5l-0.9,0.2l-0.4-1.7c0.9-0.1,1.8-0.2,2.7-0.3v-1.6h-0.7
	c-0.5,0-0.9,0-1.4,0.1V436l0.5,0c-0.4-0.4-0.8-0.7-1.3-1c1.2-0.9,2.1-2.1,2.6-3.5l1.8,0.3c0,0-0.2,0.4-0.5,1h2.2
	c0.6,0,1.1,0,1.7-0.1v1.4c0.6-0.8,1.1-1.6,1.4-2.6l1.8,0.3c-0.1,0.1-0.2,0.5-0.5,1H89c0.6,0,1.2,0,1.9-0.1v1.7
	c-0.6-0.1-1.2-0.1-1.8-0.1h-1.3c0.2,0.3,0.4,0.6,0.6,0.9l-1.3,0.5L87.3,435.8z M81.8,439.5c0.8-0.7,1.1-1.7,1-2.8c0-0.3,0-0.7-0.1-1
	c0.3,0,0.4,0,0.8,0c-0.4-0.4-0.8-0.7-1.2-1c0.2-0.2,0.3-0.3,0.4-0.4c-0.3,0-0.6,0-1,0h-0.9c0.3,0.4,0.3,0.5,0.6,1.1l-1.6,0.4
	c-0.2-0.5-0.4-1-0.8-1.5h-0.9c-0.4,0.6-0.9,1.2-1.4,1.7c0.3,0,0.4,0,0.7,0h3c0.5,0,0.9,0,1.4-0.1v1.6c-0.4,0-0.8-0.1-1.3-0.1h-0.8
	v1.3c0.7-0.2,1-0.2,1.9-0.5L81.8,439.5z M84,435.8h2.8c-0.2-0.5-0.5-1-0.8-1.5h-1.2c-0.4,0.5-0.8,1-1.2,1.5H84z"/>
<path class="st4" d="M100.7,442c-1,2.2-2.1,3.2-3.4,3.2c-1.9,0-3.3-2-3.3-4.7c0-1.8,0.6-3.6,1.9-5c1.5-1.6,3.6-2.5,5.8-2.4
	c4.1,0,6.7,2.5,6.7,6.3c0.1,2.8-1.6,5.3-4.1,6.3c-0.9,0.3-1.7,0.6-2.7,0.7c-0.2-0.7-0.5-1.4-1-2c1.2-0.1,2.3-0.4,3.4-0.9
	c1.5-0.9,2.4-2.5,2.4-4.3c0.1-1.5-0.8-3-2.1-3.8c-0.5-0.3-1.1-0.5-1.7-0.5C102.3,437.4,101.7,439.8,100.7,442z M98.2,435.9
	c-1.5,1.1-2.3,2.8-2.3,4.6c0,1.4,0.6,2.5,1.3,2.5c0.6,0,1.1-0.7,1.8-2.2c0.7-1.8,1.2-3.8,1.4-5.8C99.6,435.1,98.9,435.4,98.2,435.9z
	"/>
<path class="st4" d="M114.4,440.1c-1.1,0.9-1.6,1.6-1.6,2.3c0,1.1,1.3,1.6,4.1,1.6c1.8,0,3.6-0.2,5.3-0.7l0.2,2.3l-0.7,0.1
	c-1.5,0.3-3.1,0.4-4.6,0.4c-1.4,0.1-2.9-0.1-4.2-0.6c-1.3-0.3-2.2-1.5-2.2-2.8c0-1.3,0.7-2.4,2.2-3.7L114.4,440.1z M111.9,433.1
	c1.7,0.3,3.4,0.5,5.1,0.4c1.5,0,3-0.1,4.5-0.3l0.1,1.9c-1.6,0.8-3.1,1.7-4.5,2.8l-1.5-1.2c0.9-0.6,1.7-1.1,2.5-1.5
	c-0.8,0.1-1.7,0.2-2.6,0.1c-1,0-2.1-0.1-3.1-0.2c-0.2,0-0.4,0-0.6,0L111.9,433.1z M120.4,436.6c0.6,0.6,1.2,1.3,1.6,2.1l-1.2,0.7
	c-0.4-0.8-0.9-1.5-1.6-2.2L120.4,436.6z M122.5,438.4c-0.4-0.8-0.9-1.5-1.5-2.1l1.2-0.7c0.6,0.6,1.1,1.3,1.5,2L122.5,438.4z"/>
<path class="st4" d="M127.2,440.8c0-0.5,0-0.9,0.1-1.9c-0.3,0.6-0.7,1.1-1.1,1.6c-0.2-0.7-0.4-1.4-0.8-2c1.2-1.3,2.1-2.8,2.7-4.5
	c0.3-0.7,0.5-1.5,0.6-2.3l1.9,0.5c-0.1,0.2-0.2,0.5-0.3,0.8c-0.4,1.2-0.8,2.3-1.4,3.4v9.1c0,0.7,0,1.3,0.1,2h-2
	c0.1-0.7,0.1-1.3,0.1-2L127.2,440.8z M141.2,438.2c-1,0.9-2.1,1.8-3.2,2.6c0.8,1.8,2.1,3.3,3.7,4.4c-0.4,0.6-0.8,1.2-1.1,1.9
	c-3.2-2.7-5.1-6.6-5.4-10.8c-0.4,0.8-0.8,1.6-1.4,2.4v6c1.1-0.3,2.3-0.6,3.4-1v1.8c-2.4,0.7-2.4,0.7-6.1,1.6
	c-0.5,0.1-0.6,0.1-0.8,0.2l-0.3-1.9c0.7-0.1,1.3-0.2,2-0.3v-4.2c-0.5,0.6-1.1,1-1.8,1.5c-0.3-0.6-0.7-1.1-1.1-1.6
	c1.8-1.2,3.3-2.8,4.3-4.8h-1.6c-0.6,0-1.2,0-1.8,0.1v-1.9c0.6,0.1,1.2,0.1,1.8,0.1h2.6V433c0-0.4,0-0.8-0.1-1.2h2.1
	c-0.1,0.4-0.1,0.8-0.1,1.2v1.3h3c0.6,0,1.3,0,1.9-0.1v1.9c-0.6-0.1-1.3-0.1-1.9-0.1h-2.5c0.1,1.1,0.3,2.1,0.6,3.1
	c1-0.6,1.8-1.4,2.5-2.3L141.2,438.2z"/>
<path class="st4" d="M151.2,434.9c-0.4,0-0.8,0-1.4,0h-1.4v1.1h1.1c0.5,0,0.9,0,1.4-0.1c0,0.5-0.1,0.9-0.1,1.4v2.3
	c0,0.7,0,1,0.1,1.4c-0.5,0-0.9-0.1-1.4-0.1h-0.8c0.7,0.9,1.6,1.7,2.6,2.3c-0.4,0.5-0.7,1-0.9,1.5l-0.7-0.6c-0.6-0.5-1-1.1-1.5-1.7
	c0,0.8,0.1,1.3,0.1,2v1.1c0,0.6,0,1.2,0.1,1.7h-1.8c0.1-0.6,0.1-1.2,0.1-1.7v-1.1c0-0.6,0-1.1,0-1.8c-0.6,1.2-1.5,2.4-2.6,3.3
	c-0.2-0.6-0.5-1.1-0.9-1.6c1.2-0.9,2.3-2.1,3-3.5h-0.7c-0.5,0-1,0-1.4,0.1c0.1-0.5,0.1-1,0.1-1.5v-2c0-0.5,0-1-0.1-1.5
	c0.5,0.1,1.1,0.1,1.6,0.1h1v-1.1h-1.1c-0.6,0-1.2,0-1.9,0.1v-1.8c0.6,0.1,1.2,0.1,1.9,0.1h1.1c0-0.5,0-1-0.1-1.5h1.8
	c-0.1,0.5-0.1,0.9-0.1,1.4v0.1h1.4c0.4,0,0.9,0,1.3,0v-1.1c0.6,0.1,1.2,0.1,1.8,0.1h4.4c0.6,0,1.2,0,1.8-0.1v1.8
	c-0.6-0.1-1.2-0.1-1.8-0.1h-1.3c-0.2,0.5-0.3,0.9-0.5,1.3h1.3c0.9,0,1.2,0,1.6,0c0,0.5-0.1,1-0.1,1.6v5.6c0,0.7,0,1.3,0.1,1.8
	c-0.6,0-1,0-1.4,0h-0.5c0.8,0.9,1.8,1.7,3,2.1c-0.5,0.4-0.8,0.9-1.1,1.4c-1.2-0.6-2.3-1.5-3.1-2.5l1.1-0.9h-3.1l1.2,1
	c-0.9,1.1-2.1,2-3.5,2.5c-0.3-0.5-0.6-1-1.1-1.4c0.9-0.3,1.7-0.7,2.4-1.3c0.3-0.2,0.5-0.5,0.7-0.8H153c-0.6,0-1,0-1.3,0
	c0-0.5,0-0.8,0-1.5v-5.8c0-0.8,0-1.1-0.1-1.6c0.4,0,0.7,0,1.4,0h0.8c0.2-0.4,0.3-0.8,0.5-1.3h-1.9c-0.4,0-0.8,0-1.2,0L151.2,434.9z
	 M145.9,437.5v1.8h0.9v-1.8H145.9z M148.4,439.4h0.9v-1.8h-0.9V439.4z M153.4,437.6h3.5v-1h-3.5V437.6z M153.4,440h3.5v-1h-3.5V440z
	 M153.4,442.4h3.5v-1h-3.5V442.4z"/>
<path class="st4" d="M161.3,438.5c1,0.4,2,0.6,3,0.6c0.1-0.6,0.2-1.8,0.3-2.4c-0.8-0.1-1.6-0.2-2.4-0.4l-0.6-0.1l0.2-1.9
	c1,0.3,2,0.5,3.1,0.6c0.2-0.9,0.3-1.9,0.3-2.8c0-0.1,0-0.1,0-0.2l2.3,0.2c-0.3,0.9-0.5,1.9-0.5,2.9c1.3,0,2.6-0.1,3.9-0.4l-0.1,2
	l-0.7,0.1c-1.2,0.1-1.8,0.1-2.4,0.1h-1.1c-0.2,1.2-0.2,1.6-0.3,2.4h0.8c1.1,0,2.2-0.1,3.2-0.3l0,2c-0.2,0-0.3,0-0.5,0
	c-0.8,0.1-1.8,0.1-2.5,0.1c-0.3,0-0.4,0-1.1,0c-0.1,0.5-0.1,0.9-0.1,1.2c-0.1,0.7,0.2,1.3,0.6,1.8c0.6,0.5,1.4,0.7,2.1,0.6
	c2.2,0,3.4-1,3.4-2.6c-0.1-1.1-0.6-2.2-1.5-2.9c0.7,0,1.4-0.2,2.1-0.4c0.3,0.3,0.6,0.7,0.8,1.1c0.5,0.8,0.7,1.6,0.7,2.5
	c0,1.3-0.6,2.4-1.6,3.2c-1.1,0.8-2.5,1.2-3.8,1.1c-3.1,0-4.8-1.5-4.8-4.2c0-0.5,0-1,0.1-1.4c-1-0.1-1.7-0.2-2.4-0.4
	c-0.2-0.1-0.4-0.1-0.6-0.1L161.3,438.5z"/>
<path class="st4" d="M186.7,434c1.3,1.4,2,3.4,1.9,5.3c0,4.3-2.5,7.1-6.4,7.1s-6.3-2.8-6.3-7.1c-0.1-2,0.6-3.9,1.9-5.3
	c1.2-1.1,2.7-1.8,4.4-1.7C183.9,432.3,185.5,432.9,186.7,434z M186.2,439.4c0.1-1.5-0.4-2.9-1.4-4c-0.7-0.7-1.6-1-2.6-1
	c-2.4,0-4,1.9-4,5c-0.1,1.5,0.4,2.9,1.4,4c0.7,0.7,1.7,1,2.6,1C184.7,444.4,186.2,442.5,186.2,439.4z"/>
<path class="st4" d="M201.7,444c0.5,0.7,1.1,1.5,1.7,2.2h-3.1c-0.3-0.6-0.7-1.2-1.1-1.8l-3.4-4.8l-1.9,1.9v2.5c0,0.7,0,1.5,0.1,2.2
	h-2.5c0.1-0.7,0.1-1.5,0.1-2.2v-9.1c0-0.7,0-1.5-0.1-2.2h2.5c-0.1,0.7-0.2,1.5-0.1,2.2v4l4.3-4.5c0.5-0.5,1-1,1.3-1.6h3.2
	c-0.5,0.5-1,1-1.8,1.8l-3.6,3.7L201.7,444z"/>
<path class="st3" d="M327.7,336c0-0.8,0-1.6-0.1-2.4c0.8,0.1,1.6,0.1,2.4,0.1h5.5c0.7,0,1.3,0,1.9-0.1c-0.1,0.7-0.1,1.4-0.1,2.2v6.7
	c0,0.8,0,1.5,0.1,2.3h-2.7v-0.9h-4.4v1.3h-2.8c0.1-0.9,0.1-1.8,0.1-2.7V336z M330.3,341.4h4.4v-5.3h-4.4V341.4z M331,324.9
	c0-0.7,0-1.5-0.1-2.2c0.9,0.1,1.9,0.2,2.8,0.1h9.4c1,0,1.9,0,2.8-0.1c-0.1,0.7-0.1,1.5-0.1,2.2v4.6c0,0.8,0,1.5,0.1,2.3
	c-0.9-0.1-1.7-0.1-2.6-0.1h-9.9c-0.9,0-1.7,0-2.6,0.1c0.1-0.8,0.1-1.5,0.1-2.3V324.9z M333.7,329.3h9.5v-4h-9.5V329.3z M347.1,333.6
	c0.7,0,1.5,0,2.2-0.1c-0.1,0.8-0.1,1.6-0.1,2.4v6.5c0,0.9,0,1.8,0.1,2.7h-2.8v-1.3h-4.7v1.3h-2.7c0-0.7,0.1-1.2,0.1-2.2v-7.2
	c0-1.1,0-1.5,0-2c0.6,0,1.1,0.1,1.8,0.1L347.1,333.6z M341.8,341.4h4.8v-5.3h-4.8L341.8,341.4z"/>
<path class="st3" d="M374.2,325.5c0.6,0,1.3,0,1.9-0.1v2.5c-0.6-0.1-1.3-0.1-1.9-0.1h-1.6v2.1c0.5,0,0.6,0,1-0.1
	c-0.1,1.1-0.2,2.2-0.1,3.4v5.1c0,1,0,1.9,0.1,2.9c-0.9-0.1-1.8-0.1-2.7-0.1h-1.8c2.2,1.1,4.7,1.7,7.2,1.8c-0.6,0.8-1,1.6-1.3,2.5
	c-2.9-0.4-5.8-1.3-8.3-2.9l2-1.5h-7.8l2,1.6c-2.5,1.5-5.3,2.4-8.2,2.7c-0.3-0.9-0.8-1.7-1.3-2.5c3.8-0.4,5.1-0.7,7-1.8h-1.5
	c-1.2,0-2,0-2.7,0.1c0.1-1,0.2-2,0.1-3v-5c0-1.2,0-1.5,0-2.4c-0.3,0.6-0.7,1.2-1.2,1.8c-0.6-0.8-1.3-1.5-2.1-2.1
	c1.4-1.5,2-3.2,2-6.5c0-0.2-0.1-0.9-0.1-1.1h0.4c0.3,0,0.5,0,0.5,0c1.5,0,3.1-0.2,4.6-0.4c0.9-0.2,1.7-0.4,2.5-0.8l1.5,2.1
	c-2.2,0.6-4.6,1-6.9,1c0,0.2,0,0.5,0,0.8h5c0.6,0,1.2,0,1.8-0.1v2.4c-0.6-0.1-1.2-0.1-1.8-0.1H362v2.2h3.2c-0.4-0.4-0.8-0.7-1.2-1
	c1-1.3,1.5-2.8,1.5-5.2c0-0.3,0-0.6-0.1-0.9c0.3,0,0.5,0.1,0.8,0c0.8,0,3.1-0.2,4.1-0.3c1.2-0.2,2.4-0.4,3.5-0.8l1.6,2.1
	c-2.4,0.6-4.9,0.9-7.3,1c0,0.4,0,0.6,0,0.8L374.2,325.5z M359.5,329.9v-2.1h-2.1c-0.1,0.7-0.3,1.4-0.7,2.1c0.8,0,1.3,0,2.2,0
	L359.5,329.9z M359.1,333h11.7V332h-11.7L359.1,333z M359.1,335.9h11.7v-1h-11.7L359.1,335.9z M359.1,338.9h11.7v-1.1h-11.7
	L359.1,338.9z M367.6,327.8c-0.2,0.8-0.5,1.5-0.9,2.2h3.3v-2.2H367.6z"/>
<path class="st4" d="M260.8,416.5c-0.3,1.2-1,2.2-2,2.9c-1,0.6-2.1,1-3.2,1.2c-0.3-0.6-0.7-1.2-1.1-1.8c2.5-0.3,3.7-1,4.3-2.3h-2.3
	c-0.7,0-1.3,0-2,0.1v-2c0.7,0.1,1.3,0.1,2,0.1h2.7c0-0.1,0-0.2,0-0.4c0-0.3,0-0.7-0.1-1h2.1c0,0.2,0,0.4,0,0.6c0,0.2,0,0.3-0.1,0.8
	h3.6c0-0.5,0-1-0.1-1.4h2.2c-0.1,0.5-0.1,1-0.1,1.4h2.2c0.7,0,1.3,0,2-0.1v2c-0.7-0.1-1.3-0.1-2-0.1h-2.2v2.1c0,0.6,0,1.2,0.1,1.8
	h-2.2c0.1-0.6,0.1-1.2,0.1-1.8v-2.1L260.8,416.5z M271,407.4c-0.4-0.1-0.8-0.1-1.2-0.1c-0.3,1.2-0.8,2.2-1.6,3.2
	c0.9,0.6,1.9,1.1,3,1.4c-0.3,0.6-0.6,1.3-0.8,1.9c-1.3-0.4-2.5-1.1-3.5-2c-0.9,0.7-2,1.3-3.2,1.7c-0.2-0.5-0.4-0.9-0.7-1.3
	c-0.2,0.7-0.6,0.9-2.1,0.9c-0.1,0-0.3,0-0.5,0c0-0.4-0.1-0.9-0.3-1.3c0.3,0.1,0.6,0.1,0.9,0.1c0.4,0,0.5-0.1,0.5-0.4v-0.6l-1,0.5
	c-0.1-0.7-0.4-1.4-0.7-2v2.4c0,0.4,0,0.9,0.1,1.3h-1.6c0.1-0.4,0.1-0.9,0.1-1.3v-3.4h-1.8v2.7c0.3-0.7,0.5-1.4,0.7-2.2l1.1,0.4
	c-0.2,1-0.5,2-1,3l-0.8-0.5c0,0.5,0,1,0.1,1.5h-1.9c0.1-0.6,0.1-1.1,0.1-1.7v-3.5c0-0.5,0-1-0.1-1.5c0.4,0.1,0.8,0.1,1.2,0.1
	c-0.3-0.8-0.7-1.6-1.2-2.3l1.5-0.6c0.5,0.7,1,1.4,1.3,2.2l-1.5,0.6h2v-1.3c0-0.6,0-1.1-0.1-1.7h2c-0.1,0.5-0.1,1.1-0.1,1.6v1.3h1.9
	l-1.5-0.6c0.5-0.7,0.9-1.5,1.1-2.4l1.6,0.6c-0.3,0.8-0.7,1.6-1.2,2.4c0.4,0,0.8,0,1.2-0.1c0,0.4-0.1,0.9,0,1.3
	c1.1-1.2,1.9-2.7,2.3-4.3l1.8,0.4c-0.1,0.3-0.1,0.3-0.4,1c-0.1,0.2-0.1,0.2-0.2,0.5h2.7c0.6,0,1.2,0,1.8-0.1L271,407.4z
	 M260.8,408.8c0.3,0.6,0.6,1.2,0.7,1.9v-2.4h-1.7v1L260.8,408.8z M263.1,411.8c0.9-0.3,1.8-0.7,2.5-1.3c-0.4-0.5-0.8-1.1-1-1.6
	c-0.3,0.3-0.4,0.5-0.8,0.9c-0.2-0.4-0.4-0.8-0.7-1.2L263.1,411.8L263.1,411.8z M265.6,407.4c0.3,0.7,0.7,1.3,1.3,1.9
	c0.5-0.6,0.9-1.3,1.1-2h-2.3L265.6,407.4z"/>
<path class="st4" d="M278.2,418.5c0,0.6,0,1.2,0.1,1.8h-2.2c0.1-0.6,0.1-1.3,0.1-1.9v-4.5c-0.6,0.6-1.3,1.1-2,1.5
	c-0.2-0.7-0.5-1.3-0.9-1.9c1.2-0.6,2.2-1.5,3.1-2.4c0.8-0.8,1.5-1.7,2-2.8h-2.9c-0.5,0-1,0-1.5,0.1v-2c0.5,0.1,0.9,0.1,1.4,0.1h0.9
	V405c0-0.5,0-0.9-0.1-1.4h2.2c-0.1,0.5-0.1,0.9-0.1,1.4v1.5h0.7c0.3,0,0.7,0,1,0l0.9,0.9c-0.2,0.2-0.3,0.5-0.4,0.8
	c-0.5,1.1-1.1,2.1-1.8,3.1c0.8,0.9,1.8,1.7,2.9,2.3c-0.4,0.5-0.7,1.1-1,1.8c-0.9-0.5-1.7-1.2-2.3-2L278.2,418.5z M285.8,417.6h2.2
	c0.7,0,1.4,0,2-0.1v2.2c-0.7-0.1-1.4-0.1-2-0.1h-6.1c-0.7,0-1.3,0-2,0.1v-2.2c0.7,0.1,1.4,0.1,2.1,0.1h2v-7h-1.3
	c-0.6,0-1.2,0-1.8,0.1v-2c0.6,0.1,1.2,0.1,1.8,0.1h1.3v-3.2c0-0.6,0-1.3-0.1-1.9h2.3c-0.1,0.6-0.1,1.2-0.1,1.9v3.1h1.9
	c0.6,0,1.2,0,1.8-0.1v2c-0.6,0-1.1-0.1-1.8-0.1h-1.9L285.8,417.6z"/>
<path class="st4" d="M294.7,404c0.2,0.3,0.4,0.6,0.6,0.9c0.3,0.3,0.5,0.7,0.7,1.1c0.7-0.6,1.3-1.4,1.7-2.2l1.6,1.2l-0.4,0.5
	c-0.6,0.8-1.3,1.5-2,2.2c0.2,0.7,0.4,1.5,0.6,2.2c0.3,1.6,0.4,3.3,0.4,5c0,2.6-0.3,4.1-0.9,4.8c-0.5,0.4-1.1,0.7-1.8,0.6
	c-0.5,0-1.1-0.1-1.6-0.2c0-0.7-0.1-1.4-0.3-2c0.6,0.2,1.1,0.3,1.7,0.3c0.4,0,0.7-0.2,0.8-0.6c0.3-1.1,0.4-2.3,0.3-3.4
	c0-0.3,0-0.7,0-1.3c-0.8,1-1.7,1.9-2.7,2.7c-0.2-0.6-0.5-1.2-0.9-1.8c1.3-0.9,2.5-2,3.4-3.4c-0.1-0.6-0.2-1.2-0.4-1.8
	c-0.7,0.5-1.4,1-2.1,1.4c-0.2-0.6-0.5-1.2-0.9-1.8c0.8-0.4,1.6-0.9,2.3-1.4c-0.4-0.8-0.9-1.5-1.5-2.1L294.7,404z M302.5,405.7
	c0-0.6,0-1.2-0.1-1.8h2.1c-0.1,0.6-0.1,1.2-0.1,1.8v1.2h2.3c0.6,0,1.2,0,1.8-0.1c0,0.6-0.1,1-0.1,1.9v3.6c0,0.6,0,1.3,0.1,1.9
	c-0.6-0.1-1.2-0.1-1.8-0.1h-2.3v3.2h0.5c0.7-0.1,0.8-0.1,1.8-0.3c-0.2-0.6-0.5-1.2-0.8-1.8l1.7-0.5c0.8,1.5,1.5,3.2,1.9,4.8
	l-1.8,0.8c-0.1-0.6-0.2-1.1-0.4-1.6c-1.6,0.4-4.6,0.8-7.6,1.1c-0.4,0-0.7,0.1-1.1,0.2l-0.4-2.1c0.2,0,0.4,0,0.5,0
	c1.3,0,2.6-0.1,3.9-0.3v-3.4h-2c-0.6,0-1.2,0-1.8,0.1c0-0.6,0.1-1.1,0.1-1.9v-3.6c0-0.7,0-1.3-0.1-2c0.6,0.1,1.2,0.1,1.8,0.1h2
	V405.7z M300.5,408.7v3.7h2v-3.7H300.5z M306.5,412.4v-3.7h-2.2v3.7H306.5z"/>
<path class="st4" d="M317.8,405.9c0.4-0.8,0.7-1.5,0.8-2.4l2.3,0.2c-0.3,0.9-0.6,1.5-0.9,2.2h4.2c0.7,0,1.5,0,2.2-0.1
	c-0.1,0.7-0.1,1.5-0.1,2.2v10.1c0,0.7,0,1.4,0.1,2.1h-2.1v-0.9h-8.9v0.9h-2c0.1-0.7,0.1-1.4,0.1-2.1V408c0-0.7,0-1.5-0.1-2.2
	c0.7,0.1,1.5,0.1,2.2,0.1H317.8z M315.5,409.8h8.9v-2h-8.9V409.8z M315.5,413.5h8.9v-2.1h-8.9V413.5z M315.5,417.4h8.9v-2.2h-8.9
	V417.4z"/>
<path class="st4" d="M337.8,414.6c-1,2.3-2.2,3.4-3.6,3.4c-2.1,0-3.5-2.1-3.5-5c0-1.9,0.7-3.8,2-5.2c1.6-1.7,3.9-2.6,6.2-2.5
	c4.3,0,7.1,2.6,7.1,6.7c0.1,2.9-1.6,5.6-4.4,6.7c-0.9,0.4-1.9,0.6-2.8,0.8c-0.2-0.8-0.6-1.5-1.1-2.1c1.2-0.1,2.5-0.4,3.6-1
	c1.6-0.9,2.6-2.7,2.5-4.5c0-1.6-0.8-3.2-2.2-4c-0.6-0.3-1.2-0.5-1.8-0.5C339.4,409.8,338.8,412.3,337.8,414.6z M335.2,408.2
	c-1.5,1.1-2.5,2.9-2.5,4.9c0,1.5,0.6,2.6,1.4,2.6c0.6,0,1.2-0.8,1.8-2.3c0.8-2,1.3-4,1.5-6.1C336.6,407.4,335.8,407.7,335.2,408.2
	L335.2,408.2z"/>
<path class="st4" d="M354.3,404.9c-0.1,1.3-0.2,2.7-0.2,4c-0.1,3.5-0.5,5.5-1.5,7.4c-0.6,1.3-1.5,2.4-2.5,3.3
	c-0.5-0.7-1.1-1.3-1.8-1.7c0.7-0.6,1.4-1.3,1.8-2.1c1.3-2.1,1.7-4.4,1.7-9.4c0-0.5,0-1.1-0.1-1.6L354.3,404.9z M359,404.6
	c-0.1,0.6-0.1,1.1-0.1,1.7l-0.1,10.3c1.1-0.5,2-1.2,2.8-2.1c0.8-1,1.4-2.1,1.8-3.3c0.5,0.7,1,1.2,1.7,1.7c-0.6,1.6-1.6,3-2.9,4.2
	c-1.1,1-2.4,1.7-3.8,2.2c-0.3,0.1-0.5,0.2-0.8,0.3l-1.1-1.2c0.1-0.6,0.2-1.3,0.2-1.9l0.1-10.2v-0.6c0-0.4,0-0.8-0.1-1.2L359,404.6z"
	/>
<path class="st4" d="M367.3,410.7c1,0.1,1.9,0.2,2.9,0.1h9.6c1,0,1.9,0,2.9-0.1v2.5c-1-0.1-2-0.1-2.9-0.1h-9.6c-1,0-2,0-2.9,0.1
	V410.7z"/>
<path class="st4" d="M391,404.9c-0.1,1.3-0.2,2.7-0.2,4c-0.1,3.5-0.5,5.5-1.5,7.4c-0.6,1.3-1.5,2.4-2.5,3.3
	c-0.5-0.7-1.1-1.3-1.8-1.7c0.7-0.6,1.4-1.3,1.9-2.1c1.3-2.1,1.7-4.4,1.7-9.4c0-0.5,0-1.1-0.1-1.6L391,404.9z M395.8,404.6
	c-0.1,0.6-0.1,1.1-0.1,1.7l-0.1,10.3c1.1-0.5,2-1.2,2.8-2.1c0.8-1,1.4-2.1,1.8-3.3c0.5,0.7,1,1.2,1.7,1.7c-0.6,1.6-1.6,3-2.9,4.2
	c-1.1,1-2.4,1.7-3.8,2.2c-0.3,0.1-0.5,0.2-0.8,0.3l-1.1-1.2c0.1-0.6,0.2-1.3,0.2-1.9l0.1-10.2v-0.6c0-0.4,0-0.8-0.1-1.2L395.8,404.6
	z"/>
<path class="st4" d="M404.6,419.4c0-0.3,0-0.4-0.1-0.9c-0.3-1.8-0.5-3.6-0.5-5.4c0-2.4,0.3-4.7,0.7-7c0.1-0.5,0.2-1.1,0.3-1.7
	l2.4,0.3c-0.6,1.7-1,3.6-1.1,5.4c-0.2,1.3-0.3,2.7-0.3,4c0,0.4,0,0.5,0,1c0.3-0.8,0.6-1.6,0.9-2.4l1.4,0.6c-0.9,1.7-1.4,3.6-1.6,5.5
	c0,0.1,0,0.3,0,0.5L404.6,419.4z M412.2,412.3c-0.7,0.7-1.2,1.6-1.3,2.6c0,1,1,1.6,2.9,1.6c1.5,0,2.9-0.2,4.3-0.7l0.2,2.3
	c-0.2,0-0.5,0.1-0.7,0.1c-1.2,0.2-2.5,0.3-3.7,0.3c-2.2,0-3.7-0.5-4.5-1.6c-0.4-0.5-0.5-1.1-0.5-1.8c0.1-1.4,0.7-2.7,1.7-3.7
	L412.2,412.3z M409.2,406.3c1.1,0.2,2.2,0.3,3.3,0.3c1.6,0,3.3-0.1,4.9-0.5l0.1,2.2l-1.3,0.2c-1.3,0.2-2.6,0.2-3.8,0.2
	c-1.1,0-2.2-0.1-3.3-0.2L409.2,406.3z"/>
<path class="st4" d="M429,404c-0.1,0.9-0.1,1.9-0.1,2.8c0,0.3,0,0.3,0,1.2c1.8,0,3.6-0.2,5.3-0.6l0.2,2.2c-0.4,0-0.4,0-1.2,0.1
	c-1.4,0.2-2.8,0.3-4.2,0.3c0,1.4,0.1,2.2,0.2,4c1,0.3,1.9,0.7,2.8,1.2c0.8,0.5,1.6,1,2.3,1.5c0.2,0.2,0.3,0.2,0.5,0.4l-1.4,2
	c-0.4-0.4-0.8-0.8-1.3-1.2c-0.7-0.6-1.5-1.1-2.4-1.5c-0.2-0.1-0.4-0.2-0.6-0.3c0,0.2,0,0.4,0,0.6c0,2-1.4,3.1-4.1,3.1
	c-1.8,0-3.1-0.5-3.8-1.5c-0.3-0.5-0.4-1-0.5-1.6c0-1.9,1.9-3.2,4.4-3.2c0.6,0,1.1,0,1.7,0.2c0-0.1,0-0.1,0-0.2
	c-0.1-0.6-0.2-5.6-0.3-7.8c0-0.5,0-1.1-0.1-1.6L429,404z M425.3,415.3c-1.3,0-2.3,0.5-2.3,1.3c0,0.4,0.2,0.8,0.6,0.9
	c0.4,0.2,0.9,0.3,1.3,0.3c0.6,0,1.2-0.1,1.6-0.5c0.3-0.3,0.4-0.6,0.4-1c0-0.3,0-0.8,0-0.8C426.5,415.4,425.9,415.3,425.3,415.3z"/>
<path class="st4" d="M443,411.4c1.2-0.6,2.5-0.8,3.8-0.8c3.1,0,5.1,1.6,5.1,4c0,1.7-0.9,3.2-2.5,4c-1.3,0.7-2.8,1-4.4,1
	c-1.2,0.1-2.4-0.2-3.5-0.8c-0.7-0.5-1.1-1.2-1.1-2.1c0-1.5,1.3-2.6,3.1-2.6c1.2,0,2.4,0.5,3.1,1.5c0.4,0.5,0.7,1,0.8,1.6
	c1.5-0.6,2.1-1.3,2.1-2.6s-1.4-2.3-3.6-2.3c-2.8,0-5.4,1.1-7.4,3l-1.2-2c0.9-0.5,1.7-1,2.5-1.7c1.9-1.4,3.7-3,5.4-4.7l0.3-0.3l0,0
	c-0.7,0.1-1.8,0.2-5.1,0.3c-0.3,0-0.6,0-0.9,0.1l-0.1-2.2c0.7,0.1,1.4,0.1,2.1,0.1c1.5,0,3.7-0.1,5.5-0.2c0.4,0,0.8-0.1,1.1-0.2
	l1.1,1.6c-0.3,0.2-0.7,0.4-0.9,0.7c-0.9,0.8-2.2,2-2.8,2.5c-0.3,0.3-1.6,1.2-2,1.5C443.4,411,443.2,411.2,443,411.4L443,411.4z
	 M443.5,415.9c-0.7,0-1.1,0.3-1.1,0.8c0,0.7,0.8,1.1,2.2,1.1c0.3,0,0.6,0,0.9-0.1C445.2,416.5,444.5,415.9,443.5,415.9L443.5,415.9z
	"/>
<path class="st4" d="M291.5,439.9c-0.5,1.5-1.2,2.8-2.3,4c1.9,0.8,3.7,1.7,5.5,2.6l-1.5,1.7c-1.8-1.2-3.6-2.2-5.5-3
	c-1.9,1.5-4.1,2.3-7.8,3c-0.3-0.7-0.6-1.3-1-1.9c2.4-0.1,4.7-0.8,6.7-1.9c-1.6-0.6-3.2-1.1-4.8-1.5c0.8-0.9,1.5-1.9,2.2-3h-2.1
	c-0.7,0-1.3,0-2,0.1v-2c0.7,0.1,1.3,0.1,2,0.1h3.1c0.5-0.8,0.8-1.7,1.1-2.5l2.2,0.3l-0.4,0.8l-0.7,1.5h6.8c0.7,0,1.3,0,2-0.1v2
	c-0.7-0.1-1.3-0.1-2-0.1L291.5,439.9z M285.8,433.1c0-0.5,0-0.9-0.1-1.4h2.2c-0.1,0.4-0.1,0.9-0.1,1.4v0.3h4.9c0.7,0,1.4,0,2.1-0.1
	c-0.1,0.5-0.1,0.9-0.1,1.4v1.3c0,0.4,0,0.9,0.1,1.3h-2v-2.2h-11.6v2.2h-2c0.1-0.4,0.1-0.9,0.1-1.3v-1.3c0-0.5,0-0.9-0.1-1.4
	c0.7,0.1,1.4,0.1,2.1,0.1h4.6V433.1z M285.3,439.9c-0.4,0.7-0.9,1.5-1.4,2.1c1.8,0.5,2.2,0.6,3.5,1.1c1-0.9,1.7-2,2.1-3.3
	L285.3,439.9z"/>
<path class="st4" d="M305.3,438.7h-2.6c-0.6,0-1.2,0-1.8,0.1v-1.9c0.6,0.1,1.2,0.1,1.8,0.1h6.9c0.6,0,1.2,0,1.9-0.1v1.9
	c-0.6-0.1-1.2-0.1-1.9-0.1h-2.4v2.3h3.4c0.6,0,1.2,0,1.8-0.1v1.9c-0.6-0.1-1.2-0.1-1.8-0.1h-3.4v3.1c1,0.1,2,0.2,2.9,0.2
	c1,0,2.3-0.1,4.1-0.2c-0.3,0.6-0.4,1.3-0.5,2c-1.5,0-2.4,0.1-3.8,0.1c-4.2,0-6.6-0.9-8-3.1c-0.6,1.3-1.5,2.5-2.5,3.5
	c-0.4-0.6-0.9-1.1-1.5-1.4c1.5-1.4,2.6-3.1,3.1-5.1c0.2-0.6,0.3-1.3,0.4-2l2,0.4c-0.1,0.3-0.1,0.3-0.3,1.1c-0.1,0.4-0.2,0.8-0.5,1.6
	c0.6,1.1,1.5,2,2.7,2.5V438.7z M305,432.9c0-0.4,0-0.8-0.1-1.1h2.2c-0.1,0.4-0.1,0.8-0.1,1.1v0.7h4.9c0.7,0,1.3,0,2-0.1
	c0,0.4-0.1,0.9-0.1,1.3v1.4c0,0.5,0,0.9,0.1,1.4h-2v-2.3h-11.6v2.3h-2c0.1-0.5,0.1-0.9,0.1-1.4v-1.4c0-0.5,0-0.9-0.1-1.3
	c0.7,0.1,1.3,0.1,2,0.1h4.7L305,432.9z"/>
<path class="st4" d="M322.3,432.5c-0.1,0.8-0.2,1.6-0.2,2.4c-0.1,1.7-0.2,5.3-0.2,6.6c0,1.7,0.1,2.4,0.5,2.9c0.6,0.7,1.5,1,2.4,0.9
	c2,0,3.7-1.2,4.4-3.1c0.4-1,0.7-2,0.8-3c0.6,0.6,1.4,1,2.2,1.4c-0.7,2.4-1.3,3.6-2.1,4.6c-1.4,1.5-3.4,2.4-5.4,2.3
	c-1.1,0-2.2-0.2-3.1-0.8c-1.2-0.8-1.8-2.2-1.8-4.6c0-0.9,0-2.7,0.1-7.3c0-0.5,0-0.9,0-1.2c0-0.4,0-0.8-0.1-1.2H322.3z"/>
<path class="st4" d="M336.9,434.9c0.8,0.1,1.6,0.2,2.4,0.2h0.8c0.2-0.9,0.3-1.8,0.3-2.8c0-0.1,0-0.2,0-0.3l2.4,0.2
	c-0.2,0.6-0.3,1.1-0.3,1.7c-0.1,0.5-0.1,0.6-0.2,1c1-0.1,2.1-0.3,3.1-0.5l0.1,2.1l-0.6,0.1c-1,0.2-2,0.3-3,0.4
	c-0.2,1.1-0.7,3-1.1,4.7c-0.6,2-1.2,4-2,6l-2.3-0.9c1.5-3.1,2.6-6.4,3.2-9.7h-1.9c-0.3,0-0.6,0-0.7,0c-0.1,0-0.2,0-0.3,0
	L336.9,434.9z M345.8,441.9c-0.6,0.5-0.9,1.2-0.9,2c0,0.9,0.9,1.4,2.7,1.4c1.4,0,2.8-0.2,4.1-0.7l0.2,2.2c-0.3,0-0.5,0-0.9,0.1
	c-1.1,0.2-2.2,0.3-3.3,0.3c-1.2,0.1-2.5-0.2-3.6-0.7c-0.8-0.5-1.3-1.3-1.3-2.2c0.1-1.2,0.5-2.3,1.3-3.1L345.8,441.9z M351.2,439.5
	c-0.8-0.1-1.5-0.1-2.3-0.1c-1.6,0-3.2,0.1-4.8,0.5l-0.2-2c1.8-0.4,3.6-0.6,5.4-0.6h1.8L351.2,439.5z"/>
<path class="st4" d="M355.1,438.6c0.5,0.1,1,0.1,1.4,0.1h1.3c0.5,0,0.9,0,1.4-0.1c-0.1,0.7-0.1,1.3-0.1,2v4c0.4,0.7,1,1.2,1.8,1.4
	c1.4,0.3,2.8,0.3,4.1,0.3c2.3,0,4.5-0.1,6.8-0.3c-0.3,0.6-0.4,1.3-0.5,1.9c-2.4,0.1-3.9,0.1-6,0.1c-1.1,0-2.6,0-3.3-0.1
	c-1.5,0-2.9-0.7-3.8-1.9c-0.6,0.6-1.3,1.2-2.1,1.7c-0.2,0.1-0.3,0.3-0.5,0.4l-0.9-2c0.9-0.5,1.8-1.1,2.6-1.8v-3.9h-1
	c-0.4,0-0.8,0-1.2,0.1L355.1,438.6z M356.6,431.9c1,1,1.9,2,2.7,3.2l-1.4,1.5c-0.7-1.3-1.7-2.4-2.7-3.4L356.6,431.9z M362,436.2
	c-0.4,0-0.9,0-1.3,0.1v-0.6h-1.2c0.1-0.4,0.1-0.7,0.1-1.1v-1.1c0-0.4,0-0.8-0.1-1.2c0.6,0.1,1.2,0.1,1.8,0.1h8.4
	c0.7,0,1.1,0,1.7-0.1c-0.1,0.4-0.1,0.8-0.1,1.1v1.1c0,0.4,0,0.8,0.1,1.2h-1.3v0.6c-0.4-0.1-0.9-0.1-1.3-0.1h-2.5v0.8h2.8
	c0.5,0,1,0,1.5,0c-0.1,0.4-0.1,0.9-0.1,1.3v2.7c0,0.4,0,0.9,0.1,1.3c-0.6,0-0.9-0.1-1.5-0.1h-2.7v0.8h3.6c0.5,0,1,0,1.5-0.1v1.7
	c-0.5-0.1-1-0.1-1.5-0.1h-3.6c0,0.4,0,0.9,0.1,1.3h-2c0.1-0.4,0.1-0.9,0.1-1.3h-3.3c-0.5,0-1,0-1.4,0.1V443c0.5,0.1,1,0.1,1.4,0.1
	h3.4v-0.8h-2.6c-0.5,0-1,0-1.4,0.1c0-0.4,0.1-0.9,0-1.3v-2.7c0-0.4,0-0.9,0-1.3c0.5,0,1,0,1.4,0h2.5v-0.8H362z M364.4,433.8h-3v0.9
	h3V433.8z M362.2,438.2v0.8h2.2v-0.8H362.2z M362.2,440.2v0.8h2.2v-0.8H362.2z M368.9,434.8h0.5v-0.9h-3.2v0.9L368.9,434.8z
	 M366.2,439.1h2.4v-0.8h-2.4V439.1z M366.2,441h2.4v-0.8h-2.4V441z"/>
<path class="st4" d="M377.5,442.6c-0.1,2-0.8,4-1.8,5.7c-0.5-0.5-1.1-1-1.8-1.4c0.6-0.9,1.1-1.9,1.3-3c0.2-0.9,0.3-1.8,0.4-2.8
	c0.1-1.5,0.2-4.1,0.2-6.2c0-0.9,0-1.7-0.1-2.6c0.6,0,1.1,0.1,2.1,0.1h10.1c1,0,1.5,0,2.1-0.1c-0.1,0.7-0.1,1.3-0.1,2v11.8
	c0,1.5-0.5,1.9-2.6,1.9c-0.5,0-1.5,0-2-0.1c-0.1-0.6-0.3-1.3-0.5-1.9c0.9,0.1,1.7,0.1,2.3,0.1c0.7,0,0.9-0.1,0.9-0.5v-3.2h-4.3v3
	c0,0.7,0,1.4,0.1,2.1h-2.1c0.1-0.7,0.1-1.4,0.1-2.1v-3L377.5,442.6z M381.6,438.4h-4c0,0.5,0,0.9,0,1.1c0,0.9,0,1,0,1.3h4V438.4z
	 M381.6,434.3h-3.9v1.9v0.5h3.9L381.6,434.3z M387.8,436.6v-2.4h-4.3v2.4H387.8z M387.8,440.9v-2.5h-4.3v2.5H387.8z"/>
<path class="st4" d="M393.7,441.8c0-0.6,0-1.2-0.1-1.7c0.5,0,1,0.1,1.8,0.1h3.9c0.5,0,0.9,0,1.4,0c-0.1,0.5-0.1,1,0,1.6v4.8
	c0,0.5,0,1.1,0.1,1.6h-1.9v-0.6h-3.1v0.9h-2c0.1-0.7,0.1-1.3,0.1-2L393.7,441.8z M395.6,445.7h3.2v-3.8h-3.2L395.6,445.7z
	 M396.1,433.8c0-0.5,0-1.1-0.1-1.6c0.7,0.1,1.3,0.1,2,0.1h6.8c0.7,0,1.4,0,2-0.1c-0.1,0.5-0.1,1-0.1,1.5v3.3c0,0.6,0,1.1,0.1,1.7
	c-0.6-0.1-1.2-0.1-1.9-0.1h-7.1c-0.6,0-1.2,0-1.9,0.1c0.1-0.5,0.1-1.1,0.1-1.6V433.8z M398,437h6.9v-2.9H398V437z M407.7,440.1
	c0.5,0,1.1,0,1.6-0.1c-0.1,0.6-0.1,1.2-0.1,1.7v4.6c0,0.6,0,1.3,0.1,1.9h-2v-0.9h-3.4v0.9H402c0-0.5,0-0.9,0-1.6v-5.2
	c0-0.5,0-1,0-1.5c0.4,0,0.8,0,1.3,0H407.7z M403.9,445.7h3.4v-3.8h-3.4V445.7z"/>
<path class="st4" d="M427.2,434.2c0.5,0,0.9,0,1.4-0.1v1.8c-0.5-0.1-0.9-0.1-1.4-0.1H426v1.5h0.7c-0.1,0.8-0.1,1.6-0.1,2.4v3.7
	c0,0.7,0,1.4,0.1,2c-0.5,0-1.1-0.1-1.9-0.1h-1.3c1.6,0.8,3.4,1.2,5.2,1.3c-0.4,0.6-0.7,1.2-0.9,1.8c-2.1-0.3-4.2-1-6-2.1l1.5-1.1
	h-5.6l1.5,1.1c-1.8,1.1-3.8,1.7-5.9,2c-0.2-0.7-0.6-1.3-1-1.8c2.7-0.3,3.7-0.5,5-1.3h-1c-0.9,0-1.4,0-1.9,0.1
	c0.1-0.7,0.1-1.4,0.1-2.1v-3.7c0-0.9,0-1.1,0-1.8c-0.2,0.5-0.5,0.9-0.9,1.3c-0.4-0.6-0.9-1.1-1.5-1.5c1-1.1,1.4-2.3,1.4-4.6
	c0-0.3,0-0.6-0.1-0.8h0.3h0.4c1.1,0,2.2-0.1,3.3-0.3c0.6-0.1,1.2-0.3,1.8-0.5l1.1,1.5c-1.6,0.5-3.3,0.7-5,0.7c0,0.2,0,0.4,0,0.5h3.6
	c0.4,0,0.9,0,1.3-0.1v1.8c-0.4-0.1-0.9-0.1-1.3-0.1h-0.5v1.6h2.3c-0.3-0.3-0.6-0.5-0.9-0.7c0.8-1.1,1.2-2.4,1-3.8
	c0-0.2,0-0.4-0.1-0.6c0.2,0,0.4,0,0.6,0c0.6,0,2.3-0.1,3-0.2c0.9-0.1,1.7-0.3,2.5-0.6l1.2,1.5c-1.7,0.4-3.5,0.6-5.3,0.7
	c0,0.3,0,0.4,0,0.6L427.2,434.2z M416.6,437.4v-1.6h-1.5c-0.1,0.5-0.2,1-0.5,1.5c0.6,0,0.9,0,1.5,0L416.6,437.4z M416.3,439.6h8.5
	v-0.8h-8.5L416.3,439.6z M416.3,441.7h8.5V441h-8.5L416.3,441.7z M416.3,443.9h8.5v-0.8h-8.5L416.3,443.9z M422.5,435.9
	c-0.1,0.5-0.4,1.1-0.6,1.6h2.4v-1.7L422.5,435.9z"/>
</svg>
