<?xml version="1.0" encoding="utf-8"?>
<!-- Generator: Adobe Illustrator 24.2.1, SVG Export Plug-In . SVG Version: 6.00 Build 0)  -->
<svg version="1.1" id="レイヤー_1" xmlns="http://www.w3.org/2000/svg" xmlns:xlink="http://www.w3.org/1999/xlink" x="0px"
	 y="0px" viewBox="0 0 360 230" style="enable-background:new 0 0 360 230;" xml:space="preserve">
<style type="text/css">
	.st0{opacity:0.5;fill:#CCD2D6;}
	.st1{enable-background:new    ;}
	.st2{fill:#1F1F1E;}
	.st3{fill:#242423;}
	.st4{clip-path:url(#XMLID_2_);}
	.st5{fill:#BFDCF5;}
	.st6{fill:#33636B;}
	.st7{fill:#3B737D;}
	.st8{fill:#FFFFFF;stroke:#BFDCF5;stroke-miterlimit:10;}
	.st9{clip-path:url(#XMLID_3_);enable-background:new    ;}
	.st10{fill:#D6D6D6;}
	.st11{clip-path:url(#XMLID_4_);enable-background:new    ;}
	.st12{fill:#FFFFFF;}
	.st13{fill:#69A6FF;}
	.st14{fill:#48D9A5;}
	.st15{fill:#DFE9F2;}
	.st16{font-family:'Lato-Bold';}
	.st17{font-size:32.2146px;}
	.st18{letter-spacing:1.253;}
	.st19{clip-path:url(#XMLID_5_);}
	.st20{clip-path:url(#XMLID_6_);enable-background:new    ;}
	.st21{clip-path:url(#XMLID_7_);enable-background:new    ;}
	.st22{fill:#FFC010;}
	.st23{fill:#573847;}
	.st24{fill:#A4C4F5;}
	.st25{fill:#F2DBCC;}
	.st26{fill:#F7F6FB;}
	.st27{fill:#CAD2D8;}
	.st28{fill:#D1860D;}
	.st29{fill:#FCAD1D;}
	.st30{fill:#EFDECB;}
	.st31{fill:#717290;}
	.st32{fill:#300800;}
	.st33{fill:#00346E;}
	.st34{fill:#FBE867;}
	.st35{fill:#DD435D;}
	.st36{fill:#FF5F7A;}
	.st37{fill:#DBAC13;}
	.st38{fill:#FFC757;}
	.st39{fill:#40B284;}
	.st40{fill:#7CD8B4;}
	.st41{fill:#7F466B;}
	.st42{fill:#B864EB;}
	.st43{fill:#3F60BC;}
	.st44{fill:#654F5C;}
</style>
<path class="st0" d="M167.041,181.277L90.109,168.68c-1.385-0.235-7.48-3.701-6.932-6.929l0,0c0.548-3.228,2.13-5.677,3.515-5.442
	l89.562,14.472c1.385,0.235,2.069,3.069,1.521,6.297v0C177.227,180.306,171.854,181.862,167.041,181.277z"/>
<path class="st0" d="M275.555,200.978l-76.933-12.598c-1.385-0.235-7.48-3.701-6.932-6.929l0,0c0.548-3.228,2.13-5.677,3.515-5.442
	l89.562,14.472c1.385,0.235,2.069,3.069,1.521,6.297v0C285.74,200.006,280.367,201.562,275.555,200.978z"/>
<g id="XMLID_2184_" class="st1">
	<g id="XMLID_2230_">
		<polygon id="XMLID_2231_" class="st2" points="94.582,31.836 103.32,28.003 103.116,137.508 94.379,141.341 		"/>
	</g>
	<g id="XMLID_2228_">
		<polygon id="XMLID_2229_" class="st3" points="94.379,141.341 103.116,137.508 173.007,149.871 164.27,153.703 		"/>
	</g>
	<g id="XMLID_2222_" class="st1">
		<defs>
			<path id="XMLID_2223_" class="st1" d="M174.778,171.89l-8.737,3.833c2.715-1.191,4.575-4.128,4.582-7.864l8.737-3.833
				C179.353,167.762,177.493,170.699,174.778,171.89z"/>
		</defs>
		<clipPath id="XMLID_2_">
			<use xlink:href="#XMLID_2223_"  style="overflow:visible;"/>
		</clipPath>
		<g id="XMLID_2224_" class="st4">
			<path id="XMLID_2225_" class="st5" d="M170.623,167.859l8.737-3.833c-0.007,3.735-1.867,6.672-4.582,7.864l-8.737,3.833
				C168.756,174.532,170.616,171.595,170.623,167.859"/>
		</g>
	</g>
	<g id="XMLID_2220_">
		<polygon id="XMLID_2221_" class="st6" points="164.473,44.198 173.21,40.365 173.007,149.871 164.27,153.703 		"/>
	</g>
	<g id="XMLID_2218_">
		<polygon id="XMLID_2219_" class="st7" points="94.583,31.836 103.32,28.003 173.21,40.365 164.473,44.198 		"/>
	</g>
	<g id="XMLID_2212_">
		<path id="XMLID_2213_" class="st8" d="M162.215,20.907c4.769,0.844,8.67,5.967,8.66,11.391l-0.252,135.561
			c-0.01,5.424-3.927,9.165-8.696,8.321l-65.29-11.548c-4.769-0.844-8.67-5.967-8.66-11.391L88.229,17.68
			c0.01-5.424,3.927-9.164,8.696-8.321L162.215,20.907z M164.27,153.703l0.203-109.505L94.582,31.836l-0.203,109.505L164.27,153.703
			 M138.736,161.837c1.122,0.199,2.047-0.679,2.049-1.954c0.002-1.274-0.918-2.478-2.041-2.677l-18.871-3.338
			c-1.122-0.199-2.047,0.679-2.049,1.953c-0.002,1.275,0.918,2.478,2.04,2.677L138.736,161.837 M119.093,23.904
			c-0.561-0.099-1.023,0.343-1.025,0.98c-0.001,0.637,0.459,1.236,1.02,1.335l20.916,3.7c0.561,0.099,1.023-0.336,1.025-0.973
			c0.001-0.637-0.459-1.243-1.02-1.342L119.093,23.904"/>
	</g>
	<g id="XMLID_2210_">
		<path id="XMLID_2211_" class="st5" d="M138.745,157.206c1.122,0.199,2.043,1.402,2.041,2.677
			c-0.002,1.274-0.927,2.152-2.049,1.954l-18.871-3.338c-1.122-0.199-2.043-1.402-2.041-2.677c0.002-1.275,0.927-2.152,2.049-1.954
			L138.745,157.206z"/>
	</g>
	<g id="XMLID_2203_" class="st1">
		<defs>
			<path id="XMLID_2204_" class="st1" d="M92.811,9.816l8.737-3.833c1.227-0.538,2.629-0.72,4.114-0.457l-8.737,3.833
				C95.441,9.096,94.039,9.278,92.811,9.816z"/>
		</defs>
		<use xlink:href="#XMLID_2204_"  style="overflow:visible;fill:#BFDCF5;"/>
		<clipPath id="XMLID_3_">
			<use xlink:href="#XMLID_2204_"  style="overflow:visible;"/>
		</clipPath>
		<g id="XMLID_2205_" class="st9">
			<path id="XMLID_2209_" class="st5" d="M92.811,9.816l8.737-3.833c0.219-0.096,0.443-0.181,0.673-0.254l-8.737,3.833
				C93.255,9.636,93.03,9.72,92.811,9.816"/>
			<path id="XMLID_2208_" class="st5" d="M93.484,9.563l8.737-3.833c0.481-0.153,0.983-0.253,1.503-0.297l-8.737,3.833
				C94.468,9.31,93.965,9.41,93.484,9.563"/>
			<path id="XMLID_2207_" class="st5" d="M94.988,9.266l8.737-3.833c0.62-0.053,1.265-0.025,1.927,0.091l-8.737,3.833
				C96.253,9.241,95.608,9.213,94.988,9.266"/>
			<polyline id="XMLID_2206_" class="st5" points="96.914,9.357 105.651,5.524 105.662,5.526 96.925,9.359 96.914,9.357 			"/>
		</g>
	</g>
	<g id="XMLID_2201_">
		<path id="XMLID_2202_" class="st5" d="M140.009,27.604c0.561,0.099,1.021,0.705,1.02,1.342c-0.001,0.637-0.464,1.072-1.025,0.973
			l-20.916-3.7c-0.561-0.099-1.021-0.698-1.02-1.335c0.001-0.637,0.463-1.08,1.025-0.98L140.009,27.604z"/>
	</g>
	<g id="XMLID_2199_">
		<polygon id="XMLID_2200_" class="st10" points="164.473,44.198 164.27,153.703 94.379,141.341 94.583,31.836 		"/>
	</g>
	<g id="XMLID_2197_">
		<polygon id="XMLID_2198_" class="st5" points="96.925,9.359 105.662,5.526 170.953,17.075 162.215,20.907 		"/>
	</g>
	<g id="XMLID_2194_">
		<polygon id="XMLID_2196_" class="st5" points="170.875,32.298 179.612,28.465 179.36,164.027 170.623,167.859 		"/>
	</g>
	<g id="XMLID_2185_" class="st1">
		<defs>
			<path id="XMLID_2186_" class="st1" d="M162.215,20.907l8.737-3.833c4.769,0.844,8.67,5.967,8.66,11.391l-8.737,3.833
				C170.885,26.875,166.985,21.751,162.215,20.907z"/>
		</defs>
		<use xlink:href="#XMLID_2186_"  style="overflow:visible;fill:#BFDCF5;"/>
		<clipPath id="XMLID_4_">
			<use xlink:href="#XMLID_2186_"  style="overflow:visible;"/>
		</clipPath>
		<g id="XMLID_2187_" class="st11">
			<path id="XMLID_2193_" class="st5" d="M162.215,20.907l8.737-3.833c2.074,0.367,3.984,1.543,5.479,3.202l-8.737,3.833
				C166.2,22.451,164.29,21.274,162.215,20.907"/>
			<path id="XMLID_2192_" class="st5" d="M167.695,24.109l8.737-3.833c0.512,0.568,0.976,1.193,1.381,1.862l-8.737,3.833
				C168.671,25.303,168.207,24.678,167.695,24.109"/>
			<path id="XMLID_2191_" class="st5" d="M169.076,25.971l8.737-3.833c0.326,0.538,0.614,1.105,0.859,1.692l-8.737,3.833
				C169.69,27.076,169.402,26.509,169.076,25.971"/>
			<path id="XMLID_2190_" class="st5" d="M169.935,27.663l8.737-3.833c0.233,0.56,0.427,1.14,0.577,1.732l-8.737,3.833
				C170.362,28.803,170.168,28.223,169.935,27.663"/>
			<path id="XMLID_2189_" class="st5" d="M170.512,29.396l8.737-3.833c0.165,0.654,0.277,1.324,0.33,2.002l-8.737,3.833
				C170.789,30.719,170.677,30.05,170.512,29.396"/>
			<path id="XMLID_2188_" class="st5" d="M170.841,31.398l8.737-3.833c0.023,0.299,0.035,0.599,0.034,0.9l-8.737,3.833
				C170.876,31.997,170.864,31.697,170.841,31.398"/>
		</g>
	</g>
</g>
<g id="XMLID_2182_">
	<polygon id="XMLID_2183_" class="st12" points="163.592,44.691 163.325,152.54 95.294,140.602 95.561,32.754 	"/>
</g>
<g id="XMLID_2179_">
	<path id="XMLID_2180_" class="st13" d="M95.585,32.779l68.09,11.633l-0.016,11.04l-68.09-11.633L95.585,32.779z"/>
</g>
<g id="XMLID_2175_">
	<polygon id="XMLID_2178_" class="st5" points="117.398,122.297 117.364,137.822 101.317,135.034 101.351,119.51 	"/>
</g>
<g id="XMLID_2172_">
	<path id="XMLID_2173_" class="st14" d="M100.892,72.175l55.098,9.612l-0.039,35.491l-55.098-9.612L100.892,72.175z"/>
</g>
<g id="XMLID_2139_">
	<polygon id="XMLID_2171_" class="st5" points="136.969,125.697 136.935,141.221 120.888,138.434 120.922,122.91 	"/>
</g>
<g id="XMLID_2125_">
	<g>
		<polygon id="XMLID_33_" class="st15" points="149.998,59.617 149.991,64.187 107.615,56.827 107.622,52.256 		"/>
	</g>
</g>
<g id="XMLID_2115_">
	<g>
		<polygon id="XMLID_30_" class="st15" points="155.99,75.781 155.982,77.94 100.922,68.304 100.929,66.145 		"/>
	</g>
</g>
<g id="XMLID_2108_">
	<g>
		<polygon id="XMLID_26_" class="st15" points="155.99,72.033 155.982,74.192 100.922,64.556 100.929,62.397 		"/>
	</g>
</g>
<g id="XMLID_1925_">
	<g>
		<polygon id="XMLID_24_" class="st15" points="155.99,68.126 155.982,70.286 100.922,60.65 100.929,58.49 		"/>
	</g>
</g>
<g id="XMLID_1899_">
	<g>
		<polygon id="XMLID_22_" class="st15" points="155.99,123.572 155.982,125.732 100.922,116.096 100.929,113.936 		"/>
	</g>
</g>
<g id="XMLID_1300_">
	<g>
		<polygon id="XMLID_20_" class="st15" points="155.99,119.93 155.982,122.089 100.922,112.453 100.929,110.294 		"/>
	</g>
</g>
<g id="XMLID_164_">
	<polygon id="XMLID_166_" class="st5" points="156.54,129.096 156.506,144.62 140.459,141.833 140.493,126.309 	"/>
</g>
<g>
	<g>
		<path class="st12" d="M160.423,48.118l-5.578-0.939c-0.214-0.036-0.382-0.222-0.374-0.415c0.007-0.193,0.186-0.321,0.4-0.285
			l5.578,0.939c0.214,0.036,0.382,0.222,0.374,0.415C160.816,48.027,160.637,48.154,160.423,48.118z"/>
	</g>
	<g>
		<path class="st12" d="M160.358,49.844l-5.578-0.939c-0.214-0.036-0.382-0.222-0.374-0.415c0.007-0.193,0.186-0.321,0.4-0.285
			l5.578,0.939c0.214,0.036,0.382,0.222,0.374,0.415C160.751,49.753,160.572,49.88,160.358,49.844z"/>
	</g>
	<g>
		<path class="st12" d="M160.294,51.57l-5.578-0.939c-0.214-0.036-0.382-0.222-0.374-0.415s0.186-0.321,0.4-0.285l5.578,0.939
			c0.214,0.036,0.382,0.222,0.374,0.415S160.508,51.606,160.294,51.57z"/>
	</g>
</g>
<g>
	<text transform="matrix(0.7883 0.1224 -0.0083 1 117.8921 104.9118)" class="st12 st16 st17 st18">A</text>
</g>
<g>
	<g>
		<path class="st12" d="M275.057,66.385l-5.578-0.939c-0.214-0.036-0.382-0.222-0.374-0.415c0.007-0.193,0.186-0.321,0.4-0.285
			l5.578,0.939c0.214,0.036,0.382,0.222,0.374,0.415S275.271,66.421,275.057,66.385z"/>
	</g>
	<g>
		<path class="st12" d="M274.993,68.111l-5.578-0.939c-0.214-0.036-0.382-0.222-0.374-0.415c0.007-0.193,0.186-0.321,0.4-0.285
			l5.578,0.939c0.214,0.036,0.382,0.222,0.374,0.415S275.206,68.147,274.993,68.111z"/>
	</g>
	<g>
		<path class="st12" d="M274.928,69.837l-5.578-0.939c-0.214-0.036-0.382-0.222-0.374-0.415c0.007-0.193,0.186-0.321,0.4-0.285
			l5.578,0.939c0.214,0.036,0.382,0.222,0.374,0.415S275.142,69.873,274.928,69.837z"/>
	</g>
</g>
<g>
	<g id="XMLID_2309_" class="st1">
		<g id="XMLID_2352_">
			<polygon id="XMLID_2353_" class="st2" points="200.174,52.013 208.911,48.18 208.708,157.685 199.971,161.518 			"/>
		</g>
		<g id="XMLID_2350_">
			<polygon id="XMLID_2351_" class="st3" points="199.971,161.518 208.708,157.685 278.599,170.047 269.862,173.88 			"/>
		</g>
		<g id="XMLID_2346_" class="st1">
			<defs>
				<path id="XMLID_2347_" class="st1" d="M280.37,192.067l-8.737,3.833c2.715-1.191,4.575-4.128,4.582-7.864l8.737-3.833
					C284.945,187.939,283.085,190.876,280.37,192.067z"/>
			</defs>
			<clipPath id="XMLID_5_">
				<use xlink:href="#XMLID_2347_"  style="overflow:visible;"/>
			</clipPath>
			<g id="XMLID_2348_" class="st19">
				<path id="XMLID_2349_" class="st5" d="M276.215,188.036l8.737-3.833c-0.007,3.735-1.867,6.672-4.582,7.864l-8.737,3.833
					C274.348,194.709,276.208,191.771,276.215,188.036"/>
			</g>
		</g>
		<g id="XMLID_2344_">
			<polygon id="XMLID_2345_" class="st6" points="270.065,64.375 278.802,60.542 278.599,170.047 269.862,173.88 			"/>
		</g>
		<g id="XMLID_2342_">
			<polygon id="XMLID_2343_" class="st7" points="200.174,52.013 208.911,48.18 278.802,60.542 270.065,64.375 			"/>
		</g>
		<g id="XMLID_2336_">
			<path id="XMLID_2337_" class="st8" d="M267.807,41.084c4.769,0.844,8.67,5.967,8.66,11.391l-0.252,135.561
				c-0.01,5.424-3.927,9.165-8.696,8.321l-65.29-11.548c-4.769-0.844-8.67-5.967-8.66-11.391l0.252-135.561
				c0.01-5.424,3.927-9.164,8.696-8.321L267.807,41.084z M269.862,173.88l0.203-109.505l-69.891-12.362l-0.203,109.505
				L269.862,173.88 M244.328,182.014c1.122,0.199,2.047-0.679,2.049-1.954c0.002-1.274-0.918-2.478-2.041-2.677l-18.871-3.338
				c-1.122-0.199-2.047,0.679-2.049,1.953c-0.002,1.275,0.918,2.479,2.04,2.677L244.328,182.014 M224.685,44.081
				c-0.561-0.099-1.023,0.343-1.025,0.98c-0.001,0.637,0.459,1.236,1.02,1.335l20.916,3.7c0.561,0.099,1.023-0.336,1.025-0.973
				c0.001-0.637-0.459-1.243-1.02-1.342L224.685,44.081"/>
		</g>
		<g id="XMLID_2334_">
			<path id="XMLID_2335_" class="st5" d="M244.337,177.383c1.122,0.199,2.043,1.403,2.041,2.677
				c-0.002,1.274-0.927,2.152-2.049,1.954l-18.871-3.338c-1.122-0.199-2.043-1.402-2.041-2.677c0.002-1.275,0.927-2.152,2.049-1.954
				L244.337,177.383z"/>
		</g>
		<g id="XMLID_2327_" class="st1">
			<defs>
				<path id="XMLID_2328_" class="st1" d="M198.403,29.993l8.737-3.833c1.227-0.538,2.629-0.72,4.114-0.457l-8.737,3.833
					C201.032,29.273,199.63,29.455,198.403,29.993z"/>
			</defs>
			<use xlink:href="#XMLID_2328_"  style="overflow:visible;fill:#BFDCF5;"/>
			<clipPath id="XMLID_6_">
				<use xlink:href="#XMLID_2328_"  style="overflow:visible;"/>
			</clipPath>
			<g id="XMLID_2329_" class="st20">
				<path id="XMLID_2333_" class="st5" d="M198.403,29.993l8.737-3.833c0.219-0.096,0.443-0.181,0.673-0.254l-8.737,3.833
					C198.847,29.812,198.622,29.897,198.403,29.993"/>
				<path id="XMLID_2332_" class="st5" d="M199.076,29.74l8.737-3.833c0.481-0.153,0.983-0.253,1.503-0.297l-8.737,3.833
					C200.059,29.486,199.557,29.587,199.076,29.74"/>
				<path id="XMLID_2331_" class="st5" d="M200.579,29.442l8.737-3.833c0.62-0.053,1.265-0.025,1.927,0.091l-8.737,3.833
					C201.845,29.418,201.2,29.39,200.579,29.442"/>
				<polyline id="XMLID_2330_" class="st5" points="202.506,29.534 211.243,25.701 211.254,25.703 202.517,29.536 202.506,29.534 
									"/>
			</g>
		</g>
		<g id="XMLID_2325_">
			<path id="XMLID_2326_" class="st5" d="M245.6,47.78c0.561,0.099,1.021,0.705,1.02,1.342c-0.001,0.637-0.464,1.072-1.025,0.973
				l-20.916-3.7c-0.561-0.099-1.021-0.698-1.02-1.335c0.001-0.637,0.463-1.08,1.025-0.98L245.6,47.78z"/>
		</g>
		<g id="XMLID_2323_">
			<polygon id="XMLID_2324_" class="st10" points="270.065,64.375 269.862,173.88 199.971,161.518 200.174,52.013 			"/>
		</g>
		<g id="XMLID_2321_">
			<polygon id="XMLID_2322_" class="st5" points="202.517,29.536 211.254,25.703 276.544,37.251 267.807,41.084 			"/>
		</g>
		<g id="XMLID_2319_">
			<polygon id="XMLID_2320_" class="st5" points="276.467,52.475 285.204,48.642 284.952,184.203 276.215,188.036 			"/>
		</g>
		<g id="XMLID_2310_" class="st1">
			<defs>
				<path id="XMLID_2311_" class="st1" d="M267.807,41.084l8.737-3.833c4.769,0.843,8.67,5.967,8.66,11.391l-8.737,3.833
					C276.477,47.051,272.576,41.928,267.807,41.084z"/>
			</defs>
			<use xlink:href="#XMLID_2311_"  style="overflow:visible;fill:#BFDCF5;"/>
			<clipPath id="XMLID_7_">
				<use xlink:href="#XMLID_2311_"  style="overflow:visible;"/>
			</clipPath>
			<g id="XMLID_2312_" class="st21">
				<path id="XMLID_2318_" class="st5" d="M267.807,41.084l8.737-3.833c2.074,0.367,3.984,1.543,5.479,3.202l-8.737,3.833
					C271.791,42.627,269.881,41.451,267.807,41.084"/>
				<path id="XMLID_2317_" class="st5" d="M273.287,44.286l8.737-3.833c0.512,0.568,0.976,1.193,1.381,1.862l-8.737,3.833
					C274.263,45.479,273.799,44.854,273.287,44.286"/>
				<path id="XMLID_2316_" class="st5" d="M274.668,46.148l8.737-3.833c0.326,0.538,0.614,1.105,0.859,1.692l-8.737,3.833
					C275.282,47.252,274.994,46.686,274.668,46.148"/>
				<path id="XMLID_2315_" class="st5" d="M275.526,47.84l8.737-3.833c0.233,0.56,0.427,1.14,0.577,1.732l-8.737,3.833
					C275.953,48.98,275.76,48.4,275.526,47.84"/>
				<path id="XMLID_2314_" class="st5" d="M276.103,49.573l8.737-3.833c0.165,0.654,0.277,1.324,0.33,2.002l-8.737,3.833
					C276.38,50.896,276.269,50.226,276.103,49.573"/>
				<path id="XMLID_2313_" class="st5" d="M276.433,51.575l8.737-3.833c0.023,0.299,0.035,0.599,0.034,0.9l-8.737,3.833
					C276.467,52.174,276.456,51.873,276.433,51.575"/>
			</g>
		</g>
	</g>
	<g id="XMLID_2307_">
		<polygon id="XMLID_2308_" class="st12" points="269.184,64.868 268.917,172.716 200.886,160.779 201.152,52.931 		"/>
	</g>
	<g id="XMLID_2304_">
		<path id="XMLID_2305_" class="st13" d="M201.177,52.956l68.09,11.633l-0.016,11.04l-68.09-11.633L201.177,52.956z"/>
	</g>
	<g id="XMLID_2300_">
		<polygon id="XMLID_2303_" class="st5" points="222.989,142.474 222.956,157.998 206.908,155.211 206.942,139.687 		"/>
	</g>
	<g id="XMLID_2297_">
		<g>
			<path id="XMLID_28_" class="st22" d="M206.483,92.352l55.098,9.612l-0.039,35.491l-55.098-9.612L206.483,92.352z"/>
		</g>
	</g>
	<g id="XMLID_2293_">
		<polygon id="XMLID_2296_" class="st5" points="241.915,145.873 241.881,161.398 225.833,158.61 225.867,143.086 		"/>
	</g>
	<g id="XMLID_2289_">
		<g>
			<polygon id="XMLID_18_" class="st15" points="255.59,79.487 255.583,84.057 213.206,76.697 213.214,72.126 			"/>
		</g>
	</g>
	<g id="XMLID_2281_">
		<g>
			<polygon id="XMLID_16_" class="st15" points="261.581,95.651 261.574,97.81 206.513,88.174 206.52,86.015 			"/>
		</g>
	</g>
	<g id="XMLID_2119_">
		<g>
			<polygon id="XMLID_14_" class="st15" points="261.581,91.902 261.574,94.062 206.513,84.426 206.52,82.266 			"/>
		</g>
	</g>
	<g id="XMLID_1911_">
		<g>
			<polygon id="XMLID_12_" class="st15" points="261.581,87.996 261.574,90.155 206.513,80.519 206.52,78.36 			"/>
		</g>
	</g>
	<g id="XMLID_1297_">
		<g>
			<polygon id="XMLID_10_" class="st15" points="261.581,143.749 261.574,145.908 206.513,136.272 206.52,134.113 			"/>
		</g>
	</g>
	<g id="XMLID_343_">
		<g>
			<polygon id="XMLID_9_" class="st15" points="261.581,140.106 261.574,142.266 206.513,132.63 206.52,130.47 			"/>
		</g>
	</g>
	<g id="XMLID_339_">
		<polygon id="XMLID_340_" class="st5" points="261.486,149.273 261.452,164.797 245.405,162.01 245.438,146.486 		"/>
	</g>
	<g>
		<text transform="matrix(0.7883 0.1224 -0.0083 1 224.225 125.2038)" class="st12 st16 st17 st18">B</text>
	</g>
</g>
<g>
	<ellipse class="st0" cx="319.721" cy="161.448" rx="16.693" ry="7.6"/>
	<path class="st23" d="M317.571,153.687c0,0-1.471,1.798-2.696,1.879c-1.226,0.082-7.272,1.961-4.33,4.33s7.517,0.163,7.517,0.163
		l5.229-0.082c0,0,1.798-1.716,1.879-2.696c0.082-0.98-1.552-5.393-1.552-5.393L317.571,153.687z"/>
	<path class="st12" d="M322.841,159.652c0,0-2.206,0.286-3.064,0s-1.307-0.123-1.593,0c-0.286,0.123-0.817,0.735-1.634,0.899
		s-2.533-0.531-2.533-0.531s-1.062-4.208-2.206-3.758c0,0-2.206,1.021-2.288,1.961l0.163,1.757c0,0,2.737,1.798,4.167,1.716
		c1.43-0.082,4.821-0.654,4.821-0.654l4.33-0.735L322.841,159.652z"/>
	<path class="st23" d="M329.663,156.71c0,0,1.879,4.984,0.735,6.046c-1.144,1.062-2.451,2.288-3.023,3.922
		c-0.572,1.634-8.252,0.817-8.742,0c-0.49-0.817-0.572-2.451,0.572-3.268c1.144-0.817,3.35-1.389,3.432-2.451
		s1.798-4.984,1.798-4.984L329.663,156.71z"/>
	<path class="st12" d="M330.725,162.103c0,0-2.288,2.043-2.778,2.288s-0.817,1.961-1.716,2.043
		c-0.899,0.082-2.165-1.879-3.718-2.288s-3.309-0.082-3.636,0.082c-0.327,0.163-1.307,1.062-0.245,2.451c0,0,1.103,1.43,5.801,1.144
		c0,0,1.961,0.082,2.941-1.144c0.98-1.226,3.105-3.35,3.105-3.35L330.725,162.103z"/>
	<path class="st24" d="M332.726,99.215c0,0,1.737,6.742,1.628,8.484s-0.662,15.238-0.662,15.478c0,0.24-0.521,8.755-0.521,8.995
		c0,0.24-1.184,9.789-1.184,9.789l-1.127,11.426l-0.98,5.285c0,0-3.811-4.312-6.046-1.081l-0.436-4.865c0,0,0.872-0.06,1.035-1.441
		s0.374-6.852,0.157-7.693c-0.218-0.841,0.148-6.02,0.148-6.2c0-0.18-0.74-4.732-0.74-4.732s-0.273-6.962-0.981-9.484
		c-0.708-2.523-1.089-7.628-1.089-7.628s-0.461,7.05-1.333,8.791s-0.192,4.422-0.192,4.963c0,0.541-0.272,3.904,0.381,5.826
		c0.654,1.922,1.743,5.466,1.798,6.186s1.525,6.427,1.525,7.508s0.381,3.243,0.381,3.243s-1.355,4.196-4.628,3.928
		c-0.072-0.006-0.146-0.014-0.22-0.024c-3.432-0.48-3.595-1.682-3.595-1.682s0.599-1.021,0.49-2.282
		c-0.109-1.261-0.599-2.943-0.654-3.243s-3.105-13.454-3.323-14.114c-0.218-0.661,1.035-3.604,0.163-5.406
		c-0.872-1.802-1.925-12.245-2.633-13.387c-0.708-1.141,0.202-9.207,0.148-10.768c-0.054-1.562-0.74-5.547-0.74-5.547
		L332.726,99.215z"/>
	<path class="st25" d="M348.876,73.376c0,0-2.113-3.842-2.113-5.571s0.768,0,1.729,0s0.768-1.921,1.345-2.881s3.842-0.96,4.802-0.96
		c0.96,0,2.881,1.345,0.96,2.305c-1.921,0.96-4.034,4.226-4.226,5.571C351.181,73.184,348.876,73.376,348.876,73.376z"/>
	<ellipse class="st25" cx="322.24" cy="59.866" rx="6.147" ry="8.708"/>
	<ellipse class="st25" cx="327.875" cy="59.994" rx="2.689" ry="2.433"/>
	<ellipse class="st25" cx="316.832" cy="59.394" rx="2.689" ry="2.177"/>
	<polygon class="st25" points="324.851,66.653 318.758,66.653 317.409,73.962 325.826,73.511 	"/>
	<path class="st26" d="M325.826,70.111c0,0-3.458,5.571-8.452,0.96l-4.994,16.712l-1.345,14.022c0,0,13.83,2.689,18.632-0.768
		l-0.768-25.355L325.826,70.111z"/>
	<path class="st14" d="M329.476,68.958l5.57,1.537c0,0,6.723,9.796,6.723,9.22c0-0.576,5.955-9.796,5.955-9.796l4.802,3.458
		l-8.644,16.712l-10.181-10.373l-0.384,23.05l-7.972,1.825l0.096-17.064L329.476,68.958z"/>
	<path class="st14" d="M316.094,68.964c0,0-6.639,0.77-8.944,2.499c-2.305,1.729-6.182,24.595-6.182,24.595l2.482,13.503
		l2.121-4.296l2.499-15.125l1.62-4.086l-1.752,17.107l9.435,1.91l-1.345-20.937L316.094,68.964z"/>
	<path class="st27" d="M325.058,67.806c0.576,0.576,6.531,1.537,6.531,1.537s-7.235,22.026-6.659,20.105
		C325.506,87.526,325.058,67.806,325.058,67.806z"/>
	<path class="st27" d="M318.593,67.956c-0.576,0.576-5.861,1.387-5.861,1.387s4.322,23.306,3.746,21.386
		C315.902,88.807,318.593,67.956,318.593,67.956z"/>
	<g>
		<g>
			<g>
				<polygon class="st28" points="299.949,99.191 297.961,106.678 299.621,107.723 301.609,100.236 				"/>
			</g>
			<g>
				<polygon class="st29" points="301.609,100.236 299.621,107.723 311.65,108.942 313.638,101.455 				"/>
			</g>
			<g>
				<polygon class="st30" points="313.638,101.455 311.978,100.41 299.949,99.191 301.609,100.236 				"/>
			</g>
		</g>
	</g>
	<path class="st25" d="M308.562,107.436l-0.188,2.26c0,0-3.063,3.024-4.144,1.507c-0.571-0.802-2.033,0.059-0.615-3.435
		C305.032,104.275,308.562,107.436,308.562,107.436z"/>
	<g>
		
			<ellipse transform="matrix(0.9235 -0.3836 0.3836 0.9235 -58.2914 129.0692)" class="st0" cx="294.443" cy="210.677" rx="21.671" ry="10.514"/>
		<g>
			<path class="st25" d="M315.001,130.136c0,0,1.195,9.404,1.033,10.537c-0.162,1.133-0.89,2.681-1.503,2.711
				s-2.288,0.972-3.609-0.732c-1.321-1.703,0.111-10.527,0.111-10.527L315.001,130.136z"/>
			<g>
				<path class="st25" d="M304.26,116.191l-0.722-3.805c0,0,0.448-1.236,1.49-3.527c1.281,0.068,2.406-0.815,2.55-2.05
					c0.084-0.726-0.197-1.407-0.691-1.898c1.869-4.489-6.7-6.644-8.825-7.332c-1.572-0.509-3.224,2.756-4.163,5.859
					c-1.326-0.12-2.532,0.98-2.708,2.49c-0.178,1.532,0.77,2.901,2.119,3.058c0.103,0.012,0.203,0.003,0.304,0
					c0.226,0.472,0.521,0.911,0.839,1.321l1.041,2.735l1.346-0.042c0.07,0.121,0.114,0.231,0.103,0.321
					c-0.103,0.888-1.074,3.12-1.074,3.12c4.201,8.36,12.355,0.797,12.355,0.797L304.26,116.191z"/>
				<path class="st31" d="M301.691,201.076c0,0-2.904-3.351-4.245,0.223c-1.34,3.575,2.011,7.596,4.692,8.49
					c2.681,0.894,0.67,3.351,5.362,3.128l0.447-7.819L301.691,201.076z"/>
				<path class="st31" d="M289.85,210.459c0,0-1.787,2.904-5.362,4.021c-3.575,1.117-8.043,1.34-6.479,4.692
					c1.564,3.351,10.053-0.223,12.064,0.223s3.575,1.117,5.809-1.117c2.234-2.234-0.67-7.149-0.67-7.149L289.85,210.459z"/>
				<path class="st32" d="M298.159,94.362c0,0-3.491-0.573-4.74,2.431c-1.249,3.004-2.53,4.452-1.168,8.209
					c1.363,3.757,7.123,8.929,7.123,8.929l1.458-1.823l1.58,1.823c0,0,1.161-3.789,2.699-5.41c1.538-1.621,3.994-4.371,2.828-7.881
					S304.479,91.688,298.159,94.362z"/>
				<path class="st33" d="M290.744,146.787l-2.234,2.681c0,0-3.798,23.011-2.234,31.501c1.564,8.49,2.234,31.278,2.234,31.278
					s8.266,8.669,8.266,0.223c0-1.34-1.117-34.182-1.117-34.182l4.692-17.649c0,0,7.149,1.34,10.277-5.585
					c1.658-3.671,1.117-13.405,1.117-13.405L290.744,146.787z"/>
				<path class="st33" d="M310.181,154.83c-0.447,1.787-2.011,17.203-1.564,22.564c0.447,5.362,0,31.054,0,31.054
					s-6.032,2.904-6.926-4.245c-0.894-7.149-2.234-26.809-2.011-27.703c0.223-0.894-0.447-19.213-0.447-19.213L310.181,154.83z"/>
				<polygon class="st25" points="285.714,129.425 283.278,138.712 278.253,132.318 278.71,128.816 277.949,127.751 277.34,128.512 
					275.361,123.183 274.295,123.64 275.818,128.36 273.229,129.882 272.773,133.079 275.209,134.906 282.06,146.934 
					286.323,146.325 291.803,129.577 				"/>
				<path class="st34" d="M311.976,133.384c-0.114,6.28-0.114,20.553-0.114,20.553s-7.903,7.603-24.435,2.912l2.346-23.229
					c0,0-7.142,0.449-6.114-3.319c1.19-4.364-0.49-14.952,12.224-14.642c0,0,1.564,1.564,3.798,1.34
					c2.234-0.223,3.709-0.61,4.379-1.504c0,0,0.719-0.64,2.36-0.761c1.641-0.122,5.712,0.97,7.263,2.457
					c1.416,1.357,1.377,11.74,2.176,14.366C314.107,133.003,313.194,133.079,311.976,133.384z"/>
			</g>
		</g>
	</g>
	<path class="st32" d="M324.511,53.904l-1.315,2.236l-1.118-0.46l-1.447,1.184l-0.658-1.841l-1.644,2.17c0,0,0,0.921-0.197,1.447
		c-0.197,0.526-1.052,0.723-1.052,0.723l-0.73-2.058c0,0-1.637,0.545-1.44,1.334c0.197,0.789,0.658,2.565,0.658,2.565l1.096,0.482
		l0.68,2.806l1.381,2.565l-2.565-2.236c0,0-0.986,0.395-1.052-0.658c-0.066-1.052-0.723-1.381-1.184-2.039
		c-0.46-0.658-1.776-0.921-0.855-2.302c0.921-1.381,1.447-1.447,1.447-2.696s-0.723-2.696-0.592-3.42
		c0.132-0.723,0.395-1.513,0.986-2.104c0.592-0.592,0.986-2.104,1.71-2.631c0.723-0.526,1.118-1.644,2.433-1.381
		c1.315,0.263,2.894,1.118,3.485,1.118c0.592,0,3.749-0.395,4.143,0c0.395,0.395,0.197,0.855,1.381,2.039
		c1.184,1.184,4.012,1.381,4.077,2.236s0.066,2.565-0.329,3.288c-0.395,0.723-0.329,0.789-0.526,1.381
		c-0.197,0.592-0.526,0.789-0.46,1.776c0.066,0.986-0.132,1.578-0.395,1.841c-0.263,0.263-0.789,0.855-0.789,1.447
		c0,0.592-0.263,1.447-0.526,1.71c-0.263,0.263-1.381,0.986-1.381,0.986l-1.315,0.526l1.184-3.551c0,0,1.907-0.986,1.973-1.447
		c0.066-0.46,0.46-2.104-0.329-2.367c-0.789-0.263-1.249,0.592-1.249,0.592l-0.592,1.184c0,0,0.263-1.447,0.197-2.433
		c-0.066-0.986-1.71-2.565-1.71-2.565l-0.46,1.184l-0.46-1.71L324.511,53.904z"/>
</g>
<g>
	<g>
		<g>
			<g>
				<path class="st12" d="M104.373,42.495l-0.408-0.596l0,0l-0.419-0.612l-0.827-1.208l-0.408,0.366l0,0l-0.419,0.375l-0.827,0.741
					l1.198,1.75l0,0l0.048,0.07c0.225,0.328,0.592,0.432,0.817,0.231l0.085-0.076l0,0L104.373,42.495z"/>
			</g>
		</g>
		<g>
			<g>
				<path class="st12" d="M104.121,36.973l-0.839-1.225c0,0,0,0,0-0.001l-0.409-0.597l-1.2,1.075v0l-0.048,0.043
					c-0.225,0.201-0.225,0.635,0,0.964l0.085,0.125v0l1.162,1.698l0.409-0.366l0,0l0.839-0.751
					C104.346,37.735,104.346,37.302,104.121,36.973z"/>
			</g>
			<g>
				<path class="st12" d="M106.513,40.546l-0.408-0.596c0,0-0.001-0.001-0.001-0.001l-0.839-1.225
					c-0.225-0.329-0.593-0.433-0.818-0.231l-0.839,0.751c0,0,0,0,0,0L103.2,39.61l1.2,1.753l0,0l0.048,0.07
					c0.225,0.329,0.593,0.433,0.818,0.231l0.085-0.077l0,0L106.513,40.546z"/>
			</g>
			<g>
				<path class="st12" d="M100.751,37.813c0-0.375,0.184-0.413,0.409-0.084l0.839,1.225c0.225,0.329,0.225,0.762,0,0.964
					l-0.839,0.751c-0.225,0.202-0.409,0.06-0.409-0.315L100.751,37.813z"/>
			</g>
		</g>
	</g>
	<g>
		<path class="st12" d="M110.951,41.068l-0.002,0.59c-0.001,0.056-0.015,0.1-0.045,0.135c-0.029,0.034-0.069,0.047-0.122,0.038
			l-0.344-0.057l-0.005,1.305l-0.728-0.122l0.005-1.305l-1.818-0.304c-0.053-0.009-0.101-0.037-0.144-0.085s-0.069-0.105-0.08-0.172
			l-0.086-0.537l2.078-3.1l0.794,0.133l-0.013,3.396L110.951,41.068z M109.713,40.86l0.006-1.634c0-0.085,0.003-0.176,0.008-0.272
			c0.005-0.097,0.013-0.197,0.024-0.301l-1.283,1.999L109.713,40.86z"/>
		<path class="st12" d="M114.524,39.861l-0.02,5.159l-0.838-0.14l0.006-1.72c-0.12,0.136-0.258,0.238-0.41,0.308
			c-0.152,0.069-0.33,0.086-0.534,0.052c-0.168-0.028-0.322-0.098-0.46-0.209c-0.14-0.112-0.26-0.262-0.362-0.449
			c-0.101-0.188-0.181-0.409-0.236-0.665c-0.056-0.257-0.083-0.544-0.082-0.862c0.001-0.29,0.034-0.554,0.098-0.794
			c0.065-0.239,0.156-0.44,0.274-0.601c0.118-0.162,0.261-0.281,0.426-0.356c0.167-0.076,0.351-0.096,0.553-0.062
			c0.095,0.016,0.182,0.041,0.261,0.075c0.079,0.035,0.151,0.077,0.216,0.125c0.065,0.049,0.126,0.105,0.181,0.17
			s0.109,0.136,0.162,0.212l0.04-0.182c0.03-0.115,0.1-0.164,0.207-0.146L114.524,39.861z M113.683,40.734
			c-0.079-0.126-0.164-0.22-0.255-0.281c-0.092-0.061-0.19-0.1-0.293-0.117c-0.101-0.017-0.193-0.009-0.277,0.026
			c-0.082,0.034-0.155,0.097-0.215,0.189c-0.059,0.092-0.106,0.215-0.139,0.368c-0.033,0.153-0.05,0.34-0.051,0.559
			c-0.001,0.217,0.011,0.403,0.037,0.559c0.025,0.155,0.063,0.284,0.112,0.386c0.05,0.101,0.109,0.179,0.18,0.232
			c0.071,0.054,0.15,0.088,0.237,0.102c0.147,0.025,0.271,0.009,0.372-0.047c0.101-0.057,0.195-0.144,0.284-0.263L113.683,40.734z"
			/>
		<path class="st12" d="M118.266,40.487l-0.015,3.9l-0.516-0.086c-0.107-0.018-0.176-0.09-0.205-0.216l-0.054-0.282
			c-0.063,0.066-0.128,0.124-0.195,0.176c-0.067,0.052-0.139,0.094-0.214,0.127c-0.077,0.033-0.159,0.054-0.246,0.065
			c-0.088,0.011-0.184,0.007-0.287-0.01c-0.169-0.028-0.32-0.09-0.454-0.185c-0.131-0.095-0.242-0.216-0.33-0.362
			c-0.089-0.146-0.156-0.314-0.202-0.503s-0.069-0.393-0.068-0.61l0.01-2.477l0.838,0.14l-0.01,2.477
			c-0.001,0.217,0.038,0.392,0.118,0.526c0.079,0.133,0.198,0.213,0.356,0.239c0.117,0.02,0.228,0.006,0.331-0.041
			c0.104-0.047,0.202-0.118,0.296-0.213l0.011-2.803L118.266,40.487z"/>
		<path class="st12" d="M119.189,41.182c0.184-0.176,0.388-0.296,0.611-0.361c0.223-0.065,0.464-0.075,0.723-0.032
			c0.186,0.031,0.353,0.097,0.499,0.197c0.146,0.1,0.271,0.226,0.372,0.378s0.179,0.326,0.233,0.521
			c0.054,0.196,0.081,0.405,0.08,0.627l-0.01,2.451l-0.383-0.064c-0.079-0.013-0.139-0.037-0.18-0.072
			c-0.043-0.034-0.075-0.098-0.101-0.191l-0.066-0.261c-0.079,0.073-0.155,0.135-0.23,0.189c-0.073,0.053-0.15,0.096-0.229,0.127
			c-0.079,0.031-0.163,0.05-0.253,0.058c-0.09,0.007-0.191,0.002-0.302-0.016c-0.138-0.023-0.263-0.067-0.377-0.131
			c-0.114-0.065-0.21-0.148-0.292-0.251c-0.082-0.103-0.144-0.226-0.188-0.367c-0.044-0.141-0.066-0.298-0.065-0.472
			c0.001-0.144,0.03-0.283,0.089-0.416c0.059-0.134,0.161-0.248,0.303-0.341c0.143-0.093,0.334-0.159,0.572-0.196
			c0.238-0.037,0.537-0.031,0.895,0.019l0.001-0.2c0.001-0.245-0.04-0.431-0.123-0.56s-0.202-0.206-0.358-0.233
			c-0.116-0.019-0.212-0.018-0.288,0.003c-0.077,0.021-0.145,0.046-0.203,0.076c-0.057,0.029-0.111,0.057-0.162,0.083
			c-0.05,0.025-0.11,0.033-0.177,0.021c-0.059-0.01-0.107-0.036-0.146-0.079c-0.04-0.043-0.072-0.092-0.098-0.147L119.189,41.182z
			 M120.888,43.196c-0.204-0.021-0.374-0.028-0.51-0.019s-0.243,0.032-0.324,0.068c-0.08,0.038-0.137,0.085-0.17,0.144
			c-0.034,0.059-0.051,0.126-0.052,0.202c0,0.151,0.033,0.264,0.101,0.339c0.068,0.074,0.162,0.121,0.283,0.141
			c0.139,0.024,0.261,0.013,0.363-0.032c0.103-0.045,0.206-0.124,0.306-0.238L120.888,43.196z"/>
		<path class="st12" d="M123.523,39.625l-0.022,5.64l-0.837-0.14l0.022-5.64L123.523,39.625z"/>
		<path class="st12" d="M125.483,40.586c0,0.088-0.014,0.168-0.043,0.239c-0.028,0.071-0.066,0.131-0.115,0.181
			c-0.047,0.051-0.103,0.087-0.167,0.109c-0.064,0.022-0.133,0.027-0.206,0.015c-0.068-0.011-0.133-0.039-0.194-0.082
			c-0.062-0.043-0.115-0.098-0.162-0.164c-0.046-0.066-0.083-0.139-0.11-0.219c-0.027-0.08-0.04-0.164-0.04-0.252
			c0.001-0.089,0.014-0.169,0.043-0.241c0.027-0.072,0.064-0.133,0.111-0.184c0.047-0.05,0.101-0.086,0.162-0.109
			c0.063-0.022,0.128-0.028,0.196-0.016c0.073,0.012,0.142,0.04,0.204,0.083c0.064,0.043,0.12,0.098,0.167,0.164
			c0.047,0.067,0.085,0.141,0.114,0.222C125.47,40.412,125.484,40.498,125.483,40.586z M125.379,41.677l-0.015,3.9l-0.838-0.14
			l0.015-3.9L125.379,41.677z"/>
		<path class="st12" d="M126.328,42.376c0.184-0.176,0.388-0.296,0.611-0.36c0.223-0.066,0.464-0.076,0.723-0.033
			c0.186,0.031,0.353,0.097,0.499,0.197c0.146,0.101,0.271,0.226,0.372,0.378c0.101,0.152,0.179,0.326,0.233,0.521
			s0.08,0.405,0.079,0.627l-0.01,2.451l-0.382-0.064c-0.079-0.013-0.139-0.037-0.181-0.072c-0.042-0.034-0.075-0.098-0.101-0.191
			l-0.066-0.261c-0.079,0.073-0.155,0.135-0.23,0.189c-0.073,0.053-0.15,0.096-0.229,0.127c-0.079,0.031-0.163,0.05-0.253,0.058
			c-0.091,0.008-0.191,0.003-0.303-0.016c-0.137-0.023-0.262-0.067-0.376-0.131c-0.114-0.064-0.21-0.148-0.293-0.251
			c-0.081-0.103-0.144-0.225-0.188-0.366c-0.044-0.141-0.066-0.299-0.066-0.473c0.001-0.144,0.031-0.283,0.09-0.416
			c0.059-0.134,0.161-0.248,0.303-0.341c0.143-0.093,0.333-0.159,0.572-0.196c0.238-0.037,0.536-0.03,0.894,0.019l0.001-0.2
			c0.001-0.245-0.04-0.431-0.122-0.56c-0.083-0.129-0.202-0.206-0.358-0.232c-0.116-0.02-0.212-0.018-0.289,0.003
			c-0.076,0.021-0.144,0.046-0.203,0.076c-0.057,0.029-0.111,0.058-0.162,0.083c-0.05,0.025-0.109,0.033-0.176,0.022
			c-0.059-0.01-0.107-0.036-0.146-0.08c-0.04-0.043-0.072-0.092-0.098-0.147L126.328,42.376z M128.025,44.391
			c-0.204-0.022-0.374-0.028-0.509-0.019c-0.136,0.009-0.243,0.032-0.324,0.068c-0.08,0.038-0.137,0.085-0.17,0.144
			c-0.034,0.06-0.051,0.126-0.052,0.202c0,0.151,0.033,0.264,0.101,0.338c0.068,0.074,0.162,0.122,0.282,0.141
			c0.14,0.024,0.261,0.013,0.364-0.032c0.102-0.045,0.205-0.124,0.306-0.238L128.025,44.391z"/>
	</g>
</g>
<g>
	<g>
		<path class="st12" d="M265.905,68.478l-5.578-0.939c-0.214-0.036-0.382-0.222-0.374-0.415s0.186-0.321,0.4-0.285l5.578,0.939
			c0.214,0.036,0.382,0.222,0.374,0.415C266.298,68.386,266.119,68.514,265.905,68.478z"/>
	</g>
	<g>
		<path class="st12" d="M265.84,70.204l-5.578-0.939c-0.214-0.036-0.382-0.222-0.374-0.415s0.186-0.321,0.4-0.285l5.578,0.939
			c0.214,0.036,0.382,0.222,0.374,0.415C266.233,70.113,266.054,70.24,265.84,70.204z"/>
	</g>
	<g>
		<path class="st12" d="M265.776,71.93l-5.578-0.939c-0.214-0.036-0.382-0.222-0.374-0.415s0.186-0.321,0.4-0.285l5.578,0.939
			c0.214,0.036,0.382,0.222,0.374,0.415C266.169,71.839,265.99,71.966,265.776,71.93z"/>
	</g>
</g>
<g>
	<g>
		<g>
			<g>
				<path class="st12" d="M210.571,63.059l-0.408-0.596l0,0l-0.419-0.612l-0.827-1.208l-0.408,0.366l0,0l-0.419,0.375l-0.827,0.741
					l1.198,1.75l0,0l0.048,0.07c0.225,0.328,0.592,0.432,0.817,0.231l0.085-0.076l0,0L210.571,63.059z"/>
			</g>
		</g>
		<g>
			<g>
				<path class="st12" d="M210.32,57.538l-0.839-1.225c0,0,0,0,0-0.001l-0.409-0.597l-1.2,1.075v0l-0.048,0.043
					c-0.225,0.201-0.225,0.635,0,0.964l0.085,0.125v0l1.162,1.698l0.409-0.366l0,0l0.839-0.751
					C210.544,58.3,210.544,57.866,210.32,57.538z"/>
			</g>
			<g>
				<path class="st12" d="M212.711,61.111l-0.408-0.596c0-0.001-0.001-0.001-0.001-0.001l-0.839-1.225
					c-0.225-0.329-0.593-0.433-0.818-0.231l-0.839,0.751c0,0,0,0,0,0l-0.409,0.366l1.2,1.753l0,0l0.048,0.07
					c0.225,0.329,0.593,0.433,0.818,0.231l0.085-0.077l0,0L212.711,61.111z"/>
			</g>
			<g>
				<path class="st12" d="M206.949,58.378c0-0.375,0.184-0.413,0.409-0.084l0.839,1.225c0.225,0.329,0.225,0.762,0,0.964
					l-0.839,0.751c-0.225,0.202-0.409,0.06-0.409-0.315L206.949,58.378z"/>
			</g>
		</g>
	</g>
	<g>
		<path class="st12" d="M217.149,61.632l-0.002,0.59c-0.001,0.056-0.015,0.1-0.045,0.135c-0.029,0.034-0.069,0.047-0.122,0.038
			l-0.344-0.057l-0.005,1.305l-0.728-0.122l0.005-1.305l-1.818-0.304c-0.053-0.009-0.101-0.037-0.144-0.085s-0.069-0.105-0.08-0.172
			l-0.086-0.537l2.078-3.1l0.794,0.133l-0.013,3.396L217.149,61.632z M215.911,61.425l0.006-1.634c0-0.085,0.003-0.176,0.008-0.272
			c0.005-0.097,0.013-0.197,0.024-0.301l-1.283,1.999L215.911,61.425z"/>
		<path class="st12" d="M220.722,60.425l-0.02,5.159l-0.838-0.14l0.006-1.72c-0.12,0.136-0.258,0.238-0.41,0.308
			c-0.152,0.069-0.33,0.086-0.534,0.052c-0.168-0.028-0.322-0.098-0.46-0.209c-0.14-0.112-0.26-0.262-0.362-0.449
			c-0.101-0.188-0.181-0.409-0.236-0.665c-0.056-0.257-0.083-0.544-0.082-0.862c0.001-0.29,0.034-0.554,0.098-0.794
			c0.065-0.239,0.156-0.44,0.274-0.601c0.118-0.162,0.261-0.281,0.426-0.356c0.167-0.076,0.351-0.096,0.553-0.062
			c0.095,0.016,0.182,0.041,0.261,0.075c0.079,0.035,0.151,0.077,0.216,0.125c0.065,0.049,0.126,0.105,0.181,0.17
			s0.109,0.136,0.162,0.212l0.04-0.182c0.031-0.115,0.1-0.164,0.207-0.146L220.722,60.425z M219.881,61.298
			c-0.079-0.126-0.164-0.22-0.255-0.281c-0.092-0.061-0.19-0.1-0.293-0.117c-0.101-0.017-0.193-0.009-0.277,0.026
			c-0.082,0.034-0.155,0.097-0.215,0.189c-0.059,0.092-0.106,0.215-0.139,0.368c-0.033,0.153-0.05,0.34-0.051,0.559
			c-0.001,0.217,0.011,0.403,0.037,0.559c0.025,0.155,0.063,0.284,0.112,0.386c0.05,0.101,0.109,0.179,0.18,0.232
			c0.071,0.054,0.15,0.088,0.237,0.102c0.147,0.025,0.271,0.009,0.372-0.047c0.101-0.057,0.195-0.144,0.284-0.263L219.881,61.298z"
			/>
		<path class="st12" d="M224.464,61.051l-0.015,3.9l-0.516-0.086c-0.107-0.018-0.176-0.09-0.205-0.216l-0.054-0.282
			c-0.063,0.066-0.128,0.124-0.195,0.176c-0.067,0.052-0.139,0.094-0.214,0.127c-0.077,0.033-0.159,0.054-0.246,0.065
			c-0.088,0.011-0.184,0.007-0.287-0.01c-0.169-0.028-0.32-0.09-0.454-0.185c-0.131-0.095-0.242-0.216-0.33-0.362
			c-0.089-0.146-0.156-0.314-0.202-0.503s-0.069-0.393-0.068-0.61l0.01-2.477l0.838,0.14l-0.01,2.477
			c-0.001,0.217,0.038,0.392,0.118,0.526c0.079,0.133,0.198,0.213,0.356,0.239c0.117,0.02,0.228,0.006,0.331-0.041
			c0.104-0.047,0.202-0.118,0.296-0.213l0.011-2.803L224.464,61.051z"/>
		<path class="st12" d="M225.388,61.746c0.184-0.176,0.388-0.296,0.611-0.361c0.223-0.065,0.464-0.075,0.723-0.032
			c0.186,0.031,0.353,0.097,0.499,0.197c0.146,0.1,0.271,0.226,0.372,0.378c0.101,0.152,0.179,0.326,0.233,0.521
			c0.054,0.196,0.081,0.405,0.08,0.627l-0.01,2.451l-0.383-0.064c-0.079-0.013-0.139-0.037-0.18-0.072
			c-0.043-0.034-0.075-0.098-0.101-0.191l-0.066-0.261c-0.079,0.073-0.155,0.135-0.23,0.189c-0.073,0.053-0.15,0.096-0.229,0.127
			c-0.079,0.031-0.163,0.05-0.253,0.058c-0.09,0.007-0.191,0.002-0.302-0.016c-0.138-0.023-0.263-0.067-0.377-0.131
			s-0.21-0.148-0.292-0.251c-0.082-0.103-0.144-0.226-0.188-0.367c-0.044-0.141-0.066-0.298-0.065-0.472
			c0.001-0.144,0.031-0.283,0.089-0.416c0.059-0.134,0.161-0.248,0.303-0.341c0.143-0.093,0.334-0.159,0.572-0.196
			c0.238-0.037,0.537-0.031,0.895,0.019l0.001-0.2c0.001-0.245-0.04-0.431-0.123-0.56c-0.082-0.129-0.202-0.206-0.358-0.233
			c-0.116-0.019-0.212-0.018-0.288,0.003c-0.077,0.021-0.145,0.046-0.203,0.076c-0.057,0.029-0.111,0.057-0.162,0.083
			c-0.05,0.025-0.11,0.033-0.177,0.021c-0.059-0.01-0.107-0.036-0.146-0.079c-0.04-0.043-0.072-0.092-0.098-0.147L225.388,61.746z
			 M227.086,63.76c-0.204-0.021-0.374-0.028-0.51-0.019c-0.136,0.009-0.243,0.032-0.324,0.068c-0.08,0.038-0.137,0.085-0.17,0.144
			c-0.034,0.059-0.051,0.126-0.052,0.202c0,0.151,0.033,0.264,0.101,0.339c0.068,0.074,0.162,0.121,0.283,0.141
			c0.14,0.024,0.261,0.013,0.363-0.032c0.103-0.045,0.206-0.124,0.306-0.238L227.086,63.76z"/>
		<path class="st12" d="M229.721,60.19l-0.022,5.64l-0.837-0.14l0.022-5.64L229.721,60.19z"/>
		<path class="st12" d="M231.681,61.15c0,0.088-0.014,0.168-0.043,0.239c-0.028,0.071-0.066,0.131-0.115,0.181
			c-0.047,0.051-0.103,0.087-0.167,0.109c-0.064,0.022-0.133,0.027-0.206,0.015c-0.068-0.011-0.133-0.039-0.194-0.082
			c-0.062-0.043-0.115-0.098-0.162-0.164c-0.046-0.066-0.083-0.139-0.11-0.219c-0.027-0.08-0.04-0.164-0.04-0.252
			c0.001-0.089,0.014-0.169,0.043-0.241c0.027-0.072,0.064-0.133,0.111-0.184c0.047-0.05,0.101-0.086,0.162-0.109
			c0.063-0.022,0.128-0.028,0.196-0.016c0.073,0.012,0.142,0.04,0.204,0.083c0.064,0.043,0.12,0.098,0.167,0.164
			c0.047,0.067,0.085,0.141,0.114,0.222C231.668,60.977,231.682,61.062,231.681,61.15z M231.578,62.241l-0.015,3.9l-0.838-0.14
			l0.015-3.9L231.578,62.241z"/>
		<path class="st12" d="M232.526,62.941c0.184-0.176,0.388-0.296,0.611-0.36c0.223-0.066,0.464-0.076,0.723-0.033
			c0.186,0.031,0.353,0.097,0.499,0.197c0.146,0.101,0.271,0.226,0.372,0.378c0.101,0.152,0.179,0.326,0.233,0.521
			c0.054,0.196,0.08,0.405,0.079,0.627l-0.01,2.451l-0.382-0.064c-0.079-0.013-0.139-0.037-0.181-0.072
			c-0.042-0.034-0.075-0.098-0.101-0.191l-0.066-0.261c-0.079,0.073-0.155,0.135-0.23,0.189c-0.073,0.053-0.15,0.096-0.229,0.127
			s-0.163,0.05-0.253,0.058c-0.091,0.008-0.191,0.003-0.303-0.016c-0.137-0.023-0.262-0.067-0.376-0.131
			c-0.114-0.064-0.21-0.148-0.293-0.251c-0.081-0.103-0.144-0.225-0.188-0.366c-0.044-0.141-0.066-0.299-0.066-0.473
			c0.001-0.144,0.031-0.283,0.09-0.416c0.059-0.134,0.161-0.248,0.303-0.341c0.143-0.093,0.333-0.159,0.572-0.196
			c0.238-0.037,0.536-0.03,0.894,0.019l0.001-0.2c0.001-0.245-0.04-0.431-0.122-0.56c-0.083-0.129-0.202-0.206-0.358-0.232
			c-0.116-0.02-0.212-0.018-0.289,0.003c-0.076,0.021-0.144,0.046-0.203,0.076c-0.057,0.029-0.111,0.058-0.162,0.083
			c-0.05,0.025-0.109,0.033-0.176,0.022c-0.059-0.01-0.107-0.036-0.146-0.08c-0.04-0.043-0.072-0.092-0.098-0.147L232.526,62.941z
			 M234.224,64.955c-0.204-0.022-0.374-0.028-0.509-0.019c-0.136,0.009-0.243,0.032-0.324,0.068c-0.08,0.038-0.137,0.085-0.17,0.144
			c-0.034,0.06-0.051,0.126-0.052,0.202c0,0.151,0.033,0.264,0.101,0.339c0.068,0.074,0.162,0.122,0.282,0.141
			c0.14,0.024,0.261,0.013,0.364-0.032c0.102-0.045,0.205-0.124,0.306-0.238L234.224,64.955z"/>
	</g>
</g>
<g>
	<polygon class="st0" points="8.244,158.43 3.421,159.785 0.537,161.497 20.768,174.601 41.193,160.159 37.425,158.567 	"/>
	<g>
		<g>
			<polygon class="st35" points="20.768,172.09 3.421,159.785 20.768,129.179 			"/>
		</g>
		<g>
			<polygon class="st36" points="20.768,172.09 20.768,129.179 38.116,159.785 			"/>
		</g>
		<g>
			<polygon class="st37" points="20.768,160.159 20.768,129.179 8.244,151.275 			"/>
		</g>
		<g>
			<polygon class="st38" points="20.768,129.179 20.768,160.159 33.292,151.275 			"/>
		</g>
		<g>
			<polygon class="st39" points="20.768,148.227 20.768,129.179 13.068,142.765 			"/>
		</g>
		<g>
			<polygon class="st40" points="20.768,129.179 20.768,148.227 28.469,142.765 			"/>
		</g>
	</g>
</g>
<g>
	
		<ellipse transform="matrix(0.9802 -0.1982 0.1982 0.9802 -36.5798 17.712)" class="st0" cx="70.195" cy="191.599" rx="24.714" ry="11.687"/>
	<path class="st25" d="M95.817,92.676c0,0-0.407,9.963-5.286,10.979c-5.132,1.069-5.398-1.286-5.398-1.286s1.379-14.936,2.188-14.72
		C88.129,87.864,95.817,92.676,95.817,92.676z"/>
	<path class="st25" d="M92.112,115.718l8.371,0.28c0,0,4.367-0.136,5.406,1.656c1.039,1.792,4.476,2.708,0.769,2.803
		c-3.707,0.096-5.311-1.198-5.473-0.591c-0.162,0.607,2.441,3.032,0.365,2.696c-2.076-0.336-7.86-3.825-7.86-3.825L92.112,115.718z"
		/>
	<path class="st25" d="M117.293,120.515c0.333-1.828,1.048-4.832,1.048-4.832l-3.754-2.413l-1.207,1.341l0.164,2.817
		c-0.15,0.021-0.242,0.036-0.242,0.036s-0.243-1.797-1.268-1.204c-1.024,0.593-2.344,5.006-2.344,5.006l-11.523,6.676
		c0,0-3.496-13.707-6.678-18.02c-3.183-4.312-1.405-1.781-2.549-2.628c-6.391-4.734-3.155,10.493-3.155,10.493
		s8,19.021,10.579,18.553c2.579-0.468,15.78-11.822,15.78-11.822s1.623,1.377,4.187-1.628c0.335-0.392,0.557-0.774,0.71-1.144
		l0.092,0.103c-0.015-0.061-0.009-0.194,0.009-0.37C117.249,121.144,117.296,120.822,117.293,120.515z"/>
	<polygon class="st25" points="88.497,102.638 85.142,106.298 85.955,107.721 76.196,107.111 82.499,101.012 	"/>
	<path class="st41" d="M95.817,89.321l0.712,2.033l-0.712,2.237l-1.118-1.322l-1.017,1.322l-0.915-1.423l-1.118,0.813l-1.017-0.915
		l-1.118,2.948c0,0-0.813-2.338-1.423-0.813c-0.61,1.525-1.322,1.22-0.61,2.643c0.712,1.423,0.915,2.338,0.915,2.338
		s-1.83,4.575-5.591,3.965s-4.981-6.811-3.558-11.284C80.669,87.389,85.65,80.781,95.817,89.321z"/>
	<polygon class="st42" points="85.905,106.349 80.872,105.434 79.805,102.994 74.925,104.367 70.881,106.834 70.808,117.938 
		77.213,117.786 87.43,108.484 	"/>
	<g>
		<path class="st43" d="M81.729,179.95c-0.401-0.347-0.561-0.773-0.513-1.31c0.395-4.428,0.019-8.868,0.207-13.3
			c0.101-2.372,0.955-4.577,1.415-6.868c0.154-0.77,0.092-1.328-0.535-1.849c-3.604-2.997-7.199-6.004-10.774-9.035
			c-0.681-0.577-0.779-0.069-0.988,0.389c-2.27,4.969-4.56,9.928-6.806,14.907c-0.644,1.428-1.273,2.863-2.247,4.094
			c-1.868,2.36-1.998,5.241-2.504,8.017c-0.716,3.934-1.154,7.883-0.742,11.886c0.081,0.784-0.074,1.405-1.003,1.517
			c-0.586,0.983-1.642,0.984-2.578,1.2c-1.004,0.232-2.022,0.263-3.027-0.044c-0.77-4.414-0.021-8.847-0.18-13.262
			c-0.177-4.926,1.34-9.387,3.223-13.782c1.718-4.009,2.452-8.236,3.074-12.512c0.42-2.893,0.634-5.793,0.748-8.708
			c0.127-3.249,1.463-6.116,2.88-8.954c0.254-0.509,0.503-1.021,0.754-1.531c1.684,0.062,3.284,0.656,4.954,0.797
			c4.729,0.4,8.76,2.513,12.607,5.089c0.239,0.16,0.483,0.315,0.549,0.626c-0.591,1.387-0.077,2.579,0.733,3.661
			c2.588,3.454,5.116,6.959,7.852,10.293c1.843,2.246,2.336,4.373,1.382,7.244c-2.142,6.452-2.587,13.191-2.57,19.959
			c0.001,0.551,0.18,1.187-0.518,1.508C85.766,181.328,83.035,181.313,81.729,179.95z"/>
		<path class="st44" d="M59.243,193.804c1.342,1.772,3.089,3.011,5.093,3.935c0.506,0.233,1.119,0.573,0.978,1.256
			c-0.125,0.605-0.774,0.63-1.288,0.771c-1.748,0.479-3.513,0.793-5.337,0.719c-0.902-0.036-1.665-0.298-2.301-0.98
			c-1.039-1.114-2.243-2.037-3.53-2.85c-0.199-0.126-0.426-0.395-0.638-0.181c-0.136,0.138-0.109,0.453-0.123,0.691
			c-0.007,0.116,0.098,0.242,0.083,0.355c-0.077,0.576,0.832,1.448-0.369,1.675c-1.023,0.193-1.956-0.669-1.97-1.659
			c-0.017-1.273-0.002-2.547-0.004-3.821c-0.003-1.472,1.198-2.38,1.689-3.62c0.563,0.344,0.452,1.022,0.743,1.506
			c0.849,1.411,1.982,2.516,3.462,3.231C57.524,195.697,58.238,195.469,59.243,193.804z"/>
		<path class="st44" d="M88.203,183.174c1.248,1.566,2.941,2.269,4.86,2.621c0.639,0.117,1.606,0.226,1.635,1.024
			c0.03,0.81-0.916,0.918-1.559,1.156c-2.406,0.892-4.696,0.99-6.862-0.732c-0.687-0.546-1.611-0.801-2.44-1.159
			c-0.808-0.35-0.94,0.095-0.842,0.767c0.006,0.04,0.033,0.083,0.025,0.12c-0.113,0.544,1.036,1.379-0.292,1.624
			c-1.768,0.326-2.169,0.004-2.248-1.594c-0.064-1.29-0.726-2.538-0.249-3.869c0.222-0.62,0.398-1.256,0.949-1.686
			c0.259,0.047,0.436,0.22,0.579,0.417c1.511,2.081,3.484,2.296,5.726,1.422C87.718,183.194,87.959,183.181,88.203,183.174z"/>
		<path class="st25" d="M59.243,193.804c0.248,1.131-0.232,1.763-1.48,1.951c-2.402,0.363-6.332-3.204-6.237-5.66
			c0.036-0.18,0.072-0.36,0.108-0.541c0.195-0.161,0.221-0.533,0.634-0.416c1.765,0.504,3.356-0.212,4.971-0.742
			C56.965,190.548,57.91,192.248,59.243,193.804z"/>
		<path class="st25" d="M88.203,183.174c-2.338,2.036-5.973,1.141-7.022-1.728c0.183-0.499,0.365-0.997,0.548-1.496
			c1.794,0.681,3.592,0.74,5.394,0.031C87.337,181.095,87.507,182.223,88.203,183.174z"/>
	</g>
	<path class="st41" d="M64.202,127.283c0,0-1.162,1.877-2.033,3.218c0.201,1.207,1.743,5.162,6.569,6.904
		c0,0,6.837,3.195,10.993,1.05l0.871-2.324L64.202,127.283z"/>
	<path class="st42" d="M86.447,105.547c0,0,2.246-0.845,4.89,3.323c0,0-4.564,1.961-5.496,9.797l1.844,2.931
		c0,0,1.083,3.303-2.135,4.778c-4.704,2.156-4.524,9.251-4.524,9.251s-1.073,2.905-10.457-0.715
		c-8.711-3.36-5.899-8.401-5.899-8.401l6.212-19.677L86.447,105.547z"/>
	<path class="st41" d="M91.304,109.381c0,0-2.145,0.715-3.486,3.218c-1.341,2.503-1.966,5.184-0.715,8.223
		c0,0-2.234-1.698-2.234-5.363c0-3.708,3.664-7.061,5.81-7.418C90.678,108.041,92.198,108.219,91.304,109.381z"/>
	<path class="st41" d="M80.262,92.269c0,0-3.66,0.102-4.575,1.932c-0.915,1.83-2.745,5.185-1.22,6.71s1.525,4.066,0.712,5.286
		c-0.813,1.22-1.932,3.456-0.915,4.371c1.017,0.915-0.61,1.932,1.017,3.965c0,0,0.813-2.643,2.643-2.135s-0.508-2.338,0.407-3.863
		c0.915-1.525,2.135-0.508,1.932-2.338s-1.932-1.83-1.423-3.456s-1.22-2.44,1.525-3.355C83.109,98.47,84.939,91.659,80.262,92.269z"
		/>
</g>
</svg>
