<?xml version="1.0" encoding="utf-8"?>
<!-- Generator: Adobe Illustrator 24.2.1, SVG Export Plug-In . SVG Version: 6.00 Build 0)  -->
<svg version="1.1" id="レイヤー_1" xmlns="http://www.w3.org/2000/svg" xmlns:xlink="http://www.w3.org/1999/xlink" x="0px"
	 y="0px" viewBox="0 0 100 150" style="enable-background:new 0 0 100 150;" xml:space="preserve">
<style type="text/css">
	.st0{fill:#91A5D7;}
	.st1{fill:#5E7AA1;}
	.st2{fill:#EEF7FF;}
	.st3{opacity:0.5;}
	.st4{fill:#CCD2D6;}
	.st5{fill:#F2DBCC;}
	.st6{fill:#CCB8A0;}
	.st7{fill:#EFDECB;}
	.st8{fill:#DDDDDD;}
	.st9{fill:#FFFFFF;}
	.st10{fill:#BCBCBC;}
	.st11{fill:#DFE9F2;}
	.st12{fill:#35476D;}
	.st13{fill:#573847;}
	.st14{fill:#D69D76;}
	.st15{fill:#E27091;}
	.st16{fill:#C4C4C4;}
	.st17{fill:#B864EB;}
	.st18{fill:#FF4960;}
	.st19{fill:#7F466B;}
	.st20{fill:none;stroke:#FFFFFF;stroke-width:0.5;stroke-linecap:round;stroke-linejoin:round;stroke-miterlimit:10;}
</style>
<g>
	<g>
		<polygon class="st0" points="15.7,49.75 6.504,37.039 32.663,34.776 42.543,46.63 		"/>
	</g>
	<g>
		<polygon class="st1" points="15.7,49.75 15.978,49.432 6.847,37.035 6.531,37.028 		"/>
	</g>
	<g>
		<polygon class="st2" points="41.83,47.097 15.7,49.75 15.92,49.305 42.562,46.646 		"/>
	</g>
</g>
<g class="st3">
	<g>
		<ellipse class="st4" cx="24.552" cy="137.566" rx="18.883" ry="9.224"/>
	</g>
</g>
<g>
	<g>
		<polygon class="st5" points="54.638,52.292 48.981,46.182 53.045,42.263 57.62,45.027 		"/>
	</g>
	<g>
		<g>
			<g>
				<g>
					<path class="st6" d="M48.048,46.158l0.906,0.532l0.201-0.536l15.251-4.86c0.57-0.181,0.856-0.8,0.637-1.376l-8.555-22.505
						l0.199-0.532l-0.889-0.522l0,0.001c-0.273-0.158-0.603-0.208-0.912-0.11L39.38,21.193c-0.569,0.181-0.856,0.8-0.637,1.375
						l8.725,22.952C47.577,45.805,47.79,46.028,48.048,46.158z"/>
				</g>
				<g>
					<path class="st7" d="M57.224,17.499c-0.219-0.575-0.863-0.897-1.433-0.716l-15.505,4.942c-0.569,0.181-0.856,0.8-0.637,1.375
						l8.725,22.952c0.219,0.575,0.863,0.897,1.432,0.716l15.506-4.941c0.569-0.181,0.856-0.801,0.637-1.376L57.224,17.499z"/>
				</g>
				<g>
					<path class="st8" d="M40.333,21.85c-0.502,0.16-0.754,0.703-0.561,1.211l8.725,22.952c0.193,0.507,0.758,0.79,1.26,0.63
						L65.264,41.7c0.502-0.16,0.754-0.703,0.561-1.21l-8.725-22.952c-0.193-0.508-0.758-0.79-1.26-0.63L40.333,21.85z"/>
				</g>
				<g>
					<polygon class="st9" points="56.586,19.05 41.201,23.953 49.005,44.483 64.39,39.579 					"/>
				</g>
			</g>
		</g>
		<g>
			
				<ellipse transform="matrix(0.9099 -0.4149 0.4149 0.9099 -12.503 27.9292)" class="st10" cx="58.03" cy="42.741" rx="0.567" ry="0.676"/>
		</g>
	</g>
	<g>
		<g>
			<polygon class="st11" points="44.973,28.707 57.07,25.655 56.551,24.751 44.474,27.798 			"/>
		</g>
		<g>
			<polygon class="st11" points="43.82,26.634 55.883,23.59 55.364,22.687 43.321,25.725 			"/>
		</g>
		<g>
			<polygon class="st11" points="45.846,30.118 46.345,31.027 58.408,27.983 57.889,27.08 			"/>
		</g>
	</g>
	<g>
		<g>
			<polygon class="st11" points="48.285,36.051 60.382,32.999 59.863,32.095 47.786,35.142 			"/>
		</g>
		<g>
			<polygon class="st11" points="47.132,33.977 59.195,30.934 58.676,30.031 46.633,33.069 			"/>
		</g>
		<g>
			<polygon class="st11" points="49.158,37.462 49.657,38.37 61.72,35.327 61.201,34.424 			"/>
		</g>
	</g>
	<g>
		<path class="st5" d="M60.533,25.974c0,0-2.304-1.872-4.176-1.44s-2.448-2.448-3.744-1.584c-1.296,0.864,2.16,3.168,2.16,3.168
			l0.576,2.304c0,0-0.288,0.864-1.728,1.44c-1.44,0.576-2.16,1.728-0.864,1.728c1.296,0,3.6-1.44,3.6-1.44l2.592,0.432
			L60.533,25.974z"/>
	</g>
</g>
<g class="st3">
	<g>
		<ellipse class="st4" cx="69.226" cy="128.926" rx="20.865" ry="9.224"/>
	</g>
</g>
<g>
	<path class="st12" d="M66.53,123.133l3.736,8.594c0.085,0.196,0.136,0.405,0.15,0.619l0.247,3.711
		c0.078,1.163-0.92,2.115-2.077,1.974c-1.955-0.239-4.753-0.688-6.501-1.437c-2.183-0.936-5.302-1.637-6.722-1.929
		c-0.491-0.101-0.914-0.394-1.185-0.816l-1.315-2.046c-0.826-1.286,0.162-2.964,1.687-2.866l6.909,0.446
		c1.18,0.076,2.131-0.952,1.964-2.122l-0.446-3.122c-0.207-1.449,1.262-2.56,2.6-1.965l0,0
		C66.005,122.363,66.344,122.706,66.53,123.133z"/>
</g>
<g>
	<path class="st12" d="M79.191,119.532c0,0-4.985-0.415-6.647,0.415c-1.662,0.831,0.107,2.79,0.107,2.79l3.849,4.409
		c0.399,0.452,0.649,1.017,0.716,1.616l0,0c0.175,1.571,1.563,2.721,3.14,2.6l0.208-0.016c1.416-0.109,2.56-1.214,2.693-2.628
		c0.204-2.157,0.263-5.186-0.743-6.694C80.853,119.532,79.191,119.532,79.191,119.532z"/>
</g>
<g>
	<g>
		<path class="st1" d="M83.141,59.526l1.408,11.463c0.069,0.564,0.064,1.134-0.016,1.696l-3,21.13l1.562,29.405
			c0,0-3.903,5.238-6.396-0.244c-2.493-5.482-3.739-25.126-3.739-25.126l0.245-23.421l-1.512,0.864l-2.888,27.125l1.246,27.41
			c0,0-4.154,2.741-6.647-0.914c-2.493-3.655-4.455-29.862-4.455-29.862l0.216-38.88L83.141,59.526z"/>
	</g>
</g>
<g>
	<path class="st13" d="M34.901,140.022c0,0-0.288-2.172-0.288-4.471c0-2.299-0.864-3.449-2.304-3.449s-1.152,3.704-1.152,3.704
		L34.901,140.022z"/>
</g>
<g>
	<path class="st5" d="M39.941,83.142l-4.32,23.904l-3.168,20.16c0,0-1.008,9.216-2.16,11.52s-1.872,1.152-1.872,1.152l-2.304-4.608
		l3.888-48.528L39.941,83.142z"/>
</g>
<g>
	<path class="st5" d="M35.261,21.654c0,0-3.024,5.832,1.728,6.912c4.752,1.08,8.598,1.366,9.72,4.968
		c1.368,4.392-0.171,12.915-2.232,21.456c-1.512,6.264-4.968,1.152-4.968-1.656s0.936-10.728,0.936-10.728l-20.249-6.209
		c0,0-1.557,8.594-2.238,10.88c-0.697,2.34,2.236-0.591,2.236-0.591L20.4,49.17c0.172,2.066-0.776,4.07-2.497,5.224
		c-2.518,1.69-5.968,3.341-6.769,0.404c-1.296-4.752,2.779-25.188,6.667-25.404c3.888-0.216,5.796,1.116,8.172-1.476
		s3.024-8.856,3.024-8.856L35.261,21.654z"/>
</g>
<g>
	<path class="st5" d="M38.753,6.174c1.08,2.592,1.512,8.1,0.864,9.936c-0.648,1.836,0.304,5.82-2.984,7.85
		c-1.626,1.004-2.821-0.032-3.793,1.264c-0.972,1.296-0.999,1.793-0.999,1.793l-3.996-1.296v-4.644L38.753,6.174z"/>
</g>
<g>
	<path class="st14" d="M39.575,6.75c0.697,0.347-0.7,6.966-1.888,9.45s-1.465-1.409-2.81-0.389
		c-2.079,1.578,0.631,4.726-0.994,5.901c-0.875,0.633-3.799-0.444-7.241,5.306c-0.59,0.985,5.748,5.36,2.616,9.032
		c0,0-5.843-0.898-8.003-1.978S20.779,27.531,20.42,16.2C20.206,9.459,23.919-1.047,39.575,6.75z"/>
</g>
<g>
	<path class="st13" d="M32.453,134.118c0,0-4.32,1.008-5.184,0.864c-0.864-0.144-1.296-1.008-1.296-1.008s-0.864,1.296-1.008,3.456
		s1.008,5.472,1.008,5.472s4.752,0.144,5.616-0.288c0.864-0.432,2.736-2.016,3.312-2.592S32.453,134.118,32.453,134.118z"/>
	<path class="st13" d="M26.094,140.022c0,0-0.288-2.172-0.288-4.471c0-2.299-0.864-3.449-2.304-3.449s-1.152,3.704-1.152,3.704
		L26.094,140.022z"/>
	<g>
		<path class="st5" d="M31.134,83.142l-4.32,23.904l-3.168,20.16c0,0-1.008,9.216-2.16,11.52s-1.872,1.152-1.872,1.152l-2.304-4.608
			l3.888-48.528L31.134,83.142z"/>
	</g>
	<path class="st13" d="M23.646,134.118c0,0-4.32,1.008-5.184,0.864c-0.864-0.144-1.296-1.008-1.296-1.008s-0.864,1.296-1.008,3.456
		s1.008,5.472,1.008,5.472s4.752,0.144,5.616-0.288c0.864-0.432,2.736-2.016,3.312-2.592S23.646,134.118,23.646,134.118z"/>
</g>
<g>
	<path class="st15" d="M64.709,23.238c0,0-6.912,4.32-7.776,7.776s-3.168,14.976-3.168,17.568s0.864,5.472,3.456,4.608l0.288,8.64
		c0,0,3.744,6.048,11.52,5.184c7.776-0.864,16.128-3.744,16.128-3.744l1.152-9.792c0,0,3.168,2.88,2.88-3.744
		c-0.288-6.624,3.456-24.48-7.2-24.768S64.709,23.238,64.709,23.238z"/>
</g>
<path class="st5" d="M65.89,8.787c0,0-1.369,3.939-1.228,5.412c0.14,1.472,0.609,4.851,0.609,4.851l1.849,3.761l2.248,0.428v0.758
	c0,0-0.57,1.791,2.314,1.58c2.884-0.211,5.624-1.335,5.624-1.335l-1.681-8.5L65.89,8.787z"/>
<path class="st13" d="M64.39,7.101c0,0,1.258-3.572,3.573-3.985s8.5-0.773,9.413,1.992c0.913,2.765,2.318,2.343,1.897,5.715
	c-0.421,3.372,0.421,3.887-1.124,5.772c-1.545,1.885-0.913,1.923-2.107,2.466c-1.194,0.543-2.248,1.526-2.248,2.299
	s0.37,1.286-0.281,1.426c-0.651,0.14-1.47-0.411-1.47-0.411s-4.36,0.67-4.641-1.367s-0.562-2.81-0.843-3.442
	s1.686-4.004,1.054-4.566c-0.632-0.562-1.899,0.421-2.495-0.07C64.521,12.44,61.785,10.703,64.39,7.101z"/>
<path class="st13" d="M64.732,8.015c0,0-1.897-0.773-1.826,1.756c0.07,2.529,1.192,5.353,0.912,6.961s-1.755,2.311-1.755,4.278
	s0.948,2.637,0,3.741l-0.917,1.079c0,0,2.74-1.8,3.971-1.519c1.231,0.281,1.424-1.475,0.906-2.81
	c-0.518-1.335-1.01-2.069-0.448-2.439c0.562-0.37,0.632-0.859,1.001-1.977c0.369-1.119-2.406-2.979-0.931-4.479
	C67.12,11.105,64.732,8.015,64.732,8.015z"/>
<path class="st9" d="M65.117,24.312c0,0,2.284,9.076,3.127,9.666c0.843,0.59,3.188,2.908,3.438,3.224
	c0.25,0.316,3.104,3.583,3.942,3.688c0.838,0.105,6.212-4.636,6.528-5.479c0.316-0.843,1.686-6.704,1.686-6.704l-3.477-3.955
	l-1.883-0.091l-9.111-0.664l-3.146-0.474L65.117,24.312z"/>
<polygon class="st16" points="65.117,24.312 68.771,32.671 74.043,39.73 76.779,39.73 82.153,35.411 82.153,27.824 79.349,23.522 
	84.597,28.707 82.679,36.886 75.624,42.741 66.61,34.424 64.39,25.83 "/>
<path class="st1" d="M68.479,32.004l5.665,5.233l3.161,0.637l4.847-2.464c0,0-2.95,4.319-5.374,4.319c-2.423,0-2.736,0-2.736,0
	S68.644,33.866,68.479,32.004z"/>
<g>
	<path class="st13" d="M74.566,6.891c0,0-1.335-1.054,1.054-2.248c2.388-1.194,4.145-1.151,4.425,1.532s-0.421,5.914,0,7.671
		c0.421,1.756,0.773,2.107,1.124,3.723s-1.11,2.875-1.82,4.809s-1.201,2.034-0.709,3.951s2.07,2.268-0.932,4.025
		c-3.002,1.756,0.651,3.302,0.3,4.566c-0.351,1.264-3.653,2.81-4.566,2.95c-0.913,0.14,2.107-2.599,0.492-3.161
		s-4.355,1.194-3.442-1.475c0.913-2.669,2.493-6.806,0.825-6.599s-1.774-0.636,0-3.095s-0.544-1.437-0.404-4.477
		c0.14-3.04,0.414-8.027,0.769-9.573C72.037,7.944,74.566,6.891,74.566,6.891z"/>
	<path class="st17" d="M77.868,3.907c0,0-0.722-1.001-1.686-0.79c-0.964,0.211-1.124,0.378-1.545,0.776s-1.545,0.258-1.686,1.171
		c-0.14,0.913,0,1.756,0,1.756s-0.511,1.389-0.734,1.687c-0.223,0.298-0.242,0.561,0,0.912c0.242,0.351,1.015-1.768,1.577-1.516
		c0.562,0.252,1.162-1.638,1.162-1.638S76.408,3.893,77.868,3.907z"/>
</g>
<path class="st14" d="M36.917,7.101c0,0,0.373-1.292,1.836-0.927c1.463,0.365,1.954-0.209,1.744,1.729s0.913,0.954,1.124,2.921
	c0.211,1.967-1.747,3.864-1.747,3.864s0.642-1.968-0.597-3.934S36.917,7.101,36.917,7.101z"/>
<circle class="st18" cx="35.365" cy="20.178" r="1.128"/>
<g>
	<path class="st19" d="M35.189,27.27l7.776,2.304l1.176-0.207c0.933-0.164,1.823,0.455,1.994,1.387l0.502,2.744
		c0,0-1.836-2.142-3.564,0.162s-2.988,5.994-2.988,5.994l0.288,3.6l-2.016,13.392c0,0,4.265,12.286,3.545,18.91
		c-0.72,6.624,0.165,25.817,0.165,25.817s-10.175,1.052-16.919,1.052s-15.78-3.056-15.78-3.056s2.609-26.448,4.221-31.084
		c1.004-2.886,5.4-12.107,5.4-12.107s1.98-10.008,0.54-14.04S18.233,32.04,18.233,32.04l-2.214-1.566l0.722-1.206
		c0.352-0.588,1.047-0.876,1.712-0.71l1.761,0.44c0,0,3.024,0.144,3.456,0s2.304-1.08,2.304-1.08S28.853,24.822,35.189,27.27z"/>
</g>
<g>
	<path class="st9" d="M35.189,27.27l-1.008-1.44l-6.912,0.288l-2.736,2.736c0,0,7.2,0.144,7.632,0
		c0.432-0.144,4.752-1.008,4.752-1.008L35.189,27.27z"/>
</g>
<path class="st20" d="M9.718,93.301c0,0,13.037,6.954,32.268,1.897"/>
<path class="st20" d="M9.718,95.666c0,0,13.037,6.954,32.268,1.897"/>
</svg>
