<?xml version="1.0" encoding="utf-8"?>
<!-- Generator: Adobe Illustrator 24.3.0, SVG Export Plug-In . SVG Version: 6.00 Build 0)  -->
<svg version="1.1" id="レイヤー_1" xmlns="http://www.w3.org/2000/svg" xmlns:xlink="http://www.w3.org/1999/xlink" x="0px"
	 y="0px" viewBox="0 0 34 34" style="enable-background:new 0 0 34 34;" xml:space="preserve">
<style type="text/css">
	.st0{fill-rule:evenodd;clip-rule:evenodd;fill:#47A7FF;}
</style>
<path class="st0" d="M16.914,33.22c-8.992,0-16.307-7.315-16.307-16.306c0-8.992,7.315-16.307,16.307-16.307
	c8.991,0,16.306,7.315,16.306,16.307C33.22,25.905,25.905,33.22,16.914,33.22z M16.913,4.759C10.211,4.76,4.759,10.212,4.759,16.914
	s5.452,12.155,12.155,12.155c6.702,0,12.154-5.453,12.154-12.155C29.06,10.22,23.607,4.768,16.913,4.759z M16,23.739
	c-0.395,0.347-0.87,0.53-1.372,0.53c-0.885,0-1.723-0.582-2.036-1.416c-0.284-0.755-0.068-1.567,0.562-2.121l4.228-3.712
	l-4.279-3.923c-0.619-0.569-0.82-1.389-0.526-2.144c0.32-0.82,1.147-1.394,2.012-1.394c0.512,0,0.992,0.193,1.389,0.557l5.939,5.445
	c0.409,0.375,0.639,0.929,0.633,1.522c-0.006,0.578-0.242,1.115-0.647,1.47L16,23.739z"/>
</svg>
