<svg 
 xmlns="http://www.w3.org/2000/svg"
 xmlns:xlink="http://www.w3.org/1999/xlink"
 width="17px" height="17px">
<path fill-rule="evenodd"  fill="rgb(71, 167, 255)"
 d="M16.202,13.199 L13.199,13.199 L13.199,16.204 C13.199,16.550 12.918,16.833 12.570,16.833 L0.960,16.833 C0.611,16.833 0.330,16.550 0.330,16.204 L0.330,4.592 C0.330,4.245 0.611,3.962 0.960,3.962 L3.962,3.962 L3.962,0.960 C3.962,0.611 4.243,0.330 4.592,0.330 L9.651,0.330 C9.999,0.330 10.280,0.611 10.280,0.960 C10.280,1.308 9.999,1.589 9.651,1.589 L5.221,1.589 L5.221,11.940 L15.572,11.940 L15.572,7.666 C15.572,7.317 15.855,7.036 16.202,7.036 C16.550,7.036 16.831,7.317 16.831,7.666 L16.831,12.570 C16.831,12.918 16.550,13.199 16.202,13.199 ZM11.940,13.199 L4.592,13.199 C4.243,13.199 3.962,12.918 3.962,12.570 L3.962,5.221 L1.589,5.221 L1.589,15.574 L11.940,15.574 L11.940,13.199 ZM16.202,5.284 C15.855,5.284 15.572,5.001 15.572,4.655 L15.572,2.479 L10.437,7.615 C10.314,7.737 10.152,7.800 9.993,7.800 C9.831,7.800 9.670,7.737 9.548,7.615 C9.300,7.370 9.300,6.971 9.548,6.724 L14.682,1.589 L12.509,1.589 C12.160,1.589 11.879,1.308 11.879,0.960 C11.879,0.611 12.160,0.330 12.509,0.330 L16.202,0.330 C16.242,0.330 16.281,0.334 16.321,0.340 C16.361,0.349 16.401,0.361 16.439,0.376 C16.458,0.385 16.477,0.393 16.494,0.401 C16.550,0.431 16.600,0.469 16.647,0.515 C16.739,0.607 16.798,0.720 16.821,0.840 C16.825,0.861 16.827,0.882 16.829,0.903 C16.831,0.905 16.831,0.905 16.829,0.907 C16.831,0.926 16.831,0.943 16.831,0.960 L16.831,1.021 L16.831,4.655 C16.831,5.001 16.550,5.284 16.202,5.284 Z"/>
</svg>