<?xml version="1.0" encoding="utf-8"?>
<!-- Generator: Adobe Illustrator 22.1.0, SVG Export Plug-In . SVG Version: 6.00 Build 0)  -->
<svg version="1.1" id="レイヤー_1" xmlns="http://www.w3.org/2000/svg" xmlns:xlink="http://www.w3.org/1999/xlink" x="0px"
	 y="0px" viewBox="0 0 40 32" style="enable-background:new 0 0 40 32;" xml:space="preserve">
<style type="text/css">
	.st0{fill:#FFFFFF;}
</style>
<g>
	<path class="st0" d="M22.78,30.72L20.259,28.2c-1.6,1.04-3.52,1.561-5.76,1.561c-1.627,0-3.066-0.267-4.32-0.801
		c-1.253-0.533-2.387-1.306-3.399-2.319c-0.72-0.721-1.273-1.486-1.66-2.301c-0.387-0.812-0.66-1.686-0.82-2.619
		c-0.16-0.933-0.254-1.933-0.279-3c-0.027-1.066-0.04-2.213-0.04-3.44c0-1.226,0.013-2.373,0.04-3.44
		c0.025-1.066,0.119-2.066,0.279-3c0.16-0.933,0.434-1.806,0.82-2.62s0.94-1.58,1.66-2.3c1.013-1.013,2.146-1.786,3.399-2.32
		c1.254-0.533,2.693-0.8,4.32-0.8c1.626,0,3.061,0.267,4.3,0.8c1.24,0.534,2.366,1.307,3.38,2.32c0.721,0.72,1.273,1.487,1.66,2.3
		s0.667,1.687,0.84,2.62c0.174,0.934,0.273,1.934,0.301,3c0.026,1.067,0.04,2.214,0.04,3.44c0,1.067-0.007,2.067-0.021,3
		c-0.014,0.934-0.073,1.814-0.18,2.64c-0.107,0.827-0.28,1.607-0.521,2.34c-0.239,0.733-0.587,1.434-1.04,2.1L25.7,27.8L22.78,30.72
		z M19.4,11.9c-0.04-0.893-0.114-1.633-0.221-2.22c-0.106-0.586-0.253-1.06-0.439-1.42c-0.187-0.36-0.414-0.687-0.68-0.98
		c-0.4-0.453-0.9-0.82-1.5-1.1C15.959,5.9,15.273,5.76,14.5,5.76s-1.467,0.14-2.08,0.42c-0.613,0.28-1.12,0.646-1.52,1.1
		c-0.268,0.294-0.487,0.62-0.66,0.98c-0.174,0.36-0.313,0.833-0.42,1.42c-0.107,0.587-0.181,1.327-0.22,2.22
		c-0.04,0.894-0.061,2.02-0.061,3.38c0,1.36,0.021,2.487,0.061,3.38c0.039,0.894,0.112,1.634,0.22,2.22
		c0.106,0.586,0.246,1.06,0.42,1.419c0.173,0.36,0.393,0.688,0.66,0.98c0.399,0.454,0.906,0.82,1.52,1.1
		c0.613,0.28,1.307,0.42,2.08,0.42c0.72,0,1.333-0.173,1.84-0.52l-2.479-2.44l2.96-2.919l2.12,2.12
		c0.213-0.613,0.353-1.366,0.42-2.26c0.066-0.893,0.1-2.06,0.1-3.5C19.459,13.92,19.44,12.794,19.4,11.9z"/>
	<path class="st0" d="M32.458,29.52V23.6h5.96v5.92H32.458z"/>
</g>
</svg>
