<svg 
 xmlns="http://www.w3.org/2000/svg"
 xmlns:xlink="http://www.w3.org/1999/xlink"
 width="23px" height="20px">
<path fill-rule="evenodd"  fill="rgb(71, 167, 255)"
 d="M13.475,19.853 C12.695,19.853 12.061,19.215 12.061,18.430 L12.061,14.502 C12.062,14.459 12.062,14.438 12.061,14.416 C12.043,14.014 11.717,13.699 11.318,13.699 L11.284,13.700 C10.874,13.718 10.555,14.069 10.573,14.482 L10.574,18.430 C10.574,19.215 9.940,19.853 9.160,19.853 L5.069,19.853 C3.767,19.853 2.710,18.789 2.710,17.481 L2.710,10.029 L2.447,10.237 C2.181,10.443 1.883,10.544 1.569,10.544 C1.126,10.544 0.717,10.342 0.447,9.988 C0.217,9.687 0.118,9.313 0.167,8.936 C0.216,8.559 0.408,8.224 0.707,7.993 L10.436,0.309 C10.682,0.110 10.996,-0.001 11.316,-0.001 C11.636,-0.001 11.950,0.110 12.200,0.312 L21.774,8.008 C22.069,8.246 22.255,8.585 22.297,8.962 C22.338,9.340 22.231,9.712 21.995,10.009 C21.725,10.348 21.322,10.543 20.890,10.543 C20.571,10.543 20.257,10.433 20.007,10.231 L19.925,10.165 L19.925,17.481 C19.925,18.789 18.868,19.853 17.568,19.853 L13.475,19.853 ZM17.097,17.007 L17.097,7.891 L11.311,3.246 L5.540,7.791 L5.540,17.007 L7.748,17.007 L7.748,14.502 C7.747,14.449 7.747,14.383 7.748,14.318 C7.802,12.356 9.370,10.821 11.318,10.821 C11.351,10.821 11.385,10.821 11.418,10.822 C13.388,10.877 14.945,12.534 14.891,14.516 L14.891,17.007 L17.097,17.007 Z"/>
</svg>