<?xml version="1.0" encoding="utf-8"?>
<!-- Generator: Adobe Illustrator 22.1.0, SVG Export Plug-In . SVG Version: 6.00 Build 0)  -->
<svg version="1.1" id="レイヤー_1" xmlns="http://www.w3.org/2000/svg" xmlns:xlink="http://www.w3.org/1999/xlink" x="0px"
	 y="0px" viewBox="0 0 46 46" style="enable-background:new 0 0 46 46;" xml:space="preserve">
<style type="text/css">
	.st0{fill:#47A7FF;}
</style>
<path class="st0" d="M45,22.997c0-12.148-9.847-22-22-22c-12.154,0-22.001,9.852-22.001,22S10.852,44.998,23,44.998
	c0.126,0,0.252-0.007,0.378-0.007v0.007h21.516l-6.392-6.392C42.513,34.627,45,29.103,45,22.997z M25.557,35.246h-5.206V18.265
	h5.206V35.246z M22.905,16.135c-1.691,0-3.061-1.368-3.061-3.06c0-1.69,1.37-3.061,3.061-3.061c1.69,0,3.06,1.371,3.06,3.061
	C25.965,14.767,24.595,16.135,22.905,16.135z"/>
</svg>
