<svg 
 xmlns="http://www.w3.org/2000/svg"
 xmlns:xlink="http://www.w3.org/1999/xlink"
 width="26px" height="26px">
<path fill-rule="evenodd"  fill="rgb(255, 255, 255)"
 d="M24.000,15.000 L15.000,15.000 L15.000,23.999 C15.000,25.104 14.105,26.000 13.000,26.000 C11.895,26.000 11.000,25.104 11.000,23.999 L11.000,15.000 L2.000,15.000 C0.895,15.000 -0.000,14.104 -0.000,13.000 C-0.000,11.895 0.895,11.000 2.000,11.000 L11.000,11.000 L11.000,2.000 C11.000,0.895 11.895,-0.001 13.000,-0.001 C14.105,-0.001 15.000,0.895 15.000,2.000 L15.000,11.000 L24.000,11.000 C25.105,11.000 26.000,11.895 26.000,13.000 C26.000,14.104 25.105,15.000 24.000,15.000 Z"/>
</svg>