<?xml version="1.0" encoding="utf-8"?>
<!-- Generator: Adobe Illustrator 22.1.0, SVG Export Plug-In . SVG Version: 6.00 Build 0)  -->
<svg version="1.1" id="レイヤー_1" xmlns="http://www.w3.org/2000/svg" xmlns:xlink="http://www.w3.org/1999/xlink" x="0px"
	 y="0px" viewBox="0 0 46 46" style="enable-background:new 0 0 46 46;" xml:space="preserve">
<style type="text/css">
	.st0{fill:#48D9A5;}
</style>
<path class="st0" d="M45,22.997c0-12.146-9.847-22.001-22-22.001c-12.154,0-22.001,9.855-22.001,22.001
	c0,12.148,9.853,22.001,22,22.001c0.127,0,0.252-0.008,0.379-0.008v0.008h21.516l-6.392-6.394C42.513,34.627,45,29.103,45,22.997z
	 M24.869,35.86c-0.543,0.524-1.26,0.791-2.155,0.791c-0.895,0-1.611-0.267-2.155-0.791c-0.543-0.523-0.815-1.187-0.815-1.996
	c0-0.816,0.278-1.492,0.835-2.022c0.557-0.53,1.267-0.795,2.135-0.795c0.869,0,1.578,0.265,2.135,0.795
	c0.558,0.53,0.836,1.206,0.836,2.022C25.685,34.673,25.413,35.337,24.869,35.86z M30.572,19.496c-0.464,0.922-1.28,1.95-2.44,3.076
	l-1.486,1.413c-0.928,0.894-1.458,1.943-1.598,3.143l-0.073,1.12h-4.694c0-1.711,0.206-3.076,0.623-4.096
	c0.418-1.016,1.18-2.017,2.281-3.006c1.107-0.987,1.843-1.79,2.208-2.405c0.365-0.616,0.55-1.275,0.55-1.957
	c0-2.069-0.954-3.102-2.864-3.102c-0.908,0-1.631,0.279-2.175,0.834c-0.544,0.557-0.829,1.327-0.855,2.308h-5.318
	c0.027-2.341,0.783-4.171,2.268-5.489c1.485-1.321,3.514-1.982,6.08-1.982c2.593,0,4.608,0.628,6.034,1.882
	c1.432,1.253,2.148,3.031,2.148,5.317C31.268,17.587,31.036,18.574,30.572,19.496z"/>
</svg>
