<?xml version="1.0" encoding="utf-8"?>
<!-- Generator: Adobe Illustrator 23.0.6, SVG Export Plug-In . SVG Version: 6.00 Build 0)  -->
<svg version="1.1" id="レイヤー_2" xmlns="http://www.w3.org/2000/svg" xmlns:xlink="http://www.w3.org/1999/xlink" x="0px"
	 y="0px" viewBox="0 0 172.25 209.85" style="enable-background:new 0 0 172.25 209.85;" xml:space="preserve">
<style type="text/css">
	.st0{opacity:0.5;fill:#CCD2D6;}
	.st1{fill:#FFC010;}
	.st2{fill:#DBAC13;}
	.st3{fill:#FF4960;}
	.st4{fill:#DD435D;}
	.st5{fill:#9D53CB;}
	.st6{fill:#40B284;}
	.st7{fill:#48D9A5;}
	.st8{fill:#B864EB;}
	.st9{fill:#654F5C;}
	.st10{fill:#3F60BC;}
	.st11{fill:#C4C4C4;}
	.st12{fill:#848484;}
	.st13{fill:#F2DBCC;}
	.st14{fill:#FFFFFF;}
	.st15{fill:#A4C4F5;}
	.st16{fill:#7A4C54;}
	.st17{fill:#D8D8D8;}
	.st18{fill:#BFBFBF;}
	.st19{fill:none;stroke:#848484;stroke-width:0.5775;stroke-miterlimit:10;}
	.st20{fill:none;stroke:#848484;stroke-width:0.474;stroke-miterlimit:10;}
	.st21{fill:none;stroke:#848484;stroke-width:0.5558;stroke-miterlimit:10;}
	.st22{fill:#BFDCF5;}
</style>
<g>
	<ellipse class="st0" cx="40.6" cy="142.22" rx="40.11" ry="15.69"/>
	<path class="st1" d="M131.49,98.51c-12.93-7.23-30.61-11.68-50.1-11.68c-6.47,0-12.75,0.49-18.71,1.41l23.6,41.01L131.49,98.51z"/>
	<polygon class="st2" points="63,88.24 63.26,121.16 83.83,159.21 86.4,128.87 	"/>
	<path class="st0" d="M167.46,177.74c-0.74-2.84-7.05-3.67-14.23-1.92c0-0.05,0-0.11,0-0.16c0-18.89-32.23-34.2-72-34.2
		s-72,15.31-72,34.2s32.23,34.2,72,34.2c30.94,0,57.32-9.27,67.51-22.28c2.03-0.08,4.3-0.42,6.65-1.03
		C162.82,184.6,168.22,180.66,167.46,177.74z"/>
	<path class="st3" d="M0.77,107.01l68.4,10.03L50.66,77.19C50.66,77.19,17.49,77.7,0.77,107.01z"/>
	<polygon class="st4" points="0,137.36 0,107.01 69.17,117.04 69.17,148.16 	"/>
	<path class="st5" d="M9.77,127.52v34.52c0,0,7.46,21.86,24.69,27.77c17.23,5.91,25.46,9.77,51.43,9.26
		c25.97-0.51,39.6-9.26,39.6-9.26V160.5L9.77,127.52z"/>
	<path class="st6" d="M153,128.36v31.11c0,0-3.09,24.43-27.51,30.34l-0.51-38.06L153,128.36z"/>
	<path class="st7" d="M152.61,128.42c0-11.52-8.29-21.94-21.64-29.4l-45.22,30.75l37.87,31.64
		C141.22,153.92,152.61,141.93,152.61,128.42z"/>
	<path class="st8" d="M11.79,117.91c-1.4,3.2-2.14,6.55-2.14,10c0,22.69,32.12,41.08,71.74,41.08c15.94,0,30.66-2.98,42.57-8.01
		l-37.81-31.59L11.79,117.91z"/>
	<path class="st9" d="M148.05,171.76c0,0,0.15,2.67,1.73,4.37s3.5,6.33,0.34,6.44c-3.16,0.11-4.18-1.58-4.29-2.82
		s-3.05-2.49-3.5-3.39c-0.45-0.9-1.47-4.63,0.9-5.42C145.6,170.14,148.05,171.76,148.05,171.76z"/>
	<path class="st9" d="M168.48,164.19c0,0,0.15,2.67,1.73,4.37c1.58,1.69,3.5,6.33,0.34,6.44c-3.16,0.11-4.18-1.58-4.29-2.82
		s-3.05-2.49-3.5-3.39s-1.47-4.63,0.9-5.42S168.48,164.19,168.48,164.19z"/>
	<path class="st10" d="M127.27,138.79c0,0,4.21,6.67,14.4,15.59c0,0-1.36,10.47-0.95,19.19c0,0,4.44,2.73,8-0.19l0.76-22.4
		l-10.03-10.67l2.92-0.51l16.89,6.48c0,0,2.33,11.17,2.79,19.31c0,0,3.74,1.7,6.8-0.68c0.36-0.28-3.57-23.27-3.57-23.27l-20.88-9.45
		L127.27,138.79z"/>
	<polyline class="st11" points="149.74,145.97 141.93,142.23 158.41,137.05 167.96,140.74 149.74,145.97 	"/>
	<polygon class="st12" points="141.93,142.23 141.9,142.88 149.76,146.56 149.96,145.92 	"/>
	<path class="st13" d="M151.59,117.87c0,0-0.96,9.62,0.32,12.04s5.22,10.13,5.22,10.13l-3.57,2.74c0,0-6.37-11.02-6.05-12.68
		s-0.38-10.26-0.38-10.26L151.59,117.87z"/>
	<path class="st14" d="M144.66,105.65c0,0-11.43,4.19-13.2,6.48c-1.78,2.29-4.82,4.06-5.21,8.38c-0.38,4.32,0,18.41,0,18.41
		s9.52,2.03,13.71-0.89s4.44-5.84,4.44-5.84s-4.32-6.35-3.94-6.22c0.38,0.13,7.36-2.54,8.38-6.98l2.99-1.04
		C151.85,117.94,153.17,103.75,144.66,105.65z"/>
	<path class="st13" d="M143.61,107.89c0,0-3.55,0-3.22,2.71c0.34,2.71,1.35,6.94,3.55,7.28c2.2,0.34,5.08-3.22,5.08-3.22
		L143.61,107.89z"/>
	<path class="st15" d="M127.14,129.39l8.63,0.25c0,0,4.06-14.22-3.68-14.35C132.09,115.3,125.37,114.41,127.14,129.39z"/>
	<path class="st15" d="M148.68,119.42l3.55-1.61l-2.55-8.98l-3.75,1.39C145.93,110.22,148.55,115.36,148.68,119.42z"/>
	<g>
		<path class="st16" d="M156.47,112.12c0,0,6.77-7.11-5.08-10.66c0,0-10.33-1.69-6.6,10.16l3.75-2.16l1.16-1.57l2.26,1.12l0.61-1.46
			l1.18,0.34l0.68,1.69l2.03-0.68V112.12z"/>
		<path class="st13" d="M146.31,109.42c0,0-2.54-0.68-2.37,0.85c0.17,1.52,2.2,3.89,2.2,3.89s-0.34,2.2,2.03,2.71
			c2.37,0.51,5.59,1.86,8.29-4.74C159.18,105.52,147.84,106.54,146.31,109.42z"/>
		<path class="st16" d="M157.61,108.57c-1.35-1.3-2.07-1.26-2.31-1.19l-0.29-0.78l-1.8,0.42l0.72-0.61c0,0-5.59-1.46-5.78-1.4
			c-0.19,0.06-2.67,3.49-1.9,4.06c0.76,0.57,0.38,2.48,0.38,2.48l3.05-2.35l0.38,0.51l2.78-2.37c-0.03,0.51-0.1,1.69-0.05,1.54
			c0.05-0.15,1.66-0.73,2.35-0.97l-0.25,1.98l1.33-0.25l0.25,2.48C156.47,112.12,159.33,110.22,157.61,108.57z"/>
	</g>
	<path class="st13" d="M128.4,129.15c0,0,1.78,9.17,4.14,9.81c2.36,0.64,15.86,4.01,15.86,4.01s2.29,1.08,2.55,1.08
		c0.25,0,4.33,0,4.08-1.34c-0.25-1.34-0.7-1.97-1.47-1.97c-0.76,0-1.85,0.06-1.53,0c0.32-0.06-2.48-0.64-2.48-0.64
		s-13.19-3.25-13.44-4.14c-0.25-0.89-1.59-7.07-1.59-7.07L128.4,129.15z"/>
	<g>
		<polygon class="st12" points="152.46,136.28 149.74,146.56 168.15,140.93 171.57,131.02 		"/>
		<polygon class="st17" points="152.46,136.28 152.74,136.41 149.98,146.48 149.76,146.56 		"/>
		<polygon class="st18" points="171.57,131.02 152.46,136.28 152.8,136.54 171.43,131.25 		"/>
	</g>
	<g>
		
			<ellipse transform="matrix(0.3384 -0.941 0.941 0.3384 -6.695 215.5611)" class="st19" cx="149.95" cy="112.54" rx="1.47" ry="2.12"/>
		
			<ellipse transform="matrix(0.3384 -0.941 0.941 0.3384 -5.5732 220.8618)" class="st20" cx="154.28" cy="114.39" rx="1.36" ry="1.54"/>
		<line class="st21" x1="152.95" y1="113.68" x2="152.12" y2="113.45"/>
	</g>
</g>
<g>
	<ellipse class="st0" cx="94.11" cy="47.62" rx="14.31" ry="7.56"/>
	<path class="st14" d="M94.87,11.92c0,0,7.34-1.77,10.26,2.91c8.74,12.66-5.19,31.78-10.26,31.78s-15.7-5.57-15.07-21.4
		C80.43,9.39,92.21,10.9,94.87,11.92z"/>
	<path class="st22" d="M100.02,16.02c0,0,3.73-8.77-7.46-8.39c0,0-11.19,1.87-6.34,8.02C91.06,21.8,96.47,20.12,100.02,16.02z"/>
	<path class="st14" d="M102.34,11.41c0,0,5.06-11.9-10.13-11.4c0,0-15.19,2.53-8.61,10.89S97.52,16.98,102.34,11.41z"/>
	<path class="st10" d="M99.8,4.7c-1.77-0.92-8.36,3.8-7.85,6.33s2.42,4.35,5.82,2.03C101.07,10.81,104.52,6.38,99.8,4.7z"/>
	<ellipse class="st10" cx="85.31" cy="42.12" rx="4.49" ry="3.61"/>
	<path class="st22" d="M85.31,42.31L85.31,42.31c1.64,0,2.98-1.34,2.98-2.98v-13.8c0-1.64-1.34-2.98-2.98-2.98l0,0
		c-1.64,0-2.98,1.34-2.98,2.98v13.8C82.33,40.97,83.67,42.31,85.31,42.31z"/>
</g>
</svg>
