<?xml version="1.0" encoding="utf-8"?>
<!-- Generator: Adobe Illustrator 23.0.6, SVG Export Plug-In . SVG Version: 6.00 Build 0)  -->
<svg version="1.1" id="レイヤー_2" xmlns="http://www.w3.org/2000/svg" xmlns:xlink="http://www.w3.org/1999/xlink" x="0px"
	 y="0px" viewBox="0 0 68.36 106.55" style="enable-background:new 0 0 68.36 106.55;" xml:space="preserve">
<style type="text/css">
	.st0{opacity:0.5;fill:#CCD2D6;}
	.st1{fill:#F2DBCC;}
	.st2{fill:#A6ACBC;}
	.st3{fill:#71A8FB;}
	.st4{fill:#300800;}
	.st5{fill:#F7F6FB;}
	.st6{fill:#CCCFD8;}
	.st7{fill:#D1860D;}
	.st8{fill:#FCAD1D;}
	.st9{fill:#EFDECB;}
	.st10{fill:#E27091;}
	.st11{fill:#573847;}
	.st12{fill:#8FF7FF;}
	.st13{fill:#303D47;}
</style>
<ellipse class="st0" cx="18.22" cy="91.18" rx="17.18" ry="9.08"/>
<ellipse class="st0" cx="54.81" cy="97.48" rx="13.54" ry="9.08"/>
<g>
	<path class="st1" d="M41.04,21.01c0,0-1.7-3.1-1.7-4.49s0.62,0,1.39,0c0.77,0,0.62-1.55,1.08-2.32c0.46-0.77,3.1-0.77,3.87-0.77
		s2.32,1.08,0.77,1.86c-1.55,0.77-3.25,3.41-3.41,4.49C42.89,20.86,41.04,21.01,41.04,21.01z"/>
	<path class="st2" d="M23.7,87.43c-0.15,0.77-1.08,4.33-1.08,4.8c0,0.46-1.39,7.74,1.55,6.19c2.94-1.55,4.33-5.26,4.33-5.88
		s-1.08-6.35-1.08-6.35L23.7,87.43z"/>
	<path class="st2" d="M17.97,82.16c0,0,2.63,4.49,0.93,5.11s-4.33,3.1-4.33,3.1H7.91c0,0,3.41-5.57,5.57-6.81L17.97,82.16z"/>
	<path class="st3" d="M27.41,42.94V64l1.44,23.74c0,0-7.34,3.76-6.4,0c0.21-0.83-1.44-21.26-1.44-22.09S20.6,50.79,20.6,50.79
		l-2.48-0.21v15.28l0.83,17.55c0,0-5.99,3.28-5.99,0.21c0-0.41-2.27-19.61-2.27-19.61l0.21-22.5L27.41,42.94z"/>
	<ellipse class="st1" cx="19.57" cy="10.12" rx="4.95" ry="7.02"/>
	<path class="st4" d="M25.25,8.47c0,0,0.52-7.22-2.37-7.22s-3.51-1.24-4.13-1.24s-3.1-0.21-3.92,1.44s-1.24,6.61-1.24,6.61
		l1.75,1.65c0,0,0.52-4.33,1.75-4.95c1.24-0.62,2.48,1.44,2.48,1.44s1.14-1.44,2.37-1.34c1.24,0.1,2.58,5.26,2.58,5.26L25.25,8.47z"
		/>
	<ellipse class="st1" cx="24.11" cy="10.23" rx="2.17" ry="1.96"/>
	<ellipse class="st1" cx="14.82" cy="9.81" rx="2.17" ry="1.75"/>
	<polygon class="st1" points="21.67,15.59 16.76,15.59 16.37,21.73 22.46,21.12 	"/>
	<path class="st5" d="M22.46,18.38c0,0-2.79,4.49-6.81,0.77l-4.03,13.47l-1.08,11.3c0,0,11.15,2.17,15.02-0.62l-0.62-20.44
		L22.46,18.38z"/>
	<path class="st6" d="M25.4,17.45l4.49,1.24c0,0,5.42,7.9,5.42,7.43c0-0.46,4.8-7.9,4.8-7.9l3.87,2.79l-6.97,13.47l-8.21-8.36
		L28.5,44.7l-6.42,1.47l0.08-13.75L25.4,17.45z"/>
	<path class="st6" d="M13.79,18.84c0,0-1.86-1.86-3.72-0.46S4.35,38.97,4.35,38.97l0.08,11.21l3.89-2.87l1.48-12.31l-0.34-3.76
		l0.77,14.4l5.42,0.93l-1.08-16.87L13.79,18.84z"/>
	<path class="st2" d="M21.84,16.52c0.46,0.46,5.26,1.24,5.26,1.24s-5.83,17.75-5.37,16.2C22.2,32.42,21.84,16.52,21.84,16.52z"/>
	<path class="st2" d="M17.17,16.52c-0.46,0.46-5.26,1.24-5.26,1.24S15.39,36.54,14.92,35C14.46,33.45,17.17,16.52,17.17,16.52z"/>
	<g>
		<g>
			<g>
				<polygon class="st7" points="1.6,41.82 0,47.85 1.34,48.69 2.94,42.66 				"/>
			</g>
			<g>
				<polygon class="st8" points="2.94,42.66 1.34,48.69 11.03,49.68 12.64,43.64 				"/>
			</g>
			<g>
				<polygon class="st9" points="12.64,43.64 11.3,42.8 1.6,41.82 2.94,42.66 				"/>
			</g>
		</g>
	</g>
	<path class="st1" d="M8.54,48.46l-0.15,1.82c0,0-2.47,2.44-3.34,1.21c-0.46-0.65-1.64,0.05-0.5-2.77S8.54,48.46,8.54,48.46z"/>
</g>
<g>
	<path class="st1" d="M50.62,92.93L47.06,75.1h4.41l2.55,17.09l0.06-0.03l0.2,1.83c0,0-4.84,3.6-5.04,3.47s-0.59-0.39-0.52-0.98
		c0.03-0.24,0.44-0.73,0.93-1.24L50.62,92.93z"/>
	<path class="st1" d="M59.02,92.1l-5.88-17.42l5.88-0.21l3.57,17.63l-0.05,0.15c0.03-0.08,0.05-0.14,0.05-0.14s-0.31,2.14-1.29,4.19
		l-1.23,3.98l-0.24-1.87c-0.35,0.3-0.58,0.35-0.58,0.35l-0.79-2.55l0.63-3.56L59.02,92.1z"/>
	<path class="st10" d="M62.59,92.1c0,0-1.26,7.55-3.99,3.57c0,0-4.2,10.7,1.26,8.18c0,0,2.52-2.94,3.36-5.04
		C64.06,96.71,63.22,93.77,62.59,92.1z"/>
	<path class="st10" d="M54.19,93.35c0,0-2.73,2.94-4.83,2.52l0.94-2.2c0,0-2.83,2.73-3.88,2.73c-1.05,0-2.31,2.73-0.94,2.83
		c1.36,0.1,5.25-0.42,5.25-0.42s1.47-1.47,2.52-0.52c1.05,0.94,2.73-0.52,2.73-0.52S56.19,93.35,54.19,93.35z"/>
	<path class="st1" d="M54.79,18.09c0,0-1.13,0.8-3.3,0.08c-2.17-0.72-2.81-0.88-2.81-0.88s-0.88,4.34-0.72,5.95
		c0.16,1.61,1.04,4.58,1.77,5.3c0.72,0.72,6.11,2.49,7.56-0.96C58.73,24.11,54.79,18.09,54.79,18.09z"/>
	<polygon class="st1" points="50.9,26.24 49.48,31 48.06,34.93 56.88,35.77 59.44,27.92 	"/>
	<path class="st11" d="M56.64,13.58c0,0-9.56,0.51-9.37,2.45c0.19,1.93,4.06,3.09,4.06,3.09l2.51-0.58c0,0,0.58,2.71,1.16,3.67
		c0.58,0.97,3.09,5.03,3.09,5.03S68.05,21.9,56.64,13.58z"/>
	<path class="st11" d="M58.39,24.73c0,0,6.51,3.36,5.88,5.46c-0.63,2.1-0.42,4.2-0.42,4.2S52.93,29.56,58.39,24.73z"/>
	<g>
		<path class="st12" d="M57.34,30.19l-5.46,4.2L50,28.72c0,0-3.78-0.21-4.83,0.84c-1.05,1.05-2.1,4.83-2.1,4.83l2.73,4.41v7.34
			c0,0,3.78,4.62,14.06,1.89l2.31-6.51l-0.63-3.15l3.78-1.47C65.31,36.9,64.68,29.35,57.34,30.19z"/>
	</g>
	<path class="st10" d="M59.86,48.03c0,0-10.28,1.47-14.06-1.89l-8.18,27.07c0,0,14.06,8.18,27.28,2.31L59.86,48.03z"/>
	<path class="st1" d="M43.61,35.03l-1.38,9.43l-3.99,6.72c0,0-2.31,1.47-1.68,3.15c0.63,1.68,2.31,3.36,2.31,3.36
		s2.73-1.47,2.52-2.1s-0.21-3.36-0.21-3.36l3.78-4.83l0.84-8.6L43.61,35.03z"/>
	<path class="st1" d="M54.55,22.59c0,0,0.8-2.09,1.69-0.88c0.88,1.21,0.64,3.22,0.08,3.3s-1.37,0.4-1.37,0.4L54.55,22.59z"/>
	<polygon class="st13" points="47.47,41.18 47.67,38.04 43.54,36.6 43.48,45.3 47.21,46.09 	"/>
	<path class="st1" d="M65.12,36.84c0.42,0.63,1.68,10.91,1.68,10.91l-18.05-1.47l-3.99,1.05c0,0-0.84-1.89-0.63-3.36
		c0.21-1.47-0.21-5.25,2.31-3.57s2.1,3.36,2.1,3.36l13.64,0.21l-1.47-5.25L65.12,36.84z"/>
</g>
</svg>
