<?xml version="1.0" encoding="utf-8"?>
<!-- Generator: Adobe Illustrator 23.0.6, SVG Export Plug-In . SVG Version: 6.00 Build 0)  -->
<svg version="1.1" id="レイヤー_2" xmlns="http://www.w3.org/2000/svg" xmlns:xlink="http://www.w3.org/1999/xlink" x="0px"
	 y="0px" viewBox="0 0 222.79 273.14" style="enable-background:new 0 0 222.79 273.14;" xml:space="preserve">
<style type="text/css">
	.st0{opacity:0.5;fill:#CCD2D6;}
	.st1{fill:#BFDCF5;}
	.st2{fill:#FFFFFF;}
	.st3{fill:#DFE9F2;}
	.st4{fill:#EEF7FF;}
	.st5{fill:#FF4960;}
	.st6{fill:#FFC010;}
	.st7{fill:#69A6FF;}
	.st8{fill:none;stroke:#FFFFFF;stroke-width:1.3253;stroke-miterlimit:10;}
	.st9{fill:none;stroke:#FFFFFF;stroke-width:1.0192;stroke-miterlimit:10;}
	.st10{fill:#F2DBCC;}
	.st11{fill:#7F466B;}
	.st12{fill:#AD6C80;}
	.st13{fill:#3F60BC;}
	.st14{fill:#00346E;}
	.st15{fill:#303D47;}
	.st16{fill:#002C54;}
	.st17{fill:#300800;}
</style>
<g>
	<path class="st0" d="M219.24,227.4l-78.64,45.04c-1.64,0.94-3.65,0.93-5.29-0.01L2.65,195.83c-3.54-2.04-3.53-7.16,0.02-9.19
		l78.64-45.02c1.64-0.94,3.65-0.93,5.28,0.01l132.67,76.58C222.8,220.25,222.79,225.37,219.24,227.4z"/>
	<g>
		<path class="st1" d="M222.79,191.49l-13.92,3.99l0.38,0.99l-121.79-70.3c-1.63-0.94-3.65-0.95-5.28-0.01l-67.81,38.81l-13.5-4.46
			v15.38l0.01,0c0.03,1.75,0.91,3.48,2.64,4.48l132.67,76.6c1.63,0.94,3.65,0.95,5.29,0.01l78.64-45.04
			c1.94-1.11,2.81-3.14,2.64-5.09l0.03-0.02V191.49z"/>
		<path class="st2" d="M220.13,196.04l-78.64,45.04c-1.64,0.94-3.65,0.93-5.29-0.01L3.53,164.46c-3.54-2.04-3.53-7.16,0.02-9.19
			l78.64-45.02c1.64-0.94,3.65-0.93,5.28,0.01l132.67,76.58C223.69,188.89,223.68,194.01,220.13,196.04z"/>
	</g>
</g>
<path class="st3" d="M196.97,202.93L67.61,128.84c-2-1.15-2.69-3.73-1.54-5.73v0c1.15-2,3.73-2.69,5.73-1.54l129.36,74.09
	c2,1.15,2.69,3.73,1.54,5.73v0C201.55,203.4,198.97,204.09,196.97,202.93z"/>
<g>
	<g>
		<path class="st1" d="M199.51,197.09L67.66,117.32c-0.82-0.47-1.32-1.34-1.33-2.29L63.47,2.94C63.46,0.91,69.1-0.95,72,0.54
			l132.12,73.52c0.84,0.47,1.36,1.35,1.36,2.31l0.46,117.74C205.94,197.17,201.28,198.11,199.51,197.09z"/>
		<path class="st4" d="M199.1,196.85L66.11,120.29c-1.64-0.94-2.65-2.68-2.66-4.57L63,3.83c-0.01-2.03,2.17-3.31,3.94-2.33
			L199.9,75.51c1.67,0.93,2.72,2.69,2.72,4.61l0.45,114.42C203.08,196.59,200.87,197.87,199.1,196.85z"/>
		<path class="st2" d="M194.47,190.03L70.59,118.21c-1.63-0.95-2.64-2.68-2.64-4.57L67.62,12.02c-0.01-2.03,2.17-3.31,3.94-2.32
			l123.85,69.28c1.67,0.93,2.71,2.7,2.71,4.61l0.33,104.14C198.46,189.77,196.25,191.05,194.47,190.03z"/>
		<polygon class="st5" points="150.55,134.91 75.67,93.06 75.67,29 150.55,72.52 		"/>
		<polygon class="st6" points="189.59,125.31 154.08,105.26 154.08,74.07 189.59,94.11 		"/>
		<polygon class="st7" points="173.24,169.37 154.08,158.55 154.08,141.72 173.24,152.54 		"/>
		<polygon class="st3" points="110.79,133.83 90.47,122.36 90.47,104.51 110.79,115.98 		"/>
		<polygon class="st6" points="88.37,121.1 75.67,114.04 75.67,96.33 88.37,103.39 		"/>
		<polygon class="st3" points="110.52,44.13 75.67,24.26 75.75,18.64 110.6,38.51 		"/>
		<polygon class="st3" points="189.08,134.25 154.24,114.38 154.32,108.75 189.17,128.63 		"/>
		<polygon class="st3" points="189.08,142.53 154.24,122.66 154.32,117.04 189.17,136.91 		"/>
		<polygon class="st3" points="189.08,151.48 154.24,131.61 154.32,125.98 189.17,145.85 		"/>
		<polygon class="st3" points="173.26,149.71 154.24,139 154.27,136.62 173.3,147.34 		"/>
		<polygon class="st3" points="189.84,164.06 176.11,156.31 176.13,153.7 189.86,161.45 		"/>
		<polygon class="st3" points="189.84,159.65 176.11,151.89 176.13,149.28 189.86,157.03 		"/>
		<polygon class="st3" points="189.84,168.91 176.11,161.16 176.13,158.54 189.86,166.3 		"/>
		<polygon class="st3" points="189.84,173.76 176.11,166 176.13,163.39 189.86,171.14 		"/>
		<polygon class="st3" points="189.84,178.6 176.11,170.85 176.13,168.23 189.86,175.99 		"/>
		<polygon class="st3" points="150.7,141.07 113.38,119.82 113.45,117.46 150.77,138.72 		"/>
		<polygon class="st3" points="150.7,146.3 113.38,125.05 113.45,122.69 150.77,143.94 		"/>
		<polygon class="st3" points="150.7,151.53 113.38,130.27 113.45,127.92 150.77,149.17 		"/>
		<polygon class="st3" points="150.7,156.76 113.38,135.5 113.45,133.14 150.77,154.4 		"/>
		<polygon class="st3" points="190.95,90.17 116.91,47.94 116.99,42.32 191.03,84.55 		"/>
	</g>
	
		<ellipse transform="matrix(0.7927 -0.6097 0.6097 0.7927 -18.7636 71.7495)" class="st2" cx="96.1" cy="63.46" rx="10.03" ry="12.82"/>
	
		<ellipse transform="matrix(0.7927 -0.6097 0.6097 0.7927 -39.7556 99.9221)" class="st2" cx="127.02" cy="108.41" rx="3.74" ry="4.78"/>
	
		<ellipse transform="matrix(0.7927 -0.6097 0.6097 0.7927 -32.2668 85.0557)" class="st8" cx="108.91" cy="89.97" rx="10.03" ry="12.82"/>
	
		<ellipse transform="matrix(0.7927 -0.6097 0.6097 0.7927 -21.5786 97.0454)" class="st9" cx="131.88" cy="80.25" rx="7.72" ry="9.86"/>
	<line class="st8" x1="99.25" y1="72.3" x2="102.07" y2="79.42"/>
	<line class="st8" x1="118.47" y1="85.88" x2="124.26" y2="82.9"/>
	<g>
		<path class="st2" d="M105.89,91.58l-0.84-0.36l-0.95-3.53l-0.95,2.71l-0.84-0.36l-1.37-5.74l1.05,0.45l0.79,3.59l0.94-2.84
			l0.75,0.33l0.94,3.65l0.8-2.9l1.05,0.45L105.89,91.58z"/>
		<path class="st2" d="M107.92,92.45v-5.15l3.39,1.47v0.9l-2.39-1.03v1.21l2.03,0.88v0.9l-2.03-0.88v1.25l2.39,1.03v0.9
			L107.92,92.45z"/>
		<path class="st2" d="M115.91,95.07c-0.08,0.15-0.19,0.26-0.33,0.32c-0.14,0.06-0.31,0.09-0.5,0.07c-0.19-0.02-0.41-0.08-0.64-0.18
			l-2.15-0.93V89.2l2.07,0.9c0.51,0.22,0.9,0.52,1.18,0.9s0.42,0.79,0.42,1.24c0,0.14-0.02,0.27-0.06,0.36
			c-0.04,0.1-0.09,0.18-0.16,0.24c-0.06,0.06-0.13,0.11-0.21,0.14c-0.08,0.03-0.14,0.05-0.21,0.05c0.08,0.07,0.16,0.16,0.24,0.25
			c0.08,0.1,0.16,0.21,0.23,0.33c0.07,0.12,0.12,0.26,0.17,0.4c0.05,0.15,0.07,0.31,0.07,0.48
			C116.02,94.72,115.98,94.92,115.91,95.07z M114.77,91.33c-0.11-0.16-0.28-0.28-0.49-0.38l-0.98-0.43v1.19l0.98,0.43
			c0.22,0.09,0.38,0.11,0.49,0.05c0.11-0.06,0.17-0.18,0.17-0.36S114.89,91.49,114.77,91.33z M114.86,93.48
			c-0.11-0.17-0.28-0.3-0.51-0.41l-1.05-0.45v1.27l1.05,0.45c0.23,0.1,0.4,0.11,0.51,0.03c0.11-0.08,0.16-0.2,0.16-0.38
			C115.02,93.82,114.96,93.65,114.86,93.48z"/>
	</g>
	<line class="st8" x1="118.41" y1="98.14" x2="124.76" y2="106.26"/>
</g>
<g>
	<ellipse class="st0" cx="132.99" cy="193.11" rx="15.46" ry="8.17"/>
	<ellipse class="st10" cx="134.06" cy="117.67" rx="5.36" ry="6.07"/>
	<path class="st10" d="M132.27,123.15v2h-1.72c0,0,0.95,3.33,4.48,2.76c3.52-0.57,4.1-2.57,4.1-2.57h-3.05v-2.29L132.27,123.15z"/>
	<ellipse class="st10" cx="128.91" cy="117" rx="1.5" ry="1.7"/>
	<ellipse class="st10" cx="139.62" cy="117.01" rx="1.5" ry="1.7"/>
	<path class="st11" d="M135.41,109.86c0,0-2.14-1.43-4.43,0.71c-2.29,2.14-2.71,4.57-2.71,4.57l0.64,3.54c0,0,0.42,0.48,0.87,0.96
		c0.85,1.78,2.44,3.02,4.32,3.17c0.54,0.89,0.38,1.33,0.38,1.33l1.85-1.68c2.05-0.86,3.51-3.06,3.51-5.68c0,0,0,0,0,0
		C140.69,115.15,138.26,108.72,135.41,109.86z"/>
	<path class="st10" d="M121.12,127.73l-3.14,0.19l-4.07-11.12c0,0,1.71-2.14,1.29-3.22c-0.43-1.07-1.36-0.93-1.36-0.93l-0.79-4.07
		c0,0-0.71-0.71-0.93,0.07c-0.21,0.79,0.36,3.72,0.36,3.72s-2-0.36-2.64,1.21c-0.51,1.26,0.43,3.22,1.36,3.5
		c0,0,2.79,11.15,3.72,12.72c0.93,1.57,2.21,2.5,5.22,2.29c3-0.21,3-0.21,3-0.21L121.12,127.73z"/>
	<path class="st12" d="M138.98,189.89c0,0,2.86-1.43,4.72-0.71s0.71,3.86,0.71,3.86s-2.86,2.57-5.43,2.57c-2.57,0-3,0.57-3-4.43
		L138.98,189.89z"/>
	<path class="st12" d="M128.83,190.6c0,0,1.14,3.14-0.43,3.72c-1.57,0.57-3.86,0.29-3.86,0.29s-0.29-2.14-0.86-3.43
		s-1.14-5.57,1.14-5.57L128.83,190.6z"/>
	<path class="st13" d="M125.98,149.64l-1.52,41.15c0,0,0.57,2.48,4.57,0.76l4-33.91l2.48-0.19l0.19,34.3c0,0,2.86,1.52,5.14,0.19
		l1.62-42.3H125.98z"/>
	<path class="st2" d="M131.28,125.03c0,0,0.89,1.84,3.37,1.55s3.52-1.43,3.52-1.43s4.76-0.19,6.48,1.81c1.71,2,2.38,6.48,2.38,6.48
		l-4.57,0.86v15.34c0,0-7.04,4.66-16.48,0c0-5.61-0.1-17.91-0.1-17.91l-3.91,1.14l-1.14-5.91
		C120.83,126.96,124.7,124.74,131.28,125.03z"/>
	<path class="st10" d="M146.36,133.64l0.76,22.66c0,0-1.52,4.48-4.48,3.33c-2.95-1.14,0.76-3.91,0.76-3.91l-0.87-21.43
		L146.36,133.64z"/>
</g>
<g>
	<polygon class="st1" points="57.28,106.59 57.12,117.46 43.64,123.21 43.84,132.73 31.39,139.44 31.39,150.37 52.48,165.5 
		86.22,131.99 79.76,113.6 	"/>
	<polygon class="st4" points="90.03,113.93 90.03,145.07 52.42,165.45 51.93,152.69 64.85,145.41 64.85,136.79 78.43,129.83 
		78.43,119.56 	"/>
	<polygon class="st2" points="31.39,139.44 43.75,132.59 64.74,145.63 51.93,152.69 	"/>
	<polygon class="st2" points="43.64,123.21 57.01,117.46 78.43,129.83 64.85,136.79 	"/>
	<polygon class="st2" points="57.23,106.64 68.49,101.34 90.03,113.93 78.43,119.56 	"/>
</g>
<g>
	<path class="st10" d="M84.84,33.41c0.23,0.02,1.81,0.51,2.33-0.08c0.53-0.59-0.24-0.92,0.23-1.43c0.48-0.5,1.24,0.66,1.21-0.32
		s-0.68-2.02-1.89-2.01c-1.21,0.01-4.66-0.38-4.21,2.77C82.95,35.5,84.84,33.41,84.84,33.41z"/>
	<path class="st14" d="M68.91,53.42c0,0-4.41-11.38,4.18-17.42s10.22-5.81,10.22-5.81l1.86,3.72l-11.38,8.36L68.91,53.42z"/>
	<path class="st10" d="M82.91,36.77c0.26-0.78,0.4-1.63,0.4-2.51c0-3.85-2.65-6.97-5.92-6.97c-3.27,0-6.86,3.23-5.92,6.97
		c0.99,3.95,2.65,6.97,5.92,6.97c1.53,0,2.92-0.69,3.97-1.81l1.67-1.1C83.03,38.31,82.97,37.59,82.91,36.77z"/>
	<path class="st10" d="M96.55,43.72c-0.09-0.26-1.13-1.92-0.61-2.7s1.13,0,1.57-0.7c0.44-0.7-1.13-1.22,0-1.48s2.53,0.17,2.87,1.57
		c0.35,1.39,1.83,5.23-1.92,5.66C94.72,46.51,96.55,43.72,96.55,43.72z"/>
	<path class="st0" d="M69.8,102.06c-5.49,0.79-9.37,2.76-10.92,5.65l17.82,10.86c1.43-0.1,2.81-0.3,4.1-0.58l7.81-3.99
		c0.3-0.3,0-0.81-0.38-1.06L69.8,102.06z"/>
	<path class="st15" d="M77.3,110.44c0,0,4.27-1.48,5.84-0.35c1.57,1.13,1.31,2-0.78,3.14c-2.09,1.13-3.57,2.53-5.66,2.53
		s-2.79,0-2.18-4.01L77.3,110.44z"/>
	<path class="st15" d="M65.28,106.96c0,0-1.48,2.96-0.26,2.96s3.6,0.9,4.27,0.09c2.87-3.48,3.66-2.7,4.18-3.92
		c0.52-1.22-1.74-3.31-5.31-1.74L65.28,106.96z"/>
	<path class="st16" d="M66.67,67.41c0,0,0.44,2.44-0.26,8.01s-1.68,32.34-1.68,32.34s2.32,2.55,4.65-1.16l2.32-24.85l2.32,0.93
		l0.23,29.27c0,0,1.39,3.95,4.65-0.23l2.79-37.16L66.67,67.41z"/>
	<path class="st14" d="M72.33,40.7c0,0,4.24-0.06,8.19,2.5s8.83,8.59,8.83,8.59l6.27-8.13l3.95,2.79c0,0-7.2,13.01-10.22,12.08
		s-6.74-4.41-6.5-3.48s0.93,17.19,0.93,17.19s-0.46,5.81-6.04,4.18c-5.57-1.63-11.15-5.11-11.15-5.11S64.67,37.91,72.33,40.7z"/>
	<path class="st17" d="M73.09,38.78c0,0-5.28-7.14-0.17-10.16c5.11-3.02,6.91-0.99,8.3-0.52s0,3.02-0.93,3.25s-2.55,2.55-2.55,2.55
		s-1.16,2.32,0,2.79s0,2.79,0,2.79S77.04,37.39,73.09,38.78z"/>
	<path class="st2" d="M72.1,41.25l1.05-2.53c0,0,4.53,0.26,5.57,1.65c1.05,1.39,1.22,2.35,1.22,2.35S75.15,40.99,72.1,41.25z"/>
	<polygon class="st17" points="80.23,30.83 79.13,33.44 79.36,34.66 77.73,33.33 	"/>
	<path class="st10" d="M80.41,36.75c0,0-0.29,0.46-2.55,0.17s-1.28-3.02-0.12-3.6s1.51,1.63,1.51,1.63L80.41,36.75z"/>
</g>
<g>
	<g>
		<g>
			<path class="st2" d="M174.48,107.89l-1.34-1.89l0,0l-1.38-1.94l-2.72-3.84l-1.34,0.79l0,0l-1.38,0.81l-2.72,1.59l3.93,5.56l0,0
				l0.16,0.22c0.74,1.04,1.94,1.54,2.68,1.11l0.28-0.16l0,0L174.48,107.89z"/>
		</g>
	</g>
	<g>
		<g>
			<path class="st2" d="M173.76,92.61L171,88.72c0,0,0,0,0,0l-1.34-1.9l-3.94,2.31v0l-0.16,0.09c-0.74,0.43-0.74,1.64,0,2.69
				l0.28,0.4v0l3.82,5.4l1.34-0.79l0,0l2.75-1.62C174.5,94.86,174.5,93.66,173.76,92.61z"/>
		</g>
		<g>
			<path class="st2" d="M181.35,103.81l-1.34-1.89c0,0,0,0,0,0l-2.76-3.89c-0.74-1.04-1.95-1.54-2.69-1.11l-2.75,1.62c0,0,0,0,0,0
				l-1.34,0.79l3.94,5.57l0,0l0.16,0.22c0.74,1.05,1.95,1.54,2.69,1.11l0.28-0.16l0,0L181.35,103.81z"/>
		</g>
		<g>
			<path class="st2" d="M163.26,92.96c0-1.05,0.6-1.05,1.34,0l2.75,3.89c0.74,1.04,0.74,2.25,0,2.69l-2.75,1.62
				c-0.74,0.43-1.34-0.07-1.34-1.11L163.26,92.96z"/>
		</g>
	</g>
</g>
</svg>
