<?xml version="1.0" encoding="utf-8"?>
<!-- Generator: Adobe Illustrator 23.0.6, SVG Export Plug-In . SVG Version: 6.00 Build 0)  -->
<svg version="1.1" id="レイヤー_1" xmlns="http://www.w3.org/2000/svg" xmlns:xlink="http://www.w3.org/1999/xlink" x="0px"
	 y="0px" viewBox="0 0 551.48 370.15" style="enable-background:new 0 0 551.48 370.15;" xml:space="preserve">
<style type="text/css">
	.st0{opacity:0.5;fill:#CCD2D6;enable-background:new    ;}
	.st1{fill:#BFDCF5;}
	.st2{fill:#EEF7FF;}
	.st3{fill:#FFFFFF;}
	.st4{fill:#69A6FF;}
	.st5{fill:#DFE9F2;}
	.st6{fill:#717290;}
	.st7{fill:#CECECE;}
	.st8{fill:#F2DBCC;}
	.st9{fill:#EFEFEF;}
	.st10{fill:#D69D76;}
	.st11{fill:#654F5C;}
	.st12{fill:#3D7AD3;}
	.st13{fill:#573847;}
	.st14{fill:#85ADC9;}
	.st15{fill:#A4C4F5;}
	.st16{fill:#FF4960;}
	.st17{fill:#CEEBFB;}
	.st18{fill:#8FF7FF;}
	.st19{fill:#F7F7F7;}
	.st20{fill:#48D9A5;}
	.st21{fill:#FFC010;}
	.st22{fill:#300800;}
	.st23{fill:#C6C6C6;}
	.st24{fill:#00316E;}
	.st25{fill:#3F60BC;}
	.st26{fill:none;stroke:#93542A;stroke-width:0.5667;stroke-miterlimit:10;}
	.st27{fill:none;stroke:#93542A;stroke-width:0.4651;stroke-miterlimit:10;}
	.st28{fill:none;stroke:#93542A;stroke-width:0.5453;stroke-miterlimit:10;}
	.st29{fill:#042455;}
	.st30{fill:#FDFEFF;}
	.st31{fill:#040005;}
	.st32{fill:#1E3044;}
	.st33{fill:#450000;}
	.st34{fill:#FFFDFA;}
	.st35{fill:#004183;}
	.st36{fill:#855467;}
	.st37{fill:#C9DFFF;}
	.st38{fill:#FFD367;}
	.st39{fill:#B2AFC4;}
	.st40{fill:#E1E4E9;}
</style>
<path class="st0" d="M120.96,366.34c10.01,5.64,27.57,4.94,39.13-1.59l280.35-156.91c11.57-6.51,12.82-16.4,2.8-22.04l-114.19-64.33
	c-10.03-5.64-27.58-4.93-39.13,1.58L9.57,279.96c-11.56,6.52-12.83,16.4-2.81,22.04L120.96,366.34z"/>
<path class="st1" d="M0.59,243.47h23.23L285.09,93.64c13.24-7.64,33.46-8.48,44.93-1.86l93.7,54.09h25.45v21.82h-0.02
	c-0.16,5.01-3.83,10.26-10.93,14.35L164.68,338.96c-13.25,7.65-33.48,8.48-44.94,1.86L8.32,276.49c-5.48-3.16-7.98-7.48-7.68-11.96
	H0.59V243.47z"/>
<path class="st1" d="M11.56,229.49c-13.25,7.65-14.7,19.32-3.23,25.94l111.42,64.33c11.46,6.62,31.69,5.78,44.94-1.87l273.52-156.91
	c13.24-7.64,14.7-19.32,3.23-25.93L330.01,70.72c-11.46-6.62-31.69-5.78-44.93,1.86L11.56,229.49z"/>
<path class="st2" d="M123.36,317.67c9.76,5.64,26.9,4.94,38.18-1.59l273.54-156.91c11.29-6.51,12.51-16.4,2.73-22.04L326.4,72.8
	c-9.78-5.64-26.91-4.93-38.18,1.58L14.68,231.3c-11.27,6.52-12.52,16.4-2.75,22.04L123.36,317.67z"/>
<polygon class="st3" points="51.88,215.99 186.76,293.86 416.9,161.8 282.02,83.93 "/>
<ellipse class="st1" cx="86.61" cy="265.13" rx="16.67" ry="11.33"/>
<g>
	<path class="st1" d="M376.52,122.82l-39.31-22.7c-1.39-0.8-1.87-2.59-1.07-3.97l0,0c0.8-1.39,2.59-1.87,3.97-1.06l39.31,22.7
		c1.39,0.8,1.87,2.59,1.07,3.97l0,0C379.7,123.14,377.91,123.62,376.52,122.82z"/>
	<ellipse class="st1" cx="390.62" cy="126.41" rx="4.66" ry="3.49"/>
</g>
<polygon class="st4" points="282.02,83.93 416.9,161.8 387.83,178.53 253.99,99.69 "/>
<ellipse class="st0" cx="110.17" cy="199.11" rx="17.17" ry="6.75"/>
<ellipse transform="matrix(0.9195 -0.3931 0.3931 0.9195 -91.1058 107.5358)" class="st0" cx="217" cy="276.2" rx="17.17" ry="6.75"/>
<ellipse class="st0" cx="320.17" cy="212.44" rx="17.17" ry="6.75"/>
<g>
	<polygon class="st5" points="186.28,284.68 65.78,216.68 72.6,212.59 193.1,280.59 	"/>
</g>
<g>
	<polygon class="st5" points="204.62,274.01 84.12,206.01 90.93,201.93 211.43,269.93 	"/>
</g>
<g>
	<polygon class="st5" points="222.87,263.43 102.37,195.43 109.18,191.34 229.68,259.34 	"/>
</g>
<g>
	<path class="st6" d="M102.53,190.58c0,0,0.51,1.53,0.71,3.06s2.14,7.66-0.41,7.35s-3.88-3.98-4.29-4.39s0.1-8.17,0.1-8.17
		L102.53,190.58z"/>
	<path class="st6" d="M114.58,193.44c0,0-1.94,2.55-1.94,3.98s0.41,2.25,0.41,2.25l4.7,0.41c0,0,0.2,1.53,2.76,1.94
		c2.55,0.41,4.39-0.31,3.27-1.74c-1.12-1.43-4.8-5.21-6.03-5.21C116.52,195.07,114.58,193.44,114.58,193.44z"/>
	<path class="st4" d="M105.49,156.27c0,0,1.12,19.2,0,21.14s-6.84,11.03-6.84,11.03s0.71,4.29,3.27,3.57s0.61-0.1,0.61-0.1
		l9.7-12.76l2.04-14.81l0,0c0,0,2.25,13.99,1.53,15.62c-0.71,1.63-2.35,13.79-2.35,13.79s3.17,2.96,4.9,2.04l3.27-17.46l-0.41-25.22
		L105.49,156.27z"/>
	<path class="st7" d="M112.23,131.6c0,0-2.45-1.38-4.75,0.31c-2.3,1.68-6.28,8.27-6.28,8.27s2.6,2.3,3.68,2.76
		c1.07,0.46,0,13.79,0,13.79s5,1.89,10.26,1.68c3.44-0.13,6.38-1.53,6.38-1.53l0.05-19.15c0,0,4.75-2.14,3.98-3.68
		c-0.77-1.54,0-7.66-4.6-6.74L112.23,131.6z"/>
	<path class="st8" d="M120.05,119.5c0.92,0.61,1.38,1.23,1.68,3.37c0.31,2.14,1.68,6.74-0.46,7.2c-2.14,0.46-3.98,2.76-6.13,0.15
		c-2.14-2.6-4.29-6.89-4.29-7.35C110.86,122.41,120.05,119.5,120.05,119.5z"/>
	<path class="st8" d="M117.6,130.07l1.58-0.05c0,0,0.17,3.63-0.98,5.02c-0.28,0.34-0.58,0.54-0.91,0.54c-1.68,0-5.05-4.24-5.05-4.24
		l1.07-0.2l0.05-3.17L117.6,130.07z"/>
	<path class="st8" d="M106.41,143.55c0,0-0.92,5.59-0.31,9.11s7.51,6.66,7.51,6.66s1.99-0.77,1.99,0.46s0.31,3.75-2.91,3.37
		c-3.22-0.38-11.79-7.12-12.02-10.95s1.07-11.49,1.07-11.49L106.41,143.55z"/>
	<path class="st8" d="M125.33,135.05c0.08,0.23,2.6,4.6,3.22,5.9c0.61,1.3,4.9,7.12,4.9,7.12s0.08,6.59-3.22,3.6
		c-3.29-2.99-6.28-8.96-6.28-8.96l-2.37-4.98L125.33,135.05z"/>
	<path class="st9" d="M119.94,145.8c0,2.93-2.29,5.31-5.11,5.31s-4.6-1.87-4.6-4.8c0-2.93,1.78-5.82,4.6-5.82
		S119.94,142.87,119.94,145.8z"/>
	<path class="st10" d="M115.45,121.34c0,0-0.77,3.83-1.68,4.29c-0.92,0.46-1.53,0-1.53,0l1.53,3.83l-0.31,0.92
		c0,0-2.3,0.46-3.68-4.44c-1.38-4.9-1.84-5.67,0.15-6.89c1.99-1.23,5.21-4.44,8.88-2.6c3.68,1.84,4.14,4.44,3.22,6.13
		C122.04,122.57,118.21,122.95,115.45,121.34z"/>
	<ellipse class="st8" cx="113" cy="126.93" rx="1.53" ry="1.76"/>
</g>
<polygon class="st3" points="397.63,162.31 381.46,152.97 383.42,151.98 399.59,161.32 "/>
<polygon class="st3" points="392.84,165.18 376.66,155.84 378.62,154.85 394.8,164.19 "/>
<polygon class="st3" points="387.22,168.05 371.05,158.71 373.01,157.72 389.19,167.06 "/>
<g>
	<polygon class="st5" points="287.67,133.86 247.85,110.01 253,106.86 293.33,130.53 	"/>
</g>
<g>
	<polygon class="st5" points="351.2,188.59 232.33,119.86 239.15,115.78 358.02,184.51 	"/>
</g>
<g>
	<path class="st8" d="M218.21,99.54c-0.08,0.23-2.6,4.6-3.22,5.9c-0.61,1.3-4.9,7.12-4.9,7.12s-0.08,6.59,3.22,3.6
		c3.29-2.99,6.28-8.96,6.28-8.96l2.37-4.98L218.21,99.54z"/>
	<path class="st11" d="M239.17,154c0,0-0.51,1.53-0.71,3.06s-2.14,7.66,0.41,7.35s3.88-3.98,4.29-4.39c0.41-0.41-0.1-8.17-0.1-8.17
		L239.17,154z"/>
	<path class="st11" d="M227.12,156.86c0,0,1.94,2.55,1.94,3.98c0,1.43-0.41,2.25-0.41,2.25l-4.7,0.41c0,0-0.2,1.53-2.76,1.94
		s-4.39-0.31-3.27-1.74c1.12-1.43,4.8-5.21,6.03-5.21C225.18,158.49,227.12,156.86,227.12,156.86z"/>
	<path class="st12" d="M236.21,119.68c0,0-1.12,19.2,0,21.14s6.84,11.03,6.84,11.03s-0.71,4.29-3.27,3.57
		c-2.55-0.71-0.61-0.1-0.61-0.1l-9.7-12.76l0.41-14.81h-2.45c0,0-2.25,13.99-1.53,15.62c0.71,1.63,2.35,13.79,2.35,13.79
		s-3.17,2.96-4.9,2.04l-3.27-17.46l0.41-25.22L236.21,119.68z"/>
	<path class="st3" d="M228.91,94.97c0,0,3.01-1.33,5.31,0.36c2.3,1.68,6.28,8.27,6.28,8.27s-2.6,2.3-3.68,2.76
		c-1.07,0.46,0,13.79,0,13.79s-5,1.89-10.26,1.68c-3.44-0.13-6.38-1.53-6.38-1.53l-0.05-19.15c0,0-4.75-2.14-3.98-3.68
		c0.77-1.53,0-7.66,4.6-6.74L228.91,94.97z"/>
	<path class="st8" d="M221.66,82.92c-0.92,0.61-1.38,1.23-1.68,3.37c-0.31,2.14-0.97,7.86,1.17,8.32s4.06,1.07,6.2-1.53
		c2.14-2.6,3.5-6.33,3.5-6.79S221.66,82.92,221.66,82.92z"/>
	<path class="st8" d="M224.11,93.49l-1.58-0.05c0,0-0.17,3.63,0.98,5.02c0.28,0.34,0.58,0.54,0.91,0.54c1.68,0,5.05-4.24,5.05-4.24
		l-1.07-0.2l-0.05-3.17L224.11,93.49z"/>
	<path class="st8" d="M235.29,106.97c0,0,0.92,5.59,0.31,9.11c-0.61,3.52-7.51,6.66-7.51,6.66s-1.99-0.77-1.99,0.46
		c0,1.23-0.31,3.75,2.91,3.37c3.22-0.38,11.79-7.12,12.02-10.95c0.23-3.83-1.07-11.49-1.07-11.49L235.29,106.97z"/>
	<path class="st13" d="M227.32,82.72l-2.25,2.49l-1.63,1.8l-0.41-2.04l-2.35,1.76l-1.07-1.3c0,0-1.3-4.9,4.85-5.97
		c7.31-1.27,10.21,3.68,8.58,7.35s-4.65,7.76-4.65,7.76l-0.66-4.62L227.32,82.72z"/>
	
		<ellipse transform="matrix(0.4137 -0.9104 0.9104 0.4137 51.9738 260.5069)" class="st8" cx="228.25" cy="89.9" rx="1.76" ry="1.53"/>
	<path class="st13" d="M225.51,84.04l0.46,2.99l2.99-2.22c0,0-0.77-2.76-1-2.76S225.51,84.04,225.51,84.04z"/>
	<path class="st14" d="M224.49,98.67c0,0,0.23,0.49,1.56-0.74c1.33-1.23,3.27-3.17,3.27-3.17l1.29-0.27c0,0-1.67,1.9-1.88,2.11
		c-0.2,0.2-3.26,3.37-4.33,3.22c-0.77-0.11-2.83-1.76-2.22-4.98l0.5,0.03C222.68,94.87,222.24,98.16,224.49,98.67z"/>
</g>
<g>
	<path class="st11" d="M328.86,204.54c0,0-0.51,1.53-0.71,3.06c-0.2,1.53-2.14,7.66,0.41,7.35c2.55-0.31,3.88-3.98,4.29-4.39
		s-0.1-8.17-0.1-8.17L328.86,204.54z"/>
	<path class="st11" d="M316.81,207.39c0,0,1.94,2.55,1.94,3.98s-0.41,2.25-0.41,2.25l-4.7,0.41c0,0-0.2,1.53-2.76,1.94
		s-4.39-0.31-3.27-1.74c1.12-1.43,4.8-5.21,6.02-5.21C314.87,209.03,316.81,207.39,316.81,207.39z"/>
	<path class="st15" d="M325.9,170.22c0,0-1.12,19.2,0,21.14s6.84,11.03,6.84,11.03s-0.71,4.29-3.27,3.57
		c-2.55-0.71-0.61-0.1-0.61-0.1l-9.7-12.76l0.41-14.81h-2.45c0,0-2.25,13.99-1.53,15.62c0.71,1.63,2.35,13.79,2.35,13.79
		s-3.17,2.96-4.9,2.04l-3.27-17.46l0.41-25.22L325.9,170.22z"/>
	<path class="st16" d="M318.39,145.56c0,0,3.22-1.38,5.51,0.31c2.3,1.68,6.28,8.27,6.28,8.27s-2.6,2.3-3.68,2.76
		c-1.07,0.46,0,13.79,0,13.79s-5,1.89-10.26,1.68c-3.44-0.13-6.38-1.53-6.38-1.53l-0.05-19.15c0,0-4.75-2.14-3.98-3.68
		c0.77-1.53,0-7.66,4.6-6.74L318.39,145.56z"/>
	<path class="st8" d="M311.35,133.46c-0.92,0.61-1.38,1.23-1.68,3.37c-0.31,2.14-1.68,6.74,0.46,7.2c2.14,0.46,3.98,2.76,6.13,0.15
		s4.29-6.89,4.29-7.35C320.54,136.37,311.35,133.46,311.35,133.46z"/>
	<ellipse class="st8" cx="318.39" cy="140.89" rx="1.53" ry="1.76"/>
	<path class="st8" d="M313.8,144.03l-1.58-0.05c0,0-0.17,3.63,0.98,5.02c0.28,0.34,0.58,0.54,0.91,0.54c1.68,0,5.05-4.24,5.05-4.24
		l-1.07-0.2l-0.05-3.17L313.8,144.03z"/>
	<path class="st13" d="M315.69,131.62c-0.29,0.1-1.74-1.43-2.04-1.74c-0.31-0.31-1.12,1.12-1.12,1.12l-0.82-0.41l-0.2,1.23
		l-2.14,0.2c0,0-0.61,1.63,0.71,3.06c1.32,1.43,5.21,2.04,6.33,1.53c1.12-0.51,2.04,0.31,2.04,0.31l-0.92,3.37l1.74-1.02l-1.23,3.57
		l-0.1,1.84c0,0,2.66-6.74,3.88-6.74s0.61-4.29,0.61-4.29S320.28,130.09,315.69,131.62z"/>
	<path class="st8" d="M324.98,157.51c0,0,0.92,5.59,0.31,9.11c-0.61,3.52-7.51,6.66-7.51,6.66s-1.99-0.77-1.99,0.46
		s-0.31,3.75,2.91,3.37c3.22-0.38,11.79-7.12,12.02-10.95c0.23-3.83-1.07-11.49-1.07-11.49L324.98,157.51z"/>
	<path class="st8" d="M306.06,149.01c-0.08,0.23-2.6,4.6-3.22,5.9c-0.61,1.3-4.9,7.12-4.9,7.12s-0.08,6.59,3.22,3.6
		c3.29-2.99,6.28-8.96,6.28-8.96l2.37-4.98L306.06,149.01z"/>
</g>
<polygon class="st17" points="327.53,184.79 327.53,185.41 202.9,113.46 117.66,162.31 117.9,161.08 106.59,162.15 106.59,168.65 
	241.47,246.52 337.78,191.33 337.78,184.79 "/>
<g>
	<polygon class="st18" points="111.6,162.16 202.9,109.84 332.77,184.82 241.47,237.14 	"/>
	<path class="st19" d="M202.89,112.72l124.86,72.09l-86.27,49.44l-124.86-72.08L202.89,112.72 M202.9,106.96l-96.31,55.2
		l134.88,77.87l96.31-55.2L202.9,106.96L202.9,106.96z"/>
</g>
<polygon class="st20" points="124.99,162.19 175.49,153.19 174.49,167.19 238.99,158.69 233.49,193.19 267.99,192.69 259.99,217.69 
	240.49,228.69 "/>
<ellipse class="st21" cx="202.01" cy="144.69" rx="13.15" ry="9.5"/>
<g>
	<path class="st8" d="M211.3,229.52l1.53,0.92l-0.69,0.54c0,0-3.52,0.46-3.14,0.31C209.39,231.13,211.3,229.52,211.3,229.52z"/>
	<path class="st13" d="M220.84,269.36c0,0-1.99-2.3-2.91,0.15c-0.92,2.45,1.38,5.21,3.22,5.82c1.84,0.61,0.46,2.3,3.68,2.14
		l0.31-5.36L220.84,269.36z"/>
	<path class="st13" d="M212.72,275.79c0,0-1.23,1.99-3.68,2.76s-5.51,0.92-4.44,3.22c1.07,2.3,6.89-0.15,8.27,0.15
		c1.38,0.31,2.45,0.77,3.98-0.77s-0.46-4.9-0.46-4.9L212.72,275.79z"/>
	<path class="st8" d="M216.86,210.8c0,0,1.07-1.99,1.07-2.6s-3.68-1.53-3.68-3.83s1.07-6.89,2.6-6.59c1.53,0.31,8.58,1.07,7.35,4.44
		s-2.45,5.21-2.45,5.21l0.46,2.45l1.53-0.15C223.75,209.72,220.38,216.16,216.86,210.8z"/>
	<ellipse class="st8" cx="214.41" cy="204.44" rx="1.68" ry="1.91"/>
	<ellipse class="st8" cx="223.29" cy="202.45" rx="1.68" ry="1.61"/>
	<path class="st22" d="M218.39,195.32c0,0-3.83-0.92-4.44,1.23s-1.68,4.29-0.46,6.74c1.23,2.45,5.05,4.29,5.05,4.29l1.53,1.84
		c0,0,1.53-3.52,2.45-4.75s2.37-3.29,1.3-5.59S222.83,194.4,218.39,195.32z"/>
	<path class="st23" d="M213.33,232.14l-1.53,1.84c0,0-2.6,15.78-1.53,21.6s1.53,21.44,1.53,21.44s5.67,5.94,5.67,0.15
		c0-0.92-0.77-23.44-0.77-23.44l3.22-12.1c0,0,4.9,0.92,7.05-3.83c1.14-2.52,0.77-9.19,0.77-9.19L213.33,232.14z"/>
	<path class="st23" d="M226.66,237.65c-0.31,1.23-1.38,11.79-1.07,15.47s0,21.29,0,21.29s-4.14,1.99-4.75-2.91
		s-1.53-18.38-1.38-18.99s-0.31-13.17-0.31-13.17L226.66,237.65z"/>
	<path class="st8" d="M221.07,189.35c0,0-1.53-1.68-1.84-2.53c-0.31-0.84,1.07,0.77,1.3-0.23s-0.54-1.84-1.61-2.53
		s0.61-2.14,2.6-1.07c1.99,1.07,3.52,2.14,2.83,4.29L221.07,189.35z"/>
	<path class="st24" d="M219.46,211.71c1.53-0.15,3.52-2.45,3.98-3.06s1.23-10.72,1.23-10.72l-3.98-8.42c0,0,3.37-3.98,4.6-2.45
		c0,0,4.9,7.51,4.75,11.18c-0.15,3.68-1.84,18.38-1.53,21.29s-0.77,13.33-0.77,13.33s-5.21,7.2-16.54,3.98l1.84-13.79
		c0,0-2.76,6.79-5.21,8.32c-2.35,1.47-4.44-2.35-2.76-4.95s5.36-16.08,11.79-15.62C216.86,210.8,217.93,211.87,219.46,211.71z"/>
	<path class="st25" d="M206.9,231.65l2.45-0.33c0,0,2.35-1.3,1.74-2.02c-0.61-0.71-1.74-0.71-1.74-0.71L206.9,231.65z"/>
</g>
<g>
	<path class="st3" d="M266.23,164.16l-0.06-0.03c0.02-0.02,0.04-0.04,0.06-0.06c1.51-1.55,1-3.84-1.13-5.11
		c-2.14-1.27-5.1-1.04-6.61,0.51c-0.02,0.02-0.04,0.05-0.07,0.07c-1.71-0.84-3.91-0.6-5.07,0.58c-1.23,1.26-0.82,3.12,0.92,4.15
		l7.5,4.45c1.74,1.03,4.15,0.85,5.37-0.42C268.38,167.05,267.97,165.19,266.23,164.16z"/>
</g>
<g>
	<path class="st3" d="M179.02,145.69l-0.05-0.03c0.02-0.02,0.03-0.03,0.05-0.05c1.3-1.34,0.87-3.31-0.98-4.4
		c-1.85-1.09-4.39-0.9-5.7,0.44c-0.02,0.02-0.04,0.04-0.06,0.06c-1.47-0.72-3.37-0.52-4.36,0.5c-1.06,1.09-0.7,2.69,0.8,3.58
		l6.46,3.83c1.5,0.89,3.57,0.73,4.63-0.36C180.88,148.18,180.52,146.58,179.02,145.69z"/>
</g>
<g>
	<path class="st3" d="M284.48,182.69l-0.1-0.06c0.03-0.03,0.07-0.06,0.1-0.1c2.63-2.66,1.78-6.61-1.89-8.83s-8.78-1.86-11.41,0.79
		c-0.04,0.04-0.07,0.08-0.11,0.12c-2.93-1.47-6.73-1.1-8.74,0.94c-2.14,2.16-1.45,5.37,1.54,7.18l12.87,7.78
		c2.99,1.8,7.14,1.52,9.28-0.64C288.15,187.71,287.46,184.5,284.48,182.69z"/>
</g>
<g>
	
		<ellipse transform="matrix(0.9401 -0.3409 0.3409 0.9401 -35.9169 47.1778)" class="st26" cx="116.29" cy="125.79" rx="2.08" ry="1.44"/>
	
		<ellipse transform="matrix(0.9401 -0.3409 0.3409 0.9401 -35.2047 48.6103)" class="st27" cx="120.72" cy="124.48" rx="1.51" ry="1.33"/>
	<line class="st28" x1="119.27" y1="124.77" x2="118.5" y2="125.12"/>
</g>
<g>
	<ellipse class="st0" cx="317.11" cy="359.84" rx="17.56" ry="9.28"/>
	<polygon class="st29" points="285.24,286.85 300.5,297.62 308.27,289.31 296.28,279.9 	"/>
	<path class="st30" d="M289.19,286.72c1.09-0.55,7.09-5.18,7.09-5.18l9.95,7.22l-6.27,6.54L289.19,286.72z"/>
	<path class="st8" d="M309.36,290.67c-0.41,0-4.91-2.32-5.72-1.09s-1.77,2.45-0.68,2.73c1.09,0.27,4.09-0.41,4.5,0.41
		C307.86,293.53,309.36,290.67,309.36,290.67z"/>
	<path class="st31" d="M314.54,360.59c0,0-10.63-1.91-9,0.82c1.64,2.73,8.18,5.18,8.18,5.18l2.73-1.09L314.54,360.59z"/>
	<path class="st31" d="M324.35,353.14c-0.82,0-6.81-1-8.18,1c0,0,5.18,4.19,7.63,3.99s4.09-0.8,4.09-0.8S329.8,353.14,324.35,353.14
		z"/>
	<path class="st32" d="M309.63,316.16c-0.82,3.54-0.55,22.9-0.55,22.9l1.36,22.62c0,0,7.14,4.42,6.27,1.36
		c-0.55-1.91-0.27-38.16-0.27-38.16l1.91,1.09l2.73,17.99l1.36,11.72c0,0,1.64,3,5.45,0.55l-2.45-23.17l-0.82-16.63L309.63,316.16z"
		/>
	<path class="st8" d="M311.81,270.63c0,0-8.51,14.78,4.09,12.27C315.9,282.9,324.9,269.41,311.81,270.63z"/>
	<path class="st33" d="M317.74,267.98c0,0-4.19,0.51-5.21,0.41s-3.37-1.12-3.37-1.12l0.82,2.25l-0.51,1.53l-1.53,1.53l1.43,1.84
		c0,0,1.12,1.84,2.76,1.33c1.64-0.51,1.02,1.43,1.02,1.43s1.43-0.92,1.02,0.72c-0.41,1.64-1.43,1.74-1.43,1.74s1.12,1.94,1.53,2.15
		c0.41,0.2,3.88,1.74,3.88,1.74l4.29-5.72C322.45,277.79,323.37,267.06,317.74,267.98z"/>
	<polygon class="st34" points="309.36,285.35 314.27,280.86 319.58,280.86 319.17,283.31 	"/>
	<path class="st35" d="M322.19,282.88c0,0,4.36,7.26,4.36,13.8s0,2.72,0,2.72s0.83,1.46-0.91,3.45c-1.88,2.16,2,16.34,2,16.34
		s-11.36,1.44-20.88-0.36l1.92-12.62c0,0-3.27,2.18-3.82,2.04c-0.55-0.14-10.49-9.95-10.49-9.95l4.91-3.27l7.22,5.32
		c0,0-2.32-13.22,2.86-14.99C309.36,285.35,313.19,281.65,322.19,282.88z"/>
	<path class="st8" d="M298.32,295.57c0,0-0.27-0.82-0.14-2.45c0.13-1.63-0.14,0.27-1.36,0.55c-1.23,0.27-3.68-0.82-3.54-2.18
		c0.14-1.36-5.32,3.13,2.45,6.41L298.32,295.57z"/>
</g>
<g>
	<g>
		<g>
			<path class="st3" d="M275.16,99.88l-0.03-0.92l0,0l-0.03-0.94l-0.07-1.86L273.7,96l0,0l-1.37-0.16l-2.7-0.32l0.1,2.7l0,0v0.11
				c0.02,0.51,0.63,0.99,1.36,1.08l0.28,0.03l0,0L275.16,99.88z"/>
		</g>
	</g>
	<g>
		<g>
			<path class="st3" d="M281.61,94.99l-0.07-1.89l0,0l-0.03-0.92l-3.91-0.47l0,0l-0.16-0.02c-0.73-0.09-1.32,0.26-1.3,0.76
				l0.01,0.19l0,0l0.09,2.62l1.33,0.16l0,0l2.73,0.33C281.04,95.84,281.62,95.49,281.61,94.99z"/>
		</g>
		<g>
			<path class="st3" d="M281.72,100.55l-0.03-0.92l0,0l-0.07-1.89c-0.02-0.51-0.63-0.99-1.37-1.08l-2.73-0.33l0,0l-1.33-0.16
				l0.1,2.7l0,0v0.11c0.02,0.51,0.63,0.99,1.37,1.08l0.28,0.03l0,0L281.72,100.55z"/>
		</g>
		<g>
			<path class="st3" d="M273.97,92c0.51-0.3,0.93-0.12,0.95,0.38l0.07,1.89c0.02,0.51-0.57,0.85-1.3,0.76l-2.73-0.33
				c-0.73-0.09-0.92-0.4-0.41-0.7L273.97,92z"/>
		</g>
	</g>
</g>
<g>
	<path class="st3" d="M291.06,105.04l-0.8,0.52c-0.08,0.05-0.16,0.08-0.27,0.08s-0.2-0.02-0.29-0.07l-0.74-0.45l-1.97,1.28
		l-1.21-0.74l1.97-1.28l-3.44-2.1c-0.1-0.06-0.15-0.13-0.16-0.21s0.01-0.15,0.08-0.22l0.55-0.54l8.97-0.97l1.32,0.81l-5.03,3.28
		L291.06,105.04z M288.82,103.68l2.64-1.72c0.25-0.16,0.54-0.33,0.88-0.51l-6,0.71L288.82,103.68z"/>
	<path class="st3" d="M300.3,107.3l-7.59,4.95l-1.39-0.85l2.59-1.69c-0.47,0.02-0.93-0.01-1.37-0.09s-0.85-0.24-1.23-0.47
		c-0.32-0.19-0.54-0.41-0.67-0.66s-0.17-0.51-0.11-0.78c0.06-0.28,0.22-0.57,0.48-0.87c0.26-0.3,0.63-0.6,1.09-0.91
		c0.42-0.28,0.88-0.5,1.36-0.66c0.48-0.17,0.96-0.27,1.45-0.31c0.49-0.04,0.96-0.02,1.41,0.07c0.45,0.09,0.87,0.25,1.25,0.48
		c0.36,0.22,0.6,0.45,0.72,0.67c0.12,0.23,0.17,0.47,0.16,0.72l0.4-0.17c0.22-0.08,0.42-0.06,0.6,0.05L300.3,107.3z M297.45,107.4
		c0.03-0.22,0-0.41-0.11-0.57c-0.11-0.17-0.27-0.31-0.49-0.45c-0.21-0.13-0.44-0.22-0.69-0.27c-0.25-0.05-0.51-0.06-0.79-0.03
		c-0.28,0.03-0.57,0.1-0.88,0.22c-0.31,0.12-0.63,0.29-0.96,0.5c-0.33,0.22-0.59,0.42-0.77,0.6c-0.18,0.19-0.29,0.36-0.33,0.51
		c-0.05,0.16-0.03,0.3,0.05,0.43c0.08,0.13,0.21,0.25,0.39,0.36c0.29,0.18,0.6,0.29,0.92,0.33c0.32,0.05,0.68,0.05,1.08,0.02
		L297.45,107.4z"/>
	<path class="st3" d="M307.23,111.53l-5.72,3.73l-0.85-0.52c-0.18-0.11-0.22-0.24-0.1-0.38l0.36-0.36c-0.47,0.01-0.93-0.02-1.36-0.1
		s-0.84-0.24-1.23-0.47c-0.32-0.19-0.54-0.4-0.68-0.61c-0.14-0.22-0.19-0.44-0.16-0.67c0.03-0.23,0.13-0.45,0.31-0.68
		c0.18-0.23,0.43-0.44,0.75-0.65l3.64-2.37l1.39,0.85l-3.64,2.37c-0.35,0.23-0.54,0.45-0.57,0.68c-0.03,0.23,0.12,0.44,0.45,0.64
		c0.24,0.15,0.52,0.25,0.84,0.31c0.32,0.06,0.66,0.09,1.04,0.08l4.14-2.7L307.23,111.53z"/>
	<path class="st3" d="M308.24,113.15c1.27,0.01,2.37,0.31,3.31,0.88c0.34,0.21,0.59,0.43,0.74,0.66c0.16,0.23,0.23,0.47,0.22,0.71
		s-0.1,0.48-0.28,0.71c-0.17,0.24-0.43,0.46-0.75,0.67l-3.61,2.35l-0.63-0.39c-0.13-0.08-0.21-0.15-0.25-0.22
		c-0.03-0.07-0.01-0.15,0.07-0.26l0.29-0.35c-0.28,0-0.53-0.02-0.77-0.04c-0.24-0.02-0.47-0.06-0.68-0.1
		c-0.22-0.05-0.43-0.11-0.63-0.19c-0.21-0.08-0.41-0.19-0.62-0.31c-0.24-0.15-0.44-0.31-0.58-0.48c-0.14-0.17-0.22-0.34-0.24-0.52
		s0.03-0.35,0.14-0.53c0.11-0.18,0.29-0.35,0.55-0.52c0.15-0.09,0.32-0.17,0.51-0.24c0.19-0.06,0.41-0.1,0.65-0.12
		c0.24-0.02,0.51-0.01,0.8,0.02c0.29,0.03,0.61,0.1,0.95,0.2c0.34,0.1,0.71,0.24,1.11,0.41s0.82,0.39,1.27,0.65l0.33-0.22
		c0.38-0.25,0.58-0.48,0.6-0.71c0.02-0.22-0.13-0.43-0.44-0.62c-0.23-0.14-0.44-0.24-0.64-0.29c-0.2-0.06-0.39-0.1-0.57-0.12
		c-0.18-0.03-0.34-0.05-0.48-0.07c-0.14-0.02-0.27-0.07-0.39-0.14c-0.1-0.06-0.16-0.13-0.17-0.2c-0.02-0.07-0.01-0.15,0.01-0.21
		L308.24,113.15z M308.95,116.72c-0.42-0.23-0.79-0.42-1.12-0.55c-0.33-0.13-0.61-0.23-0.85-0.28c-0.24-0.05-0.45-0.06-0.63-0.04
		c-0.18,0.02-0.33,0.08-0.45,0.16c-0.24,0.16-0.34,0.31-0.3,0.47c0.04,0.16,0.18,0.31,0.41,0.45c0.29,0.17,0.58,0.29,0.9,0.35
		c0.31,0.06,0.67,0.08,1.08,0.07L308.95,116.72z"/>
	<path class="st3" d="M319.44,115.74l-8.29,5.4l-1.39-0.85l8.29-5.4L319.44,115.74z"/>
	<path class="st3" d="M320.27,119.49l-5.72,3.73l-1.4-0.85l5.72-3.73L320.27,119.49z M322.13,118.52c-0.12,0.08-0.26,0.14-0.41,0.17
		c-0.15,0.04-0.31,0.06-0.47,0.06s-0.32-0.02-0.47-0.05c-0.16-0.04-0.3-0.09-0.42-0.17c-0.12-0.07-0.21-0.16-0.27-0.25
		c-0.06-0.1-0.09-0.19-0.09-0.29c0-0.1,0.03-0.2,0.09-0.29c0.06-0.1,0.14-0.18,0.26-0.26c0.12-0.08,0.26-0.14,0.42-0.18
		c0.15-0.04,0.31-0.06,0.47-0.07c0.16,0,0.31,0.01,0.47,0.05c0.15,0.04,0.29,0.09,0.41,0.16c0.12,0.08,0.22,0.16,0.28,0.26
		s0.09,0.2,0.1,0.3c0,0.1-0.03,0.2-0.09,0.3C322.35,118.35,322.25,118.44,322.13,118.52z"/>
	<path class="st3" d="M321.32,121.14c1.27,0.01,2.37,0.31,3.31,0.88c0.34,0.21,0.59,0.43,0.74,0.66c0.16,0.23,0.23,0.47,0.22,0.71
		s-0.1,0.48-0.28,0.71c-0.17,0.24-0.43,0.46-0.75,0.67l-3.61,2.35l-0.63-0.39c-0.13-0.08-0.21-0.15-0.25-0.22
		c-0.03-0.07-0.01-0.15,0.07-0.26l0.29-0.34c-0.28-0.01-0.53-0.02-0.77-0.04c-0.24-0.02-0.46-0.06-0.68-0.1
		c-0.22-0.05-0.43-0.11-0.64-0.19c-0.21-0.08-0.41-0.19-0.62-0.31c-0.24-0.15-0.44-0.31-0.58-0.48c-0.14-0.17-0.22-0.34-0.24-0.52
		s0.03-0.35,0.14-0.53c0.11-0.18,0.29-0.35,0.55-0.51c0.15-0.09,0.31-0.17,0.51-0.24c0.19-0.06,0.41-0.1,0.65-0.12
		c0.24-0.02,0.51-0.01,0.8,0.02c0.29,0.03,0.61,0.1,0.95,0.2c0.34,0.1,0.71,0.24,1.11,0.41s0.82,0.39,1.27,0.65l0.33-0.22
		c0.38-0.25,0.58-0.48,0.6-0.71c0.02-0.22-0.13-0.43-0.44-0.62c-0.23-0.14-0.44-0.23-0.64-0.29c-0.2-0.06-0.39-0.1-0.57-0.13
		s-0.34-0.05-0.48-0.07c-0.14-0.02-0.27-0.07-0.39-0.14c-0.1-0.06-0.16-0.13-0.17-0.2c-0.02-0.07-0.01-0.15,0.01-0.21L321.32,121.14
		z M322.03,124.7c-0.42-0.23-0.79-0.42-1.12-0.55c-0.32-0.13-0.61-0.23-0.85-0.28c-0.24-0.05-0.45-0.06-0.63-0.04
		c-0.18,0.02-0.33,0.08-0.45,0.16c-0.24,0.16-0.34,0.31-0.3,0.47c0.04,0.16,0.18,0.31,0.41,0.45c0.28,0.17,0.58,0.29,0.9,0.35
		c0.31,0.06,0.67,0.08,1.08,0.07L322.03,124.7z"/>
</g>
<g>
	<ellipse class="st0" cx="537.63" cy="86.15" rx="13.82" ry="7.3"/>
	<path class="st3" d="M536.9,51.67c0,0-7.09-1.71-9.9,2.81c-8.44,12.23,5.01,30.69,9.9,30.69s15.16-5.38,14.55-20.67
		C550.84,49.22,539.46,50.69,536.9,51.67z"/>
	<path class="st1" d="M531.92,55.63c0,0-3.6-8.47,7.21-8.11c0,0,10.81,1.8,6.12,7.75S535.34,59.59,531.92,55.63z"/>
	<path class="st3" d="M529.68,51.18c0,0-4.89-11.49,9.78-11.01c0,0,14.67,2.45,8.32,10.52C541.42,58.76,534.33,56.56,529.68,51.18z"
		/>
	<path class="st25" d="M532.13,44.7c1.71-0.89,8.07,3.67,7.58,6.11c-0.49,2.45-2.34,4.2-5.63,1.96
		C530.91,50.6,527.57,46.32,532.13,44.7z"/>
	<ellipse class="st25" cx="546.13" cy="80.83" rx="4.34" ry="3.49"/>
	<path class="st1" d="M546.13,81.02L546.13,81.02c-1.58,0-2.87-1.29-2.87-2.87V64.82c0-1.58,1.29-2.87,2.87-2.87l0,0
		c1.58,0,2.87,1.29,2.87,2.87v13.33C549,79.72,547.71,81.02,546.13,81.02z"/>
</g>
<ellipse class="st0" cx="481.68" cy="82.69" rx="13.81" ry="7.3"/>
<path class="st36" d="M485.69,76.71c0,0-2.52,10.06,1.05,9.64s4.61-5.66,4.61-5.66l-1.47-6.71L485.69,76.71z"/>
<path class="st36" d="M475.21,79.43c0,0,3.56,6.29,0.42,6.29c-3.14,0-4.61,0.84-5.66,1.26c-1.05,0.42-5.87,0.84-5.87,0.84
	s5.45-7.75,7.75-7.75C472.69,80.06,475.21,79.43,475.21,79.43z"/>
<path class="st37" d="M467.66,38.15l-1.05,22.22l3.98,20.75c0,0,5.58,2.58,5.24-0.84c-0.21-2.1-3.56-18.23-3.56-18.23l1.26-14.46
	l2.93,0.63l1.26,16.35l9.01,14.04c0,0,4.82-2.52,3.98-4.61l-6.92-12.58l1.26-22.22L467.66,38.15z"/>
<path class="st38" d="M488.62,31.65c0,0-6.29-12.58-8.38-15.3c-1.06-1.38-2.33-1.52-3.33-1.33c-1.61-0.21-4.54-0.83-6.49-0.9
	l0.39-1.33l-4.19-1.47l-5.03,14.25l-9.01,8.8l4.4,2.93l9.22-10.48l0.67-1.87l0.58,14.44c0,0,7.54,4.06,12.51,3.37l3.42,2.08
	L488.62,31.65z"/>
<path class="st8" d="M470.7,2.52c0,0-5.97,6.29-4.09,8.8s5.66,4.72,9.75-0.63S470.7,2.52,470.7,2.52z"/>
<path class="st36" d="M476.36,0.63L470.39,0l-2.83,2.2v2.83l5.97-0.31l1.89,4.08l0.94,1.89C476.36,10.69,482.96,6.92,476.36,0.63z"
	/>
<polygon class="st8" points="474.58,10.9 476.05,14.25 477.72,15.09 471.44,20.12 468.5,14.67 469.76,11.32 "/>
<path class="st8" d="M480.45,42.13c-0.66,0.06-4.82,2.31-3.56,2.52s1.89,0.84,1.89,0.84s-2.1,4.19,0.42,3.14s3.56-4.4,3.56-4.4
	S484.85,41.71,480.45,42.13z"/>
<path class="st8" d="M454.25,33.32c0,0-4.19,1.89-3.77,3.35c0.42,1.47,2.72,0.42,3.14,1.68c0.42,1.26,1.89,2.52,1.89,2.52
	s1.26-2.1,1.05-4.4C456.34,34.16,454.25,33.32,454.25,33.32z"/>
<g>
	<polygon class="st18" points="439.82,77.18 448.9,37.08 477.25,46.34 467.59,88.37 	"/>
	<path class="st19" d="M449.85,38.74l25.89,8.46l-9.07,39.42L441.31,76.4L449.85,38.74 M447.96,35.42l-9.64,42.55l30.18,12.16
		l10.27-44.64L447.96,35.42L447.96,35.42z"/>
</g>
<polygon class="st39" points="470.6,89.7 480.87,45.48 478.77,45.48 468.5,90.12 "/>
<polygon class="st40" points="447.96,35.42 451.11,34.79 480.87,45.48 478.56,45.9 "/>
</svg>
