<?xml version="1.0" encoding="utf-8"?>
<!-- Generator: Adobe Illustrator 22.1.0, SVG Export Plug-In . SVG Version: 6.00 Build 0)  -->
<svg version="1.1" id="レイヤー_1" xmlns="http://www.w3.org/2000/svg" xmlns:xlink="http://www.w3.org/1999/xlink" x="0px"
	 y="0px" viewBox="0 0 250 192" style="enable-background:new 0 0 250 192;" xml:space="preserve">
<style type="text/css">
	.st0{enable-background:new    ;}
	.st1{fill:#E5E8EA;}
</style>
<g class="st0">
	<path class="st1" d="M109.3,159.3c-3.1,6.9-7.2,12.8-12.4,17.5c-5.2,4.7-11.2,8.3-18.2,10.8c-6.9,2.5-14.2,3.7-21.7,3.7
		c-7.7,0-15-1.2-21.8-3.7s-12.9-6.1-18.2-10.8s-9.4-10.6-12.5-17.5c-3-7-4.5-14.9-4.5-23.8v-79c0-8.9,1.5-16.9,4.6-23.8
		s7.2-12.8,12.5-17.5S28.4,6.9,35.3,4.4C42.1,2,49.4,0.8,57.1,0.8c7.5,0,14.8,1.2,21.7,3.7s13,6.1,18.2,10.8s9.3,10.6,12.4,17.5
		s4.6,14.9,4.6,23.8v78.9C113.9,144.4,112.4,152.3,109.3,159.3z M79.4,57.1c0-7.9-2.1-14.1-6.2-18.7c-4.2-4.6-9.5-6.8-16.1-6.8
		s-12,2.3-16.3,6.8c-4.2,4.6-6.4,10.8-6.4,18.7v78.1c0,7.9,2.1,14.1,6.4,18.5c4.2,4.5,9.7,6.7,16.3,6.7s12-2.2,16.1-6.7
		c4.2-4.5,6.2-10.7,6.2-18.5V57.1z"/>
	<path class="st1" d="M240,159.9c-3.2,7-7.5,12.8-12.9,17.5c-5.4,4.6-11.8,8.1-19,10.4c-7.2,2.3-14.9,3.4-22.9,3.4
		c-7.7,0-15.1-1.1-22.2-3.2s-13.4-5.4-18.9-9.9s-10-10.2-13.3-17.1c-3.3-6.9-5.1-15.3-5.3-25.1h34.2c0.2,4.2,1,7.9,2.4,10.9
		c1.4,3.1,3.2,5.6,5.5,7.6s5,3.5,8,4.5c3.1,1,6.3,1.4,9.6,1.4c7.4,0,13.4-2.2,18.2-6.7s7.1-10.9,7.1-19.3c0-7.9-2.3-14.2-6.9-18.8
		c-4.6-4.6-11.1-7-19.5-7h-5V78.9h5c8.4,0,14.5-2.2,18.2-6.7s5.5-10,5.5-16.7c0-7.9-2.3-13.9-6.8-17.9c-4.6-4-9.9-6.1-16-6.1
		c-6.5,0-11.9,2-16.2,5.9s-6.6,9.5-7,16.7h-34.2c0.2-8.4,1.8-15.9,4.9-22.5c3.1-6.6,7.1-12.1,12.2-16.7c5.1-4.6,11.1-8.1,18-10.5
		c6.9-2.5,14.3-3.7,22.2-3.7c8.2,0,15.9,1.3,22.9,3.9s13.1,6.3,18.2,11c5.1,4.7,9.1,10.4,11.9,17c2.8,6.6,4.2,13.8,4.2,21.7
		c0,10.2-2.1,18.3-6.2,24.3c-4.2,6.1-9.3,10.7-15.5,14.1c6.7,3.5,12.4,8.6,17.1,15.4c4.7,6.8,7.1,15.8,7.1,27.2
		C244.7,144.8,243.1,152.9,240,159.9z"/>
</g>
</svg>
