<?xml version="1.0" encoding="utf-8"?>
<!-- Generator: Adobe Illustrator 22.1.0, SVG Export Plug-In . SVG Version: 6.00 Build 0)  -->
<svg version="1.1" id="レイヤー_1" xmlns="http://www.w3.org/2000/svg" xmlns:xlink="http://www.w3.org/1999/xlink" x="0px"
	 y="0px" viewBox="0 0 250 192" style="enable-background:new 0 0 250 192;" xml:space="preserve">
<style type="text/css">
	.st0{enable-background:new    ;}
	.st1{fill:#E5E8EA;}
</style>
<g class="st0">
	<path class="st1" d="M109.3,158.5c-3.1,6.9-7.2,12.8-12.4,17.5c-5.2,4.7-11.2,8.3-18.2,10.8c-6.9,2.5-14.2,3.7-21.7,3.7
		c-7.7,0-15-1.2-21.8-3.7S22.3,180.7,17,176s-9.4-10.6-12.5-17.5c-3-6.9-4.5-14.9-4.5-23.8V55.8c0-9,1.5-16.9,4.6-23.8
		s7.2-12.8,12.5-17.5S28.4,6.2,35.3,3.7C42.1,1.2,49.4,0,57.1,0c7.5,0,14.8,1.2,21.7,3.7s13,6.1,18.2,10.8s9.3,10.6,12.4,17.5
		s4.6,14.9,4.6,23.8v78.9C113.9,143.6,112.4,151.6,109.3,158.5z M79.4,56.3c0-7.9-2.1-14.1-6.2-18.7c-4.2-4.6-9.5-6.8-16.1-6.8
		s-12,2.3-16.3,6.8c-4.2,4.6-6.4,10.8-6.4,18.7v78.1c0,7.9,2.1,14.1,6.4,18.5c4.2,4.5,9.7,6.7,16.3,6.7s12-2.2,16.1-6.7
		c4.2-4.5,6.2-10.7,6.2-18.5V56.3z"/>
	<path class="st1" d="M128.9,188.9v-30.8l70-81.3c3.5-4,6-7.7,7.5-11c1.5-3.3,2.2-7.2,2.2-11.6c0-7-1.9-12.7-5.8-17
		c-3.9-4.3-9.5-6.4-16.8-6.4c-2.8,0-5.6,0.4-8.3,1.2s-5.2,2.1-7.4,3.9s-3.9,4.3-5.3,7.4c-1.3,3.1-2,6.9-2,11.4h-34.2
		c0-8.6,1.4-16.3,4.3-23c2.9-6.7,6.9-12.5,12.1-17.2c5.2-4.7,11.2-8.3,18.2-10.8c7-2.5,14.5-3.7,22.6-3.7c8.2,0,15.9,1.3,22.9,3.8
		S222,9.9,227,14.6c5,4.6,9,10.3,11.8,17.1S243,46,243,54.5c0,4.6-0.4,8.6-1.3,12.2s-2.1,7.1-3.8,10.4s-3.8,6.6-6.3,9.9
		c-2.5,3.2-5.4,6.7-8.5,10.4l-52.3,60.8h72.3V189H128.9V188.9z"/>
</g>
</svg>
