<?xml version="1.0" encoding="utf-8"?>
<!-- Generator: Adobe Illustrator 22.1.0, SVG Export Plug-In . SVG Version: 6.00 Build 0)  -->
<svg version="1.1" id="レイヤー_1" xmlns="http://www.w3.org/2000/svg" xmlns:xlink="http://www.w3.org/1999/xlink" x="0px"
	 y="0px" viewBox="0 0 64 64" style="enable-background:new 0 0 64 64;" xml:space="preserve">
<style type="text/css">
	.st0{fill:#4D4D4D;}
	.st1{fill:#F3F3F3;}
</style>
<g>
	
		<rect x="9.193" y="9.193" transform="matrix(0.7071 -0.7071 0.7071 0.7071 -13.0005 31.386)" class="st0" width="44.386" height="44.386"/>
	<polygon class="st1" points="36.148,13.392 31.386,6.915 26.624,13.392 	"/>
	<g>
		<path class="st1" d="M18.888,28.337v3.216H17.73v-8.598h2.538c0.544,0,1.017,0.063,1.419,0.189s0.735,0.305,0.999,0.537
			c0.264,0.232,0.461,0.512,0.591,0.84c0.13,0.328,0.195,0.694,0.195,1.098c0,0.4-0.07,0.766-0.21,1.098
			c-0.14,0.332-0.345,0.618-0.615,0.858c-0.27,0.24-0.605,0.427-1.005,0.561c-0.4,0.134-0.858,0.201-1.374,0.201H18.888z
			 M18.888,27.413h1.38c0.332,0,0.625-0.044,0.879-0.132s0.467-0.211,0.639-0.369c0.172-0.158,0.302-0.347,0.39-0.567
			c0.088-0.22,0.132-0.462,0.132-0.726c0-0.548-0.169-0.976-0.507-1.284c-0.338-0.308-0.849-0.462-1.533-0.462h-1.38V27.413z"/>
		<path class="st1" d="M31.352,31.553h-0.9c-0.104,0-0.188-0.026-0.252-0.078c-0.064-0.052-0.112-0.118-0.144-0.198l-0.804-2.076
			h-3.858l-0.804,2.076c-0.028,0.072-0.076,0.136-0.144,0.192s-0.152,0.084-0.252,0.084h-0.9l3.438-8.598h1.182L31.352,31.553z
			 M25.718,28.361h3.21l-1.35-3.498c-0.088-0.216-0.174-0.486-0.258-0.81c-0.044,0.164-0.087,0.315-0.129,0.453
			c-0.042,0.138-0.083,0.259-0.123,0.363L25.718,28.361z"/>
		<path class="st1" d="M35.942,30.707c0.232,0,0.445-0.011,0.639-0.033c0.194-0.022,0.377-0.055,0.549-0.099
			s0.334-0.097,0.486-0.159c0.152-0.062,0.304-0.133,0.456-0.213v-1.896H36.74c-0.076,0-0.137-0.022-0.183-0.066
			c-0.046-0.044-0.069-0.098-0.069-0.162v-0.66h2.64v3.3c-0.216,0.156-0.441,0.292-0.675,0.408c-0.234,0.116-0.484,0.213-0.75,0.291
			c-0.266,0.078-0.551,0.136-0.855,0.174c-0.304,0.038-0.634,0.057-0.99,0.057c-0.624,0-1.196-0.107-1.716-0.321
			c-0.52-0.214-0.968-0.514-1.344-0.9c-0.376-0.386-0.669-0.849-0.879-1.389c-0.21-0.54-0.315-1.134-0.315-1.782
			c0-0.656,0.103-1.254,0.309-1.794c0.206-0.54,0.5-1.003,0.882-1.389c0.382-0.386,0.844-0.685,1.386-0.897
			c0.542-0.212,1.149-0.318,1.821-0.318c0.34,0,0.656,0.025,0.948,0.075c0.292,0.05,0.562,0.122,0.813,0.216
			c0.25,0.094,0.481,0.208,0.693,0.342c0.212,0.134,0.41,0.285,0.594,0.453l-0.33,0.528c-0.068,0.108-0.156,0.162-0.264,0.162
			c-0.064,0-0.134-0.022-0.21-0.066c-0.1-0.056-0.212-0.124-0.336-0.204c-0.124-0.08-0.275-0.157-0.453-0.231
			c-0.178-0.074-0.388-0.137-0.63-0.189c-0.242-0.052-0.529-0.078-0.861-0.078c-0.484,0-0.922,0.079-1.314,0.237
			c-0.392,0.158-0.726,0.384-1.002,0.678s-0.488,0.65-0.636,1.068c-0.148,0.418-0.222,0.887-0.222,1.407
			c0,0.544,0.077,1.029,0.231,1.455c0.154,0.426,0.371,0.787,0.651,1.083c0.28,0.296,0.612,0.522,0.996,0.678
			C35.054,30.629,35.478,30.707,35.942,30.707z"/>
		<path class="st1" d="M46.243,22.955v0.948h-4.128v2.856h3.342v0.912h-3.342v2.934h4.128v0.948h-5.298v-8.598H46.243z"/>
		<path class="st1" d="M26.854,36.954v0.979h-2.778v7.62h-1.164v-7.62h-2.79v-0.979H26.854z"/>
		<path class="st1" d="M35.681,41.257c0,0.644-0.102,1.234-0.306,1.772s-0.492,1.001-0.864,1.39
			c-0.372,0.388-0.819,0.688-1.341,0.902s-1.099,0.321-1.731,0.321c-0.632,0-1.208-0.107-1.728-0.321s-0.966-0.515-1.338-0.902
			c-0.372-0.389-0.66-0.852-0.864-1.39s-0.306-1.129-0.306-1.772c0-0.645,0.102-1.235,0.306-1.773s0.492-1.002,0.864-1.392
			c0.372-0.391,0.818-0.693,1.338-0.909s1.096-0.324,1.728-0.324c0.632,0,1.209,0.108,1.731,0.324s0.969,0.519,1.341,0.909
			c0.372,0.39,0.66,0.854,0.864,1.392S35.681,40.613,35.681,41.257z M34.487,41.257c0-0.528-0.072-1.002-0.216-1.422
			c-0.144-0.421-0.348-0.775-0.612-1.065c-0.264-0.29-0.584-0.513-0.96-0.669s-0.796-0.234-1.26-0.234
			c-0.46,0-0.878,0.078-1.254,0.234s-0.697,0.379-0.963,0.669c-0.266,0.29-0.471,0.645-0.615,1.065
			c-0.144,0.42-0.216,0.894-0.216,1.422c0,0.527,0.072,1.001,0.216,1.419s0.349,0.771,0.615,1.062
			c0.266,0.29,0.587,0.513,0.963,0.666c0.376,0.154,0.794,0.231,1.254,0.231c0.464,0,0.884-0.077,1.26-0.231
			c0.376-0.153,0.696-0.376,0.96-0.666c0.264-0.29,0.468-0.644,0.612-1.062S34.487,41.784,34.487,41.257z"/>
		<path class="st1" d="M38.475,42.337v3.216h-1.158v-8.599h2.538c0.544,0,1.017,0.063,1.419,0.189s0.735,0.305,0.999,0.537
			c0.264,0.231,0.461,0.512,0.591,0.84s0.195,0.694,0.195,1.098c0,0.4-0.07,0.767-0.21,1.099c-0.14,0.332-0.345,0.618-0.615,0.857
			c-0.27,0.24-0.605,0.428-1.005,0.562c-0.4,0.134-0.858,0.201-1.374,0.201H38.475z M38.475,41.412h1.38
			c0.332,0,0.625-0.044,0.879-0.132s0.467-0.211,0.639-0.369c0.172-0.157,0.302-0.347,0.39-0.566s0.132-0.462,0.132-0.727
			c0-0.548-0.169-0.976-0.507-1.283c-0.338-0.309-0.849-0.463-1.533-0.463h-1.38V41.412z"/>
	</g>
</g>
</svg>
