<?xml version="1.0" encoding="utf-8"?>
<!-- Generator: Adobe Illustrator 24.1.3, SVG Export Plug-In . SVG Version: 6.00 Build 0)  -->
<svg version="1.1" id="レイヤー_1" xmlns="http://www.w3.org/2000/svg" xmlns:xlink="http://www.w3.org/1999/xlink" x="0px"
	 y="0px" viewBox="0 0 336 265" style="enable-background:new 0 0 336 265;" xml:space="preserve">
<style type="text/css">
	.st0{fill:#F4F4F4;stroke:#E2E2E2;stroke-width:2;stroke-linecap:round;stroke-linejoin:round;stroke-miterlimit:10;}
	.st1{fill:none;stroke:#E2E2E2;stroke-width:2;stroke-linecap:round;stroke-linejoin:round;stroke-miterlimit:10;}
	.st2{fill:#333333;}
	.st3{fill:#F7F7F7;stroke:#E2E2E2;stroke-width:2;stroke-linecap:round;stroke-linejoin:round;stroke-miterlimit:10;}
	.st4{opacity:0.3;}
	.st5{fill:#4bc481;}
	.st6{fill:#07D189;}

<!-- アニメーション追加 -->
	#animation.is-start-sp{
    transform-origin: 48% 54%;
    -webkit-animation: anime 0.8s ease-out 0s;
    -moz-animation: anime 0.8s ease-out 0s;
    animation: anime 0.8s ease-out 0s;
    -webkit-animation-fill-mode: both;
    -moz-animation-fill-mode: both;
    animation-fill-mode: both;
	}
	#animation.is-start-pc{
    transform-origin: 48% 54%;
    -webkit-animation: anime 0.8s ease-out 2.2s;
    -moz-animation: anime 0.8s ease-out 2.2s;
    animation: anime 0.8s ease-out 2.2s;
    -webkit-animation-fill-mode: both;
    -moz-animation-fill-mode: both;
    animation-fill-mode: both;
	}
@-webkit-keyframes anime {
  0% {
    opacity: 0;
    -moz-transform:scale(0.1);
    -o-transform:scale(0.1);
    -ms-transform:scale(0.1);
    -webkit-transform:scale(0.1);
    transform:scale(0.1);
  }
  100% {
    opacity: 1;
    -moz-transform:scale(1);
    -o-transform:scale(1);
    -ms-transform:scale(1);
    -webkit-transform:scale(1);
    transform:scale(1);
  }
}
<!-- アニメーション追加ここまで -->
</style>
<polygon class="st0" points="162.9,63.7 85.1,120.2 114.8,211.7 210.9,211.7 240.6,120.2 "/>
<polygon class="st1" points="162.9,63.7 85.1,120.2 114.8,211.7 210.9,211.7 240.6,120.2 "/>
<g>
	<path class="st2" d="M151.2,47.4c-0.1,0.5-0.1,1-0.1,1.8v4.7c0,2.7-1.6,4.3-4.5,4.3c-1.5,0-2.7-0.4-3.4-1.2c-0.7-0.7-1-1.7-1-3
		v-4.6c0-0.8,0-1.3-0.1-1.8h2c-0.1,0.4-0.1,0.9-0.1,1.8v4.6c0,1.8,0.9,2.7,2.7,2.7c1.8,0,2.7-0.9,2.7-2.7v-4.6c0-0.8,0-1.3-0.1-1.8
		H151.2z"/>
	<path class="st2" d="M155,47.4c-0.1,0.5-0.1,0.9-0.1,1.7v7.1c0,0.8,0,1.2,0.1,1.7h-2c0.1-0.5,0.1-0.9,0.1-1.7v-7.1
		c0-0.8,0-1.2-0.1-1.7H155z"/>
	<path class="st2" d="M162.3,47.4l-4.8,12.5h-1.6l4.8-12.5H162.3z"/>
	<path class="st2" d="M172.6,47.4c-0.1,0.5-0.1,1-0.1,1.8v4.7c0,2.7-1.6,4.3-4.5,4.3c-1.5,0-2.7-0.4-3.4-1.2c-0.7-0.7-1-1.7-1-3
		v-4.6c0-0.8,0-1.3-0.1-1.8h2c-0.1,0.4-0.1,0.9-0.1,1.8v4.6c0,1.8,0.9,2.7,2.7,2.7c1.8,0,2.7-0.9,2.7-2.7v-4.6c0-0.8,0-1.3-0.1-1.8
		H172.6z"/>
	<path class="st2" d="M181.5,57.9c-0.3-0.5-0.6-1-0.9-1.5l-1.9-2.8l-1.8,2.8c-0.3,0.5-0.6,1-0.9,1.5h-2.4c0.8-1,1-1.2,1.2-1.6
		l2.8-3.9l-2.4-3.4c-0.4-0.5-0.8-1-1.2-1.5h2.4c0.2,0.4,0.5,0.9,0.8,1.5l1.5,2.2l1.5-2.2c0.5-0.8,0.6-1,0.8-1.5h2.3
		c-0.4,0.5-0.8,1-1.1,1.5l-2.4,3.4l2.8,3.9c0.3,0.4,0.6,0.8,1.3,1.6H181.5z"/>
</g>
<g>
	<path class="st2" d="M91.3,226.1c-0.3,0.9-0.5,1.5-0.9,2c-0.8,0.9-2,1.4-3.6,1.4c-1.4,0-2.6-0.4-3.4-1.3c-0.9-1-1.4-2.4-1.4-4.1
		c0-1.7,0.6-3.3,1.5-4.3c0.8-0.8,2-1.3,3.3-1.3c1,0,1.8,0.2,2.5,0.6c0.6,0.4,1.1,0.9,1.4,1.4c0.2,0.3,0.3,0.5,0.4,1l-1.8,0.4
		c-0.2-0.6-0.3-0.8-0.6-1.1c-0.4-0.5-1.1-0.8-1.9-0.8c-1.9,0-3,1.5-3,3.9c0,2.4,1.2,3.9,3,3.9c0.9,0,1.7-0.4,2.1-1
		c0.2-0.3,0.3-0.6,0.4-1.2L91.3,226.1z"/>
	<path class="st2" d="M97.5,229.3c-0.1-0.4-0.3-1-0.6-1.8L95,223c-0.3-0.6-0.4-0.9-0.7-2c0.1,0.7,0.1,1.8,0.1,2.1v4.3
		c0,0.9,0,1.4,0.1,1.9h-1.8c0.1-0.5,0.1-1,0.1-1.9v-6.6c0-0.9,0-1.4-0.1-1.9h2.4c0.1,0.5,0.3,1,0.5,1.6l2.7,6.5l2.7-6.5
		c0.3-0.6,0.4-1.1,0.5-1.6h2.4c-0.1,0.6-0.1,1.1-0.1,1.9v6.6c0,1,0,1.4,0.1,1.9H102c0.1-0.5,0.1-1,0.1-1.9V223
		c0.1-1.1,0.1-1.8,0.1-2c-0.2,0.7-0.4,1.4-0.6,1.9l-2,4.6c-0.3,0.6-0.5,1.4-0.6,1.8H97.5z"/>
	<path class="st2" d="M107.2,226.1c0.1,0.6,0.1,0.9,0.4,1.2c0.4,0.5,1.1,0.8,1.9,0.8c1.3,0,2.1-0.6,2.1-1.6c0-0.5-0.3-1-0.7-1.2
		c-0.4-0.2-0.5-0.2-2.3-0.6c-1-0.2-1.5-0.4-2-0.8c-0.7-0.5-1-1.3-1-2.1c0-1.8,1.5-3,3.7-3c1.5,0,2.6,0.5,3.3,1.3
		c0.3,0.4,0.5,0.8,0.6,1.5l-1.9,0.2c-0.1-0.4-0.2-0.7-0.4-0.9c-0.3-0.4-0.9-0.6-1.6-0.6c-1.1,0-1.9,0.6-1.9,1.4
		c0,0.6,0.3,0.9,0.9,1.2c0.3,0.1,0.4,0.1,1.9,0.5c1,0.2,1.7,0.5,2.1,0.8c0.8,0.6,1.1,1.3,1.1,2.3c0,0.9-0.3,1.7-0.8,2.2
		c-0.7,0.7-1.7,1-3.1,1c-1.1,0-2.1-0.3-2.8-0.7c-0.5-0.4-0.9-0.9-1.2-1.5c-0.1-0.3-0.2-0.6-0.3-1.1L107.2,226.1z"/>
	<path class="st2" d="M119.2,225c0-0.4,0-0.6,0-0.9c-0.3,0.3-0.4,0.4-0.7,0.9c-0.3-0.4-0.5-0.8-0.8-1.4c0,0.4,0.1,1,0.1,1.9v3.3
		c0,0.7,0,1.2,0.1,1.6h-1.5c0.1-0.4,0.1-1,0.1-1.6v-2.5c0-0.5,0-1.2,0.1-1.8c-0.5,1.4-0.7,1.8-1.2,2.7c-0.2-0.4-0.4-0.6-0.9-1.1
		c0.8-1.1,1.4-2.6,1.7-4.1h-0.4c-0.4,0-0.7,0-0.9,0.1v-1.4c0.2,0,0.5,0.1,0.9,0.1h0.6v-1.1c0-0.7,0-1-0.1-1.4h1.5
		c-0.1,0.4-0.1,0.7-0.1,1.4v1.1h0.3c0.3,0,0.5,0,0.8-0.1v1.4c-0.2,0-0.4-0.1-0.8-0.1H118c0.2,0.5,0.4,0.9,0.8,1.4v-1.1
		c0.3,0.1,0.6,0.1,1.1,0.1h0.7v-0.6h-0.3c-0.5,0-0.8,0-1,0v-1.1c0.3,0,0.6,0.1,1,0.1h0.3v-0.6H120c-0.4,0-0.8,0-1.1,0.1V219
		c0.3,0.1,0.6,0.1,1.1,0.1h0.6c0-0.5,0-0.7-0.1-0.9h1.4c-0.1,0.2-0.1,0.4-0.1,0.9h1.7c0-0.6,0-0.7-0.1-0.9h1.4
		c-0.1,0.3-0.1,0.5-0.1,0.9h0.9c0.4,0,0.7,0,1.1-0.1v1.1c-0.3-0.1-0.6-0.1-1.1-0.1h-0.9v0.6h0.6c0.4,0,0.7,0,1-0.1v1.1
		c-0.3,0-0.5-0.1-1-0.1h-0.6v0.6h0.9c0.5,0,0.8,0,1.2-0.1v1.2c-0.4-0.1-0.7-0.1-1.2-0.1h-2.5v0.5h1.7c0.6,0,0.9,0,1.2-0.1
		c0,0.3-0.1,0.7-0.1,1.3v2c0.4,0,0.6,0,0.9-0.1v1.2c-0.3,0-0.5-0.1-0.9-0.1v0.8c0,1-0.3,1.2-1.7,1.2c-0.3,0-0.6,0-1,0
		c0-0.5-0.1-0.8-0.3-1.2c0.5,0.1,0.9,0.1,1.1,0.1c0.4,0,0.5-0.1,0.5-0.3v-0.6h-4.3v0.5c0,0.9,0,1.2,0.1,1.6h-1.4
		c0.1-0.5,0.1-0.8,0.1-1.6v-0.5c-0.3,0-0.5,0-0.8,0.1V227c0.2,0,0.4,0.1,0.8,0.1V225z M120.4,223.8h1.6v-0.5h-2.1
		c-0.5,0-0.8,0-1.2,0.1c0.1,0.2,0.2,0.2,0.4,0.4C119.6,223.8,119.9,223.8,120.4,223.8z M122,225.5v-0.6h-1.5v0.6H122z M122,227.1
		v-0.6h-1.5v0.6H122z M123.6,220.7v-0.6h-1.7v0.6H123.6z M123.6,222.2v-0.6h-1.7v0.6H123.6z M124.9,225.5v-0.6h-1.6v0.6H124.9z
		 M124.9,227.1v-0.6h-1.6v0.6H124.9z"/>
	<path class="st2" d="M137.4,221.3c0.4,0,0.8,0,1-0.1c0,0.3-0.1,0.7-0.1,1.2v1.3c0,0.2,0,0.2,0.3,0.2c0.3,0,0.3,0,0.4-0.1
		c0-0.1,0.1-0.6,0.1-1.1l0-0.1c0-0.1,0-0.1,0-0.2c0.4,0.2,0.7,0.4,1.1,0.5c-0.1,2-0.3,2.3-1.6,2.3c-0.6,0-1,0-1.2-0.2
		c-0.3-0.1-0.4-0.3-0.4-0.8v-1.8h-2c0,0.4,0,0.5-0.1,0.7l0.8-0.5c0.5,0.6,0.8,0.9,1.2,1.5l-0.9,0.7c-0.4-0.7-0.6-1.1-1-1.5
		c-0.2,0.7-0.4,1.2-0.9,1.7h0.7c0,0.3-0.1,0.4-0.1,0.8h3.8c0.7,0,1.1,0,1.6-0.1v1.4c-0.5-0.1-0.9-0.1-1.6-0.1H136
		c1.3,0.8,2.6,1.4,4.4,1.7c-0.4,0.6-0.5,0.8-0.8,1.4c-2.1-0.6-3.7-1.4-4.9-2.6c0,0.2,0,0.5,0,0.8v0.6c0,0.6,0,0.9,0.1,1.2h-1.6
		c0.1-0.4,0.1-0.6,0.1-1.2v-0.6c0-0.2,0-0.3,0-0.8c-0.7,0.6-1.3,1-2.1,1.5c-0.8,0.4-1.4,0.7-2.6,1c-0.3-0.6-0.4-0.8-0.8-1.3
		c1.8-0.4,3-0.8,4.4-1.7h-2.4c-0.6,0-1.1,0-1.6,0.1v-1.4c0.4,0.1,0.9,0.1,1.6,0.1h3.5c0-0.2,0-0.2,0-0.3c-0.2-0.3-0.6-0.6-0.9-0.9
		c0.4-0.2,0.5-0.3,0.7-0.5c-0.8,0.3-1.2,0.4-2.2,0.7c-0.6,0.2-1,0.2-1.6,0.4c-0.4,0.1-0.4,0.1-0.7,0.1l-0.3-1.3
		c0.6,0,1.1-0.1,2.1-0.3v-1.2h-0.6c-0.5,0-0.7,0-1.1,0.1v-1.2c0.2,0,0.2,0,0.4,0c-0.3-0.3-0.3-0.3-1-0.8c1.1-0.9,1.7-1.6,2-2.7
		l1.4,0.3c0,0-0.2,0.3-0.4,0.8h1.7c0.6,0,1,0,1.3-0.1v1.1c0.5-0.6,0.9-1.4,1.1-2l1.4,0.3c-0.1,0.1-0.2,0.4-0.4,0.8h2.5
		c0.7,0,1,0,1.4-0.1v1.3c-0.4-0.1-0.8-0.1-1.4-0.1h-1c0.2,0.2,0.2,0.3,0.4,0.7l-1,0.4H137.4z M133.2,224.2c0.5-0.5,0.7-1.1,0.7-2.2
		c0-0.3,0-0.5,0-0.8c0.2,0,0.3,0,0.6,0c-0.2-0.3-0.6-0.6-1-0.8c0.2-0.1,0.2-0.2,0.3-0.3c-0.2,0-0.5,0-0.7,0h-0.7
		c0.2,0.3,0.3,0.4,0.5,0.8l-1.3,0.3c-0.2-0.5-0.3-0.6-0.6-1.2h-0.7c-0.4,0.6-0.7,0.9-1.1,1.3c0.2,0,0.3,0,0.5,0h2.3
		c0.6,0,0.8,0,1.1-0.1v1.2c-0.3,0-0.6-0.1-1-0.1h-0.6v1c0.6-0.1,0.8-0.2,1.4-0.4L133.2,224.2z M134.9,221.3h2.1
		c-0.1-0.3-0.3-0.7-0.6-1.1h-0.9c-0.3,0.4-0.6,0.8-0.9,1.1H134.9z"/>
</g>
<g>
	<path class="st2" d="M40.4,108.3l0-0.6v-0.4c0-0.9,0-1.2-0.1-1.5h1.7c0,0.3-0.1,0.4-0.1,0.9c0,0.8,0,0.8,0,1.6h0.8
		c0.9,0,1.2,0,1.7-0.1v1.6c-0.5-0.1-0.8-0.1-1.7-0.1H42c0,1.6,0,1.7-0.1,2.2c-0.2,1.7-0.8,2.8-1.9,3.8c-0.7,0.6-1.4,0.9-2.6,1.4
		c-0.3-0.6-0.4-0.8-1-1.4c1.3-0.4,1.9-0.7,2.5-1.3c0.9-0.8,1.3-1.6,1.4-3.2c0-0.3,0-0.6,0.1-1.5H37v2c0,0.6,0,0.8,0.1,1.1h-1.7
		c0-0.3,0.1-0.6,0.1-1.1v-1.9h-0.8c-0.9,0-1.2,0-1.7,0.1v-1.6c0.5,0.1,0.8,0.1,1.7,0.1h0.8V107c0-0.6,0-0.8-0.1-1.2h1.7
		c-0.1,0.4-0.1,0.5-0.1,1.1v1.4H40.4z"/>
	<path class="st2" d="M45.7,110.5c0.6,0.1,0.8,0.1,2,0.1h6.7c1.2,0,1.5,0,2-0.1v1.8c-0.5-0.1-0.6-0.1-2-0.1h-6.6c-1.4,0-1.5,0-2,0.1
		V110.5z"/>
	<path class="st2" d="M62,106.9c0,0.1-0.1,0.2-0.1,0.3l0,0.2l-0.1,0.4l0,0.3c-0.6,3.8-1.6,6.4-3.3,8.4c-0.6-0.6-0.9-0.8-1.5-1.1
		c0.8-0.8,1.3-1.6,1.9-2.8c0.6-1.2,1-2.9,1.2-4.5c0.1-0.5,0.1-1,0.1-1.3c0,0,0-0.1,0-0.2L62,106.9z M65.7,106.6c0,0.6,0.3,1.9,0.6,3
		c0.6,2.4,1.6,4.2,2.9,5.7c-0.7,0.4-0.9,0.6-1.4,1.2c-1.8-2.1-3-5.1-3.5-8.7c-0.1-0.5-0.1-0.8-0.2-0.9L65.7,106.6z M66.9,105.8
		c0.5,0.7,0.8,1.2,1.1,2.1l-1,0.3c-0.3-0.8-0.6-1.4-1.1-2.1L66.9,105.8z M68.7,107.7c-0.3-0.8-0.6-1.5-1.1-2.1l1-0.3
		c0.5,0.7,0.8,1.3,1.1,2L68.7,107.7z"/>
	<path class="st2" d="M69.7,110.5c0.6,0.1,0.8,0.1,2,0.1h6.7c1.2,0,1.5,0,2-0.1v1.8c-0.5-0.1-0.6-0.1-2-0.1h-6.6c-1.4,0-1.5,0-2,0.1
		V110.5z"/>
	<path class="st2" d="M48.4,128.1c0-0.4,0-0.6,0-0.9c-0.3,0.3-0.4,0.4-0.7,0.9c-0.3-0.4-0.5-0.8-0.8-1.4c0,0.4,0.1,1,0.1,1.9v3.3
		c0,0.7,0,1.2,0.1,1.6h-1.5c0.1-0.4,0.1-1,0.1-1.6v-2.5c0-0.5,0-1.2,0.1-1.8c-0.5,1.4-0.7,1.8-1.2,2.7c-0.2-0.4-0.4-0.6-0.9-1.1
		c0.8-1.1,1.4-2.6,1.7-4.1h-0.4c-0.4,0-0.7,0-0.9,0.1v-1.4c0.2,0,0.5,0.1,0.9,0.1h0.6v-1.1c0-0.7,0-1-0.1-1.4h1.5
		c-0.1,0.4-0.1,0.7-0.1,1.4v1.1h0.3c0.3,0,0.5,0,0.8-0.1v1.4c-0.2,0-0.4-0.1-0.8-0.1h-0.2c0.2,0.5,0.4,0.9,0.8,1.4v-1.1
		c0.3,0.1,0.6,0.1,1.1,0.1h0.7v-0.6h-0.3c-0.5,0-0.8,0-1,0v-1.1c0.3,0,0.6,0.1,1,0.1h0.3v-0.6h-0.5c-0.4,0-0.8,0-1.1,0.1v-1.1
		c0.3,0.1,0.6,0.1,1.1,0.1h0.6c0-0.5,0-0.7-0.1-0.9h1.4c-0.1,0.2-0.1,0.4-0.1,0.9h1.7c0-0.6,0-0.7-0.1-0.9h1.4
		c-0.1,0.3-0.1,0.5-0.1,0.9h0.9c0.4,0,0.7,0,1.1-0.1v1.1c-0.3-0.1-0.6-0.1-1.1-0.1H54v0.6h0.6c0.4,0,0.7,0,1-0.1v1.1
		c-0.3,0-0.5-0.1-1-0.1H54v0.6H55c0.5,0,0.8,0,1.2-0.1v1.2c-0.4-0.1-0.7-0.1-1.2-0.1h-2.5v0.5h1.7c0.6,0,0.9,0,1.2-0.1
		c0,0.3-0.1,0.7-0.1,1.3v2c0.4,0,0.6,0,0.9-0.1v1.2c-0.3,0-0.5-0.1-0.9-0.1v0.8c0,1-0.3,1.2-1.7,1.2c-0.3,0-0.6,0-1,0
		c0-0.5-0.1-0.8-0.3-1.2c0.5,0.1,0.9,0.1,1.1,0.1c0.4,0,0.5-0.1,0.5-0.3v-0.6h-4.3v0.5c0,0.9,0,1.2,0.1,1.6h-1.4
		c0.1-0.5,0.1-0.8,0.1-1.6v-0.5c-0.3,0-0.5,0-0.8,0.1v-1.2c0.2,0,0.4,0.1,0.8,0.1V128.1z M49.6,126.9h1.6v-0.5h-2.1
		c-0.5,0-0.8,0-1.2,0.1c0.1,0.2,0.2,0.2,0.4,0.4C48.7,126.9,49,126.9,49.6,126.9z M51.2,128.5v-0.6h-1.5v0.6H51.2z M51.2,130.1v-0.6
		h-1.5v0.6H51.2z M52.7,123.7v-0.6H51v0.6H52.7z M52.7,125.3v-0.6H51v0.6H52.7z M54,128.5v-0.6h-1.6v0.6H54z M54,130.1v-0.6h-1.6
		v0.6H54z"/>
	<path class="st2" d="M66.6,124.4c0.4,0,0.8,0,1-0.1c0,0.3-0.1,0.7-0.1,1.2v1.3c0,0.2,0,0.2,0.3,0.2c0.3,0,0.3,0,0.4-0.1
		c0-0.1,0.1-0.6,0.1-1.1l0-0.1c0-0.1,0-0.1,0-0.2c0.4,0.2,0.7,0.4,1.1,0.5c-0.1,2-0.3,2.3-1.6,2.3c-0.6,0-1,0-1.2-0.2
		c-0.3-0.1-0.4-0.3-0.4-0.8v-1.8h-2c0,0.4,0,0.5-0.1,0.7l0.8-0.5c0.5,0.6,0.8,0.9,1.2,1.5l-0.9,0.7c-0.4-0.7-0.6-1.1-1-1.5
		c-0.2,0.7-0.4,1.2-0.9,1.7h0.7c0,0.3-0.1,0.4-0.1,0.8h3.8c0.7,0,1.1,0,1.6-0.1v1.4c-0.5-0.1-0.9-0.1-1.6-0.1h-2.6
		c1.3,0.8,2.6,1.4,4.4,1.7c-0.4,0.6-0.5,0.8-0.8,1.4c-2.1-0.6-3.7-1.4-4.9-2.6c0,0.2,0,0.5,0,0.8v0.6c0,0.6,0,0.9,0.1,1.2h-1.6
		c0.1-0.4,0.1-0.6,0.1-1.2v-0.6c0-0.2,0-0.3,0-0.8c-0.7,0.6-1.3,1-2.1,1.5c-0.8,0.4-1.4,0.7-2.6,1c-0.3-0.6-0.4-0.8-0.8-1.3
		c1.8-0.4,3-0.8,4.4-1.7h-2.4c-0.6,0-1.1,0-1.6,0.1v-1.4c0.4,0.1,0.9,0.1,1.6,0.1h3.5c0-0.2,0-0.2,0-0.3c-0.2-0.3-0.6-0.6-0.9-0.9
		c0.4-0.2,0.5-0.3,0.7-0.5c-0.8,0.3-1.2,0.4-2.2,0.7c-0.6,0.2-1,0.2-1.6,0.4c-0.4,0.1-0.4,0.1-0.7,0.1l-0.3-1.3
		c0.6,0,1.1-0.1,2.1-0.3v-1.2H59c-0.5,0-0.7,0-1.1,0.1v-1.2c0.2,0,0.2,0,0.4,0c-0.3-0.3-0.3-0.3-1-0.8c1.1-0.9,1.7-1.6,2-2.7
		l1.4,0.3c0,0-0.2,0.3-0.4,0.8H62c0.6,0,1,0,1.3-0.1v1.1c0.5-0.6,0.9-1.4,1.1-2l1.4,0.3c-0.1,0.1-0.2,0.4-0.4,0.8H68
		c0.7,0,1,0,1.4-0.1v1.3c-0.4-0.1-0.8-0.1-1.4-0.1h-1c0.2,0.2,0.2,0.3,0.4,0.7l-1,0.4H66.6z M62.4,127.3c0.5-0.5,0.7-1.1,0.7-2.2
		c0-0.3,0-0.5,0-0.8c0.2,0,0.3,0,0.6,0c-0.2-0.3-0.6-0.6-1-0.8c0.2-0.1,0.2-0.2,0.3-0.3c-0.2,0-0.5,0-0.7,0h-0.7
		c0.2,0.3,0.3,0.4,0.5,0.8l-1.3,0.3c-0.2-0.5-0.3-0.6-0.6-1.2h-0.7c-0.4,0.6-0.7,0.9-1.1,1.3c0.2,0,0.3,0,0.5,0h2.3
		c0.6,0,0.8,0,1.1-0.1v1.2c-0.3,0-0.6-0.1-1-0.1h-0.6v1c0.6-0.1,0.8-0.2,1.4-0.4L62.4,127.3z M64.1,124.4h2.1
		c-0.1-0.3-0.3-0.7-0.6-1.1h-0.9c-0.3,0.4-0.6,0.8-0.9,1.1H64.1z"/>
</g>
<g>
	<path class="st2" d="M276.3,111.5h3.1c0.6,0,0.9,0,1.3-0.1v1.1c-0.4-0.1-0.7-0.1-1.3-0.1h-3.5v0.7h3.7c0.8,0,1.1,0,1.5-0.1v1.3
		c-0.4-0.1-0.8-0.1-1.5-0.1h-2.6c1,0.7,2.7,1.4,4.4,1.7c-0.3,0.4-0.4,0.5-0.5,0.8c0,0-0.1,0.1-0.1,0.3c0,0.1-0.1,0.1-0.1,0.3
		c-1-0.3-1.8-0.6-2.6-1c-0.9-0.5-1.5-0.9-2.1-1.5c0,0.4,0,0.7,0,0.9v0.8c0,0.5,0,0.7,0.1,0.9h-1.6c0.1-0.3,0.1-0.5,0.1-0.9v-0.8
		c0-0.3,0-0.6,0-0.9c-0.7,0.7-1.3,1.1-2.4,1.6c-0.7,0.3-1.4,0.6-2.3,0.8c-0.2-0.5-0.4-0.9-0.7-1.3c1.1-0.2,1.9-0.4,2.8-0.8
		c0.6-0.3,1-0.5,1.4-0.8h-2.5c-0.7,0-1.1,0-1.5,0.1v-1.3c0.4,0.1,0.7,0.1,1.5,0.1h3.7v-0.7h-2.6c-0.5,0-0.8,0-1.1,0
		c0-0.3,0.1-0.6,0.1-1.1v-1.6c0-0.4,0-0.8,0-1.1c-0.4,0.4-0.7,0.7-1.2,1.1c-0.2-0.6-0.4-0.9-0.7-1.3c1-0.7,1.7-1.5,2.4-2.5
		c0.2-0.3,0.3-0.6,0.4-0.9l1.5,0.3c-0.5,0.8-0.5,0.8-0.7,1.1h2.4c0.3-0.5,0.5-0.8,0.7-1.3l1.5,0.2c-0.3,0.6-0.5,0.8-0.7,1.1h2.8
		c0.6,0,0.9,0,1.3-0.1v1.2c-0.3,0-0.6-0.1-1.1-0.1h-3.2v0.6h2.5c0.6,0,0.9,0,1.3-0.1v1.1c-0.4-0.1-0.5-0.1-1.3-0.1h-2.5v0.6h2.5
		c0.7,0,0.8,0,1.3-0.1v1.1c-0.4,0-0.6-0.1-1.3-0.1h-2.5V111.5z M274.9,107.6h-2.7v0.6h2.7V107.6z M274.9,109.2h-2.7v0.6h2.7V109.2z
		 M272.2,110.8v0.7h2.7v-0.7H272.2z"/>
	<path class="st2" d="M284.5,114.4c0-0.3,0-0.4,0-0.6c-0.5,0.1-0.8,0.2-1.5,0.4c-0.2-0.5-0.4-0.9-0.6-1.3c1-0.1,2-0.4,3-0.7
		c0.6-0.2,1.2-0.4,2-0.8c-0.5-0.4-0.8-0.6-1.3-1.1c-0.8,0.6-1.2,0.9-2.3,1.4c-0.2-0.4-0.4-0.7-0.8-1c1.4-0.6,2.3-1.2,3.3-2.2
		c0.3-0.3,0.6-0.6,0.7-0.9h-2.8v1.7h-1.4c0.1-0.3,0.1-0.6,0.1-1v-1.1c0-0.4,0-0.7-0.1-1c0.4,0.1,0.9,0.1,1.5,0.1h3.4v-0.2
		c0-0.4,0-0.4-0.1-0.9h1.6c-0.1,0.2-0.1,0.5-0.1,0.9v0.2h3.5c0.7,0,1.1,0,1.5-0.1c0,0.3-0.1,0.6-0.1,1v1.1c0,0.4,0,0.7,0.1,1h-1.4
		v-1.8h-5.7l1.2,0.3c0,0-0.1,0.2-0.4,0.5h2.5c0.5,0,0.8,0,1.1-0.1l0.9,0.7c-0.1,0.1-0.1,0.1-0.4,0.4c-0.8,0.8-1.5,1.4-2.2,1.9
		c1.4,0.6,2.9,0.9,4.9,1.1c-0.3,0.6-0.4,0.8-0.6,1.5c-0.6-0.1-0.8-0.2-1.4-0.3c0,0.3,0,0.4,0,0.7v1.8c0,0.6,0,0.8,0.1,1.2h-1.5V117
		h-5.4v0.5h-1.4c0-0.4,0.1-0.8,0.1-1.2V114.4z M291.4,113.3c-1-0.3-1.8-0.6-2.8-1.1c-0.9,0.5-1.5,0.8-2.7,1.1H291.4z M285.9,115.8
		h5.4v-1.3h-5.4V115.8z M287,109.6c0.6,0.5,1,0.8,1.6,1.2c0.6-0.4,0.9-0.6,1.6-1.2L287,109.6L287,109.6z"/>
	<path class="st2" d="M247.1,133.4c-0.7-1.1-1.1-1.6-1.4-2.6c-0.5-1.2-0.7-2.4-0.7-3.6c0-1.2,0.2-2.3,0.7-3.5c0.4-1,0.7-1.5,1.4-2.6
		h1.8c-0.9,1.2-1.3,1.8-1.7,2.6c-0.5,1.1-0.7,2.2-0.7,3.5c0,1.3,0.2,2.5,0.7,3.6c0.4,0.9,0.7,1.4,1.7,2.6H247.1z"/>
	<path class="st2" d="M251.1,129.1c0.1,0.6,0.1,0.9,0.4,1.2c0.4,0.5,1.1,0.8,1.9,0.8c1.3,0,2.1-0.6,2.1-1.6c0-0.5-0.3-1-0.7-1.2
		c-0.4-0.2-0.5-0.2-2.3-0.6c-1-0.2-1.5-0.4-2-0.8c-0.7-0.5-1-1.3-1-2.1c0-1.8,1.5-3,3.7-3c1.5,0,2.6,0.5,3.3,1.3
		c0.3,0.4,0.5,0.8,0.6,1.5l-1.9,0.2c-0.1-0.4-0.2-0.7-0.4-0.9c-0.3-0.4-0.9-0.6-1.6-0.6c-1.1,0-1.9,0.6-1.9,1.4
		c0,0.6,0.3,0.9,0.9,1.2c0.3,0.1,0.4,0.1,1.9,0.5c1,0.2,1.7,0.5,2.1,0.8c0.8,0.6,1.1,1.3,1.1,2.3c0,0.9-0.3,1.7-0.8,2.2
		c-0.7,0.7-1.7,1-3.1,1c-1.1,0-2.1-0.3-2.8-0.7c-0.5-0.4-0.9-0.9-1.2-1.5c-0.1-0.3-0.2-0.6-0.3-1.1L251.1,129.1z"/>
	<path class="st2" d="M266.4,132.5c-0.5-0.1-0.9-0.1-1.7-0.1h-4.1c-0.8,0-1.1,0-1.7,0c0.1-0.5,0.1-1,0.1-1.7v-7.1
		c0-0.7,0-1.1-0.1-1.7c0.5,0,0.9,0,1.7,0h4c0.7,0,1.1,0,1.7-0.1v1.7c-0.5-0.1-0.9-0.1-1.7-0.1h-3.8v2.7h3.2c0.7,0,1.1,0,1.7-0.1v1.7
		c-0.5-0.1-0.9-0.1-1.7-0.1h-3.2v3.1h4c0.7,0,1.1,0,1.7-0.1V132.5z"/>
	<path class="st2" d="M275.7,123c1,1,1.5,2.4,1.5,4.1c0,3.3-1.9,5.5-4.9,5.5s-4.9-2.1-4.9-5.5c0-1.7,0.5-3.2,1.5-4.1
		c0.9-0.9,2-1.3,3.4-1.3C273.7,121.7,274.8,122.1,275.7,123z M275.4,127.1c0-1.3-0.4-2.4-1-3.1c-0.5-0.5-1.2-0.8-2-0.8
		c-1.9,0-3.1,1.5-3.1,3.9c0,1.3,0.4,2.4,1.1,3.1c0.5,0.5,1.2,0.8,2,0.8C274.2,131.1,275.4,129.6,275.4,127.1z"/>
	<path class="st2" d="M283.6,121.9l-4.8,12.5h-1.6l4.8-12.5H283.6z"/>
	<path class="st2" d="M286,129.1c0.1,0.6,0.1,0.9,0.4,1.2c0.4,0.5,1.1,0.8,1.9,0.8c1.3,0,2.1-0.6,2.1-1.6c0-0.5-0.3-1-0.7-1.2
		c-0.4-0.2-0.5-0.2-2.3-0.6c-1-0.2-1.5-0.4-2-0.8c-0.7-0.5-1-1.3-1-2.1c0-1.8,1.5-3,3.7-3c1.5,0,2.6,0.5,3.3,1.3
		c0.3,0.4,0.5,0.8,0.6,1.5l-1.9,0.2c-0.1-0.4-0.2-0.7-0.4-0.9c-0.3-0.4-0.9-0.6-1.6-0.6c-1.1,0-1.9,0.6-1.9,1.4
		c0,0.6,0.3,0.9,0.9,1.2c0.3,0.1,0.4,0.1,1.9,0.5c1,0.2,1.7,0.5,2.1,0.8c0.8,0.6,1.1,1.3,1.1,2.3c0,0.9-0.3,1.7-0.8,2.2
		c-0.7,0.7-1.7,1-3.1,1c-1.1,0-2.1-0.3-2.8-0.7c-0.5-0.4-0.9-0.9-1.2-1.5c-0.1-0.3-0.2-0.6-0.3-1.1L286,129.1z"/>
	<path class="st2" d="M301.4,132.5c-0.5-0.1-0.9-0.1-1.7-0.1h-4.1c-0.8,0-1.1,0-1.7,0c0.1-0.5,0.1-1,0.1-1.7v-7.1
		c0-0.7,0-1.1-0.1-1.7c0.5,0,0.9,0,1.7,0h4c0.7,0,1.1,0,1.7-0.1v1.7c-0.5-0.1-0.9-0.1-1.7-0.1h-3.8v2.7h3.2c0.7,0,1.1,0,1.7-0.1v1.7
		c-0.5-0.1-0.9-0.1-1.7-0.1h-3.2v3.1h4c0.7,0,1.1,0,1.7-0.1V132.5z"/>
	<path class="st2" d="M307.6,132.4c-0.1-0.4-0.3-1-0.6-1.8l-1.9-4.5c-0.3-0.6-0.4-0.9-0.7-2c0.1,0.7,0.1,1.8,0.1,2.1v4.3
		c0,0.9,0,1.4,0.1,1.9h-1.8c0.1-0.5,0.1-1,0.1-1.9v-6.6c0-0.9,0-1.4-0.1-1.9h2.4c0.1,0.5,0.3,1,0.5,1.6l2.7,6.5l2.7-6.5
		c0.3-0.6,0.4-1.1,0.5-1.6h2.4c-0.1,0.6-0.1,1.1-0.1,1.9v6.6c0,1,0,1.4,0.1,1.9h-1.8c0.1-0.5,0.1-1,0.1-1.9v-4.4
		c0.1-1.1,0.1-1.8,0.1-2c-0.2,0.7-0.4,1.4-0.6,1.9l-2,4.6c-0.3,0.6-0.5,1.4-0.6,1.8H307.6z"/>
	<path class="st2" d="M315,133.4c0.9-1.2,1.3-1.8,1.7-2.6c0.5-1.1,0.7-2.3,0.7-3.6c0-1.3-0.2-2.4-0.7-3.5c-0.4-0.9-0.8-1.5-1.7-2.6
		h1.9c0.7,1,1.1,1.6,1.4,2.6c0.5,1.2,0.7,2.3,0.7,3.5c0,1.3-0.2,2.4-0.7,3.6c-0.4,1-0.7,1.5-1.4,2.6H315z"/>
</g>
<g>
	<path class="st2" d="M183.9,221.8c0,0.3,0,0.3-0.1,1.1c-0.1,2.3-0.4,3.5-1.3,4.7c-0.8,1-1.8,1.7-3.4,2.4c-0.3-0.7-0.5-0.9-1-1.5
		c1.1-0.3,1.7-0.6,2.3-1.1c1.3-1.1,1.8-2.2,1.8-4.7c0-0.4,0-0.5-0.1-0.8H183.9z M189.3,220.1c-0.2,0.2-0.2,0.2-0.5,0.9
		c-0.5,1-1.2,2-2,2.6c-0.5,0.5-1,0.8-1.6,1.1c-0.4-0.6-0.6-0.8-1.2-1.2c0.9-0.4,1.4-0.7,1.9-1.2c0.5-0.5,0.9-1,1.3-1.7h-6.9
		c-0.9,0-1.3,0-1.8,0.1v-1.6c0.5,0.1,0.9,0.1,1.8,0.1h6.9c0.8,0,0.9,0,1.3-0.1L189.3,220.1z"/>
	<path class="st2" d="M200.1,220.8c-0.1,0.2-0.2,0.3-0.3,0.8c-0.6,2-1.5,3.8-2.7,5.1c-1.2,1.4-2.7,2.4-4.7,3.3
		c-0.4-0.7-0.5-0.9-1.1-1.4c1.3-0.5,2.1-0.9,2.9-1.6c1.9-1.4,3.1-3.2,3.8-5.6l-4,0.1c-0.8,1.3-1.8,2.4-3.1,3.4
		c-0.4-0.5-0.6-0.7-1.3-1.1c1.5-1,2.4-2.1,3.4-3.8c0.4-0.8,0.6-1.3,0.7-1.7l1.8,0.4c-0.1,0.1-0.1,0.1-0.2,0.4c0,0.1,0,0.1-0.2,0.4
		c0,0.1,0,0.1-0.2,0.3c-0.1,0.2-0.1,0.2-0.2,0.4c0.2,0,0.4,0,0.6,0l2.9,0c0.5,0,0.7,0,1-0.1L200.1,220.8z"/>
	<path class="st2" d="M213.1,221.7c-0.2,0.2-0.2,0.3-0.4,0.6c-0.8,1.6-1.7,2.7-3.2,3.8c-0.5-0.6-0.7-0.7-1.3-1.1
		c0.9-0.5,1.6-1.1,2.2-1.9c0.2-0.3,0.3-0.4,0.5-0.8c-0.2,0-0.3,0.1-0.5,0.1c-1.3,0.2-2.7,0.3-4.1,0.5v3c0,0.9,0,0.9,0.1,1.1
		c0.1,0.5,0.5,0.7,1.9,0.7c1.5,0,3-0.2,4-0.5l0.1,1.8c-0.4,0-0.5,0-0.8,0.1c-1.4,0.2-2.4,0.2-3.3,0.2c-1.1,0-1.8-0.1-2.3-0.2
		c-0.5-0.2-1-0.6-1.1-1.2c-0.1-0.4-0.1-0.6-0.1-1.7v-3l-1.2,0.2c-1,0.1-1,0.1-1.5,0.3l-0.2-1.6c0.1,0,0.3,0,0.3,0
		c0.2,0,0.8,0,1.2-0.1l1.4-0.2V220c0-0.7,0-0.8-0.1-1.3h1.8c-0.1,0.4-0.1,0.7-0.1,1.2v1.7l4.8-0.6c0.7-0.1,0.7-0.1,1-0.2
		L213.1,221.7z"/>
	<path class="st2" d="M224.4,229.6c-1.1-1.3-2.6-2.8-4-3.9c-1.5,1.7-3,2.8-5,3.8c-0.4-0.7-0.5-0.9-1.1-1.5c1-0.4,1.6-0.8,2.6-1.4
		c2-1.4,3.6-3.3,4.4-5.4l0.1-0.3c-0.2,0-0.2,0-4.4,0.1c-0.6,0-1,0-1.4,0.1l-0.1-1.7c0.4,0.1,0.6,0.1,1.2,0.1c0.1,0,0.2,0,0.3,0
		l4.6-0.1c0.7,0,0.8,0,1.2-0.1l0.9,0.9c-0.2,0.2-0.3,0.4-0.4,0.7c-0.6,1.4-1.3,2.6-2.1,3.6c0.8,0.6,1.5,1.1,2.4,1.9
		c0.3,0.3,0.3,0.3,1.9,1.8L224.4,229.6z"/>
	<path class="st2" d="M232.4,219.6c-0.1,0.2-0.2,0.3-0.4,0.7c-0.1,0.2-0.4,0.6-0.6,1c0.6,0,0.9,0,1.3-0.1c0,0.2,0,0.3,0,0.7
		c0.6-0.3,0.9-0.5,1.3-0.9c0.3-0.3,0.4-0.6,0.6-1.2h-0.4c-0.5,0-0.9,0-1.2,0.1v-1.4c0.4,0.1,0.8,0.1,1.4,0.1h3.2
		c0.5,0,0.8,0,1.2-0.1c0,0.3-0.1,0.7-0.1,1.4c-0.1,1.1-0.3,1.9-0.5,2.2c-0.2,0.3-0.5,0.4-1.3,0.4c-0.2,0-0.2,0-1,0
		c-0.1-0.6-0.1-0.8-0.3-1.3c0.5,0.1,0.8,0.1,1,0.1c0.3,0,0.5-0.1,0.5-0.3c0.1-0.3,0.1-0.7,0.2-1.3h-1.4c-0.2,0.9-0.3,1.3-0.8,1.9
		c-0.4,0.5-0.8,0.9-1.4,1.3l1.2,0.3c-0.1,0.5-0.1,0.5-0.2,0.7h0.7v-0.1c0-0.4,0-0.7-0.1-1h1.5c0,0.3,0,0.6,0,1v0.1h0.8
		c0.6,0,0.9,0,1.2-0.1v1.4c-0.3,0-0.7-0.1-1.2-0.1h-0.8v1.2h1c0.6,0,0.9,0,1.3-0.1v1.4c-0.3,0-0.6-0.1-1.2-0.1h-1v1.3
		c0,0.6,0,0.9,0.1,1.3h-1.5c0.1-0.4,0.1-0.7,0.1-1.3v-1.3h-1.3c-0.5,0-0.8,0-1.2,0.1v-1.4c0.4,0.1,0.7,0.1,1.2,0.1h1.3v-1.2h-1.1
		c-0.1,0.4-0.2,0.5-0.4,1c-0.6-0.4-0.8-0.5-1.2-0.6c0.4-0.7,0.5-1.1,0.7-1.7c0.1-0.3,0.1-0.7,0.1-0.9c0,0,0,0,0,0l-0.1,0.1
		c-0.2-0.4-0.4-0.7-0.8-1.1c0,0.2,0,0.2,0,0.3v6.6c0,0.9-0.4,1.2-1.7,1.2c-0.1,0-0.4,0-0.8,0c-0.1-0.5-0.1-0.8-0.3-1.3
		c0.6,0.1,0.9,0.1,1.1,0.1c0.4,0,0.6-0.1,0.6-0.3V227h-2.7c-0.2,1.6-0.3,2.2-0.8,3.2c-0.5-0.6-0.7-0.7-1.1-1
		c0.6-1.1,0.8-2.3,0.8-6.1c0-0.3,0-0.6,0-0.7c-0.2-0.3-0.4-0.5-0.9-0.9c0.6-0.5,1.1-1.1,1.5-2c0.3-0.6,0.4-1,0.5-1.4l1.4,0.3
		c-0.1,0.1-0.1,0.1-0.3,0.7h1.2c0.4,0,0.5,0,0.7-0.1L232.4,219.6z M230.1,221.3c0.3-0.4,0.4-0.7,0.6-1.2h-1.3
		c-0.2,0.4-0.4,0.8-0.7,1.2c0.1,0,0.1,0,0.3,0H230.1z M229.6,225.8v-1.2h-0.8c0,0.2,0,0.4,0,0.5c0,0.4,0,0.5,0,0.7H229.6z
		 M228.9,222.4v1.1h0.8v-1.1H228.9z M231.5,222.4h-0.8v1.1h0.8V222.4z M231.5,224.6h-0.8v1.2h0.8V224.6z"/>
	<path class="st2" d="M244,221.8c0.3,0.8,0.8,1.5,1.6,2.2c-0.3,0.4-0.5,0.7-0.8,1.2c-0.5-0.7-0.7-1.1-1-1.7c0,0.3,0,1.1,0,1.9v3.3
		c0,0.6,0,1,0.1,1.4h-1.5c0.1-0.4,0.1-0.8,0.1-1.4v-2.7c0-0.8,0-0.8,0.1-1.8c-0.4,1.1-0.8,1.9-1.5,2.9c-0.3-0.6-0.5-0.8-0.9-1.2
		c0.6-0.8,1-1.4,1.4-2.4c0.3-0.5,0.6-1.4,0.7-1.9h-0.8c-0.4,0-0.6,0-0.9,0.1v-1.4c0.3,0.1,0.5,0.1,0.9,0.1h0.9v-1.2
		c0-0.5,0-0.9-0.1-1.2h1.5c-0.1,0.4-0.1,0.7-0.1,1.2v1.2h0.8c0.3,0,0.6,0,0.8-0.1v1.4c-0.3-0.1-0.5-0.1-0.8-0.1H244z M251.1,222.2
		c0.7,0,1.1,0,1.6-0.1v1.5c-0.5-0.1-0.9-0.1-1.6-0.1h-0.4v5.1c0,0.6,0,1.2,0.1,1.6h-1.6c0.1-0.5,0.1-1,0.1-1.6v-5.1h-1.9
		c-0.1,3.3-0.6,5.1-1.9,6.7c-0.4-0.4-0.7-0.7-1.2-1.1c1.3-1.5,1.7-3.2,1.7-7.8c0-1.2,0-1.8-0.1-2.2c0.1,0,0.2,0,0.3,0
		c1.5,0,3.9-0.5,5.1-1.1l1,1.3c-0.3,0.1-0.3,0.1-1.3,0.4c-1.1,0.3-2.2,0.5-3.6,0.7v1.3c0,0.1,0,0.2,0,0.4H251.1z"/>
</g>
<polygon class="st3" points="162.9,79.8 100.3,125.2 124.2,198.7 201.5,198.7 225.4,125.2 "/>
<polygon class="st0" points="162.6,95.5 115.2,130 133.3,185.6 191.9,185.6 209.9,130 "/>
<polygon class="st3" points="162.9,111.8 131.1,134.9 143.2,172.3 182.5,172.3 194.7,134.9 "/>
<polygon class="st0" points="162.9,127.2 145.7,139.7 152.2,159.9 173.5,159.9 180,139.7 "/>
<polyline class="st1" points="162.9,63.6 162.6,145.3 240.6,120.3 "/>
<polyline class="st1" points="85.2,120.3 162.6,145.3 114.7,211.7 "/>
<line class="st1" x1="210.9" y1="211.7" x2="162.6" y2="145.3"/>
<g id="animation">
	<g class="st4">
		<polygon class="st5" points="240.3,120.1 191.9,185.6 143.2,172.3 140.2,137.6 162.7,86.4 		"/>
	</g>
	<g>
		<path class="st6" d="M164,89.8l72.2,31.4l-45.4,61.4l-45.1-12.4l-2.8-32.2L164,89.8 M162.7,86.4l-22.5,51.3l3,34.7l48.7,13.3
			l48.5-65.5L162.7,86.4L162.7,86.4z"/>
	</g>
</g>
</svg>
