<?xml version="1.0" encoding="utf-8"?>
<!-- Generator: Adobe Illustrator 24.1.3, SVG Export Plug-In . SVG Version: 6.00 Build 0)  -->
<svg version="1.1" id="レイヤー_1" xmlns="http://www.w3.org/2000/svg" xmlns:xlink="http://www.w3.org/1999/xlink" x="0px"
	 y="0px" viewBox="0 0 336 265" style="enable-background:new 0 0 336 265;" xml:space="preserve">
<style type="text/css">
	.st0{fill:#B5B5B5;}
	.st1{fill:#F4F4F4;stroke:#E2E2E2;stroke-width:2;stroke-linecap:round;stroke-linejoin:round;stroke-miterlimit:10;}
	.st2{fill:none;stroke:#E2E2E2;stroke-width:2;stroke-linecap:round;stroke-linejoin:round;stroke-miterlimit:10;}
	.st3{fill:#333333;}
	.st4{fill:#F7F7F7;stroke:#E2E2E2;stroke-width:2;stroke-linecap:round;stroke-linejoin:round;stroke-miterlimit:10;}
	.st5{opacity:0.3;}
	.st6{fill:#2855FF;}
	.st7{fill:#4576FF;}

<!-- アニメーション追加 -->
	#animation.is-start-sp{
    transform-origin: 48% 54%;
    -webkit-animation: anime 0.8s ease-out 0s;
    -moz-animation: anime 0.8s ease-out 0s;
    animation: anime 0.8s ease-out 0s;
    -webkit-animation-fill-mode: both;
    -moz-animation-fill-mode: both;
    animation-fill-mode: both;
	}
	#animation.is-start-pc{
    transform-origin: 48% 54%;
    -webkit-animation: anime 0.8s ease-out 1.4s;
    -moz-animation: anime 0.8s ease-out 1.4s;
    animation: anime 0.8s ease-out 1.4s;
    -webkit-animation-fill-mode: both;
    -moz-animation-fill-mode: both;
    animation-fill-mode: both;
	}
@-webkit-keyframes anime {
  0% {
    opacity: 0;
    -moz-transform:scale(0.1);
    -o-transform:scale(0.1);
    -ms-transform:scale(0.1);
    -webkit-transform:scale(0.1);
    transform:scale(0.1);
  }
  100% {
    opacity: 1;
    -moz-transform:scale(1);
    -o-transform:scale(1);
    -ms-transform:scale(1);
    -webkit-transform:scale(1);
    transform:scale(1);
  }
<!-- アニメーション追加ここまで -->
</style>
<g>
	<path class="st0" d="M285.9,252.7h-5.1v2.2h-1.2v-2.2h-5.1v-1.1h5.1v-1h-3.9v-5.2h1.1c-0.2-0.5-0.7-1.2-1.1-1.7l1-0.5
		c0.5,0.5,1,1.3,1.3,1.8l-0.7,0.3h2.6c-0.2-0.5-0.6-1.3-1-1.9l1.1-0.4c0.4,0.6,0.9,1.4,1.1,1.9l-0.8,0.3h2.1c0.5-0.6,1-1.5,1.3-2.2
		l1.3,0.4c-0.4,0.6-0.8,1.3-1.3,1.8h1.2v5.2h-4.1v1h5.1V252.7z M279.5,246.4h-2.7v1.1h2.7V246.4z M279.5,249.6v-1.1h-2.7v1.1H279.5z
		 M283.6,246.4h-2.9v1.1h2.9V246.4z M283.6,248.5h-2.9v1.1h2.9V248.5z"/>
	<path class="st0" d="M291.5,243.5c-0.3,0.9-0.8,1.7-1.3,2.6v8.8h-1.1v-7.1c-0.4,0.5-0.8,1-1.3,1.5c-0.1-0.3-0.5-0.9-0.7-1.2
		c1.3-1.2,2.5-3,3.2-4.9L291.5,243.5z M299.3,253.2v1.1H291v-1.1h4.3c0.5-1.6,1.1-4.1,1.4-5.9l1.3,0.2c-0.4,1.9-1,4.1-1.6,5.7H299.3
		z M294.4,245.6v-2.3h1.2v2.3h3.4v1.1h-7.8v-1.1H294.4z M293.1,252.7c-0.1-1.3-0.4-3.4-0.9-5.1l1.1-0.2c0.5,1.7,0.9,3.8,1,5
		L293.1,252.7z"/>
	<path class="st0" d="M305,249.1c0-2.6,1.1-4.7,2.5-6.1l1,0.5c-1.4,1.5-2.4,3.3-2.4,5.7c0,2.4,1,4.2,2.4,5.7l-1,0.5
		C306,253.7,305,251.7,305,249.1z"/>
	<path class="st0" d="M321.3,253.5c0,0.7-0.2,1.1-0.6,1.3c-0.5,0.2-1.2,0.2-2.3,0.2c-0.1-0.3-0.2-0.9-0.4-1.2c0.8,0,1.6,0,1.9,0
		c0.2,0,0.3-0.1,0.3-0.3v-3.6h-8.2v5.1h-1.2V244h10.6V253.5z M311.9,248.7h3.4v-3.5h-3.4V248.7z M320.1,248.7v-3.5h-3.6v3.5H320.1z"
		/>
	<path class="st0" d="M326.9,249.1c0,2.6-1.1,4.7-2.5,6.1l-1-0.5c1.4-1.5,2.4-3.3,2.4-5.7c0-2.4-1-4.2-2.4-5.7l1-0.5
		C325.8,244.4,326.9,246.4,326.9,249.1z"/>
</g>
<polygon class="st1" points="163,64.4 85.6,120.7 115.2,211.7 210.9,211.7 240.4,120.7 "/>
<polygon class="st2" points="163,64.4 85.6,120.7 115.2,211.7 210.9,211.7 240.4,120.7 "/>
<g>
	<path class="st3" d="M135.9,59.4c0.1-0.5,0.1-1,0.1-1.7v-7.2h-0.6c-0.5,0-0.9,0-1.4,0.1v-1.7c0.4,0.1,0.7,0.1,1.3,0.1h1.2
		c0.7,0,0.9,0,1.3-0.1c-0.1,0.8-0.1,1.4-0.1,2.2v6.6c0,0.7,0,1.2,0.1,1.7H135.9z"/>
	<path class="st3" d="M141.8,58.5c-0.4-0.4-0.7-0.9-0.9-1.3c-0.3-0.9-0.5-2-0.5-3c0-1.4,0.3-2.8,0.8-3.6c0.7-1.2,1.9-1.8,3.3-1.8
		c1.1,0,2.1,0.4,2.8,1.1c0.4,0.4,0.7,0.9,0.9,1.3c0.3,0.9,0.5,2,0.5,3c0,1.6-0.4,3-1,3.9c-0.7,1-1.8,1.5-3.2,1.5
		C143.4,59.6,142.4,59.2,141.8,58.5z M145.9,57.5c0.6-0.6,0.9-1.8,0.9-3.4c0-1.5-0.3-2.7-0.9-3.4c-0.3-0.4-0.8-0.6-1.4-0.6
		c-0.6,0-1.1,0.2-1.5,0.7c-0.6,0.7-0.9,1.8-0.9,3.2c0,1.4,0.2,2.5,0.7,3.1c0.4,0.6,1,0.9,1.7,0.9C145.1,58.1,145.6,57.9,145.9,57.5z
		"/>
	<path class="st3" d="M150.9,54.3c0.5-0.6,0.7-0.8,1.3-1.2c0.8-0.5,1.4-0.7,2.1-0.7c0.6,0,1.1,0.1,1.7,0.4c0.3,0.2,0.3,0.2,1.2,0.7
		c1,0.6,1.7,0.9,2.3,0.9c0.3,0,0.7-0.1,1-0.2c0.6-0.3,0.9-0.6,1.4-1.2l1,1c-0.5,0.7-0.8,1-1.2,1.3c-0.7,0.5-1.4,0.7-2.3,0.7
		c-0.4,0-0.8-0.1-1.2-0.2c-0.5-0.2-0.8-0.3-1.8-1c-1.2-0.7-1.6-0.9-2.3-0.9c-0.9,0-1.5,0.3-2.3,1.2L150.9,54.3z"/>
	<path class="st3" d="M168.5,59.4c0.1-0.5,0.1-1,0.1-1.7v-7.2H168c-0.5,0-0.9,0-1.4,0.1v-1.7c0.4,0.1,0.7,0.1,1.3,0.1h1.2
		c0.7,0,0.9,0,1.3-0.1c-0.1,0.8-0.1,1.4-0.1,2.2v6.6c0,0.7,0,1.2,0.1,1.7H168.5z"/>
	<path class="st3" d="M175.7,56.7c0.1,0.4,0.2,0.6,0.4,0.8c0.4,0.4,0.9,0.7,1.6,0.7c1.3,0,2.1-0.9,2.1-2.2c0-1.3-0.8-2.1-2.1-2.1
		c-0.6,0-1.2,0.2-1.6,0.6c-0.2,0.2-0.3,0.3-0.4,0.6l-1.6-0.2c0.1-0.9,0.1-1,0.2-1.4l0.3-3.3c0-0.2,0-0.7,0.1-1.3c0.4,0,0.7,0,1.4,0
		h3.2c0.9,0,1.2,0,1.8-0.1v1.7c-0.6-0.1-1.1-0.1-1.8-0.1h-3.1l-0.2,2.3c0,0.1,0,0.3-0.1,0.6c0.6-0.6,1.3-0.8,2.2-0.8
		c1.1,0,1.9,0.3,2.6,1c0.6,0.6,0.9,1.4,0.9,2.5c0,2.3-1.5,3.7-3.9,3.7c-1.3,0-2.3-0.4-3-1.1c-0.4-0.4-0.5-0.7-0.8-1.4L175.7,56.7z"
		/>
	<path class="st3" d="M184.2,50.3c-0.6,0-1.2,0-1.7,0.1v-1.5c0.5,0.1,1,0.1,1.7,0.1h8.4c0.6,0,1.2,0,1.7-0.1v1.5
		c-0.5-0.1-1.1-0.1-1.7-0.1h-4.9c0,1,0,1.3-0.1,2h3.8c0.8,0,1.3,0,1.7-0.1c0,0.3,0,0.3-0.1,1.5c-0.1,2.3-0.4,4.4-0.7,5.2
		c-0.3,0.8-0.9,1.1-2.2,1.1c-0.4,0-0.7,0-1.9-0.1c-0.1-0.6-0.1-1-0.4-1.5c0.8,0.2,1.5,0.3,2.1,0.3c0.6,0,0.9-0.1,1-0.5
		c0.3-0.6,0.4-2.2,0.5-4.5h-4.1c-0.3,1.6-0.7,2.7-1.5,3.9c-0.7,1.1-1.4,1.8-2.6,2.7c-0.3-0.5-0.6-0.9-1.1-1.3c1-0.6,1.4-1,2-1.8
		c0.9-1.2,1.5-2.6,1.7-4.3c0.1-0.9,0.1-1,0.2-2.6H184.2z"/>
</g>
<g>
	<path class="st3" d="M80.6,226.4c0.2,0.6,0.3,0.8,0.6,1.1c0.4,0.3,1,0.5,1.6,0.5c1.3,0,2.1-0.7,2.1-1.7c0-0.6-0.3-1.1-0.7-1.4
		c-0.3-0.2-0.9-0.3-1.5-0.3c-0.6,0-1,0-1.4,0.1V223c0.4,0.1,0.7,0.1,1.3,0.1c1.3,0,2.1-0.6,2.1-1.6c0-0.9-0.6-1.4-1.7-1.4
		c-0.6,0-1.1,0.1-1.4,0.4c-0.3,0.2-0.4,0.5-0.6,1l-1.9-0.3c0.3-1,0.6-1.4,1.2-1.9c0.7-0.5,1.5-0.7,2.6-0.7c2.2,0,3.6,1.1,3.6,2.8
		c0,0.8-0.3,1.5-0.9,1.9c-0.3,0.2-0.6,0.3-1.3,0.5c0.9,0.1,1.4,0.4,1.9,0.9c0.4,0.5,0.6,1,0.6,1.8c0,0.7-0.3,1.4-0.8,1.9
		c-0.7,0.7-1.8,1.1-3.2,1.1c-1.5,0-2.6-0.4-3.3-1.2c-0.3-0.4-0.5-0.7-0.7-1.5L80.6,226.4z"/>
	<path class="st3" d="M89.2,228.4c-0.4-0.4-0.7-0.9-0.9-1.3c-0.3-0.9-0.5-2-0.5-3c0-1.4,0.3-2.8,0.8-3.6c0.7-1.2,1.9-1.8,3.3-1.8
		c1.1,0,2.1,0.4,2.8,1.1c0.4,0.4,0.7,0.9,0.9,1.3c0.3,0.9,0.5,2,0.5,3c0,1.6-0.4,3-1,3.9c-0.7,1-1.8,1.5-3.2,1.5
		C90.9,229.5,89.9,229.1,89.2,228.4z M93.4,227.4c0.6-0.6,0.9-1.8,0.9-3.4c0-1.5-0.3-2.7-0.9-3.4c-0.3-0.4-0.8-0.6-1.4-0.6
		c-0.6,0-1.1,0.2-1.5,0.7c-0.6,0.7-0.9,1.8-0.9,3.2c0,1.4,0.2,2.5,0.7,3.1c0.4,0.6,1,0.9,1.7,0.9C92.6,227.9,93.1,227.7,93.4,227.4z
		"/>
	<path class="st3" d="M98.4,224.1c0.5-0.6,0.7-0.8,1.3-1.2c0.8-0.5,1.4-0.7,2.1-0.7c0.6,0,1.1,0.1,1.7,0.4c0.3,0.2,0.3,0.2,1.2,0.7
		c1,0.6,1.7,0.9,2.3,0.9c0.3,0,0.7-0.1,1-0.2c0.6-0.3,0.9-0.6,1.4-1.2l1,1c-0.5,0.7-0.8,1-1.2,1.3c-0.7,0.5-1.4,0.7-2.3,0.7
		c-0.4,0-0.8-0.1-1.2-0.2c-0.5-0.2-0.8-0.3-1.8-1c-1.2-0.7-1.6-0.9-2.3-0.9c-0.9,0-1.5,0.3-2.3,1.2L98.4,224.1z"/>
	<path class="st3" d="M114.4,226.5c0.1,0.4,0.2,0.6,0.4,0.8c0.4,0.4,0.9,0.7,1.6,0.7c1.3,0,2.1-0.9,2.1-2.2c0-1.3-0.8-2.1-2.1-2.1
		c-0.6,0-1.2,0.2-1.6,0.6c-0.2,0.2-0.3,0.3-0.4,0.6l-1.6-0.2c0.1-0.9,0.1-1,0.2-1.4l0.3-3.3c0-0.2,0-0.7,0.1-1.3c0.4,0,0.7,0,1.4,0
		h3.2c0.9,0,1.2,0,1.8-0.1v1.7c-0.6-0.1-1.1-0.1-1.8-0.1h-3.1l-0.2,2.3c0,0.1,0,0.3-0.1,0.6c0.6-0.6,1.3-0.8,2.2-0.8
		c1.1,0,1.9,0.3,2.6,1c0.6,0.6,0.9,1.4,0.9,2.5c0,2.3-1.5,3.7-3.9,3.7c-1.3,0-2.3-0.4-3-1.1c-0.4-0.4-0.5-0.7-0.8-1.4L114.4,226.5z"
		/>
	<path class="st3" d="M122.8,228.4c-0.4-0.4-0.7-0.9-0.9-1.3c-0.3-0.9-0.5-2-0.5-3c0-1.4,0.3-2.8,0.8-3.6c0.7-1.2,1.9-1.8,3.3-1.8
		c1.1,0,2.1,0.4,2.8,1.1c0.4,0.4,0.7,0.9,0.9,1.3c0.3,0.9,0.5,2,0.5,3c0,1.6-0.4,3-1,3.9c-0.7,1-1.8,1.5-3.2,1.5
		C124.5,229.5,123.5,229.1,122.8,228.4z M127,227.4c0.6-0.6,0.9-1.8,0.9-3.4c0-1.5-0.3-2.7-0.9-3.4c-0.3-0.4-0.8-0.6-1.4-0.6
		c-0.6,0-1.1,0.2-1.5,0.7c-0.6,0.7-0.9,1.8-0.9,3.2c0,1.4,0.2,2.5,0.7,3.1c0.4,0.6,1,0.9,1.7,0.9C126.2,227.9,126.7,227.7,127,227.4
		z"/>
	<path class="st3" d="M132.9,220.2c-0.6,0-1.2,0-1.7,0.1v-1.5c0.5,0.1,1,0.1,1.7,0.1h8.4c0.6,0,1.2,0,1.7-0.1v1.5
		c-0.5-0.1-1.1-0.1-1.7-0.1h-4.9c0,1,0,1.3-0.1,2h3.8c0.8,0,1.3,0,1.7-0.1c0,0.3,0,0.3-0.1,1.5c-0.1,2.3-0.4,4.4-0.7,5.2
		c-0.3,0.8-0.9,1.1-2.2,1.1c-0.4,0-0.7,0-1.9-0.1c-0.1-0.6-0.1-1-0.4-1.5c0.8,0.2,1.5,0.3,2.1,0.3c0.6,0,0.9-0.1,1-0.5
		c0.3-0.6,0.4-2.2,0.5-4.5h-4.1c-0.3,1.6-0.7,2.7-1.5,3.9c-0.7,1.1-1.4,1.8-2.6,2.7c-0.3-0.5-0.6-0.9-1.1-1.3c1-0.6,1.4-1,2-1.8
		c0.9-1.2,1.5-2.6,1.7-4.3c0.1-0.9,0.1-1,0.2-2.6H132.9z"/>
</g>
<g>
	<path class="st3" d="M26.7,121.4c0.1,0.4,0.2,0.6,0.4,0.8c0.4,0.4,0.9,0.7,1.6,0.7c1.3,0,2.1-0.9,2.1-2.2c0-1.3-0.8-2.1-2.1-2.1
		c-0.6,0-1.2,0.2-1.6,0.6c-0.2,0.2-0.3,0.3-0.4,0.6l-1.6-0.2c0.1-0.9,0.1-1,0.2-1.4l0.3-3.3c0-0.2,0-0.7,0.1-1.3c0.4,0,0.7,0,1.4,0
		h3.2c0.9,0,1.2,0,1.8-0.1v1.7c-0.6-0.1-1.1-0.1-1.8-0.1h-3.1l-0.2,2.3c0,0.1,0,0.3-0.1,0.6c0.6-0.6,1.3-0.8,2.2-0.8
		c1.1,0,1.9,0.3,2.6,1c0.6,0.6,0.9,1.4,0.9,2.5c0,2.3-1.5,3.7-3.9,3.7c-1.3,0-2.3-0.4-3-1.1c-0.4-0.4-0.5-0.7-0.8-1.4L26.7,121.4z"
		/>
	<path class="st3" d="M35,123.3c-0.4-0.4-0.7-0.9-0.9-1.3c-0.3-0.9-0.5-2-0.5-3c0-1.4,0.3-2.8,0.8-3.6c0.7-1.2,1.9-1.8,3.3-1.8
		c1.1,0,2.1,0.4,2.8,1.1c0.4,0.4,0.7,0.9,0.9,1.3c0.3,0.9,0.5,2,0.5,3c0,1.6-0.4,3-1,3.9c-0.7,1-1.8,1.5-3.2,1.5
		C36.7,124.3,35.7,124,35,123.3z M39.2,122.3c0.6-0.6,0.9-1.8,0.9-3.4c0-1.5-0.3-2.7-0.9-3.4c-0.3-0.4-0.8-0.6-1.4-0.6
		c-0.6,0-1.1,0.2-1.5,0.7c-0.6,0.7-0.9,1.8-0.9,3.2c0,1.4,0.2,2.5,0.7,3.1c0.4,0.6,1,0.9,1.7,0.9C38.4,122.8,38.9,122.6,39.2,122.3z
		"/>
	<path class="st3" d="M45.1,115c-0.6,0-1.2,0-1.7,0.1v-1.5c0.5,0.1,1,0.1,1.7,0.1h8.4c0.6,0,1.2,0,1.7-0.1v1.5
		c-0.5-0.1-1.1-0.1-1.7-0.1h-4.9c0,1,0,1.3-0.1,2h3.8c0.8,0,1.3,0,1.7-0.1c0,0.3,0,0.3-0.1,1.5c-0.1,2.3-0.4,4.4-0.7,5.2
		c-0.3,0.8-0.9,1.1-2.2,1.1c-0.4,0-0.7,0-1.9-0.1c-0.1-0.6-0.1-1-0.4-1.5c0.8,0.2,1.5,0.3,2.1,0.3c0.6,0,0.9-0.1,1-0.5
		c0.3-0.6,0.4-2.2,0.5-4.5h-4.1c-0.3,1.6-0.7,2.7-1.5,3.9c-0.7,1.1-1.4,1.8-2.6,2.7c-0.3-0.5-0.6-0.9-1.1-1.3c1-0.6,1.4-1,2-1.8
		c0.9-1.2,1.5-2.6,1.7-4.3c0.1-0.9,0.1-1,0.2-2.6H45.1z"/>
	<path class="st3" d="M56.9,114.8c0-0.7,0-1.1-0.1-1.6h1.7c0,0.4-0.1,0.8-0.1,1.3v0.3l0.1,6.3c1.2-0.5,2.5-1.2,3.4-1.8l0.3,1.4
		c-1.6,1-2.7,1.6-5.2,2.6c-0.5,0.2-0.6,0.3-0.9,0.4l-0.4-1.6c0.5-0.1,0.7-0.2,1.3-0.4L56.9,114.8z M66.6,113.3c0,0.1,0,0.1-0.1,1.8
		c-0.1,1.2-0.3,2.6-0.6,3.7c-0.2,0.7-0.5,1.3-0.8,1.9c0.7,1.2,1.6,2.1,2.9,2.8c-0.4,0.4-0.6,0.9-0.9,1.5c-1.2-0.8-2-1.8-2.8-3
		c-1.1,1.3-2.4,2.3-4.4,3.1c-0.3-0.6-0.5-0.9-0.8-1.3c2.3-0.9,3.7-2,4.7-3.5c0.9-1.5,1.4-3.6,1.4-6.2c0-0.4,0-0.6-0.1-0.9
		L66.6,113.3z M60.8,114c1,1,1.6,1.8,2.6,3.2l-1.4,0.9c-1-1.7-1.3-2.1-2.5-3.3L60.8,114z"/>
	<path class="st3" d="M75.1,123.1h3.8c0.7,0,1.3,0,1.8-0.1v1.6c-0.6-0.1-1.1-0.1-1.7-0.1h-8.3c-0.6,0-1.2,0-1.8,0.1V123
		c0.5,0.1,1.1,0.1,1.8,0.1h3v-8.5c0-0.6,0-1-0.1-1.5h1.7c-0.1,0.5-0.1,0.9-0.1,1.5v2.2h3.1c0.6,0,1,0,1.5-0.1v1.6
		c-0.5-0.1-1-0.1-1.5-0.1h-3.1V123.1z"/>
</g>
<g>
	<path class="st3" d="M250.7,124.1c0.1-0.5,0.1-1,0.1-1.7v-7.2h-0.6c-0.5,0-0.9,0-1.4,0.1v-1.7c0.4,0.1,0.7,0.1,1.3,0.1h1.2
		c0.7,0,0.9,0,1.3-0.1c-0.1,0.8-0.1,1.4-0.1,2.2v6.6c0,0.7,0,1.2,0.1,1.7H250.7z"/>
	<path class="st3" d="M257,121.4c0.1,0.4,0.2,0.6,0.4,0.8c0.4,0.4,0.9,0.7,1.6,0.7c1.3,0,2.1-0.9,2.1-2.2c0-1.3-0.8-2.1-2.1-2.1
		c-0.6,0-1.2,0.2-1.6,0.6c-0.2,0.2-0.3,0.3-0.4,0.6l-1.6-0.2c0.1-0.9,0.1-1,0.2-1.4l0.3-3.3c0-0.2,0-0.7,0.1-1.3c0.4,0,0.7,0,1.4,0
		h3.2c0.9,0,1.2,0,1.8-0.1v1.7c-0.6-0.1-1.1-0.1-1.8-0.1h-3.1l-0.2,2.3c0,0.1,0,0.3-0.1,0.6c0.6-0.6,1.3-0.8,2.2-0.8
		c1.1,0,1.9,0.3,2.6,1c0.6,0.6,0.9,1.4,0.9,2.5c0,2.3-1.5,3.7-3.9,3.7c-1.3,0-2.3-0.4-3-1.1c-0.4-0.4-0.5-0.7-0.8-1.4L257,121.4z"/>
	<path class="st3" d="M263.9,119c0.5-0.6,0.7-0.8,1.3-1.2c0.8-0.5,1.4-0.7,2.1-0.7c0.6,0,1.1,0.1,1.7,0.4c0.3,0.2,0.3,0.2,1.2,0.7
		c1,0.6,1.7,0.9,2.3,0.9c0.3,0,0.7-0.1,1-0.2c0.6-0.3,0.9-0.6,1.4-1.2l1,1c-0.5,0.7-0.8,1-1.2,1.3c-0.7,0.5-1.4,0.7-2.3,0.7
		c-0.4,0-0.8-0.1-1.2-0.2c-0.5-0.2-0.8-0.3-1.8-1c-1.2-0.7-1.6-0.9-2.3-0.9c-0.9,0-1.5,0.3-2.3,1.2L263.9,119z"/>
	<path class="st3" d="M279.6,124.1c-1,0-1.2,0-1.7,0.1c0.1-0.7,0.2-1.2,0.3-1.7c0.4-1,0.9-1.8,1.8-2.6c0.5-0.4,0.9-0.7,2.2-1.6
		c1.2-0.8,1.6-1.3,1.6-1.9c0-0.9-0.7-1.4-1.8-1.4c-0.8,0-1.3,0.3-1.7,0.8c-0.2,0.3-0.3,0.6-0.4,1.2l-1.9-0.2c0.2-1,0.4-1.5,0.9-2.1
		c0.7-0.8,1.7-1.2,3-1.2c2.3,0,3.7,1.1,3.7,2.9c0,0.9-0.3,1.5-0.9,2.1c-0.4,0.3-0.5,0.4-2.2,1.6c-0.6,0.4-1.2,1-1.6,1.3
		c-0.4,0.4-0.6,0.7-0.7,1.2h3.7c0.8,0,1.5,0,1.9-0.1v1.7c-0.6-0.1-1.1-0.1-2-0.1H279.6z"/>
	<path class="st3" d="M288,123.3c-0.4-0.4-0.7-0.9-0.9-1.3c-0.3-0.9-0.5-2-0.5-3c0-1.4,0.3-2.8,0.8-3.6c0.7-1.2,1.9-1.8,3.3-1.8
		c1.1,0,2.1,0.4,2.8,1.1c0.4,0.4,0.7,0.9,0.9,1.3c0.3,0.9,0.5,2,0.5,3c0,1.6-0.4,3-1,3.9c-0.7,1-1.8,1.5-3.2,1.5
		C289.7,124.3,288.7,124,288,123.3z M292.2,122.3c0.6-0.6,0.9-1.8,0.9-3.4c0-1.5-0.3-2.7-0.9-3.4c-0.3-0.4-0.8-0.6-1.4-0.6
		c-0.6,0-1.1,0.2-1.5,0.7c-0.6,0.7-0.9,1.8-0.9,3.2c0,1.4,0.2,2.5,0.7,3.1c0.4,0.6,1,0.9,1.7,0.9
		C291.4,122.8,291.9,122.6,292.2,122.3z"/>
	<path class="st3" d="M298.1,115c-0.6,0-1.2,0-1.7,0.1v-1.5c0.5,0.1,1,0.1,1.7,0.1h8.4c0.6,0,1.2,0,1.7-0.1v1.5
		c-0.5-0.1-1.1-0.1-1.7-0.1h-4.9c0,1,0,1.3-0.1,2h3.8c0.8,0,1.3,0,1.7-0.1c0,0.3,0,0.3-0.1,1.5c-0.1,2.3-0.4,4.4-0.7,5.2
		c-0.3,0.8-0.9,1.1-2.2,1.1c-0.4,0-0.7,0-1.9-0.1c-0.1-0.6-0.1-1-0.4-1.5c0.8,0.2,1.5,0.3,2.1,0.3c0.6,0,0.9-0.1,1-0.5
		c0.3-0.6,0.4-2.2,0.5-4.5h-4.1c-0.3,1.6-0.7,2.7-1.5,3.9c-0.7,1.1-1.4,1.8-2.6,2.7c-0.3-0.5-0.6-0.9-1.1-1.3c1-0.6,1.4-1,2-1.8
		c0.9-1.2,1.5-2.6,1.7-4.3c0.1-0.9,0.1-1,0.2-2.6H298.1z"/>
</g>
<g>
	<path class="st3" d="M184.4,229.3c-1,0-1.2,0-1.7,0.1c0.1-0.7,0.2-1.2,0.3-1.7c0.4-1,0.9-1.8,1.8-2.6c0.5-0.4,0.9-0.7,2.2-1.6
		c1.2-0.8,1.6-1.3,1.6-1.9c0-0.9-0.7-1.4-1.8-1.4c-0.8,0-1.3,0.3-1.7,0.8c-0.2,0.3-0.3,0.6-0.4,1.2l-1.9-0.2c0.2-1,0.4-1.5,0.9-2.1
		c0.7-0.8,1.7-1.2,3-1.2c2.3,0,3.7,1.1,3.7,2.9c0,0.9-0.3,1.5-0.9,2.1c-0.4,0.3-0.5,0.4-2.2,1.6c-0.6,0.4-1.2,1-1.6,1.3
		c-0.4,0.4-0.6,0.7-0.7,1.2h3.7c0.8,0,1.5,0,1.9-0.1v1.7c-0.6-0.1-1.1-0.1-2-0.1H184.4z"/>
	<path class="st3" d="M192.9,228.4c-0.4-0.4-0.7-0.9-0.9-1.3c-0.3-0.9-0.5-2-0.5-3c0-1.4,0.3-2.8,0.8-3.6c0.7-1.2,1.9-1.8,3.3-1.8
		c1.1,0,2.1,0.4,2.8,1.1c0.4,0.4,0.7,0.9,0.9,1.3c0.3,0.9,0.5,2,0.5,3c0,1.6-0.4,3-1,3.9c-0.7,1-1.8,1.5-3.2,1.5
		C194.5,229.5,193.6,229.1,192.9,228.4z M197.1,227.4c0.6-0.6,0.9-1.8,0.9-3.4c0-1.5-0.3-2.7-0.9-3.4c-0.3-0.4-0.8-0.6-1.4-0.6
		c-0.6,0-1.1,0.2-1.5,0.7c-0.6,0.7-0.9,1.8-0.9,3.2c0,1.4,0.2,2.5,0.7,3.1c0.4,0.6,1,0.9,1.7,0.9
		C196.2,227.9,196.7,227.7,197.1,227.4z"/>
	<path class="st3" d="M202,224.1c0.5-0.6,0.7-0.8,1.3-1.2c0.8-0.5,1.4-0.7,2.1-0.7c0.6,0,1.1,0.1,1.7,0.4c0.3,0.2,0.3,0.2,1.2,0.7
		c1,0.6,1.7,0.9,2.3,0.9c0.3,0,0.7-0.1,1-0.2c0.6-0.3,0.9-0.6,1.4-1.2l1,1c-0.5,0.7-0.8,1-1.2,1.3c-0.7,0.5-1.4,0.7-2.3,0.7
		c-0.4,0-0.8-0.1-1.2-0.2c-0.5-0.2-0.8-0.3-1.8-1c-1.2-0.7-1.6-0.9-2.3-0.9c-0.9,0-1.5,0.3-2.3,1.2L202,224.1z"/>
	<path class="st3" d="M217.7,226.4c0.2,0.6,0.3,0.8,0.6,1.1c0.4,0.3,1,0.5,1.6,0.5c1.3,0,2.1-0.7,2.1-1.7c0-0.6-0.3-1.1-0.7-1.4
		c-0.3-0.2-0.9-0.3-1.5-0.3c-0.6,0-1,0-1.4,0.1V223c0.4,0.1,0.7,0.1,1.3,0.1c1.3,0,2.1-0.6,2.1-1.6c0-0.9-0.6-1.4-1.7-1.4
		c-0.6,0-1.1,0.1-1.4,0.4c-0.3,0.2-0.4,0.5-0.6,1l-1.9-0.3c0.3-1,0.6-1.4,1.2-1.9c0.7-0.5,1.5-0.7,2.6-0.7c2.2,0,3.6,1.1,3.6,2.8
		c0,0.8-0.3,1.5-0.9,1.9c-0.3,0.2-0.6,0.3-1.3,0.5c0.9,0.1,1.4,0.4,1.9,0.9c0.4,0.5,0.6,1,0.6,1.8c0,0.7-0.3,1.4-0.8,1.9
		c-0.7,0.7-1.8,1.1-3.2,1.1c-1.5,0-2.6-0.4-3.3-1.2c-0.3-0.4-0.5-0.7-0.7-1.5L217.7,226.4z"/>
	<path class="st3" d="M226.3,228.4c-0.4-0.4-0.7-0.9-0.9-1.3c-0.3-0.9-0.5-2-0.5-3c0-1.4,0.3-2.8,0.8-3.6c0.7-1.2,1.9-1.8,3.3-1.8
		c1.1,0,2.1,0.4,2.8,1.1c0.4,0.4,0.7,0.9,0.9,1.3c0.3,0.9,0.5,2,0.5,3c0,1.6-0.4,3-1,3.9c-0.7,1-1.8,1.5-3.2,1.5
		C227.9,229.5,227,229.1,226.3,228.4z M230.4,227.4c0.6-0.6,0.9-1.8,0.9-3.4c0-1.5-0.3-2.7-0.9-3.4c-0.3-0.4-0.8-0.6-1.4-0.6
		c-0.6,0-1.1,0.2-1.5,0.7c-0.6,0.7-0.9,1.8-0.9,3.2c0,1.4,0.2,2.5,0.7,3.1c0.4,0.6,1,0.9,1.7,0.9
		C229.6,227.9,230.1,227.7,230.4,227.4z"/>
	<path class="st3" d="M236.4,220.2c-0.6,0-1.2,0-1.7,0.1v-1.5c0.5,0.1,1,0.1,1.7,0.1h8.4c0.6,0,1.2,0,1.7-0.1v1.5
		c-0.5-0.1-1.1-0.1-1.7-0.1h-4.9c0,1,0,1.3-0.1,2h3.8c0.8,0,1.3,0,1.7-0.1c0,0.3,0,0.3-0.1,1.5c-0.1,2.3-0.4,4.4-0.7,5.2
		c-0.3,0.8-0.9,1.1-2.2,1.1c-0.4,0-0.7,0-1.9-0.1c-0.1-0.6-0.1-1-0.4-1.5c0.8,0.2,1.5,0.3,2.1,0.3c0.6,0,0.9-0.1,1-0.5
		c0.3-0.6,0.4-2.2,0.5-4.5h-4.1c-0.3,1.6-0.7,2.7-1.5,3.9c-0.7,1.1-1.4,1.8-2.6,2.7c-0.3-0.5-0.6-0.9-1.1-1.3c1-0.6,1.4-1,2-1.8
		c0.9-1.2,1.5-2.6,1.7-4.3c0.1-0.9,0.1-1,0.2-2.6H236.4z"/>
</g>
<polygon class="st4" points="163,80.5 100.8,125.6 124.6,198.8 201.5,198.8 225.2,125.6 "/>
<polygon class="st1" points="162.7,96.1 115.6,130.3 133.6,185.7 191.9,185.7 209.9,130.3 "/>
<polygon class="st4" points="163,112.3 131.4,135.3 143.5,172.5 182.6,172.5 194.7,135.3 "/>
<polygon class="st1" points="163,127.6 145.9,140 152.4,160.1 173.6,160.1 180.1,140 "/>
<polyline class="st2" points="163.1,64.3 162.8,145.6 240.4,120.7 "/>
<polyline class="st2" points="85.7,120.7 162.8,145.6 115.1,211.7 "/>
<line class="st2" x1="210.8" y1="211.7" x2="162.8" y2="145.6"/>
<g id="animation">
	<g class="st5">
		<polygon class="st6" points="202.3,133 200.9,199 114.7,211.8 139.4,138.2 162.7,122.3 		"/>
	</g>
	<g>
		<path class="st7" d="M163.2,125.2l36.5,9.9l-1.3,61.7l-79.8,11.9l23.1-68.7L163.2,125.2 M162.7,122.3l-23.3,15.8l-24.7,73.6
			l86.2-12.8l1.4-65.9L162.7,122.3L162.7,122.3z"/>
	</g>
</g>
</svg>
