<?xml version="1.0" encoding="utf-8"?>
<!-- Generator: Adobe Illustrator 24.1.3, SVG Export Plug-In . SVG Version: 6.00 Build 0)  -->
<svg version="1.1" id="レイヤー_1" xmlns="http://www.w3.org/2000/svg" xmlns:xlink="http://www.w3.org/1999/xlink" x="0px"
	 y="0px" viewBox="0 0 336 265" style="enable-background:new 0 0 336 265;" xml:space="preserve">
<style type="text/css">
	.st0{fill:#B5B5B5;}
	.st1{fill:#F4F4F4;stroke:#E2E2E2;stroke-width:2;stroke-linecap:round;stroke-linejoin:round;stroke-miterlimit:10;}
	.st2{fill:none;stroke:#E2E2E2;stroke-width:2;stroke-linecap:round;stroke-linejoin:round;stroke-miterlimit:10;}
	.st3{fill:#333333;}
	.st4{fill:#F7F7F7;stroke:#E2E2E2;stroke-width:2;stroke-linecap:round;stroke-linejoin:round;stroke-miterlimit:10;}
	.st5{opacity:0.3;}
	.st6{fill:#2855FF;}
	.st7{fill:#4576FF;}

<!-- アニメーション追加 -->
	#animation.is-start-sp{
    transform-origin: 48% 54%;
    -webkit-animation: anime 0.8s ease-out 0s;
    -moz-animation: anime 0.8s ease-out 0s;
    animation: anime 0.8s ease-out 0s;
    -webkit-animation-fill-mode: both;
    -moz-animation-fill-mode: both;
    animation-fill-mode: both;
	}
	#animation.is-start-pc{
    transform-origin: 48% 54%;
    -webkit-animation: anime 0.8s ease-out 1s;
    -moz-animation: anime 0.8s ease-out 1s;
    animation: anime 0.8s ease-out 1s;
    -webkit-animation-fill-mode: both;
    -moz-animation-fill-mode: both;
    animation-fill-mode: both;
	}
@-webkit-keyframes anime {
  0% {
    opacity: 0;
    -moz-transform:scale(0.1);
    -o-transform:scale(0.1);
    -ms-transform:scale(0.1);
    -webkit-transform:scale(0.1);
    transform:scale(0.1);
  }
  100% {
    opacity: 1;
    -moz-transform:scale(1);
    -o-transform:scale(1);
    -ms-transform:scale(1);
    -webkit-transform:scale(1);
    transform:scale(1);
  }
}
<!-- アニメーション追加ここまで -->
</style>
<g>
	<path class="st0" d="M285.9,252.7h-5.1v2.2h-1.2v-2.2h-5.1v-1.1h5.1v-1h-3.9v-5.2h1.1c-0.2-0.5-0.7-1.2-1.1-1.7l1-0.5
		c0.5,0.5,1,1.3,1.3,1.8l-0.7,0.3h2.6c-0.2-0.5-0.6-1.3-1-1.9l1.1-0.4c0.4,0.6,0.9,1.4,1.1,1.9l-0.8,0.3h2.1c0.5-0.6,1-1.5,1.3-2.2
		l1.3,0.4c-0.4,0.6-0.8,1.3-1.3,1.8h1.2v5.2h-4.1v1h5.1V252.7z M279.5,246.4h-2.7v1.1h2.7V246.4z M279.5,249.6v-1.1h-2.7v1.1H279.5z
		 M283.6,246.4h-2.9v1.1h2.9V246.4z M283.6,248.5h-2.9v1.1h2.9V248.5z"/>
	<path class="st0" d="M291.5,243.5c-0.3,0.9-0.8,1.7-1.3,2.6v8.8h-1.1v-7.1c-0.4,0.5-0.8,1-1.3,1.5c-0.1-0.3-0.5-0.9-0.7-1.2
		c1.3-1.2,2.5-3,3.2-4.9L291.5,243.5z M299.3,253.2v1.1H291v-1.1h4.3c0.5-1.6,1.1-4.1,1.4-5.9l1.3,0.2c-0.4,1.9-1,4.1-1.6,5.7H299.3
		z M294.4,245.6v-2.3h1.2v2.3h3.4v1.1h-7.8v-1.1H294.4z M293.1,252.7c-0.1-1.3-0.4-3.4-0.9-5.1l1.1-0.2c0.5,1.7,0.9,3.8,1,5
		L293.1,252.7z"/>
	<path class="st0" d="M305,249.1c0-2.6,1.1-4.7,2.5-6.1l1,0.5c-1.4,1.5-2.4,3.3-2.4,5.7s1,4.2,2.4,5.7l-1,0.5
		C306,253.7,305,251.7,305,249.1z"/>
	<path class="st0" d="M321.3,253.5c0,0.7-0.2,1.1-0.6,1.3c-0.5,0.2-1.2,0.2-2.3,0.2c-0.1-0.3-0.2-0.9-0.4-1.2c0.8,0,1.6,0,1.9,0
		c0.2,0,0.3-0.1,0.3-0.3v-3.6H312v5.1h-1.2v-11h10.6L321.3,253.5L321.3,253.5z M311.9,248.7h3.4v-3.5h-3.4V248.7z M320.1,248.7v-3.5
		h-3.6v3.5H320.1z"/>
	<path class="st0" d="M326.9,249.1c0,2.6-1.1,4.7-2.5,6.1l-1-0.5c1.4-1.5,2.4-3.3,2.4-5.7s-1-4.2-2.4-5.7l1-0.5
		C325.8,244.4,326.9,246.4,326.9,249.1z"/>
</g>
<g>
	<polygon class="st1" points="162.9,64.1 85.4,120.3 115,211.4 210.8,211.4 240.4,120.3 	"/>
	<path class="st2" d="M210.8,211.7H115c-0.1,0-0.2-0.1-0.2-0.2l-29.6-91.1c0-0.1,0-0.2,0.1-0.3l77.5-56.3c0.1-0.1,0.2-0.1,0.3,0
		l77.5,56.3c0.1,0.1,0.1,0.2,0.1,0.3L211,211.5C211,211.6,210.9,211.7,210.8,211.7z M115.2,211.1h95.4l29.5-90.7l-77.2-56.1
		l-77.2,56.1L115.2,211.1z"/>
</g>
<path class="st2" d="M210.8,211.7H115c-0.1,0-0.2-0.1-0.2-0.2l-29.6-91.1c0-0.1,0-0.2,0.1-0.3l77.5-56.3c0.1-0.1,0.2-0.1,0.3,0
	l77.5,56.3c0.1,0.1,0.1,0.2,0.1,0.3L211,211.5C211,211.6,210.9,211.7,210.8,211.7z M115.2,211.1h95.4l29.5-90.7l-77.2-56.1
	l-77.2,56.1L115.2,211.1z"/>
<g>
	<path class="st3" d="M132.5,57.2c0.2,0.6,0.3,0.8,0.6,1.1c0.4,0.3,1,0.5,1.6,0.5c1.3,0,2.1-0.7,2.1-1.7c0-0.6-0.3-1.1-0.7-1.4
		c-0.3-0.2-0.9-0.3-1.5-0.3s-1,0-1.4,0.1v-1.6c0.4,0.1,0.7,0.1,1.3,0.1c1.3,0,2.1-0.6,2.1-1.6c0-0.9-0.6-1.4-1.7-1.4
		c-0.6,0-1.1,0.1-1.4,0.4c-0.3,0.2-0.4,0.5-0.6,1l-1.9-0.3c0.3-1,0.6-1.4,1.2-1.9c0.7-0.5,1.5-0.7,2.6-0.7c2.2,0,3.6,1.1,3.6,2.8
		c0,0.8-0.3,1.5-0.9,1.9c-0.3,0.2-0.6,0.3-1.3,0.5c0.9,0.1,1.4,0.4,1.9,0.9c0.4,0.5,0.6,1,0.6,1.8c0,0.7-0.3,1.4-0.8,1.9
		c-0.7,0.7-1.8,1.1-3.2,1.1c-1.5,0-2.6-0.4-3.3-1.2c-0.3-0.4-0.5-0.7-0.7-1.5L132.5,57.2z"/>
	<path class="st3" d="M141.2,59.2c-0.4-0.4-0.7-0.9-0.9-1.3c-0.3-0.9-0.5-2-0.5-3c0-1.4,0.3-2.8,0.8-3.6c0.7-1.2,1.9-1.8,3.3-1.8
		c1.1,0,2.1,0.4,2.8,1.1c0.4,0.4,0.7,0.9,0.9,1.3c0.3,0.9,0.5,2,0.5,3c0,1.6-0.4,3-1,3.9c-0.7,1-1.8,1.5-3.2,1.5
		C142.9,60.2,141.9,59.9,141.2,59.2z M145.4,58.1c0.6-0.6,0.9-1.8,0.9-3.4c0-1.5-0.3-2.7-0.9-3.4c-0.3-0.4-0.8-0.6-1.4-0.6
		c-0.6,0-1.1,0.2-1.5,0.7c-0.6,0.7-0.9,1.8-0.9,3.2s0.2,2.5,0.7,3.1c0.4,0.6,1,0.9,1.7,0.9C144.6,58.7,145.1,58.5,145.4,58.1z"/>
	<path class="st3" d="M150.4,54.9c0.5-0.6,0.7-0.8,1.3-1.2c0.8-0.5,1.4-0.7,2.2-0.7c0.6,0,1.1,0.1,1.7,0.4c0.3,0.2,0.3,0.2,1.2,0.7
		c1,0.6,1.7,0.9,2.3,0.9c0.3,0,0.7-0.1,1-0.2c0.6-0.3,0.9-0.6,1.4-1.2l1,1c-0.5,0.7-0.8,1-1.2,1.3c-0.7,0.5-1.4,0.7-2.3,0.7
		c-0.4,0-0.8-0.1-1.2-0.2c-0.5-0.2-0.8-0.3-1.8-1c-1.2-0.7-1.6-0.9-2.3-0.9c-0.9,0-1.5,0.3-2.3,1.2L150.4,54.9z"/>
	<path class="st3" d="M166.7,57.3c0.1,0.4,0.2,0.6,0.4,0.8c0.4,0.4,0.9,0.7,1.6,0.7c1.3,0,2.2-0.9,2.2-2.2s-0.8-2.1-2.1-2.1
		c-0.6,0-1.2,0.2-1.6,0.6c-0.2,0.2-0.3,0.3-0.4,0.6l-1.6-0.2c0.1-0.9,0.1-1,0.2-1.4l0.3-3.3c0-0.2,0-0.7,0.1-1.3c0.4,0,0.7,0,1.4,0
		h3.2c0.9,0,1.2,0,1.8-0.1v1.7c-0.6-0.1-1.1-0.1-1.8-0.1h-3.1l-0.2,2.3c0,0.1,0,0.3-0.1,0.6c0.6-0.6,1.3-0.8,2.2-0.8
		c1.1,0,1.9,0.3,2.6,1c0.6,0.6,0.9,1.4,0.9,2.5c0,2.3-1.5,3.7-4,3.7c-1.3,0-2.3-0.4-3-1.1c-0.4-0.4-0.5-0.7-0.8-1.4L166.7,57.3z"/>
	<path class="st3" d="M175.2,59.2c-0.4-0.4-0.7-0.9-0.9-1.3c-0.3-0.9-0.5-2-0.5-3c0-1.4,0.3-2.8,0.8-3.6c0.7-1.2,1.9-1.8,3.3-1.8
		c1.1,0,2.1,0.4,2.8,1.1c0.4,0.4,0.7,0.9,0.9,1.3c0.3,0.9,0.5,2,0.5,3c0,1.6-0.4,3-1,3.9c-0.7,1-1.8,1.5-3.2,1.5
		C176.9,60.2,175.9,59.9,175.2,59.2z M179.4,58.1c0.6-0.6,0.9-1.8,0.9-3.4c0-1.5-0.3-2.7-0.9-3.4c-0.3-0.4-0.8-0.6-1.4-0.6
		c-0.6,0-1.1,0.2-1.5,0.7c-0.6,0.7-0.9,1.8-0.9,3.2s0.2,2.5,0.7,3.1c0.4,0.6,1,0.9,1.7,0.9C178.6,58.7,179.1,58.5,179.4,58.1z"/>
	<path class="st3" d="M185.4,50.9c-0.6,0-1.2,0-1.7,0.1v-1.5c0.5,0.1,1,0.1,1.7,0.1h8.4c0.6,0,1.2,0,1.7-0.1V51
		c-0.5-0.1-1.1-0.1-1.7-0.1h-4.9c0,1,0,1.3-0.1,2h3.8c0.8,0,1.3,0,1.7-0.1c0,0.3,0,0.3-0.1,1.5c-0.1,2.3-0.4,4.4-0.7,5.2
		s-0.9,1.1-2.2,1.1c-0.4,0-0.7,0-1.9-0.1c-0.1-0.6-0.1-1-0.4-1.5c0.8,0.2,1.5,0.3,2.1,0.3s0.9-0.1,1-0.5c0.3-0.6,0.4-2.2,0.5-4.5
		h-4.1c-0.3,1.6-0.7,2.7-1.5,3.9c-0.7,1.1-1.4,1.8-2.6,2.7c-0.3-0.5-0.6-0.9-1.1-1.3c1-0.6,1.4-1,2-1.8c0.9-1.2,1.5-2.6,1.7-4.3
		c0.1-0.9,0.1-1,0.2-2.6C187.2,50.9,185.4,50.9,185.4,50.9z"/>
</g>
<g>
	<path class="st3" d="M71.9,226c-1,0-1.2,0-1.7,0.1c0.1-0.7,0.2-1.2,0.3-1.7c0.4-1,0.9-1.8,1.8-2.6c0.5-0.4,0.9-0.7,2.2-1.6
		c1.2-0.8,1.6-1.3,1.6-1.9c0-0.9-0.7-1.4-1.8-1.4c-0.8,0-1.3,0.3-1.7,0.8c-0.2,0.3-0.3,0.6-0.4,1.2l-1.9-0.2c0.2-1,0.4-1.5,0.9-2.1
		c0.7-0.8,1.7-1.2,3-1.2c2.3,0,3.7,1.1,3.7,2.9c0,0.9-0.3,1.5-0.9,2.1c-0.4,0.3-0.5,0.4-2.2,1.6c-0.6,0.4-1.2,1-1.6,1.3
		c-0.4,0.4-0.6,0.7-0.7,1.2h3.7c0.8,0,1.5,0,1.9-0.1v1.7c-0.6-0.1-1.1-0.1-2-0.1H71.9z"/>
	<path class="st3" d="M80.5,225.1c-0.4-0.4-0.7-0.9-0.9-1.3c-0.3-0.9-0.5-2-0.5-3c0-1.4,0.3-2.8,0.8-3.6c0.7-1.2,1.9-1.8,3.3-1.8
		c1.1,0,2.1,0.4,2.8,1.1c0.4,0.4,0.7,0.9,0.9,1.3c0.3,0.9,0.5,2,0.5,3c0,1.6-0.4,3-1,3.9c-0.7,1-1.8,1.5-3.2,1.5
		C82.2,226.2,81.2,225.8,80.5,225.1z M84.7,224.1c0.6-0.6,0.9-1.8,0.9-3.4c0-1.5-0.3-2.7-0.9-3.4c-0.3-0.4-0.8-0.6-1.4-0.6
		s-1.1,0.2-1.5,0.7c-0.6,0.7-0.9,1.8-0.9,3.2s0.2,2.5,0.7,3.1c0.4,0.6,1,0.9,1.7,0.9C83.9,224.7,84.4,224.5,84.7,224.1z"/>
	<path class="st3" d="M90,225.1c-0.4-0.4-0.7-0.9-0.9-1.3c-0.3-0.9-0.5-2-0.5-3c0-1.4,0.3-2.8,0.8-3.6c0.7-1.2,1.9-1.8,3.3-1.8
		c1.1,0,2.1,0.4,2.8,1.1c0.4,0.4,0.7,0.9,0.9,1.3c0.3,0.9,0.5,2,0.5,3c0,1.6-0.4,3-1,3.9c-0.7,1-1.8,1.5-3.2,1.5
		C91.6,226.2,90.7,225.8,90,225.1z M94.2,224.1c0.6-0.6,0.9-1.8,0.9-3.4c0-1.5-0.3-2.7-0.9-3.4c-0.3-0.4-0.8-0.6-1.4-0.6
		s-1.1,0.2-1.5,0.7c-0.6,0.7-0.9,1.8-0.9,3.2s0.2,2.5,0.7,3.1c0.4,0.6,1,0.9,1.7,0.9C93.3,224.7,93.9,224.5,94.2,224.1z"/>
	<path class="st3" d="M99.2,220.9c0.5-0.6,0.7-0.8,1.3-1.2c0.8-0.5,1.4-0.7,2.2-0.7c0.6,0,1.1,0.1,1.7,0.4c0.3,0.2,0.3,0.2,1.2,0.7
		c1,0.6,1.7,0.9,2.3,0.9c0.3,0,0.7-0.1,1-0.2c0.6-0.3,0.9-0.6,1.4-1.2l1,1c-0.5,0.7-0.8,1-1.2,1.3c-0.7,0.5-1.4,0.7-2.3,0.7
		c-0.4,0-0.8-0.1-1.2-0.2c-0.5-0.2-0.8-0.3-1.8-1c-1.2-0.7-1.6-0.9-2.3-0.9c-0.9,0-1.5,0.3-2.3,1.2L99.2,220.9z"/>
	<path class="st3" d="M115.1,223.2c0.2,0.6,0.3,0.8,0.6,1.1c0.4,0.3,1,0.5,1.6,0.5c1.3,0,2.1-0.7,2.1-1.7c0-0.6-0.3-1.1-0.7-1.4
		c-0.3-0.2-0.9-0.3-1.5-0.3s-1,0-1.4,0.1v-1.6c0.4,0.1,0.7,0.1,1.3,0.1c1.3,0,2.1-0.6,2.1-1.6c0-0.9-0.6-1.4-1.7-1.4
		c-0.6,0-1.1,0.1-1.4,0.4c-0.3,0.2-0.4,0.5-0.6,1l-1.9-0.3c0.3-1,0.6-1.4,1.2-1.9c0.7-0.5,1.5-0.7,2.6-0.7c2.2,0,3.6,1.1,3.6,2.8
		c0,0.8-0.3,1.5-0.9,1.9c-0.3,0.2-0.6,0.3-1.3,0.5c0.9,0.1,1.4,0.4,1.9,0.9c0.4,0.5,0.6,1,0.6,1.8c0,0.7-0.3,1.4-0.8,1.9
		c-0.7,0.7-1.8,1.1-3.2,1.1c-1.5,0-2.6-0.4-3.3-1.2c-0.3-0.4-0.5-0.7-0.7-1.5L115.1,223.2z"/>
	<path class="st3" d="M124.4,223.3c0.1,0.4,0.2,0.6,0.4,0.8c0.4,0.4,0.9,0.7,1.6,0.7c1.3,0,2.2-0.9,2.2-2.2s-0.8-2.1-2.1-2.1
		c-0.6,0-1.2,0.2-1.6,0.6c-0.2,0.2-0.3,0.3-0.4,0.6l-1.6-0.2c0.1-0.9,0.1-1,0.2-1.4l0.3-3.3c0-0.2,0-0.7,0.1-1.3c0.4,0,0.7,0,1.4,0
		h3.2c0.9,0,1.2,0,1.8-0.1v1.7c-0.6-0.1-1.1-0.1-1.8-0.1H125l-0.2,2.3c0,0.1,0,0.3-0.1,0.6c0.6-0.6,1.3-0.8,2.2-0.8
		c1.1,0,1.9,0.3,2.6,1c0.6,0.6,0.9,1.4,0.9,2.5c0,2.3-1.5,3.7-4,3.7c-1.3,0-2.3-0.4-3-1.1c-0.4-0.4-0.5-0.7-0.8-1.4L124.4,223.3z"/>
	<path class="st3" d="M132.9,225.1c-0.4-0.4-0.7-0.9-0.9-1.3c-0.3-0.9-0.5-2-0.5-3c0-1.4,0.3-2.8,0.8-3.6c0.7-1.2,1.9-1.8,3.3-1.8
		c1.1,0,2.1,0.4,2.8,1.1c0.4,0.4,0.7,0.9,0.9,1.3c0.3,0.9,0.5,2,0.5,3c0,1.6-0.4,3-1,3.9c-0.7,1-1.8,1.5-3.2,1.5
		C134.6,226.2,133.6,225.8,132.9,225.1z M137.1,224.1c0.6-0.6,0.9-1.8,0.9-3.4c0-1.5-0.3-2.7-0.9-3.4c-0.3-0.4-0.8-0.6-1.4-0.6
		c-0.6,0-1.1,0.2-1.5,0.7c-0.6,0.7-0.9,1.8-0.9,3.2s0.2,2.5,0.7,3.1c0.4,0.6,1,0.9,1.7,0.9C136.3,224.7,136.8,224.5,137.1,224.1z"/>
	<path class="st3" d="M143.1,216.9c-0.6,0-1.2,0-1.7,0.1v-1.5c0.5,0.1,1,0.1,1.7,0.1h8.4c0.6,0,1.2,0,1.7-0.1v1.5
		c-0.5-0.1-1.1-0.1-1.7-0.1h-4.9c0,1,0,1.3-0.1,2h3.8c0.8,0,1.3,0,1.7-0.1c0,0.3,0,0.3-0.1,1.5c-0.1,2.3-0.4,4.4-0.7,5.2
		s-0.9,1.1-2.2,1.1c-0.4,0-0.7,0-1.9-0.1c-0.1-0.6-0.1-1-0.4-1.5c0.8,0.2,1.5,0.3,2.1,0.3s0.9-0.1,1-0.5c0.3-0.6,0.4-2.2,0.5-4.5
		h-4.1c-0.3,1.6-0.7,2.7-1.5,3.9c-0.7,1.1-1.4,1.8-2.6,2.7c-0.3-0.5-0.6-0.9-1.1-1.3c1-0.6,1.4-1,2-1.8c0.9-1.2,1.5-2.6,1.7-4.3
		c0.1-0.9,0.1-1,0.2-2.6L143.1,216.9L143.1,216.9z"/>
</g>
<g>
	<path class="st3" d="M16.8,121c0.2,0.6,0.3,0.8,0.6,1.1c0.4,0.3,1,0.5,1.6,0.5c1.3,0,2.1-0.7,2.1-1.7c0-0.6-0.3-1.1-0.7-1.4
		c-0.3-0.2-0.9-0.3-1.5-0.3s-1,0-1.4,0.1v-1.6c0.4,0.1,0.7,0.1,1.3,0.1c1.3,0,2.1-0.6,2.1-1.6c0-0.9-0.6-1.4-1.7-1.4
		c-0.6,0-1.1,0.1-1.4,0.4c-0.3,0.2-0.4,0.5-0.6,1l-1.9-0.3c0.3-1,0.6-1.4,1.2-1.9c0.7-0.5,1.5-0.7,2.6-0.7c2.2,0,3.6,1.1,3.6,2.8
		c0,0.8-0.3,1.5-0.9,1.9c-0.3,0.2-0.6,0.3-1.3,0.5c0.9,0.1,1.4,0.4,1.9,0.9c0.4,0.5,0.6,1,0.6,1.8c0,0.7-0.3,1.4-0.8,1.9
		c-0.7,0.7-1.8,1.1-3.2,1.1c-1.5,0-2.6-0.4-3.3-1.2c-0.3-0.4-0.5-0.7-0.7-1.5L16.8,121z"/>
	<path class="st3" d="M26.2,121.1c0.1,0.4,0.2,0.6,0.4,0.8c0.4,0.4,0.9,0.7,1.6,0.7c1.3,0,2.2-0.9,2.2-2.2c0-1.3-0.8-2.1-2.1-2.1
		c-0.6,0-1.2,0.2-1.6,0.6c-0.2,0.2-0.3,0.3-0.4,0.6l-1.6-0.2c0.1-0.9,0.1-1,0.2-1.4l0.3-3.3c0-0.2,0-0.7,0.1-1.3c0.4,0,0.7,0,1.4,0
		h3.2c0.9,0,1.2,0,1.8-0.1v1.7c-0.6-0.1-1.1-0.1-1.8-0.1h-3.1l-0.2,2.3c0,0.1,0,0.3-0.1,0.6c0.6-0.6,1.3-0.8,2.2-0.8
		c1.1,0,1.9,0.3,2.6,1c0.6,0.6,0.9,1.4,0.9,2.5c0,2.3-1.5,3.7-4,3.7c-1.3,0-2.3-0.4-3-1.1c-0.4-0.4-0.5-0.7-0.8-1.4L26.2,121.1z"/>
	<path class="st3" d="M34.7,123c-0.4-0.4-0.7-0.9-0.9-1.3c-0.3-0.9-0.5-2-0.5-3c0-1.4,0.3-2.8,0.8-3.6c0.7-1.2,1.9-1.8,3.3-1.8
		c1.1,0,2.1,0.4,2.8,1.1c0.4,0.4,0.7,0.9,0.9,1.3c0.3,0.9,0.5,2,0.5,3c0,1.6-0.4,3-1,3.9c-0.7,1-1.8,1.5-3.2,1.5
		C36.4,124,35.4,123.6,34.7,123z M38.9,121.9c0.6-0.6,0.9-1.8,0.9-3.4c0-1.5-0.3-2.7-0.9-3.4c-0.3-0.4-0.8-0.6-1.4-0.6
		c-0.6,0-1.1,0.2-1.5,0.7c-0.6,0.7-0.9,1.8-0.9,3.2c0,1.4,0.2,2.5,0.7,3.1c0.4,0.6,1,0.9,1.7,0.9C38.1,122.5,38.6,122.3,38.9,121.9z
		"/>
	<path class="st3" d="M44.8,114.7c-0.6,0-1.2,0-1.7,0.1v-1.5c0.5,0.1,1,0.1,1.7,0.1h8.4c0.6,0,1.2,0,1.7-0.1v1.5
		c-0.5-0.1-1.1-0.1-1.7-0.1h-4.9c0,1,0,1.3-0.1,2H52c0.8,0,1.3,0,1.7-0.1c0,0.3,0,0.3-0.1,1.5c-0.1,2.3-0.4,4.4-0.7,5.2
		c-0.3,0.8-0.9,1.1-2.2,1.1c-0.4,0-0.7,0-1.9-0.1c-0.1-0.6-0.1-1-0.4-1.5c0.8,0.2,1.5,0.3,2.1,0.3s0.9-0.1,1-0.5
		c0.3-0.6,0.4-2.2,0.5-4.5h-4c-0.3,1.6-0.7,2.7-1.5,3.9c-0.7,1.1-1.4,1.8-2.6,2.7c-0.3-0.5-0.6-0.9-1.1-1.3c1-0.6,1.4-1,2-1.8
		c0.9-1.2,1.5-2.6,1.7-4.3c0.1-0.9,0.1-1,0.2-2.6C46.7,114.7,44.8,114.7,44.8,114.7z"/>
	<path class="st3" d="M56.8,114.5c0-0.7,0-1.1-0.1-1.6h1.7c0,0.4-0.1,0.8-0.1,1.3v0.3l0.1,6.3c1.2-0.5,2.5-1.2,3.4-1.8l0.3,1.4
		c-1.6,1-2.7,1.6-5.2,2.6c-0.5,0.2-0.6,0.3-0.9,0.4l-0.4-1.6c0.5-0.1,0.7-0.2,1.3-0.4L56.8,114.5z M66.5,112.9c0,0.1,0,0.1-0.1,1.8
		c-0.1,1.2-0.3,2.7-0.6,3.7c-0.2,0.7-0.5,1.3-0.8,1.9c0.7,1.2,1.6,2.1,2.9,2.8c-0.4,0.4-0.6,0.9-0.9,1.5c-1.2-0.8-2-1.8-2.8-3
		c-1.1,1.3-2.4,2.3-4.4,3.1c-0.3-0.6-0.5-0.9-0.8-1.3c2.3-0.9,3.7-2,4.7-3.5c0.9-1.5,1.4-3.6,1.4-6.2c0-0.4,0-0.6-0.1-0.9
		L66.5,112.9z M60.7,113.7c1,1,1.6,1.8,2.6,3.2l-1.4,0.9c-1-1.7-1.3-2.1-2.5-3.3L60.7,113.7z"/>
	<path class="st3" d="M75.2,122.8H79c0.7,0,1.3,0,1.8-0.1v1.6c-0.6-0.1-1.1-0.1-1.7-0.1h-8.3c-0.6,0-1.2,0-1.8,0.1v-1.6
		c0.5,0.1,1.1,0.1,1.8,0.1h3v-8.5c0-0.6,0-1-0.1-1.5h1.7c-0.1,0.5-0.1,0.9-0.1,1.5v2.2h3.1c0.6,0,1,0,1.5-0.1v1.6
		c-0.5-0.1-1-0.1-1.5-0.1h-3.1v4.9H75.2z"/>
</g>
<g>
	<path class="st3" d="M251.4,121.1c0.1,0.4,0.2,0.6,0.4,0.8c0.4,0.4,0.9,0.7,1.6,0.7c1.3,0,2.2-0.9,2.2-2.2c0-1.3-0.8-2.1-2.1-2.1
		c-0.6,0-1.2,0.2-1.6,0.6c-0.2,0.2-0.3,0.3-0.4,0.6l-1.6-0.2c0.1-0.9,0.1-1,0.2-1.4l0.3-3.3c0-0.2,0-0.7,0.1-1.3c0.4,0,0.7,0,1.4,0
		h3.2c0.9,0,1.2,0,1.8-0.1v1.7c-0.6-0.1-1.1-0.1-1.8-0.1H252l-0.2,2.3c0,0.1,0,0.3-0.1,0.6c0.6-0.6,1.3-0.8,2.2-0.8
		c1.1,0,1.9,0.3,2.6,1c0.6,0.6,0.9,1.4,0.9,2.5c0,2.3-1.5,3.7-4,3.7c-1.3,0-2.3-0.4-3-1.1c-0.4-0.4-0.5-0.7-0.8-1.4L251.4,121.1z"/>
	<path class="st3" d="M259.9,123c-0.4-0.4-0.7-0.9-0.9-1.3c-0.3-0.9-0.5-2-0.5-3c0-1.4,0.3-2.8,0.8-3.6c0.7-1.2,1.9-1.8,3.3-1.8
		c1.1,0,2.1,0.4,2.8,1.1c0.4,0.4,0.7,0.9,0.9,1.3c0.3,0.9,0.5,2,0.5,3c0,1.6-0.4,3-1,3.9c-0.7,1-1.8,1.5-3.2,1.5
		C261.5,124,260.6,123.6,259.9,123z M264.1,121.9c0.6-0.6,0.9-1.8,0.9-3.4c0-1.5-0.3-2.7-0.9-3.4c-0.3-0.4-0.8-0.6-1.4-0.6
		s-1.1,0.2-1.5,0.7c-0.6,0.7-0.9,1.8-0.9,3.2c0,1.4,0.2,2.5,0.7,3.1c0.4,0.6,1,0.9,1.7,0.9C263.3,122.5,263.8,122.3,264.1,121.9z"/>
	<path class="st3" d="M269.1,118.7c0.5-0.6,0.7-0.8,1.3-1.2c0.8-0.5,1.4-0.7,2.2-0.7c0.6,0,1.1,0.1,1.7,0.4c0.3,0.2,0.3,0.2,1.2,0.7
		c1,0.6,1.7,0.9,2.3,0.9c0.3,0,0.7-0.1,1-0.2c0.6-0.3,0.9-0.6,1.4-1.2l1,1c-0.5,0.7-0.8,1-1.2,1.3c-0.7,0.5-1.4,0.7-2.3,0.7
		c-0.4,0-0.8-0.1-1.2-0.2c-0.5-0.2-0.8-0.3-1.8-1c-1.2-0.7-1.6-0.9-2.3-0.9c-0.9,0-1.5,0.3-2.3,1.2L269.1,118.7z"/>
	<path class="st3" d="M286.2,123.8c0.1-0.5,0.1-1,0.1-1.7v-7.2h-0.6c-0.5,0-0.9,0-1.4,0.1v-1.7c0.4,0.1,0.7,0.1,1.3,0.1h1.2
		c0.7,0,0.9,0,1.3-0.1c-0.1,0.8-0.1,1.4-0.1,2.2v6.6c0,0.7,0,1.2,0.1,1.7H286.2z"/>
	<path class="st3" d="M292.3,123c-0.4-0.4-0.7-0.9-0.9-1.3c-0.3-0.9-0.5-2-0.5-3c0-1.4,0.3-2.8,0.8-3.6c0.7-1.2,1.9-1.8,3.3-1.8
		c1.1,0,2.1,0.4,2.8,1.1c0.4,0.4,0.7,0.9,0.9,1.3c0.3,0.9,0.5,2,0.5,3c0,1.6-0.4,3-1,3.9c-0.7,1-1.8,1.5-3.2,1.5
		C293.9,124,293,123.6,292.3,123z M296.5,121.9c0.6-0.6,0.9-1.8,0.9-3.4c0-1.5-0.3-2.7-0.9-3.4c-0.3-0.4-0.8-0.6-1.4-0.6
		s-1.1,0.2-1.5,0.7c-0.6,0.7-0.9,1.8-0.9,3.2c0,1.4,0.2,2.5,0.7,3.1c0.4,0.6,1,0.9,1.7,0.9C295.6,122.5,296.1,122.3,296.5,121.9z"/>
	<path class="st3" d="M301.8,123c-0.4-0.4-0.7-0.9-0.9-1.3c-0.3-0.9-0.5-2-0.5-3c0-1.4,0.3-2.8,0.8-3.6c0.7-1.2,1.9-1.8,3.3-1.8
		c1.1,0,2.1,0.4,2.8,1.1c0.4,0.4,0.7,0.9,0.9,1.3c0.3,0.9,0.5,2,0.5,3c0,1.6-0.4,3-1,3.9c-0.7,1-1.8,1.5-3.2,1.5
		C303.4,124,302.5,123.6,301.8,123z M305.9,121.9c0.6-0.6,0.9-1.8,0.9-3.4c0-1.5-0.3-2.7-0.9-3.4c-0.3-0.4-0.8-0.6-1.4-0.6
		s-1.1,0.2-1.5,0.7c-0.6,0.7-0.9,1.8-0.9,3.2c0,1.4,0.2,2.5,0.7,3.1c0.4,0.6,1,0.9,1.7,0.9C305.1,122.5,305.6,122.3,305.9,121.9z"/>
	<path class="st3" d="M311.9,114.7c-0.6,0-1.2,0-1.7,0.1v-1.5c0.5,0.1,1,0.1,1.7,0.1h8.4c0.6,0,1.2,0,1.7-0.1v1.5
		c-0.5-0.1-1.1-0.1-1.7-0.1h-4.9c0,1,0,1.3-0.1,2h3.8c0.8,0,1.3,0,1.7-0.1c0,0.3,0,0.3-0.1,1.5c-0.1,2.3-0.4,4.4-0.7,5.2
		c-0.3,0.8-0.9,1.1-2.2,1.1c-0.4,0-0.7,0-1.9-0.1c-0.1-0.6-0.1-1-0.4-1.5c0.8,0.2,1.5,0.3,2.1,0.3s0.9-0.1,1-0.5
		c0.3-0.6,0.4-2.2,0.5-4.5H315c-0.3,1.6-0.7,2.7-1.5,3.9c-0.7,1.1-1.4,1.8-2.6,2.7c-0.3-0.5-0.6-0.9-1.1-1.3c1-0.6,1.4-1,2-1.8
		c0.9-1.2,1.5-2.6,1.7-4.3c0.1-0.9,0.1-1,0.2-2.6C313.7,114.7,311.9,114.7,311.9,114.7z"/>
</g>
<g>
	<path class="st3" d="M179.8,226c0.1-0.5,0.1-1,0.1-1.7v-7.2h-0.6c-0.5,0-0.9,0-1.4,0.1v-1.7c0.4,0.1,0.7,0.1,1.3,0.1h1.2
		c0.7,0,0.9,0,1.3-0.1c-0.1,0.8-0.1,1.4-0.1,2.2v6.6c0,0.7,0,1.2,0.1,1.7L179.8,226L179.8,226z"/>
	<path class="st3" d="M185.9,225.1c-0.4-0.4-0.7-0.9-0.9-1.3c-0.3-0.9-0.5-2-0.5-3c0-1.4,0.3-2.8,0.8-3.6c0.7-1.2,1.9-1.8,3.3-1.8
		c1.1,0,2.1,0.4,2.8,1.1c0.4,0.4,0.7,0.9,0.9,1.3c0.3,0.9,0.5,2,0.5,3c0,1.6-0.4,3-1,3.9c-0.7,1-1.8,1.5-3.2,1.5
		C187.5,226.2,186.6,225.8,185.9,225.1z M190.1,224.1c0.6-0.6,0.9-1.8,0.9-3.4c0-1.5-0.3-2.7-0.9-3.4c-0.3-0.4-0.8-0.6-1.4-0.6
		c-0.6,0-1.1,0.2-1.5,0.7c-0.6,0.7-0.9,1.8-0.9,3.2s0.2,2.5,0.7,3.1c0.4,0.6,1,0.9,1.7,0.9C189.2,224.7,189.7,224.5,190.1,224.1z"/>
	<path class="st3" d="M195.4,225.1c-0.4-0.4-0.7-0.9-0.9-1.3c-0.3-0.9-0.5-2-0.5-3c0-1.4,0.3-2.8,0.8-3.6c0.7-1.2,1.9-1.8,3.3-1.8
		c1.1,0,2.1,0.4,2.8,1.1c0.4,0.4,0.7,0.9,0.9,1.3c0.3,0.9,0.5,2,0.5,3c0,1.6-0.4,3-1,3.9c-0.7,1-1.8,1.5-3.2,1.5
		C197,226.2,196.1,225.8,195.4,225.1z M199.6,224.1c0.6-0.6,0.9-1.8,0.9-3.4c0-1.5-0.3-2.7-0.9-3.4c-0.3-0.4-0.8-0.6-1.4-0.6
		c-0.6,0-1.1,0.2-1.5,0.7c-0.6,0.7-0.9,1.8-0.9,3.2s0.2,2.5,0.7,3.1c0.4,0.6,1,0.9,1.7,0.9C198.7,224.7,199.2,224.5,199.6,224.1z"/>
	<path class="st3" d="M204.5,220.9c0.5-0.6,0.7-0.8,1.3-1.2c0.8-0.5,1.4-0.7,2.2-0.7c0.6,0,1.1,0.1,1.7,0.4c0.3,0.2,0.3,0.2,1.2,0.7
		c1,0.6,1.7,0.9,2.3,0.9c0.3,0,0.7-0.1,1-0.2c0.6-0.3,0.9-0.6,1.4-1.2l1,1c-0.5,0.7-0.8,1-1.2,1.3c-0.7,0.5-1.4,0.7-2.3,0.7
		c-0.4,0-0.8-0.1-1.2-0.2c-0.5-0.2-0.8-0.3-1.8-1c-1.2-0.7-1.6-0.9-2.3-0.9c-0.9,0-1.5,0.3-2.3,1.2L204.5,220.9z"/>
	<path class="st3" d="M220.1,226c-1,0-1.2,0-1.7,0.1c0.1-0.7,0.2-1.2,0.3-1.7c0.4-1,0.9-1.8,1.8-2.6c0.5-0.4,0.9-0.7,2.2-1.6
		c1.2-0.8,1.6-1.3,1.6-1.9c0-0.9-0.7-1.4-1.8-1.4c-0.8,0-1.3,0.3-1.7,0.8c-0.2,0.3-0.3,0.6-0.4,1.2l-1.9-0.2c0.2-1,0.4-1.5,0.9-2.1
		c0.7-0.8,1.7-1.2,3-1.2c2.3,0,3.7,1.1,3.7,2.9c0,0.9-0.3,1.5-0.9,2.1c-0.4,0.3-0.5,0.4-2.2,1.6c-0.6,0.4-1.2,1-1.6,1.3
		c-0.4,0.4-0.6,0.7-0.7,1.2h3.7c0.8,0,1.5,0,1.9-0.1v1.7c-0.6-0.1-1.1-0.1-2-0.1H220.1z"/>
	<path class="st3" d="M228.8,225.1c-0.4-0.4-0.7-0.9-0.9-1.3c-0.3-0.9-0.5-2-0.5-3c0-1.4,0.3-2.8,0.8-3.6c0.7-1.2,1.9-1.8,3.3-1.8
		c1.1,0,2.1,0.4,2.8,1.1c0.4,0.4,0.7,0.9,0.9,1.3c0.3,0.9,0.5,2,0.5,3c0,1.6-0.4,3-1,3.9c-0.7,1-1.8,1.5-3.2,1.5
		C230.4,226.2,229.5,225.8,228.8,225.1z M233,224.1c0.6-0.6,0.9-1.8,0.9-3.4c0-1.5-0.3-2.7-0.9-3.4c-0.3-0.4-0.8-0.6-1.4-0.6
		c-0.6,0-1.1,0.2-1.5,0.7c-0.6,0.7-0.9,1.8-0.9,3.2s0.2,2.5,0.7,3.1c0.4,0.6,1,0.9,1.7,0.9C232.1,224.7,232.7,224.5,233,224.1z"/>
	<path class="st3" d="M238.3,225.1c-0.4-0.4-0.7-0.9-0.9-1.3c-0.3-0.9-0.5-2-0.5-3c0-1.4,0.3-2.8,0.8-3.6c0.7-1.2,1.9-1.8,3.3-1.8
		c1.1,0,2.1,0.4,2.8,1.1c0.4,0.4,0.7,0.9,0.9,1.3c0.3,0.9,0.5,2,0.5,3c0,1.6-0.4,3-1,3.9c-0.7,1-1.8,1.5-3.2,1.5
		C239.9,226.2,239,225.8,238.3,225.1z M242.5,224.1c0.6-0.6,0.9-1.8,0.9-3.4c0-1.5-0.3-2.7-0.9-3.4c-0.3-0.4-0.8-0.6-1.4-0.6
		c-0.6,0-1.1,0.2-1.5,0.7c-0.6,0.7-0.9,1.8-0.9,3.2s0.2,2.5,0.7,3.1c0.4,0.6,1,0.9,1.7,0.9C241.6,224.7,242.1,224.5,242.5,224.1z"/>
	<path class="st3" d="M248.4,216.9c-0.6,0-1.2,0-1.7,0.1v-1.5c0.5,0.1,1,0.1,1.7,0.1h8.4c0.6,0,1.2,0,1.7-0.1v1.5
		c-0.5-0.1-1.1-0.1-1.7-0.1h-4.9c0,1,0,1.3-0.1,2h3.8c0.8,0,1.3,0,1.7-0.1c0,0.3,0,0.3-0.1,1.5c-0.1,2.3-0.4,4.4-0.7,5.2
		c-0.3,0.8-0.9,1.1-2.2,1.1c-0.4,0-0.7,0-1.9-0.1c-0.1-0.6-0.1-1-0.4-1.5c0.8,0.2,1.5,0.3,2.1,0.3s0.9-0.1,1-0.5
		c0.3-0.6,0.4-2.2,0.5-4.5h-4.1c-0.3,1.6-0.7,2.7-1.5,3.9c-0.7,1.1-1.4,1.8-2.6,2.7c-0.3-0.5-0.6-0.9-1.1-1.3c1-0.6,1.4-1,2-1.8
		c0.9-1.2,1.5-2.6,1.7-4.3c0.1-0.9,0.1-1,0.2-2.6L248.4,216.9L248.4,216.9z"/>
</g>
<g>
	<polygon class="st4" points="162.9,80.1 100.7,125.3 124.4,198.5 201.4,198.5 225.1,125.3 	"/>
	<path class="st2" d="M201.4,198.8h-76.9c-0.1,0-0.2-0.1-0.2-0.2l-23.8-73.2c0-0.1,0-0.2,0.1-0.3l62.2-45.2c0.1-0.1,0.2-0.1,0.3,0
		l62.2,45.2c0.1,0.1,0.1,0.2,0.1,0.3l-23.8,73.2C201.6,198.7,201.5,198.8,201.4,198.8z M124.6,198.2h76.6l23.7-72.8l-61.9-45
		l-61.9,45L124.6,198.2z"/>
</g>
<g>
	<polygon class="st1" points="162.6,95.8 115.5,130 133.5,185.5 191.8,185.5 209.8,130 	"/>
	<path class="st2" d="M191.8,185.7h-58.3c-0.1,0-0.2-0.1-0.2-0.2l-18-55.4c0-0.1,0-0.2,0.1-0.3l47.2-34.3c0.1-0.1,0.2-0.1,0.3,0
		l47.2,34.3c0.1,0.1,0.1,0.2,0.1,0.3l-18,55.4C192,185.7,191.9,185.7,191.8,185.7z M133.7,185.2h57.9l17.9-55.1l-46.9-34l-46.9,34
		L133.7,185.2z"/>
</g>
<g>
	<polygon class="st4" points="162.9,112 131.2,135 143.3,172.2 182.5,172.2 194.6,135 	"/>
	<path class="st2" d="M182.5,172.5h-39.1c-0.1,0-0.2-0.1-0.2-0.2L131,135.1c0-0.1,0-0.2,0.1-0.3l31.7-23c0.1-0.1,0.2-0.1,0.3,0
		l31.7,23c0.1,0.1,0.1,0.2,0.1,0.3l-12.1,37.2C182.7,172.4,182.6,172.5,182.5,172.5z M143.5,171.9h38.8l12-36.9l-31.4-22.8
		L131.5,135L143.5,171.9z"/>
</g>
<g>
	<polygon class="st1" points="162.9,127.3 145.8,139.7 152.3,159.8 173.5,159.8 180,139.7 	"/>
	<path class="st2" d="M173.5,160.1h-21.1c-0.1,0-0.2-0.1-0.2-0.2l-6.5-20.1c0-0.1,0-0.2,0.1-0.3l17.1-12.4c0.1-0.1,0.2-0.1,0.3,0
		l17.1,12.4c0.1,0.1,0.1,0.2,0.1,0.3l-6.5,20.1C173.7,160,173.6,160.1,173.5,160.1z M152.5,159.5h20.8l6.4-19.7l-16.8-12.2
		l-16.8,12.2L152.5,159.5z"/>
</g>
<path class="st2" d="M162.7,145.5c-0.1,0-0.1,0-0.2-0.1c-0.1,0-0.1-0.1-0.1-0.2l0.3-81.3c0-0.1,0.1-0.3,0.3-0.3l0,0
	c0.1,0,0.3,0.1,0.3,0.3l-0.3,81l77.3-24.8c0.1,0,0.3,0,0.3,0.2c0,0.1,0,0.3-0.2,0.3L162.7,145.5
	C162.8,145.5,162.7,145.5,162.7,145.5z"/>
<path class="st2" d="M115,211.7c-0.1,0-0.1,0-0.2,0c-0.1-0.1-0.1-0.2-0.1-0.4l47.5-65.8l-76.8-24.8c-0.1,0-0.2-0.2-0.2-0.3
	c0-0.1,0.2-0.2,0.3-0.2l77.1,24.9c0.1,0,0.1,0.1,0.2,0.2c0,0.1,0,0.2,0,0.2l-47.7,66.1C115.1,211.6,115,211.7,115,211.7z"/>
<path class="st2" d="M210.7,211.7c-0.1,0-0.2,0-0.2-0.1l-48-66.1c-0.1-0.1-0.1-0.3,0.1-0.4c0.1-0.1,0.3-0.1,0.4,0.1l48,66.1
	c0.1,0.1,0.1,0.3-0.1,0.4C210.8,211.6,210.8,211.7,210.7,211.7z"/>
<g id="animation">
	<g class="st5">
		<polygon class="st6" points="210.9,130.9 209.6,209.1 127.8,194.5 139.5,137.9 162.8,125.4 		"/>
	</g>
	<path class="st7" d="M162.3,122.8l-25,13.5l-12.6,60.2l87.4,15.6l1.3-83.5L162.3,122.8z M209.6,209.1l-81.8-14.6l11.7-56.6
		l23.3-12.6l48.1,5.5L209.6,209.1z"/>
</g>
</svg>
