<?xml version="1.0" encoding="utf-8"?>
<!-- Generator: Adobe Illustrator 24.1.3, SVG Export Plug-In . SVG Version: 6.00 Build 0)  -->
<svg version="1.1" id="レイヤー_1" xmlns="http://www.w3.org/2000/svg" xmlns:xlink="http://www.w3.org/1999/xlink" x="0px"
	 y="0px" viewBox="0 0 336 265" style="enable-background:new 0 0 336 265;" xml:space="preserve">
<style type="text/css">
	.st0{fill:#F4F4F4;stroke:#E2E2E2;stroke-width:2;stroke-linecap:round;stroke-linejoin:round;stroke-miterlimit:10;}
	.st1{fill:#F7F7F7;stroke:#E2E2E2;stroke-width:2;stroke-linecap:round;stroke-linejoin:round;stroke-miterlimit:10;}
	.st2{fill:none;stroke:#E2E2E2;stroke-width:2;stroke-linecap:round;stroke-linejoin:round;stroke-miterlimit:10;}
	.st3{fill:#333333;}
	.st4{opacity:0.3;fill:#ce9b4c;}
	.st5{fill:#FFAB08;}

<!-- アニメーション追加 -->
	#animation.is-start-sp{
    transform-origin: 48% 54%;
    -webkit-animation: anime 0.8s ease-out 0s;
    -moz-animation: anime 0.8s ease-out 0s;
    animation: anime 0.8s ease-out 0s;
    -webkit-animation-fill-mode: both;
    -moz-animation-fill-mode: both;
    animation-fill-mode: both;
	}
	#animation.is-start-pc{
    transform-origin: 48% 54%;
    -webkit-animation: anime 0.8s ease-out 2.6s;
    -moz-animation: anime 0.8s ease-out 2.6s;
    animation: anime 0.8s ease-out 2.6s;
    -webkit-animation-fill-mode: both;
    -moz-animation-fill-mode: both;
    animation-fill-mode: both;
	}
@-webkit-keyframes anime {
  0% {
    opacity: 0;
    -moz-transform:scale(0.1);
    -o-transform:scale(0.1);
    -ms-transform:scale(0.1);
    -webkit-transform:scale(0.1);
    transform:scale(0.1);
  }
  100% {
    opacity: 1;
    -moz-transform:scale(1);
    -o-transform:scale(1);
    -ms-transform:scale(1);
    -webkit-transform:scale(1);
    transform:scale(1);
  }
}
<!-- アニメーション追加ここまで -->
</style>
<polygon class="st0" points="203.9,72.9 123.7,72.9 83.7,142.3 123.7,211.7 203.9,211.7 243.9,142.3 "/>
<polygon class="st1" points="196.6,85.4 131,85.4 98.1,142.3 131,199.2 196.6,199.2 229.5,142.3 "/>
<polygon class="st0" points="189.8,97.2 137.8,97.2 111.8,142.3 137.8,187.3 189.8,187.3 215.8,142.3 "/>
<polygon class="st0" points="189.8,97.2 137.8,97.2 111.8,142.3 137.8,187.3 189.8,187.3 215.8,142.3 "/>
<polygon class="st1" points="182.4,110.1 145.2,110.1 126.7,142.3 145.2,174.4 182.4,174.4 200.9,142.3 "/>
<polygon class="st0" points="175,122.9 152.6,122.9 141.4,142.3 152.6,161.7 175,161.7 186.2,142.3 "/>
<polyline class="st2" points="83.7,142.3 163.6,142.3 123.7,72.9 "/>
<polyline class="st2" points="203.9,72.9 163.6,142.3 243.9,142.3 "/>
<polyline class="st2" points="123.7,211.7 163.6,142.3 203.9,211.7 "/>
<g>
	<path class="st3" d="M103.2,66.7c-0.1-0.4-0.3-1-0.5-1.7l-1.8-4.2c-0.2-0.6-0.3-0.9-0.6-1.9c0,0.7,0.1,1.7,0.1,1.9v4
		c0,0.9,0,1.3,0.1,1.8h-1.7c0.1-0.5,0.1-1,0.1-1.8v-6.2c0-0.8,0-1.3-0.1-1.8h2.3c0.1,0.4,0.2,1,0.5,1.5l2.5,6.1l2.5-6.1
		c0.2-0.6,0.4-1,0.4-1.5h2.3c-0.1,0.6-0.1,1-0.1,1.8v6.2c0,0.9,0,1.3,0.1,1.8h-1.7c0.1-0.5,0.1-1,0.1-1.8v-4.1
		c0-1.1,0.1-1.7,0.1-1.9c-0.2,0.7-0.4,1.4-0.6,1.8l-1.9,4.3c-0.2,0.6-0.5,1.3-0.5,1.6H103.2z"/>
	<path class="st3" d="M118,66.7c-0.1-0.4-0.2-0.9-0.3-1.3l-0.5-1.3h-3.9l-0.5,1.3c-0.2,0.6-0.3,0.8-0.4,1.3h-2
		c0.2-0.3,0.4-0.9,0.7-1.5l2.7-7.1c0.2-0.6,0.3-0.9,0.4-1.2h2.1c0.1,0.3,0.1,0.5,0.4,1.2l2.7,7.1c0.3,0.8,0.5,1.1,0.6,1.5H118z
		 M115.4,59c0-0.1-0.1-0.3-0.2-0.7c-0.2,0.6-0.2,0.6-0.2,0.7l-1.3,3.7h3.1L115.4,59z"/>
	<path class="st3" d="M128.4,63.9c-1.2,0-1.2,0-1.4,0c-2.5,0-3.3-0.2-3.9-1.1c-0.4,0.3-1,0.7-1.8,1.2l-0.5-1.2
		c0.4-0.1,1.2-0.5,1.8-0.9v-1.5h-0.7c-0.4,0-0.5,0-0.8,0v-1.2c0.3,0,0.5,0.1,1,0.1h0.9c0.4,0,0.7,0,0.9,0c0,0.3,0,0.5,0,1.2v1.5
		c0.2,0.4,0.5,0.7,0.9,0.8c0.4,0.1,1,0.2,2.3,0.2c2.5,0,4.1,0,5.2-0.1c-0.3,0.6-0.3,0.6-0.4,1.1c-0.4,0-0.4,0-2.1,0v0.4h0.7
		c0.7,0,1.1,0,1.5-0.1v1.2c-0.4,0-0.8-0.1-1.5-0.1h-0.6v1.1c0,0.8-0.4,1-1.9,1c-0.3,0-0.5,0-0.9,0c0-0.5-0.1-0.8-0.4-1.3
		c0.5,0.1,1,0.1,1.4,0.1c0.4,0,0.5,0,0.5-0.3v-0.7h-3.9c0.6,0.4,0.9,0.7,1.5,1.2l-1,0.9c-0.6-0.7-1-1.1-1.7-1.6l0.7-0.5h-1.5
		c-0.7,0-1.1,0-1.5,0.1v-1.2c0.4,0,0.8,0.1,1.5,0.1h6V63.9z M121.8,56.2c0.9,0.6,1.2,0.9,1.9,1.6l-0.9,1c-0.6-0.7-1.1-1.1-1.9-1.7
		L121.8,56.2z M125.7,57.1c-0.2-0.3-0.3-0.5-0.6-0.8l1.3-0.2c0.3,0.4,0.5,0.8,0.7,1h1.2c0.3-0.4,0.4-0.6,0.6-1l1.4,0.3
		c-0.3,0.4-0.4,0.6-0.5,0.8h0.8c0.6,0,0.9,0,1.2-0.1v1.1c-0.3,0-0.7,0-1.2,0h-2.2c-0.1,0.2-0.1,0.2-0.2,0.3h1.7c0.5,0,0.9,0,1.1,0
		c0,0.3,0,0.5,0,1v2.2c0,0.4,0,0.8,0,1c-0.3,0-0.5,0-1,0h-4.2c-0.6,0-0.8,0-1.2,0c0-0.2,0-0.4,0-0.9v-2.2c0-0.4,0-0.7,0-1
		c0.2,0,0.7,0,1.2,0h1c0.1-0.1,0.1-0.2,0.2-0.3h-1.8c-0.6,0-0.9,0-1.2,0V57c0.3,0,0.6,0.1,1.2,0.1H125.7z M125.8,59.6h3.8v-0.3h-3.8
		V59.6z M125.8,60.6h3.8v-0.4h-3.8V60.6z M125.8,61.6h3.8v-0.3h-3.8V61.6z"/>
	<path class="st3" d="M136.2,58.1c-0.3,0-0.7,0-1.2,0.1v-1.5c0.4,0,0.6,0.1,1.2,0.1h2c0.5,0,0.8,0,1.1-0.1c0,0.4,0,0.5,0,0.8
		c0,1.8,0.4,3.4,1.3,4.9c0.5,0.9,1.1,1.6,2,2.4c0.6,0.6,1,0.8,1.8,1.3c-0.5,0.5-0.7,0.8-1,1.4c-1.2-0.9-2.2-1.8-3-2.9
		c-0.5-0.6-0.7-1.1-1.1-1.8c-0.3-0.7-0.4-1-0.6-1.8c-0.4,1.6-0.9,2.6-1.8,3.7c-0.8,1-1.7,1.9-3.1,2.8c-0.3-0.5-0.5-0.9-1-1.3
		c1-0.6,1.7-1.1,2.5-1.9c1-1,1.7-2.3,2.1-3.7c0.2-0.9,0.4-1.5,0.4-2.5H136.2z"/>
</g>
<g>
	<path class="st3" d="M203,53.3c0,0.2,0,0.2,0,1c0,2.1-0.4,3.3-1.2,4.4c-0.7,1-1.6,1.6-3.2,2.2c-0.3-0.7-0.5-0.9-1-1.4
		c1-0.3,1.6-0.6,2.2-1c1.3-1,1.7-2.1,1.7-4.4c0-0.4,0-0.5-0.1-0.7H203z M208,51.8c-0.2,0.2-0.2,0.2-0.5,0.9
		c-0.4,0.9-1.1,1.8-1.9,2.5c-0.5,0.4-0.9,0.7-1.5,1c-0.4-0.5-0.6-0.7-1.1-1.1c0.8-0.4,1.3-0.7,1.8-1.1c0.5-0.5,0.9-1,1.2-1.6h-6.5
		c-0.9,0-1.2,0-1.7,0.1v-1.5c0.5,0.1,0.9,0.1,1.7,0.1h6.4c0.7,0,0.9,0,1.2-0.1L208,51.8z"/>
	<path class="st3" d="M218.1,52.4c-0.1,0.2-0.2,0.3-0.3,0.7c-0.6,1.9-1.4,3.5-2.5,4.8c-1.1,1.3-2.5,2.3-4.4,3.1
		c-0.3-0.6-0.5-0.8-1-1.3c1.2-0.5,1.9-0.9,2.7-1.5c1.8-1.3,2.9-3,3.6-5.2l-3.7,0.1c-0.8,1.2-1.7,2.3-2.9,3.2
		c-0.4-0.5-0.6-0.7-1.2-1.1c1.4-1,2.3-1.9,3.2-3.6c0.4-0.7,0.6-1.2,0.6-1.6l1.7,0.3c-0.1,0.1-0.1,0.1-0.2,0.4c0,0.1,0,0.1-0.2,0.3
		c0,0.1,0,0.1-0.2,0.3c-0.1,0.2-0.1,0.2-0.2,0.4c0.2,0,0.4,0,0.6,0l2.7,0c0.5,0,0.6,0,0.9-0.1L218.1,52.4z"/>
	<path class="st3" d="M230.3,53.2c-0.1,0.2-0.2,0.2-0.3,0.6c-0.7,1.5-1.6,2.5-3,3.6c-0.5-0.5-0.7-0.7-1.2-1c0.9-0.5,1.5-1,2-1.7
		c0.2-0.2,0.2-0.4,0.5-0.7c-0.2,0-0.3,0-0.5,0.1c-1.2,0.1-2.5,0.3-3.8,0.5v2.8c0,0.9,0,0.9,0,1.1c0.1,0.5,0.5,0.6,1.7,0.6
		c1.4,0,2.8-0.2,3.8-0.5l0.1,1.7c-0.3,0-0.4,0-0.8,0c-1.3,0.1-2.2,0.2-3.1,0.2c-1,0-1.7-0.1-2.2-0.2c-0.5-0.1-0.9-0.6-1.1-1.1
		c-0.1-0.4-0.1-0.6-0.1-1.6v-2.8l-1.2,0.1c-1,0.1-1,0.1-1.4,0.2l-0.2-1.5c0.1,0,0.2,0,0.3,0c0.2,0,0.8,0,1.1-0.1l1.3-0.2v-1.7
		c0-0.6,0-0.8-0.1-1.2h1.7c-0.1,0.4-0.1,0.6-0.1,1.1v1.6l4.5-0.5c0.7-0.1,0.7-0.1,1-0.2L230.3,53.2z"/>
	<path class="st3" d="M240.9,60.7c-1-1.3-2.4-2.6-3.8-3.7c-1.4,1.6-2.8,2.6-4.7,3.6c-0.3-0.6-0.5-0.8-1-1.4c1-0.4,1.5-0.7,2.5-1.4
		c1.9-1.3,3.3-3.1,4.1-5l0.1-0.3c-0.2,0-0.2,0-4.1,0.1c-0.6,0-0.9,0-1.3,0.1l0-1.6c0.3,0.1,0.6,0.1,1.1,0.1c0,0,0.1,0,0.3,0l4.3-0.1
		c0.7,0,0.8,0,1.1-0.1l0.8,0.8c-0.2,0.2-0.3,0.4-0.4,0.7c-0.6,1.3-1.2,2.4-1.9,3.4c0.8,0.5,1.4,1,2.3,1.8c0.3,0.3,0.3,0.3,1.8,1.7
		L240.9,60.7z"/>
	<path class="st3" d="M248.4,51.2c-0.1,0.2-0.1,0.2-0.4,0.7c-0.1,0.2-0.3,0.6-0.5,0.9c0.6,0,0.8,0,1.2,0c0,0.2,0,0.3,0,0.6
		c0.6-0.3,0.9-0.5,1.2-0.8c0.3-0.3,0.4-0.6,0.5-1.1H250c-0.5,0-0.8,0-1.1,0.1v-1.3c0.4,0.1,0.7,0.1,1.3,0.1h3c0.5,0,0.8,0,1.1,0
		c0,0.3-0.1,0.6-0.1,1.3c-0.1,1-0.2,1.8-0.5,2.1c-0.2,0.3-0.5,0.4-1.3,0.4c-0.2,0-0.2,0-0.9,0c0-0.6-0.1-0.8-0.3-1.2
		c0.4,0.1,0.7,0.1,1,0.1c0.3,0,0.4-0.1,0.5-0.2c0.1-0.2,0.1-0.7,0.2-1.2h-1.3c-0.2,0.9-0.3,1.2-0.7,1.7c-0.4,0.5-0.8,0.9-1.4,1.2
		l1.1,0.2c-0.1,0.5-0.1,0.5-0.1,0.7h0.7v-0.1c0-0.4,0-0.6-0.1-0.9h1.4c0,0.3,0,0.6,0,0.9v0.1h0.8c0.6,0,0.9,0,1.1-0.1v1.3
		c-0.3,0-0.6,0-1.1,0h-0.8v1.1h1c0.5,0,0.8,0,1.2-0.1v1.3c-0.3,0-0.6,0-1.2,0h-1v1.2c0,0.5,0,0.8,0.1,1.2h-1.4
		c0-0.4,0.1-0.7,0.1-1.2v-1.2H250c-0.5,0-0.8,0-1.1,0.1v-1.3c0.4,0,0.6,0.1,1.1,0.1h1.2v-1.1h-1c-0.1,0.3-0.2,0.5-0.4,1
		c-0.5-0.3-0.8-0.5-1.1-0.6c0.4-0.6,0.5-1,0.7-1.6c0.1-0.3,0.1-0.7,0.1-0.8c0,0,0,0,0,0l-0.1,0.1c-0.2-0.3-0.4-0.6-0.8-1
		c0,0.2,0,0.2,0,0.3V60c0,0.9-0.3,1.1-1.6,1.1c-0.1,0-0.3,0-0.8,0c0-0.5-0.1-0.8-0.3-1.2c0.5,0.1,0.8,0.1,1,0.1
		c0.4,0,0.5-0.1,0.5-0.3v-1.5H245c-0.1,1.5-0.3,2-0.7,3c-0.5-0.5-0.6-0.7-1-1c0.6-1.1,0.7-2.2,0.7-5.8c0-0.3,0-0.5,0-0.7
		c-0.2-0.3-0.4-0.5-0.8-0.8c0.6-0.5,1-1.1,1.4-1.9c0.3-0.5,0.4-0.9,0.5-1.3l1.3,0.2c-0.1,0.1-0.1,0.1-0.3,0.7h1.1c0.4,0,0.5,0,0.6,0
		L248.4,51.2z M246.2,52.8c0.2-0.4,0.4-0.7,0.6-1.1h-1.2c-0.2,0.4-0.4,0.7-0.6,1.1c0.1,0,0.1,0,0.3,0H246.2z M245.8,57.1V56h-0.7
		c0,0.2,0,0.4,0,0.5c0,0.4,0,0.4,0,0.6H245.8z M245.1,53.9v1h0.7v-1H245.1z M247.5,53.9h-0.7v1h0.7V53.9z M247.5,56h-0.7v1.1h0.7V56
		z"/>
	<path class="st3" d="M259.3,53.4c0.3,0.7,0.8,1.4,1.5,2.1c-0.3,0.3-0.5,0.6-0.7,1.1c-0.5-0.7-0.7-1.1-0.9-1.6c0,0.3,0,1.1,0,1.8V60
		c0,0.6,0,1,0.1,1.3h-1.4c0.1-0.4,0.1-0.8,0.1-1.3v-2.5c0-0.8,0-0.8,0-1.7c-0.4,1.1-0.8,1.8-1.4,2.7c-0.3-0.5-0.5-0.8-0.8-1.1
		c0.6-0.7,0.9-1.3,1.4-2.2c0.2-0.5,0.6-1.4,0.7-1.8H257c-0.4,0-0.6,0-0.8,0.1v-1.4c0.2,0,0.5,0.1,0.9,0.1h0.8v-1.1
		c0-0.5,0-0.8-0.1-1.1h1.4c-0.1,0.3-0.1,0.6-0.1,1.1v1.1h0.7c0.3,0,0.5,0,0.8-0.1v1.4c-0.3,0-0.5-0.1-0.8-0.1H259.3z M265.9,53.7
		c0.6,0,1,0,1.5-0.1v1.4c-0.4,0-0.9-0.1-1.5-0.1h-0.3v4.8c0,0.6,0,1.1,0.1,1.5h-1.5c0-0.4,0.1-1,0.1-1.5V55h-1.8
		c-0.1,3.1-0.6,4.7-1.8,6.3c-0.4-0.4-0.6-0.6-1.1-1c1.2-1.4,1.6-3,1.6-7.3c0-1.2,0-1.6-0.1-2c0.1,0,0.2,0,0.3,0
		c1.4,0,3.7-0.5,4.8-1.1l1,1.3c-0.2,0.1-0.2,0.1-1.2,0.3c-1,0.3-2,0.5-3.4,0.6v1.2c0,0.1,0,0.2,0,0.4H265.9z"/>
	<path class="st3" d="M213.5,65.4c0,0.3-0.1,0.6-0.1,1.2l-0.1,7c1.3-0.2,2.4-0.7,3.4-1.4c1.1-0.8,1.9-1.6,2.5-2.8
		c0.5,0.6,0.6,0.8,1.2,1.3c-0.9,1.3-1.6,2.1-2.8,2.9c-1.2,0.8-2.5,1.3-4.5,1.7c-0.3,0.1-0.5,0.1-0.7,0.2l-0.8-1
		c0.1-0.3,0.1-0.6,0.1-1.3l0-6.7c0-0.9,0-0.9-0.1-1.3L213.5,65.4z"/>
	<path class="st3" d="M224.6,69.9c0,0.1,0,0.1,0,0.2c0,0,0,0.1,0,0.2c-0.4,1.8-1.2,3.6-2.1,4.8c-0.6-0.4-0.8-0.6-1.4-0.8
		c0.9-1,1.9-3.2,2.1-4.8L224.6,69.9z M230.2,67.2c0.3,0,0.4,0,0.7,0c-0.6-0.2-1-0.7-1-1.4c0-0.8,0.6-1.4,1.4-1.4
		c0.8,0,1.4,0.6,1.4,1.4c0,0.6-0.4,1.1-0.9,1.3v1.5c-0.4,0-0.6-0.1-1.6-0.1h-2.9v6c0,0.7,0,1,0.1,1.4h-1.7c0-0.3,0.1-0.7,0.1-1.4v-6
		h-2.7c-1,0-1.1,0-1.6,0.1v-1.5c0.4,0.1,0.7,0.1,1.6,0.1h2.7v-0.7c0-0.7,0-1-0.1-1.3h1.7c0,0.3,0,0.5,0,1.3v0.7H230.2z M230.1,69.5
		c0.4,1.6,1.4,3.7,2.2,4.7c-0.6,0.3-0.9,0.5-1.4,0.9c-0.9-1.4-1.4-2.7-2-4.6c-0.1-0.3-0.1-0.4-0.2-0.6L230.1,69.5z M230.5,65.8
		c0,0.4,0.4,0.8,0.8,0.8c0.5,0,0.8-0.4,0.8-0.8c0-0.4-0.4-0.8-0.8-0.8C230.9,65,230.5,65.4,230.5,65.8z"/>
	<path class="st3" d="M233,69.5c0.5,0.1,0.7,0.1,1.9,0.1h6.2c1.2,0,1.4,0,1.9-0.1v1.7c-0.5-0.1-0.6-0.1-1.9-0.1h-6.2
		c-1.3,0-1.4,0-1.9,0.1V69.5z"/>
	<path class="st3" d="M245.9,75.6c0.1-0.4,0.1-0.7,0.1-1.4v-7.9c0-0.6,0-0.9-0.1-1.3h1.7c0,0.4,0,0.5,0,1.3v2.3
		c1.7,0.6,3.6,1.5,5.6,2.6l-0.9,1.5c-1-0.7-2.3-1.4-4.4-2.4c-0.3-0.1-0.3-0.1-0.4-0.2c0,0.3,0,0.5,0,0.8v3.3c0,0.6,0,1,0,1.4H245.9z
		"/>
</g>
<g>
	<path class="st3" d="M91.3,218.2c0,0.3,0,0.5,0,1.1v3.4c0,0.6,0,0.8,0,1.1h-1.7c0-0.3,0.1-0.7,0.1-1.1v-3.4c0-0.6,0-0.8,0-1.1
		L91.3,218.2z M96.9,218.2c0,0.3-0.1,0.4-0.1,1.1v1.7c0,1.9-0.1,3-0.3,3.7c-0.4,1.2-1.1,2.2-2.4,2.9c-0.7,0.4-1.3,0.6-2.4,1
		c-0.2-0.6-0.3-0.8-0.9-1.5c1.2-0.2,1.9-0.5,2.7-1c1.2-0.8,1.6-1.5,1.7-3.1c0-0.5,0.1-1.1,0.1-2.1v-1.5c0-0.6,0-0.9-0.1-1.2H96.9z"
		/>
	<path class="st3" d="M101.6,218.2c0,0.3,0,0.5,0,1.1v3.4c0,0.6,0,0.8,0,1.1H100c0-0.3,0.1-0.7,0.1-1.1v-3.4c0-0.6,0-0.8,0-1.1
		L101.6,218.2z M107.2,218.2c0,0.3-0.1,0.4-0.1,1.1v1.7c0,1.9-0.1,3-0.3,3.7c-0.4,1.2-1.1,2.2-2.4,2.9c-0.7,0.4-1.3,0.6-2.4,1
		c-0.2-0.6-0.3-0.8-0.9-1.5c1.2-0.2,1.9-0.5,2.7-1c1.2-0.8,1.6-1.5,1.7-3.1c0-0.5,0.1-1.1,0.1-2.1v-1.5c0-0.6,0-0.9-0.1-1.2H107.2z"
		/>
	<path class="st3" d="M109.7,222.3c0.5,0.1,0.7,0.1,1.9,0.1h6.2c1.2,0,1.4,0,1.9-0.1v1.7c-0.5-0.1-0.6-0.1-1.9-0.1h-6.2
		c-1.3,0-1.4,0-1.9,0.1V222.3z"/>
	<path class="st3" d="M130.2,228.3c-1-1.3-2.4-2.6-3.8-3.7c-1.4,1.6-2.8,2.6-4.7,3.6c-0.3-0.6-0.5-0.8-1-1.4
		c0.9-0.4,1.5-0.7,2.5-1.4c1.9-1.3,3.3-3.1,4.1-5l0.1-0.3c-0.2,0-0.2,0-4.1,0.1c-0.6,0-0.9,0-1.3,0.1l0-1.6c0.3,0.1,0.6,0.1,1.1,0.1
		c0,0,0.1,0,0.3,0l4.3-0.1c0.7,0,0.8,0,1.1-0.1l0.8,0.8c-0.2,0.2-0.3,0.4-0.4,0.7c-0.6,1.3-1.2,2.4-1.9,3.4c0.8,0.5,1.4,1,2.3,1.8
		c0.3,0.3,0.3,0.3,1.8,1.7L130.2,228.3z"/>
	<path class="st3" d="M133.3,223.8c-0.2,0.3-0.5,0.5-0.9,0.9c-0.2-0.7-0.3-0.9-0.6-1.3c0.8-0.6,1.5-1.2,2-2c0.4-0.5,0.6-0.9,0.7-1.2
		l1.1,0.7c-0.1,0.1-0.2,0.3-0.3,0.5c0,0-0.1,0.1-0.1,0.2c-0.2,0.3-0.5,0.7-0.6,0.9v5c0,0.7,0,1,0,1.5h-1.4c0-0.3,0.1-0.7,0.1-1.4
		v-2.3L133.3,223.8z M135.6,218.2c-0.5,0.6-0.5,0.6-0.8,1c-0.6,0.7-1.3,1.3-2.1,1.8c-0.2-0.5-0.4-0.7-0.7-1.1c1.2-0.7,2-1.5,2.5-2.4
		L135.6,218.2z M139.6,218c-0.1,0.1-0.1,0.1-0.3,0.4c-0.3,0.4-0.9,1.1-1.3,1.6c0.3,0.3,0.5,0.4,0.7,0.7c1-1.1,1.6-1.9,1.9-2.3
		l1.3,0.7c-0.1,0.1-0.2,0.2-0.4,0.5c-0.6,0.8-1.6,1.8-2.4,2.5c1,0,1,0,2.3-0.1c-0.2-0.3-0.3-0.4-0.7-0.9l1-0.6
		c0.7,0.9,1.2,1.6,1.9,2.7l-1.1,0.7c-0.3-0.5-0.4-0.7-0.5-1c-1.8,0.2-1.8,0.2-2.9,0.3c-0.1,0.3-0.2,0.4-0.4,0.7h1.9c0.4,0,0.8,0,1,0
		l0.8,0.7c-0.1,0.1-0.1,0.1-0.2,0.3c-0.5,0.7-1.1,1.3-1.8,1.9c1,0.4,2,0.7,3.3,0.9c-0.3,0.5-0.4,0.8-0.6,1.3
		c-1.5-0.3-2.8-0.8-3.9-1.4c-1.1,0.7-2.2,1.2-3.7,1.5c-0.2-0.6-0.3-0.8-0.6-1.2c1.3-0.2,2.3-0.5,3.3-1.1c-0.5-0.4-0.8-0.7-1-1
		c-0.5,0.4-0.8,0.6-1.5,1c-0.3-0.6-0.4-0.7-0.8-1.1c1.3-0.6,2.3-1.4,2.8-2.3c-1.9,0.1-1.9,0.1-2.2,0.2l-0.2-1.3c0.2,0,0.5,0,0.8,0
		c0.1,0,0.2,0,0.4,0c0.2,0,0.2,0,0.8,0l0.6-0.5c-0.7-0.7-1.1-1-2.3-1.8l0.9-1c0.3,0.2,0.4,0.3,0.6,0.5c0.6-0.6,1.1-1.4,1.3-1.8
		L139.6,218z M138,224.9c0.4,0.5,0.7,0.8,1.2,1.1c0.5-0.4,0.8-0.7,1.2-1.1H138z"/>
	<path class="st3" d="M149.7,225.1c-0.7,1.6-1.5,2.3-2.5,2.3c-1.4,0-2.4-1.4-2.4-3.4c0-1.4,0.5-2.6,1.4-3.6c1-1.1,2.5-1.7,4.2-1.7
		c3,0,4.9,1.8,4.9,4.6c0,2.1-1.1,3.8-3,4.6c-0.6,0.2-1.1,0.4-1.9,0.5c-0.2-0.7-0.4-0.9-0.8-1.4c1.1-0.1,1.9-0.3,2.5-0.7
		c1.1-0.6,1.7-1.8,1.7-3.1c0-1.2-0.5-2.1-1.5-2.7c-0.4-0.2-0.7-0.3-1.2-0.4C150.8,222,150.4,223.7,149.7,225.1z M147.9,220.6
		c-1,0.7-1.7,2-1.7,3.3c0,1,0.4,1.8,1,1.8c0.4,0,0.8-0.5,1.3-1.6c0.5-1.1,0.9-2.8,1-4.2C148.9,220.1,148.4,220.3,147.9,220.6z"/>
	<path class="st3" d="M100.1,235.1l0-0.6v-0.4c0-0.8,0-1.1-0.1-1.4h1.6c0,0.3,0,0.3,0,0.8c0,0.8,0,0.8,0,1.5h0.8
		c0.9,0,1.1,0,1.6-0.1v1.5c-0.4,0-0.8-0.1-1.6-0.1h-0.8c0,1.5,0,1.6-0.1,2c-0.2,1.6-0.7,2.6-1.8,3.5c-0.7,0.6-1.3,0.9-2.4,1.3
		c-0.2-0.5-0.4-0.8-0.9-1.3c1.2-0.4,1.8-0.7,2.4-1.2c0.8-0.7,1.2-1.5,1.3-3c0-0.3,0-0.6,0-1.4h-3.2v1.9c0,0.5,0,0.7,0,1h-1.6
		c0-0.3,0-0.6,0-1.1v-1.8h-0.8c-0.8,0-1.1,0-1.6,0.1v-1.5c0.5,0.1,0.7,0.1,1.6,0.1h0.7v-1.2c0-0.5,0-0.8-0.1-1.1H97
		c0,0.4,0,0.4,0,1.1v1.3H100.1z"/>
	<path class="st3" d="M114.8,233.7c-0.2,0.2-0.3,0.2-0.5,0.4c-0.9,1-1.9,1.8-2.9,2.5v5.3c0,0.7,0,1,0.1,1.4h-1.7
		c0.1-0.4,0.1-0.6,0.1-1.3v-4.3c-1.4,0.9-2.1,1.2-4.4,2c-0.3-0.6-0.4-0.9-0.8-1.4c2.4-0.7,4.5-1.7,6.5-3.2c1.1-0.9,1.9-1.7,2.3-2.3
		L114.8,233.7z"/>
	<path class="st3" d="M117.7,243.3c0.1-0.4,0.1-0.7,0.1-1.4V234c0-0.6,0-0.9-0.1-1.3h1.7c0,0.4,0,0.5,0,1.3v2.3
		c1.7,0.6,3.6,1.5,5.6,2.6l-0.9,1.5c-1-0.7-2.3-1.4-4.4-2.4c-0.3-0.1-0.3-0.1-0.4-0.2c0,0.3,0,0.5,0,0.8v3.3c0,0.6,0,1,0,1.4H117.7z
		"/>
	<path class="st3" d="M126.5,237.1c0.3,0,0.5,0.1,1,0.1h0.9c0.4,0,0.6,0,0.9-0.1c0,0.4,0,0.7,0,1.3v2.8c0.3,0.5,0.6,0.8,1.3,1
		c0.5,0.1,1.2,0.2,2.9,0.2c2,0,3.5-0.1,4.7-0.2c-0.2,0.5-0.3,0.8-0.4,1.3c-1.7,0.1-2.7,0.1-4.1,0.1c-0.7,0-1.8,0-2.3-0.1
		c-1.2-0.1-1.9-0.4-2.6-1.3c-0.6,0.6-0.9,0.8-1.4,1.2c-0.1,0.1-0.2,0.2-0.4,0.3l-0.6-1.4c0.5-0.2,1-0.6,1.8-1.2v-2.7h-0.7
		c-0.3,0-0.5,0-0.8,0.1V237.1z M127.6,232.5c1,1,1.2,1.2,1.9,2.2l-1,1.1c-0.7-1-1.1-1.6-1.9-2.3L127.6,232.5z M131.3,235.5
		c-0.4,0-0.6,0-0.9,0v-0.4h-0.8c0-0.3,0-0.5,0-0.8v-0.8c0-0.3,0-0.6,0-0.8c0.4,0,0.7,0,1.2,0h5.8c0.5,0,0.8,0,1.2,0
		c0,0.2,0,0.5,0,0.8v0.7c0,0.3,0,0.6,0.1,0.8h-0.9v0.4c-0.3,0-0.5,0-0.9,0h-1.8v0.5h1.9c0.5,0,0.7,0,1,0c0,0.3,0,0.5,0,0.9v1.9
		c0,0.4,0,0.6,0,0.9c-0.4,0-0.6,0-1,0h-1.9v0.6h2.5c0.5,0,0.7,0,1-0.1v1.2c-0.3,0-0.5,0-1,0h-2.4c0,0.4,0,0.6,0.1,0.9h-1.4
		c0-0.3,0.1-0.5,0.1-0.9h-2.3c-0.4,0-0.7,0-1,0.1v-1.2c0.3,0,0.6,0.1,1,0.1h2.3v-0.6h-1.8c-0.5,0-0.6,0-1,0c0-0.3,0-0.4,0-0.9v-1.9
		c0-0.5,0-0.6,0-0.9c0.3,0,0.5,0,1,0h1.8v-0.5H131.3z M132.9,233.8h-2.1v0.6c0.1,0,0.2,0,0.4,0h1.7V233.8z M131.4,236.9v0.5h1.5
		v-0.5H131.4z M131.4,238.2v0.5h1.5v-0.5H131.4z M136,234.5c0.1,0,0.1,0,0.3,0v-0.6h-2.2v0.6H136z M134.2,237.4h1.6v-0.5h-1.6V237.4
		z M134.2,238.7h1.6v-0.5h-1.6V238.7z"/>
	<path class="st3" d="M141.4,239.9c-0.2,1.6-0.5,2.8-1.3,3.9c-0.5-0.5-0.7-0.6-1.2-1c0.4-0.6,0.7-1.3,0.9-2.1
		c0.1-0.6,0.2-1.2,0.2-1.9c0.1-1,0.1-2.8,0.1-4.2c0-0.9,0-1.3-0.1-1.8c0.4,0,0.8,0,1.4,0h6.9c0.7,0,1,0,1.4,0c0,0.4,0,0.7,0,1.4v8.1
		c0,1-0.4,1.3-1.8,1.3c-0.4,0-1,0-1.4,0c-0.1-0.5-0.1-0.8-0.3-1.3c0.6,0.1,1.2,0.1,1.6,0.1c0.5,0,0.6,0,0.6-0.3v-2.2h-3v2
		c0,0.7,0,1.1,0.1,1.5h-1.5c0-0.4,0.1-0.7,0.1-1.5v-2H141.4z M144.3,237h-2.7c0,0.4,0,0.6,0,0.8c0,0.6,0,0.7,0,0.9h2.8V237z
		 M144.3,234.1h-2.7v1.3l0,0.3h2.7V234.1z M148.5,235.8v-1.6h-3v1.6H148.5z M148.5,238.7V237h-3v1.7H148.5z"/>
</g>
<g>
	<path class="st3" d="M42.2,141.6c-0.1,3-1.3,4.7-4.1,5.8c-0.3-0.6-0.5-0.9-1-1.4c2.4-0.8,3.4-2,3.5-4.4h-3c-1,0-1.1,0-1.6,0.1v-1.5
		c0.4,0.1,0.7,0.1,1.6,0.1h7.2c0.9,0,1.2,0,1.6-0.1v1.5c-0.4,0-0.6-0.1-1.6-0.1H42.2z M44.1,138.5c-0.4,0-0.6-0.1-1.6-0.1h-3.7
		c-1,0-1.2,0-1.6,0.1V137c0.4,0.1,0.7,0.1,1.6,0.1h3.6c0.9,0,1.2,0,1.6-0.1V138.5z M44.8,136.2c0.5,0.6,0.8,1.1,1.1,1.9l-0.9,0.3
		c-0.3-0.8-0.6-1.3-1.1-2L44.8,136.2z M46.6,138c-0.3-0.7-0.6-1.3-1.1-1.9l0.9-0.3c0.5,0.7,0.8,1.1,1.1,1.9L46.6,138z"/>
	<path class="st3" d="M51.5,137.6c0,0.1,0,0.1-0.1,0.2l0,0.2l-0.1,0.4l0,0.3c-0.5,3.5-1.5,6-3.1,7.9c-0.6-0.6-0.8-0.7-1.4-1.1
		c0.7-0.7,1.2-1.5,1.8-2.6c0.5-1.1,1-2.7,1.2-4.2c0.1-0.5,0.1-0.9,0.1-1.2c0,0,0-0.1,0-0.2L51.5,137.6z M55,137.3
		c0,0.6,0.2,1.8,0.5,2.8c0.6,2.3,1.5,3.9,2.8,5.3c-0.6,0.4-0.9,0.6-1.4,1.1c-1.6-2-2.8-4.8-3.3-8.1c-0.1-0.5-0.1-0.7-0.2-0.9
		L55,137.3z M56,136.6c0.5,0.6,0.7,1.2,1,2l-0.9,0.3c-0.3-0.8-0.5-1.3-1-2L56,136.6z M57.7,138.4c-0.3-0.8-0.6-1.4-1-1.9l0.9-0.3
		c0.5,0.7,0.7,1.2,1,1.9L57.7,138.4z"/>
	<path class="st3" d="M60.3,139.5c0.5,1,0.8,1.5,1.2,2.9l-1.4,0.4c-0.3-1.2-0.6-1.9-1.1-3L60.3,139.5z M67.4,139.5
		c-0.1,0.2-0.1,0.2-0.2,0.6c-0.4,1.7-0.9,3-1.7,4.1c-0.9,1.2-1.9,2-3.8,3c-0.3-0.5-0.5-0.7-1-1.2c0.9-0.3,1.4-0.6,2.1-1.1
		c1.4-1,2.3-2.3,2.8-4.3c0.2-0.6,0.2-1,0.2-1.4L67.4,139.5z M62.9,139c0.7,1.2,0.9,1.8,1.2,2.8l-1.4,0.4c-0.2-0.9-0.6-1.9-1.1-2.9
		L62.9,139z"/>
	<path class="st3" d="M78.8,138.9c-0.1,0.2-0.2,0.3-0.3,0.7c-0.7,2.2-1.3,3.3-2.5,4.7c-1.1,1.3-2.6,2.3-4.4,3.1
		c-0.3-0.6-0.5-0.9-1-1.3c3.2-1.2,5.3-3.4,6.3-6.7l-3.7,0c-0.7,1.1-1.9,2.4-2.9,3.2c-0.4-0.5-0.6-0.7-1.2-1.1c1.3-0.9,2.3-2,3.2-3.6
		c0.4-0.7,0.6-1.2,0.6-1.6l1.7,0.3c-0.1,0.1-0.1,0.1-0.2,0.4c-0.1,0.2-0.2,0.5-0.3,0.7C74,138,74,138,74,138l-0.1,0.2
		c0.1,0,0.3,0,0.6,0l2.7,0c0.3,0,0.5,0,0.6,0c-0.3-0.6-0.5-1-0.9-1.5l0.9-0.3c0.5,0.6,0.8,1.1,1.1,1.9l-0.5,0.2L78.8,138.9z
		 M79.6,138c-0.3-0.7-0.7-1.4-1.1-1.9l0.9-0.3c0.5,0.7,0.8,1.1,1.1,1.9L79.6,138z"/>
</g>
<g>
	<path class="st3" d="M253.2,138.2c0,0.1,0,0.1-0.1,0.2l0,0.2l-0.1,0.4l0,0.3c-0.5,3.5-1.5,6-3.1,7.9c-0.6-0.6-0.8-0.7-1.4-1.1
		c0.7-0.7,1.2-1.5,1.8-2.6c0.5-1.1,1-2.7,1.2-4.2c0.1-0.5,0.1-0.9,0.1-1.2c0,0,0-0.1,0-0.2L253.2,138.2z M256.7,137.9
		c0,0.6,0.2,1.8,0.5,2.8c0.6,2.3,1.5,3.9,2.8,5.3c-0.6,0.4-0.9,0.6-1.4,1.1c-1.6-2-2.8-4.8-3.3-8.1c-0.1-0.5-0.1-0.7-0.2-0.9
		L256.7,137.9z M257.8,137.2c0.5,0.6,0.7,1.2,1,2l-0.9,0.3c-0.3-0.8-0.5-1.3-1-2L257.8,137.2z M259.5,138.9c-0.3-0.8-0.6-1.4-1-1.9
		l0.9-0.3c0.5,0.7,0.7,1.2,1,1.9L259.5,138.9z"/>
	<path class="st3" d="M269.8,140.1c0.9,0,1.1,0,1.6-0.1v1.6c-0.4,0-0.8-0.1-1.6-0.1h-2.5c-0.1,1.7-0.3,2.5-0.9,3.5
		c-0.7,1.1-1.5,1.9-3.1,2.8c-0.4-0.7-0.6-0.9-1.1-1.3c1.5-0.6,2.4-1.4,3-2.4c0.4-0.7,0.5-1.2,0.6-2.5h-3.1c-0.8,0-1.1,0-1.6,0.1V140
		c0.5,0.1,0.8,0.1,1.6,0.1h3.1c0-0.5,0-0.7,0-1v-0.7c0-0.5,0-0.9-0.1-1.2h1.7c0,0.4,0,0.4-0.1,1.2l0,0.7c0,0.8,0,0.8,0,1H269.8z"/>
	<path class="st3" d="M272.9,141.5c0.5,0.1,0.7,0.1,1.9,0.1h6.2c1.2,0,1.4,0,1.9-0.1v1.7c-0.5-0.1-0.6-0.1-1.9-0.1h-6.2
		c-1.3,0-1.4,0-1.9,0.1V141.5z"/>
	<path class="st3" d="M285.9,139.5c-0.1,0.4-0.2,0.5-0.4,1c-0.5-0.3-0.7-0.4-1.2-0.6c0.5-0.8,0.9-1.7,1-2.4c0.1-0.3,0.1-0.4,0.1-0.5
		l1.3,0.2c0,0.1-0.1,0.3-0.1,0.5c0,0.1-0.1,0.4-0.2,0.7h1V138c0-0.6,0-0.9-0.1-1.2h1.4c-0.1,0.3-0.1,0.6-0.1,1.2v0.4h1
		c0.6,0,0.9,0,1.2-0.1v1.3c-0.3,0-0.7,0-1.2,0h-1v1h1.4c0.5,0,0.8,0,1.1,0v1.3c-0.3,0-0.6-0.1-1.2-0.1h-1.4v1h1.2c0.5,0,0.8,0,1.1,0
		c0,0.3,0,0.5,0,1.1v2.5c0,0.8-0.3,1-1.4,1c-0.1,0-0.2,0-0.6,0c0-0.5-0.1-0.8-0.2-1.2c0.2,0,0.5,0,0.7,0c0.2,0,0.3,0,0.3-0.2v-2
		h-1.1v2.9c0,0.7,0,1,0.1,1.3h-1.4c0.1-0.4,0.1-0.7,0.1-1.3v-2.9H286v2.2c0,0.5,0,0.9,0,1.2h-1.3c0-0.3,0.1-0.5,0.1-1.2v-2.3
		c0-0.5,0-0.8,0-1.2c0.4,0,0.7,0.1,1.2,0.1h1.3v-1h-1.6c-0.6,0-0.9,0-1.3,0.1v-1.3c0.3,0,0.6,0.1,1.1,0.1h1.7v-1H285.9z
		 M292.9,137.7c0,0.3-0.1,0.7-0.1,1.3v5c0,0.7,0,1,0.1,1.3h-1.4c0-0.3,0.1-0.5,0.1-1.3V139c0-0.6,0-1-0.1-1.3H292.9z M295.3,136.8
		c-0.1,0.4-0.1,0.7-0.1,1.5v8.2c0,0.7-0.1,1-0.4,1.2c-0.3,0.2-0.7,0.3-1.5,0.3c-0.1,0-0.4,0-1.2,0c-0.1-0.6-0.1-0.8-0.4-1.3
		c0.6,0.1,1.1,0.1,1.6,0.1s0.6-0.1,0.6-0.4v-8.1c0-0.7,0-1.1-0.1-1.5H295.3z"/>
	<path class="st3" d="M300.7,137.1c-0.1,0.3-0.2,0.4-0.3,0.7c-0.2,0.5-0.2,0.5-0.8,2v6.8c0,0.6,0,1.1,0.1,1.5h-1.5
		c0.1-0.5,0.1-0.9,0.1-1.5v-3.5c0-0.3,0-0.4,0-1.4c-0.4,0.6-0.7,1-1.2,1.4c-0.2-0.6-0.3-0.9-0.7-1.4c0.9-0.8,1.7-2,2.3-3.4
		c0.3-0.6,0.4-1.1,0.5-1.6L300.7,137.1z M302.7,139.7c-0.5,1.1-1.2,2.1-2,3c-0.3-0.5-0.5-0.7-0.9-1.2c0.9-1,1.5-1.9,2.1-3.1
		c0.3-0.7,0.5-1.4,0.6-1.8l1.4,0.4c-0.1,0.3-0.2,0.4-0.2,0.7c-0.2,0.5-0.2,0.6-0.3,0.8h3.4c0.6,0,1,0,1.3-0.1v1.3
		c-0.4,0-0.8-0.1-1.3-0.1h-2.3v1.6h2c0.5,0,0.9,0,1.2-0.1v1.3c-0.4,0-0.8-0.1-1.2-0.1h-2v1.6h2c0.5,0,0.9,0,1.2-0.1v1.3
		c-0.4,0-0.8-0.1-1.2-0.1h-2v1.4c0,0.7,0,1.1,0.1,1.5h-1.5c0.1-0.4,0.1-0.7,0.1-1.5v-7H302.7z"/>
</g>
<g>
	<path class="st3" d="M186.9,224.6c-0.2,0.9-0.5,1.4-0.8,1.9c-0.7,0.9-1.9,1.3-3.4,1.3c-1.3,0-2.4-0.4-3.2-1.2
		c-0.9-0.9-1.3-2.3-1.3-3.9c0-1.6,0.5-3.1,1.4-4c0.7-0.8,1.9-1.2,3.1-1.2c1,0,1.7,0.2,2.4,0.6c0.6,0.3,1,0.8,1.3,1.3
		c0.1,0.3,0.2,0.5,0.4,1l-1.7,0.4c-0.2-0.5-0.3-0.8-0.5-1.1c-0.4-0.5-1-0.8-1.8-0.8c-1.8,0-2.8,1.4-2.8,3.6c0,2.3,1.1,3.7,2.8,3.7
		c0.9,0,1.6-0.3,2-0.9c0.2-0.3,0.3-0.6,0.4-1.1L186.9,224.6z"/>
	<path class="st3" d="M192.7,227.6c-0.1-0.4-0.3-1-0.5-1.7l-1.8-4.2c-0.2-0.6-0.3-0.9-0.6-1.9c0,0.7,0.1,1.7,0.1,1.9v4
		c0,0.9,0,1.3,0.1,1.8h-1.7c0.1-0.5,0.1-1,0.1-1.8v-6.2c0-0.8,0-1.3-0.1-1.8h2.3c0.1,0.4,0.2,0.9,0.5,1.5l2.5,6.1l2.5-6.1
		c0.2-0.6,0.4-1,0.4-1.5h2.3c-0.1,0.6-0.1,1-0.1,1.8v6.2c0,0.9,0,1.3,0.1,1.8h-1.7c0.1-0.5,0.1-0.9,0.1-1.8v-4.1
		c0-1.1,0.1-1.7,0.1-1.9c-0.2,0.7-0.4,1.4-0.6,1.8l-1.9,4.3c-0.2,0.6-0.5,1.3-0.5,1.6H192.7z"/>
	<path class="st3" d="M201.8,224.5c0,0.6,0.1,0.8,0.3,1.1c0.4,0.5,1,0.7,1.8,0.7c1.2,0,2-0.6,2-1.5c0-0.5-0.2-0.9-0.6-1.1
		c-0.4-0.2-0.4-0.2-2.1-0.6c-0.9-0.2-1.4-0.4-1.9-0.8c-0.6-0.5-1-1.2-1-2c0-1.7,1.4-2.8,3.5-2.8c1.4,0,2.5,0.4,3.1,1.2
		c0.3,0.4,0.5,0.8,0.6,1.4l-1.8,0.2c-0.1-0.4-0.2-0.6-0.4-0.9c-0.3-0.4-0.9-0.6-1.5-0.6c-1.1,0-1.8,0.5-1.8,1.3
		c0,0.5,0.3,0.9,0.8,1.1c0.3,0.1,0.4,0.1,1.7,0.4c1,0.2,1.6,0.4,2,0.8c0.7,0.5,1,1.2,1,2.1c0,0.9-0.3,1.6-0.8,2.1
		c-0.7,0.6-1.6,0.9-2.9,0.9c-1,0-2-0.2-2.6-0.6c-0.5-0.3-0.9-0.8-1.1-1.4c-0.1-0.3-0.2-0.5-0.2-1L201.8,224.5z"/>
	<path class="st3" d="M213.1,223.5c0-0.4,0-0.6,0-0.9c-0.3,0.3-0.4,0.4-0.6,0.9c-0.3-0.4-0.5-0.7-0.7-1.3c0,0.4,0.1,1,0.1,1.8v3
		c0,0.6,0,1.1,0.1,1.5h-1.4c0.1-0.4,0.1-0.9,0.1-1.5v-2.4c0-0.5,0-1.1,0.1-1.7c-0.4,1.3-0.6,1.7-1.1,2.5c-0.2-0.4-0.4-0.6-0.8-1
		c0.7-1.1,1.3-2.4,1.6-3.8H210c-0.4,0-0.6,0-0.8,0v-1.3c0.2,0,0.4,0,0.8,0h0.6v-1c0-0.6,0-1-0.1-1.3h1.4c0,0.3-0.1,0.7-0.1,1.3v1
		h0.3c0.3,0,0.5,0,0.7,0v1.3c-0.2,0-0.4,0-0.7,0h-0.2c0.2,0.4,0.4,0.9,0.7,1.3v-1c0.3,0,0.6,0.1,1.1,0.1h0.7v-0.5h-0.3
		c-0.4,0-0.7,0-1,0v-1c0.3,0,0.6,0,1,0h0.3v-0.5h-0.5c-0.4,0-0.7,0-1,0v-1c0.3,0,0.6,0.1,1,0.1h0.5c0-0.5,0-0.6-0.1-0.9h1.3
		c-0.1,0.2-0.1,0.4-0.1,0.9h1.6c0-0.5,0-0.7-0.1-0.9h1.4c-0.1,0.3-0.1,0.5-0.1,0.9h0.8c0.4,0,0.7,0,1-0.1v1.1c-0.3,0-0.5-0.1-1-0.1
		h-0.8v0.5h0.5c0.3,0,0.7,0,0.9,0v1c-0.3,0-0.5,0-0.9,0h-0.5v0.5h0.9c0.5,0,0.8,0,1.1-0.1v1.2c-0.4,0-0.6-0.1-1.1-0.1h-2.3v0.5h1.6
		c0.5,0,0.9,0,1.1,0c0,0.3,0,0.6,0,1.2v1.8c0.4,0,0.6,0,0.8-0.1v1.2c-0.3,0-0.5,0-0.8,0v0.7c0,1-0.3,1.2-1.6,1.2c-0.2,0-0.6,0-1,0
		c0-0.5-0.1-0.7-0.2-1.1c0.5,0.1,0.8,0.1,1.1,0.1c0.4,0,0.5,0,0.5-0.3v-0.6h-4.1v0.5c0,0.8,0,1.1,0,1.5H213c0-0.5,0.1-0.8,0.1-1.5
		v-0.5c-0.3,0-0.5,0-0.7,0v-1.1c0.2,0,0.4,0,0.7,0V223.5z M214.2,222.4h1.5v-0.5h-2c-0.4,0-0.8,0-1.1,0c0.1,0.2,0.2,0.2,0.4,0.4
		C213.4,222.4,213.7,222.4,214.2,222.4z M215.7,224v-0.6h-1.4v0.6H215.7z M215.7,225.4v-0.6h-1.4v0.6H215.7z M217.2,219.5v-0.5h-1.6
		v0.5H217.2z M217.2,220.9v-0.5h-1.6v0.5H217.2z M218.4,224v-0.6h-1.5v0.6H218.4z M218.4,225.4v-0.6h-1.5v0.6H218.4z"/>
	<path class="st3" d="M230.2,220.1c0.4,0,0.7,0,1,0c0,0.3,0,0.6,0,1.1v1.3c0,0.2,0,0.2,0.3,0.2c0.2,0,0.3,0,0.3-0.1
		c0-0.1,0.1-0.6,0.1-1l0-0.1c0-0.1,0-0.1,0-0.2c0.4,0.2,0.7,0.3,1.1,0.5c0,1.9-0.2,2.1-1.5,2.1c-0.6,0-0.9,0-1.1-0.1
		c-0.3-0.1-0.3-0.3-0.3-0.7v-1.7H228c0,0.3,0,0.5,0,0.7l0.7-0.5c0.5,0.6,0.7,0.9,1.1,1.4l-0.9,0.7c-0.3-0.7-0.6-1-1-1.4
		c-0.1,0.7-0.4,1.1-0.8,1.6h0.7c0,0.2,0,0.4,0,0.8h3.5c0.6,0,1.1,0,1.5-0.1v1.3c-0.4,0-0.9-0.1-1.5-0.1h-2.4
		c1.2,0.8,2.5,1.3,4.2,1.6c-0.4,0.5-0.5,0.7-0.7,1.3c-2-0.6-3.4-1.3-4.6-2.4c0,0.2,0,0.4,0,0.8v0.6c0,0.6,0,0.8,0.1,1.1h-1.5
		c0.1-0.3,0.1-0.6,0.1-1.1v-0.6c0-0.2,0-0.3,0-0.8c-0.6,0.6-1.2,1-2,1.4c-0.8,0.4-1.3,0.6-2.4,0.9c-0.2-0.6-0.4-0.8-0.8-1.3
		c1.7-0.3,2.8-0.8,4.1-1.6h-2.3c-0.6,0-1,0-1.5,0.1v-1.3c0.3,0,0.9,0.1,1.5,0.1h3.3c0-0.1,0-0.2,0-0.3c-0.2-0.3-0.5-0.6-0.9-0.8
		c0.3-0.2,0.5-0.3,0.7-0.4c-0.7,0.3-1.1,0.4-2.1,0.6c-0.6,0.1-0.9,0.2-1.5,0.3c-0.4,0.1-0.4,0.1-0.7,0.1l-0.3-1.2
		c0.6,0,1-0.1,1.9-0.2v-1.1h-0.5c-0.5,0-0.7,0-1,0v-1.2c0.2,0,0.2,0,0.3,0c-0.2-0.3-0.3-0.3-0.9-0.7c1-0.8,1.6-1.5,1.9-2.5l1.3,0.2
		c0,0-0.1,0.3-0.4,0.7h1.6c0.6,0,0.9,0,1.2-0.1v1c0.5-0.6,0.9-1.3,1-1.9l1.3,0.2c0,0.1-0.2,0.3-0.3,0.7h2.4c0.7,0,0.9,0,1.3-0.1v1.3
		c-0.4,0-0.7-0.1-1.3-0.1h-0.9c0.1,0.2,0.2,0.2,0.4,0.7l-1,0.4H230.2z M226.2,222.8c0.5-0.5,0.7-1,0.7-2c0-0.3,0-0.5,0-0.7
		c0.2,0,0.3,0,0.6,0c-0.2-0.2-0.6-0.5-0.9-0.8c0.2-0.1,0.2-0.2,0.3-0.3c-0.2,0-0.5,0-0.7,0h-0.7c0.2,0.3,0.2,0.4,0.5,0.8l-1.2,0.3
		c-0.2-0.4-0.2-0.6-0.5-1.1h-0.6c-0.4,0.5-0.6,0.8-1,1.2c0.2,0,0.3,0,0.5,0h2.2c0.6,0,0.7,0,1,0v1.2c-0.3,0-0.5,0-0.9,0h-0.6v0.9
		c0.5-0.1,0.7-0.2,1.4-0.4L226.2,222.8z M227.8,220.1h2c-0.1-0.3-0.3-0.6-0.5-1.1h-0.8c-0.3,0.4-0.5,0.7-0.9,1.1H227.8z"/>
	<path class="st3" d="M190,234.7l0-0.6v-0.4c0-0.8,0-1.1-0.1-1.4h1.6c0,0.3,0,0.3,0,0.8c0,0.8,0,0.8,0,1.5h0.8c0.9,0,1.1,0,1.6-0.1
		v1.5c-0.4,0-0.8-0.1-1.6-0.1h-0.8c0,1.5,0,1.6-0.1,2c-0.2,1.6-0.7,2.6-1.8,3.5c-0.7,0.6-1.3,0.9-2.4,1.3c-0.2-0.5-0.4-0.8-0.9-1.3
		c1.2-0.4,1.8-0.7,2.4-1.2c0.8-0.7,1.2-1.5,1.3-3c0-0.3,0-0.6,0-1.4h-3.2v1.9c0,0.5,0,0.7,0,1h-1.6c0-0.3,0-0.6,0-1.1V236h-0.8
		c-0.8,0-1.1,0-1.6,0.1v-1.5c0.5,0.1,0.7,0.1,1.6,0.1h0.7v-1.2c0-0.5,0-0.8-0.1-1.1h1.6c0,0.4,0,0.4,0,1.1v1.3H190z"/>
	<path class="st3" d="M198.4,237c0,0.1,0,0.1,0,0.2c0,0,0,0.1,0,0.2c-0.4,1.8-1.2,3.6-2.1,4.8c-0.6-0.4-0.8-0.6-1.4-0.8
		c1-1,1.9-3.2,2.1-4.8L198.4,237z M204,234.4c0.3,0,0.4,0,0.7,0c-0.6-0.2-1-0.7-1-1.4c0-0.8,0.6-1.4,1.4-1.4c0.8,0,1.4,0.6,1.4,1.4
		c0,0.6-0.4,1.1-0.9,1.3v1.5c-0.4,0-0.6-0.1-1.6-0.1h-2.9v6c0,0.7,0,1,0.1,1.4h-1.7c0-0.3,0.1-0.7,0.1-1.4v-6h-2.7
		c-1,0-1.1,0-1.6,0.1v-1.5c0.4,0.1,0.7,0.1,1.6,0.1h2.7v-0.7c0-0.7,0-1-0.1-1.3h1.7c0,0.3,0,0.5,0,1.3v0.7H204z M203.9,236.7
		c0.4,1.6,1.4,3.7,2.2,4.7c-0.6,0.3-0.9,0.5-1.4,0.9c-0.9-1.4-1.4-2.7-2-4.6c-0.1-0.3-0.1-0.4-0.2-0.6L203.9,236.7z M204.3,233
		c0,0.4,0.4,0.8,0.8,0.8c0.5,0,0.8-0.4,0.8-0.8c0-0.4-0.4-0.8-0.8-0.8C204.7,232.2,204.3,232.6,204.3,233z"/>
	<path class="st3" d="M206.8,236.7c0.5,0.1,0.7,0.1,1.9,0.1h6.2c1.2,0,1.4,0,1.9-0.1v1.7c-0.5-0.1-0.6-0.1-1.9-0.1h-6.2
		c-1.3,0-1.4,0-1.9,0.1V236.7z"/>
	<path class="st3" d="M219.7,242.8c0.1-0.4,0.1-0.7,0.1-1.4v-7.9c0-0.6,0-0.9-0.1-1.3h1.7c0,0.4,0,0.5,0,1.3v2.3
		c1.7,0.6,3.6,1.5,5.6,2.6l-0.9,1.5c-1-0.7-2.3-1.4-4.4-2.4c-0.3-0.1-0.3-0.1-0.4-0.2c0,0.3,0,0.5,0,0.8v3.3c0,0.6,0,1,0,1.4H219.7z
		"/>
</g>
<g id="animation">
	<polygon class="st4" points="203.8,72.4 200.9,142.3 189.8,187.3 130.7,199.4 98,142.1 148.7,116.9 	"/>
	<path class="st5" d="M201.1,77.7l-2.6,64.2l-10.7,43.3L132,196.6l-30.5-53.4l48.3-24.1l0.2-0.1l0.2-0.2L201.1,77.7 M203.8,72.4
		l-55.1,44.5L98,142.1l32.7,57.3l59.1-12l11.1-45.1L203.8,72.4L203.8,72.4z"/>
</g>
</svg>
