<?xml version="1.0" encoding="utf-8"?>
<!-- Generator: Adobe Illustrator 24.1.3, SVG Export Plug-In . SVG Version: 6.00 Build 0)  -->
<svg version="1.1" id="レイヤー_1" xmlns="http://www.w3.org/2000/svg" xmlns:xlink="http://www.w3.org/1999/xlink" x="0px"
	 y="0px" viewBox="0 0 336 265" style="enable-background:new 0 0 336 265;" xml:space="preserve">
<style type="text/css">
	.st0{fill:#B5B5B5;}
	.st1{fill:#F4F4F4;stroke:#E2E2E2;stroke-width:2;stroke-linecap:round;stroke-linejoin:round;stroke-miterlimit:10;}
	.st2{fill:none;stroke:#E2E2E2;stroke-width:2;stroke-linecap:round;stroke-linejoin:round;stroke-miterlimit:10;}
	.st3{fill:#333333;}
	.st4{fill:#F7F7F7;stroke:#E2E2E2;stroke-width:2;stroke-linecap:round;stroke-linejoin:round;stroke-miterlimit:10;}
	.st5{opacity:0.3;}
	.st6{fill:#2855FF;}
	.st7{fill:#4576FF;}

<!-- アニメーション追加 -->
	#animation.is-start-sp{
    transform-origin: 48% 54%;
    -webkit-animation: anime 0.8s ease-out 0s;
    -moz-animation: anime 0.8s ease-out 0s;
    animation: anime 0.8s ease-out 0s;
    -webkit-animation-fill-mode: both;
    -moz-animation-fill-mode: both;
    animation-fill-mode: both;
	}
	#animation.is-start-pc{
    transform-origin: 48% 54%;
    -webkit-animation: anime 0.8s ease-out 1.8s;
    -moz-animation: anime 0.8s ease-out 1.8s;
    animation: anime 0.8s ease-out 1.8s;
    -webkit-animation-fill-mode: both;
    -moz-animation-fill-mode: both;
    animation-fill-mode: both;
	}
@-webkit-keyframes anime {
  0% {
    opacity: 0;
    -moz-transform:scale(0.1);
    -o-transform:scale(0.1);
    -ms-transform:scale(0.1);
    -webkit-transform:scale(0.1);
    transform:scale(0.1);
  }
  100% {
    opacity: 1;
    -moz-transform:scale(1);
    -o-transform:scale(1);
    -ms-transform:scale(1);
    -webkit-transform:scale(1);
    transform:scale(1);
  }
<!-- アニメーション追加ここまで -->
</style>
<g>
	<path class="st0" d="M285.9,252.7h-5.1v2.2h-1.2v-2.2h-5.1v-1.1h5.1v-1h-3.9v-5.2h1.1c-0.2-0.5-0.7-1.2-1.1-1.7l1-0.5
		c0.5,0.5,1,1.3,1.3,1.8l-0.7,0.3h2.6c-0.2-0.5-0.6-1.3-1-1.9l1.1-0.4c0.4,0.6,0.9,1.4,1.1,1.9l-0.8,0.3h2.1c0.5-0.6,1-1.5,1.3-2.2
		l1.3,0.4c-0.4,0.6-0.8,1.3-1.3,1.8h1.2v5.2h-4.1v1h5.1V252.7z M279.5,246.4h-2.7v1.1h2.7V246.4z M279.5,249.6v-1.1h-2.7v1.1H279.5z
		 M283.6,246.4h-2.9v1.1h2.9V246.4z M283.6,248.5h-2.9v1.1h2.9V248.5z"/>
	<path class="st0" d="M291.5,243.5c-0.3,0.9-0.8,1.7-1.3,2.6v8.8h-1.1v-7.1c-0.4,0.5-0.8,1-1.3,1.5c-0.1-0.3-0.5-0.9-0.7-1.2
		c1.3-1.2,2.5-3,3.2-4.9L291.5,243.5z M299.3,253.2v1.1H291v-1.1h4.3c0.5-1.6,1.1-4.1,1.4-5.9l1.3,0.2c-0.4,1.9-1,4.1-1.6,5.7H299.3
		z M294.4,245.6v-2.3h1.2v2.3h3.4v1.1h-7.8v-1.1H294.4z M293.1,252.7c-0.1-1.3-0.4-3.4-0.9-5.1l1.1-0.2c0.5,1.7,0.9,3.8,1,5
		L293.1,252.7z"/>
	<path class="st0" d="M305,249.1c0-2.6,1.1-4.7,2.5-6.1l1,0.5c-1.4,1.5-2.4,3.3-2.4,5.7s1,4.2,2.4,5.7l-1,0.5
		C306,253.7,305,251.7,305,249.1z"/>
	<path class="st0" d="M321.3,253.5c0,0.7-0.2,1.1-0.6,1.3c-0.5,0.2-1.2,0.2-2.3,0.2c-0.1-0.3-0.2-0.9-0.4-1.2c0.8,0,1.6,0,1.9,0
		c0.2,0,0.3-0.1,0.3-0.3v-3.6H312v5.1h-1.2v-11h10.6L321.3,253.5L321.3,253.5z M311.9,248.7h3.4v-3.5h-3.4V248.7z M320.1,248.7v-3.5
		h-3.6v3.5H320.1z"/>
	<path class="st0" d="M326.9,249.1c0,2.6-1.1,4.7-2.5,6.1l-1-0.5c1.4-1.5,2.4-3.3,2.4-5.7s-1-4.2-2.4-5.7l1-0.5
		C325.8,244.4,326.9,246.4,326.9,249.1z"/>
</g>
<polygon class="st1" points="162.9,64 85.3,120.4 115,211.7 210.9,211.7 240.6,120.4 "/>
<polygon class="st2" points="162.9,64 85.3,120.4 115,211.7 210.9,211.7 240.6,120.4 "/>
<g>
	<path class="st3" d="M138.9,58.9c0.1-0.5,0.1-1,0.1-1.7V50h-0.6c-0.5,0-0.9,0-1.4,0.1v-1.7c0.4,0.1,0.7,0.1,1.3,0.1h1.2
		c0.7,0,0.9,0,1.3-0.1c-0.1,0.8-0.1,1.4-0.1,2.2v6.7c0,0.7,0,1.2,0.1,1.7L138.9,58.9L138.9,58.9z"/>
	<path class="st3" d="M144.8,58.1c-0.4-0.4-0.7-0.9-0.9-1.3c-0.3-0.9-0.5-2-0.5-3c0-1.4,0.3-2.8,0.8-3.6c0.7-1.2,1.9-1.8,3.4-1.8
		c1.1,0,2.1,0.4,2.8,1.1c0.4,0.4,0.7,0.9,0.9,1.3c0.3,0.9,0.5,2,0.5,3.1c0,1.6-0.4,3-1,3.9c-0.7,1-1.8,1.6-3.2,1.6
		C146.4,59.1,145.5,58.8,144.8,58.1z M149,57.1c0.6-0.6,0.9-1.8,0.9-3.4c0-1.5-0.3-2.7-0.9-3.4c-0.3-0.4-0.8-0.6-1.4-0.6
		c-0.6,0-1.1,0.2-1.5,0.7c-0.6,0.7-0.9,1.8-0.9,3.2s0.2,2.5,0.7,3.1c0.4,0.6,1,0.9,1.7,0.9C148.1,57.6,148.6,57.4,149,57.1z"/>
	<path class="st3" d="M155.8,49.8c-0.6,0-1.2,0-1.7,0.1v-1.6c0.5,0.1,1,0.1,1.7,0.1h8.5c0.6,0,1.2,0,1.7-0.1v1.6
		c-0.5-0.1-1.1-0.1-1.7-0.1h-4.9c0,1,0,1.3-0.1,2h3.8c0.8,0,1.3,0,1.7-0.1c0,0.3,0,0.3-0.1,1.5c-0.1,2.3-0.4,4.4-0.7,5.2
		s-0.9,1.1-2.2,1.1c-0.4,0-0.7,0-1.9-0.1c-0.1-0.6-0.1-1-0.4-1.5c0.8,0.2,1.6,0.3,2.1,0.3c0.6,0,0.9-0.1,1-0.5
		c0.3-0.6,0.4-2.2,0.5-4.5H159c-0.3,1.6-0.7,2.7-1.5,3.9c-0.7,1.1-1.4,1.8-2.6,2.7c-0.3-0.5-0.6-0.9-1.1-1.3c1-0.6,1.4-1.1,2-1.8
		c0.9-1.2,1.5-2.6,1.7-4.3c0.1-0.9,0.1-1,0.2-2.6C157.7,49.8,155.8,49.8,155.8,49.8z"/>
	<path class="st3" d="M175.9,49.4c0.8,0,1.2,0,1.6-0.1v1.5c-0.4-0.1-0.8-0.1-1.6-0.1H173v1.8h3.6c0.7,0,1.2,0,1.6-0.1V54
		c-0.4-0.1-0.9-0.1-1.6-0.1h-2.9c1.3,1.8,2.7,3,4.9,3.9c-0.4,0.5-0.6,0.8-0.9,1.4c-1.2-0.7-1.8-1.1-2.7-1.9c-0.9-0.8-1.3-1.3-2-2.4
		c0,0.7,0,1,0,1.2v2.2c0,0.5,0,1,0.1,1.4h-1.7c0.1-0.4,0.1-0.8,0.1-1.4v-2.1c0-0.4,0-0.6,0-1.2c-0.6,0.9-1,1.5-1.8,2.2
		c-0.8,0.8-1.6,1.3-2.6,1.9c-0.3-0.6-0.5-0.8-0.9-1.3c1.1-0.5,2.1-1.2,3-2.1c0.6-0.6,1.1-1.1,1.6-1.9h-2.7c-0.6,0-1.1,0-1.6,0.1
		v-1.5c0.5,0.1,0.9,0.1,1.6,0.1h3.3v-1.8H169c-0.7,0-1.1,0-1.6,0.1v-1.5c0.4,0.1,0.8,0.1,1.6,0.1h2.6v-0.8c0-0.4,0-0.6-0.1-0.9h1.6
		c-0.1,0.3-0.1,0.5-0.1,0.9v0.8H175.9z"/>
	<path class="st3" d="M182.1,55.6c-0.4,1.3-0.8,2.4-1.4,3.7c-0.1,0.2-0.1,0.3-0.2,0.5l-1.2-1.1c0.6-0.8,1.2-2.1,1.7-3.9L182.1,55.6z
		 M180.3,51.1c0.8,0.6,1.2,0.9,2,1.7l-0.9,1c-0.7-0.7-1.2-1.2-2-1.8L180.3,51.1z M183.6,52.2c-0.6,0-1.1,0-1.4,0.1v-1.4
		c0.3,0.1,0.8,0.1,1.4,0.1h0.8v-1h-0.5c-0.5,0-0.9,0-1.3,0.1v-0.5l-0.8,0.9c-0.7-0.8-1-1.1-2-1.8l0.9-0.9c0.9,0.7,1.3,1,1.9,1.6
		v-0.7c0.3,0,0.8,0.1,1.3,0.1h0.4v-0.1c0-0.4,0-0.7-0.1-1h1.5c-0.1,0.2-0.1,0.6-0.1,1v0.1h2.1v-0.1c0-0.4,0-0.7-0.1-1h1.5
		c0,0.2-0.1,0.6-0.1,1v0.1h0.7c0.5,0,1,0,1.3-0.1v1.4c-0.3,0-0.8-0.1-1.3-0.1H189v1h1c0.8,0,1.1,0,1.5-0.1v1.4
		c-0.3-0.1-0.8-0.1-1.5-0.1h-2.8v0.9h2.2c0.7,0,1.1,0,1.4-0.1c-0.1,0.3-0.1,0.7-0.1,1.4v4.2c0,0.9-0.4,1.1-1.7,1.1h-0.1h-0.4
		c-0.3,0-0.3,0-0.6,0c0-0.5-0.1-0.7-0.3-1.3c0.5,0.1,1,0.1,1.4,0.1s0.4,0,0.4-0.3v-3.9h-2.3v2.6h0.6V56c0-0.5,0-0.7,0-1h1.2
		c0,0.3,0,0.4,0,1v1c0,0.5,0,0.7,0,1c-0.1,0-0.4,0-0.9,0h-2.7v0.7h-1.2c0-0.3,0.1-0.6,0.1-1.1v-1.7c0-0.5,0-0.7-0.1-1h1.2
		c0,0.3,0,0.5,0,1v1h0.6v-2.6h-2.2v4.2c0,0.7,0,1,0.1,1.4h-1.4c0.1-0.4,0.1-0.9,0.1-1.5v-4.2c0-0.5,0-0.8,0-1.1c0.3,0,0.6,0,1,0h2.6
		v-0.9C186.1,52.2,183.6,52.2,183.6,52.2z M187.8,51v-1h-2.1v1H187.8z"/>
</g>
<g>
	<path class="st3" d="M74.2,229.3c0.1-0.5,0.1-1,0.1-1.7v-7.2h-0.6c-0.5,0-0.9,0-1.4,0.1v-1.7c0.4,0.1,0.7,0.1,1.3,0.1h1.2
		c0.7,0,0.9,0,1.3-0.1c-0.1,0.8-0.1,1.4-0.1,2.2v6.7c0,0.7,0,1.2,0.1,1.7h-1.9V229.3z"/>
	<path class="st3" d="M80.5,226.6c0.1,0.4,0.2,0.6,0.4,0.8c0.4,0.4,0.9,0.7,1.6,0.7c1.3,0,2.2-0.9,2.2-2.2s-0.8-2.1-2.1-2.1
		c-0.6,0-1.2,0.2-1.6,0.6c-0.2,0.2-0.3,0.3-0.4,0.6l-1.6-0.2c0.1-0.9,0.1-1,0.2-1.4l0.3-3.3c0-0.2,0-0.7,0.1-1.3c0.4,0,0.7,0,1.4,0
		h3.2c0.9,0,1.2,0,1.8-0.1v1.7c-0.6-0.1-1.1-0.1-1.8-0.1H81l-0.2,2.3c0,0.1,0,0.3-0.1,0.6c0.6-0.6,1.3-0.8,2.2-0.8
		c1.1,0,1.9,0.3,2.6,1c0.6,0.6,0.9,1.4,0.9,2.5c0,2.3-1.5,3.7-4,3.7c-1.3,0-2.3-0.4-3-1.1c-0.4-0.4-0.5-0.7-0.8-1.4L80.5,226.6z"/>
	<path class="st3" d="M88.9,228.5c-0.4-0.4-0.7-0.9-0.9-1.3c-0.3-0.9-0.5-2-0.5-3c0-1.4,0.3-2.8,0.8-3.6c0.7-1.2,1.9-1.8,3.4-1.8
		c1.1,0,2.1,0.4,2.8,1.1c0.4,0.4,0.7,0.9,0.9,1.3c0.3,0.9,0.5,2,0.5,3.1c0,1.6-0.4,3-1,3.9c-0.7,1-1.8,1.6-3.2,1.6
		C90.6,229.5,89.6,229.2,88.9,228.5z M93.1,227.4c0.6-0.6,0.9-1.8,0.9-3.4c0-1.5-0.3-2.7-0.9-3.4c-0.3-0.4-0.8-0.6-1.4-0.6
		s-1.1,0.2-1.5,0.7c-0.6,0.7-0.9,1.8-0.9,3.2s0.2,2.5,0.7,3.1c0.4,0.6,1,0.9,1.7,0.9C92.3,228,92.8,227.8,93.1,227.4z"/>
	<path class="st3" d="M98.1,224.2c0.5-0.6,0.7-0.8,1.3-1.2c0.8-0.5,1.4-0.7,2.2-0.7c0.6,0,1.1,0.1,1.7,0.4c0.3,0.2,0.3,0.2,1.2,0.7
		c1,0.6,1.7,0.9,2.3,0.9c0.3,0,0.7-0.1,1-0.2c0.6-0.3,0.9-0.6,1.4-1.2l1.1,1.1c-0.5,0.7-0.8,1-1.2,1.3c-0.7,0.5-1.4,0.7-2.3,0.7
		c-0.4,0-0.8-0.1-1.2-0.2c-0.5-0.2-0.8-0.3-1.8-1c-1.2-0.7-1.6-0.9-2.3-0.9c-0.9,0-1.5,0.3-2.3,1.2L98.1,224.2z"/>
	<path class="st3" d="M114,226.5c0.2,0.6,0.3,0.8,0.6,1.1c0.4,0.3,1,0.5,1.6,0.5c1.3,0,2.1-0.7,2.1-1.7c0-0.6-0.3-1.1-0.7-1.4
		c-0.3-0.2-0.9-0.3-1.5-0.3s-1,0-1.4,0.1v-1.6c0.4,0.1,0.7,0.1,1.3,0.1c1.3,0,2.1-0.6,2.1-1.6c0-0.9-0.6-1.4-1.7-1.4
		c-0.6,0-1.1,0.1-1.4,0.4c-0.3,0.2-0.4,0.5-0.6,1l-1.9-0.3c0.3-1,0.6-1.4,1.2-1.9c0.7-0.5,1.5-0.7,2.6-0.7c2.2,0,3.6,1.1,3.6,2.8
		c0,0.8-0.3,1.5-0.9,1.9c-0.3,0.2-0.6,0.3-1.3,0.5c0.9,0.1,1.4,0.4,1.9,0.9c0.4,0.5,0.6,1,0.6,1.8c0,0.7-0.3,1.4-0.8,1.9
		c-0.7,0.7-1.8,1.1-3.2,1.1c-1.5,0-2.6-0.4-3.3-1.2c-0.3-0.4-0.5-0.7-0.7-1.5L114,226.5z"/>
	<path class="st3" d="M122.6,228.5c-0.4-0.4-0.7-0.9-0.9-1.3c-0.3-0.9-0.5-2-0.5-3c0-1.4,0.3-2.8,0.8-3.6c0.7-1.2,1.9-1.8,3.4-1.8
		c1.1,0,2.1,0.4,2.8,1.1c0.4,0.4,0.7,0.9,0.9,1.3c0.3,0.9,0.5,2,0.5,3.1c0,1.6-0.4,3-1,3.9c-0.7,1-1.8,1.6-3.2,1.6
		C124.3,229.5,123.3,229.2,122.6,228.5z M126.8,227.4c0.6-0.6,0.9-1.8,0.9-3.4c0-1.5-0.3-2.7-0.9-3.4c-0.3-0.4-0.8-0.6-1.4-0.6
		s-1.1,0.2-1.5,0.7c-0.6,0.7-0.9,1.8-0.9,3.2s0.2,2.5,0.7,3.1c0.4,0.6,1,0.9,1.7,0.9C126,228,126.5,227.8,126.8,227.4z"/>
	<path class="st3" d="M132,228.5c-0.4-0.4-0.7-0.9-0.9-1.3c-0.3-0.9-0.5-2-0.5-3c0-1.4,0.3-2.8,0.8-3.6c0.7-1.2,1.9-1.8,3.4-1.8
		c1.1,0,2.1,0.4,2.8,1.1c0.4,0.4,0.7,0.9,0.9,1.3c0.3,0.9,0.5,2,0.5,3.1c0,1.6-0.4,3-1,3.9c-0.7,1-1.8,1.6-3.2,1.6
		C133.6,229.5,132.7,229.2,132,228.5z M136.2,227.4c0.6-0.6,0.9-1.8,0.9-3.4c0-1.5-0.3-2.7-0.9-3.4c-0.3-0.4-0.8-0.6-1.4-0.6
		c-0.6,0-1.1,0.2-1.5,0.7c-0.6,0.7-0.9,1.8-0.9,3.2s0.2,2.5,0.7,3.1c0.4,0.6,1,0.9,1.7,0.9C135.4,228,135.9,227.8,136.2,227.4z"/>
	<path class="st3" d="M142.1,220.2c-0.6,0-1.2,0-1.7,0.1v-1.6c0.5,0.1,1,0.1,1.7,0.1h8.5c0.6,0,1.2,0,1.7-0.1v1.6
		c-0.5-0.1-1.1-0.1-1.7-0.1h-4.9c0,1,0,1.3-0.1,2h3.8c0.8,0,1.3,0,1.7-0.1c0,0.3,0,0.3-0.1,1.5c-0.1,2.3-0.4,4.4-0.7,5.2
		s-0.9,1.1-2.2,1.1c-0.4,0-0.7,0-1.9-0.1c-0.1-0.6-0.1-1-0.4-1.5c0.8,0.2,1.6,0.3,2.1,0.3c0.6,0,0.9-0.1,1-0.5
		c0.3-0.6,0.4-2.2,0.5-4.5h-4.1c-0.3,1.6-0.7,2.7-1.5,3.9c-0.7,1.1-1.4,1.8-2.6,2.7c-0.3-0.5-0.6-0.9-1.1-1.3c1-0.6,1.4-1.1,2-1.8
		c0.9-1.2,1.5-2.6,1.7-4.3c0.1-0.9,0.1-1,0.2-2.6L142.1,220.2L142.1,220.2z"/>
</g>
<g>
	<path class="st3" d="M17.5,121c0.2,0.6,0.3,0.8,0.6,1.1c0.4,0.3,1,0.5,1.6,0.5c1.3,0,2.1-0.7,2.1-1.7c0-0.6-0.3-1.1-0.7-1.4
		c-0.3-0.2-0.9-0.3-1.5-0.3s-1,0-1.4,0.1v-1.6c0.4,0.1,0.7,0.1,1.3,0.1c1.3,0,2.1-0.6,2.1-1.6c0-0.9-0.6-1.4-1.7-1.4
		c-0.6,0-1.1,0.1-1.4,0.4c-0.3,0.2-0.4,0.5-0.6,1l-1.9-0.3c0.3-1,0.6-1.4,1.2-1.9c0.7-0.5,1.5-0.7,2.6-0.7c2.2,0,3.6,1.1,3.6,2.8
		c0,0.8-0.3,1.5-0.9,1.9c-0.3,0.2-0.6,0.3-1.3,0.5c0.9,0.1,1.4,0.4,1.9,0.9c0.4,0.5,0.6,1,0.6,1.8c0,0.7-0.3,1.4-0.8,1.9
		c-0.7,0.7-1.8,1.1-3.2,1.1c-1.5,0-2.6-0.4-3.3-1.2c-0.3-0.4-0.5-0.7-0.7-1.5L17.5,121z"/>
	<path class="st3" d="M26.1,123c-0.4-0.4-0.7-0.9-0.9-1.3c-0.3-0.9-0.5-2-0.5-3c0-1.4,0.3-2.8,0.8-3.6c0.7-1.2,1.9-1.8,3.4-1.8
		c1.1,0,2.1,0.4,2.8,1.1c0.4,0.4,0.7,0.9,0.9,1.3c0.3,0.9,0.5,2,0.5,3.1c0,1.6-0.4,3-1,3.9c-0.7,1-1.8,1.6-3.2,1.6
		C27.7,124.1,26.8,123.7,26.1,123z M30.3,122c0.6-0.6,0.9-1.8,0.9-3.4c0-1.5-0.3-2.7-0.9-3.4c-0.3-0.4-0.8-0.6-1.4-0.6
		s-1.1,0.2-1.5,0.7c-0.6,0.7-0.9,1.8-0.9,3.2c0,1.4,0.2,2.5,0.7,3.1c0.4,0.6,1,0.9,1.7,0.9C29.4,122.6,29.9,122.4,30.3,122z"/>
	<path class="st3" d="M35.4,123c-0.4-0.4-0.7-0.9-0.9-1.3c-0.3-0.9-0.5-2-0.5-3c0-1.4,0.3-2.8,0.8-3.6c0.7-1.2,1.9-1.8,3.4-1.8
		c1.1,0,2.1,0.4,2.8,1.1c0.4,0.4,0.7,0.9,0.9,1.3c0.3,0.9,0.5,2,0.5,3.1c0,1.6-0.4,3-1,3.9c-0.7,1-1.8,1.6-3.2,1.6
		C37.1,124.1,36.1,123.7,35.4,123z M39.6,122c0.6-0.6,0.9-1.8,0.9-3.4c0-1.5-0.3-2.7-0.9-3.4c-0.3-0.4-0.8-0.6-1.4-0.6
		c-0.6,0-1.1,0.2-1.5,0.7c-0.6,0.7-0.9,1.8-0.9,3.2c0,1.4,0.2,2.5,0.7,3.1c0.4,0.6,1,0.9,1.7,0.9C38.8,122.6,39.3,122.4,39.6,122z"
		/>
	<path class="st3" d="M44.7,114.8c-0.6,0-1.2,0-1.7,0.1v-1.6c0.5,0.1,1,0.1,1.7,0.1h8.5c0.6,0,1.2,0,1.7-0.1v1.6
		c-0.5-0.1-1.1-0.1-1.7-0.1h-4.9c0,1,0,1.3-0.1,2H52c0.8,0,1.3,0,1.7-0.1c0,0.3,0,0.3-0.1,1.5c-0.1,2.3-0.4,4.4-0.7,5.2
		c-0.3,0.8-0.9,1.1-2.2,1.1c-0.4,0-0.7,0-1.9-0.1c-0.1-0.6-0.1-1-0.4-1.5c0.8,0.2,1.6,0.3,2.1,0.3c0.6,0,0.9-0.1,1-0.5
		c0.3-0.6,0.4-2.2,0.5-4.5h-4.1c-0.3,1.6-0.7,2.7-1.5,3.9c-0.7,1.1-1.4,1.8-2.6,2.7c-0.3-0.5-0.6-0.9-1.1-1.3c1-0.6,1.4-1.1,2-1.8
		c0.9-1.2,1.5-2.6,1.7-4.3c0.1-0.9,0.1-1,0.2-2.6C46.6,114.8,44.7,114.8,44.7,114.8z"/>
	<path class="st3" d="M56.5,114.6c0-0.7,0-1.1-0.1-1.6h1.7c0,0.4-0.1,0.8-0.1,1.3v0.3l0.1,6.3c1.2-0.5,2.5-1.2,3.4-1.8l0.3,1.4
		c-1.6,1-2.7,1.6-5.2,2.6c-0.5,0.2-0.6,0.3-0.9,0.4l-0.4-1.6c0.5-0.1,0.7-0.2,1.3-0.4L56.5,114.6z M66.2,113c0,0.1,0,0.1-0.1,1.8
		c-0.1,1.2-0.3,2.7-0.6,3.7c-0.2,0.7-0.5,1.3-0.8,1.9c0.7,1.2,1.6,2.1,2.9,2.8c-0.4,0.4-0.6,0.9-0.9,1.5c-1.2-0.8-2.1-1.8-2.8-3
		c-1.1,1.3-2.4,2.3-4.4,3.1c-0.3-0.6-0.5-0.9-0.8-1.3c2.3-0.9,3.7-2,4.7-3.5c0.9-1.5,1.4-3.6,1.4-6.2c0-0.4,0-0.6-0.1-0.9L66.2,113z
		 M60.4,113.8c1,1.1,1.6,1.8,2.6,3.2l-1.4,0.9c-1-1.7-1.3-2.1-2.5-3.4L60.4,113.8z"/>
	<path class="st3" d="M74.8,122.9h3.8c0.7,0,1.3,0,1.8-0.1v1.6c-0.6-0.1-1.1-0.1-1.7-0.1h-8.3c-0.6,0-1.2,0-1.8,0.1v-1.6
		c0.5,0.1,1.1,0.1,1.8,0.1h3v-8.5c0-0.6,0-1-0.1-1.5H75c-0.1,0.5-0.1,0.9-0.1,1.5v2.2H78c0.6,0,1.1,0,1.5-0.1v1.6
		c-0.5-0.1-1-0.1-1.5-0.1h-3.1v4.9H74.8z"/>
</g>
<g>
	<path class="st3" d="M250.9,123.9c0.1-0.5,0.1-1,0.1-1.7V115h-0.6c-0.5,0-0.9,0-1.4,0.1v-1.7c0.4,0.1,0.7,0.1,1.3,0.1h1.2
		c0.7,0,0.9,0,1.3-0.1c-0.1,0.8-0.1,1.4-0.1,2.2v6.7c0,0.7,0,1.2,0.1,1.7L250.9,123.9L250.9,123.9z"/>
	<path class="st3" d="M256.8,123c-0.4-0.4-0.7-0.9-0.9-1.3c-0.3-0.9-0.5-2-0.5-3c0-1.4,0.3-2.8,0.8-3.6c0.7-1.2,1.9-1.8,3.4-1.8
		c1.1,0,2.1,0.4,2.8,1.1c0.4,0.4,0.7,0.9,0.9,1.3c0.3,0.9,0.5,2,0.5,3.1c0,1.6-0.4,3-1,3.9c-0.7,1-1.8,1.6-3.2,1.6
		C258.4,124.1,257.5,123.7,256.8,123z M261,122c0.6-0.6,0.9-1.8,0.9-3.4c0-1.5-0.3-2.7-0.9-3.4c-0.3-0.4-0.8-0.6-1.4-0.6
		s-1.1,0.2-1.5,0.7c-0.6,0.7-0.9,1.8-0.9,3.2c0,1.4,0.2,2.5,0.7,3.1c0.4,0.6,1,0.9,1.7,0.9C260.1,122.6,260.6,122.4,261,122z"/>
	<path class="st3" d="M264.7,118.8c0.5-0.6,0.7-0.8,1.3-1.2c0.8-0.5,1.4-0.7,2.2-0.7c0.6,0,1.1,0.1,1.7,0.4c0.3,0.2,0.3,0.2,1.2,0.7
		c1,0.6,1.7,0.9,2.3,0.9c0.3,0,0.7-0.1,1-0.2c0.6-0.3,0.9-0.6,1.4-1.2l1.1,1.1c-0.5,0.7-0.8,1-1.2,1.3c-0.7,0.5-1.4,0.7-2.3,0.7
		c-0.4,0-0.8-0.1-1.2-0.2c-0.5-0.2-0.8-0.3-1.8-1c-1.2-0.7-1.6-0.9-2.3-0.9c-0.9,0-1.5,0.3-2.3,1.2L264.7,118.8z"/>
	<path class="st3" d="M280.5,121.2c0.1,0.4,0.2,0.6,0.4,0.8c0.4,0.4,0.9,0.7,1.6,0.7c1.3,0,2.2-0.9,2.2-2.2c0-1.3-0.8-2.1-2.1-2.1
		c-0.6,0-1.2,0.2-1.6,0.6c-0.2,0.2-0.3,0.3-0.4,0.6l-1.6-0.2c0.1-0.9,0.1-1,0.2-1.4l0.3-3.3c0-0.2,0-0.7,0.1-1.3c0.4,0,0.7,0,1.4,0
		h3.2c0.9,0,1.2,0,1.8-0.1v1.7c-0.6-0.1-1.1-0.1-1.8-0.1H281l-0.2,2.3c0,0.1,0,0.3-0.1,0.6c0.6-0.6,1.3-0.8,2.2-0.8
		c1.1,0,1.9,0.3,2.6,1c0.6,0.6,0.9,1.4,0.9,2.5c0,2.3-1.5,3.7-4,3.7c-1.3,0-2.3-0.4-3-1.1c-0.4-0.4-0.5-0.7-0.8-1.4L280.5,121.2z"/>
	<path class="st3" d="M288.9,123c-0.4-0.4-0.7-0.9-0.9-1.3c-0.3-0.9-0.5-2-0.5-3c0-1.4,0.3-2.8,0.8-3.6c0.7-1.2,1.9-1.8,3.4-1.8
		c1.1,0,2.1,0.4,2.8,1.1c0.4,0.4,0.7,0.9,0.9,1.3c0.3,0.9,0.5,2,0.5,3.1c0,1.6-0.4,3-1,3.9c-0.7,1-1.8,1.6-3.2,1.6
		C290.6,124.1,289.6,123.7,288.9,123z M293.1,122c0.6-0.6,0.9-1.8,0.9-3.4c0-1.5-0.3-2.7-0.9-3.4c-0.3-0.4-0.8-0.6-1.4-0.6
		s-1.1,0.2-1.5,0.7c-0.6,0.7-0.9,1.8-0.9,3.2c0,1.4,0.2,2.5,0.7,3.1c0.4,0.6,1,0.9,1.7,0.9C292.3,122.6,292.8,122.4,293.1,122z"/>
	<path class="st3" d="M298.2,114.8c-0.6,0-1.2,0-1.7,0.1v-1.6c0.5,0.1,1,0.1,1.7,0.1h8.5c0.6,0,1.2,0,1.7-0.1v1.6
		c-0.5-0.1-1.1-0.1-1.7-0.1h-4.9c0,1,0,1.3-0.1,2h3.8c0.8,0,1.3,0,1.7-0.1c0,0.3,0,0.3-0.1,1.5c-0.1,2.3-0.4,4.4-0.7,5.2
		c-0.3,0.8-0.9,1.1-2.2,1.1c-0.4,0-0.7,0-1.9-0.1c-0.1-0.6-0.1-1-0.4-1.5c0.8,0.2,1.6,0.3,2.1,0.3c0.6,0,0.9-0.1,1-0.5
		c0.3-0.6,0.4-2.2,0.5-4.5h-4.1c-0.3,1.6-0.7,2.7-1.5,3.9c-0.7,1.1-1.4,1.8-2.6,2.7c-0.3-0.5-0.6-0.9-1.1-1.3c1-0.6,1.4-1.1,2-1.8
		c0.9-1.2,1.5-2.6,1.7-4.3c0.1-0.9,0.1-1,0.2-2.6C300.1,114.8,298.2,114.8,298.2,114.8z"/>
</g>
<g>
	<path class="st3" d="M183.8,226.6c0.1,0.4,0.2,0.6,0.4,0.8c0.4,0.4,0.9,0.7,1.6,0.7c1.3,0,2.2-0.9,2.2-2.2s-0.8-2.1-2.1-2.1
		c-0.6,0-1.2,0.2-1.6,0.6c-0.2,0.2-0.3,0.3-0.4,0.6l-1.6-0.2c0.1-0.9,0.1-1,0.2-1.4l0.3-3.3c0-0.2,0-0.7,0.1-1.3c0.4,0,0.7,0,1.4,0
		h3.2c0.9,0,1.2,0,1.8-0.1v1.7c-0.6-0.1-1.1-0.1-1.8-0.1h-3.1l-0.2,2.3c0,0.1,0,0.3-0.1,0.6c0.6-0.6,1.3-0.8,2.2-0.8
		c1.1,0,1.9,0.3,2.6,1c0.6,0.6,0.9,1.4,0.9,2.5c0,2.3-1.5,3.7-4,3.7c-1.3,0-2.3-0.4-3-1.1c-0.4-0.4-0.5-0.7-0.8-1.4L183.8,226.6z"/>
	<path class="st3" d="M192.2,228.5c-0.4-0.4-0.7-0.9-0.9-1.3c-0.3-0.9-0.5-2-0.5-3c0-1.4,0.3-2.8,0.8-3.6c0.7-1.2,1.9-1.8,3.4-1.8
		c1.1,0,2.1,0.4,2.8,1.1c0.4,0.4,0.7,0.9,0.9,1.3c0.3,0.9,0.5,2,0.5,3.1c0,1.6-0.4,3-1,3.9c-0.7,1-1.8,1.6-3.2,1.6
		C193.9,229.5,192.9,229.2,192.2,228.5z M196.4,227.4c0.6-0.6,0.9-1.8,0.9-3.4c0-1.5-0.3-2.7-0.9-3.4c-0.3-0.4-0.8-0.6-1.4-0.6
		c-0.6,0-1.1,0.2-1.5,0.7c-0.6,0.7-0.9,1.8-0.9,3.2s0.2,2.5,0.7,3.1c0.4,0.6,1,0.9,1.7,0.9C195.6,228,196.1,227.8,196.4,227.4z"/>
	<path class="st3" d="M201.4,224.2c0.5-0.6,0.7-0.8,1.3-1.2c0.8-0.5,1.4-0.7,2.2-0.7c0.6,0,1.1,0.1,1.7,0.4c0.3,0.2,0.3,0.2,1.2,0.7
		c1,0.6,1.7,0.9,2.3,0.9c0.3,0,0.7-0.1,1-0.2c0.6-0.3,0.9-0.6,1.4-1.2l1.1,1.1c-0.5,0.7-0.8,1-1.2,1.3c-0.7,0.5-1.4,0.7-2.3,0.7
		c-0.4,0-0.8-0.1-1.2-0.2c-0.5-0.2-0.8-0.3-1.8-1c-1.2-0.7-1.6-0.9-2.3-0.9c-0.9,0-1.5,0.3-2.3,1.2L201.4,224.2z"/>
	<path class="st3" d="M218.5,229.3c0.1-0.5,0.1-1,0.1-1.7v-7.2H218c-0.5,0-0.9,0-1.4,0.1v-1.7c0.4,0.1,0.7,0.1,1.3,0.1h1.2
		c0.7,0,0.9,0,1.3-0.1c-0.1,0.8-0.1,1.4-0.1,2.2v6.7c0,0.7,0,1.2,0.1,1.7h-1.9V229.3z"/>
	<path class="st3" d="M224.9,226.6c0.1,0.4,0.2,0.6,0.4,0.8c0.4,0.4,0.9,0.7,1.6,0.7c1.3,0,2.2-0.9,2.2-2.2s-0.8-2.1-2.1-2.1
		c-0.6,0-1.2,0.2-1.6,0.6c-0.2,0.2-0.3,0.3-0.4,0.6l-1.6-0.2c0.1-0.9,0.1-1,0.2-1.4l0.3-3.3c0-0.2,0-0.7,0.1-1.3c0.4,0,0.7,0,1.4,0
		h3.2c0.9,0,1.2,0,1.8-0.1v1.7c-0.6-0.1-1.1-0.1-1.8-0.1h-3.1l-0.2,2.3c0,0.1,0,0.3-0.1,0.6c0.6-0.6,1.3-0.8,2.2-0.8
		c1.1,0,1.9,0.3,2.6,1c0.6,0.6,0.9,1.4,0.9,2.5c0,2.3-1.5,3.7-4,3.7c-1.3,0-2.3-0.4-3-1.1c-0.4-0.4-0.5-0.7-0.8-1.4L224.9,226.6z"/>
	<path class="st3" d="M233.3,228.5c-0.4-0.4-0.7-0.9-0.9-1.3c-0.3-0.9-0.5-2-0.5-3c0-1.4,0.3-2.8,0.8-3.6c0.7-1.2,1.9-1.8,3.4-1.8
		c1.1,0,2.1,0.4,2.8,1.1c0.4,0.4,0.7,0.9,0.9,1.3c0.3,0.9,0.5,2,0.5,3.1c0,1.6-0.4,3-1,3.9c-0.7,1-1.8,1.6-3.2,1.6
		C234.9,229.5,234,229.2,233.3,228.5z M237.4,227.4c0.6-0.6,0.9-1.8,0.9-3.4c0-1.5-0.3-2.7-0.9-3.4c-0.3-0.4-0.8-0.6-1.4-0.6
		c-0.6,0-1.1,0.2-1.5,0.7c-0.6,0.7-0.9,1.8-0.9,3.2s0.2,2.5,0.7,3.1c0.4,0.6,1,0.9,1.7,0.9C236.6,228,237.1,227.8,237.4,227.4z"/>
	<path class="st3" d="M242.5,220.2c-0.6,0-1.2,0-1.7,0.1v-1.6c0.5,0.1,1,0.1,1.7,0.1h8.5c0.6,0,1.2,0,1.7-0.1v1.6
		c-0.5-0.1-1.1-0.1-1.7-0.1h-4.9c0,1,0,1.3-0.1,2h3.8c0.8,0,1.3,0,1.7-0.1c0,0.3,0,0.3-0.1,1.5c-0.1,2.3-0.4,4.4-0.7,5.2
		s-0.9,1.1-2.2,1.1c-0.4,0-0.7,0-1.9-0.1c-0.1-0.6-0.1-1-0.4-1.5c0.8,0.2,1.6,0.3,2.1,0.3c0.6,0,0.9-0.1,1-0.5
		c0.3-0.6,0.4-2.2,0.5-4.5h-4.1c-0.3,1.6-0.7,2.7-1.5,3.9c-0.7,1.1-1.4,1.8-2.6,2.7c-0.3-0.5-0.6-0.9-1.1-1.3c1-0.6,1.4-1.1,2-1.8
		c0.9-1.2,1.5-2.6,1.7-4.3c0.1-0.9,0.1-1,0.2-2.6L242.5,220.2L242.5,220.2z"/>
</g>
<polygon class="st4" points="162.9,80.1 100.6,125.4 124.4,198.7 201.5,198.7 225.3,125.4 "/>
<polygon class="st1" points="162.7,95.8 115.4,130.1 133.5,185.7 191.9,185.7 209.9,130.1 "/>
<polygon class="st4" points="162.9,112 131.2,135.1 143.3,172.4 182.6,172.4 194.7,135.1 "/>
<polygon class="st1" points="162.9,127.4 145.8,139.8 152.3,160 173.5,160 180.1,139.8 "/>
<polyline class="st2" points="163,63.9 162.7,145.4 240.6,120.4 "/>
<polyline class="st2" points="85.4,120.4 162.7,145.4 114.9,211.7 "/>
<line class="st2" x1="210.9" y1="211.7" x2="162.7" y2="145.4"/>
<g id="animation">
	<g class="st5">
		<polygon class="st6" points="240.7,120.4 197.2,193.3 129.9,191.1 139,138 162.8,120 		"/>
	</g>
	<g>
		<path class="st7" d="M163.5,122.6l73,0.4l-40.3,67.6l-65.2,0.1l10.4-51.5L163.5,122.6 M162.8,120L139,138l-10.8,55.3l69,0.1
			l43.5-72.9L162.8,120L162.8,120z"/>
	</g>
</g>
</svg>
