<?xml version="1.0" encoding="utf-8"?>
<!-- Generator: Adobe Illustrator 22.1.0, SVG Export Plug-In . SVG Version: 6.00 Build 0)  -->
<svg version="1.1" id="レイヤー_1" xmlns="http://www.w3.org/2000/svg" xmlns:xlink="http://www.w3.org/1999/xlink" x="0px"
	 y="0px" viewBox="0 0 100 100" style="enable-background:new 0 0 100 100;" xml:space="preserve">
<style type="text/css">
	.st0{fill:#BFDCF5;}
	.st1{fill:#FFFFFF;}
	.st2{fill:#71A8FB;}
	.st3{fill:#5884DB;}
	.st4{opacity:0.5;}
	.st5{fill:#3F60BC;}
</style>
<g>
	<g>
		<path class="st3" d="M34.927,27.94c-0.527,1.996-1.026,3.078-1.858,4.159c-1.581,1.941-4.242,3.022-7.57,3.022
			c-3.022,0-5.435-0.915-7.126-2.662c-1.941-2.024-3.023-5.157-3.023-8.707c0-3.66,1.165-6.877,3.244-8.956
			c1.664-1.691,4.159-2.634,6.932-2.634c2.163,0,3.799,0.416,5.324,1.331c1.248,0.777,2.246,1.802,2.939,3.022
			c0.333,0.582,0.527,1.082,0.86,2.135l-3.854,0.887c-0.389-1.22-0.638-1.747-1.193-2.385c-0.943-1.137-2.329-1.719-4.048-1.719
			c-3.937,0-6.322,3.078-6.322,8.18c0,5.074,2.44,8.235,6.322,8.235c1.941,0,3.605-0.749,4.492-2.052
			c0.471-0.693,0.693-1.275,0.915-2.551L34.927,27.94z"/>
		<path class="st3" d="M49.515,34.678c-0.139-0.887-0.583-2.191-1.22-3.743l-3.993-9.511c-0.527-1.248-0.776-1.997-1.414-4.243
			c0.111,1.47,0.222,3.743,0.222,4.353v9.095c0,1.913,0.056,2.967,0.222,4.048h-3.882c0.167-1.109,0.222-2.191,0.222-4.048V16.71
			c0-1.802-0.056-2.967-0.222-4.104h5.074c0.194,0.97,0.555,2.135,1.026,3.299l5.629,13.753l5.601-13.753
			c0.555-1.359,0.805-2.246,0.999-3.299h5.102c-0.167,1.331-0.222,2.246-0.222,4.104v13.92c0,2.024,0.056,3.022,0.222,4.048h-3.882
			c0.166-1.137,0.222-2.135,0.222-4.048v-9.206c0.111-2.412,0.194-3.827,0.222-4.243c-0.361,1.497-0.888,3.05-1.276,4.048
			l-4.159,9.76c-0.555,1.303-1.054,2.856-1.22,3.688H49.515z"/>
		<path class="st3" d="M71.479,27.802c0.111,1.248,0.277,1.802,0.776,2.44c0.804,1.054,2.246,1.636,4.048,1.636
			c2.773,0,4.437-1.248,4.437-3.327c0-1.137-0.527-2.08-1.387-2.551c-0.832-0.444-0.998-0.471-4.825-1.359
			c-2.08-0.472-3.189-0.915-4.187-1.691c-1.414-1.109-2.135-2.634-2.135-4.492c0-3.854,3.106-6.35,7.875-6.35
			c3.161,0,5.545,0.971,6.904,2.801c0.693,0.915,1.026,1.747,1.359,3.216l-3.965,0.471c-0.167-0.943-0.361-1.414-0.832-1.969
			c-0.721-0.86-1.941-1.331-3.466-1.331c-2.413,0-4.048,1.22-4.048,3.022c0,1.165,0.61,1.969,1.886,2.523
			c0.61,0.25,0.832,0.305,3.909,0.998c2.191,0.472,3.522,0.998,4.52,1.692c1.581,1.165,2.302,2.689,2.302,4.769
			c0,1.969-0.61,3.577-1.747,4.714c-1.47,1.414-3.66,2.107-6.627,2.107c-2.274,0-4.492-0.555-5.823-1.442
			c-1.109-0.749-1.913-1.802-2.44-3.161c-0.25-0.638-0.361-1.165-0.527-2.301L71.479,27.802z"/>
	</g>
	<g>
		<g>
			<g>
				<path class="st2" d="M53.561,65.81v-6.117h-2.833c-0.17-1.031-0.435-2.025-0.769-2.987l2.463-1.501l-2.899-5.295l-2.464,1.499
					c-0.628-0.789-1.325-1.519-2.074-2.182l1.428-2.607l-5.021-3.059l-1.424,2.602c-0.908-0.351-1.853-0.62-2.829-0.799V42.36
					h-5.796v3.004c-0.975,0.18-1.914,0.459-2.825,0.806l-1.424-2.609l-5.019,3.059l1.423,2.607c-0.748,0.663-1.442,1.393-2.07,2.182
					l-2.469-1.499l-2.896,5.295l2.458,1.499c-0.336,0.96-0.592,1.958-0.764,2.989h-2.832v6.117h2.832
					c0.172,1.037,0.436,2.03,0.769,2.992l-2.463,1.5l2.896,5.298l2.469-1.502c0.629,0.789,1.323,1.516,2.07,2.18l-1.423,2.609
					l5.017,3.059l1.426-2.605c0.905,0.353,1.851,0.619,2.825,0.804v3h5.796v-3c0.976-0.185,1.918-0.46,2.825-0.808l1.428,2.608
					l5.021-3.059l-1.428-2.609c0.749-0.664,1.442-1.394,2.071-2.18l2.467,1.502l2.899-5.298l-2.456-1.497
					c0.331-0.962,0.591-1.958,0.762-2.995H53.561z M34.241,76.349c-7.112,0-12.88-6.087-12.88-13.595
					c0-7.509,5.768-13.598,12.88-13.598c7.115,0,12.882,6.09,12.882,13.598C47.122,70.262,41.355,76.349,34.241,76.349z"/>
			</g>
			<g>
				<path class="st2" d="M43.901,62.753c0,5.632-4.324,10.196-9.661,10.196c-5.334,0-9.66-4.563-9.66-10.196
					s4.326-10.198,9.66-10.198C39.577,52.556,43.901,57.121,43.901,62.753z"/>
			</g>
		</g>
		<g>
			<g>
				<path class="st0" d="M85.078,76.653v-4.748h-2.199c-0.133-0.8-0.338-1.572-0.598-2.318l1.913-1.165l-2.251-4.11l-1.913,1.164
					c-0.488-0.612-1.029-1.179-1.609-1.694l1.107-2.023l-3.897-2.375l-1.106,2.019c-0.704-0.272-1.437-0.481-2.195-0.62v-2.332
					h-4.498v2.332c-0.757,0.139-1.485,0.356-2.193,0.626l-1.105-2.025l-3.896,2.375l1.105,2.023
					c-0.58,0.515-1.119,1.082-1.607,1.694l-1.916-1.164l-2.247,4.11l1.907,1.163c-0.26,0.745-0.46,1.52-0.593,2.32h-2.198v4.748
					h2.198c0.133,0.805,0.339,1.575,0.597,2.322l-1.911,1.165l2.247,4.112l1.916-1.166c0.488,0.613,1.027,1.177,1.607,1.692
					l-1.105,2.025l3.895,2.374l1.106-2.022c0.703,0.274,1.436,0.48,2.193,0.625v2.328h4.498v-2.328
					c0.758-0.144,1.489-0.357,2.193-0.628l1.109,2.025l3.897-2.374l-1.107-2.025c0.58-0.515,1.119-1.082,1.607-1.692l1.915,1.166
					l2.251-4.112l-1.907-1.162c0.257-0.746,0.458-1.52,0.592-2.325H85.078z M70.083,84.832c-5.52,0-9.997-4.725-9.997-10.552
					s4.477-10.554,9.997-10.554c5.522,0,9.998,4.726,9.998,10.554S75.604,84.832,70.083,84.832z"/>
			</g>
			<g>
				<path class="st0" d="M77.581,74.28c0,4.372-3.356,7.913-7.498,7.913c-4.14,0-7.498-3.542-7.498-7.913
					c0-4.371,3.358-7.915,7.498-7.915C74.225,66.365,77.581,69.909,77.581,74.28z"/>
			</g>
		</g>
	</g>
</g>
</svg>
