<?xml version="1.0" encoding="utf-8"?>
<!-- Generator: Adobe Illustrator 22.1.0, SVG Export Plug-In . SVG Version: 6.00 Build 0)  -->
<svg version="1.1" id="レイヤー_1" xmlns="http://www.w3.org/2000/svg" xmlns:xlink="http://www.w3.org/1999/xlink" x="0px"
	 y="0px" viewBox="0 0 744 334" style="enable-background:new 0 0 744 334;" xml:space="preserve">
<style type="text/css">
	.st0{fill:#BFDCF5;}
	.st1{fill:#CAD2D8;}
	.st2{fill:#FF4960;}
	.st3{fill:#48D9A5;}
	.st4{fill:#B864EB;}
	.st5{fill:#FFC010;}
	.st6{fill:#FFFFFF;}
	.st7{fill:#DD435D;}
	.st8{fill:#FF5F7A;}
	.st9{fill:#DBAC13;}
	.st10{fill:#FFC757;}
	.st11{fill:#40B284;}
	.st12{fill:#7CD8B4;}
	.st13{opacity:0.5;}
	.st14{fill:#CCD2D6;}
	.st15{fill:#7F466B;}
	.st16{fill:#300800;}
	.st17{fill:#3F60BC;}
	.st18{fill:#F2DBCC;}
	.st19{fill:#1E3044;}
	.st20{fill:#FBE867;}
	.st21{fill:#D69D76;}
	.st22{fill:#CCCFD8;}
	.st23{fill:#00346E;}
	.st24{fill:#71A8FB;}
	.st25{fill:#91A5D7;}
	.st26{fill:#C3D7F0;}
	.st27{fill:#EEF7FF;}
	.st28{fill:#5E7AA1;}
	.st29{fill:#AD6C80;}
	.st30{fill:#573847;}
	.st31{fill:#939393;}
	.st32{fill:#5B5B5B;}
	.st33{fill:#855467;}
	.st34{fill:#FF7391;}
	.st35{fill:#FDFEFF;}
	.st36{fill:#654F5C;}
	.st37{fill:#69A6FF;}
#plan { -webkit-animation: plan 4s ease 0s infinite; -moz-animation: plan 4s ease 0s infinite; animation: plan 4s ease 0s infinite; -webkit-animation-fill-mode: both; -moz-animation-fill-mode: both; animation-fill-mode: both; }

@-webkit-keyframes plan { 0% { fill: #ff4960; }
  5% { fill: #b90017; }
  10% { fill: #b90017; }
  15% { fill: #ff4960; }
  100% { fill: #ff4960; } }
@-moz-keyframes plan { 0% { fill: #ff4960; }
  5% { fill: #b90017; }
  10% { fill: #b90017; }
  15% { fill: #ff4960; }
  100% { fill: #ff4960; } }
@keyframes plan { 0% { fill: #ff4960; }
  5% { fill: #b90017; }
  10% { fill: #b90017; }
  15% { fill: #ff4960; }
  100% { fill: #ff4960; } }
#do { -webkit-animation: do 4s ease 1s infinite; -moz-animation: do 4s ease 1s infinite; animation: do 4s ease 1s infinite; -webkit-animation-fill-mode: both; -moz-animation-fill-mode: both; animation-fill-mode: both; }

@-webkit-keyframes do { 0% { fill: #ffc010; }
  5% { fill: #ed9700; }
  10% { fill: #ed9700; }
  15% { fill: #ffc010; }
  100% { fill: #ffc010; } }
@-moz-keyframes do { 0% { fill: #ffc010; }
  5% { fill: #ed9700; }
  10% { fill: #ed9700; }
  15% { fill: #ffc010; }
  100% { fill: #ffc010; } }
@keyframes do { 0% { fill: #ffc010; }
  5% { fill: #ed9700; }
  10% { fill: #ed9700; }
  15% { fill: #ffc010; }
  100% { fill: #ffc010; } }
#check { -webkit-animation: check 4s ease 2s infinite; -moz-animation: check 4s ease 2s infinite; animation: check 4s ease 2s infinite; -webkit-animation-fill-mode: both; -moz-animation-fill-mode: both; animation-fill-mode: both; }

@-webkit-keyframes check { 0% { fill: #b864eb; }
  5% { fill: #7300b9; }
  10% { fill: #7300b9; }
  15% { fill: #b864eb; }
  100% { fill: #b864eb; } }
@-moz-keyframes check { 0% { fill: #b864eb; }
  5% { fill: #7300b9; }
  10% { fill: #7300b9; }
  15% { fill: #b864eb; }
  100% { fill: #b864eb; } }
@keyframes check { 0% { fill: #b864eb; }
  5% { fill: #7300b9; }
  10% { fill: #7300b9; }
  15% { fill: #b864eb; }
  100% { fill: #b864eb; } }
#act { -webkit-animation: act 4s ease 3s infinite; -moz-animation: act 4s ease 3s infinite; animation: act 4s ease 3s infinite; -webkit-animation-fill-mode: both; -moz-animation-fill-mode: both; animation-fill-mode: both; }

@-webkit-keyframes act { 0% { fill: #48d9a5; }
  5% { fill: #009861; }
  10% { fill: #009861; }
  15% { fill: #48d9a5; }
  100% { fill: #48d9a5; } }
@-moz-keyframes act { 0% { fill: #48d9a5; }
  5% { fill: #009861; }
  10% { fill: #009861; }
  15% { fill: #48d9a5; }
  100% { fill: #48d9a5; } }
@keyframes act { 0% { fill: #48d9a5; }
  5% { fill: #009861; }
  10% { fill: #009861; }
  15% { fill: #48d9a5; }
  100% { fill: #48d9a5; } }
</style>
<g>
	<path class="st0" d="M24.7,125c0.8-5.6,1.1-10.3,1.1-17.7V33.2c0-6.6-0.3-11.5-1.1-17.7c5.9,0.3,10.1,0.4,17.4,0.4h28.6
		c13.3,0,22.6,3.2,29.2,9.7c5.6,5.5,8.5,13.7,8.5,23.6c0,10.4-3.2,18.9-9.2,25.2c-6.7,6.7-16,9.9-29.2,9.9H43.9v22.8
		c0,7.5,0.3,12.7,1.1,18H24.7z M70.1,68.6c12.6,0,19.5-6.7,19.5-18.8c0-5.5-1.5-10-4.5-13.2c-3.2-3.4-7.7-4.9-14.9-4.9H43.9v36.9
		L70.1,68.6L70.1,68.6z"/>
</g>
<g>
	<path class="st0" d="M648.8,33.3c0-7.7-0.3-11.8-1.1-17.8c5.5,0.3,8.8,0.4,17.4,0.4h24.8c17.1,0,28.2,3.6,37,12.1
		c10,9.5,15.2,23.7,15.2,41.5c0,18.6-5.5,33.4-16.2,43.5c-8.8,8.4-19.7,12.1-35.9,12.1h-24.9c-8.4,0-11.8,0.1-17.4,0.4
		c0.8-5.6,1.1-9.9,1.1-18.1V33.3z M688.8,108.9c11.2,0,18.5-2.6,24.3-8.8c6.6-7,10-17.5,10-30.4c0-13-3.2-22.8-9.5-29.3
		c-5.6-5.9-12.7-8.2-24.7-8.2h-21.9v76.8L688.8,108.9L688.8,108.9z"/>
</g>
<g>
	<path class="st0" d="M93.9,325.2c-0.8-4.5-2.3-10.4-3.8-14.4l-5.5-14.9H40.7l-5.5,14.9c-2.5,6.4-3,8.6-4.1,14.4H8.6
		c2.1-3.7,4.8-9.9,7.3-16.2L46,229.9c2.6-6.9,3.7-10.3,4.4-13.8h23.8c0.7,3.3,1.5,5.5,4.7,13.8l30.4,79.1c3.4,8.6,5.1,12.6,7,16.2
		H93.9z M65,239.5c-0.5-1.5-1-3.2-2.5-7.7c-2.2,6.4-2.2,6.4-2.6,7.7l-14.3,40.6h34L65,239.5z"/>
</g>
<g>
	<path class="st0" d="M741.3,291.9c-2.6,9.9-5.1,15.2-9.2,20.6c-7.8,9.6-21,14.9-37.4,14.9c-14.9,0-26.9-4.5-35.2-13.2
		c-9.6-10-14.9-25.4-14.9-43c0-18.1,5.8-33.9,16-44.1c8.2-8.4,20.6-13,34.3-13c10.7,0,18.8,2.1,26.3,6.6c6.2,3.7,11.1,8.9,14.5,14.9
		c1.6,2.9,2.6,5.2,4.2,10.6l-19.1,4.2c-1.9-5.9-3.2-8.5-5.9-11.8c-4.7-5.5-11.5-8.4-20-8.4c-19.5,0-31.3,15.1-31.3,40.3
		c0,25.1,12.1,40.7,31.3,40.7c9.6,0,17.8-3.7,22.2-10.1c2.3-3.3,3.4-6.3,4.5-12.6L741.3,291.9z"/>
</g>
<g id="centeritem">
	<g>
		<g>
			<path class="st1" d="M378.6,98.9c-45.6,0-82.6,37-82.6,82.6s37,82.6,82.6,82.6c45.6,0,82.6-37,82.6-82.6S424.2,98.9,378.6,98.9z
				 M378.6,232.2c-28,0-50.7-22.7-50.7-50.7s22.7-50.7,50.7-50.7s50.7,22.7,50.7,50.7S406.6,232.2,378.6,232.2z"/>
		</g>
	</g>
	<g>
		<path id="plan" class="st2" d="M378.6,122c0.4,0,0.8,0,1.2,0l18.2-17.2l-18.2-19.8c-0.4,0-0.8,0-1.2,0c-52.7,0-95.5,43-96.1,95.6h37
			C320.1,148.4,346.3,122,378.6,122z"/>
	</g>
	<g>
		<path id="act" class="st3" d="M378.6,240.1c-32.6,0-59-26.4-59-59c0-0.2,0-0.3,0-0.5l-17.7-15.4l-19.3,15.4c0,0.2,0,0.3,0,0.5
			c0,53.1,43,96.1,96.1,96.1c0.4,0,1,0,1.4,0v-37C379.7,240,379,240.1,378.6,240.1z"/>
	</g>
	<g>
		<path id="check" class="st4" d="M437.7,181.3c0,32.1-25.6,58.2-57.5,59L361,257l19.1,20.4c52.4-0.8,94.6-43.5,94.6-96.1c0-0.2,0-0.3,0-0.5
			h-37C437.7,181,437.7,181.2,437.7,181.3z"/>
	</g>
	<path id="do" class="st5" d="M474.7,180L474.7,180c-0.5-52.1-42.9-94.3-94.9-95.1v37c31.6,0.8,57.4,26.4,57.9,58h0l0,0.5l18.2,15.6
		l18.8-15.6L474.7,180z"/>
	<g>
		<path class="st6" d="M317.7,146.5c-0.5-0.4-0.9-0.7-1.6-1.1l-6.9-4.3c-0.6-0.4-1.1-0.6-1.7-0.9c0.4-0.5,0.6-0.9,1-1.6l1.7-2.7
			c0.8-1.2,1.6-1.9,2.6-2.1c0.8-0.2,1.8,0,2.7,0.6c1,0.6,1.6,1.4,1.8,2.3c0.2,1,0,2.1-0.8,3.3l-1.5,2.4l2.1,1.3
			c0.7,0.4,1.2,0.7,1.7,0.9L317.7,146.5z M315.1,139c0.7-1.2,0.5-2.2-0.6-2.9c-0.5-0.3-1-0.4-1.5-0.3c-0.5,0.1-0.9,0.4-1.3,1.1
			l-1.5,2.4l3.4,2.1L315.1,139z"/>
		<path class="st6" d="M330.9,129.6c-0.4,0.3-0.8,0.7-1.5,1.5l-3,3.2c-0.6,0.6-0.9,1-1.3,1.4c-0.3-0.4-0.7-0.9-1.4-1.4l-5.7-5.3
			c-0.8-0.7-1.2-1.1-1.7-1.4l1.6-1.7c0.4,0.5,0.7,0.8,1.5,1.6l5.8,5.4l2.9-3.1c0.7-0.7,1-1.1,1.4-1.6L330.9,129.6z"/>
		<path class="st6" d="M340.2,122.3c-0.4-0.3-0.9-0.8-1.3-1l-1.4-1l-3.9,2.8l0.5,1.7c0.2,0.7,0.3,1,0.6,1.5l-2,1.4
			c-0.1-0.5-0.2-1.2-0.4-1.9l-2.4-8.9c-0.2-0.8-0.3-1.1-0.5-1.5l2.1-1.5c0.3,0.2,0.5,0.4,1.3,0.9l7.8,5c0.9,0.5,1.3,0.8,1.7,1
			L340.2,122.3z M332.1,116.6c-0.1-0.1-0.3-0.2-0.7-0.5c0.2,0.7,0.2,0.7,0.3,0.8l1.4,4.5l3-2.2L332.1,116.6z"/>
		<path class="st6" d="M351.7,116c-0.5-0.3-0.9-0.6-1.6-1l-6.1-3.5c-0.5-0.3-1.1-0.7-1.7-1.2c0.1,0.2,0.1,0.2,0.4,0.7
			c0.1,0.2,0.5,0.8,0.6,1.2l2.2,4.4c0.5,0.9,0.8,1.5,1.1,2l-2,1c-0.2-0.5-0.4-1.2-0.9-2.1l-3.4-7c-0.3-0.7-0.6-1.2-1-1.7l2.1-1
			c0.3,0.3,0.7,0.6,1.5,1l5.9,3.5c0.6,0.3,1.3,0.8,1.9,1.2c-0.3-0.5-0.8-1.3-1-1.9l-2.2-4.5c-0.4-0.8-0.7-1.3-1-1.8l2-1
			c0.2,0.6,0.4,1.1,0.8,1.9l3.5,7.1c0.4,0.8,0.6,1.2,1,1.7L351.7,116z"/>
	</g>
	<g>
		<path class="st6" d="M433.6,121.7c0.6-0.6,0.9-0.9,1.3-1.5c0.4,0.4,0.7,0.7,1.3,1.4l1.9,1.9c1.3,1.3,1.9,2.4,2,3.8
			c0.1,1.5-0.6,3-2,4.4c-1.4,1.5-3,2.2-4.6,2.2c-1.3,0-2.5-0.6-3.7-1.8l-2-1.9c-0.7-0.6-0.9-0.9-1.4-1.3c0.5-0.4,0.8-0.7,1.5-1.3
			L433.6,121.7z M430.9,130.7c0.9,0.9,1.6,1.2,2.6,1.2c1,0,2.1-0.6,3.1-1.6c1-1,1.5-2,1.5-3c0-0.9-0.4-1.6-1.3-2.5l-1.7-1.7l-5.9,6
			L430.9,130.7z"/>
		<path class="st6" d="M449.9,140.1c-0.3,1.5-1.3,2.9-2.9,4c-3.1,2.1-6.4,1.7-8.3-1.1c-1.9-2.8-1.1-6,2-8.2c1.6-1.1,3.3-1.5,4.8-1.2
			c1.4,0.3,2.5,1,3.4,2.3C449.9,137.3,450.2,138.6,449.9,140.1z M445.8,142.4c1.3-0.9,2-1.9,2.2-3c0.1-0.8,0-1.7-0.6-2.4
			c-1.2-1.8-3.4-1.9-5.6-0.4c-1.2,0.8-2,1.9-2.2,3c-0.1,0.8,0,1.7,0.6,2.4C441.4,143.8,443.5,143.9,445.8,142.4z"/>
	</g>
	<g>
		<path class="st6" d="M409.6,253.3c0.1,1.1,0,1.8-0.2,2.5c-0.5,1.3-1.6,2.3-3.4,2.9c-1.5,0.5-2.9,0.5-4.1-0.1
			c-1.3-0.7-2.4-2.1-3.1-3.9c-0.6-1.9-0.6-3.7,0.1-5.1c0.6-1.2,1.7-2.1,3.1-2.6c1.1-0.4,2-0.4,3-0.2c0.8,0.2,1.5,0.5,2,1
			c0.3,0.2,0.5,0.4,0.8,0.9l-1.8,1.1c-0.4-0.5-0.6-0.8-1-1c-0.7-0.4-1.5-0.5-2.4-0.2c-2,0.7-2.7,2.7-1.8,5.3
			c0.9,2.6,2.7,3.8,4.7,3.1c1-0.3,1.7-1,1.9-1.8c0.1-0.4,0.1-0.8,0-1.5L409.6,253.3z"/>
		<path class="st6" d="M418.4,239.1c0.2,0.6,0.4,1,0.9,1.7l4.1,7c0.4,0.7,0.7,1.1,1.1,1.6l-1.9,1.1c-0.2-0.6-0.4-1-0.9-1.7l-1.7-2.9
			l-5.2,3l1.7,2.9c0.4,0.7,0.7,1.1,1.1,1.6l-1.9,1.1c-0.2-0.5-0.4-1-0.9-1.7l-4.1-7c-0.4-0.8-0.7-1.2-1.1-1.6l1.9-1.1
			c0.2,0.6,0.5,1,0.9,1.7l1.5,2.5l5.2-3l-1.5-2.5c-0.4-0.7-0.7-1.2-1.1-1.6L418.4,239.1z"/>
		<path class="st6" d="M435.8,240.1c-0.5,0.3-0.8,0.6-1.5,1.2l-3.5,3.1c-0.7,0.6-1,0.9-1.4,1.3c-0.3-0.5-0.6-0.9-1.2-1.6l-5.4-6.1
			c-0.5-0.6-0.8-0.9-1.4-1.4c0.5-0.4,0.8-0.6,1.5-1.2l3.4-3c0.6-0.5,0.9-0.9,1.4-1.4l1.3,1.5c-0.5,0.3-0.9,0.6-1.5,1.2l-3.2,2.9
			l2.1,2.3l2.7-2.4c0.6-0.5,0.9-0.9,1.4-1.4l1.3,1.5c-0.5,0.3-0.8,0.6-1.5,1.2l-2.7,2.4l2.4,2.6l3.4-3c0.6-0.6,0.9-0.9,1.4-1.4
			L435.8,240.1z"/>
		<path class="st6" d="M442.9,225.5c0.7,0.9,1,1.4,1.2,2.2c0.3,1.3-0.1,2.8-1.2,4.3c-1,1.3-2.2,2-3.5,2.2c-1.5,0.2-3.2-0.4-4.7-1.5
			c-1.6-1.2-2.6-2.7-2.8-4.3c-0.2-1.3,0.2-2.7,1.1-3.9c0.7-0.9,1.4-1.5,2.3-1.9c0.7-0.3,1.5-0.4,2.3-0.3c0.4,0,0.6,0.1,1.2,0.3
			l-0.9,1.9c-0.6-0.2-1-0.3-1.4-0.3c-0.8,0-1.5,0.5-2.1,1.2c-1.3,1.7-0.8,3.7,1.5,5.4c2.2,1.7,4.4,1.6,5.6,0
			c0.6-0.8,0.9-1.8,0.6-2.6c-0.1-0.4-0.3-0.7-0.8-1.2L442.9,225.5z"/>
		<path class="st6" d="M450.9,214.2c1.5-0.3,1.8-0.3,2.4-0.5l-1.2,2.5c-0.5,0-1.2,0.1-1.8,0.1l-5.1,0.8l0.7,2.2l2,1
			c0.8,0.4,1.2,0.6,1.8,0.7l-1,2c-0.6-0.4-1-0.6-1.7-1l-7.2-3.6c-0.7-0.4-1.2-0.6-1.8-0.8l1-2c0.4,0.3,0.9,0.6,1.7,1l3.1,1.6
			l-1.8-5.2c-0.3-0.8-0.5-1.2-0.8-1.7l1.3-2.5c0.2,0.6,0.4,1.2,0.7,2.1l1.5,4.3L450.9,214.2z"/>
	</g>
	<g>
		<path class="st6" d="M307.5,219.7c0.4-0.3,1-0.6,1.3-1l1.3-1.1l-1.7-4.5l-1.7,0c-0.8,0-1,0-1.6,0.1l-0.9-2.3
			c0.5,0.1,1.2,0.1,1.9,0.1l9.3,0c0.8,0,1.2,0,1.6-0.1l0.9,2.4c-0.3,0.2-0.5,0.4-1.2,1l-6.9,6.2c-0.8,0.7-1.1,1-1.4,1.3L307.5,219.7
			z M315.1,213.4c0.1-0.1,0.3-0.2,0.7-0.6c-0.7,0-0.7,0-0.9,0l-4.7,0.1l1.3,3.5L315.1,213.4z"/>
		<path class="st6" d="M319.1,233c-1.1,0.3-1.7,0.4-2.4,0.4c-1.3-0.2-2.6-1.1-3.6-2.6c-0.9-1.4-1.2-2.8-0.9-4
			c0.4-1.5,1.5-2.9,3.1-3.9c1.7-1.1,3.5-1.5,5-1.1c1.3,0.3,2.4,1.1,3.2,2.4c0.6,1,0.9,1.9,0.9,2.8c0,0.8-0.2,1.6-0.5,2.2
			c-0.2,0.3-0.3,0.5-0.7,1l-1.5-1.5c0.4-0.5,0.6-0.8,0.7-1.2c0.2-0.8,0.1-1.6-0.4-2.3c-1.1-1.8-3.2-2-5.6-0.5
			c-2.3,1.5-3.1,3.5-1.9,5.3c0.6,0.9,1.4,1.4,2.2,1.5c0.4,0,0.8-0.1,1.4-0.3L319.1,233z"/>
		<path class="st6" d="M324.6,241.6c-0.6,0.6-1,1-1.3,1.4l-1.6-1.6c0.5-0.4,0.9-0.7,1.5-1.3l5.9-5.6l-1.4-1.5
			c-0.6-0.6-1.1-1.1-1.5-1.4l1.5-1.4c0.3,0.4,0.7,0.9,1.3,1.6l4.1,4.3c0.7,0.8,1.1,1.2,1.6,1.5l-1.5,1.4c-0.3-0.5-0.7-0.9-1.4-1.7
			l-1.3-1.4L324.6,241.6z"/>
	</g>
</g>
<g>
	<g>
		<g>
			<polygon class="st7" points="151.8,309.6 134.4,297.3 151.8,266.6 			"/>
		</g>
		<g>
			<polygon class="st8" points="151.8,309.6 151.8,266.6 169.1,297.3 			"/>
		</g>
		<g>
			<polygon class="st9" points="151.8,297.6 151.8,266.6 139.3,288.7 			"/>
		</g>
		<g>
			<polygon class="st10" points="151.8,266.6 151.8,297.6 164.3,288.7 			"/>
		</g>
		<g>
			<polygon class="st11" points="151.8,285.7 151.8,266.6 144.1,280.2 			"/>
		</g>
		<g>
			<polygon class="st12" points="151.8,266.6 151.8,285.7 159.5,280.2 			"/>
		</g>
	</g>
	<g>
		<g class="st13">
			<g>
				<ellipse class="st14" cx="245.4" cy="307.8" rx="17.3" ry="7.7"/>
			</g>
		</g>
		<g class="st13">
			<g>
				<ellipse class="st14" cx="199.2" cy="325.9" rx="17.3" ry="7.7"/>
			</g>
		</g>
		<g>
			<path class="st15" d="M201.4,321.1l-3.1,7.1c-0.1,0.2-0.1,0.3-0.1,0.5l-0.2,3.1c-0.1,1,0.8,1.8,1.7,1.6c1.6-0.2,3.9-0.6,5.4-1.2
				c1.8-0.8,4.4-1.4,5.6-1.6c0.4-0.1,0.8-0.3,1-0.7l1.1-1.7c0.7-1.1-0.1-2.5-1.4-2.4l-5.7,0.4c-1,0.1-1.8-0.8-1.6-1.8l0.4-2.6
				c0.2-1.2-1-2.1-2.2-1.6l0,0C201.9,320.4,201.6,320.7,201.4,321.1z"/>
		</g>
		<g>
			<path class="st15" d="M190.9,318.1c0,0,4.1-0.3,5.5,0.3s-0.1,2.3-0.1,2.3l-3.2,3.7c-0.3,0.4-0.5,0.8-0.6,1.3l0,0
				c-0.1,1.3-1.3,2.3-2.6,2.2l-0.2,0c-1.2-0.1-2.1-1-2.2-2.2c-0.2-1.8-0.2-4.3,0.6-5.6C189.5,318.1,190.9,318.1,190.9,318.1z"/>
		</g>
		<g>
			<path class="st16" d="M240.7,297.6l-0.6,4.5l-7.1,3.7c-0.8,0.4-1.4,1.3-1.5,2.2l-0.1,1.4l4.5-1l4.8-1.3h3.5l2.3-0.6l-0.6-4.5
				l-2.3-4.5H240.7z"/>
		</g>
		<g>
			<path class="st16" d="M253.8,304.5l-0.2,2.7c0,0.3-0.1,0.5-0.2,0.7l-3.9,6.7c-0.3,0.4-0.3,1-0.1,1.5l0.3,0.9
				c0.3,0.9,1.3,1.3,2.2,0.9l2.9-1.3c0.4-0.2,0.7-0.5,0.9-0.9l1.8-4.7c0.1-0.3,0.1-0.6,0.1-1l-0.5-2.2c0-0.1,0-0.2,0-0.4l0-2.7
				c0-1-0.8-1.7-1.8-1.7l0,0C254.5,303,253.8,303.7,253.8,304.5z"/>
		</g>
		<g>
			<path class="st6" d="M253.3,304.4c0,0.1,0.3,2.1,0.3,2.1s0.6,0.4,1.7,0.4c1.1-0.1,1.8-0.3,1.8-0.3l0.1-3L253.3,304.4z"/>
		</g>
		<g>
			<path class="st6" d="M240.1,298.6c0,0.1,0.3,2.1,0.3,2.1s0.6,0.4,1.7,0.4c1.1-0.1,2.8-0.8,2.8-0.8l-0.9-2.6L240.1,298.6z"/>
		</g>
		<g>
			<path class="st17" d="M249.4,251.3l4.5,2.6l1,27.3l2.6,22.5c0,0-1,3.5-4.8,1l-6.1-24.4l-1.9-17l-1.6,0.1l-1,15.6l2.7,19.9
				c0,0-3.8,1.6-5.4,0.3l-4.7-22.1v-26.4L249.4,251.3z"/>
		</g>
		<g>
			<path class="st18" d="M236.8,226.2c0.7-2.3-2.6-3.7-3.7-1.6c0,0,0,0.1,0,0.1c-1.5,3-7.9,21.2-8.7,23.2c0,0.1-0.1,0.2-0.2,0.4
				l-3.7,6.3c-0.2,0.4-0.3,0.9-0.3,1.3l0.3,2.2c0.1,0.9,0.9,1.6,1.8,1.7c1.2,0.2,1.6-0.3,2.1-0.6c1.5-1.1,0.6-4,0.8-5.4
				c0-0.2,0.1-0.4,0.2-0.6l7.8-16c0-0.1,0.1-0.2,0.1-0.3L236.8,226.2z"/>
		</g>
		<g>
			<polygon class="st6" points="232.4,232.4 235.6,254.9 251,257.7 254.2,235.6 243.9,225.3 237.5,225.6 			"/>
		</g>
		<g>
			<path class="st18" d="M194,237.3h-0.6c-2.6,0-4.8,1.6-5.7,4l-7.2,14.5c-0.5,1.1-0.4,2.4,0.4,3.4l10.2,12.1l1.7-5.5l-6.3-8.6
				l2.2-8.5L194,237.3z"/>
		</g>
		<g>
			<path class="st18" d="M196.4,237.7l8.9,5.4c1.5,0.9,2.6,2.2,3.3,3.7l6.7,12.4l5.4-2.4l2.7,2.7l-5.6,4.8c-1.2,1-2.9,0.9-3.9-0.3
				l-8.3-7.7l-0.1,22.5l-7-0.4l-7.1-8.5l-2.9-24.7l3.1-7.8L196.4,237.7z"/>
		</g>
		<g>
			<path class="st19" d="M188.8,267.4l-1.3,8.9l1.5,23.2l-1.3,22.2c0,0,3.2,4,5.3-0.2s3.1-19,3.1-19l-0.1-20.7l1,1l2.6,23.2l-1,20.7
				c0,0,3.5,2.1,5.5-0.7s3.1-23.5,3.1-23.5l-1-31.9L188.8,267.4z"/>
		</g>
		<g>
			<path class="st18" d="M194.6,239.4l1.6-4.9l-2.1-6.8l3.7-4.7l9.4-0.1l-0.5,2.7l2.1,1.3l-2.7,9.8c-0.3,1.1-1.3,1.9-2.5,2l-2.4,0
				l-1.7,4.5L194.6,239.4z"/>
		</g>
		<g>
			<path class="st20" d="M236.4,221.6l-1.8,0.8c-0.1,0-0.2,0.1-0.2,0.1c-0.5,0.1-2.8,0.9-3.4,4.5c-1,6-6.1,14.2-5.2,12.5l-1.1,4
				c-0.2,0.8,0.4,1.6,1.2,1.6h1.4c0.9,0,1.5,0.9,1.1,1.7l-0.1,0.2l1.3-0.4c0.3-0.1,0.6-0.3,0.7-0.6l0,0c0.6-1.2,2.4-0.7,2.3,0.6
				l-0.4,6.9c0,0.2,0,0.3,0.1,0.5l1.3,3.7c0.1,0.4,0.4,0.7,0.8,0.8l1.3,0.4c0.8,0.2,1.5-0.3,1.6-1.1c0,0-0.7-11.9-0.3-17.3
				c0.5-5.4,3.2-13.4,3.2-13.4c0-0.3,0-0.5-0.1-0.7l-2.2-4.1C237.7,221.6,237,221.4,236.4,221.6z"/>
		</g>
		<g>
			<polygon class="st18" points="245.2,220.1 247.1,226.2 246.2,228.2 241.4,229.1 238.1,223.3 			"/>
		</g>
		<g>
			<polygon class="st18" points="239.4,208.9 236.8,213.4 236.8,224.3 241.7,225.3 247.8,220.1 249.4,219.5 249.7,216.6 
				246.5,216.3 245.9,210.8 241.7,211.4 			"/>
		</g>
		<g>
			<path class="st15" d="M246.1,210.7l-4.3,1.5l-0.1-0.7l-2.6,0.8l0.4-1.8l-2.7,3.2l0.1,2.8l-2.1-4.2l2.8-4.6l2.4-1.7
				c0,0,1.9,0.7,3,0.7c1.1,0.1,4-0.8,5.6,0.3s1.7,2.5,1.8,2.8s1.2,5,1.1,5.3s-1.6,5.3-1.6,5.3l-2.5,2l-1.9-0.7l0.7-2
				c0,0,1.9-0.6,2-1.5s0.1-1.7-0.1-1.7c-0.2,0-2,0.3-2,0.3l-0.9,1l-0.5-1.5l0.5-4.9L246.1,210.7z"/>
		</g>
		<g>
			<polygon class="st16" points="237.7,254.6 246.3,256.5 246.4,258 237.6,256.1 			"/>
		</g>
		<g>
			<path class="st18" d="M245.3,227.5c-0.5-0.8,0.3-1.9,1.2-1.6l5.1,1.3c0,0,1.3,0,4.5,5.5c2.9,4.9,5.5,12.9,6,14.5
				c0.1,0.2,0.1,0.4,0,0.6l-3.4,16c-0.1,0.2,0,0.5,0.1,0.7c0.5,1,1.9,4.2-0.5,6.1c-1,0.8-1.8,1.2-2.4,1.4c-0.8,0.3-1.6-0.5-1.4-1.3
				l0.4-1.5c0.1-0.5-0.1-1-0.6-1.2l0,0c-0.6-0.3-0.8-1.1-0.4-1.6l1.3-1.9c0.1-0.2,0.2-0.4,0.2-0.6v-15.5c0-0.1,0-0.3-0.1-0.4
				l-3.8-9.7c0-0.1-0.1-0.1-0.1-0.2L245.3,227.5z"/>
		</g>
		<g>
			<path class="st20" d="M246.6,224.2c0,0,4.1,1.4,6.2,3.5c2.2,2.2,4.6,5.8,4.6,5.8l5.9,13.8l-1.5,6.3c0,0-4.9-2.9-6.8-0.8l-0.2-7
				l0.2,14.3l-8.5-1l-2-19L246.6,224.2z"/>
		</g>
		<g>
			<polygon class="st18" points="219.7,260.3 218.5,257 220,253.7 222,253.5 224.8,255.9 224.5,259.5 223.7,260.4 219.9,262 			"/>
		</g>
		<g>
			<path class="st21" d="M204.5,230.5c0,0-1.6-0.5-1.9,0.8c-0.2,0.8-0.1,1.7-0.1,1.7s0.1,1.5,1.1,1.4s-1.5,4.1-1.5,4.1l-0.8,0.3
				c0,0-2.9-2.4-4.8-2.6c-0.5-0.1-0.9-0.5-0.8-1c0-0.2,0-0.4,0-0.7c-0.1-0.8-3-4.5-2-7.5c1-2.9,3.3-6.9,6.2-6.5
				c1.7,0.2,2.9,0.8,3.6,1.3c0.6,0.4,1.3,0.6,2,0.7l1.5,0.2c0.5,0.1,0.9,0.5,0.8,1l0,0c0,0.4,0.1,0.7,0.5,0.9
				c0.4,0.2,0.8,0.5,1.1,0.8c0.3,0.5-0.2,1.6-0.4,2c0,0.1-0.1,0.2-0.1,0.2l-0.2,0.9c-0.1,0.5-0.5,0.8-1,0.7l-0.2,0
				c-0.5-0.1-0.9,0.2-1,0.7l-0.1,0.6c0,0.1-0.1,0.3-0.2,0.4l-1,1.1L204.5,230.5z"/>
		</g>
		<g>
			<path class="st21" d="M188.5,269.3l-0.3,1.9l8.1,2.2c0,0,6.2,0,6.8-0.2s3.3-0.3,3.3-0.3l-0.2-2.3L188.5,269.3z"/>
		</g>
		<g>
			<path class="st6" d="M198.4,238.4c0,0,6.6,4.3,8.4,5.4c1.8,1.1,4.4,6.3,4.9,7.5c0.5,1.2,1.5,3.6,1.5,3.6s-1.1,7.3-3.3,6.4
				l-3.2-2.9v8.8l-0.4,4.8l-10.5-0.3l-7.4-1.9l-0.1-7.5v-7.1c0,0-4.2,1.5-7.1-2.9l6.6-11.7c0.7-2.1,2.8-3.5,5-3.5l1.8,0L198.4,238.4
				z"/>
		</g>
		<g>
			<polygon class="st22" points="193.7,237.3 194.6,235.8 197.7,236.8 201.6,240.2 202.5,241.3 196.3,238.3 			"/>
		</g>
	</g>
</g>
<g>
	<g class="st13">
		<g>
			<ellipse class="st14" cx="579.8" cy="114.3" rx="16.3" ry="8.5"/>
		</g>
	</g>
	<g>
		<path class="st23" d="M573.8,109.7c0,0-1.1,4.4-1.4,4.4c-0.4,0-4.3,1.8-2.5,3.3c1.8,1.6,3.3,2.5,6.2-0.2s5.4-4.4,5.4-4.8
			s-1.8-4.3-1.8-4.3L573.8,109.7z"/>
	</g>
	<g>
		<polygon class="st24" points="570.3,63.1 567.7,86 573.7,111.2 580,108.9 575.8,86.7 580.6,64.1 		"/>
	</g>
	<g>
		<path class="st18" d="M569.3,35.7c-0.1,0.3-3,5.2-3.7,6.7c-0.7,1.5-5.6,8.1-5.6,8.1s-1.4,10.7,3.2,4.7c3.1-4,6.1-9,6.1-9l3.1-6.1
			L569.3,35.7z"/>
	</g>
	<g>
		<path class="st23" d="M582.8,110.7l-1,2.7c0,0-4.1,2.1-4.9,3.7s0.9,2.8,1.2,2.9c0.3,0.2,2.3,0.6,4-0.9s2.6-2.4,2.9-2
			s3.2-0.6,3.7-1.4c0.6-0.8-0.3-3.6-0.3-3.6L582.8,110.7z"/>
	</g>
	<g>
		<path class="st24" d="M570.6,57.3l18.9,2.7l-1.2,25l1,28c0,0-6.7-0.2-6.8-1.3c-1.1-6.2-2.5-26.3-2.5-26.3l-1.2-27.2L570.6,57.3z"
			/>
	</g>
	<g>
		<path class="st23" d="M583.3,31.8c0,0,3.7-1.6,6.3,0.3c2.6,1.9,6.2,12.5,6.2,12.5s-3.5,1.2-4.7,1.7c-1.2,0.5-1.6,4.4-1.6,4.4
			s3.1,13.6-2.6,15.6c-6.5,2.3-15.4-3.1-15.4-3.1l0.2-22.4c0,0-3.6-4.4-2.8-6.2c0.9-1.7,0-8.7,5.2-7.7L583.3,31.8z"/>
	</g>
	<g>
		<path class="st18" d="M575.3,18c-1,0.7-1.6,1.4-1.9,3.8s-1.9,7.7,0.5,8.2c2.4,0.5,4.5,3.1,7,0.2s4.9-7.8,4.9-8.4
			C585.7,21.3,575.3,18,575.3,18z"/>
	</g>
	<g>
		<ellipse class="st18" cx="583.3" cy="26.5" rx="1.7" ry="2"/>
	</g>
	<g>
		<path class="st18" d="M578.1,30l-1.8-0.1c0,0-0.2,4.1,1.1,5.7c0.3,0.4,0.7,0.6,1,0.6c1.9,0,5.8-4.8,5.8-4.8l-1.2-0.2l-0.1-3.6
			L578.1,30z"/>
	</g>
	<g>
		<path class="st21" d="M580.2,15.9c-0.3,0.1-2-1.6-2.3-2c-0.3-0.3-1.3,1.3-1.3,1.3l-0.9-0.5l-0.2,1.4l-2.4,0.2c0,0-0.7,1.9,0.8,3.5
			s5.9,2.3,7.2,1.7c1.3-0.6,2.3,0.3,2.3,0.3l-1,3.8l2-1.2l-1.4,4.1l-0.1,2.1c0,0,3-7.7,4.4-7.7s0.7-4.9,0.7-4.9
			S585.4,14.2,580.2,15.9z"/>
	</g>
	<g>
		<polygon class="st25" points="573.2,65.9 562.4,61.9 562.4,46.2 573.2,50.1 		"/>
	</g>
	<g>
		<path class="st18" d="M561.1,54.5c0,0,1.8-1.8,2.6-1.3s-0.4,2.3-0.4,2.3s2.7,0.9,2.1,2.3c-0.6,1.4-2.3,5.3-3.4,3
			C560.8,58.5,558.8,56.4,561.1,54.5z"/>
	</g>
	<g>
		
			<ellipse transform="matrix(0.2209 -0.9753 0.9753 0.2209 387.9849 596.8294)" class="st26" cx="567.6" cy="55.6" rx="1" ry="1.1"/>
	</g>
	<g>
		<ellipse transform="matrix(0.9388 -0.3446 0.3446 0.9388 15.6487 198.6516)" class="st26" cx="566.7" cy="55.3" rx="0.8" ry="1"/>
	</g>
	<g>
		<path class="st27" d="M573.4,50c0,0-0.1,0-0.3,0.1s-10.8-4-10.8-4L563,46L573.4,50z"/>
	</g>
	<g>
		<polygon class="st28" points="573.2,65.9 573.6,65.6 573.5,50.1 573.2,50.1 		"/>
	</g>
	<g>
		<g>
			<ellipse transform="matrix(0.883 -0.4693 0.4693 0.883 51.7578 240.5667)" class="st0" cx="508.5" cy="16.4" rx="2.5" ry="1.9"/>
		</g>
		<g>
			<ellipse transform="matrix(0.883 -0.4693 0.4693 0.883 43.4254 231.5065)" class="st0" cx="486.1" cy="28.6" rx="2.5" ry="1.9"/>
		</g>
		<g>
			<path class="st0" d="M483.3,45.2V17.1l35.4-17.4v28.9L483.3,45.2z M484.5,17.9v25.4l33-15.4V1.7L484.5,17.9z"/>
		</g>
		<g>
			<path class="st0" d="M513.9,85.9v-47l35.6-18v48.3L513.9,85.9z M515.1,39.6v44.4l33.2-15.6V22.8L515.1,39.6z"/>
		</g>
		<g>
			<path class="st0" d="M533.8,50.4V34.2l12.4-6.3v16.6L533.8,50.4z M535,34.9v13.5l10-4.7V29.9L535,34.9z"/>
		</g>
		<g>
			
				<rect x="516.3" y="54" transform="matrix(0.8984 -0.4392 0.4392 0.8984 30.0782 239.1501)" class="st0" width="31.2" height="1.2"/>
		</g>
		<g>
			
				<rect x="516.4" y="38.6" transform="matrix(0.8981 -0.4398 0.4398 0.8981 36.2285 234.7736)" class="st0" width="16.6" height="1.2"/>
		</g>
		<g>
			
				<rect x="517.2" y="43.2" transform="matrix(0.8981 -0.4398 0.4398 0.8981 34.2962 235.5745)" class="st0" width="16.6" height="1.2"/>
		</g>
		<g>
			
				<rect x="516.4" y="48.8" transform="matrix(0.8981 -0.4398 0.4398 0.8981 31.7389 235.8136)" class="st0" width="16.6" height="1.2"/>
		</g>
		<g>
			
				<rect x="516.4" y="53.4" transform="matrix(0.8981 -0.4398 0.4398 0.8981 29.7291 236.2792)" class="st0" width="16.6" height="1.2"/>
		</g>
		<g>
			
				<rect x="516.3" y="57.6" transform="matrix(0.8984 -0.4392 0.4392 0.8984 28.4725 239.5216)" class="st0" width="31.2" height="1.2"/>
		</g>
		<g>
			
				<rect x="516.3" y="61.4" transform="matrix(0.8984 -0.4392 0.4392 0.8984 26.7995 239.9086)" class="st0" width="31.2" height="1.2"/>
		</g>
		<g>
			<path class="st0" d="M538.3,69.8c-0.7,0-1.3-0.2-1.8-0.5c-0.8-0.5-1.2-1.4-1.2-2.4c0-2.3,2.1-5,4.7-6.1c1.5-0.6,3-0.6,4,0
				c0.8,0.5,1.2,1.4,1.2,2.4c0,2.3-2.1,5-4.7,6.1C539.7,69.6,538.9,69.8,538.3,69.8z M542.1,61.5c-0.5,0-1.1,0.1-1.7,0.4
				c-2.1,0.9-4,3.2-4,5c0,0.6,0.2,1.1,0.7,1.4c0.6,0.4,1.7,0.4,2.8-0.1c2.1-0.9,4-3.2,4-5c0-0.6-0.2-1.1-0.7-1.4
				C543,61.6,542.6,61.5,542.1,61.5z"/>
		</g>
		<g>
			<path class="st0" d="M523.8,77.1c-0.7,0-1.3-0.2-1.8-0.5c-0.8-0.5-1.2-1.4-1.2-2.4c0-2.3,2.1-5,4.7-6.1c1.5-0.6,3-0.6,4,0
				c0.8,0.5,1.2,1.4,1.2,2.4c0,2.3-2.1,5-4.7,6.1C525.2,76.9,524.5,77.1,523.8,77.1z M527.6,68.8c-0.5,0-1.1,0.1-1.7,0.4
				c-2.1,0.9-4,3.2-4,5c0,0.6,0.2,1.1,0.7,1.4c0.6,0.4,1.7,0.4,2.8-0.1c2.1-0.9,4-3.2,4-5c0-0.6-0.2-1.1-0.7-1.4
				C528.5,68.9,528.1,68.8,527.6,68.8z"/>
		</g>
		<g>
			<polygon class="st0" points="497.9,32.3 486.7,29.5 487,28.3 497.4,30.9 508.2,15.8 518.1,18.8 517.8,20 508.7,17.3 			"/>
		</g>
		<g>
			<ellipse transform="matrix(0.883 -0.4693 0.4693 0.883 43.6356 237.2251)" class="st0" cx="497.7" cy="31.1" rx="2.5" ry="1.9"/>
		</g>
		<g>
			<g>
				<path class="st0" d="M481.9,105.4c-5.7,0-10.4-2.1-13.3-5.9c-2.7-3.5-3.5-8.1-2.2-12.9c2.7-10.2,13.9-18.4,25-18.4
					c5.7,0,10.4,2.1,13.3,5.9c2.7,3.5,3.5,8.1,2.2,12.9C504.2,97.2,493,105.4,481.9,105.4z M491.3,69.6c-10.5,0-21,7.8-23.6,17.3
					c-1.1,4.4-0.4,8.5,2,11.7c2.6,3.4,7,5.3,12.2,5.3c10.5,0,21-7.8,23.6-17.3l0,0c1.1-4.4,0.4-8.5-2-11.7
					C500.8,71.5,496.5,69.6,491.3,69.6z"/>
			</g>
			<g>
				<path class="st0" d="M483.1,100.6c-4.2,0-7.7-1.6-9.9-4.4c-2-2.6-2.6-6-1.7-9.6c2-7.5,10.3-13.6,18.4-13.6
					c4.2,0,7.7,1.6,9.9,4.4c2,2.6,2.6,6,1.7,9.6C499.6,94.5,491.3,100.6,483.1,100.6z M490,74.4c-7.6,0-15.2,5.6-17,12.5
					c-0.8,3.1-0.3,6.1,1.4,8.4c1.9,2.5,5,3.8,8.7,3.8c7.6,0,15.2-5.6,17-12.5c0.8-3.1,0.3-6.1-1.4-8.4
					C496.9,75.8,493.8,74.4,490,74.4z"/>
			</g>
			<g>
				<g>
					<g>
						<path class="st0" d="M481.9,96.4c-0.9-0.2-1.1-1.2-0.5-2.2l0.4-0.7c-0.7-0.5-1.2-1.2-1.5-2.2l-0.7,0.2c-0.5,0.2-1,0.1-1.3-0.1
							c-0.3-0.2-0.5-0.6-0.5-1.1s0.3-1,0.7-1.4c0.4-0.4,0.9-0.8,1.4-1l0.7-0.2c0.2-0.6,0.5-1.1,0.8-1.7c0.3-0.6,0.7-1.1,1.1-1.6
							l-0.3-0.5c-0.2-0.3-0.3-0.8-0.1-1.3s0.5-1,1-1.4s1-0.6,1.5-0.6c0.5,0,0.9,0.1,1.1,0.4l0.3,0.5c1.1-0.6,2.3-1,3.4-1.1l0.4-0.7
							c0.6-1,1.8-1.7,2.6-1.5s1.1,1.2,0.5,2.2l-0.4,0.7c0.7,0.5,1.2,1.2,1.5,2.2l0.7-0.2c0.5-0.2,1-0.1,1.3,0.1
							c0.3,0.2,0.5,0.6,0.5,1.1s-0.3,1-0.7,1.4c-0.4,0.4-0.9,0.8-1.4,1l-0.7,0.2c-0.2,0.6-0.5,1.1-0.8,1.7c-0.3,0.6-0.7,1.1-1.1,1.6
							l0.3,0.5c0.2,0.3,0.3,0.8,0.1,1.3c-0.2,0.5-0.5,1-1,1.4s-1,0.6-1.5,0.6c-0.5,0-0.9-0.1-1.1-0.4l-0.3-0.5
							c-1.1,0.6-2.3,1-3.4,1.1l-0.4,0.7C484,95.9,482.8,96.6,481.9,96.4z M481.1,90.2c0.1,0,0.2,0.1,0.2,0.2c0.2,1,0.7,1.8,1.6,2.3
							c0.2,0.1,0.2,0.3,0.1,0.6l-0.7,1.1c-0.3,0.4-0.2,0.8,0.2,0.9c0.4,0.1,0.9-0.2,1.1-0.6l0.7-1.1c0.1-0.2,0.4-0.4,0.7-0.4
							c1.1,0,2.4-0.4,3.6-1.2c0.2-0.2,0.5-0.1,0.6,0l0.5,0.7c0.1,0.1,0.3,0.2,0.5,0.2c0.2,0,0.4-0.1,0.6-0.3s0.3-0.4,0.4-0.6
							c0.1-0.2,0.1-0.4,0-0.5l0,0l-0.5-0.7c-0.1-0.2,0-0.4,0.2-0.7c0.5-0.5,0.9-1.1,1.2-1.7c0.3-0.6,0.6-1.2,0.8-1.8
							c0.1-0.2,0.3-0.5,0.6-0.6l1.2-0.4c0.2-0.1,0.4-0.2,0.6-0.4s0.3-0.4,0.3-0.6c0-0.2-0.1-0.4-0.2-0.5c-0.1-0.1-0.3-0.1-0.6,0
							l-1.2,0.4c-0.3,0.1-0.5,0-0.5-0.2c-0.2-1-0.7-1.8-1.6-2.3c-0.2-0.1-0.2-0.3-0.1-0.6l0.7-1.1c0.3-0.4,0.2-0.8-0.2-0.9
							s-0.9,0.2-1.1,0.6l-0.7,1.1c-0.1,0.2-0.4,0.4-0.7,0.4c-1.1,0-2.4,0.4-3.6,1.2c-0.2,0.2-0.5,0.1-0.6,0l-0.5-0.7
							c-0.1-0.1-0.3-0.2-0.5-0.2c-0.2,0-0.4,0.1-0.6,0.3c-0.2,0.2-0.3,0.4-0.4,0.6s-0.1,0.4,0,0.5l0.5,0.7c0.1,0.2,0,0.4-0.2,0.7
							c-0.5,0.5-0.9,1.1-1.2,1.7s-0.6,1.2-0.8,1.8c-0.1,0.2-0.3,0.5-0.6,0.6l-1.2,0.4c-0.2,0.1-0.4,0.2-0.6,0.4s-0.3,0.4-0.3,0.6
							c0,0.2,0.1,0.4,0.2,0.5c0.1,0.1,0.3,0.1,0.6,0l1.2-0.4C480.9,90.2,481,90.2,481.1,90.2z"/>
					</g>
				</g>
				<g>
					<g>
						<path class="st0" d="M485.6,90.2c-1.3-0.3-1.7-1.7-0.8-3.3s2.7-2.5,4-2.2c1.3,0.3,1.7,1.7,0.8,3.3
							C488.6,89.4,486.9,90.4,485.6,90.2z M488.2,85.7c-0.8-0.2-1.9,0.5-2.5,1.4c-0.6,0.9-0.3,1.8,0.5,2s1.9-0.5,2.5-1.4
							S489,85.9,488.2,85.7z"/>
					</g>
				</g>
			</g>
		</g>
	</g>
	<g>
		<g class="st13">
			<g>
				<ellipse class="st14" cx="546.6" cy="136.3" rx="17.7" ry="9.4"/>
			</g>
		</g>
		<g>
			<ellipse class="st18" cx="547.8" cy="49.8" rx="6.1" ry="7"/>
		</g>
		<g>
			<path class="st18" d="M545.8,56.1v2.3h-2c0,0,1.1,3.8,5.1,3.2s4.7-2.9,4.7-2.9h-3.5V56L545.8,56.1z"/>
		</g>
		<g>
			<ellipse class="st18" cx="541.9" cy="49.1" rx="1.7" ry="1.9"/>
		</g>
		<g>
			<ellipse class="st18" cx="554.2" cy="49.1" rx="1.7" ry="1.9"/>
		</g>
		<g>
			<path class="st15" d="M549.3,40.9c0,0-2.5-1.6-5.1,0.8c-2.6,2.5-3.1,5.2-3.1,5.2l0.7,4.1c0,0,0.5,0.5,1,1.1c1,2,2.8,3.5,4.9,3.6
				c0.6,1,0.4,1.5,0.4,1.5l2.1-1.9c2.3-1,4-3.5,4-6.5l0,0C555.4,46.9,552.6,39.6,549.3,40.9z"/>
		</g>
		<g>
			<path class="st18" d="M533,61.3l-3.6,0.2l-4.7-12.7c0,0,2-2.5,1.5-3.7s-1.6-1.1-1.6-1.1l-0.9-4.7c0,0-0.8-0.8-1.1,0.1
				s0.4,4.3,0.4,4.3s-2.3-0.4-3,1.4c-0.6,1.4,0.5,3.7,1.6,4c0,0,3.2,12.8,4.3,14.6s2.5,2.9,6,2.6s3.4-0.2,3.4-0.2L533,61.3z"/>
		</g>
		<g>
			<path class="st29" d="M553.4,132.6c0,0,3.3-1.6,5.4-0.8c2.1,0.8,0.8,4.4,0.8,4.4s-3.3,2.9-6.2,2.9s-3.4,0.7-3.4-5.1L553.4,132.6z
				"/>
		</g>
		<g>
			<path class="st29" d="M541.8,133.4c0,0,1.3,3.6-0.5,4.3s-4.4,0.3-4.4,0.3s-0.3-2.5-1-3.9c-0.7-1.5-1.3-6.4,1.3-6.4L541.8,133.4z"
				/>
		</g>
		<g>
			<path class="st17" d="M538.5,86.5l-1.7,47.2c0,0,0.7,2.8,5.2,0.9l4.6-38.9l2.8-0.2l0.2,39.3c0,0,3.3,1.7,5.9,0.2l1.9-48.5H538.5z
				"/>
		</g>
		<g>
			<path class="st6" d="M544.6,58.3c0,0,1,2.1,3.9,1.8c2.8-0.3,4-1.6,4-1.6s5.5-0.2,7.4,2.1c2,2.3,2.7,7.4,2.7,7.4l-5.2,1v17.6
				c0,0-8.1,5.3-18.9,0c0-6.4-0.1-20.5-0.1-20.5l-4.5,1.3l-1.3-6.8C532.6,60.5,537.1,57.9,544.6,58.3z"/>
		</g>
		<g>
			<path class="st18" d="M561.9,68.1l0.9,26c0,0-1.7,5.1-5.1,3.8s0.9-4.5,0.9-4.5l-1-24.6L561.9,68.1z"/>
		</g>
	</g>
	<g>
		<path class="st6" d="M586,46.3c0,0-3.9,0.2-7.3-0.1c-3.2-0.3-6.9-3.3-6.9-3.3l0.1,3.3c0,0,4.2,2.4,6,2.5c1.9,0.1,7.8,0.6,10.4-0.3
			l0.9-2.9L586,46.3z"/>
	</g>
	<g>
		<path class="st6" d="M585.8,51.5c0,0-3.9,0.2-7.1-0.1c-3.1-0.3-6.8-3.3-6.8-3.3l0.1,3.3c0,0,4.1,2.4,5.9,2.5
			c1.8,0.1,7.7,0.6,10.2-0.3l0.9-2.9L585.8,51.5z"/>
	</g>
	<g>
		<path class="st18" d="M589,44.9c0,0-1.2,6.3-3.2,9.9c-2,3.5-10.6,4.3-10.6,4.3s-1.8-1.6-2.3-0.3c-0.5,1.3-1.8,3.9,1.8,4.7
			c3.6,0.8,15.4-3.1,17.1-7.1s3.3-12.7,3.3-12.7L589,44.9z"/>
	</g>
	<g>
		<path class="st18" d="M574.3,60.4c0-0.3,0.1-0.6,0.3-0.8c0.4-0.7,1.1-2.1,0-3.5c0,0,0,0,0-0.1c-1-1.3-3.1-0.5-3.2,1.1l-0.2,3.5
			c0,0.8,0.4,1.5,1.1,1.8C573.2,62.7,574.1,62.6,574.3,60.4z"/>
	</g>
</g>
<g>
	<g>
		<g>
			<path class="st18" d="M192,90.8c0.2,1.7-0.5,15-0.5,15l-6,23.4l1.7,5.2c0,0-2.8-0.2-4.2-3c-1.3-2.8-1-3.8-1-3.8l3-19.3V94.8
				L192,90.8z"/>
		</g>
		<g>
			<path class="st18" d="M194.6,61.6c0,0,0-0.1,0-0.1c0-0.8-0.4-10.4-3-11.8c-2.7-1.5-9.5,1.8-9.5,1.8l0.9,1.2L181,53
				c-0.5,0.1-1-0.3-1.3-0.7c-0.1-0.2-0.6-0.1-1.9,0.4c-3.2,1.3-6.7,0.2-6.3,3.7c0.2,1.8-0.2,4.8-0.7,7.3c-0.3,1.6-2.3,1.9-3.1,0.6
				l-1.2-2c-0.1-0.1-0.1-0.2-0.2-0.3c-0.2-0.5-0.5-1.8,0.1-3.4c0.8-2,1.3-2.8,0.6-3.1s-0.9,0.6-0.9,0.6l-0.8,1.4c0,0-1.8-1-0.1-2.9
				c0.8-0.9-0.6-2.1-2.7-1.3s-1.6,1.3-2,3.3c-0.4,1.9,0.9,3.1,0.9,3.1l1.6,2c0.1,0.1,0.1,0.2,0.2,0.3c0.7,1.4,5.4,11.2,6.8,11.3
				c0.8,0.1,1.6-0.3,2.1-0.6c0.4-0.3,0.7-0.7,0.7-1.2l0.9-6c0.2-1.1,1.3-1.7,2.3-1.4l0,0c0.5,0.2,0.9,0.6,1,1.1l2.5,7.8
				c0.1,0.4,0.1,0.8,0,1.1l-1,2.8c-0.4,1,0.3,2.1,1.3,2.3c0.3,0.1,0.7,0.1,1.1,0.1c2.4,0.1,8-1.6,9.5-2c0.2-0.1,0.4-0.2,0.6-0.3
				l1.2-1l-4.2-1.4c-0.9-0.3-1.4-1.3-1.1-2.2l0.9-2.5c0.6-1.6,2.9-1.5,3.3,0.2l1,3.9c0,0.1,0,0.1,0,0.2c0.1,0.8,0.8,6.6,0.5,7.4
				c-0.2,0.5-1.3,1.9-2.1,3c-0.6,0.8-0.4,1.8,0.3,2.4c0.9,0.6,1.8,1.3,2.1,1.4c0.4,0.1,1.9-1.1,2.7-1.8c0.4-0.3,0.6-0.8,0.6-1.3V76
				c0-0.1,0-0.1,0-0.2L194.6,61.6z"/>
		</g>
		<g class="st13">
			<g>
				<ellipse class="st14" cx="181.6" cy="136.8" rx="16.4" ry="8.5"/>
			</g>
		</g>
		<g>
			<g class="st13">
				<g>
					<ellipse class="st14" cx="244" cy="131.4" rx="18" ry="9.5"/>
				</g>
			</g>
			<g>
				<path class="st18" d="M250.1,57.2l-0.6-3c0,0,0.4-1,1.2-2.8c1,0.1,1.9-0.6,2-1.6c0.1-0.6-0.2-1.1-0.5-1.5
					c1.5-3.5-5.3-5.2-6.9-5.8c-1.2-0.4-2.5,2.2-3.3,4.6c-1-0.1-2,0.8-2.1,2c-0.1,1.2,0.6,2.3,1.7,2.4c0.1,0,0.2,0,0.2,0
					c0.2,0.4,0.4,0.7,0.7,1l0.8,2.2l1.1,0c0.1,0.1,0.1,0.2,0.1,0.3c-0.1,0.7-0.8,2.5-0.8,2.5c3.3,6.6,9.7,0.6,9.7,0.6L250.1,57.2z"
					/>
			</g>
			<g>
				<path class="st18" d="M237.2,78.2l1.8,1.1l-0.8,0.6c0,0-4,0.5-3.6,0.4S237.2,78.2,237.2,78.2z"/>
			</g>
			<g>
				<path class="st30" d="M248.1,123.9c0,0-2.3-2.6-3.3,0.2c-1.1,2.8,1.6,6,3.7,6.7s1.1,2,4.8,1.8l0.1-3.4L248.1,123.9z"/>
			</g>
			<g>
				<path class="st30" d="M237.8,128.8c0,0-2.3-2.6-3.3,0.2s1.6,6,3.7,6.7s0.5,2.6,4.2,2.5l1.6-0.8l-0.3-3L237.8,128.8z"/>
			</g>
			<g>
				<path class="st16" d="M245.3,40c0,0-2.7-0.5-3.7,1.9s-2,3.5-0.9,6.5c1.1,3,5.6,7,5.6,7l1.1-1.4l1.2,1.4c0,0,0.9-3,2.1-4.3
					s3.1-3.4,2.2-6.2C252.1,42.2,250.3,37.9,245.3,40z"/>
			</g>
			<g>
				<path class="st5" d="M239.5,81.2l-1.8,2.1c0,0-3,18.1-1.8,24.8s1.8,24.6,1.8,24.6s6.5,6.8,6.5,0.2c0-1.1-0.9-26.9-0.9-26.9
					l3.7-13.9c0,0,5.6,1.1,8.1-4.4c1.3-2.9,0.9-10.5,0.9-10.5L239.5,81.2z"/>
			</g>
			<g>
				<path class="st5" d="M254.8,87.5c-0.4,1.4-1.6,13.5-1.2,17.7c0.4,4.2,0,24.4,0,24.4s-4.7,2.3-5.4-3.3s-1.8-21.1-1.6-21.8
					s-0.4-15.1-0.4-15.1L254.8,87.5z"/>
			</g>
			<g class="st13">
				<g>
					<ellipse class="st14" cx="213.4" cy="106.1" rx="18" ry="9.5"/>
				</g>
			</g>
			<g>
				<path class="st16" d="M219.1,102.2c-0.2,0.8-1.1,4.5-1.1,5s-1.5,8.1,1.6,6.5c3.1-1.6,4.5-5.5,4.5-6.2s-1.1-6.6-1.1-6.6
					L219.1,102.2z"/>
			</g>
			<g>
				<path class="st16" d="M213.2,96.7c0,0,2.8,4.7,1,5.3s-4.5,3.2-4.5,3.2h-7c0,0,3.6-5.8,5.8-7.1L213.2,96.7z"/>
			</g>
			<g>
				<path class="st23" d="M223,55.7v22l1.5,24.8c0,0-7.7,3.9-6.7,0c0.2-0.9-1.5-22.2-1.5-23.1s-2.3-14.6-2.3-14.6v-0.5l-0.7,15.3
					l0.9,18.4c0,0-6.3,3.4-6.3,0.2c0-0.4-2.4-20.5-2.4-20.5l0.2-23.5L223,55.7z"/>
			</g>
			<g>
				<ellipse class="st18" cx="214.8" cy="21.4" rx="5.2" ry="7.3"/>
			</g>
			<g>
				<path class="st30" d="M220.8,19.6c0,0,0.5-7.6-2.5-7.6s-3.7-1.3-4.3-1.3s-3.2-0.2-4.1,1.5s-1.3,6.9-1.3,6.9l1.8,1.7
					c0,0,0.5-4.5,1.8-5.2c1.3-0.6,2.6,1.5,2.6,1.5s1.2-1.5,2.5-1.4s2.7,5.5,2.7,5.5L220.8,19.6z"/>
			</g>
			<g>
				<ellipse class="st18" cx="219.6" cy="21.5" rx="2.3" ry="2.1"/>
			</g>
			<g>
				<ellipse class="st18" cx="209.9" cy="21" rx="2.3" ry="1.8"/>
			</g>
			<g>
				<polygon class="st18" points="217,27.1 211.9,27.1 211.5,33.5 217.9,32.9 				"/>
			</g>
			<g>
				<path class="st22" d="M217.9,30c0,0-2.9,4.7-7.1,0.8l-4.2,14.1L204,59c0,0,15.5,3,19.6,0.1l-3.1-24.4L217.9,30z"/>
			</g>
			<g>
				<path class="st22" d="M211.5,30.5l-9,2c0,0-6.3,17.5-0.7,21.6l5.1,1.5l16.6-5l-4.1-4l-12.8,2.8L211.5,30.5z"/>
			</g>
			<g>
				<polygon class="st22" points="217.9,30 227.2,32.7 228.4,39.8 224,53.1 221.3,55 202.8,48.6 203.6,44 220.2,46.8 219.7,38.4 
									"/>
			</g>
			<g>
				<polygon class="st18" points="207,47.6 206.8,44.4 204.5,44.5 202.3,46.7 204.2,49.1 206.1,49.7 				"/>
			</g>
			<g>
				<path class="st18" d="M220.3,47l2.9-3.3c0,0,1.3,0.8,1.5,1.4s1.3,2,1.3,2s-0.1,1.4-0.4,1.9c-0.3,0.5-1.3,1-1.7,1
					c-0.4,0-1.8-1.8-1.8-1.8l-0.6-0.8L220.3,47z"/>
			</g>
			<g>
				<path class="st18" d="M263,60.4c0.4-1.4-0.4-4.3,0.6-4.1c1,0.3,1.2,1.3,1.2,1.3s4.2-3.3,5-2.4c0.8,0.9,1.2,3.8,1.2,3.8
					s-3.1,1.8-3.8,2.2c-0.8,0.4-2,1.3-2,1.3l-1.8,13.4l-5.6-3.1L263,60.4z"/>
			</g>
			<g>
				<path class="st17" d="M261.4,68.3l4.2,3.6l-2.5,4C263.1,75.9,263.5,72.3,261.4,68.3z"/>
			</g>
			<g>
				<path class="st6" d="M256.3,69.4c0.5,4.8,0.4,15.7,0.4,15.7s-6.7,5.2-19.7,1.5l1.7-15.7c0,0-2.7,7.7-5.6,9.5
					c-2.7,1.7-5.1-2.7-3.2-5.7s6.1-18.4,13.5-17.9c0,0,1.2,1.2,3,1.1c1.8-0.2,3.3-0.6,3.9-1.3c0,0,1.1-0.7,2.4-0.8
					c1.3-0.1,2.3,1,3.8,1.8s3.8,8.2,4.8,10.3c1.1,2.5,4.2,6.5,1.7,8.5s-4.1-0.2-5.1-1.8C257.2,73.3,256.6,70.4,256.3,69.4z"/>
			</g>
			<g>
				<path class="st17" d="M232.1,80.6l2.8-0.4c0,0,2.7-1.5,2-2.3c-0.7-0.8-2-0.8-2-0.8L232.1,80.6z"/>
			</g>
			<g>
				<path class="st6" d="M211.5,30.5l-2.2,0.4l1.9,2.5c0,0,2.4,2.9,2.2,2.6s1.1-3.8,1.1-3.8L211.5,30.5z"/>
			</g>
			<g>
				<path class="st6" d="M217.4,29.9l2.2,0.4l-1.7,3.1c0,0-1.7,2.9-1.5,2.6s-1.7-3.7-1.7-3.7L217.4,29.9z"/>
			</g>
			<g>
				<g>
					<path class="st31" d="M217.7,23.3c-0.1,0-0.2,0-0.3,0c-0.6-0.1-1.2-0.3-1.6-0.7c-0.4-0.4-0.7-0.9-0.6-1.4
						c0.1-1,1.3-1.8,2.6-1.7c1.3,0.1,2.4,1.1,2.3,2.1C219.9,22.6,218.9,23.3,217.7,23.3z M217.4,20c-1,0-1.7,0.5-1.8,1.2l0,0
						c0,0.4,0.1,0.7,0.4,1c0.3,0.3,0.8,0.5,1.4,0.6c1.1,0.1,2-0.4,2.1-1.2c0.1-0.8-0.7-1.5-1.8-1.6C217.6,20,217.5,20,217.4,20z"/>
				</g>
				<g>
					<path class="st31" d="M212.4,23.3c-0.1,0-0.2,0-0.3,0c-0.6-0.1-1.2-0.3-1.6-0.7c-0.4-0.4-0.7-0.9-0.6-1.4
						c0.1-1,1.3-1.8,2.6-1.7c1.3,0.1,2.4,1.1,2.3,2.1C214.7,22.6,213.6,23.3,212.4,23.3z M212.2,20c-1,0-1.7,0.5-1.8,1.2l0,0
						c0,0.4,0.1,0.7,0.4,1c0.3,0.3,0.8,0.5,1.4,0.6c1.1,0.1,2-0.4,2.1-1.2c0.1-0.8-0.7-1.5-1.8-1.6C212.3,20,212.3,20,212.2,20z"/>
				</g>
				<g>
					
						<rect x="214.7" y="20.8" transform="matrix(1.529974e-02 -0.9999 0.9999 1.529974e-02 190.4241 235.9294)" class="st31" width="0.5" height="1"/>
				</g>
			</g>
		</g>
		<g>
			<path class="st30" d="M182,127.6l-0.7,1c-0.1,0.2-0.2,0.4-0.3,0.6l-0.4,1.5c0,0.1,0,0.1,0,0.2l-0.1,1c-0.1,0.6,0.2,1.3,0.7,1.7
				l0.7,0.6l0.5-0.4l0.8,1.1c0.2,0.3,0.4,0.5,0.7,0.6c1.1,0.6,4.2,2.1,4.6,1.5c0.5-0.7,0.2-1.8,0.2-1.8l-1.3-1.4l-1-0.1l-2.6-2.2
				c-0.2-0.2-0.4-0.5-0.6-0.8L182,127.6z"/>
		</g>
		<g>
			<polygon class="st30" points="177.9,133 176.7,135.7 177.2,137.4 178.2,135.7 			"/>
		</g>
		<g>
			<polygon class="st18" points="176.5,95.3 178.1,115 177.8,133.8 177.8,137.7 180.4,137.4 182.5,114.4 185.2,94.6 			"/>
		</g>
		<g>
			<path class="st30" d="M178.9,136.9L178.9,136.9c0.7,0.1,1.3-0.4,1.4-1.1l0.3-1.6l0.9,4.8c0,0.2,0,0.4-0.1,0.7
				c-0.3,0.8-1.3,3-1.6,3c-0.2,0-0.6-0.1-1.1-0.1c-0.6-0.1-1.1-0.5-1.2-1.1l-0.8-1.5c0-0.2-0.2-2.5-0.2-2.6l1.1-4l-0.1,2.2
				C177.6,136.2,178.2,136.8,178.9,136.9z"/>
		</g>
		<g>
			<path class="st5" d="M196.8,85.3c0.2-0.7,2.6-6.3,2.6-6.3l0.2,0.5l-2.7,6.4L196.8,85.3z"/>
		</g>
		<g>
			<path class="st6" d="M197.9,78.7c0,0,1.5,0.5,1.5,0.7s-2.4,6-2.4,6L197.9,78.7z"/>
		</g>
		<g>
			<polygon class="st5" points="191.6,76.3 198.2,78.4 197.1,85.8 189,83.5 			"/>
		</g>
		<g>
			<path class="st4" d="M176.3,77.6c0,0-2.6,0.8-2.2,6.5c0.4,5.8,1,12,1,13c0,1,1,4.8,1,4.8s15.1,1.8,15.9-3.1c1.2-7,2-12.1,2-12.1
				s1.5-5.9-2.7-11.1C187.1,70.4,176.3,77.6,176.3,77.6z"/>
		</g>
		<g>
			<path class="st32" d="M179.7,52c-0.1,0-0.1,0-0.2,0.1c-0.4,0.1-2.2,0.4-3,0.6c-0.9,0.2-3.8,0.1-4.4,1.3c-0.7,1.2-1.8,3.8-1.3,4.7
				c0.3,0.6-0.2,2.9-0.5,4.2c-0.1,0.6,0.1,1.2,0.7,1.6l1.4,0.8c0.9,0.6,2.2,0,2.2-1.1l0,0l1.8,5.4c0,0.1,0.1,0.2,0.1,0.3l0.3,2.6
				c0,0.3,0,0.5-0.1,0.8l-1.7,3.8c-0.4,0.9,0.1,1.9,1.1,2.1c1.9,0.4,4.6,0.9,4.9,1c0.4,0.1,6.8-1.5,8.3-1.9c0.2-0.1,0.4-0.1,0.6-0.3
				l1.5-1.3c0.5-0.4,0.7-1.1,0.4-1.7l-1.4-3c-0.1-0.2-0.2-0.5-0.1-0.8l0.6-4.7l0.2-2.2c0.1-0.8,0.7-1.3,1.5-1.3c0.6,0,1.3-0.1,2-0.7
				c1-0.8,0.6-1.4,0.6-1.4l-0.4-1.4c0,0,0-0.1,0-0.1l-1.1-6.4c-0.1-0.8-0.7-2.2-1.2-2.8l-0.8-0.6c-0.3-0.3-0.6-0.3-1-0.3l-2.2-0.1
				c-0.1,0-0.2,0-0.3,0l-1.7,0.4c-0.1,0-0.1,0-0.2,0.1L179.7,52z"/>
		</g>
		<g>
			<g>
				<path class="st33" d="M178.9,36.5c0,0-2.4-2.8-4.2-1.1c-1.8,1.8-2.8,4.3-0.6,4.8s3.1,0.5,3.1,0.5L178.9,36.5z"/>
			</g>
			<g>
				<path class="st18" d="M187,38.5c0,0,6,6.3,0.7,11.3c0,0-5,6.7-9.3-2.3c0,0-2.3,0.5-2.2-2.5l2.3-2.2L187,38.5z"/>
			</g>
			<g>
				<path class="st18" d="M180.8,49.3l-0.5,2.6l-2.4,0.6c0,0,1.4,4.8,5.3,3.6c3.1-1,4.1-4.2,4.1-4.2l-1-1.5L180.8,49.3z"/>
			</g>
			<g>
				<path class="st33" d="M185.7,41.1l-2.8,2.8l-0.4-1.4l-1.8,1.8l-0.6-1.1c0,0-0.9,1.5,0.1,3.5c0,0-2.9-1-2.8-3.1c0,0-1,0.5-1,1.8
					s-0.1,1.9-0.1,1.9s-1.4-3.3-0.8-5.5s0.6-5.1,3.8-6.8c3.1-1.6,7.3-0.9,8.4,1.8s1.8,6.1,1.8,6.1l-1.1,3.5c0,0,0.5-2.3,0.1-3.3
					s-1.1-1.9-1.1-1.9l-1.1,1.4L185.7,41.1z"/>
			</g>
		</g>
		<g>
			<circle class="st6" cx="180.2" cy="52.3" r="0.6"/>
		</g>
		<g>
			<circle class="st6" cx="180.8" cy="53.4" r="0.6"/>
		</g>
		<g>
			<circle class="st6" cx="181.6" cy="54.3" r="0.6"/>
		</g>
		<g>
			<circle class="st6" cx="182.6" cy="55.1" r="0.6"/>
		</g>
		<g>
			<circle class="st6" cx="183.7" cy="55.3" r="0.6"/>
		</g>
		<g>
			<circle class="st6" cx="184.9" cy="54.8" r="0.6"/>
		</g>
		<g>
			<circle class="st6" cx="186.2" cy="54.4" r="0.6"/>
		</g>
		<g>
			<circle class="st6" cx="186.9" cy="53.3" r="0.6"/>
		</g>
		<g>
			<circle class="st6" cx="186.9" cy="52.2" r="0.6"/>
		</g>
		<g>
			<circle class="st6" cx="186.4" cy="51.5" r="0.6"/>
		</g>
	</g>
	<g>
		<g>
			<path class="st5" d="M278.1,9c-1.1-7.1-7.6-8.4-10.6-8.3c-3,0-4.2,0.3-5.1,0.7c-0.3,0.1-0.9,0.4-1.4,0.8l-3,1.7
				c0,0,1.5,0.5,1.6,0.5c0.1,0,0.5-0.2,1.1-0.4h0c-0.4,0.3-0.8,0.5-1.1,0.9c-2,1.7-3,4.1-3,7.2l4.2-0.9c0,0.3-0.1,0.5-0.1,0.8
				l2.1-1.3l0,0c0,0,0,0,0,0l4-2.4c-0.2-0.1-0.3-0.2-0.5-0.2c0.4-0.1,0.8-0.2,1.3-0.2c2.5,0,3.8,1.4,3.8,4.1c0,0.9-0.2,1.8-0.7,2.6
				c-0.5,0.8-1.5,1.9-2.9,3.2c-1.5,1.3-2.5,2.6-3,4c-0.2,0.4-0.3,0.9-0.4,1.4l-1.1,0.6l0.9,0.7c-0.1,0.8-0.2,1.7-0.2,2.6l2.5-0.7
				l0.9,0.7l2.8-1.6l0-0.1l0,0l0.1-1.5c0.2-1.6,0.9-1.2,2.1-2.4l2-1.9c1.5-1.5,2.6-2.8,3.2-4.1c0.6-1.2,0.9-2.5,0.9-3.9
				C278.3,10.7,278.3,9.8,278.1,9z"/>
		</g>
		<g>
			<path class="st5" d="M270.5,33.1c0-1.1-0.4-2-1.1-2.7c-0.7-0.7-1.7-1-2.8-1c-0.7,0-1.4,0.1-1.9,0.4c0,0,0,0,0,0l-2.9,1.6l1.1,0.4
				c-0.1,0.4-0.2,0.8-0.2,1.3c0,0.3,0,0.6,0.1,0.9l-0.9,0.5l4.1,3.3l2.8-1.6l0,0c0.2-0.1,0.5-0.3,0.7-0.5
				C270.2,35,270.5,34.1,270.5,33.1z"/>
		</g>
		<g>
			<g>
				<path class="st20" d="M272.6,4.6c-1.9-1.7-4.5-2.5-8-2.5c-3.4,0-6.1,0.9-8,2.6c-2,1.7-3,4.2-3,7.2h7c0-1.3,0.4-2.3,1.1-3
					c0.7-0.7,1.7-1.1,2.9-1.1c2.5,0,3.8,1.4,3.8,4.1c0,0.9-0.2,1.8-0.7,2.6c-0.5,0.8-1.5,1.9-2.9,3.2c-1.5,1.3-2.5,2.6-3,4
					c-0.5,1.3-0.8,3.1-0.8,5.4h6.2l0.1-1.5c0.2-1.6,0.9-3,2.1-4.1l2-1.9c1.5-1.5,2.6-2.8,3.2-4.1c0.6-1.2,0.9-2.5,0.9-3.9
					C275.5,8.6,274.5,6.3,272.6,4.6z"/>
			</g>
			<g>
				<path class="st20" d="M264.2,30.7c-1.1,0-2.1,0.3-2.8,1c-0.7,0.7-1.1,1.6-1.1,2.7c0,1.1,0.4,1.9,1.1,2.6s1.7,1,2.8,1
					c1.2,0,2.1-0.3,2.8-1c0.7-0.7,1.1-1.6,1.1-2.6c0-1.1-0.4-2-1.1-2.7C266.3,31.1,265.4,30.7,264.2,30.7z"/>
			</g>
		</g>
	</g>
</g>
<g>
	<g class="st13">
		<g>
			<ellipse class="st14" cx="518.7" cy="318.4" rx="17.1" ry="8.9"/>
		</g>
	</g>
	<g>
		<path class="st0" d="M573.3,231.5v-4.2h-1.7v2.5h-2.9l0,0c-0.2-0.4-0.4-0.7-0.7-1.1l2.4-2.4l-1.1-1.1l-2.3,2.3c-0.6-0.6-1.2-1-2-1
			s-1.4,0.3-2,0.9l-2.2-2.3l-1.2,1.2l2.4,2.4c-0.3,0.4-0.5,0.7-0.7,1l0,0h-2.9v-2.5h-1.7v4.2h3.5c-0.4,0.8-0.7,1.6-0.9,2.5h-2.6v1.7
			h2.5l0,0c0,0.9,0.2,1.8,0.4,2.5h-2.9v4.2h1.7V240h2c1.1,1.6,2.7,2.5,4.7,2.5c1.9,0,3.7-1,4.7-2.5h2v2.5h1.7v-4.3h-2.9
			c0.3-0.8,0.4-1.6,0.4-2.5l0,0h2.5V234h-2.6c-0.2-0.9-0.4-1.8-0.9-2.5L573.3,231.5L573.3,231.5L573.3,231.5z M564.9,228.2
			c0.8,0,2.1,2.1,2.5,2.8c-0.7,0.9-1.6,1.4-2.5,1.4s-1.9-0.5-2.5-1.4C562.8,230.3,564.1,228.2,564.9,228.2z M564.9,240.7
			c-2.5,0-4.2-2-4.2-5c0-1.1,0.3-2.3,0.7-3.2c1,1,2.2,1.6,3.5,1.6c1.3,0,2.5-0.6,3.5-1.6c0.4,1,0.7,2,0.7,3.2
			C569.1,238.7,567.4,240.7,564.9,240.7z"/>
	</g>
	<g>
		<path class="st17" d="M534,265.4l-6.8,25.8l0.7,23.5c0,0-3.3,1.7-5.5-0.7c-1.6-1.7-2.1-24.6-2.1-24.6l4.5-23.4L534,265.4z"/>
	</g>
	<g>
		<path class="st17" d="M530.6,257.3c0.8,0.6,3.2,2.8,3.8,7.1c0.3,1.9,0,4.3-0.6,6c-2,5.6-8.7,4.7-8.7,4.7l-11.6,15l4.9,24
			c0,0-4.3,2.4-5.5,0.9c-2.6-3.4-6.8-26.2-6.8-26.2l13.1-24.3l0.4-3.1L530.6,257.3z"/>
	</g>
	<g>
		<path class="st18" d="M515.7,311.4c0,0,3.1,4.5,3.5,5.9c0.4,1.4-2,2.2-4,2.3s-0.9,2.7-4.1,2s-4.5-2.3-3.3-3.2s1.8-0.9,2.8-0.9
			c3.3-0.1,3-4.3,3-4.3L515.7,311.4z"/>
	</g>
	<g>
		<path class="st32" d="M511,317.5c0,0-2.3,1.5-1.6,1.6s3.8-1.1,3.8-1.1s6.4-4.4,6-0.7c-0.3,2.8-1.7,2.3-1.7,2.3l-0.7,3l-0.5,0
			l0.3-2.8c0,0-1.3-0.3-2,0.4c-0.6,0.6-2,1.7-2,1.7s-3.3-0.3-4.3-1c-1-0.7-1.5-2.1-1.5-2.1S506.5,317.6,511,317.5z"/>
	</g>
	<g>
		<path class="st1" d="M517.6,313.6c0,0-2-1.6-4.7,1.1l-0.6-4.3l4.2-0.1L517.6,313.6z"/>
	</g>
	<g>
		<path class="st18" d="M526.7,314.3c0,0-2.1-1-3.3-0.4c0,0,0.2,1.9-0.9,2c-1.1,0.1-1.9,1.1-0.8,2.4s2.8,1.5,4.1,0.5
			s2.6-1.8,1.9-2.4S526.5,315.1,526.7,314.3z"/>
	</g>
	<g>
		<path class="st32" d="M528.1,318c0,0,0.8-1.4-0.4-1.5s-2.5,0.6-2.5,0.6s-0.9,0.8-1.4,0.7c-0.6-0.1-0.8-1.9-0.8-1.9l-0.5-1
			c0,0-1.5,0.8-1.6,1.9c-0.2,1.1,1.6,2.3,1.6,2.3l1.1,0.4l1.4-0.1c0,0,1.1-0.8,1,0.3c-0.1,1-0.1,1.7-0.1,1.7l0.6,0.1l0.6-2.5
			C527,319,527.7,318.9,528.1,318z"/>
	</g>
	<g>
		<path class="st34" d="M520.4,238.8c0,0-1.5-1-4.2,1.5c0,0,2.9,2.3,2.1,8.1l-3.8,2.1c0,0,1.7,4.5,2.1,6.6s2.6,8.6,2.6,8.6
			s0.6,1.9,8.9,1.3c7-0.5,5.6-4.7,5.6-4.7l-4.2-20.4L520.4,238.8z"/>
	</g>
	<g>
		<path class="st18" d="M513,228.3c0,0,1.6,8.8,5.3,9.9c3.8,1,4.3-3.4,4.3-3.4s-2.1-9-2.7-8.9C519.3,226,513,228.3,513,228.3z"/>
	</g>
	<g>
		<path class="st18" d="M518.3,239.5c-1,0.4,0.8-1.1-2.3,1.4c-3.1,2.5-8.3,11.7-8.3,11.7l-7-7l-2.4,1.9c0,0,7.3,10.7,9.1,11.5
			c1.8,0.8,11.2-11.3,11.2-11.3S523.8,237.3,518.3,239.5z"/>
	</g>
	<g>
		<polygon class="st17" points="491.2,239.9 506.5,250.7 514.2,242.3 502.2,232.9 		"/>
	</g>
	<g>
		<path class="st35" d="M493.5,239.6c1-0.7,8.6-5.8,8.6-5.8l10.7,8.3l-6.2,7.2L493.5,239.6z"/>
	</g>
	<g>
		<path class="st18" d="M517,239.6l-4.6-1.4c0,0-2.4-0.9-3.2,0.2c-0.8,1.1-2.8,1.1-0.8,1.9c2,0.8,3.1,0.2,3.1,0.6s-1.8,1.7-0.6,1.9
			c1.2,0.2,4.8-1.2,4.8-1.2L517,239.6z"/>
	</g>
	<g>
		<path class="st2" d="M519.9,238.4c-0.3,0-4.1,2.2-4.1,2.2l-5.2,5.9c0,0,4.3,3.1,4.8,5.1c0,0,1.3,1.1,1.3,0.9s6.2-9.4,6.2-9.4
			S520.7,238.4,519.9,238.4z"/>
	</g>
	<g>
		<path class="st32" d="M518.4,220.6c0,0-4.3,1.8-5.3,4.5c-1,2.7-1.1,4.6-1.1,4.6s4.7,1.6,5.5-0.9c0,0,2.4,3.9,1.4,7.9
			c-1,4-3.1,5.2-0.2,7c2.9,1.8,2.7,8.1,3,9.5s12.5-3.9,12.5-3.9s-5.2-9.1-4.4-13C530.5,232.4,526.8,216.8,518.4,220.6z"/>
	</g>
	<g>
		<polygon class="st2" points="507.4,246.9 505.6,246.8 505.6,246.3 506.8,246.3 506.7,244.4 507.2,244.3 		"/>
	</g>
	<g>
		<g class="st13">
			<g>
				<ellipse class="st14" cx="582.7" cy="294.1" rx="23" ry="13.4"/>
			</g>
		</g>
		<g>
			<path class="st36" d="M596.7,287.5c0,0,2.6,0.4,4.5-0.8c1.9-1.2,6.7-2.1,6.2,0.9c-0.5,3-2.3,3.7-3.5,3.5c-1.2-0.1-3,2.4-3.9,2.7
				s-4.7,0.5-5-1.9C594.7,289.5,596.7,287.5,596.7,287.5z"/>
		</g>
		<g>
			<path class="st36" d="M593.2,301.5c0,0-1.6,2.3-1.4,4.7s-1.2,7.5-3.9,5.5c-2.7-2-2.4-4-1.7-5.1c0.7-1.1-0.9-4-0.7-5.1
				s1.8-4.8,4.3-3.9C592.2,298.6,593.2,301.5,593.2,301.5z"/>
		</g>
		<g>
			<polygon class="st37" points="568.2,284 567.9,303 574.4,306.1 599,294.5 595.8,288.1 577.4,295.1 579.2,287.8 596,289.5 
				584.1,300.4 591.6,304.1 606.5,287.8 585.2,278.1 			"/>
		</g>
		<g>
			<polygon class="st18" points="587.6,264.4 587.7,276.5 592.3,275 593.4,262.1 588.7,262.3 			"/>
		</g>
		<g>
			<polyline class="st27" points="590.1,294.1 580.6,289.6 600.7,283.2 610.1,286.3 590.1,294.1 			"/>
		</g>
		<g>
			<polygon class="st28" points="580.6,289.6 580.5,290.4 590.3,294.9 590.4,294.1 			"/>
		</g>
		<g>
			<path class="st3" d="M585.5,248.9c0,0-8.6,3.8-11.6,5.6c-3,1.9-4.2,4-4.7,9.3c-0.2,2.8-1.4,13.3-1.4,13.3l0.7,7.1
				c0,0,10.3,2.4,15.4-1.2s5.4-7.1,5.4-7.1s-4.6-3.9-4.1-3.8c0.5,0.2,2.8-3.4,4.1-8.8l4.7-0.5C594,262.9,595.9,246.6,585.5,248.9z"
				/>
		</g>
		<g>
			<path class="st18" d="M585.6,247.2c0,0-4.5,3.4-4.1,6.8c0.4,3.3,1.8,5,4.5,5.4s4.3-4,4.3-4L585.6,247.2z"/>
		</g>
		<g>
			<path class="st18" d="M569.8,272.2c0,0,2.2,11.2,5.1,12c2.9,0.8,19.4,4.9,19.4,4.9s2.8,1.3,3.1,1.3s5.3,0,5-1.6s-0.9-2.4-1.8-2.4
				c-0.9,0-2.3,0.1-1.9,0s-3-0.8-3-0.8s-16.5-4.6-16.9-5.7s-2.2-7.9-2.2-7.9L569.8,272.2z"/>
		</g>
		<g>
			<path class="st30" d="M585.3,246.6l4-2.6l-0.2,1l2.4-1.2l-0.2,1.2l2.1-1l0.2,1.8l0.8-0.3l0.5,3.9c0,0,1.8-4.6,1.2-5.6
				s-1.1-0.9-1.2-2c0,0-1.3-3.1-3.3-2.9c-2,0.2-6.3,1.1-6.3,1.1l-1.4,2c0,0-2.3-0.3-3.1,1.2c-0.8,1.6,0.6,4.9,1.1,11.2L585.3,246.6z
				"/>
		</g>
		<g>
			<path class="st18" d="M583.8,248.8c0,0-3.1,1.6-2,3c1.1,1.4,2.1,0.3,2.1,0.3s1.6,6.6,6.4,5.1c1.7-0.5,2.8-3.1,2.8-3.1
				s0.8-4,1.1-7.1C595.2,238.8,583.6,245,583.8,248.8z"/>
		</g>
		<g>
			<path class="st6" d="M583.8,261.1c-0.1,0-0.1,0-0.2-0.1c-0.1-0.1-3-3.1-3.4-4.4c-0.4-1.3-0.4-3.7-0.4-3.8c0-0.1,0.1-0.2,0.2-0.2
				s0.2,0.1,0.2,0.2c0,0,0,2.5,0.4,3.7c0.3,1.1,2.8,3.7,3.2,4.1l3.7-0.3l2.1-2.5c0.1-0.1,0.2-0.1,0.3,0c0.1,0.1,0.1,0.2,0,0.3
				l-2.2,2.6c0,0-0.1,0.1-0.2,0.1L583.8,261.1C583.8,261.1,583.8,261.1,583.8,261.1z"/>
		</g>
		<g>
			<path class="st30" d="M595.4,245.2c0,0-0.4-1-0.5-1c0,0-0.1,0.1-0.2,0.2c0.1-0.2,0.1-0.4,0.1-0.4c0-0.4-1.1-2-1.1-2
				s-3.3-0.6-3.6-0.6c-0.3,0-5.4,2.4-5.4,2.4l-1.3,4.8l0.8,2.4v-1.1l1.6-3l0.5,0.5l0.7-1.2l0.3,1l2.1-2.5l0.1,1.6l3.5-2.3l0.5,4.1
				c0,0,0.5-1.3,0.9-2.5l0.5,4.1L595.4,245.2z"/>
		</g>
		<g>
			<path class="st3" d="M573.1,257.7c0,0-3.9,1.7-4.6,5.8c-0.6,4.1-0.6,9.3-0.6,9.3l10.2-0.3L573.1,257.7z"/>
		</g>
		<g>
			<polygon class="st18" points="587.6,274.1 588.4,276.7 596.7,283.2 601,282.3 592.3,275 			"/>
		</g>
		<g>
			<path class="st6" d="M579.6,266.9c0,0,1.9-1.9,3.4-1.8c1.5,0.2,3.1,1.1,2.9,1.9c-0.2,0.8-2.8,5.2-2.1,6.3
				c0.6,1.1,1.6,2.4,0.8,3.2c-0.8,0.8-3.9,2.8-5.8-0.8C576.9,272.2,577.7,269.6,579.6,266.9z"/>
		</g>
		<g>
			<g>
				<polygon class="st25" points="592,282.1 590.3,294.9 610.1,286.3 612.6,273.8 				"/>
			</g>
			<g>
				<polygon class="st28" points="592,282.1 592.3,282.2 590.5,294.8 590.3,294.9 				"/>
			</g>
			<g>
				<polygon class="st27" points="611.9,273.8 592,282.1 592.3,282.3 612.6,273.8 				"/>
			</g>
		</g>
		<g>
			<g>
				
					<ellipse transform="matrix(0.3607 -0.9327 0.9327 0.3607 120.2639 743.8881)" class="st27" cx="602.8" cy="284.2" rx="0.9" ry="1.1"/>
			</g>
			<g>
				
					<ellipse transform="matrix(0.2589 -0.9659 0.9659 0.2589 173.1489 793.6643)" class="st27" cx="603.8" cy="284" rx="0.9" ry="0.7"/>
			</g>
		</g>
	</g>
	<g>
		<g>
			<path class="st4" d="M565.6,237c-0.8-5-5.6-8.4-10.6-7.6c-5,0.8-8.4,5.6-7.6,10.6c0.3,2,1.3,3.8,2.7,5.1c-0.2,0-0.3,0.1-0.5,0.3
				l-5.8,7.9c-0.2,0.3-0.2,0.8,0.2,1c0.1,0.1,0.3,0.1,0.4,0.1c0.2,0,0.4-0.1,0.6-0.3l5.8-7.9c0.1-0.1,0.1-0.3,0.1-0.4
				c0.1,0,0.1,0.1,0.2,0.1c1.6,1.1,3.4,1.7,5.3,1.7c0.5,0,1,0,1.5-0.1C563.1,246.7,566.5,242,565.6,237z M557.8,246.1
				c-2,0.3-4.1-0.1-5.8-1.3c-1.7-1.2-2.8-3-3.1-5c-0.7-4.2,2.2-8.2,6.4-8.9c0.4-0.1,0.9-0.1,1.3-0.1c3.7,0,7,2.7,7.6,6.5
				C564.9,241.4,562,245.4,557.8,246.1z"/>
		</g>
	</g>
	<g>
		<path class="st18" d="M504.8,248.9c0,0-0.3-0.8-0.1-2.5c0.1-1.6-0.1,0.3-1.4,0.5s-3.7-0.8-3.6-2.2c0.1-1.4-5.3,3.1,2.5,6.4
			L504.8,248.9z"/>
	</g>
	<g>
		<polygon class="st2" points="499.2,241 497.5,240.9 497.5,240.4 498.7,240.5 498.6,238.5 499.1,238.4 		"/>
	</g>
	<g>
		<polygon class="st2" points="502.1,243 500.3,242.9 500.3,242.4 501.5,242.5 501.4,240.5 501.9,240.5 		"/>
	</g>
	<g>
		<polygon class="st2" points="505,245.2 503.3,245.1 503.3,244.6 504.5,244.7 504.4,242.7 504.9,242.6 		"/>
	</g>
</g>
</svg>
