<?xml version="1.0" encoding="utf-8"?>
<!-- Generator: Adobe Illustrator 22.1.0, SVG Export Plug-In . SVG Version: 6.00 Build 0)  -->
<svg version="1.1" id="レイヤー_1" xmlns="http://www.w3.org/2000/svg" xmlns:xlink="http://www.w3.org/1999/xlink" x="0px"
	 y="0px" viewBox="0 0 100 100" style="enable-background:new 0 0 100 100;" xml:space="preserve">
<style type="text/css">
	.st0{fill:#BFDCF5;}
	.st1{fill:#FFFFFF;}
	.st2{fill:#71A8FB;}
	.st3{fill:#5884DB;}
	.st4{opacity:0.5;}
	.st5{fill:#3F60BC;}
</style>
<g>
	<g>
		<rect x="42.672" y="51.777" class="st2" width="4.829" height="10.754"/>
	</g>
	<g>
		<rect x="52.599" y="48.612" class="st2" width="4.829" height="13.919"/>
	</g>
	<g>
		<rect x="32.745" y="54.757" class="st2" width="4.829" height="7.774"/>
	</g>
	<g>
		<rect x="62.526" y="44.687" class="st2" width="4.829" height="17.844"/>
	</g>
	<path class="st2" d="M68.104,33.867c-0.001-0.005-0.004-0.009-0.005-0.014c-0.004-0.022-0.015-0.041-0.021-0.062
		c-0.019-0.066-0.044-0.128-0.08-0.186c-0.015-0.025-0.033-0.047-0.051-0.07c-0.039-0.049-0.082-0.092-0.131-0.13
		c-0.023-0.018-0.044-0.035-0.069-0.051c-0.071-0.043-0.147-0.076-0.23-0.094c-0.007-0.002-0.012-0.007-0.02-0.008
		c-0.001,0-0.002,0-0.004,0c-0.002,0-0.004-0.001-0.005-0.002l-5.452-0.971c-0.416-0.074-0.809,0.202-0.882,0.615
		c-0.074,0.413,0.202,0.808,0.615,0.882l3.41,0.608L46.553,45.204l-3.302-3.862c-0.249-0.291-0.677-0.353-0.997-0.14l-13.578,8.952
		c-0.35,0.231-0.447,0.703-0.216,1.053c0.146,0.222,0.388,0.342,0.636,0.342c0.144,0,0.289-0.041,0.418-0.126l13.017-8.583
		l3.278,3.834c0.239,0.278,0.641,0.348,0.96,0.163l19.527-11.342l-0.637,3.333c-0.079,0.412,0.191,0.811,0.604,0.889
		c0.048,0.01,0.096,0.014,0.143,0.014c0.358,0,0.677-0.253,0.746-0.617l0.95-4.971c0.001-0.006-0.001-0.012,0-0.018
		C68.116,34.041,68.119,33.955,68.104,33.867z"/>
	<g>
		<path class="st2" d="M30.628,10.224c0.094-0.046,0.188-0.094,0.282-0.139C30.815,10.13,30.722,10.178,30.628,10.224z"/>
	</g>
	<g>
		<path class="st2" d="M43.164,6.29c0.043-0.007,0.086-0.015,0.129-0.021C43.25,6.275,43.207,6.284,43.164,6.29z"/>
	</g>
	<g>
		<path class="st2" d="M38.74,7.213c0.127-0.033,0.253-0.066,0.38-0.099C38.993,7.147,38.867,7.18,38.74,7.213z"/>
	</g>
	<g>
		<path class="st2" d="M45.259,6.019c0.126-0.013,0.252-0.027,0.377-0.04C45.511,5.992,45.385,6.006,45.259,6.019z"/>
	</g>
	<g>
		<path class="st2" d="M40.973,6.687c0.105-0.022,0.211-0.041,0.316-0.062C41.183,6.646,41.078,6.666,40.973,6.687z"/>
	</g>
	<g>
		<path class="st2" d="M32.594,9.323c0.125-0.054,0.25-0.106,0.376-0.159C32.844,9.217,32.719,9.27,32.594,9.323z"/>
	</g>
	<g>
		<path class="st2" d="M34.703,8.481c0.091-0.033,0.183-0.064,0.274-0.097C34.886,8.417,34.794,8.448,34.703,8.481z"/>
	</g>
	<g>
		<path class="st2" d="M47.584,5.831c0.119-0.006,0.238-0.011,0.357-0.016C47.822,5.821,47.703,5.825,47.584,5.831z"/>
	</g>
	<g>
		<path class="st2" d="M36.684,7.806c0.074-0.023,0.147-0.049,0.221-0.071C36.831,7.757,36.758,7.783,36.684,7.806z"/>
	</g>
	<g>
		<path class="st2" d="M49.999,5.763v7.95c20.041,0,36.289,16.248,36.289,36.289S70.04,86.293,49.999,86.293
			c-20.043,0-36.289-16.25-36.289-36.291c0-8.17,2.701-15.708,7.258-21.774l-6.36-4.77C9.053,30.852,5.76,40.042,5.76,50.002
			c0,24.432,19.806,44.241,44.239,44.241c13.276,0,25.176-5.856,33.284-15.113C90.1,71.343,94.24,61.16,94.24,50.002
			C94.24,25.571,74.431,5.763,49.999,5.763z"/>
	</g>
	<g>
		<path class="st0" d="M34.977,8.384c0.564-0.204,1.133-0.397,1.708-0.578C36.11,7.987,35.541,8.18,34.977,8.384z"/>
	</g>
	<g>
		<path class="st0" d="M36.906,7.734c0.606-0.187,1.218-0.359,1.834-0.521C38.124,7.375,37.511,7.547,36.906,7.734z"/>
	</g>
	<g>
		<path class="st0" d="M30.91,10.085c0.554-0.266,1.117-0.518,1.684-0.761C32.027,9.567,31.465,9.819,30.91,10.085z"/>
	</g>
	<g>
		<path class="st0" d="M29.075,11.019c0.512-0.275,1.03-0.54,1.553-0.795C30.105,10.479,29.587,10.744,29.075,11.019z"/>
	</g>
	<g>
		<path class="st0" d="M32.969,9.165c0.572-0.239,1.15-0.468,1.734-0.684C34.119,8.696,33.542,8.926,32.969,9.165z"/>
	</g>
	<g>
		<path class="st0" d="M45.637,5.979c0.645-0.063,1.294-0.113,1.947-0.148C46.931,5.866,46.282,5.916,45.637,5.979z"/>
	</g>
	<g>
		<path class="st0" d="M39.12,7.115c0.613-0.155,1.23-0.298,1.853-0.428C40.35,6.816,39.733,6.96,39.12,7.115z"/>
	</g>
	<g>
		<path class="st0" d="M47.941,5.815c0.682-0.031,1.368-0.052,2.058-0.052C49.309,5.763,48.624,5.784,47.941,5.815z"/>
	</g>
	<g>
		<path class="st0" d="M43.293,6.269c0.651-0.099,1.307-0.18,1.966-0.25C44.6,6.089,43.944,6.17,43.293,6.269z"/>
	</g>
	<g>
		<path class="st0" d="M41.288,6.625c0.621-0.124,1.246-0.237,1.875-0.335C42.534,6.388,41.909,6.501,41.288,6.625z"/>
	</g>
	<g>
		<path class="st0" d="M49.999,13.713v-7.95c-0.69,0-1.376,0.021-2.058,0.052c-0.119,0.005-0.238,0.01-0.357,0.016
			c-0.653,0.035-1.302,0.085-1.947,0.148c-0.126,0.012-0.252,0.026-0.377,0.04c-0.659,0.07-1.316,0.151-1.966,0.25
			c-0.043,0.007-0.086,0.015-0.129,0.021c-0.63,0.098-1.254,0.211-1.875,0.335c-0.105,0.021-0.211,0.04-0.316,0.062
			c-0.623,0.129-1.24,0.273-1.853,0.428c-0.127,0.032-0.254,0.065-0.38,0.099c-0.617,0.162-1.229,0.334-1.834,0.521
			c-0.074,0.023-0.147,0.048-0.221,0.071c-0.575,0.181-1.144,0.374-1.708,0.578c-0.091,0.033-0.183,0.064-0.274,0.097
			c-0.584,0.215-1.161,0.445-1.734,0.684c-0.126,0.052-0.251,0.105-0.376,0.159c-0.567,0.243-1.129,0.495-1.684,0.761
			c-0.094,0.045-0.188,0.093-0.282,0.139c-0.523,0.255-1.041,0.52-1.553,0.795c-0.074,0.04-0.15,0.078-0.224,0.118
			c-0.538,0.294-1.068,0.601-1.593,0.916c-0.122,0.073-0.244,0.146-0.365,0.221c-0.512,0.314-1.017,0.637-1.515,0.971
			c-0.107,0.072-0.212,0.145-0.318,0.218c-0.472,0.323-0.939,0.654-1.398,0.994c-0.058,0.043-0.116,0.084-0.173,0.126
			c-0.485,0.363-0.959,0.739-1.427,1.122c-0.116,0.095-0.232,0.189-0.347,0.284c-0.45,0.375-0.893,0.758-1.327,1.15
			c-0.112,0.101-0.222,0.204-0.334,0.306c-0.421,0.388-0.837,0.782-1.243,1.185c-0.069,0.069-0.139,0.139-0.208,0.209
			c-0.391,0.394-0.774,0.798-1.15,1.207c-0.107,0.116-0.214,0.231-0.32,0.348c-0.384,0.426-0.759,0.86-1.126,1.301
			c-0.11,0.132-0.218,0.265-0.326,0.397c-0.366,0.449-0.726,0.903-1.074,1.366l6.36,4.77C27.588,19.415,38.127,13.713,49.999,13.713
			z"/>
	</g>
	<g>
		<path class="st2" d="M79.03,50.002c0,7.321-2.716,14.005-7.188,19.112c-5.322,6.076-13.131,9.921-21.843,9.921
			c-16.035,0-29.032-12.998-29.032-29.032c0-6.537,2.161-12.568,5.806-17.42l-5.806-4.354c-4.557,6.065-7.258,13.604-7.258,21.774
			c0,20.041,16.246,36.291,36.289,36.291c20.041,0,36.289-16.25,36.289-36.291S70.04,13.713,49.999,13.713v7.258
			C66.032,20.972,79.03,33.968,79.03,50.002z"/>
	</g>
	<g class="st4">
		<path class="st5" d="M79.03,50.002c0,7.321-2.716,14.005-7.188,19.112c-5.322,6.076-13.131,9.921-21.843,9.921
			c-16.035,0-29.032-12.998-29.032-29.032c0-6.537,2.161-12.568,5.806-17.42l-5.806-4.354c-4.557,6.065-7.258,13.604-7.258,21.774
			c0,20.041,16.246,36.291,36.289,36.291c20.041,0,36.289-16.25,36.289-36.291S70.04,13.713,49.999,13.713v7.258
			C66.032,20.972,79.03,33.968,79.03,50.002z"/>
	</g>
	<g>
		<path class="st0" d="M20.968,28.228l5.806,4.354c5.297-7.05,13.728-11.611,23.226-11.611v-7.258
			C38.127,13.713,27.588,19.415,20.968,28.228z"/>
	</g>
	<g class="st4">
		<path class="st5" d="M20.968,28.228l5.806,4.354c5.297-7.05,13.728-11.611,23.226-11.611v-7.258
			C38.127,13.713,27.588,19.415,20.968,28.228z"/>
	</g>
</g>
</svg>
