<?xml version="1.0" encoding="utf-8"?>
<!-- Generator: Adobe Illustrator 23.0.6, SVG Export Plug-In . SVG Version: 6.00 Build 0)  -->
<svg version="1.1" id="レイヤー_1" xmlns="http://www.w3.org/2000/svg" xmlns:xlink="http://www.w3.org/1999/xlink" x="0px"
	 y="0px" viewBox="0 0 880 880" style="enable-background:new 0 0 880 880;" xml:space="preserve">
<style type="text/css">
	.st0{opacity:0.5;}
	.st1{fill:#FFB000;}
	.st2{fill:#48D9A5;}
	.st3{opacity:0.5;fill:#69A6FF;}
	.st4{opacity:0.5;fill:#4279DB;}
	.st5{fill:#7C73F4;}
	.st6{fill:#FF8327;}
	.st7{fill:#FF4960;}
	.st8{fill:#FF6EB0;}
	.st9{fill:#B864EB;}
	.st10{fill:#69A6FF;}
	.st11{fill:#4279DB;}
	.st12{fill:url(#SVGID_1_);}
	.st13{fill:url(#SVGID_2_);}
	.st14{fill:url(#SVGID_3_);}
	.st15{fill:url(#SVGID_4_);}
	.st16{fill:url(#SVGID_5_);}
	.st17{fill:url(#SVGID_6_);}
	.st18{fill:url(#SVGID_7_);}
	.st19{fill:url(#SVGID_8_);}
	.st20{opacity:0.5;fill:none;}
	.st21{fill:none;}
	.st22{fill:url(#SVGID_9_);}
	.st23{fill:#FFFFFF;}
	.st24{fill:#47A7FF;}
	.st25{fill:url(#SVGID_10_);}
	.st26{fill:url(#SVGID_11_);}
	.st27{fill:url(#SVGID_12_);}
	.st28{fill:url(#SVGID_13_);}
	.st29{fill:url(#SVGID_14_);}
	.st30{fill:url(#SVGID_15_);}
	.st31{fill:url(#SVGID_16_);}
	.st32{fill:url(#SVGID_17_);}
	.st33{fill:url(#SVGID_18_);}
	.st34{fill:url(#SVGID_19_);}
	.st35{fill:url(#SVGID_20_);}
	.st36{fill:url(#SVGID_21_);}
	.st37{fill:url(#SVGID_22_);}
	.st38{fill:url(#SVGID_23_);}
	.st39{fill:url(#SVGID_24_);}
	.st40{fill:url(#SVGID_25_);}
	.st41{fill:url(#SVGID_26_);}
	.st42{fill:url(#SVGID_27_);}
	.st43{opacity:0.5;fill:#FF8327;}
</style>
<g>
	<g class="st0">
		<path class="st1" d="M586.47,304.18l134.45-113.76C663.91,125.55,584.7,80.68,495.16,67.69L464.94,241.3
			C512.93,247.08,555.59,270.18,586.47,304.18z"/>
	</g>
	<g class="st0">
		<path class="st2" d="M464.74,241.27l30.14-173.63c-17.52-2.53-35.43-3.84-53.65-3.84c-71.22,0-137.76,20.01-194.33,54.7
			l88.48,152.35c30.54-19.61,66.86-30.99,105.85-30.99C449.18,239.87,457.03,240.35,464.74,241.27z"/>
	</g>
	<path class="st3" d="M335.22,270.95l-88.57-152.3C174.42,163.03,118.5,231.36,89.96,312.59l137.58,49.64l28.1,10.13
		C270.08,330.26,298.43,294.63,335.22,270.95z"/>
	<path class="st4" d="M255.64,372.63l-28.1-10.14L89.95,312.88c-13.57,38.62-20.94,80.15-20.94,123.4
		c0,43.71,7.54,85.65,21.38,124.61l165.35-60.69c-6.9-20.04-10.66-41.54-10.66-63.93C245.07,414,248.79,392.59,255.64,372.63z"/>
	<g class="st0">
		<path class="st5" d="M255.79,500.09L90.47,560.87c28.91,81.22,85.23,149.44,157.83,193.53l87.62-152.87
			C298.92,577.94,270.36,542.28,255.79,500.09z"/>
	</g>
	<g class="st0">
		<path class="st6" d="M813.43,434.01c-0.49-93.12-35.18-178.15-92.15-243.17L586.63,304.37c31.27,34.52,50.41,80.22,50.73,130.39
			L813.43,434.01z"/>
	</g>
	<g class="st0">
		<path class="st7" d="M813.44,436.02c0-0.57-0.01-1.14-0.01-1.7l-176.07,0.64c0,0.36,0.01,0.71,0.01,1.07
			c0,49.98-18.71,95.59-49.48,130.23l9.36,7.79l126.01,104.89C779.46,613.74,813.44,528.85,813.44,436.02z"/>
	</g>
	<g class="st0">
		<path class="st8" d="M469.43,629.88L497.54,804c89.78-13.63,169.03-59.33,225.69-125.05L597.25,574.04l-9.36-7.79
			C557.18,600.81,517.63,623.75,469.43,629.88z"/>
	</g>
	<g class="st0">
		<path class="st9" d="M335.97,601.4l-87.55,152.91c56.22,34.09,122.19,53.72,192.74,53.72c19.05,0,37.77-1.43,56.06-4.2
			l-27.46-173.76c-8.14,1.03-20.18,1.89-28.6,1.89C402.45,631.97,366.37,620.76,335.97,601.4z"/>
	</g>
</g>
<path class="st1" d="M570.93,318.27L691,216.69c-50.91-57.93-121.65-98-201.61-109.61l-26.98,155.04
	C505.26,267.28,543.35,287.91,570.93,318.27z"/>
<path class="st2" d="M462.22,262.1l26.91-155.05c-15.64-2.26-31.64-3.43-47.91-3.43c-63.6,0-123.03,17.87-173.54,48.85l79.01,136.05
	c27.27-17.51,59.71-27.67,94.53-27.67C448.33,260.84,455.34,261.27,462.22,262.1z"/>
<path class="st10" d="M346.56,288.6l-79.09-136.01c-64.5,39.63-114.44,100.65-139.93,173.19l122.86,44.33l25.1,9.05
	C288.39,341.56,313.71,309.74,346.56,288.6z"/>
<path class="st11" d="M275.49,379.4l-25.09-9.05l-122.87-44.3c-12.11,34.49-18.7,71.57-18.7,110.2c0,39.03,6.73,76.49,19.09,111.28
	l147.66-54.19c-6.17-17.9-9.52-37.1-9.52-57.09C266.06,416.34,269.38,397.22,275.49,379.4z"/>
<path class="st5" d="M275.62,493.22l-147.63,54.28c25.82,72.53,76.11,133.45,140.95,172.82l78.24-136.52
	C314.14,562.75,288.64,530.9,275.62,493.22z"/>
<path class="st6" d="M773.61,434.22c-0.44-83.16-31.42-159.1-82.29-217.16L571.08,318.44c27.93,30.82,45.02,71.64,45.3,116.44
	L773.61,434.22z"/>
<path class="st7" d="M773.62,436.01c0-0.51-0.01-1.01-0.01-1.52l-157.23,0.57c0,0.32,0.01,0.63,0.01,0.95
	c0,44.64-16.7,85.36-44.19,116.3l8.35,6.96l112.53,93.67C743.28,594.71,773.62,518.91,773.62,436.01z"/>
<path class="st8" d="M466.41,609.13l25.11,155.49c80.18-12.17,150.95-52.98,201.55-111.67l-112.51-93.69l-8.36-6.96
	C544.78,583.17,509.46,603.65,466.41,609.13z"/>
<path class="st9" d="M347.23,583.7l-78.18,136.55c50.21,30.45,109.11,47.98,172.12,47.98c17.02,0,33.73-1.28,50.06-3.75
	l-24.52-155.17c-7.27,0.92-18.02,1.69-25.54,1.69C406.6,611,374.38,600.98,347.23,583.7z"/>
<linearGradient id="SVGID_1_" gradientUnits="userSpaceOnUse" x1="701.7254" y1="287.8781" x2="487.6967" y2="154.3649">
	<stop  offset="0" style="stop-color:#D9D9D9"/>
	<stop  offset="0.6788" style="stop-color:#F7F7F7"/>
</linearGradient>
<path class="st12" d="M580.42,309.67l128.85-109.02C654.64,138.48,578.72,95.47,492.91,83.02L463.96,249.4
	C509.94,254.94,550.83,277.08,580.42,309.67z"/>
<linearGradient id="SVGID_2_" gradientUnits="userSpaceOnUse" x1="526.847" y1="127.6256" x2="285.3003" y2="212.218">
	<stop  offset="0" style="stop-color:#D9D9D9"/>
	<stop  offset="0.6788" style="stop-color:#F7F7F7"/>
</linearGradient>
<path class="st13" d="M463.76,249.38l28.88-166.4c-16.79-2.42-33.96-3.68-51.42-3.68c-68.25,0-132.03,19.17-186.24,52.42
	l84.79,146.01c29.26-18.79,64.08-29.7,101.44-29.7C448.85,248.03,456.37,248.5,463.76,249.38z"/>
<linearGradient id="SVGID_3_" gradientUnits="userSpaceOnUse" x1="322.391" y1="157.3709" x2="179.7052" y2="335.7282">
	<stop  offset="0" style="stop-color:#D9D9D9"/>
	<stop  offset="0.6788" style="stop-color:#F7F7F7"/>
</linearGradient>
<path class="st14" d="M339.63,277.82l-84.88-145.96c-69.22,42.53-122.81,108.02-150.16,185.86l131.85,47.57l26.93,9.71
	C277.2,334.66,304.38,300.51,339.63,277.82z"/>
<linearGradient id="SVGID_4_" gradientUnits="userSpaceOnUse" x1="170.7538" y1="313.7923" x2="177.8881" y2="526.8019">
	<stop  offset="0" style="stop-color:#D9D9D9"/>
	<stop  offset="0.6788" style="stop-color:#F7F7F7"/>
</linearGradient>
<path class="st15" d="M263.37,375.26l-26.93-9.72L104.58,318c-13,37.01-20.07,76.81-20.07,118.26c0,41.89,7.22,82.09,20.49,119.42
	l158.47-58.16c-6.62-19.2-10.22-39.81-10.22-61.26C253.24,414.91,256.81,394.39,263.37,375.26z"/>
<linearGradient id="SVGID_5_" gradientUnits="userSpaceOnUse" x1="155.1864" y1="513.8271" x2="285.1324" y2="659.0609">
	<stop  offset="0" style="stop-color:#D9D9D9"/>
	<stop  offset="0.6788" style="stop-color:#F7F7F7"/>
</linearGradient>
<path class="st16" d="M263.51,497.42l-158.43,58.25c27.71,77.84,81.68,143.22,151.26,185.47l83.97-146.5
	C304.84,572.03,277.47,537.85,263.51,497.42z"/>
<linearGradient id="SVGID_6_" gradientUnits="userSpaceOnUse" x1="776.1838" y1="534.4275" x2="643.6898" y2="242.9407">
	<stop  offset="0" style="stop-color:#D9D9D9"/>
	<stop  offset="0.6788" style="stop-color:#F7F7F7"/>
</linearGradient>
<path class="st17" d="M797.93,434.09c-0.47-89.25-33.71-170.74-88.31-233.05l-129.04,108.8c29.97,33.08,48.31,76.88,48.62,124.96
	L797.93,434.09z"/>
<linearGradient id="SVGID_7_" gradientUnits="userSpaceOnUse" x1="634.3769" y1="704.1583" x2="718.9692" y2="432.036">
	<stop  offset="0" style="stop-color:#D9D9D9"/>
	<stop  offset="0.6788" style="stop-color:#F7F7F7"/>
</linearGradient>
<path class="st18" d="M797.94,436.01c0-0.55-0.01-1.09-0.01-1.63l-168.74,0.61c0,0.34,0.01,0.68,0.01,1.02
	c0,47.9-17.93,91.61-47.42,124.81l8.97,7.47l120.76,100.52C765.37,606.33,797.94,524.98,797.94,436.01z"/>
<linearGradient id="SVGID_8_" gradientUnits="userSpaceOnUse" x1="425.1828" y1="743.0258" x2="649.1486" y2="628.3676">
	<stop  offset="0" style="stop-color:#D9D9D9"/>
	<stop  offset="0.6788" style="stop-color:#F7F7F7"/>
</linearGradient>
<path class="st19" d="M468.25,621.8l26.95,166.87c86.04-13.06,161.99-56.86,216.29-119.84L590.75,568.29l-8.97-7.46
	C552.35,593.95,514.45,615.92,468.25,621.8z"/>
<polygon class="st20" points="564.37,545.36 572.23,551.9 564.37,545.36 "/>
<polygon class="st21" points="263.37,375.01 236.44,365.3 263.37,375.01 "/>
<polygon class="st21" points="581.79,560.82 590.75,568.29 581.79,560.82 "/>
<g>
	<path class="st11" d="M144.3,428.24c0.8-0.03,2.16-0.33,4.49-0.89c0.83-3.16,1.3-5.65,1.74-9.07c0.27-2.19,0.33-2.63,0.36-3.52
		l2.96,0.8c-0.09,0.27-0.41,1.98-0.98,5.17c-0.44,2.54-0.56,3.02-1.27,5.82c0.77-0.24,1.21-0.38,2.39-0.83l0.03,2.98
		c-2.63,0.98-5.74,1.98-7.78,2.54c-0.35,0.09-0.83,0.24-1.18,0.38L144.3,428.24z M148.12,408.85c0-0.95-0.06-1.74-0.15-2.13h3.34
		c-0.12,0.5-0.15,1.06-0.15,2.1v2.22h0.94c0.95,0,1.57-0.03,2.01-0.12v3.07c-0.44-0.06-1.3-0.12-2.04-0.12h-5.23
		c-0.74,0-1.45,0.06-2.16,0.12v-3.07c0.47,0.09,1.04,0.12,1.95,0.12h1.48V408.85z M147.79,415.02c0.62,2.69,1.06,5.94,1.36,10.05
		l-2.69,0.86c-0.24-4.23-0.65-7.54-1.33-10.38L147.79,415.02z M157.34,418.75c-1.33,0-2.16,0.03-3.02,0.12v-3.08
		c0.71,0.12,1.51,0.15,3.04,0.15h11.15c1.36,0,2.37-0.06,3.02-0.18v3.1c-0.83-0.09-1.6-0.12-2.99-0.12h-4.2
		c-0.33,0.77-0.62,1.36-1.06,2.22h4.85c1.24,0,1.98-0.03,2.81-0.12c-0.09,0.77-0.12,1.66-0.12,2.84v7.45c0,1.24-0.3,1.83-1,2.16
		c-0.5,0.21-0.98,0.27-2.51,0.27h-0.35c-0.09-1.71-0.18-2.13-0.71-3.01c0.24,0.03,0.89,0.09,1.12,0.09c0.44,0,0.53-0.12,0.53-0.53
		v-6.5h-1.71v6.53c0,1.27,0.03,1.92,0.12,2.69h-2.87c0.09-0.89,0.12-1.45,0.12-2.72v-6.5h-1.6v6.53c0,1.33,0.03,1.95,0.12,2.69
		h-2.87c0.09-0.89,0.12-1.45,0.12-2.72v-6.5h-1.57v7.01c0,1.69,0.03,2.45,0.12,3.19h-3.28c0.15-0.94,0.18-1.77,0.18-3.31v-6.95
		c0-1.33-0.03-1.95-0.09-2.66c1.03,0.06,1.6,0.09,2.78,0.09h2.6c0.47-0.94,0.71-1.42,0.98-2.22H157.34z M161.18,408.55
		c0-0.86-0.06-1.51-0.18-2.1h3.43c-0.12,0.56-0.18,1.21-0.18,2.1v3.08h3.04v-2.04c0-0.8-0.03-1.33-0.09-1.8h3.25
		c-0.09,0.47-0.12,1.06-0.12,1.98v2.66c0,0.95,0.03,1.36,0.09,1.86c-0.94-0.06-1.24-0.06-2.1-0.06h-10.91c-0.98,0-1.36,0-2.13,0.06
		c0.06-0.74,0.06-1,0.06-1.71v-2.81c0-0.71-0.03-1.36-0.15-2.04h3.22c-0.09,0.47-0.12,1.1-0.12,1.89v2.01h2.87V408.55z"/>
	<path class="st11" d="M198.55,410.44c1.92,0,2.81-0.06,3.58-0.21v3.4c-0.92-0.15-1.86-0.18-3.55-0.18h-8.1v3.99h6.56
		c1.89,0,2.84-0.06,3.58-0.18v3.31c-0.98-0.12-2.1-0.18-3.58-0.18h-5.17c1.45,2.07,2.34,3.04,4.2,4.61c2.19,1.8,4.46,3.25,6.92,4.32
		c-0.83,1.03-1.39,1.92-2.01,3.19c-2.39-1.24-4.17-2.48-6.15-4.29c-1.95-1.8-3.01-3.08-4.43-5.26c0.06,1.68,0.09,2.16,0.09,2.75
		v4.94c0,1.15,0.06,2.22,0.21,3.16h-3.72c0.15-0.98,0.21-1.83,0.21-3.16v-4.91c0-0.94,0-1.36,0.09-2.75
		c-2.42,3.87-5.47,6.71-10.14,9.4c-0.68-1.3-1.09-1.95-1.98-3.01c4.73-2.37,8.01-5.14,10.58-8.99h-4.64c-1.39,0-2.42,0.06-3.52,0.18
		v-3.31c1.03,0.15,1.83,0.18,3.52,0.18h6.09v-3.99h-7.48c-1.6,0-2.54,0.03-3.55,0.18v-3.4c0.98,0.15,1.83,0.21,3.52,0.21h7.51v-1.92
		c0-0.89-0.03-1.45-0.15-2.1h3.6c-0.12,0.65-0.15,1.06-0.15,2.13v1.89H198.55z"/>
	<path class="st11" d="M126.77,447.49c-0.12,0.8-0.15,1.54-0.18,2.98l-0.15,16.88c3.07-0.59,5.85-1.71,8.07-3.25
		c2.72-1.86,4.55-3.9,6.03-6.77c1.15,1.54,1.54,1.95,2.81,3.02c-2.04,3.13-3.93,5.11-6.59,6.89c-2.96,1.98-5.97,3.13-10.76,4.05
		c-0.8,0.15-1.15,0.27-1.77,0.5l-1.89-2.28c0.21-0.8,0.27-1.33,0.27-3.04l0.12-15.96c0-2.07,0-2.07-0.15-3.04L126.77,447.49z"/>
	<path class="st11" d="M147.2,467.18c2.54-0.15,6.06-1,8.75-2.19c3.7-1.6,6.45-3.87,8.78-7.24c1.3-1.89,2.13-3.52,3.02-5.91
		c1.15,1.39,1.63,1.83,3.13,2.9c-2.51,5.41-5.32,8.9-9.37,11.59c-3.02,2.01-6.68,3.46-11.26,4.43c-1.18,0.24-1.27,0.27-1.95,0.5
		L147.2,467.18z M149.71,448.82c3.52,2.19,5.35,3.55,7.63,5.7l-2.54,3.22c-2.36-2.51-4.79-4.46-7.54-6L149.71,448.82z"/>
	<path class="st11" d="M198.37,451.48c-0.38,0.5-0.44,0.62-0.92,1.98c-0.94,2.69-2.57,6.15-3.78,8.13
		c-3.01,4.91-7.18,8.39-13.48,11.29c-0.95-1.6-1.33-2.1-2.45-3.04c2.51-1.03,3.99-1.77,5.76-2.96c2.1-1.36,3.34-2.42,4.85-4.11
		c-2.07-1.77-3.84-3.01-6.06-4.23l2.25-2.63c2.48,1.39,3.73,2.22,5.94,3.96c1.39-2.13,2.39-4.2,3.31-6.98l-9.19,0.09
		c-1.83,3.04-3.93,5.44-6.92,7.95c-0.98-1.09-1.42-1.48-2.96-2.37c3.25-2.42,5.62-5.11,7.42-8.42c0.86-1.57,1.45-3.02,1.71-4.11
		l3.84,0.86c-0.33,0.53-0.33,0.53-0.89,1.66c-0.35,0.8-0.56,1.15-0.71,1.42c0.47-0.06,0.47-0.06,7.69-0.12
		c1.21-0.03,1.83-0.09,2.6-0.35L198.37,451.48z"/>
	<path class="st11" d="M210.49,447.82c-0.12,0.83-0.12,0.83-0.3,6.62c-0.21,5.76-0.86,9.1-2.39,12.15c-1,2.04-2.13,3.55-4.08,5.47
		c-1.15-1.48-1.6-1.92-2.98-2.87c1.45-1.18,2.16-1.98,3.04-3.4c2.13-3.4,2.81-7.21,2.81-15.49c0-1.63,0-1.89-0.12-2.69
		L210.49,447.82z M218.32,447.46c-0.15,0.86-0.18,1.36-0.21,2.81l-0.15,16.82c2.07-0.98,3.25-1.86,4.52-3.37
		c1.36-1.6,2.22-3.22,2.9-5.41c1.03,1.33,1.42,1.71,2.78,2.78c-1.21,2.93-2.75,5.14-4.7,6.89c-1.68,1.45-3.22,2.33-6.3,3.55
		c-0.65,0.24-0.89,0.35-1.27,0.53l-1.89-2.01c0.21-0.86,0.24-1.51,0.27-3.13l0.15-16.67v-0.89c0-0.74-0.03-1.39-0.12-1.95
		L218.32,447.46z"/>
</g>
<g>
	<path class="st8" d="M521.59,661.84l0.03-1.33v-0.94c0-1.95-0.03-2.6-0.15-3.28h3.81c-0.09,0.68-0.12,0.83-0.12,1.98
		c0,1.8,0,1.8-0.03,3.58h1.89c2.1,0,2.69-0.03,3.84-0.21v3.61c-1.04-0.12-1.83-0.15-3.78-0.15h-1.98c-0.06,3.55-0.06,3.75-0.21,4.88
		c-0.41,3.78-1.68,6.3-4.26,8.49c-1.6,1.36-3.04,2.13-5.77,3.1c-0.56-1.27-0.94-1.83-2.22-3.13c2.81-0.86,4.23-1.57,5.64-2.81
		c2.01-1.74,2.87-3.7,3.13-7.09c0.06-0.68,0.06-1.39,0.12-3.43h-7.66v4.43c0,1.24,0.03,1.71,0.12,2.48h-3.84
		c0.09-0.65,0.12-1.45,0.12-2.54v-4.37h-1.8c-1.95,0-2.75,0.03-3.78,0.15v-3.61c1.15,0.18,1.74,0.21,3.84,0.21h1.74v-2.96
		c0-1.24-0.03-1.86-0.15-2.63h3.87c-0.12,0.98-0.12,1.03-0.12,2.54v3.04H521.59z"/>
	<path class="st8" d="M535.28,666.66c1.3,0.18,1.86,0.21,4.79,0.21h15.75c2.93,0,3.49-0.03,4.79-0.21v4.11
		c-1.18-0.15-1.51-0.15-4.82-0.15h-15.7c-3.31,0-3.64,0-4.82,0.15V666.66z"/>
	<path class="st8" d="M575.13,658.65c-0.12,0.35-0.18,0.68-0.38,2.27c-0.59,4.02-1.33,7.3-2.33,10.11c-1.33,3.64-2.84,6.3-5.23,9.13
		c-1.42-1.36-1.89-1.71-3.37-2.54c1.77-1.77,2.98-3.58,4.23-6.3c1.27-2.75,2.31-6.41,2.78-10.14c0.18-1.21,0.27-2.22,0.27-2.87
		c0-0.09,0-0.24,0-0.41L575.13,658.65z M583.52,657.91c0.09,1.66,0.56,4.2,1.24,6.8c1.42,5.41,3.37,9.19,6.59,12.77
		c-1.57,1-2.07,1.42-3.25,2.72c-2.1-2.54-3.64-5.2-5.03-8.69c-1.27-3.1-2.31-7.06-2.81-10.76c-0.18-1.12-0.27-1.68-0.41-2.13
		L583.52,657.91z M586.63,658.23c1.03,1.45,1.45,2.19,2.22,4.17l-2.22,1.04c-0.53-1.51-1.27-2.9-2.19-4.23L586.63,658.23z
		 M589.88,661.96c-0.71-1.71-1.24-2.75-2.13-4.08l2.07-0.94c0.98,1.36,1.48,2.25,2.19,3.96L589.88,661.96z"/>
	<path class="st8" d="M599.28,678.81c0,1.74,0.06,2.72,0.18,3.58H596c0.12-0.89,0.18-1.83,0.18-3.66v-19.48
		c0-1.54-0.03-2.37-0.12-3.31c0.83,0.09,1.57,0.12,3.02,0.12h5.35c1.54,0,2.22-0.03,3.01-0.12c-0.06,0.83-0.09,1.6-0.09,2.75v4.2
		c0,1.33,0.03,2.01,0.09,2.66c-0.8-0.06-1.66-0.09-2.75-0.09h-5.41V678.81z M599.28,659.71h5.17v-1.45h-5.17V659.71z M599.28,663.17
		h5.17v-1.45h-5.17V663.17z M610.28,674.99c1.42,1.48,2.72,2.16,5.26,2.84c-0.33,0.56-0.41,0.71-0.65,1.24
		c1.06,0.15,1.48,0.18,2.13,0.18c0.74,0,0.92-0.15,0.92-0.8v-13.01h-5.82c-1.03,0-1.95,0.03-2.72,0.09
		c0.06-0.74,0.09-1.36,0.09-2.66v-4.2c0-1.12-0.03-1.89-0.09-2.75c0.83,0.09,1.51,0.12,3.02,0.12h5.73c1.45,0,2.22-0.03,3.05-0.12
		c-0.12,1.06-0.15,1.86-0.15,3.28v19.63c0,2.78-0.68,3.31-4.2,3.31c-0.59,0-0.95,0-1.71-0.03c-0.12-1.06-0.21-1.6-0.5-2.42
		c-0.15,0.38-0.18,0.53-0.33,0.98c-2.28-0.83-4.26-2.22-5.79-4.02c-1.3,2.36-3.16,3.72-6.68,4.88c-0.5-1.12-0.92-1.74-1.66-2.57
		c2.01-0.5,2.9-0.86,3.81-1.42c1.04-0.68,1.83-1.54,2.28-2.54h-2.9c-1.04,0-1.8,0.03-2.57,0.15v-2.72c0.65,0.12,1.27,0.15,2.36,0.15
		h3.67c0.06-0.65,0.06-0.92,0.09-1.8h-3.43c-0.94,0-1.54,0.03-2.13,0.12v-2.57c0.62,0.09,1.1,0.12,2.07,0.12h1
		c-0.44-0.74-0.68-1.1-1.45-2.04l2.72-0.68c0.74,1.06,1.15,1.71,1.69,2.72h2.42c0.56-0.92,0.77-1.33,1.3-2.72l2.87,0.56
		c-0.44,0.86-0.68,1.27-1.24,2.16h1c0.98,0,1.51-0.03,2.13-0.12v2.57c-0.53-0.09-1.18-0.12-2.1-0.12h-3.96
		c-0.03,0.65-0.06,1.18-0.12,1.8H614c1.12,0,1.71-0.03,2.37-0.15v2.72c-0.71-0.12-1.33-0.15-2.39-0.15H610.28z M612.41,659.71h5.53
		v-1.45h-5.53V659.71z M612.41,663.17h5.53v-1.45h-5.53V663.17z"/>
	<path class="st8" d="M626.12,666.45c0.77,0.12,1.24,0.15,2.37,0.15h2.22c0.86,0,1.51-0.03,2.25-0.15
		c-0.09,0.92-0.12,1.62-0.12,3.22V676c0.47,0.8,0.8,1.15,1.36,1.54c1.45,0.95,3.16,1.27,6.86,1.27c5.94,0,9.46-0.15,12.65-0.59
		c-0.56,1.6-0.62,1.8-0.89,3.49c-2.48,0.12-6.77,0.18-10.29,0.18c-5.12,0-6.77-0.21-8.63-1.12c-1.06-0.47-1.71-1.04-2.6-2.13
		c-1.45,1.33-2.04,1.83-3.46,2.84c-0.33,0.27-0.59,0.44-0.86,0.68l-1.45-3.37c1.06-0.44,2.69-1.54,4.2-2.87v-6.41h-1.63
		c-0.8,0-1.21,0.03-1.98,0.15V666.45z M628.55,655.45c2.04,1.74,3.13,2.9,5.14,5.32l-2.48,2.39c-1.8-2.45-2.78-3.52-5.02-5.53
		L628.55,655.45z M636.17,660.04c-1.3,0-1.89,0.03-2.42,0.15v-2.93c0.86,0.12,1.77,0.15,3.34,0.15h4.46
		c-0.03-1.01-0.06-1.42-0.18-2.22h3.31c-0.12,0.74-0.15,1.24-0.18,2.22h4.88c1.42,0,2.51-0.06,3.37-0.15v2.93
		c-0.71-0.12-1.48-0.15-2.98-0.15h-5.26v1.42h4.58c1.06,0,1.6-0.03,2.45-0.12c-0.09,0.74-0.12,1.27-0.12,2.27v6.09
		c0,0.95,0.03,1.48,0.12,2.16c-0.83-0.06-1.48-0.09-2.45-0.09h-4.58v1.42h5.41c1.51,0,2.25-0.03,2.96-0.12v2.87
		c-0.74-0.12-1.51-0.15-2.96-0.15h-5.41c0,0.98,0.06,1.66,0.18,2.48h-3.31c0.15-0.86,0.18-1.36,0.21-2.48h-4.7
		c-1.06,0-2.28,0.03-2.93,0.12v-2.84c0.62,0.09,1.33,0.12,2.93,0.12h4.7v-1.42h-4.2c-0.89,0-1.71,0.03-2.45,0.09
		c0.09-0.74,0.12-1.24,0.12-2.16v-6.27c0-0.89-0.03-1.3-0.12-2.1c0.74,0.09,1.42,0.12,2.42,0.12h4.23v-1.42H636.17z M637.95,663.82
		v1.66h3.64v-1.66H637.95z M637.95,667.66v1.71h3.64v-1.71H637.95z M644.51,665.48h3.93v-1.66h-3.93V665.48z M644.51,669.38h3.93
		v-1.71h-3.93V669.38z"/>
</g>
<g>
	<path class="st5" d="M185.72,601.86c-0.15,3.4-0.8,5.85-2.07,7.95c-1.57,2.6-3.73,4.23-7.72,5.82c-0.77-1.54-1.15-2.07-2.42-3.28
		c3.52-1.09,5.76-2.66,7.01-4.91c0.77-1.36,1.21-3.22,1.3-5.59h-7.18c-2.01,0-2.69,0.03-3.75,0.15v-3.52
		c1.12,0.18,1.77,0.21,3.81,0.21h17.29c2.01,0,2.69-0.03,3.81-0.21v3.52c-1.06-0.12-1.74-0.15-3.75-0.15H185.72z M192.49,592.02
		c1.12,1.71,1.48,2.42,2.07,4.14l-2.27,0.95c-0.53-1.6-0.98-2.48-1.95-4.05v1.57c-0.98-0.12-1.69-0.15-3.75-0.15h-8.96
		c-2.07,0-2.78,0.03-3.75,0.15v-3.61c1.09,0.18,1.68,0.21,3.81,0.21h8.84c2.13,0,2.72-0.03,3.81-0.21v1.83L192.49,592.02z
		 M195.59,595.77c-0.59-1.54-1-2.39-2.04-4.05l2.19-0.86c1.12,1.69,1.54,2.45,2.07,3.96L195.59,595.77z"/>
	<path class="st5" d="M209.51,592.49c-0.12,0.35-0.18,0.68-0.38,2.27c-0.59,4.02-1.33,7.3-2.33,10.11c-1.33,3.64-2.84,6.3-5.23,9.13
		c-1.42-1.36-1.89-1.71-3.37-2.54c1.77-1.77,2.98-3.58,4.23-6.3c1.27-2.75,2.31-6.41,2.78-10.14c0.18-1.21,0.27-2.22,0.27-2.87
		c0-0.09,0-0.24,0-0.41L209.51,592.49z M217.91,591.75c0.09,1.66,0.56,4.2,1.24,6.8c1.42,5.41,3.37,9.19,6.59,12.77
		c-1.57,1-2.07,1.42-3.25,2.72c-2.1-2.54-3.64-5.2-5.03-8.69c-1.27-3.1-2.31-7.06-2.81-10.76c-0.18-1.12-0.27-1.68-0.41-2.13
		L217.91,591.75z M221.01,592.08c1.03,1.45,1.45,2.19,2.22,4.17l-2.22,1.04c-0.53-1.51-1.27-2.9-2.19-4.23L221.01,592.08z
		 M224.26,595.8c-0.71-1.71-1.24-2.75-2.13-4.08l2.07-0.94c0.98,1.36,1.48,2.25,2.19,3.96L224.26,595.8z"/>
	<path class="st5" d="M233.67,596.9c1.24,2.28,1.83,3.7,2.9,7.01l-3.34,1.06c-0.77-2.98-1.36-4.55-2.69-7.15L233.67,596.9z
		 M250.63,597.1c-0.18,0.44-0.24,0.59-0.41,1.51c-0.86,4.02-2.19,7.27-4.08,9.84c-2.19,2.98-4.64,4.91-9.01,7.12
		c-0.77-1.3-1.12-1.74-2.37-2.93c2.07-0.8,3.28-1.45,5.02-2.72c3.46-2.51,5.44-5.53,6.71-10.26c0.38-1.45,0.53-2.48,0.53-3.4
		L250.63,597.1z M239.96,595.69c1.57,2.93,2.13,4.23,2.87,6.8l-3.28,1.04c-0.56-2.25-1.45-4.52-2.69-6.95L239.96,595.69z"/>
	<path class="st5" d="M278.83,595.3c-0.3,0.44-0.41,0.68-0.74,1.77c-1.36,4.49-3.46,8.48-6.06,11.41c-2.72,3.1-5.97,5.41-10.52,7.48
		c-0.83-1.48-1.21-1.98-2.51-3.1c2.96-1.18,4.61-2.07,6.47-3.46c4.23-3.16,7.01-7.18,8.63-12.47l-8.9,0.12
		c-1.8,2.9-4.11,5.44-6.92,7.6c-0.89-1.21-1.33-1.6-2.87-2.54c3.37-2.31,5.5-4.67,7.66-8.57c0.92-1.68,1.39-2.87,1.51-3.93
		l4.05,0.83c-0.24,0.29-0.24,0.33-0.59,1.06c-0.53,1.18-0.74,1.62-1.15,2.39c0.33-0.03,0.8-0.03,1.42-0.06l6.47-0.09
		c0.77,0,1.15-0.03,1.48-0.09c-0.59-1.3-1.21-2.34-2.04-3.4l2.37-0.83c1.09,1.36,1.6,2.22,2.27,3.81l-1.57,0.56L278.83,595.3z
		 M280.1,593.05c-0.62-1.36-1.33-2.6-2.22-3.75l2.31-0.89c1.03,1.27,1.62,2.25,2.27,3.67L280.1,593.05z"/>
</g>
<polygon class="st20" points="564.37,545.36 572.23,551.9 564.37,545.36 "/>
<polygon class="st21" points="263.37,375.01 236.44,365.3 263.37,375.01 "/>
<polygon class="st21" points="581.79,560.82 590.75,568.29 581.79,560.82 "/>
<linearGradient id="SVGID_9_" gradientUnits="userSpaceOnUse" x1="233.6935" y1="653.4489" x2="432.4345" y2="707.7205">
	<stop  offset="0" style="stop-color:#D9D9D9"/>
	<stop  offset="0.6788" style="stop-color:#F7F7F7"/>
</linearGradient>
<path class="st22" d="M340.35,594.51l-83.9,146.54c53.88,32.67,117.1,51.49,184.71,51.49c18.26,0,36.2-1.38,53.72-4.02L468.57,622
	c-7.8,0.99-19.34,1.81-27.41,1.81C404.07,623.81,369.49,613.06,340.35,594.51z"/>
<g>
	<path class="st23" d="M347.33,465.35c-3.8,0-6.89-3.08-6.89-6.89v-4.66h-13.07c-2.14,0-4.14-0.71-5.79-2.05
		c-1.64-1.34-2.74-3.12-3.17-5.16l-0.86-4.13c-0.4-1.94,0.05-3.95,1.23-5.53l22.42-29.95c1.3-1.74,3.34-2.76,5.52-2.76h7.66
		c3.8,0,6.89,3.08,6.89,6.89v22.69c3.36,0.46,5.96,3.34,5.96,6.83v4.68c0,2.12-0.77,4.15-2.18,5.72c-1.03,1.15-2.33,1.96-3.78,2.4
		v5.03c0,3.8-3.08,6.89-6.89,6.89H347.33z"/>
	<path class="st24" d="M360.32,440.63v4.68c0,0.44-0.14,0.81-0.43,1.13c-0.28,0.32-0.69,0.47-1.21,0.47h-4.32v11.55h-7.04v-11.55
		h-19.96c-0.55,0-1.03-0.17-1.44-0.51c-0.41-0.34-0.68-0.76-0.78-1.26l-0.85-4.09l22.42-29.95h7.66v29.52H360.32z M347.33,440.63
		v-15.48c0-1.46,0.1-3.08,0.29-4.84l-14.69,20.32H347.33z"/>
	<path class="st23" d="M390.33,476.32c-3.8,0-6.89-3.08-6.89-6.89v-3.86c-1.12,0.18-2.28,0.27-3.48,0.27
		c-2.91,0-5.64-0.63-8.12-1.87c-2.47-1.23-4.61-3.02-6.35-5.32c-1.62-2.14-2.87-4.73-3.7-7.69c-0.77-2.73-1.16-5.82-1.16-9.19
		c0-3.19,0.45-6.22,1.34-9.02c0.93-2.94,2.31-5.56,4.11-7.8c1.88-2.34,4.18-4.2,6.84-5.52c2.72-1.36,5.76-2.05,9.04-2.05
		c2.84,0,5.4,0.49,7.61,1.46c1.18-0.54,2.5-0.84,3.91-0.84h4.94c3.81,0,6.89,3.08,6.89,6.89v44.54c0,3.8-3.08,6.89-6.89,6.89H390.33
		z M383.44,437.44c-0.06,0.14-0.21,0.45-0.35,1.02c-0.15,0.58-0.33,1.64-0.33,3.32c0,1.78,0.16,2.85,0.3,3.43
		c0.04,0.16,0.08,0.31,0.11,0.43c0.13-0.02,0.22-0.04,0.28-0.06V437.44z"/>
	<path class="st24" d="M398.42,424.89v44.54h-8.08v-15.22c-1.33,1.42-2.84,2.56-4.52,3.44s-3.63,1.31-5.86,1.31
		c-1.83,0-3.51-0.38-5.04-1.15c-1.53-0.76-2.84-1.87-3.94-3.32c-1.1-1.45-1.95-3.24-2.55-5.38c-0.6-2.14-0.9-4.58-0.9-7.33
		c0-2.49,0.34-4.8,1.02-6.94c0.67-2.14,1.65-3.99,2.91-5.56c1.26-1.57,2.78-2.8,4.55-3.68c1.77-0.88,3.75-1.33,5.96-1.33
		c2.09,0,3.85,0.36,5.27,1.08c1.42,0.72,2.68,1.69,3.8,2.91l0.43-1.9c0.28-0.98,0.96-1.47,2.03-1.47H398.42z M390.33,433.46
		c-0.89-1.11-1.89-1.9-2.98-2.36c-1.09-0.46-2.26-0.69-3.5-0.69c-1.22,0-2.32,0.23-3.31,0.69c-0.98,0.46-1.82,1.15-2.52,2.08
		c-0.7,0.93-1.23,2.11-1.6,3.53c-0.37,1.43-0.56,3.11-0.56,5.06c0,1.96,0.16,3.63,0.47,4.99c0.32,1.36,0.77,2.48,1.36,3.34
		c0.59,0.86,1.31,1.48,2.16,1.87c0.85,0.38,1.8,0.57,2.85,0.57c1.68,0,3.11-0.35,4.29-1.05c1.18-0.7,2.29-1.69,3.34-2.98V433.46z"/>
	<path class="st23" d="M420.67,465.88c-2.79,0-5.36-0.51-7.65-1.52c-2.37-1.05-4.39-2.56-6.03-4.49c-1.54-1.82-2.72-3.98-3.49-6.42
		c-0.7-2.22-1.05-4.65-1.05-7.22v-21.34c0-3.8,3.08-6.89,6.89-6.89h8.08c3.05,0,5.64,1.98,6.55,4.73c0.9-2.75,3.49-4.73,6.55-4.73
		h8.08c3.8,0,6.89,3.08,6.89,6.89v33.58c0,3.8-3.08,6.89-6.89,6.89h-4.94c-1.7,0-3.28-0.43-4.63-1.22
		C426.55,465.29,423.74,465.88,420.67,465.88z"/>
	<path class="st24" d="M438.61,424.89v33.58h-4.94c-1.07,0-1.75-0.49-2.03-1.47l-0.56-2.68c-1.37,1.4-2.89,2.53-4.55,3.39
		c-1.66,0.86-3.61,1.29-5.86,1.29c-1.83,0-3.46-0.31-4.86-0.93c-1.41-0.62-2.59-1.5-3.55-2.63c-0.96-1.13-1.69-2.48-2.18-4.04
		c-0.49-1.56-0.74-3.28-0.74-5.15v-21.34h8.08v21.34c0,2.05,0.47,3.64,1.42,4.76c0.95,1.12,2.37,1.69,4.27,1.69
		c1.4,0,2.7-0.31,3.93-0.93c1.22-0.62,2.38-1.48,3.47-2.57v-24.28H438.61z"/>
	<path class="st23" d="M457.26,465.88c-2.12,0-4.14-0.3-6.01-0.89c-2.11-0.67-3.98-1.71-5.57-3.1c-1.66-1.45-2.94-3.25-3.83-5.34
		c-0.84-1.98-1.27-4.22-1.27-6.65c0-1.6,0.26-3.19,0.78-4.73c0.57-1.68,1.47-3.24,2.66-4.66c0.72-0.86,1.57-1.67,2.54-2.43
		c-0.75-0.68-1.41-1.46-1.94-2.34c-0.05-0.07-1.57-2.81-1.57-2.81c-1.55-2.79-0.99-6.28,1.36-8.43c5.15-4.72,11.41-7.11,18.6-7.11
		c2.86,0,5.52,0.5,7.91,1.49c2.46,1.02,4.58,2.48,6.32,4.35c1.72,1.85,3.04,4.05,3.91,6.54c0.81,2.32,1.22,4.85,1.22,7.5v21.21
		c0,3.8-3.08,6.89-6.89,6.89h-3.66c-1.97,0-3.65-0.4-5.11-1.21c-0.1-0.06-0.21-0.12-0.32-0.19c-0.07,0.03-0.14,0.07-0.22,0.1
		c-1.32,0.59-2.74,1.05-4.22,1.36C460.5,465.72,458.92,465.88,457.26,465.88z"/>
	<path class="st24" d="M449.08,429.57c3.86-3.53,8.51-5.3,13.94-5.3c1.96,0,3.72,0.32,5.27,0.97c1.55,0.64,2.86,1.54,3.93,2.68
		c1.07,1.15,1.88,2.51,2.44,4.11c0.56,1.59,0.83,3.34,0.83,5.24v21.21h-3.66c-0.77,0-1.36-0.11-1.77-0.34
		c-0.41-0.23-0.74-0.69-0.98-1.39l-0.72-2.42c-0.85,0.76-1.68,1.43-2.49,2.01c-0.81,0.58-1.65,1.06-2.52,1.46
		c-0.87,0.39-1.81,0.69-2.8,0.9c-0.99,0.21-2.09,0.31-3.29,0.31c-1.42,0-2.73-0.19-3.93-0.57c-1.2-0.38-2.24-0.95-3.11-1.72
		s-1.55-1.71-2.03-2.85c-0.48-1.13-0.72-2.45-0.72-3.96c0-0.85,0.14-1.7,0.42-2.54c0.29-0.84,0.75-1.64,1.39-2.41
		c0.64-0.76,1.48-1.48,2.5-2.16c1.03-0.68,2.28-1.26,3.78-1.77c1.49-0.5,3.23-0.91,5.22-1.23s4.26-0.51,6.81-0.57v-1.96
		c0-2.25-0.48-3.91-1.44-4.99c-0.96-1.08-2.35-1.62-4.16-1.62c-1.31,0-2.4,0.15-3.26,0.46c-0.86,0.31-1.62,0.65-2.27,1.03
		c-0.65,0.38-1.25,0.73-1.78,1.03c-0.53,0.31-1.13,0.46-1.78,0.46c-0.57,0-1.05-0.15-1.44-0.44c-0.39-0.29-0.71-0.64-0.95-1.03
		L449.08,429.57z M467.6,444.13c-2.33,0.11-4.3,0.31-5.89,0.6c-1.59,0.3-2.87,0.67-3.83,1.13c-0.96,0.46-1.65,0.99-2.06,1.6
		c-0.42,0.61-0.62,1.28-0.62,2c0,1.42,0.42,2.43,1.26,3.04c0.84,0.61,1.94,0.92,3.29,0.92c1.66,0,3.09-0.3,4.3-0.9
		c1.21-0.6,2.4-1.51,3.55-2.73V444.13z"/>
	<path class="st23" d="M486.45,465.35c-3.8,0-6.89-3.08-6.89-6.89v-48.63c0-3.8,3.08-6.89,6.89-6.89h8.08c3.8,0,6.89,3.08,6.89,6.89
		v48.63c0,3.8-3.08,6.89-6.89,6.89H486.45z"/>
	<path class="st24" d="M494.53,409.83v48.63h-8.08v-48.63H494.53z"/>
	<path class="st23" d="M506.15,465.35c-3.8,0-6.89-3.08-6.89-6.89v-33.58c0-1.19,0.3-2.31,0.83-3.29c-0.36-0.55-0.67-1.12-0.94-1.73
		c-0.67-1.5-1.01-3.1-1.01-4.77c0-1.66,0.33-3.25,0.97-4.75c0.62-1.45,1.49-2.72,2.57-3.8c1.05-1.05,2.3-1.9,3.71-2.52
		c1.5-0.66,3.1-0.99,4.75-0.99c1.66,0,3.26,0.33,4.76,0.97c1.42,0.61,2.67,1.45,3.74,2.5c1.08,1.06,1.95,2.31,2.59,3.72
		c0.69,1.55,1.04,3.18,1.04,4.87c0,1.7-0.36,3.34-1.06,4.86c-0.26,0.57-0.57,1.1-0.9,1.61c0.54,0.98,0.85,2.11,0.85,3.31v33.58
		c0,3.8-3.08,6.89-6.89,6.89H506.15z"/>
	<path class="st24" d="M515.38,415.1c0,0.7-0.14,1.35-0.42,1.96c-0.29,0.61-0.66,1.15-1.13,1.6c-0.47,0.46-1.02,0.82-1.65,1.1
		c-0.63,0.27-1.31,0.41-2.03,0.41c-0.7,0-1.36-0.14-1.98-0.41c-0.62-0.27-1.16-0.64-1.62-1.1c-0.46-0.46-0.82-0.99-1.1-1.6
		c-0.27-0.61-0.41-1.26-0.41-1.96c0-0.72,0.14-1.4,0.41-2.03c0.27-0.63,0.64-1.18,1.1-1.64c0.46-0.46,1-0.82,1.62-1.1
		c0.62-0.27,1.28-0.41,1.98-0.41c0.72,0,1.4,0.14,2.03,0.41c0.63,0.27,1.18,0.64,1.65,1.1c0.47,0.46,0.84,1,1.13,1.64
		C515.24,413.7,515.38,414.38,515.38,415.1z M514.27,424.89v33.58h-8.11v-33.58H514.27z"/>
	<path class="st23" d="M533.18,465.88c-2.12,0-4.14-0.3-6.02-0.9c-2.1-0.67-3.97-1.71-5.56-3.1c-1.65-1.44-2.95-3.24-3.83-5.34
		c-0.84-2-1.27-4.23-1.27-6.65c0-1.59,0.26-3.18,0.79-4.73c0.56-1.66,1.45-3.22,2.64-4.64c0.74-0.87,1.59-1.69,2.56-2.45
		c-0.77-0.69-1.42-1.47-1.94-2.34c-0.05-0.07-1.57-2.81-1.57-2.81c-1.55-2.79-0.99-6.28,1.37-8.43c5.16-4.72,11.41-7.11,18.59-7.11
		c2.87,0,5.53,0.5,7.91,1.49c2.45,1.02,4.58,2.48,6.32,4.34c1.72,1.85,3.03,4.04,3.9,6.53c0.81,2.33,1.22,4.86,1.22,7.52v21.21
		c0,3.8-3.08,6.89-6.89,6.89h-3.67c-1.94,0-3.66-0.41-5.11-1.21c-0.1-0.06-0.21-0.12-0.32-0.19c-0.07,0.03-0.14,0.07-0.22,0.1
		c-1.33,0.6-2.75,1.05-4.22,1.36C536.43,465.72,534.85,465.88,533.18,465.88z"/>
	<path class="st24" d="M525,429.57c3.86-3.53,8.51-5.3,13.94-5.3c1.96,0,3.72,0.32,5.27,0.97c1.55,0.64,2.86,1.54,3.93,2.68
		c1.07,1.15,1.88,2.51,2.44,4.11c0.56,1.59,0.83,3.34,0.83,5.24v21.21h-3.67c-0.76,0-1.35-0.11-1.77-0.34
		c-0.42-0.23-0.74-0.69-0.98-1.39l-0.72-2.42c-0.85,0.76-1.68,1.43-2.49,2.01c-0.81,0.58-1.65,1.06-2.52,1.46
		c-0.87,0.39-1.81,0.69-2.8,0.9c-0.99,0.21-2.09,0.31-3.29,0.31c-1.42,0-2.73-0.19-3.93-0.57c-1.2-0.38-2.24-0.95-3.11-1.72
		c-0.87-0.76-1.55-1.71-2.03-2.85c-0.48-1.13-0.72-2.45-0.72-3.96c0-0.85,0.14-1.7,0.43-2.54c0.28-0.84,0.75-1.64,1.39-2.41
		c0.65-0.76,1.48-1.48,2.51-2.16c1.02-0.68,2.28-1.26,3.78-1.77s3.24-0.91,5.22-1.23c1.98-0.32,4.25-0.51,6.81-0.57v-1.96
		c0-2.25-0.48-3.91-1.44-4.99s-2.34-1.62-4.15-1.62c-1.31,0-2.4,0.15-3.26,0.46c-0.86,0.31-1.62,0.65-2.27,1.03
		c-0.66,0.38-1.25,0.73-1.79,1.03c-0.53,0.31-1.13,0.46-1.78,0.46c-0.57,0-1.05-0.15-1.44-0.44c-0.39-0.29-0.71-0.64-0.95-1.03
		L525,429.57z M543.52,444.13c-2.33,0.11-4.3,0.31-5.89,0.6c-1.59,0.3-2.87,0.67-3.83,1.13c-0.96,0.46-1.65,0.99-2.06,1.6
		c-0.41,0.61-0.62,1.28-0.62,2c0,1.42,0.42,2.43,1.26,3.04c0.84,0.61,1.93,0.92,3.29,0.92c1.66,0,3.1-0.3,4.31-0.9
		c1.21-0.6,2.39-1.51,3.55-2.73V444.13z"/>
</g>
<g>
	<path class="st10" d="M198.17,237.52c-0.33,0.71-0.47,1.33-0.62,2.45c-0.71,5.23-1.03,7.33-1.8,11.76h3.49
		c2.07,0,2.72-0.03,3.84-0.21v3.73c-1.06-0.12-1.75-0.15-3.78-0.15h-17.85c-2.07,0-2.75,0.03-3.81,0.15v-3.73
		c1.12,0.18,1.77,0.21,3.87,0.21h10.32c0.83-3.9,1.45-8.07,1.86-12.12h-9.22c-1.66,0-2.28,0.03-3.31,0.18v-3.75
		c1.03,0.18,1.68,0.24,3.28,0.24h8.6c1.77,0,2.37-0.06,3.28-0.3L198.17,237.52z"/>
	<path class="st10" d="M207.72,243.55c1.3,0.18,1.86,0.21,4.79,0.21h15.75c2.93,0,3.49-0.03,4.79-0.21v4.11
		c-1.18-0.15-1.51-0.15-4.82-0.15h-15.7c-3.31,0-3.64,0-4.82,0.15V243.55z"/>
	<path class="st10" d="M254.25,238.94l0.03-1.33v-0.95c0-1.95-0.03-2.6-0.15-3.31h3.81c-0.09,0.71-0.12,0.83-0.12,2.01
		c0,1.8,0,1.8-0.03,3.58h1.89c2.1,0,2.69-0.03,3.84-0.21v3.6c-1.03-0.12-1.83-0.15-3.78-0.15h-1.98c-0.06,3.52-0.06,3.72-0.21,4.85
		c-0.41,3.78-1.69,6.3-4.26,8.48c-1.6,1.36-3.04,2.13-5.76,3.1c-0.56-1.27-0.95-1.83-2.22-3.13c2.81-0.86,4.23-1.57,5.65-2.81
		c2.01-1.74,2.87-3.7,3.13-7.09c0.06-0.65,0.06-1.36,0.12-3.4h-7.66v4.4c0,1.24,0.03,1.71,0.12,2.48h-3.84
		c0.09-0.65,0.12-1.42,0.12-2.54v-4.35h-1.8c-1.95,0-2.75,0.03-3.78,0.15v-3.6c1.15,0.18,1.74,0.21,3.84,0.21h1.74v-2.96
		c0-1.24-0.03-1.86-0.15-2.63h3.87c-0.12,0.98-0.12,1.04-0.12,2.51v3.07H254.25z M260.22,233.2c0.92,1.42,1.36,2.4,1.92,4.11
		l-2.19,0.83c-0.5-1.57-1.09-2.87-1.89-4.17L260.22,233.2z M263.14,236.96c-0.5-1.45-1.1-2.75-1.83-4.02l2.07-0.77
		c0.89,1.36,1.42,2.48,1.89,3.9L263.14,236.96z"/>
	<path class="st10" d="M269,243.55c1.3,0.18,1.86,0.21,4.79,0.21h15.75c2.93,0,3.49-0.03,4.79-0.21v4.11
		c-1.18-0.15-1.51-0.15-4.82-0.15h-15.7c-3.31,0-3.64,0-4.82,0.15V243.55z"/>
	<path class="st10" d="M196.62,278.14l0.03-1.33v-0.94c0-1.95-0.03-2.6-0.15-3.28h3.81c-0.09,0.68-0.12,0.83-0.12,1.98
		c0,1.8,0,1.8-0.03,3.58h1.89c2.1,0,2.69-0.03,3.84-0.21v3.61c-1.04-0.12-1.83-0.15-3.78-0.15h-1.98c-0.06,3.55-0.06,3.75-0.21,4.88
		c-0.41,3.78-1.68,6.3-4.26,8.49c-1.6,1.36-3.04,2.13-5.77,3.1c-0.56-1.27-0.94-1.83-2.22-3.13c2.81-0.86,4.23-1.57,5.64-2.81
		c2.01-1.74,2.87-3.7,3.13-7.09c0.06-0.68,0.06-1.39,0.12-3.43h-7.66v4.43c0,1.24,0.03,1.71,0.12,2.48h-3.84
		c0.09-0.65,0.12-1.45,0.12-2.54v-4.37h-1.8c-1.95,0-2.75,0.03-3.78,0.15v-3.61c1.15,0.18,1.74,0.21,3.84,0.21h1.74v-2.96
		c0-1.24-0.03-1.86-0.15-2.63h3.87c-0.12,0.98-0.12,1.03-0.12,2.54v3.04H196.62z"/>
	<path class="st10" d="M217.61,283.85c-0.09,0.35-0.12,0.38-0.24,0.92c-1.04,4.58-2.63,8.28-4.97,11.5
		c-1.45-1.04-1.95-1.33-3.43-1.92c1.95-2.34,3.01-4.38,4.14-7.78c0.53-1.54,0.74-2.45,0.86-3.61L217.61,283.85z M220.59,275.87
		c0-1.48-0.03-2.22-0.18-3.04h3.99c-0.09,0.86-0.12,1.27-0.12,3.13v1.57h6.77c2.04,0,2.69-0.03,3.81-0.21v3.64
		c-1.04-0.12-1.8-0.15-3.75-0.15h-6.83v14.34c0,1.51,0.03,2.37,0.15,3.31h-4.02c0.15-0.95,0.18-1.8,0.18-3.34V280.8h-6.56
		c-1.92,0-2.69,0.03-3.72,0.15v-3.64c1.12,0.18,1.77,0.21,3.78,0.21h6.5V275.87z M230.73,282.96c0.21,0.98,0.44,1.74,1.04,3.31
		c1.33,3.55,2.42,5.65,4.2,7.95c-1.54,0.77-2.04,1.06-3.4,2.04c-2.25-3.58-3.46-6.35-4.85-11.05c-0.24-0.8-0.27-0.92-0.47-1.36
		L230.73,282.96z M236.26,273.71c0,1.8-1.45,3.25-3.25,3.25c-1.77,0-3.25-1.48-3.25-3.25c0-1.8,1.45-3.25,3.25-3.25
		C234.81,270.46,236.26,271.91,236.26,273.71z M231.32,273.71c0,0.92,0.77,1.68,1.69,1.68s1.68-0.77,1.68-1.68
		c0-0.95-0.74-1.69-1.68-1.69C232.09,272.02,231.32,272.79,231.32,273.71z"/>
	<path class="st10" d="M240.55,282.96c1.3,0.18,1.86,0.21,4.79,0.21h15.75c2.93,0,3.49-0.03,4.79-0.21v4.11
		c-1.18-0.15-1.51-0.15-4.82-0.15h-15.7c-3.31,0-3.64,0-4.82,0.15V282.96z"/>
	<path class="st10" d="M274.48,297.68c0.15-0.94,0.18-1.74,0.18-3.31v-18.95c0-1.45-0.06-2.22-0.18-3.02h4.05
		c-0.12,0.89-0.12,1.27-0.12,3.1v5.5c4.05,1.42,8.69,3.58,13.42,6.24l-2.07,3.49c-2.45-1.69-5.53-3.37-10.46-5.65
		c-0.68-0.33-0.77-0.35-1-0.5c0.09,0.83,0.12,1.18,0.12,2.01v7.8c0,1.54,0.03,2.31,0.12,3.28H274.48z"/>
</g>
<g>
	<path class="st2" d="M356.29,157.51c0.12,1.33,0.3,1.92,0.83,2.6c0.86,1.12,2.39,1.74,4.31,1.74c2.96,0,4.73-1.33,4.73-3.55
		c0-1.21-0.56-2.22-1.48-2.72c-0.89-0.47-1.06-0.5-5.14-1.45c-2.22-0.5-3.4-0.98-4.46-1.8c-1.51-1.18-2.27-2.81-2.27-4.79
		c0-4.11,3.31-6.77,8.39-6.77c3.37,0,5.91,1.03,7.36,2.98c0.74,0.98,1.09,1.86,1.45,3.43l-4.23,0.5c-0.18-1-0.38-1.51-0.89-2.1
		c-0.77-0.92-2.07-1.42-3.69-1.42c-2.57,0-4.32,1.3-4.32,3.22c0,1.24,0.65,2.1,2.01,2.69c0.65,0.27,0.89,0.33,4.17,1.06
		c2.34,0.5,3.75,1.06,4.82,1.8c1.68,1.24,2.45,2.87,2.45,5.08c0,2.1-0.65,3.81-1.86,5.02c-1.57,1.51-3.9,2.25-7.06,2.25
		c-2.42,0-4.79-0.59-6.21-1.54c-1.18-0.8-2.04-1.92-2.6-3.37c-0.27-0.68-0.38-1.24-0.56-2.45L356.29,157.51z"/>
	<path class="st2" d="M390.82,164.84c-0.5-1-1.04-1.86-1.89-3.16l-7.63-11.5c-0.56-0.89-1.3-2.16-2.01-3.55
		c0.03,0.41,0.03,0.41,0.12,1.51c0.03,0.56,0.09,1.89,0.09,2.57v9.69c0,1.98,0.09,3.37,0.24,4.43h-4.31
		c0.15-0.98,0.23-2.45,0.23-4.46v-15.25c0-1.54-0.06-2.6-0.23-3.81h4.61c0.27,0.74,0.8,1.63,1.8,3.13l7.48,11.26
		c0.71,1.06,1.66,2.6,2.31,3.78c-0.12-1.15-0.21-2.93-0.21-4.17v-9.93c0-1.74-0.06-2.96-0.24-4.08h4.32
		c-0.18,1.18-0.24,2.28-0.24,4.08v15.64c0,1.66,0.06,2.78,0.24,3.81H390.82z"/>
	<path class="st2" d="M404.65,157.51c0.12,1.33,0.3,1.92,0.83,2.6c0.86,1.12,2.39,1.74,4.31,1.74c2.96,0,4.73-1.33,4.73-3.55
		c0-1.21-0.56-2.22-1.48-2.72c-0.89-0.47-1.06-0.5-5.14-1.45c-2.22-0.5-3.4-0.98-4.46-1.8c-1.51-1.18-2.27-2.81-2.27-4.79
		c0-4.11,3.31-6.77,8.39-6.77c3.37,0,5.91,1.03,7.36,2.98c0.74,0.98,1.09,1.86,1.45,3.43l-4.23,0.5c-0.18-1-0.38-1.51-0.89-2.1
		c-0.77-0.92-2.07-1.42-3.7-1.42c-2.57,0-4.32,1.3-4.32,3.22c0,1.24,0.65,2.1,2.01,2.69c0.65,0.27,0.89,0.33,4.17,1.06
		c2.34,0.5,3.75,1.06,4.82,1.8c1.68,1.24,2.45,2.87,2.45,5.08c0,2.1-0.65,3.81-1.86,5.02c-1.57,1.51-3.9,2.25-7.07,2.25
		c-2.42,0-4.79-0.59-6.21-1.54c-1.18-0.8-2.04-1.92-2.6-3.37c-0.27-0.68-0.38-1.24-0.56-2.45L404.65,157.51z"/>
	<path class="st2" d="M325.64,186.42c0.8,0.12,1.27,0.15,2.37,0.15h2.19c0.86,0,1.54-0.03,2.25-0.15c-0.09,0.92-0.12,1.63-0.12,3.22
		v6.62c0.77,1.3,1.51,1.86,3.01,2.31c1.1,0.33,2.87,0.44,6.83,0.44c4.85,0,8.31-0.15,11.15-0.47c-0.5,1.27-0.71,1.95-0.89,3.13
		c-3.99,0.18-6.47,0.24-9.9,0.24c-1.77,0-4.29-0.09-5.5-0.18c-2.9-0.21-4.64-1.06-6.3-3.14c-1.45,1.33-2.1,1.89-3.43,2.81
		c-0.24,0.18-0.53,0.41-0.86,0.68l-1.45-3.37c1.09-0.47,2.45-1.39,4.23-2.9v-6.36h-1.57c-0.8,0-1.21,0.03-2.01,0.15V186.42z
		 M328.15,175.45c2.37,2.37,2.84,2.96,4.43,5.2l-2.33,2.54c-1.57-2.51-2.69-3.9-4.46-5.56L328.15,175.45z M337.08,182.52
		c-0.92,0-1.51,0.03-2.19,0.12v-1.06h-1.98c0.09-0.62,0.12-1.09,0.12-1.8v-1.83c0-0.74-0.03-1.36-0.12-1.95
		c0.86,0.09,1.6,0.12,2.87,0.12h13.77c1.18,0,1.89-0.03,2.81-0.12c-0.09,0.56-0.12,1.09-0.12,1.89v1.77c0,0.8,0.03,1.36,0.15,1.92
		h-2.13v1.06c-0.68-0.09-1.12-0.12-2.16-0.12h-4.2v1.27h4.52c1.24,0,1.74-0.03,2.42-0.09c-0.09,0.68-0.12,1.24-0.12,2.19v4.46
		c0,0.98,0.03,1.48,0.12,2.16c-0.98-0.06-1.51-0.09-2.42-0.09h-4.49v1.33h5.94c1.21,0,1.71-0.03,2.37-0.15v2.78
		c-0.74-0.09-1.24-0.12-2.45-0.12h-5.85c0.03,0.98,0.06,1.45,0.18,2.16h-3.31c0.12-0.8,0.15-1.15,0.18-2.16h-5.47
		c-1.03,0-1.66,0.03-2.36,0.15v-2.81c0.71,0.09,1.51,0.15,2.33,0.15h5.53v-1.33h-4.23c-1.09,0-1.48,0-2.37,0.09
		c0.09-0.68,0.09-0.97,0.09-2.16v-4.46c0-1.3,0-1.54-0.09-2.19c0.71,0.06,1.24,0.09,2.37,0.09h4.2v-1.27H337.08z M340.98,178.64
		h-4.97v1.42c0.33,0.03,0.53,0.03,0.92,0.03h4.05V178.64z M337.4,185.86v1.3h3.58v-1.3H337.4z M337.4,189.08v1.24h3.58v-1.24H337.4z
		 M348.4,180.09c0.21,0,0.21,0,0.8,0v-1.45h-5.29v1.45H348.4z M343.91,187.16h3.87v-1.3h-3.87V187.16z M343.91,190.32h3.87v-1.24
		h-3.87V190.32z"/>
	<path class="st2" d="M361.7,193.1c-0.41,3.93-1.3,6.71-3.02,9.34c-1.24-1.18-1.66-1.51-2.87-2.33c1.06-1.54,1.74-3.1,2.16-5
		c0.3-1.39,0.5-2.93,0.59-4.52c0.15-2.48,0.27-6.68,0.27-10.17c0-2.13-0.03-3.07-0.15-4.29c1.04,0.09,1.8,0.12,3.4,0.12h16.58
		c1.66,0,2.48-0.03,3.4-0.12c-0.09,1.01-0.12,1.75-0.12,3.34v19.42c0,2.45-0.89,3.07-4.26,3.07c-0.92,0-2.42-0.06-3.31-0.12
		c-0.15-1.12-0.36-1.83-0.83-3.07c1.48,0.15,2.78,0.23,3.72,0.23c1.21,0,1.48-0.12,1.48-0.74v-5.17h-7.09v4.85
		c0,1.71,0.03,2.66,0.15,3.52h-3.49c0.12-0.89,0.18-1.74,0.18-3.49v-4.88H361.7z M368.5,186.12h-6.53c0,0.86-0.03,1.45-0.03,1.86
		c-0.03,1.39-0.03,1.6-0.03,2.19h6.59V186.12z M368.5,179.35h-6.44v3.04l-0.03,0.83h6.47V179.35z M378.76,183.23v-3.87h-7.09v3.87
		H378.76z M378.76,190.17v-4.05h-7.09v4.05H378.76z"/>
	<path class="st2" d="M390.97,190.76c0-1.51,0.03-2.27,0.09-3.4c-1.18,1.74-1.6,2.25-3.01,3.7c-0.59-1.74-0.89-2.39-1.57-3.4
		c2.72-2.72,4.52-5.35,5.94-8.78c0.59-1.45,1-2.84,1.15-3.87l3.37,1.15c-0.92,2.48-1.57,4.02-2.75,6.3v16.38
		c0,1.45,0.06,2.48,0.21,3.58h-3.64c0.15-1,0.21-1.98,0.21-3.64V190.76z M404.83,186.12c0.59,3.87,1.51,6.65,3.01,9.1
		c1.01,1.66,2.37,3.14,2.9,3.14c0.59,0,0.97-1.45,1.27-4.97c1.18,1,1.8,1.42,2.81,1.92c-0.68,5.05-1.71,6.95-3.81,6.95
		c-1.42,0-2.96-1.04-4.52-3.02c-2.6-3.25-4.2-7.45-4.97-12.86l-3.13,0.27c-1.3,0.09-2.04,0.18-2.96,0.36l-0.09-3.31
		c0.47,0.03,0.71,0.03,0.92,0.03c0.56,0,1.51-0.06,2.25-0.12l2.69-0.21c-0.21-2.37-0.21-2.66-0.27-5.62c0-0.59-0.09-1.68-0.15-2.19
		l3.58-0.06c-0.12,0.62-0.15,1.21-0.15,2.22c0,1.74,0.06,2.98,0.3,5.35l6.33-0.5c1.74-0.15,2.39-0.24,3.22-0.41l0.09,3.34
		c-0.47-0.03-0.68-0.03-0.86-0.03c-0.47,0-1.21,0.03-2.19,0.12L404.83,186.12z M407.93,175.51c1.66,1.45,2.04,1.83,4.52,4.58
		l-2.45,2.25c-0.68-1-0.83-1.15-2.16-2.6c-1.39-1.51-1.39-1.51-2.22-2.27L407.93,175.51z"/>
	<path class="st2" d="M422.3,193.42c0-1.24,0-1.42,0.06-3.43c-0.77,0.92-1.66,1.77-2.69,2.51c-0.44-1.33-0.83-2.1-1.48-3.16
		c3.1-2.01,6.15-5.26,7.27-7.8l2.78,1.83c-0.3,0.33-0.56,0.68-0.98,1.3c-0.68,0.98-0.94,1.36-1.71,2.31v11.65
		c0,1.57,0.06,2.75,0.21,3.72h-3.67c0.15-0.92,0.21-2.22,0.21-3.75V193.42z M427.8,176.9c-0.33,0.35-0.33,0.35-0.89,1
		c-1.92,2.31-4.02,4.14-6.8,5.91c-0.59-1.15-1.09-1.86-1.86-2.78c2.34-1.27,3.84-2.45,5.29-4.05c0.65-0.77,1.03-1.33,1.42-2.07
		L427.8,176.9z M431.79,187.07c-1.36,0-2.72,0.06-3.64,0.18v-3.31c0.89,0.12,2.22,0.18,3.64,0.18h10.05c1.66,0,2.84-0.06,3.61-0.18
		v3.31c-0.98-0.12-2.22-0.18-3.52-0.18h-1.27v11.76c0,2.54-0.86,3.16-4.43,3.16c-1,0-1.89-0.03-3.28-0.09
		c-0.18-1.3-0.35-2.07-0.86-3.31c1.57,0.21,3.1,0.33,4.02,0.33c1.18,0,1.33-0.06,1.33-0.71v-11.15H431.79z M429.34,176.43
		c0.83,0.12,1.92,0.18,3.46,0.18h7.98c1.48,0,2.48-0.06,3.37-0.18v3.28c-1.03-0.12-2.13-0.18-3.31-0.18h-8.04
		c-1.24,0-2.48,0.06-3.46,0.18V176.43z"/>
</g>
<g>
	<path class="st1" d="M528.29,202.71c-0.12-0.71-0.41-1.98-0.71-2.98l-3.16-11c-0.33-1.15-0.59-2.27-0.86-3.78
		c-0.33,1.69-0.62,2.84-0.89,3.78l-3.13,11c-0.35,1.33-0.59,2.28-0.68,2.98h-3.93c-0.15-0.74-0.15-0.74-0.8-3.04l-4.7-16.97
		c-0.5-1.71-0.8-2.63-1.18-3.52h4.73c0.06,1,0.21,1.89,0.53,3.19l2.75,11.26c0.21,0.92,0.53,2.42,0.71,3.46
		c0.38-1.83,0.59-2.66,0.83-3.49l3.28-11.41c0.35-1.24,0.56-2.22,0.65-3.02h3.64c0.09,0.71,0.35,1.86,0.68,2.96l3.31,11.38
		c0.21,0.77,0.35,1.36,0.83,3.58c0.15-0.68,0.15-0.68,0.33-1.71c0.09-0.47,0.33-1.63,0.38-1.89l2.75-11.14
		c0.29-1.12,0.47-2.34,0.5-3.16h4.73c-0.41,1-0.68,1.8-1.15,3.52l-4.73,16.94c-0.21,0.83-0.36,1.36-0.41,1.63
		c-0.24,0.83-0.24,0.83-0.33,1.45H528.29z"/>
	<path class="st1" d="M545.55,195.2c0.15,1.63,0.41,2.45,1.1,3.31c0.86,1.06,2.19,1.66,3.7,1.66c1.45,0,2.69-0.53,3.55-1.48
		c0.35-0.41,0.56-0.74,0.86-1.54l3.49,1.12c-0.68,1.42-1.06,1.98-1.8,2.72c-1.54,1.51-3.61,2.28-6.09,2.28
		c-5.23,0-8.54-3.49-8.54-9.01c0-5.47,3.28-9.05,8.34-9.05c3.46,0,6.18,1.71,7.36,4.67c0.56,1.42,0.77,2.48,0.86,4.49
		c0,0.06,0,0.15,0.06,0.83H545.55z M554.57,192.27c-0.21-1.3-0.56-2.1-1.3-2.84c-0.8-0.8-1.8-1.18-3.19-1.18
		c-2.31,0-3.99,1.54-4.43,4.02H554.57z"/>
	<path class="st1" d="M562.82,202.71c0.15-1.3,0.21-2.25,0.21-3.99v-15.58c0-1.51-0.06-2.54-0.21-3.96h4.17
		c-0.15,1.24-0.21,2.22-0.21,3.99v2.96c0,0.47-0.03,1.21-0.06,2.22c1.54-2.07,3.37-2.99,6.09-2.99c4.97,0,7.89,3.22,7.89,8.72
		c0,2.9-0.83,5.26-2.42,6.92c-1.39,1.42-3.28,2.13-5.68,2.13c-2.72,0-4.4-0.86-5.88-2.93c0.03,0.38,0.03,0.71,0.03,1.06v1.45H562.82
		z M572.37,188.46c-1.66,0-3.04,0.56-4.02,1.63c-0.89,0.98-1.45,2.57-1.45,4.11c0,1.86,0.77,3.72,1.95,4.67
		c0.86,0.68,2.01,1.09,3.1,1.09c2.99,0,4.91-2.31,4.91-5.88C576.86,190.68,575.09,188.46,572.37,188.46z"/>
	<path class="st1" d="M588.42,184.14c-0.36,0.89-0.53,1.27-1.04,2.27c-1.15-0.68-1.68-0.94-2.81-1.45c1.21-1.98,2.04-3.99,2.33-5.85
		c0.15-0.71,0.15-0.89,0.15-1.15l3.02,0.56c-0.09,0.24-0.24,0.74-0.33,1.18c-0.06,0.33-0.24,0.98-0.38,1.57h2.28v-0.83
		c0-1.42-0.03-2.04-0.18-2.87h3.37c-0.15,0.74-0.18,1.36-0.18,2.81v0.89h2.51c1.45,0,2.16-0.03,2.93-0.15v3.13
		c-0.83-0.09-1.57-0.12-2.93-0.12h-2.51v2.51h3.46c1.15,0,1.89-0.03,2.72-0.12v3.13c-0.74-0.12-1.42-0.15-2.84-0.15h-3.34v2.33h2.87
		c1.3,0,1.92-0.03,2.75-0.12c-0.06,0.71-0.09,1.3-0.09,2.63v5.91c0,1.83-0.74,2.37-3.28,2.37c-0.27,0-0.53,0-1.36-0.06
		c-0.06-1.21-0.18-1.83-0.53-2.81c0.47,0.06,1.24,0.12,1.57,0.12c0.56,0,0.74-0.12,0.74-0.5v-4.73h-2.66v6.97
		c0,1.6,0.03,2.39,0.15,3.19h-3.34c0.15-0.92,0.18-1.66,0.18-3.22v-6.95h-2.84v5.29c0,1.27,0.03,2.1,0.12,2.87h-3.22
		c0.12-0.77,0.15-1.3,0.15-2.9v-5.44c0-1.15-0.03-1.95-0.12-2.78c0.92,0.12,1.66,0.15,2.87,0.15h3.04v-2.33h-3.72
		c-1.36,0-2.22,0.03-3.04,0.15v-3.16c0.77,0.12,1.48,0.15,2.63,0.15h4.14v-2.51H588.42z M605.18,179.65
		c-0.12,0.8-0.15,1.6-0.15,3.07v11.91c0,1.77,0.03,2.39,0.15,3.13h-3.31c0.12-0.77,0.15-1.3,0.15-3.16v-11.82
		c0-1.51-0.03-2.33-0.18-3.13H605.18z M610.97,177.7c-0.15,0.86-0.21,1.74-0.21,3.58v19.75c0,1.57-0.27,2.31-0.97,2.81
		c-0.74,0.5-1.6,0.68-3.58,0.68c-0.15,0-1.06-0.03-2.81-0.09c-0.18-1.39-0.35-2.01-0.89-3.16c1.39,0.21,2.75,0.29,3.81,0.29
		s1.33-0.18,1.33-0.89v-19.3c0-1.77-0.06-2.72-0.18-3.67H610.97z"/>
	<path class="st1" d="M625.19,178.29c-0.33,0.74-0.41,0.95-0.68,1.66c-0.47,1.27-0.47,1.27-2.01,4.73v16.38
		c0,1.39,0.06,2.57,0.21,3.67h-3.55c0.15-1.12,0.21-2.13,0.21-3.67v-8.42c0-0.74,0-0.89,0.09-3.37c-1.04,1.39-1.77,2.31-2.84,3.4
		c-0.41-1.36-0.83-2.22-1.57-3.46c2.19-1.98,4.11-4.76,5.62-8.16c0.65-1.54,1.06-2.75,1.24-3.9L625.19,178.29z M630.01,184.62
		c-1.3,2.63-2.84,4.94-4.85,7.21c-0.71-1.21-1.12-1.74-2.13-2.78c2.25-2.31,3.7-4.55,4.97-7.54c0.74-1.77,1.18-3.25,1.33-4.29
		l3.34,0.97c-0.29,0.71-0.38,0.98-0.59,1.57c-0.44,1.24-0.47,1.33-0.74,1.98h8.04c1.45,0,2.37-0.06,3.19-0.18v3.19
		c-0.86-0.09-1.89-0.15-3.19-0.15h-5.62v3.78h4.82c1.24,0,2.04-0.06,2.93-0.18v3.19c-0.95-0.12-1.83-0.18-2.96-0.18h-4.79v3.78h4.85
		c1.27,0,2.07-0.03,2.96-0.18v3.22c-0.98-0.12-1.83-0.18-2.96-0.18h-4.85v3.4c0,1.77,0.06,2.72,0.21,3.55h-3.58
		c0.15-0.86,0.18-1.74,0.18-3.55v-16.67H630.01z"/>
</g>
<g>
	<path class="st6" d="M646.4,332.01c0-0.74-0.03-1.12-0.15-1.68h3.64c-0.12,0.5-0.15,0.92-0.15,1.74v1.42h7.33
		c1.63,0,2.54-0.06,3.43-0.18v3.43c-0.89-0.12-1.71-0.15-3.43-0.15h-17.53c-0.03,11.09-0.89,15.96-3.73,20.78
		c-1.39-1.72-1.42-1.72-2.6-2.78c2.31-3.81,2.98-7.72,2.98-17.03c0-2.22-0.03-3.19-0.12-4.23c0.92,0.12,1.77,0.15,3.07,0.15h7.24
		V332.01z M638.63,353.05c0.35,0.03,0.47,0.03,0.77,0.03c0.35,0,1.48-0.03,2.1-0.06c2.31-4.64,4.85-12.51,5.06-15.52l3.75,0.92
		c-0.24,0.77-0.27,0.92-0.47,1.6c-1.74,5.91-2.96,9.22-4.73,12.74c5.08-0.47,6.3-0.62,9.64-1.21c-1.09-1.98-2.33-3.9-3.75-5.82
		l2.78-1.57c2.87,3.99,5.08,7.83,6.65,11.47l-2.93,1.89c-0.59-1.54-0.8-2.04-1.36-3.25c-4.11,0.8-4.35,0.83-7.54,1.24
		c-0.68,0.09-3.43,0.38-8.28,0.92c-0.53,0.06-0.71,0.09-1.04,0.15L638.63,353.05z"/>
	<path class="st6" d="M671.08,336.98c-0.98,1.45-1.77,2.31-3.22,3.63c-0.95-1-1.21-1.27-2.57-2.22c2.34-1.92,3.4-3.25,4.49-5.5
		c0.47-0.95,0.8-1.83,0.92-2.48l3.43,0.92c-0.71,1.48-1.15,2.36-1.3,2.66h4.02v-1.04c0-1.3-0.03-1.92-0.18-2.75h3.64
		c-0.15,0.86-0.21,1.54-0.21,2.78v1h5.97c1.48,0,2.37-0.06,3.22-0.18v3.34c-0.8-0.12-1.83-0.18-3.19-0.18h-6v3.72h7.95
		c1.48,0,2.48-0.06,3.37-0.18v3.37c-0.98-0.12-1.98-0.18-3.34-0.18h-19.71c-1.36,0-2.31,0.06-3.37,0.18v-3.37
		c1,0.12,1.89,0.18,3.25,0.18h8.6v-3.72H671.08z M668.22,357.4c0.12-0.8,0.18-2.01,0.18-3.31v-5.47c0-1.39-0.03-2.04-0.12-2.81
		c0.89,0.09,1.6,0.12,2.96,0.12h14.16c1.33,0,2.04-0.03,2.93-0.12c-0.09,0.77-0.12,1.42-0.12,2.81v5.5c0,1.51,0.06,2.42,0.18,3.28
		h-3.46v-1.3h-13.27v1.3H668.22z M671.65,353.12h13.3v-4.23h-13.3V353.12z"/>
	<path class="st6" d="M695.68,341.47c0.8,0.12,1.27,0.15,2.37,0.15h2.19c0.86,0,1.54-0.03,2.25-0.15c-0.09,0.92-0.12,1.62-0.12,3.22
		v6.62c0.77,1.3,1.51,1.86,3.01,2.31c1.1,0.33,2.87,0.44,6.83,0.44c4.85,0,8.31-0.15,11.14-0.47c-0.5,1.27-0.71,1.95-0.89,3.13
		c-3.99,0.18-6.47,0.23-9.9,0.23c-1.77,0-4.29-0.09-5.5-0.18c-2.9-0.21-4.64-1.06-6.3-3.13c-1.45,1.33-2.1,1.89-3.43,2.81
		c-0.24,0.18-0.53,0.41-0.86,0.68l-1.45-3.37c1.09-0.47,2.45-1.39,4.23-2.9v-6.35h-1.57c-0.8,0-1.21,0.03-2.01,0.15V341.47z
		 M698.19,330.5c2.37,2.36,2.84,2.96,4.43,5.2l-2.33,2.54c-1.57-2.51-2.69-3.9-4.46-5.56L698.19,330.5z M707.12,337.57
		c-0.92,0-1.51,0.03-2.19,0.12v-1.07h-1.98c0.09-0.62,0.12-1.09,0.12-1.8v-1.83c0-0.74-0.03-1.36-0.12-1.95
		c0.86,0.09,1.6,0.12,2.87,0.12h13.77c1.18,0,1.89-0.03,2.81-0.12c-0.09,0.56-0.12,1.09-0.12,1.89v1.77c0,0.8,0.03,1.36,0.15,1.92
		h-2.13v1.07c-0.68-0.09-1.12-0.12-2.16-0.12h-4.2v1.27h4.52c1.24,0,1.74-0.03,2.42-0.09c-0.09,0.68-0.12,1.24-0.12,2.19v4.46
		c0,0.98,0.03,1.48,0.12,2.16c-0.98-0.06-1.51-0.09-2.42-0.09h-4.49v1.33h5.94c1.21,0,1.71-0.03,2.37-0.15v2.78
		c-0.74-0.09-1.24-0.12-2.45-0.12h-5.85c0.03,0.98,0.06,1.45,0.18,2.16h-3.31c0.12-0.8,0.15-1.15,0.18-2.16h-5.47
		c-1.03,0-1.66,0.03-2.36,0.15v-2.81c0.71,0.09,1.51,0.15,2.33,0.15h5.53v-1.33h-4.23c-1.09,0-1.48,0-2.37,0.09
		c0.09-0.68,0.09-0.97,0.09-2.16v-4.46c0-1.3,0-1.54-0.09-2.19c0.71,0.06,1.24,0.09,2.37,0.09h4.2v-1.27H707.12z M711.02,333.69
		h-4.97v1.42c0.33,0.03,0.53,0.03,0.92,0.03h4.05V333.69z M707.44,340.91v1.3h3.58v-1.3H707.44z M707.44,344.13v1.24h3.58v-1.24
		H707.44z M718.44,335.14c0.21,0,0.21,0,0.8,0v-1.45h-5.29v1.45H718.44z M713.95,342.21h3.87v-1.3h-3.87V342.21z M713.95,345.37
		h3.87v-1.24h-3.87V345.37z"/>
	<path class="st6" d="M731.74,348.15c-0.41,3.93-1.3,6.71-3.02,9.34c-1.24-1.18-1.66-1.51-2.87-2.33c1.06-1.54,1.74-3.11,2.16-5
		c0.3-1.39,0.5-2.93,0.59-4.52c0.15-2.48,0.27-6.68,0.27-10.17c0-2.13-0.03-3.08-0.15-4.29c1.04,0.09,1.8,0.12,3.4,0.12h16.58
		c1.66,0,2.48-0.03,3.4-0.12c-0.09,1.01-0.12,1.75-0.12,3.34v19.42c0,2.45-0.89,3.07-4.26,3.07c-0.92,0-2.42-0.06-3.31-0.12
		c-0.15-1.12-0.36-1.83-0.83-3.08c1.48,0.15,2.78,0.23,3.72,0.23c1.21,0,1.48-0.12,1.48-0.74v-5.17h-7.09V353
		c0,1.71,0.03,2.66,0.15,3.52h-3.49c0.12-0.89,0.18-1.74,0.18-3.49v-4.88H731.74z M738.54,341.17h-6.53c0,0.86-0.03,1.45-0.03,1.86
		c-0.03,1.39-0.03,1.6-0.03,2.19h6.59V341.17z M738.54,334.41h-6.44v3.04l-0.03,0.83h6.47V334.41z M748.8,338.28v-3.87h-7.09v3.87
		H748.8z M748.8,345.22v-4.05h-7.09v4.05H748.8z"/>
</g>
<g>
	<path class="st7" d="M673.42,521.53c-0.12-0.71-0.41-1.98-0.71-2.98l-3.16-11c-0.33-1.15-0.59-2.27-0.86-3.78
		c-0.33,1.69-0.62,2.84-0.89,3.78l-3.13,11c-0.35,1.33-0.59,2.27-0.68,2.98h-3.93c-0.15-0.74-0.15-0.74-0.8-3.04l-4.7-16.97
		c-0.5-1.71-0.8-2.63-1.18-3.52h4.73c0.06,1,0.21,1.89,0.53,3.19l2.75,11.26c0.21,0.92,0.53,2.42,0.71,3.46
		c0.38-1.83,0.59-2.66,0.83-3.49l3.28-11.41c0.35-1.24,0.56-2.22,0.65-3.02h3.64c0.09,0.71,0.35,1.86,0.68,2.96l3.31,11.38
		c0.21,0.77,0.35,1.36,0.83,3.58c0.15-0.68,0.15-0.68,0.33-1.71c0.09-0.47,0.33-1.63,0.38-1.89l2.75-11.14
		c0.29-1.12,0.47-2.34,0.5-3.16H684c-0.41,1-0.68,1.81-1.15,3.52l-4.73,16.94c-0.21,0.83-0.36,1.36-0.41,1.62
		c-0.24,0.83-0.24,0.83-0.33,1.45H673.42z"/>
	<path class="st7" d="M690.68,514.02c0.15,1.62,0.41,2.45,1.1,3.31c0.86,1.06,2.19,1.66,3.7,1.66c1.45,0,2.69-0.53,3.55-1.48
		c0.35-0.42,0.56-0.74,0.86-1.54l3.49,1.12c-0.68,1.42-1.06,1.98-1.8,2.72c-1.54,1.51-3.61,2.27-6.09,2.27
		c-5.23,0-8.54-3.49-8.54-9.01c0-5.47,3.28-9.05,8.34-9.05c3.46,0,6.18,1.71,7.36,4.67c0.56,1.42,0.77,2.49,0.86,4.5
		c0,0.06,0,0.15,0.06,0.83H690.68z M699.7,511.09c-0.21-1.3-0.56-2.1-1.3-2.84c-0.8-0.8-1.8-1.18-3.19-1.18
		c-2.31,0-3.99,1.54-4.43,4.02H699.7z"/>
	<path class="st7" d="M707.95,521.53c0.15-1.3,0.21-2.24,0.21-3.99v-15.58c0-1.5-0.06-2.54-0.21-3.96h4.17
		c-0.15,1.24-0.21,2.22-0.21,3.99v2.96c0,0.47-0.03,1.21-0.06,2.22c1.54-2.07,3.37-2.99,6.09-2.99c4.97,0,7.89,3.23,7.89,8.72
		c0,2.9-0.83,5.26-2.42,6.92c-1.39,1.42-3.28,2.13-5.68,2.13c-2.72,0-4.4-0.86-5.88-2.93c0.03,0.38,0.03,0.71,0.03,1.06v1.45H707.95
		z M717.49,507.28c-1.66,0-3.04,0.56-4.02,1.62c-0.89,0.98-1.45,2.57-1.45,4.11c0,1.86,0.77,3.72,1.95,4.67
		c0.86,0.68,2.01,1.09,3.1,1.09c2.99,0,4.91-2.31,4.91-5.88C721.99,509.5,720.21,507.28,717.49,507.28z"/>
</g>
<g>
	<path class="st7" d="M672.94,535.58c-0.27,0.42-0.35,0.59-0.89,1.66c-0.3,0.53-0.8,1.45-1.24,2.16c1.36,0,2.01-0.03,2.81-0.12
		c-0.06,0.5-0.06,0.68-0.09,1.51c1.42-0.68,2.1-1.15,2.84-1.95c0.68-0.71,1-1.39,1.27-2.69h-0.83c-1.21,0-1.98,0.06-2.63,0.15v-3.11
		c0.89,0.15,1.69,0.18,3.1,0.18h7.27c1.12,0,1.89-0.03,2.63-0.12c-0.09,0.65-0.15,1.51-0.27,3.19c-0.21,2.42-0.59,4.23-1.09,4.97
		c-0.5,0.74-1.18,0.98-3.02,0.98c-0.47,0-0.47,0-2.16-0.06c-0.12-1.39-0.24-1.86-0.68-2.93c1.03,0.21,1.77,0.3,2.28,0.3
		c0.77,0,1.06-0.15,1.21-0.59c0.18-0.59,0.33-1.59,0.44-2.96h-3.13c-0.44,2.07-0.77,2.93-1.69,4.17c-0.86,1.18-1.86,2.04-3.25,2.84
		l2.75,0.59c-0.27,1.21-0.27,1.21-0.35,1.66h1.6v-0.23c0-0.86-0.06-1.48-0.18-2.16h3.34c-0.06,0.74-0.09,1.39-0.09,2.16v0.23h1.83
		c1.33,0,2.04-0.06,2.63-0.18v3.1c-0.68-0.09-1.48-0.12-2.63-0.12h-1.83v2.66h2.28c1.27,0,1.98-0.03,2.84-0.15v3.13
		c-0.77-0.09-1.42-0.12-2.78-0.12h-2.34v2.96c0,1.3,0.03,2.01,0.18,2.89h-3.43c0.12-0.92,0.18-1.62,0.18-2.89v-2.96h-2.96
		c-1.18,0-1.8,0.03-2.66,0.15v-3.16c0.86,0.12,1.48,0.15,2.69,0.15h2.93v-2.66h-2.39c-0.27,0.8-0.44,1.21-0.95,2.27
		c-1.27-0.8-1.83-1.09-2.63-1.36c0.89-1.54,1.21-2.39,1.57-3.9c0.15-0.68,0.32-1.66,0.32-1.95c0,0,0-0.06-0.03-0.09l-0.33,0.21
		c-0.41-0.83-0.92-1.51-1.86-2.46c0,0.54,0,0.54,0,0.77v14.87c0,2.1-0.83,2.66-3.84,2.66c-0.33,0-0.83,0-1.83-0.03
		c-0.12-1.15-0.27-1.89-0.68-2.96c1.24,0.15,2.01,0.21,2.48,0.21c0.98,0,1.24-0.15,1.24-0.62v-3.61h-6.06
		c-0.35,3.61-0.68,4.91-1.77,7.24c-1.15-1.3-1.48-1.63-2.45-2.31c1.45-2.58,1.77-5.2,1.77-13.78c0-0.71,0-1.27,0-1.63
		c-0.44-0.65-0.86-1.09-1.95-2.01c1.39-1.18,2.39-2.54,3.34-4.58c0.62-1.27,0.92-2.16,1.09-3.19l3.13,0.59
		c-0.15,0.33-0.15,0.33-0.62,1.6h2.66c0.86,0,1.15-0.03,1.54-0.12L672.94,535.58z M667.8,539.39c0.56-0.95,0.94-1.66,1.36-2.6h-2.9
		c-0.47,0.95-0.94,1.72-1.54,2.6c0.24,0,0.24,0,0.68,0H667.8z M666.79,549.65v-2.66h-1.75c0,0.5,0,0.92,0,1.15
		c-0.03,0.86-0.03,1.04-0.03,1.51H666.79z M665.11,542.03v2.51h1.69v-2.51H665.11z M670.9,542.03h-1.71v2.51h1.71V542.03z
		 M670.9,546.99h-1.71v2.66h1.71V546.99z"/>
	<path class="st7" d="M699.9,540.73c0.71,1.71,1.89,3.34,3.58,5.02c-0.71,0.83-1.15,1.51-1.68,2.72c-1.12-1.66-1.66-2.54-2.22-3.76
		c0.03,0.68,0.06,2.54,0.06,4.38v7.36c0,1.39,0.06,2.34,0.18,3.22h-3.43c0.15-0.85,0.21-1.86,0.21-3.19v-6c0-1.81,0-1.81,0.12-4.05
		c-0.98,2.57-1.83,4.2-3.34,6.5c-0.68-1.27-1.12-1.83-2.01-2.66c1.36-1.71,2.25-3.16,3.25-5.35c0.56-1.21,1.36-3.25,1.63-4.2h-1.71
		c-0.92,0-1.33,0.03-1.98,0.15v-3.25c0.59,0.12,1.1,0.15,2.1,0.15h1.92v-2.66c0-1.19-0.06-1.92-0.18-2.72h3.43
		c-0.15,0.8-0.18,1.54-0.18,2.72v2.66h1.71c0.77,0,1.24-0.03,1.86-0.15v3.25c-0.65-0.12-1.12-0.15-1.83-0.15H699.9z M715.72,541.55
		c1.51,0,2.48-0.06,3.49-0.18v3.46c-1.06-0.12-2.07-0.18-3.52-0.18h-0.83v11.44c0,1.36,0.06,2.6,0.18,3.58h-3.58
		c0.12-1.03,0.21-2.33,0.21-3.58v-11.44h-4.23c-0.29,7.42-1.39,11.35-4.2,14.99c-0.89-0.98-1.48-1.51-2.69-2.37
		c2.96-3.4,3.78-7.27,3.78-17.53c0-2.78-0.06-3.93-0.18-4.85c0.32,0.03,0.5,0.03,0.62,0.03c3.31,0,8.81-1.21,11.5-2.57l2.31,3.02
		c-0.59,0.15-0.59,0.15-2.9,0.83c-2.48,0.74-4.91,1.18-8.16,1.54v2.87c0,0.32,0,0.38,0,0.95H715.72z"/>
</g>
<g>
	<path class="st9" d="M303.86,672.29c3.04,1.21,5.32,2.36,7.86,4.02l-1.83,3.34c-2.37-1.74-5-3.16-8.01-4.35L303.86,672.29z
		 M302.53,685.53c2.25-0.03,5.47-0.74,8.54-1.92c3.67-1.42,6.18-3.34,8.54-6.5c1.6-2.13,2.51-3.9,3.43-6.53
		c1.21,1.27,1.66,1.66,3.07,2.63c-1.36,3.28-2.6,5.32-4.43,7.48c-3.75,4.31-8.78,6.95-16.05,8.39c-1.06,0.21-1.48,0.29-2.07,0.47
		L302.53,685.53z M306.13,665.13c3.04,1.18,5.38,2.31,7.86,3.81l-1.89,3.25c-2.69-1.8-5.32-3.19-7.89-4.08L306.13,665.13z"/>
	<path class="st9" d="M350.89,689.58c-2.45-3.02-5.85-6.33-9.08-8.78c-3.34,3.72-6.74,6.33-11.26,8.54
		c-0.83-1.54-1.18-2.01-2.4-3.28c2.28-0.89,3.7-1.68,5.91-3.25c4.46-3.14,8.01-7.42,9.93-12.03l0.33-0.77
		c-0.47,0.03-0.47,0.03-9.78,0.18c-1.42,0.03-2.22,0.09-3.22,0.24l-0.12-3.78c0.83,0.15,1.39,0.18,2.6,0.18c0.12,0,0.35,0,0.71,0
		l10.4-0.15c1.66-0.03,1.89-0.06,2.63-0.33l1.95,2.01c-0.38,0.44-0.62,0.86-0.95,1.6c-1.36,3.16-2.81,5.74-4.61,8.16
		c1.86,1.24,3.46,2.48,5.47,4.29c0.74,0.65,0.74,0.65,4.31,4.11L350.89,689.58z"/>
	<path class="st9" d="M372.53,676.54c-0.15,3.4-0.8,5.85-2.07,7.95c-1.57,2.6-3.72,4.23-7.72,5.82c-0.74-1.51-1.12-2.01-2.39-3.25
		c3.55-1.09,5.76-2.66,7.01-4.94c0.77-1.36,1.21-3.28,1.3-5.59h-7.21c-2.01,0-2.69,0.03-3.75,0.15v-3.52
		c1.12,0.18,1.77,0.21,3.81,0.21h17.29c2.01,0,2.69-0.03,3.81-0.21v3.52c-1.06-0.12-1.74-0.15-3.75-0.15H372.53z M360.67,665.72
		c1.1,0.18,1.69,0.21,3.81,0.21h11.35c2.13,0,2.72-0.03,3.81-0.21v3.61c-0.98-0.12-1.68-0.15-3.75-0.15h-11.47
		c-2.07,0-2.78,0.03-3.75,0.15V665.72z"/>
	<path class="st9" d="M398.6,665.46c-0.33,0.65-0.36,0.71-0.77,2.13c-2.25,7.39-3.96,12.3-5.85,16.85c4.64-0.35,9.76-0.98,12.3-1.51
		c-0.33-0.71-0.68-1.36-1.39-2.69c-1.3-2.45-1.83-3.31-2.81-4.7l3.34-1.3c2.75,4.02,5.35,8.99,7.15,13.69l-3.58,1.86
		c-0.38-1.21-0.38-1.21-1.42-3.66c-0.38,0.09-0.38,0.09-1.06,0.24c-2.99,0.62-7.89,1.24-16.73,2.1c-1.66,0.15-2.1,0.21-2.69,0.36
		l-0.53-3.99c0.41,0,0.41,0,0.77,0c0.59,0,1.3-0.03,2.54-0.09c1.57-3.72,2.75-7.07,4.29-11.91c1.39-4.35,1.95-6.44,2.16-8.19
		L398.6,665.46z"/>
	<path class="st9" d="M418.41,687.3c0,1.74,0.06,2.75,0.18,3.61h-3.46c0.12-0.86,0.18-1.83,0.18-3.67v-19.51
		c0-1.54-0.03-2.36-0.12-3.31c0.83,0.09,1.6,0.12,3.04,0.12h5.38c1.54,0,2.22-0.03,3.02-0.12c-0.06,0.86-0.09,1.71-0.09,2.75v4.55
		c0,1.33,0.03,1.89,0.09,2.66c-0.77-0.06-1.69-0.09-2.72-0.09h-5.5V687.3z M418.41,668.32h5.23v-1.57h-5.23V668.32z M418.41,672.02
		h5.23v-1.6h-5.23V672.02z M423.34,680.8c0.06-1.03,0.06-1.36,0.06-2.72c-1.36,0-2.16,0.03-2.96,0.12v-2.66
		c0.8,0.12,1.6,0.15,2.98,0.15H432c1.45,0,2.25-0.03,3.08-0.15v2.66c-0.8-0.09-1.6-0.12-3.08-0.12v2.72h0.44
		c1.48,0,2.22-0.03,3.04-0.12v2.72c-0.89-0.12-1.63-0.15-3.04-0.15H432v4.37c0,1.36,0.03,1.86,0.15,2.51h-3.1
		c0.12-0.71,0.15-1.24,0.15-2.54v-4.35h-3.31c-0.33,3.13-1.3,5.08-3.58,7.3c-0.77-0.83-1.36-1.33-2.36-2.04
		c1.98-1.54,2.81-2.87,3.16-5.26c-1.54,0-2.37,0.03-3.13,0.15v-2.72c0.83,0.09,1.57,0.12,3.07,0.12H423.34z M426.15,678.08
		c0,1.33,0,1.33-0.06,2.72h3.1v-2.72H426.15z M440.16,687.27c0,2.63-0.89,3.31-4.2,3.31c-0.53,0-0.94,0-1.92-0.06
		c-0.18-1.33-0.33-1.98-0.8-3.13c1.06,0.15,2.01,0.24,2.72,0.24c0.95,0,1.12-0.12,1.12-0.77V674.3h-5.79
		c-1.04,0-1.98,0.03-2.69,0.09c0.06-0.86,0.06-1.33,0.06-2.66v-4.55c0-1.12-0.03-1.89-0.09-2.75c0.83,0.09,1.51,0.12,3.02,0.12h5.65
		c1.48,0,2.22-0.03,3.04-0.12c-0.09,1.09-0.12,1.8-0.12,3.28V687.27z M431.59,668.32h5.5v-1.57h-5.5V668.32z M431.59,672.02h5.5
		v-1.6h-5.5V672.02z"/>
	<path class="st9" d="M453.67,676.34c-0.92,0.03-1.24,0.06-1.98,0.12v-1.3c-1.74,1.18-2.84,1.8-5.2,2.87
		c-0.5-1.06-0.95-1.77-1.74-2.72c2.27-0.86,3.66-1.57,5.64-2.87c-1.66-1.92-2.66-2.84-4.14-3.87l2.42-1.8
		c0.47,0.38,0.47,0.38,0.94,0.77v-3.08c0.56,0.09,1.42,0.15,2.45,0.15h5.47c1.39,0,1.86-0.03,2.54-0.12
		c0.3,1.18,0.71,1.86,1.83,3.22c0.95-0.95,1.15-1.12,1.75-1.89c0.41-0.53,0.5-0.62,0.62-0.86c0.15-0.23,0.15-0.23,0.24-0.38
		l2.72,1.51c-0.09,0.12-0.47,0.56-1.15,1.36c-0.53,0.62-1.45,1.54-2.19,2.22c0.8,0.68,1.12,0.94,1.74,1.42
		c1.27-1.15,2.37-2.42,3.07-3.58l2.72,1.54c-0.18,0.18-0.24,0.27-0.83,0.92c-0.77,0.95-1.63,1.8-2.66,2.72
		c1.6,0.95,2.57,1.42,4.73,2.25c-0.68,0.89-0.86,1.21-1.66,2.93c-2.42-1.12-3.28-1.6-4.88-2.66v1.27c-0.89-0.09-1.42-0.12-2.84-0.12
		v3.19h4.7c1.45,0,2.22-0.03,3.1-0.18v3.16c-0.92-0.12-1.77-0.18-3.1-0.18h-4.7v4.4c0,0.62,0.03,0.68,0.47,0.8
		c0.38,0.12,0.89,0.15,1.89,0.15c1.63,0,2.34-0.15,2.66-0.56c0.27-0.35,0.44-1.33,0.53-2.96c1.15,0.56,2.01,0.86,3.19,1.04
		c-0.65,4.99-1.18,5.44-6.86,5.44c-4.02,0-4.97-0.5-4.97-2.57v-5.74h-3.81c-0.38,1.77-0.95,3.07-1.83,4.26
		c-1.48,1.95-3.25,3.13-6.89,4.55c-0.56-1.09-1.15-1.95-2.1-2.9c2.75-0.77,4.17-1.45,5.47-2.63c1.03-0.92,1.66-1.86,2.1-3.28h-3.78
		c-1.36,0-2.13,0.03-3.1,0.18v-3.16c0.92,0.15,1.66,0.18,3.1,0.18h4.23c0.03-0.38,0.03-0.59,0.03-0.92L453.67,676.34z
		 M451.42,667.41c-0.53,0-1.18,0.03-1.8,0.12c1.57,1.3,2.25,1.95,3.22,3.04c1.24-1.12,2.01-1.95,2.9-3.16H451.42z M463.22,673.56
		c0.38,0,0.38,0,0.62,0c-2.1-1.71-3.4-3.07-5.02-5.35c-1.66,2.31-2.9,3.64-5,5.35c0.33,0,0.47,0,0.8,0H463.22z M456.78,678.85
		c0,0.27,0,0.38,0,0.68h3.46v-3.19h-3.43L456.78,678.85z"/>
	<path class="st9" d="M328.66,711.38c-0.09,0.56-0.09,0.59-0.12,2.39c-0.12,5.05-0.92,7.89-2.93,10.46
		c-1.77,2.28-3.93,3.78-7.63,5.32c-0.77-1.6-1.15-2.13-2.34-3.37c2.39-0.71,3.73-1.36,5.17-2.51c3.02-2.39,3.96-4.94,3.96-10.52
		c0-0.89-0.03-1.15-0.15-1.77H328.66z M340.66,707.65c-0.41,0.5-0.41,0.53-1.18,2.07c-1.04,2.19-2.75,4.4-4.55,5.94
		c-1.18,1.03-2.16,1.68-3.55,2.45c-0.89-1.24-1.33-1.69-2.66-2.69c1.98-0.89,3.1-1.57,4.32-2.72c1.21-1.12,2.13-2.34,2.81-3.75
		h-15.52c-2.07,0-2.81,0.03-4.02,0.18v-3.7c1.12,0.18,2.04,0.24,4.08,0.24h15.43c1.77,0,2.04-0.03,2.87-0.27L340.66,707.65z"/>
	<path class="st9" d="M362.06,706.53c0.53,0,0.98,0,1.63-0.06c0.06-1.8,1.48-3.19,3.25-3.19c1.8,0,3.25,1.45,3.25,3.25
		c0,1.8-1.45,3.28-3.22,3.28c-0.06,0-0.12,0-0.33-0.03c-1.04,3.99-2.28,6.98-3.99,9.55c-1.8,2.72-4.37,5.2-7.36,7.15
		c-1.69,1.12-3.08,1.83-5.62,2.93c-0.83-1.6-1.21-2.16-2.6-3.52c2.6-0.83,4.29-1.6,6.47-3.02c4.61-2.98,7.51-7.15,8.96-12.89h-14.07
		c-1.98,0-2.66,0.03-3.72,0.18v-3.84c1.15,0.18,1.77,0.21,3.78,0.21H362.06z M365.26,706.53c0,0.92,0.77,1.68,1.68,1.68
		c0.92,0,1.69-0.77,1.69-1.68c0-0.95-0.74-1.69-1.69-1.69C366.02,704.84,365.26,705.61,365.26,706.53z"/>
	<path class="st9" d="M379.92,704.72c-0.12,0.83-0.12,1.09-0.12,2.66v8.16c0,1.48,0,1.86,0.12,2.6h-4.05
		c0.09-0.68,0.15-1.6,0.15-2.66v-8.13c0-1.51-0.03-1.89-0.12-2.66L379.92,704.72z M393.34,704.75c-0.12,0.74-0.15,1.06-0.15,2.75
		v3.99c-0.03,4.61-0.24,7.09-0.77,8.96c-0.86,2.96-2.75,5.17-5.82,6.89c-1.57,0.89-3.04,1.48-5.76,2.27
		c-0.53-1.45-0.83-1.95-2.07-3.52c2.9-0.56,4.61-1.18,6.39-2.37c2.78-1.83,3.75-3.64,4.08-7.54c0.12-1.27,0.15-2.57,0.15-4.94v-3.7
		c0-1.51-0.03-2.13-0.15-2.81H393.34z"/>
	<path class="st9" d="M404.01,726.72c0,1.74,0.06,2.75,0.18,3.61h-3.46c0.12-0.86,0.18-1.83,0.18-3.67v-19.51
		c0-1.54-0.03-2.36-0.12-3.31c0.83,0.09,1.6,0.12,3.04,0.12h5.38c1.54,0,2.22-0.03,3.02-0.12c-0.06,0.86-0.09,1.71-0.09,2.75v4.55
		c0,1.33,0.03,1.89,0.09,2.66c-0.77-0.06-1.69-0.09-2.72-0.09h-5.5V726.72z M404.01,707.74h5.23v-1.57h-5.23V707.74z M404.01,711.43
		h5.23v-1.6h-5.23V711.43z M408.95,720.21c0.06-1.03,0.06-1.36,0.06-2.72c-1.36,0-2.16,0.03-2.96,0.12v-2.66
		c0.8,0.12,1.6,0.15,2.98,0.15h8.57c1.45,0,2.25-0.03,3.08-0.15v2.66c-0.8-0.09-1.6-0.12-3.08-0.12v2.72h0.44
		c1.48,0,2.22-0.03,3.04-0.12v2.72c-0.89-0.12-1.63-0.15-3.04-0.15h-0.44v4.37c0,1.36,0.03,1.86,0.15,2.51h-3.1
		c0.12-0.71,0.15-1.24,0.15-2.54v-4.35h-3.31c-0.33,3.13-1.3,5.08-3.58,7.3c-0.77-0.83-1.36-1.33-2.36-2.04
		c1.98-1.54,2.81-2.87,3.16-5.26c-1.54,0-2.37,0.03-3.13,0.15v-2.72c0.83,0.09,1.57,0.12,3.07,0.12H408.95z M411.75,717.49
		c0,1.33,0,1.33-0.06,2.72h3.1v-2.72H411.75z M425.76,726.69c0,2.63-0.89,3.31-4.2,3.31c-0.53,0-0.94,0-1.92-0.06
		c-0.18-1.33-0.33-1.98-0.8-3.13c1.06,0.15,2.01,0.24,2.72,0.24c0.95,0,1.12-0.12,1.12-0.77v-12.56h-5.79
		c-1.04,0-1.98,0.03-2.69,0.09c0.06-0.86,0.06-1.33,0.06-2.66v-4.55c0-1.12-0.03-1.89-0.09-2.75c0.83,0.09,1.51,0.12,3.02,0.12h5.65
		c1.48,0,2.22-0.03,3.04-0.12c-0.09,1.09-0.12,1.8-0.12,3.28V726.69z M417.19,707.74h5.5v-1.57h-5.5V707.74z M417.19,711.43h5.5
		v-1.6h-5.5V711.43z"/>
	<path class="st9" d="M439.28,715.75c-0.92,0.03-1.24,0.06-1.98,0.12v-1.3c-1.74,1.18-2.84,1.8-5.2,2.87
		c-0.5-1.06-0.95-1.77-1.74-2.72c2.27-0.86,3.66-1.57,5.64-2.87c-1.66-1.92-2.66-2.84-4.14-3.87l2.42-1.8
		c0.47,0.38,0.47,0.38,0.94,0.77v-3.08c0.56,0.09,1.42,0.15,2.45,0.15h5.47c1.39,0,1.86-0.03,2.54-0.12
		c0.3,1.18,0.71,1.86,1.83,3.22c0.95-0.95,1.15-1.12,1.75-1.89c0.41-0.53,0.5-0.62,0.62-0.86c0.15-0.23,0.15-0.23,0.24-0.38
		l2.72,1.51c-0.09,0.12-0.47,0.56-1.15,1.36c-0.53,0.62-1.45,1.54-2.19,2.22c0.8,0.68,1.12,0.94,1.74,1.42
		c1.27-1.15,2.37-2.42,3.07-3.58l2.72,1.54c-0.18,0.18-0.24,0.27-0.83,0.92c-0.77,0.95-1.63,1.8-2.66,2.72
		c1.6,0.95,2.57,1.42,4.73,2.25c-0.68,0.89-0.86,1.21-1.66,2.93c-2.42-1.12-3.28-1.6-4.88-2.66v1.27c-0.89-0.09-1.42-0.12-2.84-0.12
		v3.19h4.7c1.45,0,2.22-0.03,3.1-0.18v3.16c-0.92-0.12-1.77-0.18-3.1-0.18h-4.7v4.4c0,0.62,0.03,0.68,0.47,0.8
		c0.38,0.12,0.89,0.15,1.89,0.15c1.63,0,2.34-0.15,2.66-0.56c0.27-0.35,0.44-1.33,0.53-2.96c1.15,0.56,2.01,0.86,3.19,1.04
		c-0.65,4.99-1.18,5.44-6.86,5.44c-4.02,0-4.97-0.5-4.97-2.57v-5.74h-3.81c-0.38,1.77-0.95,3.07-1.83,4.26
		c-1.48,1.95-3.25,3.13-6.89,4.55c-0.56-1.09-1.15-1.95-2.1-2.9c2.75-0.77,4.17-1.45,5.47-2.63c1.03-0.92,1.66-1.86,2.1-3.28h-3.78
		c-1.36,0-2.13,0.03-3.1,0.18v-3.16c0.92,0.15,1.66,0.18,3.1,0.18h4.23c0.03-0.38,0.03-0.59,0.03-0.92L439.28,715.75z
		 M437.03,706.82c-0.53,0-1.18,0.03-1.8,0.12c1.57,1.3,2.25,1.95,3.22,3.04c1.24-1.12,2.01-1.95,2.9-3.16H437.03z M448.82,712.97
		c0.38,0,0.38,0,0.62,0c-2.1-1.71-3.4-3.07-5.02-5.35c-1.66,2.31-2.9,3.64-5,5.35c0.33,0,0.47,0,0.8,0H448.82z M442.38,718.26
		c0,0.27,0,0.38,0,0.68h3.46v-3.19h-3.43L442.38,718.26z"/>
</g>
<g>
	
		<image style="overflow:visible;opacity:0.15;" width="78" height="78" xlink:href="BF0728ADCF7D21CA.png"  transform="matrix(1.5288 0 0 1.5288 82.6344 610.2861)">
	</image>
	<g>
		<linearGradient id="SVGID_10_" gradientUnits="userSpaceOnUse" x1="96.5723" y1="664.3795" x2="188.299" y2="664.3795">
			<stop  offset="0" style="stop-color:#D9D9D9"/>
			<stop  offset="0.6788" style="stop-color:#F7F7F7"/>
		</linearGradient>
		<circle class="st25" cx="142.44" cy="664.38" r="45.86"/>
	</g>
</g>
<ellipse transform="matrix(0.7071 -0.7071 0.7071 0.7071 -428.0688 295.3094)" class="st5" cx="142.44" cy="664.38" rx="37.65" ry="37.65"/>
<g class="st0">
	
		<image style="overflow:visible;opacity:0.15;" width="78" height="78" xlink:href="BF0728ADCF7D21CE.png"  transform="matrix(1.5288 0 0 1.5288 82.6344 610.2861)">
	</image>
	<g>
		
			<ellipse transform="matrix(0.7071 -0.7071 0.7071 0.7071 -428.0688 295.3094)" class="st5" cx="142.44" cy="664.38" rx="45.86" ry="45.86"/>
	</g>
</g>
<linearGradient id="SVGID_11_" gradientUnits="userSpaceOnUse" x1="82.134" y1="664.3795" x2="157.4281" y2="664.3795">
	<stop  offset="0" style="stop-color:#D9D9D9"/>
	<stop  offset="0.6788" style="stop-color:#F7F7F7"/>
</linearGradient>
<circle class="st26" cx="142.44" cy="664.38" r="37.65"/>
<g>
	<path class="st5" d="M156.29,640.62c0.56,0,1.14,0.49,1.14,0.97v47.02c0,0.48-0.57,0.97-1.14,0.97h-26.54
		c-0.56,0-1.14-0.49-1.14-0.97v-47.02c0-0.48,0.57-0.97,1.14-0.97H156.29 M156.29,638.23h-26.54c-1.85,0-3.53,1.51-3.53,3.36v47.02
		c0,1.85,1.68,3.36,3.53,3.36h26.54c1.85,0,3.53-1.51,3.53-3.36v-47.02C159.81,639.75,158.13,638.23,156.29,638.23L156.29,638.23z"
		/>
</g>
<path class="st5" d="M136.29,659.62l-1.39-1.38c-0.26-0.26-0.68-0.25-0.94,0.01s-0.26,0.68,0,0.94l1.58,1.49
	c0.12,0.12,0.29,0.09,0.47,0.09h1.29c-0.92,1.15-1.52,2.53-1.74,3.92h-2.25c-0.37,0-0.66,0.33-0.66,0.69c0,0.37,0.3,0.69,0.66,0.69
	h2.15c0.01,1.15,0.3,2.3,0.81,3.22h-0.48c-0.18,0-0.34,0.1-0.47,0.23l-1.58,1.61c-0.26,0.26-0.26,0.68,0,0.94
	c0.13,0.13,0.3,0.2,0.47,0.2c0.17,0,0.34-0.06,0.47-0.19l1.39-1.39h1.07c1.3,1.61,3.35,2.66,5.42,2.78v-13.83H136.29z"/>
<g>
	<g>
		
			<image style="overflow:visible;opacity:0.15;" width="78" height="78" xlink:href="BF0728ADCF7D21C9.png"  transform="matrix(1.5288 0 0 1.5288 310.4222 747.876)">
		</image>
		<g>
			<linearGradient id="SVGID_12_" gradientUnits="userSpaceOnUse" x1="323.3691" y1="801.7675" x2="415.0958" y2="801.7675">
				<stop  offset="0" style="stop-color:#D9D9D9"/>
				<stop  offset="0.6788" style="stop-color:#F7F7F7"/>
			</linearGradient>
			<circle class="st27" cx="369.23" cy="801.77" r="45.86"/>
		</g>
	</g>
	
		<ellipse transform="matrix(0.7071 -0.7071 0.7071 0.7071 -458.7896 495.919)" class="st5" cx="369.23" cy="801.77" rx="37.65" ry="37.65"/>
	<g class="st0">
		
			<image style="overflow:visible;opacity:0.15;" width="78" height="78" xlink:href="BF0728ADCF7D21CB.png"  transform="matrix(1.5288 0 0 1.5288 310.4222 747.876)">
		</image>
		<g>
			
				<ellipse transform="matrix(0.7071 -0.7071 0.7071 0.7071 -458.7895 495.9189)" class="st9" cx="369.23" cy="801.77" rx="45.86" ry="45.86"/>
		</g>
	</g>
	<linearGradient id="SVGID_13_" gradientUnits="userSpaceOnUse" x1="308.9308" y1="801.7675" x2="384.225" y2="801.7675">
		<stop  offset="0" style="stop-color:#D9D9D9"/>
		<stop  offset="0.6788" style="stop-color:#F7F7F7"/>
	</linearGradient>
	<circle class="st28" cx="369.23" cy="801.77" r="37.65"/>
	<g>
		<path class="st21" d="M387.79,783.03h-40.93v4.62h40.93L387.79,783.03z M350.04,786.49c-0.63,0-1.14-0.51-1.14-1.14
			c0-0.63,0.51-1.14,1.14-1.14c0.63,0,1.14,0.51,1.14,1.14C351.18,785.98,350.67,786.49,350.04,786.49z M353.41,786.49
			c-0.63,0-1.14-0.51-1.14-1.14c0-0.63,0.51-1.14,1.14-1.14c0.63,0,1.14,0.51,1.14,1.14C354.55,785.98,354.04,786.49,353.41,786.49z
			 M356.77,786.49c-0.63,0-1.14-0.51-1.14-1.14c0-0.63,0.51-1.14,1.14-1.14c0.63,0,1.14,0.51,1.14,1.14
			C357.92,785.98,357.41,786.49,356.77,786.49z"/>
		<path class="st21" d="M346.86,789.64v25.12h24.84v-1.12c0-0.51,0.38-0.93,0.88-0.99l0.88-0.1h-24.57v-9.12h32.63
			c0.17-0.32,0.5-0.53,0.88-0.53h2.77c0.51,0,0.93,0.38,0.99,0.88l0.17,1.56c0.5,0.13,0.99,0.3,1.46,0.5l0-16.2H346.86z
			 M365.91,801.39h-17.02v-9.75h17.02V801.39z M385.61,801.39h-17.02v-9.75h17.02V801.39z"/>
		<g class="st0">
			<rect x="349.74" y="791.65" class="st9" width="16.58" height="9.75"/>
		</g>
		<g class="st0">
			<path class="st9" d="M349.74,812.55h23.93l0.7-0.08c0.22-0.88,0.56-1.71,1.01-2.5l-0.96-1.22c-0.31-0.4-0.28-0.97,0.07-1.33
				l1.91-1.95c0.35-0.36,0.9-0.39,1.29-0.07l1.21,0.99c0.74-0.44,1.52-0.78,2.34-1l0.17-1.6c0.01-0.13,0.05-0.25,0.11-0.35h-31.78
				V812.55z"/>
		</g>
		<g class="st0">
			<rect x="368.59" y="791.65" class="st9" width="16.49" height="9.75"/>
		</g>
		<g class="st0">
			<path class="st9" d="M350.04,784.21c-0.63,0-1.14,0.51-1.14,1.14c0,0.63,0.51,1.14,1.14,1.14c0.63,0,1.14-0.51,1.14-1.14
				C351.18,784.72,350.67,784.21,350.04,784.21z"/>
		</g>
		<g class="st0">
			<path class="st9" d="M353.41,784.21c-0.63,0-1.14,0.51-1.14,1.14c0,0.63,0.51,1.14,1.14,1.14c0.63,0,1.14-0.51,1.14-1.14
				C354.55,784.72,354.04,784.21,353.41,784.21z"/>
		</g>
		<g class="st0">
			<path class="st9" d="M356.77,784.21c-0.63,0-1.14,0.51-1.14,1.14c0,0.63,0.51,1.14,1.14,1.14c0.63,0,1.14-0.51,1.14-1.14
				C357.92,784.72,357.41,784.21,356.77,784.21z"/>
		</g>
		<g>
			<path class="st9" d="M395.05,812.64l-1.52-0.17c-0.23-0.9-0.59-1.75-1.06-2.54l0.96-1.19c0.32-0.4,0.29-0.97-0.07-1.33
				l-1.96-1.95c-0.36-0.36-0.93-0.39-1.32-0.07l-0.3,0.24v-22.6c0-1.09-0.89-1.99-1.99-1.99h-40.93c-1.09,0-1.99,0.89-1.99,1.99
				v31.72c0,1.09,0.89,1.99,1.99,1.99h24.91c0.13,0.34,0.44,0.6,0.82,0.64l1.6,0.18c0.23,0.87,0.57,1.7,1.03,2.47l-0.98,1.21
				c-0.32,0.4-0.29,0.97,0.07,1.32l1.96,1.95c0.36,0.36,0.93,0.39,1.32,0.07l1.22-0.98c0.76,0.44,1.56,0.78,2.41,1.01l0.18,1.62
				c0.06,0.5,0.48,0.88,0.99,0.88h2.77c0.51,0,0.93-0.38,0.99-0.88l0.17-1.58c0.88-0.22,1.73-0.56,2.52-1.02l1.23,0.98
				c0.39,0.32,0.96,0.28,1.32-0.07l1.96-1.95c0.36-0.36,0.39-0.93,0.07-1.33l-0.96-1.2c0.47-0.79,0.83-1.64,1.06-2.53l1.52-0.17
				c0.5-0.06,0.88-0.48,0.88-0.99v-2.76C395.94,813.12,395.55,812.7,395.05,812.64z M346.86,783.03h40.93l0,4.62h-40.93V783.03z
				 M372.58,812.64c-0.5,0.06-0.88,0.48-0.88,0.99v1.12h-24.84v-25.12h40.93l0,16.2c-0.47-0.2-0.96-0.38-1.46-0.5l-0.17-1.56
				c-0.06-0.5-0.48-0.88-0.99-0.88h-2.77c-0.38,0-0.71,0.21-0.88,0.53c-0.06,0.11-0.1,0.23-0.11,0.35l-0.18,1.6
				c-0.84,0.23-1.65,0.56-2.41,1l-1.24-0.99c-0.39-0.32-0.96-0.28-1.32,0.07l-1.96,1.95c-0.36,0.36-0.39,0.93-0.07,1.33l0.98,1.22
				c-0.46,0.78-0.81,1.62-1.04,2.5l-0.72,0.08L372.58,812.64z M393.95,815.5l-1.34,0.15c-0.44,0.05-0.79,0.38-0.87,0.81
				c-0.21,1.13-0.65,2.18-1.31,3.12c-0.25,0.36-0.24,0.85,0.04,1.19l0.85,1.06l-0.7,0.7l-1.09-0.87c-0.34-0.27-0.82-0.29-1.18-0.05
				c-0.94,0.64-1.99,1.06-3.11,1.26c-0.44,0.08-0.77,0.43-0.82,0.87l-0.16,1.41h-0.99l-0.16-1.43c-0.05-0.43-0.37-0.78-0.8-0.87
				c-1.09-0.21-2.1-0.63-3.01-1.26c-0.36-0.25-0.84-0.23-1.18,0.04l-1.08,0.86l-0.7-0.7l0.86-1.07c0.28-0.34,0.29-0.83,0.04-1.19
				c-0.64-0.93-1.07-1.96-1.28-3.07c-0.08-0.43-0.43-0.76-0.87-0.81l-1.42-0.16v-0.99l1.42-0.16c0.44-0.05,0.79-0.38,0.87-0.81
				c0.2-1.12,0.64-2.15,1.28-3.09c0.25-0.36,0.23-0.84-0.04-1.19l-0.87-1.09l0.7-0.7l1.1,0.88c0.34,0.27,0.82,0.29,1.18,0.04
				c0.91-0.62,1.92-1.05,3.01-1.26c0.43-0.08,0.75-0.43,0.8-0.87l0.16-1.42h1l0.15,1.39c0.05,0.44,0.38,0.79,0.82,0.87
				c1.13,0.2,2.18,0.62,3.12,1.26c0.36,0.24,0.84,0.23,1.18-0.05l1.07-0.86l0.7,0.7l-0.85,1.05c-0.28,0.34-0.29,0.83-0.04,1.19
				c0.66,0.94,1.1,2,1.31,3.13c0.08,0.43,0.43,0.76,0.87,0.81l1.34,0.15V815.5z"/>
		</g>
		<g>
			<path class="st9" d="M388.29,815.01c0-2.46-2.01-4.46-4.47-4.46c-2.47,0-4.47,2-4.47,4.46c0,2.46,2.01,4.46,4.47,4.46
				C386.28,819.47,388.29,817.47,388.29,815.01z M383.82,817.48c-1.37,0-2.49-1.11-2.49-2.47c0-1.36,1.11-2.47,2.49-2.47
				c1.37,0,2.49,1.11,2.49,2.47C386.3,816.38,385.19,817.48,383.82,817.48z"/>
		</g>
	</g>
</g>
<g>
	
		<image style="overflow:visible;opacity:0.15;" width="78" height="78" xlink:href="BF0728ADCF7D21C8.png"  transform="matrix(1.5288 0 0 1.5288 561.1416 714.2429)">
	</image>
	<g>
		<linearGradient id="SVGID_14_" gradientUnits="userSpaceOnUse" x1="574.6619" y1="767.3063" x2="666.3885" y2="767.3063">
			<stop  offset="0" style="stop-color:#D9D9D9"/>
			<stop  offset="0.6788" style="stop-color:#F7F7F7"/>
		</linearGradient>
		<circle class="st29" cx="620.53" cy="767.31" r="45.86"/>
	</g>
</g>
<ellipse transform="matrix(0.7071 -0.7071 0.7071 0.7071 -360.8199 663.5163)" class="st5" cx="620.53" cy="767.31" rx="37.65" ry="37.65"/>
<g class="st0">
	
		<image style="overflow:visible;opacity:0.15;" width="78" height="78" xlink:href="BF0728ADCF7D21D6.png"  transform="matrix(1.5288 0 0 1.5288 561.1416 714.2429)">
	</image>
	<g>
		
			<ellipse transform="matrix(0.7071 -0.7071 0.7071 0.7071 -360.8199 663.5163)" class="st8" cx="620.53" cy="767.31" rx="45.86" ry="45.86"/>
	</g>
</g>
<linearGradient id="SVGID_15_" gradientUnits="userSpaceOnUse" x1="560.2235" y1="767.3063" x2="635.5177" y2="767.3063">
	<stop  offset="0" style="stop-color:#D9D9D9"/>
	<stop  offset="0.6788" style="stop-color:#F7F7F7"/>
</linearGradient>
<circle class="st30" cx="620.53" cy="767.31" r="37.65"/>
<g>
	
		<image style="overflow:visible;opacity:0.15;" width="78" height="78" xlink:href="BF0728ADCF7D21D9.png"  transform="matrix(1.5288 0 0 1.5288 733.8934 506.3293)">
	</image>
	<g>
		<linearGradient id="SVGID_16_" gradientUnits="userSpaceOnUse" x1="747.4136" y1="559.6475" x2="839.1403" y2="559.6475">
			<stop  offset="0" style="stop-color:#D9D9D9"/>
			<stop  offset="0.6788" style="stop-color:#F7F7F7"/>
		</linearGradient>
		<circle class="st31" cx="793.28" cy="559.65" r="45.86"/>
	</g>
</g>
<ellipse transform="matrix(0.7071 -0.7071 0.7071 0.7071 -163.385 724.8484)" class="st5" cx="793.28" cy="559.65" rx="37.65" ry="37.65"/>
<g class="st0">
	
		<image style="overflow:visible;opacity:0.15;" width="78" height="78" xlink:href="BF0728ADCF7D21DA.png"  transform="matrix(1.5288 0 0 1.5288 733.8934 506.3293)">
	</image>
	<g>
		
			<ellipse transform="matrix(0.7071 -0.7071 0.7071 0.7071 -163.385 724.8484)" class="st7" cx="793.28" cy="559.65" rx="45.86" ry="45.86"/>
	</g>
</g>
<linearGradient id="SVGID_17_" gradientUnits="userSpaceOnUse" x1="732.9753" y1="559.6475" x2="808.2695" y2="559.6475">
	<stop  offset="0" style="stop-color:#D9D9D9"/>
	<stop  offset="0.6788" style="stop-color:#F7F7F7"/>
</linearGradient>
<circle class="st32" cx="793.28" cy="559.65" r="37.65"/>
<g class="st0">
	<path class="st7" d="M817.23,540.21h-45.14c-1.24,0-2.26,1.01-2.26,2.26v29.63c0,1.24,1.01,2.26,2.26,2.26h18.86
		c-0.43,4.49-4.13,7.46-4.16,7.49c-0.81,0.64-0.76,1.25-0.65,1.56s0.44,0.83,1.47,0.83h14.11c1.03,0,1.36-0.52,1.47-0.83
		c0.11-0.31,0.16-0.92-0.65-1.56c-0.04-0.03-3.74-3-4.16-7.49h18.86c1.24,0,2.26-1.01,2.26-2.26v-29.63
		C819.49,541.22,818.48,540.21,817.23,540.21z M817.57,571.94c0,0.31-0.25,0.56-0.56,0.56h-44.7c-0.31,0-0.56-0.25-0.56-0.56v-29.33
		c0-0.31,0.25-0.56,0.56-0.56h44.7c0.31,0,0.56,0.25,0.56,0.56V571.94z"/>
</g>
<g class="st0">
	<path class="st5" d="M143.02,687.64c-1.81,0-3.28-1.47-3.28-3.28c0-1.81,1.47-3.28,3.28-3.28s3.28,1.47,3.28,3.28
		C146.3,686.16,144.83,687.64,143.02,687.64z M143.02,682.86c-0.82,0-1.49,0.67-1.49,1.49c0,0.82,0.67,1.49,1.49,1.49
		s1.49-0.67,1.49-1.49C144.51,683.53,143.84,682.86,143.02,682.86z"/>
</g>
<g class="st0">
	<path class="st5" d="M145.41,644.8h-4.78c-0.49,0-0.9-0.4-0.9-0.9c0-0.49,0.4-0.9,0.9-0.9h4.78c0.49,0,0.9,0.4,0.9,0.9
		C146.3,644.4,145.9,644.8,145.41,644.8z"/>
</g>
<path class="st5" d="M152.72,664.69h-2.29c-0.29-1.38-1.02-2.76-1.88-3.92h1.48c0.18,0,0.34,0.03,0.47-0.09l1.58-1.54
	c0.26-0.26,0.26-0.65,0-0.91c-0.26-0.26-0.68-0.26-0.94,0l-1.39,1.39h-6.27v13.83c2.07-0.14,4.08-1.39,5.38-2.77h1.11l1.39,1.4
	c0.13,0.13,0.3,0.19,0.47,0.19c0.17,0,0.34-0.06,0.47-0.19c0.26-0.26,0.26-0.68,0-0.93l-1.58-1.62c-0.12-0.12-0.29-0.23-0.47-0.23
	h-0.51c0.51-0.92,0.81-2.07,0.82-3.22h2.17c0.37,0,0.66-0.33,0.66-0.69C153.38,665.02,153.09,664.69,152.72,664.69z"/>
<path class="st5" d="M138.74,658.7h8.56c0-1.61-0.8-2.83-2-3.58l0.86-0.85c0.26-0.26,0.26-0.67,0-0.93s-0.68-0.25-0.94,0l-1.25,1.25
	c-0.31-0.07-0.63-0.11-0.96-0.11s-0.65,0.04-0.96,0.11l-1.25-1.25c-0.26-0.26-0.68-0.26-0.94,0s-0.26,0.68,0,0.94l0.86,0.83
	C139.54,655.88,138.74,657.09,138.74,658.7z"/>
<g>
	
		<image style="overflow:visible;opacity:0.15;" width="78" height="78" xlink:href="BF0728ADCF7D21D8.png"  transform="matrix(1.5288 0 0 1.5288 308.8934 14.0631)">
	</image>
	<g>
		<linearGradient id="SVGID_18_" gradientUnits="userSpaceOnUse" x1="322.1715" y1="67.4725" x2="413.8982" y2="67.4725">
			<stop  offset="0" style="stop-color:#D9D9D9"/>
			<stop  offset="0.6788" style="stop-color:#F7F7F7"/>
		</linearGradient>
		<circle class="st33" cx="368.03" cy="67.47" r="45.86"/>
	</g>
</g>
<ellipse transform="matrix(0.7071 -0.7071 0.7071 0.7071 60.0847 280.0021)" class="st5" cx="368.03" cy="67.47" rx="37.65" ry="37.65"/>
<g class="st0">
	
		<image style="overflow:visible;opacity:0.15;" width="78" height="78" xlink:href="9C08E11EFD15E28D.png"  transform="matrix(1.5288 0 0 1.5288 308.8934 14.0631)">
	</image>
	<g>
		
			<ellipse transform="matrix(0.7071 -0.7071 0.7071 0.7071 60.0847 280.0021)" class="st2" cx="368.03" cy="67.47" rx="45.86" ry="45.86"/>
	</g>
</g>
<linearGradient id="SVGID_19_" gradientUnits="userSpaceOnUse" x1="307.7332" y1="67.4725" x2="383.0274" y2="67.4725">
	<stop  offset="0" style="stop-color:#D9D9D9"/>
	<stop  offset="0.6788" style="stop-color:#F7F7F7"/>
</linearGradient>
<circle class="st34" cx="368.03" cy="67.47" r="37.65"/>
<g>
	
		<image style="overflow:visible;opacity:0.15;" width="78" height="78" xlink:href="9C08E11EFD15E283.png"  transform="matrix(1.5288 0 0 1.5288 85.692 147.0667)">
	</image>
	<g>
		<linearGradient id="SVGID_20_" gradientUnits="userSpaceOnUse" x1="98.4605" y1="200.2213" x2="190.1871" y2="200.2213">
			<stop  offset="0" style="stop-color:#D9D9D9"/>
			<stop  offset="0.6788" style="stop-color:#F7F7F7"/>
		</linearGradient>
		<circle class="st35" cx="144.32" cy="200.22" r="45.86"/>
	</g>
</g>
<ellipse transform="matrix(0.7071 -0.7071 0.7071 0.7071 -99.3063 160.6957)" class="st5" cx="144.32" cy="200.22" rx="37.65" ry="37.65"/>
<g class="st0">
	
		<image style="overflow:visible;opacity:0.15;" width="78" height="78" xlink:href="9C08E11EFD15E285.png"  transform="matrix(1.5288 0 0 1.5288 85.692 147.0667)">
	</image>
	<g>
		
			<ellipse transform="matrix(0.7071 -0.7071 0.7071 0.7071 -99.3063 160.6957)" class="st10" cx="144.32" cy="200.22" rx="45.86" ry="45.86"/>
	</g>
</g>
<linearGradient id="SVGID_21_" gradientUnits="userSpaceOnUse" x1="84.0221" y1="200.2213" x2="159.3163" y2="200.2213">
	<stop  offset="0" style="stop-color:#D9D9D9"/>
	<stop  offset="0.6788" style="stop-color:#F7F7F7"/>
</linearGradient>
<circle class="st36" cx="144.32" cy="200.22" r="37.65"/>
<g>
	
		<image style="overflow:visible;opacity:0.15;" width="78" height="78" xlink:href="9C08E11EFD15E287.png"  transform="matrix(1.5288 0 0 1.5288 3.138 385.5559)">
	</image>
	<g>
		<linearGradient id="SVGID_22_" gradientUnits="userSpaceOnUse" x1="15.9066" y1="439.4749" x2="107.6332" y2="439.4749">
			<stop  offset="0" style="stop-color:#D9D9D9"/>
			<stop  offset="0.6788" style="stop-color:#F7F7F7"/>
		</linearGradient>
		<circle class="st37" cx="61.77" cy="439.47" r="45.86"/>
	</g>
</g>
<ellipse transform="matrix(0.7071 -0.7071 0.7071 0.7071 -292.6637 172.397)" class="st5" cx="61.77" cy="439.47" rx="37.65" ry="37.65"/>
<g class="st0">
	
		<image style="overflow:visible;opacity:0.15;" width="78" height="78" xlink:href="9C08E11EFD15E284.png"  transform="matrix(1.5288 0 0 1.5288 3.138 385.5559)">
	</image>
	<g>
		
			<ellipse transform="matrix(0.7071 -0.7071 0.7071 0.7071 -292.6637 172.397)" class="st11" cx="61.77" cy="439.47" rx="45.86" ry="45.86"/>
	</g>
</g>
<linearGradient id="SVGID_23_" gradientUnits="userSpaceOnUse" x1="1.4682" y1="439.4749" x2="76.7624" y2="439.4749">
	<stop  offset="0" style="stop-color:#D9D9D9"/>
	<stop  offset="0.6788" style="stop-color:#F7F7F7"/>
</linearGradient>
<circle class="st38" cx="61.77" cy="439.47" r="37.65"/>
<g>
	
		<image style="overflow:visible;opacity:0.15;" width="78" height="78" xlink:href="9C08E11EFD15E29C.png"  transform="matrix(1.5288 0 0 1.5288 558.084 47.6962)">
	</image>
	<g>
		<linearGradient id="SVGID_24_" gradientUnits="userSpaceOnUse" x1="570.9417" y1="101.0243" x2="662.6683" y2="101.0243">
			<stop  offset="0" style="stop-color:#D9D9D9"/>
			<stop  offset="0.6788" style="stop-color:#F7F7F7"/>
		</linearGradient>
		<circle class="st39" cx="616.8" cy="101.02" r="45.86"/>
	</g>
</g>
<ellipse transform="matrix(0.7071 -0.7071 0.7071 0.7071 109.2231 465.7363)" class="st5" cx="616.8" cy="101.02" rx="37.65" ry="37.65"/>
<g class="st0">
	
		<image style="overflow:visible;opacity:0.15;" width="78" height="78" xlink:href="9C08E11EFD15E29D.png"  transform="matrix(1.5288 0 0 1.5288 558.084 47.6962)">
	</image>
	<g>
		
			<ellipse transform="matrix(0.7071 -0.7071 0.7071 0.7071 109.2231 465.7362)" class="st1" cx="616.8" cy="101.02" rx="45.86" ry="45.86"/>
	</g>
</g>
<linearGradient id="SVGID_25_" gradientUnits="userSpaceOnUse" x1="556.5034" y1="101.0243" x2="631.7975" y2="101.0243">
	<stop  offset="0" style="stop-color:#D9D9D9"/>
	<stop  offset="0.6788" style="stop-color:#F7F7F7"/>
</linearGradient>
<circle class="st40" cx="616.8" cy="101.02" r="37.65"/>
<g>
	
		<image style="overflow:visible;opacity:0.15;" width="78" height="78" xlink:href="9C08E11EFD15E29F.png"  transform="matrix(1.5288 0 0 1.5288 733.8934 243.3796)">
	</image>
	<g>
		<linearGradient id="SVGID_26_" gradientUnits="userSpaceOnUse" x1="746.751" y1="296.9626" x2="838.4777" y2="296.9626">
			<stop  offset="0" style="stop-color:#D9D9D9"/>
			<stop  offset="0.6788" style="stop-color:#F7F7F7"/>
		</linearGradient>
		<circle class="st41" cx="792.61" cy="296.96" r="45.86"/>
	</g>
</g>
<ellipse transform="matrix(0.7071 -0.7071 0.7071 0.7071 22.1672 647.4412)" class="st5" cx="792.61" cy="296.96" rx="37.65" ry="37.65"/>
<g class="st0">
	
		<image style="overflow:visible;opacity:0.15;" width="78" height="78" xlink:href="9C08E11EFD15E29B.png"  transform="matrix(1.5288 0 0 1.5288 733.8934 243.3796)">
	</image>
	<g>
		
			<ellipse transform="matrix(0.7071 -0.7071 0.7071 0.7071 22.1672 647.4412)" class="st6" cx="792.61" cy="296.96" rx="45.86" ry="45.86"/>
	</g>
</g>
<linearGradient id="SVGID_27_" gradientUnits="userSpaceOnUse" x1="732.3127" y1="296.9626" x2="807.6069" y2="296.9626">
	<stop  offset="0" style="stop-color:#D9D9D9"/>
	<stop  offset="0.6788" style="stop-color:#F7F7F7"/>
</linearGradient>
<circle class="st42" cx="792.61" cy="296.96" r="37.65"/>
<g class="st0">
	<path class="st43" d="M774.42,280.35c-0.7,0-1.26,0.56-1.26,1.26c0,0.69,0.56,1.26,1.26,1.26s1.26-0.56,1.26-1.26
		C775.68,280.91,775.12,280.35,774.42,280.35z"/>
</g>
<g class="st0">
	<path class="st43" d="M778.16,280.35c-0.7,0-1.26,0.56-1.26,1.26c0,0.69,0.56,1.26,1.26,1.26s1.26-0.56,1.26-1.26
		C779.42,280.92,778.86,280.35,778.16,280.35z"/>
</g>
<g class="st0">
	<path class="st43" d="M781.85,280.35c-0.69,0-1.26,0.56-1.26,1.26c0,0.69,0.56,1.26,1.26,1.26c0.7,0,1.26-0.56,1.26-1.26
		C783.11,280.92,782.54,280.35,781.85,280.35z"/>
</g>
<g>
	<path class="st6" d="M815.97,276.87h-45.04c-1.21,0-2.19,0.98-2.19,2.18v34.91c0,1.2,0.98,2.18,2.19,2.18h19.45h6.15h19.45
		c1.21,0,2.19-0.98,2.19-2.18v-15.44v-8.69v-10.78C818.15,277.85,817.17,276.87,815.97,276.87z M770.92,279.05h45.04l0,5.08h-45.04
		V279.05z M815.96,313.96h-19.45h-6.15h-19.45v-27.64h45.04l0,12.2h0V313.96z"/>
</g>
<g>
	<g>
		<path class="st6" d="M782.32,301.86c-0.11-0.65-0.19-1-0.33-1.46l-0.36-1.15h-3.86l-0.36,1.15c-0.18,0.54-0.27,0.96-0.34,1.46
			h-3.17c0.2-0.41,0.33-0.73,0.65-1.65l2.93-8.16c0.24-0.67,0.37-1.07,0.43-1.46h3.54c0.1,0.39,0.19,0.75,0.46,1.46l2.94,8.16
			c0.26,0.72,0.47,1.27,0.65,1.65H782.32z M779.68,292.9l-1.26,4.07h2.55L779.68,292.9z"/>
		<path class="st6" d="M787.23,292.53c0-0.92-0.03-1.37-0.12-1.99c0.54,0.03,0.88,0.04,2,0.04h2.85c1.67,0,3.01,0.46,3.92,1.34
			c0.99,0.98,1.49,2.4,1.49,4.2c0,1.86-0.54,3.35-1.57,4.38c-0.91,0.89-2.2,1.36-3.81,1.36h-2.88c-1.04,0-1.42,0.01-1.99,0.04
			c0.08-0.59,0.11-1.04,0.11-1.98V292.53z M791.75,299.49c0.88,0,1.51-0.23,1.99-0.72c0.56-0.57,0.85-1.48,0.85-2.6
			c0-1.15-0.26-1.99-0.79-2.52c-0.47-0.47-1.13-0.69-2.1-0.69h-1.77v6.53H791.75z"/>
	</g>
	<g class="st0">
		<rect x="800.95" y="291.38" class="st6" width="11.5" height="2.17"/>
	</g>
	<g class="st0">
		<rect x="800.95" y="295.66" class="st6" width="11.5" height="2.17"/>
	</g>
	<g class="st0">
		<rect x="800.95" y="299.8" class="st6" width="11.5" height="2.17"/>
	</g>
	<g class="st0">
		<rect x="773.82" y="304.49" class="st6" width="38.63" height="2.17"/>
	</g>
	<g class="st0">
		<rect x="773.82" y="308.63" class="st6" width="38.63" height="2.17"/>
	</g>
</g>
<path class="st10" d="M156.71,191.2h-23.12c-0.63,0-1.14,0.51-1.14,1.14v17.46c0,0.63,0.51,1.14,1.14,1.14h23.12
	c0.63,0,1.14-0.51,1.14-1.14v-17.46C157.85,191.71,157.34,191.2,156.71,191.2z M155.56,195.37v11.28l-5.64-5.68L155.56,195.37z
	 M141.99,202.63l0.77,0.78c1.25,1.26,3.43,1.27,4.69,0.02l0.85-0.85l6.04,6.08h-18.43L141.99,202.63z M144.38,201.8l-8.26-8.32h18.1
	l-8.38,8.32C145.45,202.2,144.77,202.19,144.38,201.8z M140.37,201.01l-5.64,5.6v-11.28L140.37,201.01z"/>
<g>
	<rect x="118.55" y="198.89" class="st23" width="5.84" height="2.08"/>
</g>
<g>
	<rect x="166.14" y="198.42" class="st23" width="5.84" height="2.08"/>
</g>
<g>
	<path class="st10" d="M115.74,209.52c-0.3,0-0.61-0.09-0.88-0.28c-0.69-0.49-0.85-1.44-0.37-2.13l5.22-7.4
		c0.49-0.69,1.44-0.85,2.13-0.37l7.4,5.22c0.69,0.49,0.85,1.44,0.37,2.13c-0.49,0.69-1.44,0.85-2.13,0.37l-6.15-4.34l-4.34,6.15
		C116.69,209.29,116.22,209.52,115.74,209.52z"/>
</g>
<path class="st3" d="M174.7,189.7c-0.7-0.48-1.65-0.31-2.13,0.39l-3.11,4.48c-2.42-11.5-12.64-20.16-24.85-20.16
	c-13.53,0-25.4,11.01-25.4,23.56c0,0.85,0.68,1.53,1.53,1.53s1.53-0.68,1.53-1.53c0-10.92,10.44-20.5,22.35-20.5
	c10.66,0,19.59,7.51,21.8,17.52l-4.33-3c-0.7-0.48-1.65-0.31-2.13,0.39c-0.48,0.69-0.31,1.65,0.39,2.13l6.57,4.55
	c0.01,0.25,0.04,0.5,0.04,0.76c0,0.85,0.68,1.53,1.53,1.53s1.53-0.68,1.53-1.53c0-0.21-0.03-0.42-0.03-0.62l5.1-7.36
	C175.57,191.13,175.4,190.18,174.7,189.7z"/>
<g>
	<path class="st10" d="M145.06,226.16c-14.01,0-25.4-11.4-25.4-25.4c0-0.85,0.68-1.53,1.53-1.53s1.53,0.68,1.53,1.53
		c0,12.32,10.02,22.34,22.34,22.34c12.32,0,22.34-10.02,22.34-22.34c0-0.85,0.68-1.53,1.53-1.53c0.85,0,1.53,0.68,1.53,1.53
		C170.46,214.77,159.06,226.16,145.06,226.16z"/>
</g>
<polygon class="st1" points="614.06,113.23 631,113.23 631,96.16 "/>
<circle class="st1" cx="611.7" cy="100.94" r="6.31"/>
<g class="st0">
	<path class="st43" d="M599.63,84.66c-0.7,0-1.26,0.56-1.26,1.26c0,0.69,0.56,1.26,1.26,1.26s1.26-0.56,1.26-1.26
		C600.89,85.23,600.32,84.66,599.63,84.66z"/>
</g>
<g class="st0">
	<path class="st43" d="M603.36,84.66c-0.7,0-1.26,0.56-1.26,1.26c0,0.69,0.56,1.26,1.26,1.26c0.7,0,1.26-0.56,1.26-1.26
		C604.61,85.23,604.05,84.66,603.36,84.66z"/>
</g>
<g class="st0">
	<path class="st43" d="M607.04,84.66c-0.69,0-1.26,0.56-1.26,1.26c0,0.69,0.56,1.26,1.26,1.26c0.7,0,1.26-0.56,1.26-1.26
		C608.3,85.23,607.74,84.66,607.04,84.66z"/>
</g>
<g>
	<path class="st1" d="M641.17,81.18h-45.04c-1.21,0-2.19,0.98-2.19,2.18v34.91c0,1.2,0.98,2.18,2.19,2.18h19.45h6.15h19.45
		c1.21,0,2.19-0.98,2.19-2.18v-15.44v-8.69V83.37C643.36,82.16,642.38,81.18,641.17,81.18z M596.13,83.37h45.04l0,5.08h-45.04V83.37
		z M641.17,118.28h-19.45h-6.15h-19.45V90.64h45.04l0,12.2h0V118.28z"/>
</g>
<g id="XMLID_2_">
	<g id="XMLID_5_">
		<path class="st2" d="M360.05,80.68c0,2.26-1.83,4.09-4.09,4.09h-3.86c-2.26,0-4.09-1.83-4.09-4.09V60.98
			c0-2.26,1.83-4.09,4.09-4.09h3.86c2.26,0,4.09,1.83,4.09,4.09V80.68z"/>
	</g>
	<g id="XMLID_4_" class="st0">
		<g>
			<path class="st2" d="M383.21,83.86h-17.52c-3.75,0-6.8-2.96-6.8-6.6V62.53c0-3.44,2.65-6.26,6.17-6.57
				c1.67-0.01,2.98-1.23,3.08-2.8l0-4.63c0-2.72,2.21-4.93,4.93-4.93c2.72,0,4.93,2.21,4.93,4.93v7.39h9.73
				c2.67,0,4.84,2.17,4.84,4.84c0,1.76-0.93,3.31-2.36,4.16c0.38,0.7,0.59,1.49,0.59,2.31c0,1.76-0.96,3.32-2.4,4.17
				c0.47,0.73,0.73,1.59,0.73,2.48c0,1.69-0.93,3.18-2.31,3.97c0.31,0.58,0.48,1.24,0.48,1.92
				C387.29,82.03,385.46,83.86,383.21,83.86z M373.08,45.9c-1.45,0-2.63,1.18-2.63,2.63v4.7c-0.18,2.84-2.5,5.01-5.27,5.01
				c-2.23,0.2-3.98,2.05-3.98,4.29v14.73c0,2.38,2.02,4.31,4.5,4.31h17.52c0.99,0,1.79-0.8,1.79-1.79c0-0.61-0.31-1.18-0.83-1.51
				c-0.42-0.27-0.62-0.77-0.49-1.25c0.12-0.48,0.54-0.83,1.04-0.86c1.19-0.08,2.13-1.07,2.13-2.26c0-0.81-0.44-1.57-1.15-1.97
				c-0.44-0.25-0.66-0.75-0.55-1.24c0.11-0.49,0.52-0.85,1.02-0.89c1.31-0.11,2.33-1.23,2.33-2.54c0-0.75-0.33-1.46-0.91-1.95
				c-0.34-0.29-0.49-0.75-0.37-1.18c0.12-0.43,0.48-0.75,0.92-0.83c1.24-0.2,2.13-1.26,2.13-2.51c0-1.41-1.14-2.55-2.55-2.55h-10.88
				c-0.63,0-1.15-0.51-1.15-1.15v-8.54C375.71,47.08,374.53,45.9,373.08,45.9z"/>
		</g>
	</g>
	<g id="XMLID_3_">
		<path class="st23" d="M356.15,63.97c0,1.17-0.95,2.12-2.12,2.12c-1.17,0-2.12-0.95-2.12-2.12c0-1.17,0.95-2.12,2.12-2.12
			C355.2,61.85,356.15,62.8,356.15,63.97z"/>
	</g>
</g>
<g>
	<path class="st11" d="M75.64,415.51c0.56,0,1.14,0.49,1.14,0.97v47.02c0,0.48-0.57,0.97-1.14,0.97H49.11
		c-0.56,0-1.14-0.49-1.14-0.97v-47.02c0-0.48,0.57-0.97,1.14-0.97H75.64 M75.64,413.12H49.11c-1.85,0-3.53,1.51-3.53,3.36v47.02
		c0,1.85,1.68,3.36,3.53,3.36h26.54c1.85,0,3.53-1.51,3.53-3.36v-47.02C79.17,414.63,77.49,413.12,75.64,413.12L75.64,413.12z"/>
</g>
<path class="st4" d="M62.38,462.53c-1.81,0-3.28-1.47-3.28-3.28c0-1.81,1.47-3.28,3.28-3.28s3.28,1.47,3.28,3.28
	C65.66,461.05,64.19,462.53,62.38,462.53z M62.38,457.75c-0.82,0-1.49,0.67-1.49,1.49s0.67,1.49,1.49,1.49s1.49-0.67,1.49-1.49
	S63.2,457.75,62.38,457.75z"/>
<path class="st4" d="M64.76,419.69h-4.78c-0.49,0-0.9-0.4-0.9-0.9s0.4-0.9,0.9-0.9h4.78c0.49,0,0.9,0.4,0.9,0.9
	S65.26,419.69,64.76,419.69z"/>
<rect x="51.4" y="421.82" class="st4" width="22.04" height="31.91"/>
<g>
	<g>
		<path class="st8" d="M635.69,744.65h-29.31c-3.67,0-6.65,2.98-6.65,6.65v34.12c0,3.67,2.98,6.65,6.65,6.65h29.31
			c3.67,0,6.65-2.98,6.65-6.65V751.3C642.34,747.63,639.36,744.65,635.69,744.65z M602.82,750.79c0-1.58,1.23-2.86,2.75-2.86h30.93
			c1.51,0,2.75,1.28,2.75,2.86v8.99h-36.42V750.79z M602.78,762.88h36.45v11.08h-36.45V762.88z M639.28,785.91
			c0,1.66-1.23,3.01-2.74,3.01h-30.91c-1.51,0-2.74-1.35-2.74-3.01v-9.03h36.4V785.91z"/>
	</g>
	<g class="st0">
		<path class="st8" d="M632.79,751.88c-1.22,0-2.22,0.99-2.22,2.22c0,1.22,0.99,2.22,2.22,2.22c1.22,0,2.22-0.99,2.22-2.22
			C635.01,752.87,634.02,751.88,632.79,751.88z"/>
	</g>
	<g class="st0">
		<path class="st8" d="M632.79,766.33c-1.22,0-2.22,0.99-2.22,2.22c0,1.22,0.99,2.22,2.22,2.22c1.22,0,2.22-0.99,2.22-2.22
			C635.01,767.33,634.02,766.33,632.79,766.33z"/>
	</g>
	<g class="st0">
		<path class="st8" d="M632.79,785.04c1.22,0,2.22-0.99,2.22-2.22c0-1.22-0.99-2.22-2.22-2.22c-1.22,0-2.22,0.99-2.22,2.22
			C630.58,784.04,631.57,785.04,632.79,785.04z"/>
	</g>
	<g class="st0">
		<rect x="606.58" y="751.88" class="st8" width="4.05" height="4.43"/>
	</g>
	<g class="st0">
		<rect x="613.81" y="751.88" class="st8" width="4.05" height="4.43"/>
	</g>
	<g class="st0">
		<rect x="606.58" y="766.33" class="st8" width="4.05" height="4.43"/>
	</g>
	<g class="st0">
		<rect x="613.81" y="766.33" class="st8" width="4.05" height="4.43"/>
	</g>
	<g class="st0">
		<rect x="606.58" y="780.6" class="st8" width="4.05" height="4.43"/>
	</g>
	<g class="st0">
		<rect x="613.81" y="780.6" class="st8" width="4.05" height="4.43"/>
	</g>
</g>
<path class="st7" d="M785.22,560.98c0.3,0.13,0.63,0.2,0.98,0.2c0.97,0,1.81-0.56,2.22-1.37l4.8,1.2c0.33,1.01,1.26,1.74,2.37,1.74
	c1.19,0,2.19-0.84,2.44-1.96l9.05-6.03l-0.08-0.12c0.34,0.17,0.72,0.28,1.13,0.28c1.38,0,2.51-1.12,2.51-2.51
	c0-1.38-1.12-2.51-2.51-2.51c-1.38,0-2.51,1.12-2.51,2.51c0,0.33,0.07,0.65,0.19,0.94l-8.17,5.45c-0.46-0.64-1.2-1.06-2.04-1.06
	c-0.97,0-1.81,0.56-2.22,1.37l-4.8-1.2c-0.33-1.01-1.26-1.74-2.37-1.74c-1.38,0-2.51,1.12-2.51,2.51c0,0.35,0.07,0.68,0.2,0.98
	l-6.15,6.15v-19.67h-1.88v22.88h38.55v-1.88h-35.34L785.22,560.98z M808.14,551.77c0.35,0,0.63,0.28,0.63,0.63
	c0,0.35-0.28,0.63-0.63,0.63c-0.35,0-0.63-0.28-0.63-0.63C807.51,552.06,807.79,551.77,808.14,551.77z M795.6,559.61
	c0.35,0,0.63,0.28,0.63,0.63c0,0.35-0.28,0.63-0.63,0.63s-0.63-0.28-0.63-0.63C794.97,559.89,795.25,559.61,795.6,559.61z
	 M786.2,558.04c0.35,0,0.63,0.28,0.63,0.63s-0.28,0.63-0.63,0.63c-0.35,0-0.63-0.28-0.63-0.63S785.85,558.04,786.2,558.04z"/>
</svg>
