<?xml version="1.0" encoding="utf-8"?>
<!-- Generator: Adobe Illustrator 22.1.0, SVG Export Plug-In . SVG Version: 6.00 Build 0)  -->
<svg version="1.1" id="レイヤー_1" xmlns="http://www.w3.org/2000/svg" xmlns:xlink="http://www.w3.org/1999/xlink" x="0px"
	 y="0px" viewBox="0 0 100 100" style="enable-background:new 0 0 100 100;" xml:space="preserve">
<style type="text/css">
	.st0{fill:#BFDCF5;}
	.st1{fill:#FFFFFF;}
	.st2{fill:#71A8FB;}
	.st3{fill:#5884DB;}
	.st4{opacity:0.5;}
	.st5{fill:#3F60BC;}
</style>
<g>
	<g>
		<g>
			<polygon class="st1" points="13.637,18.296 89.731,18.296 89.731,75.919 10.164,75.919 10.164,18.138 			"/>
			<path class="st2" d="M90.521,76.708H9.374V17.312l4.28,0.195h76.866V76.708z M10.953,75.13h77.989V19.085l-75.341-0.001
				l-2.648-0.12V75.13z"/>
		</g>
		<g>
			<circle class="st1" cx="10.137" cy="17.743" r="3.868"/>
			<path class="st2" d="M10.137,22.4c-2.568,0-4.657-2.089-4.657-4.657s2.089-4.657,4.657-4.657s4.657,2.089,4.657,4.657
				S12.705,22.4,10.137,22.4z M10.137,14.665c-1.698,0-3.079,1.381-3.079,3.079c0,1.697,1.381,3.079,3.079,3.079
				s3.079-1.381,3.079-3.079C13.216,16.046,11.835,14.665,10.137,14.665z"/>
		</g>
		<g>
			<circle class="st1" cx="89.863" cy="17.743" r="3.868"/>
			<path class="st2" d="M89.863,22.4c-2.568,0-4.657-2.089-4.657-4.657s2.089-4.657,4.657-4.657c2.568,0,4.657,2.089,4.657,4.657
				S92.431,22.4,89.863,22.4z M89.863,14.665c-1.698,0-3.079,1.381-3.079,3.079c0,1.697,1.381,3.079,3.079,3.079
				c1.698,0,3.079-1.381,3.079-3.079C92.941,16.046,91.561,14.665,89.863,14.665z"/>
		</g>
		<g>
			<circle class="st1" cx="10.137" cy="75.682" r="3.868"/>
			<path class="st2" d="M10.137,80.34c-2.568,0-4.657-2.089-4.657-4.657c0-2.568,2.089-4.657,4.657-4.657s4.657,2.089,4.657,4.657
				C14.794,78.25,12.705,80.34,10.137,80.34z M10.137,72.604c-1.698,0-3.079,1.381-3.079,3.079c0,1.697,1.381,3.079,3.079,3.079
				s3.079-1.381,3.079-3.079C13.216,73.985,11.835,72.604,10.137,72.604z"/>
		</g>
		<g>
			<circle class="st1" cx="89.863" cy="75.682" r="3.868"/>
			<path class="st2" d="M89.863,80.34c-2.568,0-4.657-2.089-4.657-4.657c0-2.568,2.089-4.657,4.657-4.657
				c2.568,0,4.657,2.089,4.657,4.657C94.52,78.25,92.431,80.34,89.863,80.34z M89.863,72.604c-1.698,0-3.079,1.381-3.079,3.079
				c0,1.697,1.381,3.079,3.079,3.079c1.698,0,3.079-1.381,3.079-3.079C92.941,73.985,91.561,72.604,89.863,72.604z"/>
		</g>
		<g>
			<path class="st2" d="M77.786,45.45c-0.436,0-0.789-0.353-0.789-0.789c0-3.641-1.684-12.198-8.056-18.524
				c-4.715-4.68-10.89-7.052-18.356-7.052c-0.088,0-0.175,0-0.263,0.001c-22.56,0.167-25.558,24.938-25.586,25.188
				c-0.047,0.434-0.435,0.743-0.871,0.698c-0.433-0.048-0.746-0.438-0.697-0.871c0.029-0.264,3.196-26.416,27.144-26.594
				c8.034-0.038,14.662,2.467,19.742,7.51c5.855,5.813,8.523,14.258,8.523,19.644C78.575,45.096,78.222,45.45,77.786,45.45z"/>
		</g>
		<g>
			<rect x="46.369" y="14.191" class="st1" width="8.525" height="8.525"/>
			<path class="st2" d="M55.683,23.505H45.58V13.402h10.104V23.505z M47.158,21.927h6.946V14.98h-6.946V21.927z"/>
		</g>
		<g>
			<rect x="73.049" y="44.818" class="st1" width="8.525" height="8.525"/>
			<path class="st2" d="M82.364,54.133H72.26V44.029h10.104V54.133z M73.839,52.554h6.946v-6.946h-6.946V52.554z"/>
		</g>
		<g>
			<rect x="19.531" y="44.818" class="st1" width="8.525" height="8.525"/>
			<path class="st2" d="M28.845,54.133H18.741V44.029h10.104V54.133z M20.32,52.554h6.946v-6.946H20.32V52.554z"/>
		</g>
	</g>
	<path class="st1" d="M49.787,90.914c-0.039,0-0.079-0.001-0.118-0.003c-0.039,0.002-0.079,0.003-0.118,0.003h-9.26
		c-1.392,0-2.52-1.128-2.52-2.52V73.155c-1.138-0.995-1.816-2.441-1.816-4.022v-2.842c0-1.392,0.552-2.696,1.471-3.669l-2.865-7.067
		c-0.288-0.711-0.237-1.514,0.139-2.182l12.314-21.891c0.172-0.307,0.402-0.566,0.669-0.77l0.04-0.072
		c0.443-0.788,1.274-1.278,2.178-1.285c0.007,0,0.012,0,0.019,0c0.897,0,1.727,0.477,2.178,1.252l1.105,1.898
		c0.172,0.297,0.282,0.624,0.323,0.963l11.754,20.188c0.39,0.67,0.45,1.483,0.162,2.204l-2.753,6.882
		c0.852,0.959,1.354,2.213,1.354,3.549v2.842c0,1.58-0.678,3.026-1.815,4.021v15.239c0,1.392-1.128,2.52-2.52,2.52H49.787z"/>
	<g>
		<g>
			<path class="st1" d="M59.276,65.226c-0.113-0.034-0.231-0.057-0.356-0.057H41.554c-0.064,0-0.126,0.01-0.189,0.019
				c-0.607,0.092-1.074,0.612-1.074,1.244v2.842c0,0.273,0.089,0.524,0.237,0.731c0.229,0.321,0.603,0.532,1.026,0.532H58.92
				c0.424,0,0.797-0.211,1.026-0.532c0.148-0.207,0.237-0.458,0.237-0.731v-2.842C60.183,65.86,59.798,65.381,59.276,65.226z"/>
		</g>
		<path class="st3" d="M59.624,63.762l3.479-8.697L50.789,33.914v11.334c1.138,0.341,1.973,1.385,1.973,2.634
			c0,1.526-1.237,2.763-2.763,2.763s-2.763-1.237-2.763-2.763c0-1.25,0.835-2.293,1.973-2.634v-12.39L36.897,54.749l3.634,8.965
			c-1.184,0.343-2.056,1.423-2.056,2.718v2.842c0,1.206,0.755,2.231,1.816,2.643v16.617h9.26c-0.2-0.143-0.34-0.366-0.34-0.631
			v-9.157c0-0.436,0.353-0.789,0.789-0.789s0.789,0.353,0.789,0.789v9.157c0,0.265-0.139,0.488-0.34,0.631h9.26V71.917
			c1.061-0.412,1.816-1.437,1.816-2.643v-2.842C61.525,65.194,60.729,64.152,59.624,63.762z M59.946,69.274
			c0,0.273-0.089,0.524-0.237,0.731c-0.229,0.321-0.603,0.532-1.026,0.532H41.317c-0.424,0-0.797-0.211-1.026-0.532
			c-0.148-0.207-0.237-0.458-0.237-0.731v-2.842c0-0.632,0.468-1.152,1.074-1.244c0.062-0.009,0.124-0.019,0.189-0.019h17.366
			c0.125,0,0.242,0.024,0.356,0.057c0.523,0.155,0.907,0.634,0.907,1.206V69.274z"/>
		<g>
			<path class="st1" d="M51.026,87.903v-9.157c0-0.436-0.353-0.789-0.789-0.789c-0.436,0-0.789,0.353-0.789,0.789v9.157
				c0,0.265,0.139,0.488,0.34,0.631h0.899C50.887,88.391,51.026,88.168,51.026,87.903z"/>
		</g>
		<g>
			<path class="st1" d="M51.026,45.247V33.914l-1.105-1.898l-0.474,0.842v12.39c-1.138,0.341-1.973,1.385-1.973,2.634
				c0,1.526,1.237,2.763,2.763,2.763S53,49.408,53,47.882C53,46.632,52.165,45.589,51.026,45.247z"/>
		</g>
	</g>
</g>
</svg>
