<?xml version="1.0" encoding="utf-8"?>
<!-- Generator: Adobe Illustrator 22.1.0, SVG Export Plug-In . SVG Version: 6.00 Build 0)  -->
<svg version="1.1" id="レイヤー_1" xmlns="http://www.w3.org/2000/svg" xmlns:xlink="http://www.w3.org/1999/xlink" x="0px"
	 y="0px" viewBox="0 0 100 100" style="enable-background:new 0 0 100 100;" xml:space="preserve">
<style type="text/css">
	.st0{fill:#BFDCF5;}
	.st1{fill:#FFFFFF;}
	.st2{fill:#71A8FB;}
	.st3{fill:#5884DB;}
	.st4{opacity:0.5;}
	.st5{fill:#3F60BC;}
</style>
<g>
	<rect x="16.854" y="11.518" class="st1" width="61.625" height="77.988"/>
	<path class="st3" d="M79.105,14.407h5.745V95.05H22.504v-5.255h56.425C78.928,89.795,78.466,14.407,79.105,14.407z"/>
	<g>
		<g>
			<rect x="24.067" y="56.894" class="st0" width="46.77" height="1.99"/>
		</g>
		<g>
			<rect x="24.067" y="60.873" class="st0" width="46.77" height="1.99"/>
		</g>
		<g>
			<rect x="24.067" y="64.852" class="st0" width="46.77" height="1.99"/>
		</g>
	</g>
	<g>
		<rect x="31.993" y="30.371" class="st0" width="30.918" height="1.99"/>
	</g>
	<g>
		<rect x="37.839" y="34.351" class="st0" width="19.225" height="1.99"/>
	</g>
	<g>
		<g>
			<rect x="24.067" y="41.632" class="st0" width="13.154" height="11.341"/>
		</g>
		<g>
			<rect x="40.875" y="41.632" class="st0" width="13.154" height="11.341"/>
		</g>
		<g>
			<rect x="57.683" y="41.632" class="st0" width="13.154" height="11.341"/>
		</g>
	</g>
	<g>
		<rect x="25.057" y="73.496" class="st0" width="10.467" height="9.025"/>
	</g>
	<g>
		<rect x="39.14" y="73.496" class="st0" width="10.467" height="9.025"/>
	</g>
	<g>
		<path class="st2" d="M64.606,76.159c0.119-0.143,0.084-0.344-0.078-0.449c-0.132-0.086-0.312-0.083-0.44,0.007l-6.492,4.889
			l-3.438-1.177c-0.43-0.145-0.645-0.57-0.481-0.951c0.071-0.166,0.208-0.303,0.385-0.387l14.228-7.054
			c0.337-0.169,0.764-0.064,0.955,0.234c0.072,0.112,0.102,0.241,0.087,0.369l-1.26,11.513c-0.047,0.419-0.469,0.726-0.943,0.684
			c-0.076-0.007-0.151-0.022-0.222-0.046l-4.175-1.429l-2.619,2.173c-0.272,0.226-0.7,0.214-0.955-0.026
			c-0.119-0.112-0.185-0.261-0.183-0.416v-1.7L64.606,76.159z"/>
	</g>
	<g>
		<ellipse class="st0" cx="47.452" cy="22.729" rx="5.621" ry="4.974"/>
	</g>
	<g>
		<path class="st2" d="M32.959,12.005c-0.512,0-0.926-0.367-0.926-0.82V5.829c0-0.453,0.415-0.82,0.926-0.82s0.926,0.367,0.926,0.82
			v5.356C33.886,11.638,33.471,12.005,32.959,12.005z"/>
	</g>
	<path class="st2" d="M15.15,4.95v85.586h64.604V4.95H15.15z M77.901,10.525h-6.137V6.59h6.137V10.525z M32.505,6.59v3.935H17.003
		V6.59H32.505z M17.003,88.897V12.164h60.898v76.733H17.003z"/>
</g>
</svg>
