<?xml version="1.0" encoding="utf-8"?>
<!-- Generator: Adobe Illustrator 22.1.0, SVG Export Plug-In . SVG Version: 6.00 Build 0)  -->
<svg version="1.1" id="レイヤー_1" xmlns="http://www.w3.org/2000/svg" xmlns:xlink="http://www.w3.org/1999/xlink" x="0px"
	 y="0px" viewBox="0 0 100 100" style="enable-background:new 0 0 100 100;" xml:space="preserve">
<style type="text/css">
	.st0{fill:#BFDCF5;}
	.st1{fill:#FFFFFF;}
	.st2{fill:#71A8FB;}
	.st3{fill:#5884DB;}
	.st4{opacity:0.5;}
	.st5{fill:#3F60BC;}
</style>
<g>
	<g>
		<g>
			<rect x="11.681" y="23.855" class="st1" width="63.324" height="38.8"/>
		</g>
		<g>
			<g>
				<rect x="17.509" y="45.942" class="st0" width="51.779" height="2.208"/>
			</g>
			<g>
				<rect x="17.509" y="50.358" class="st0" width="51.779" height="2.208"/>
			</g>
			<g>
				<rect x="17.509" y="54.773" class="st0" width="51.779" height="2.208"/>
			</g>
		</g>
		<g>
			<g>
				<rect x="17.329" y="29.392" class="st0" width="14.66" height="12.584"/>
			</g>
			<g>
				<rect x="36.06" y="29.392" class="st0" width="14.66" height="12.584"/>
			</g>
			<g>
				<rect x="54.792" y="29.392" class="st0" width="14.66" height="12.584"/>
			</g>
		</g>
		<path class="st2" d="M72.892,18.822H13.605c-1.763,0-3.205,1.442-3.205,3.205v2.604l0,0v36.467c0,1.763,1.442,3.205,3.205,3.205
			h59.287c1.763,0,3.205-1.442,3.205-3.205V24.63v-2.07v-0.534C76.096,20.264,74.654,18.822,72.892,18.822z M74.094,61.097
			c0,0.651-0.55,1.202-1.202,1.202H13.605c-0.652,0-1.202-0.55-1.202-1.202V24.63h61.691V61.097z"/>
		<g>
			<circle class="st1" cx="14.439" cy="21.86" r="1.168"/>
		</g>
		<g>
			<circle class="st1" cx="18.045" cy="21.86" r="1.168"/>
		</g>
		<g>
			<circle class="st1" cx="21.583" cy="21.86" r="1.168"/>
		</g>
	</g>
	<circle class="st1" cx="68.86" cy="61.352" r="14.683"/>
	<g>
		<g>
			<path class="st1" d="M68.765,87.124c-12.997,0-23.769-9.708-25.445-22.253h-2.373c-1.382,0-2.629-0.832-3.157-2.109
				c-0.53-1.277-0.237-2.747,0.741-3.725l8.346-8.347c0.641-0.641,1.51-1.001,2.416-1.001c0,0,0.062,0,0.093,0.001l-0.099-0.098
				c-1.252-1.253-1.339-3.254-0.202-4.611c4.9-5.846,12.072-9.199,19.679-9.199c12.998,0,23.77,9.709,25.446,22.255h2.372
				c1.383,0,2.629,0.832,3.157,2.109c0.53,1.277,0.237,2.748-0.741,3.725l-8.344,8.344c-0.668,0.668-1.542,1.001-2.416,1.001
				c-0.032,0-0.065,0-0.098-0.001l0.102,0.101c1.252,1.253,1.339,3.254,0.202,4.611C83.549,83.772,76.375,87.124,68.765,87.124z
				 M55.939,64.872c1.511,5.668,6.688,9.855,12.825,9.855c4.081,0,7.878-1.848,10.419-5.07c0.604-0.767,1.507-1.238,2.482-1.296
				c0.068-0.003,0.265-0.006,0.297-0.004l-4.487-4.485c-0.978-0.978-1.271-2.448-0.741-3.725c0.528-1.277,1.774-2.11,3.157-2.11h1.7
				c-1.511-5.668-6.69-9.856-12.827-9.856c-4.079,0-7.877,1.848-10.419,5.071c-0.605,0.767-1.509,1.237-2.483,1.295
				c-0.067,0.003-0.263,0.006-0.294,0.004l4.486,4.487c0.977,0.978,1.269,2.448,0.74,3.725c-0.53,1.277-1.776,2.109-3.157,2.109
				H55.939z"/>
		</g>
		<g>
			<path class="st3" d="M68.765,78.144c-9.214,0-16.69-7.477-16.69-16.691h5.562l-8.344-8.346l-8.345,8.346h5.563
				c0,12.286,9.968,22.254,22.255,22.254c6.854,0,12.978-3.103,17.061-7.975l-3.959-3.959
				C78.812,75.647,74.084,78.144,68.765,78.144z M91.019,61.454c0-12.287-9.963-22.255-22.255-22.255
				c-6.851,0-12.977,3.104-17.06,7.977l3.957,3.958c3.058-3.877,7.786-6.372,13.103-6.372c9.221,0,16.691,7.471,16.691,16.691
				h-5.564l8.346,8.344l8.344-8.344H91.019z"/>
		</g>
	</g>
</g>
</svg>
