<?xml version="1.0" encoding="utf-8"?>
<!-- Generator: Adobe Illustrator 22.1.0, SVG Export Plug-In . SVG Version: 6.00 Build 0)  -->
<svg version="1.1" id="レイヤー_1" xmlns="http://www.w3.org/2000/svg" xmlns:xlink="http://www.w3.org/1999/xlink" x="0px"
	 y="0px" viewBox="0 0 100 100" style="enable-background:new 0 0 100 100;" xml:space="preserve">
<style type="text/css">
	.st0{fill:#BFDCF5;}
	.st1{fill:#FFFFFF;}
	.st2{fill:#71A8FB;}
	.st3{fill:#5884DB;}
	.st4{font-family:'HiraKakuPro-W6-83pv-RKSJ-H';}
	.st5{font-size:15.9719px;}
	.st6{font-size:12.2881px;}
	.st7{opacity:0.5;}
	.st8{fill:#3F60BC;}
</style>
<g>
	<path class="st0" d="M45.955,15.481c0-2.337-2.009-4.231-4.487-4.231H8.93c-2.478,0-4.485,1.894-4.485,4.231v70.1
		c0,2.337,2.007,4.231,4.485,4.231h32.538c2.478,0,4.487-1.894,4.487-4.231V15.481z M42.989,79.902H6.668V22.574h36.321V79.902z"/>
	<rect x="5.927" y="17.667" class="st1" width="38.546" height="62.673"/>
	<g>
		<ellipse class="st2" cx="19.581" cy="14.631" rx="1.008" ry="0.962"/>
		<path class="st2" d="M30.901,15.519h-7.993c-0.509,0-0.925-0.416-0.925-0.925v0c0-0.509,0.416-0.925,0.925-0.925h7.993
			c0.509,0,0.925,0.416,0.925,0.925v0C31.826,15.102,31.41,15.519,30.901,15.519z"/>
	</g>
	<ellipse class="st2" cx="25.2" cy="84.927" rx="3.1" ry="2.96"/>
	<rect x="8.464" y="29.134" class="st3" width="33.48" height="31.966"/>
	<rect x="8.464" y="64.751" class="st0" width="33.48" height="3.946"/>
	<rect x="8.464" y="71.657" class="st0" width="33.48" height="3.946"/>
	<rect x="8.464" y="21.537" class="st0" width="33.48" height="3.946"/>
	<text transform="matrix(1.0474 0 0 1 11.3084 51.9314)" class="st1 st4 st5">AD</text>
</g>
<g>
	<path class="st0" d="M95.555,15.481c0-2.337-2.009-4.231-4.487-4.231H58.53c-2.478,0-4.485,1.894-4.485,4.231v70.1
		c0,2.337,2.007,4.231,4.485,4.231h32.538c2.478,0,4.487-1.894,4.487-4.231V15.481z M92.589,79.902H56.268V22.574h36.321V79.902z"/>
	<rect x="55.527" y="17.667" class="st1" width="38.546" height="62.673"/>
	<g>
		<ellipse class="st2" cx="69.181" cy="14.631" rx="1.008" ry="0.962"/>
		<path class="st2" d="M80.501,15.519h-7.993c-0.509,0-0.925-0.416-0.925-0.925v0c0-0.509,0.416-0.925,0.925-0.925h7.993
			c0.509,0,0.925,0.416,0.925,0.925v0C81.426,15.102,81.01,15.519,80.501,15.519z"/>
	</g>
	<ellipse class="st2" cx="74.8" cy="84.927" rx="3.1" ry="2.96"/>
	<rect x="58.064" y="29.134" class="st3" width="33.48" height="15.687"/>
	<rect x="58.064" y="21.537" class="st0" width="33.48" height="3.946"/>
	<rect x="58.064" y="47.288" class="st0" width="33.48" height="3.946"/>
	<rect x="58.064" y="53.355" class="st0" width="33.48" height="3.946"/>
	<text transform="matrix(1.0474 0 0 1 64.2137 41.6623)" class="st1 st4 st6">AD</text>
	<rect x="58.064" y="60.656" class="st3" width="33.48" height="15.687"/>
	<text transform="matrix(1.0474 0 0 1 64.2137 73.1848)" class="st1 st4 st6">AD</text>
</g>
</svg>
