<svg id="レイヤー_1" data-name="レイヤー 1" xmlns="http://www.w3.org/2000/svg" viewBox="0 0 98.45 80.3"><defs><style>.cls-1{fill:#bfdcf5;}.cls-2{fill:#fff;}.cls-3{fill:#71a8fb;}.cls-4{fill:#5884db;}</style></defs><title>sec02_fig_ic007</title><path class="cls-1" d="M42.8,15.27A4.38,4.38,0,0,0,38.3,11H5.67a4.38,4.38,0,0,0-4.5,4.24v70.3a4.38,4.38,0,0,0,4.5,4.24H38.3a4.38,4.38,0,0,0,4.5-4.24Zm-3,64.6H3.4V22.39H39.82Z" transform="translate(-1.17 -10.7)"/><rect class="cls-2" x="1.49" y="6.77" width="38.65" height="62.84"/><ellipse class="cls-3" cx="15.18" cy="3.73" rx="1.01" ry="0.96"/><rect class="cls-3" x="17.59" y="2.76" width="9.87" height="1.85" rx="0.93"/><ellipse class="cls-3" cx="20.81" cy="74.21" rx="3.11" ry="2.97"/><rect class="cls-4" x="4.03" y="22" width="33.57" height="32.05"/><rect class="cls-1" x="4.03" y="57.9" width="33.57" height="8.27"/><rect class="cls-1" x="4.03" y="9.9" width="33.57" height="8.27"/><path class="cls-2" d="M25.85,55.75a9.63,9.63,0,0,0-.47-1.68l-.67-1.75H19.34l-.67,1.75a7.31,7.31,0,0,0-.5,1.68H15.42a17.44,17.44,0,0,0,.89-1.89L20,44.62A8.51,8.51,0,0,0,20.53,43h2.92A11.64,11.64,0,0,0,24,44.62l3.73,9.24a18.67,18.67,0,0,0,.85,1.89Zm-3.54-10c-.06-.18-.11-.37-.3-.9l-.32.9L20,50.48h4.16Z" transform="translate(-1.17 -10.7)"/><path class="cls-1" d="M99.63,15.27A4.38,4.38,0,0,0,95.13,11H62.5A4.37,4.37,0,0,0,58,15.27v70.3a4.37,4.37,0,0,0,4.5,4.24H95.13a4.38,4.38,0,0,0,4.5-4.24Zm-3,64.6H60.23V22.39H96.65Z" transform="translate(-1.17 -10.7)"/><rect class="cls-2" x="58.31" y="6.77" width="38.65" height="62.84"/><ellipse class="cls-3" cx="72.01" cy="3.73" rx="1.01" ry="0.96"/><rect class="cls-3" x="74.41" y="2.76" width="9.87" height="1.85" rx="0.93"/><ellipse class="cls-3" cx="77.64" cy="74.21" rx="3.11" ry="2.97"/><rect class="cls-3" x="60.86" y="22" width="33.57" height="32.05"/><rect class="cls-1" x="60.86" y="57.9" width="33.57" height="8.27"/><rect class="cls-1" x="60.86" y="9.9" width="33.57" height="8.27"/><path class="cls-2" d="M75.85,55.75c-1,0-1.46,0-2.14,0a11.64,11.64,0,0,0,.15-2.17V44.94a13.63,13.63,0,0,0-.14-2c.71,0,1,0,2.12,0h4c2.6,0,4.06,1.12,4.06,3.12a2.85,2.85,0,0,1-2.26,2.93,3.16,3.16,0,0,1,1.69.74,3.09,3.09,0,0,1,1,2.45c0,2.24-1.56,3.51-4.34,3.51Zm3.71-7.53c1.27,0,2-.66,2-1.74a1.58,1.58,0,0,0-.44-1.19,2.46,2.46,0,0,0-1.61-.5H76.07v3.43Zm-3.49,5.72h3.61c1.49,0,2.33-.71,2.33-2a1.71,1.71,0,0,0-.54-1.4A2.83,2.83,0,0,0,79.64,50H76.07Z" transform="translate(-1.17 -10.7)"/><path class="cls-1" d="M49.86,91a.77.77,0,0,1-.77-.78v-.41a.77.77,0,0,1,.77-.78.78.78,0,0,1,.78.78v.41A.78.78,0,0,1,49.86,91Zm0-3.52a.77.77,0,0,1-.77-.78v-.62a.77.77,0,0,1,.77-.78.78.78,0,0,1,.78.78v.62A.78.78,0,0,1,49.86,87.48Zm0-3.73a.77.77,0,0,1-.77-.78v-.62a.77.77,0,0,1,.77-.78.78.78,0,0,1,.78.78V83A.78.78,0,0,1,49.86,83.75Zm0-3.73a.77.77,0,0,1-.77-.78v-.62a.77.77,0,0,1,.77-.78.78.78,0,0,1,.78.78v.62A.78.78,0,0,1,49.86,80Zm0-3.73a.77.77,0,0,1-.77-.78v-.62a.77.77,0,0,1,.77-.78.78.78,0,0,1,.78.78v.62A.78.78,0,0,1,49.86,76.29Zm0-3.73a.77.77,0,0,1-.77-.78v-.62a.77.77,0,0,1,.77-.78.78.78,0,0,1,.78.78v.62A.78.78,0,0,1,49.86,72.56Zm0-3.73a.77.77,0,0,1-.77-.78v-.62a.77.77,0,0,1,.77-.78.78.78,0,0,1,.78.78v.62A.78.78,0,0,1,49.86,68.83Zm0-3.73a.77.77,0,0,1-.77-.78V63.7a.77.77,0,0,1,.77-.78.78.78,0,0,1,.78.78v.62A.78.78,0,0,1,49.86,65.1Zm0-3.73a.77.77,0,0,1-.77-.78V60a.77.77,0,0,1,.77-.78.78.78,0,0,1,.78.78v.62A.78.78,0,0,1,49.86,61.37Zm0-3.73a.77.77,0,0,1-.77-.78v-.62a.77.77,0,0,1,.77-.78.78.78,0,0,1,.78.78v.62A.78.78,0,0,1,49.86,57.64Zm0-3.73a.77.77,0,0,1-.77-.78v-.62a.77.77,0,0,1,.77-.78.78.78,0,0,1,.78.78v.62A.78.78,0,0,1,49.86,53.91Zm0-3.73a.77.77,0,0,1-.77-.78v-.62a.77.77,0,0,1,.77-.78.78.78,0,0,1,.78.78v.62A.78.78,0,0,1,49.86,50.18Zm0-3.74a.76.76,0,0,1-.77-.77v-.62a.77.77,0,0,1,.77-.78.78.78,0,0,1,.78.78v.62A.77.77,0,0,1,49.86,46.44Zm0-3.73a.76.76,0,0,1-.77-.77v-.62a.77.77,0,0,1,.77-.78.78.78,0,0,1,.78.78v.62A.77.77,0,0,1,49.86,42.71Zm0-3.73a.76.76,0,0,1-.77-.77v-.62a.77.77,0,0,1,.77-.78.78.78,0,0,1,.78.78v.62A.77.77,0,0,1,49.86,39Zm0-3.73a.76.76,0,0,1-.77-.77v-.62a.77.77,0,0,1,.77-.78.78.78,0,0,1,.78.78v.62A.77.77,0,0,1,49.86,35.25Zm0-3.73a.76.76,0,0,1-.77-.77v-.62a.77.77,0,0,1,.77-.78.78.78,0,0,1,.78.78v.62A.77.77,0,0,1,49.86,31.52Zm0-3.73a.76.76,0,0,1-.77-.77V26.4a.77.77,0,0,1,.77-.78.78.78,0,0,1,.78.78V27A.77.77,0,0,1,49.86,27.79Zm0-3.73a.76.76,0,0,1-.77-.77v-.62a.77.77,0,0,1,.77-.78.78.78,0,0,1,.78.78v.62A.77.77,0,0,1,49.86,24.06Zm0-3.73a.76.76,0,0,1-.77-.77v-.63a.77.77,0,0,1,.77-.77.78.78,0,0,1,.78.77v.63A.77.77,0,0,1,49.86,20.33Zm0-3.73a.76.76,0,0,1-.77-.77V15.2a.77.77,0,0,1,.77-.77.78.78,0,0,1,.78.77v.63A.77.77,0,0,1,49.86,16.6Zm0-3.73a.76.76,0,0,1-.77-.77v-.63a.77.77,0,0,1,.77-.77.78.78,0,0,1,.78.77v.63A.77.77,0,0,1,49.86,12.87Z" transform="translate(-1.17 -10.7)"/></svg>