<?xml version="1.0" encoding="utf-8"?>
<!-- Generator: Adobe Illustrator 24.3.0, SVG Export Plug-In . SVG Version: 6.00 Build 0)  -->
<svg version="1.1" id="レイヤー_1" xmlns="http://www.w3.org/2000/svg" xmlns:xlink="http://www.w3.org/1999/xlink" x="0px"
	 y="0px" viewBox="0 0 356 220" style="enable-background:new 0 0 356 220;" xml:space="preserve">
<style type="text/css">
	.st0{fill-rule:evenodd;clip-rule:evenodd;fill:#FFF7E0;}
	.st1{opacity:0.5;fill:#CCD2D6;}
	.st2{enable-background:new    ;}
	.st3{fill:#1F1F1E;}
	.st4{fill:#242423;}
	.st5{clip-path:url(#XMLID_2_);}
	.st6{fill:#BFDCF5;}
	.st7{fill:#33636B;}
	.st8{fill:#3B737D;}
	.st9{fill:#FFFFFF;stroke:#BFDCF5;stroke-miterlimit:10;}
	.st10{clip-path:url(#XMLID_3_);enable-background:new    ;}
	.st11{fill:#D6D6D6;}
	.st12{clip-path:url(#XMLID_4_);enable-background:new    ;}
	.st13{fill:#FFFFFF;}
	.st14{fill:#69A6FF;}
	.st15{fill:#48D9A5;}
	.st16{fill:#DFE9F2;}
	.st17{font-family:'Lato-Bold';}
	.st18{font-size:32.2146px;}
	.st19{letter-spacing:1.253;}
	.st20{clip-path:url(#XMLID_5_);}
	.st21{clip-path:url(#XMLID_6_);enable-background:new    ;}
	.st22{clip-path:url(#XMLID_7_);enable-background:new    ;}
	.st23{fill:#FFC010;}
	.st24{fill:#573847;}
	.st25{fill:#A4C4F5;}
	.st26{fill:#F2DBCC;}
	.st27{fill:#F7F6FB;}
	.st28{fill:#CAD2D8;}
	.st29{fill:#D1860D;}
	.st30{fill:#FCAD1D;}
	.st31{fill:#EFDECB;}
	.st32{fill:#717290;}
	.st33{fill:#300800;}
	.st34{fill:#00346E;}
	.st35{fill:#FBE867;}
	.st36{fill:#DD435D;}
	.st37{fill:#FF5F7A;}
	.st38{fill:#DBAC13;}
	.st39{fill:#FFC757;}
	.st40{fill:#40B284;}
	.st41{fill:#7CD8B4;}
	.st42{fill:#7F466B;}
	.st43{fill:#B864EB;}
	.st44{fill:#3F60BC;}
	.st45{fill:#654F5C;}
</style>
<path class="st0" d="M191.626,7.782c0,0-41.351-0.629-67.909,6.599c-26.559,7.233-52.781,15.719-69.254,27.352
	C37.99,53.362,20.509,68.768,21.518,81.971c1.008,13.202,17.817,23.96,34.29,26.475c16.473,2.515,37.811,14.308,47.499,28.708
	c13.11,19.49-6.485,60.185,19.738,70.246c21.425,8.218,52.444,0.626,103.545-29.866c51.1-30.492,80.011-60.042,89.424-88.02
	c9.413-27.978-8.068-56.898-32.946-66.331C258.191,13.754,218.846,7.002,191.626,7.782z"/>
<path class="st1" d="M166.505,175.87l-76.933-12.598c-1.385-0.235-7.48-3.701-6.932-6.929v0c0.548-3.228,2.13-5.677,3.515-5.442
	l89.562,14.472c1.385,0.235,2.069,3.069,1.521,6.297v0C176.69,174.899,171.318,176.454,166.505,175.87z"/>
<path class="st1" d="M275.018,195.57l-76.933-12.598c-1.385-0.235-7.48-3.701-6.932-6.929l0,0c0.548-3.228,2.13-5.677,3.515-5.442
	l89.562,14.472c1.385,0.235,2.069,3.069,1.521,6.297v0C285.203,194.599,279.831,196.154,275.018,195.57z"/>
<g id="XMLID_2184_" class="st2">
	<g id="XMLID_2230_">
		<polygon id="XMLID_2231_" class="st3" points="94.046,26.429 102.783,22.596 102.58,132.101 93.843,135.934 		"/>
	</g>
	<g id="XMLID_2228_">
		<polygon id="XMLID_2229_" class="st4" points="93.843,135.934 102.58,132.101 172.471,144.463 163.733,148.296 		"/>
	</g>
	<g id="XMLID_2222_" class="st2">
		<defs>
			<path id="XMLID_2223_" class="st2" d="M174.242,166.483l-8.737,3.833c2.715-1.191,4.575-4.128,4.582-7.864l8.737-3.833
				C178.817,162.354,176.957,165.292,174.242,166.483z"/>
		</defs>
		<clipPath id="XMLID_2_">
			<use xlink:href="#XMLID_2223_"  style="overflow:visible;"/>
		</clipPath>
		<g id="XMLID_2224_" class="st5">
			<path id="XMLID_2225_" class="st6" d="M170.087,162.452l8.737-3.833c-0.007,3.735-1.867,6.672-4.582,7.864l-8.737,3.833
				C168.22,169.124,170.08,166.187,170.087,162.452"/>
		</g>
	</g>
	<g id="XMLID_2220_">
		<polygon id="XMLID_2221_" class="st7" points="163.937,38.791 172.674,34.958 172.471,144.463 163.734,148.296 		"/>
	</g>
	<g id="XMLID_2218_">
		<polygon id="XMLID_2219_" class="st8" points="94.046,26.429 102.783,22.596 172.674,34.958 163.937,38.791 		"/>
	</g>
	<g id="XMLID_2212_">
		<path id="XMLID_2213_" class="st9" d="M161.679,15.5c4.769,0.844,8.67,5.967,8.66,11.391l-0.252,135.561
			c-0.01,5.424-3.927,9.165-8.696,8.321l-65.29-11.548c-4.769-0.844-8.67-5.967-8.66-11.391l0.252-135.561
			c0.01-5.424,3.927-9.164,8.696-8.321L161.679,15.5z M163.733,148.296l0.203-109.505L94.046,26.429l-0.203,109.505L163.733,148.296
			 M138.2,156.429c1.122,0.199,2.047-0.679,2.049-1.954c0.002-1.274-0.918-2.478-2.041-2.677l-18.871-3.338
			c-1.122-0.199-2.047,0.679-2.049,1.953c-0.002,1.275,0.918,2.479,2.04,2.677L138.2,156.429 M118.556,18.497
			c-0.561-0.099-1.023,0.343-1.025,0.98c-0.001,0.637,0.459,1.236,1.02,1.335l20.916,3.7c0.561,0.099,1.023-0.336,1.025-0.973
			c0.001-0.637-0.459-1.243-1.02-1.342L118.556,18.497"/>
	</g>
	<g id="XMLID_2210_">
		<path id="XMLID_2211_" class="st6" d="M138.209,151.799c1.122,0.199,2.043,1.402,2.041,2.677
			c-0.002,1.274-0.927,2.152-2.049,1.954l-18.871-3.338c-1.122-0.199-2.043-1.403-2.041-2.677c0.002-1.275,0.927-2.152,2.049-1.954
			L138.209,151.799z"/>
	</g>
	<g id="XMLID_2203_" class="st2">
		<defs>
			<path id="XMLID_2204_" class="st2" d="M92.275,4.409l8.737-3.833c1.227-0.538,2.629-0.72,4.114-0.457l-8.737,3.833
				C94.904,3.689,93.502,3.871,92.275,4.409z"/>
		</defs>
		<use xlink:href="#XMLID_2204_"  style="overflow:visible;fill:#BFDCF5;"/>
		<clipPath id="XMLID_3_">
			<use xlink:href="#XMLID_2204_"  style="overflow:visible;"/>
		</clipPath>
		<g id="XMLID_2205_" class="st10">
			<path id="XMLID_2209_" class="st6" d="M92.275,4.409l8.737-3.833c0.219-0.096,0.443-0.181,0.673-0.254l-8.737,3.833
				C92.718,4.228,92.494,4.313,92.275,4.409"/>
			<path id="XMLID_2208_" class="st6" d="M92.948,4.155l8.737-3.833c0.481-0.153,0.983-0.253,1.503-0.297l-8.737,3.833
				C93.931,3.902,93.429,4.003,92.948,4.155"/>
			<path id="XMLID_2207_" class="st6" d="M94.451,3.858l8.737-3.833c0.62-0.053,1.265-0.025,1.927,0.091L96.378,3.95
				C95.717,3.834,95.072,3.806,94.451,3.858"/>
			<polyline id="XMLID_2206_" class="st6" points="96.378,3.95 105.115,0.117 105.126,0.119 96.389,3.952 96.378,3.95 			"/>
		</g>
	</g>
	<g id="XMLID_2201_">
		<path id="XMLID_2202_" class="st6" d="M139.472,22.196c0.561,0.099,1.021,0.705,1.02,1.342c-0.001,0.637-0.464,1.072-1.025,0.973
			l-20.916-3.7c-0.561-0.099-1.021-0.698-1.02-1.335c0.001-0.637,0.463-1.08,1.025-0.98L139.472,22.196z"/>
	</g>
	<g id="XMLID_2199_">
		<polygon id="XMLID_2200_" class="st11" points="163.937,38.791 163.734,148.296 93.843,135.934 94.046,26.429 		"/>
	</g>
	<g id="XMLID_2197_">
		<polygon id="XMLID_2198_" class="st6" points="96.389,3.952 105.126,0.119 170.416,11.667 161.679,15.5 		"/>
	</g>
	<g id="XMLID_2194_">
		<polygon id="XMLID_2196_" class="st6" points="170.339,26.891 179.076,23.058 178.824,158.619 170.087,162.452 		"/>
	</g>
	<g id="XMLID_2185_" class="st2">
		<defs>
			<path id="XMLID_2186_" class="st2" d="M161.679,15.5l8.737-3.833c4.769,0.844,8.67,5.967,8.66,11.391l-8.737,3.833
				C170.349,21.467,166.448,16.344,161.679,15.5z"/>
		</defs>
		<use xlink:href="#XMLID_2186_"  style="overflow:visible;fill:#BFDCF5;"/>
		<clipPath id="XMLID_4_">
			<use xlink:href="#XMLID_2186_"  style="overflow:visible;"/>
		</clipPath>
		<g id="XMLID_2187_" class="st12">
			<path id="XMLID_2193_" class="st6" d="M161.679,15.5l8.737-3.833c2.074,0.367,3.984,1.543,5.479,3.202l-8.737,3.833
				C165.663,17.043,163.753,15.867,161.679,15.5"/>
			<path id="XMLID_2192_" class="st6" d="M167.158,18.702l8.737-3.833c0.512,0.568,0.976,1.193,1.381,1.862l-8.737,3.833
				C168.135,19.895,167.671,19.27,167.158,18.702"/>
			<path id="XMLID_2191_" class="st6" d="M168.539,20.564l8.737-3.833c0.326,0.538,0.614,1.105,0.859,1.692l-8.737,3.833
				C169.154,21.668,168.866,21.102,168.539,20.564"/>
			<path id="XMLID_2190_" class="st6" d="M169.398,22.256l8.737-3.833c0.233,0.56,0.427,1.14,0.577,1.732l-8.737,3.833
				C169.825,23.396,169.631,22.816,169.398,22.256"/>
			<path id="XMLID_2189_" class="st6" d="M169.975,23.988l8.737-3.833c0.165,0.654,0.277,1.324,0.33,2.002l-8.737,3.833
				C170.252,25.312,170.14,24.642,169.975,23.988"/>
			<path id="XMLID_2188_" class="st6" d="M170.305,25.99l8.737-3.833c0.023,0.299,0.035,0.599,0.034,0.9l-8.737,3.833
				C170.339,26.59,170.328,26.289,170.305,25.99"/>
		</g>
	</g>
</g>
<g id="XMLID_2182_">
	<polygon id="XMLID_2183_" class="st13" points="163.055,39.284 162.789,147.132 94.758,135.195 95.024,27.347 	"/>
</g>
<g id="XMLID_2179_">
	<path id="XMLID_2180_" class="st14" d="M95.049,27.371l68.09,11.633l-0.016,11.04l-68.09-11.633L95.049,27.371z"/>
</g>
<g id="XMLID_2175_">
	<polygon id="XMLID_2178_" class="st6" points="116.861,116.89 116.828,132.414 100.78,129.627 100.814,114.103 	"/>
</g>
<g id="XMLID_2172_">
	<path id="XMLID_2173_" class="st15" d="M100.355,66.768l55.098,9.612l-0.039,35.491l-55.098-9.612L100.355,66.768z"/>
</g>
<g id="XMLID_2139_">
	<polygon id="XMLID_2171_" class="st6" points="136.432,120.289 136.399,135.814 120.351,133.026 120.385,117.502 	"/>
</g>
<g id="XMLID_2125_">
	<g>
		<polygon id="XMLID_27_" class="st16" points="149.462,54.209 149.455,58.78 107.078,51.419 107.086,46.849 		"/>
	</g>
</g>
<g id="XMLID_2115_">
	<g>
		<polygon id="XMLID_25_" class="st16" points="155.453,70.373 155.446,72.533 100.385,62.897 100.392,60.737 		"/>
	</g>
</g>
<g id="XMLID_2108_">
	<g>
		<polygon id="XMLID_23_" class="st16" points="155.453,66.625 155.446,68.785 100.385,59.149 100.392,56.989 		"/>
	</g>
</g>
<g id="XMLID_1925_">
	<g>
		<polygon id="XMLID_22_" class="st16" points="155.453,62.719 155.446,64.878 100.385,55.242 100.392,53.083 		"/>
	</g>
</g>
<g id="XMLID_1899_">
	<g>
		<polygon id="XMLID_19_" class="st16" points="155.453,118.165 155.446,120.324 100.385,110.688 100.392,108.529 		"/>
	</g>
</g>
<g id="XMLID_1300_">
	<g>
		<polygon id="XMLID_18_" class="st16" points="155.453,114.522 155.446,116.682 100.385,107.046 100.392,104.886 		"/>
	</g>
</g>
<g id="XMLID_164_">
	<polygon id="XMLID_166_" class="st6" points="156.003,123.689 155.97,139.213 139.922,136.426 139.956,120.901 	"/>
</g>
<g>
	<g>
		<path class="st13" d="M159.886,42.711l-5.578-0.939c-0.214-0.036-0.382-0.222-0.374-0.415c0.007-0.193,0.186-0.321,0.4-0.285
			l5.578,0.939c0.214,0.036,0.382,0.222,0.374,0.415C160.279,42.619,160.1,42.747,159.886,42.711z"/>
	</g>
	<g>
		<path class="st13" d="M159.822,44.437l-5.578-0.939c-0.214-0.036-0.382-0.222-0.374-0.415c0.007-0.193,0.186-0.321,0.4-0.285
			l5.578,0.939c0.214,0.036,0.382,0.222,0.374,0.415C160.215,44.345,160.036,44.473,159.822,44.437z"/>
	</g>
	<g>
		<path class="st13" d="M159.757,46.163l-5.578-0.939c-0.214-0.036-0.382-0.222-0.374-0.415c0.007-0.193,0.186-0.321,0.4-0.285
			l5.578,0.939c0.214,0.036,0.382,0.222,0.374,0.415C160.15,46.072,159.971,46.199,159.757,46.163z"/>
	</g>
</g>
<g>
	<text transform="matrix(0.7883 0.1224 -0.0083 1 117.3555 99.5044)" class="st13 st17 st18 st19">A</text>
</g>
<g>
	<g>
		<path class="st13" d="M274.521,60.978l-5.578-0.939c-0.214-0.036-0.382-0.222-0.374-0.415c0.007-0.193,0.186-0.321,0.4-0.285
			l5.578,0.939c0.214,0.036,0.382,0.222,0.374,0.415S274.734,61.014,274.521,60.978z"/>
	</g>
	<g>
		<path class="st13" d="M274.456,62.704l-5.578-0.939c-0.214-0.036-0.382-0.222-0.374-0.415c0.007-0.193,0.186-0.321,0.4-0.285
			l5.578,0.939c0.214,0.036,0.382,0.222,0.374,0.415S274.67,62.74,274.456,62.704z"/>
	</g>
	<g>
		<path class="st13" d="M274.391,64.43l-5.578-0.939c-0.214-0.036-0.382-0.222-0.374-0.415c0.007-0.193,0.186-0.321,0.4-0.285
			l5.578,0.939c0.214,0.036,0.382,0.222,0.374,0.415C274.785,64.339,274.605,64.466,274.391,64.43z"/>
	</g>
</g>
<g>
	<g id="XMLID_2309_" class="st2">
		<g id="XMLID_2352_">
			<polygon id="XMLID_2353_" class="st3" points="199.638,46.605 208.375,42.773 208.171,152.278 199.434,156.111 			"/>
		</g>
		<g id="XMLID_2350_">
			<polygon id="XMLID_2351_" class="st4" points="199.434,156.111 208.171,152.278 278.062,164.64 269.325,168.473 			"/>
		</g>
		<g id="XMLID_2346_" class="st2">
			<defs>
				<path id="XMLID_2347_" class="st2" d="M279.833,186.66l-8.737,3.833c2.715-1.191,4.575-4.128,4.582-7.864l8.737-3.833
					C284.409,182.531,282.548,185.468,279.833,186.66z"/>
			</defs>
			<clipPath id="XMLID_5_">
				<use xlink:href="#XMLID_2347_"  style="overflow:visible;"/>
			</clipPath>
			<g id="XMLID_2348_" class="st20">
				<path id="XMLID_2349_" class="st6" d="M275.678,182.629l8.737-3.833c-0.007,3.735-1.867,6.672-4.582,7.864l-8.737,3.833
					C273.811,189.301,275.672,186.364,275.678,182.629"/>
			</g>
		</g>
		<g id="XMLID_2344_">
			<polygon id="XMLID_2345_" class="st7" points="269.529,58.967 278.266,55.135 278.062,164.64 269.325,168.473 			"/>
		</g>
		<g id="XMLID_2342_">
			<polygon id="XMLID_2343_" class="st8" points="199.638,46.605 208.375,42.773 278.266,55.135 269.529,58.967 			"/>
		</g>
		<g id="XMLID_2336_">
			<path id="XMLID_2337_" class="st9" d="M267.271,35.677c4.769,0.844,8.67,5.967,8.66,11.391l-0.252,135.561
				c-0.01,5.424-3.927,9.165-8.696,8.321l-65.29-11.548c-4.769-0.844-8.67-5.967-8.66-11.391l0.252-135.561
				c0.01-5.424,3.927-9.164,8.696-8.321L267.271,35.677z M269.325,168.473l0.203-109.505l-69.891-12.362l-0.203,109.505
				L269.325,168.473 M243.792,176.606c1.122,0.199,2.047-0.679,2.049-1.954c0.002-1.274-0.918-2.478-2.041-2.677l-18.871-3.338
				c-1.122-0.199-2.047,0.679-2.049,1.953c-0.002,1.275,0.918,2.479,2.04,2.677L243.792,176.606 M224.148,38.673
				c-0.561-0.099-1.023,0.343-1.025,0.98c-0.001,0.637,0.459,1.236,1.02,1.335l20.916,3.7c0.561,0.099,1.023-0.336,1.025-0.973
				c0.001-0.637-0.459-1.243-1.02-1.342L224.148,38.673"/>
		</g>
		<g id="XMLID_2334_">
			<path id="XMLID_2335_" class="st6" d="M243.8,171.976c1.122,0.199,2.043,1.402,2.041,2.677c-0.002,1.274-0.927,2.152-2.049,1.954
				l-18.871-3.338c-1.122-0.199-2.043-1.402-2.041-2.677c0.002-1.275,0.927-2.152,2.049-1.954L243.8,171.976z"/>
		</g>
		<g id="XMLID_2327_" class="st2">
			<defs>
				<path id="XMLID_2328_" class="st2" d="M197.867,24.586l8.737-3.833c1.227-0.538,2.629-0.72,4.114-0.457l-8.737,3.833
					C200.496,23.866,199.094,24.047,197.867,24.586z"/>
			</defs>
			<use xlink:href="#XMLID_2328_"  style="overflow:visible;fill:#BFDCF5;"/>
			<clipPath id="XMLID_6_">
				<use xlink:href="#XMLID_2328_"  style="overflow:visible;"/>
			</clipPath>
			<g id="XMLID_2329_" class="st21">
				<path id="XMLID_2333_" class="st6" d="M197.867,24.586l8.737-3.833c0.219-0.096,0.443-0.181,0.673-0.254l-8.737,3.833
					C198.31,24.405,198.085,24.49,197.867,24.586"/>
				<path id="XMLID_2332_" class="st6" d="M198.539,24.332l8.737-3.833c0.481-0.153,0.983-0.253,1.503-0.297l-8.737,3.833
					C199.523,24.079,199.02,24.18,198.539,24.332"/>
				<path id="XMLID_2331_" class="st6" d="M200.043,24.035l8.737-3.833c0.62-0.053,1.265-0.025,1.927,0.091l-8.737,3.833
					C201.308,24.01,200.663,23.982,200.043,24.035"/>
				<polyline id="XMLID_2330_" class="st6" points="201.969,24.126 210.707,20.294 210.718,20.296 201.98,24.128 201.969,24.126 
									"/>
			</g>
		</g>
		<g id="XMLID_2325_">
			<path id="XMLID_2326_" class="st6" d="M245.064,42.373c0.561,0.099,1.021,0.705,1.02,1.342c-0.001,0.637-0.464,1.072-1.025,0.973
				l-20.916-3.7c-0.561-0.099-1.021-0.698-1.02-1.335c0.001-0.637,0.463-1.08,1.025-0.98L245.064,42.373z"/>
		</g>
		<g id="XMLID_2323_">
			<polygon id="XMLID_2324_" class="st11" points="269.529,58.967 269.325,168.473 199.434,156.111 199.638,46.605 			"/>
		</g>
		<g id="XMLID_2321_">
			<polygon id="XMLID_2322_" class="st6" points="201.98,24.128 210.718,20.296 276.008,31.844 267.271,35.677 			"/>
		</g>
		<g id="XMLID_2319_">
			<polygon id="XMLID_2320_" class="st6" points="275.93,47.068 284.667,43.235 284.415,178.796 275.678,182.629 			"/>
		</g>
		<g id="XMLID_2310_" class="st2">
			<defs>
				<path id="XMLID_2311_" class="st2" d="M267.271,35.677l8.737-3.833c4.769,0.844,8.67,5.967,8.66,11.391l-8.737,3.833
					C275.94,41.644,272.04,36.52,267.271,35.677z"/>
			</defs>
			<use xlink:href="#XMLID_2311_"  style="overflow:visible;fill:#BFDCF5;"/>
			<clipPath id="XMLID_7_">
				<use xlink:href="#XMLID_2311_"  style="overflow:visible;"/>
			</clipPath>
			<g id="XMLID_2312_" class="st22">
				<path id="XMLID_2318_" class="st6" d="M267.271,35.677l8.737-3.833c2.074,0.367,3.984,1.543,5.479,3.202l-8.737,3.833
					C271.255,37.22,269.345,36.044,267.271,35.677"/>
				<path id="XMLID_2317_" class="st6" d="M272.75,38.879l8.737-3.833c0.512,0.568,0.976,1.193,1.381,1.862l-8.737,3.833
					C273.726,40.072,273.262,39.447,272.75,38.879"/>
				<path id="XMLID_2316_" class="st6" d="M274.131,40.741l8.737-3.833c0.326,0.538,0.614,1.105,0.859,1.692l-8.737,3.833
					C274.745,41.845,274.457,41.279,274.131,40.741"/>
				<path id="XMLID_2315_" class="st6" d="M274.99,42.433l8.737-3.833c0.233,0.56,0.427,1.14,0.577,1.732l-8.737,3.833
					C275.417,43.572,275.223,42.993,274.99,42.433"/>
				<path id="XMLID_2314_" class="st6" d="M275.567,44.165l8.737-3.833c0.165,0.654,0.277,1.324,0.33,2.002l-8.737,3.833
					C275.844,45.489,275.732,44.819,275.567,44.165"/>
				<path id="XMLID_2313_" class="st6" d="M275.896,46.167l8.737-3.833c0.023,0.299,0.035,0.599,0.034,0.9l-8.737,3.833
					C275.931,46.766,275.919,46.466,275.896,46.167"/>
			</g>
		</g>
	</g>
	<g id="XMLID_2307_">
		<polygon id="XMLID_2308_" class="st13" points="268.647,59.461 268.38,167.309 200.349,155.372 200.616,47.524 		"/>
	</g>
	<g id="XMLID_2304_">
		<path id="XMLID_2305_" class="st14" d="M200.64,47.548l68.09,11.633l-0.016,11.04l-68.09-11.633L200.64,47.548z"/>
	</g>
	<g id="XMLID_2300_">
		<polygon id="XMLID_2303_" class="st6" points="222.453,137.067 222.419,152.591 206.372,149.804 206.406,134.28 		"/>
	</g>
	<g id="XMLID_2297_">
		<g>
			<path id="XMLID_40_" class="st23" d="M205.947,86.944l55.098,9.612l-0.039,35.491l-55.098-9.612L205.947,86.944z"/>
		</g>
	</g>
	<g id="XMLID_2293_">
		<polygon id="XMLID_2296_" class="st6" points="241.378,140.466 241.344,155.99 225.297,153.203 225.331,137.679 		"/>
	</g>
	<g id="XMLID_2289_">
		<g>
			<polygon id="XMLID_14_" class="st16" points="255.054,74.079 255.046,78.65 212.67,71.289 212.677,66.719 			"/>
		</g>
	</g>
	<g id="XMLID_2281_">
		<g>
			<polygon id="XMLID_13_" class="st16" points="261.045,90.243 261.038,92.403 205.977,82.767 205.984,80.607 			"/>
		</g>
	</g>
	<g id="XMLID_2119_">
		<g>
			<polygon id="XMLID_12_" class="st16" points="261.045,86.495 261.038,88.655 205.977,79.019 205.984,76.859 			"/>
		</g>
	</g>
	<g id="XMLID_1911_">
		<g>
			<polygon id="XMLID_11_" class="st16" points="261.045,82.588 261.038,84.748 205.977,75.112 205.984,72.953 			"/>
		</g>
	</g>
	<g id="XMLID_1297_">
		<g>
			<polygon id="XMLID_10_" class="st16" points="261.045,138.342 261.038,140.501 205.977,130.865 205.984,128.706 			"/>
		</g>
	</g>
	<g id="XMLID_343_">
		<g>
			<polygon id="XMLID_9_" class="st16" points="261.045,134.699 261.038,136.858 205.977,127.223 205.984,125.063 			"/>
		</g>
	</g>
	<g id="XMLID_339_">
		<polygon id="XMLID_340_" class="st6" points="260.949,143.865 260.915,159.39 244.868,156.602 244.902,141.078 		"/>
	</g>
	<g>
		<text transform="matrix(0.7883 0.1224 -0.0083 1 223.6884 119.7964)" class="st13 st17 st18 st19">B</text>
	</g>
</g>
<g>
	<ellipse class="st1" cx="319.184" cy="156.041" rx="16.693" ry="7.6"/>
	<path class="st24" d="M317.034,148.28c0,0-1.471,1.798-2.696,1.879c-1.226,0.082-7.272,1.961-4.33,4.33s7.517,0.163,7.517,0.163
		l5.229-0.082c0,0,1.797-1.716,1.879-2.696c0.082-0.98-1.552-5.393-1.552-5.393L317.034,148.28z"/>
	<path class="st13" d="M322.304,154.244c0,0-2.206,0.286-3.064,0c-0.858-0.286-1.307-0.123-1.593,0
		c-0.286,0.123-0.817,0.735-1.634,0.899c-0.817,0.163-2.533-0.531-2.533-0.531s-1.062-4.208-2.206-3.758
		c0,0-2.206,1.021-2.288,1.961l0.163,1.757c0,0,2.737,1.798,4.167,1.716s4.821-0.654,4.821-0.654l4.33-0.735L322.304,154.244z"/>
	<path class="st24" d="M329.127,151.303c0,0,1.879,4.984,0.735,6.046c-1.144,1.062-2.451,2.288-3.023,3.922
		c-0.572,1.634-8.252,0.817-8.742,0s-0.572-2.451,0.572-3.268s3.35-1.389,3.432-2.451s1.798-4.984,1.798-4.984L329.127,151.303z"/>
	<path class="st13" d="M330.189,156.696c0,0-2.288,2.043-2.778,2.288c-0.49,0.245-0.817,1.961-1.716,2.043
		c-0.899,0.082-2.165-1.879-3.718-2.288s-3.309-0.082-3.636,0.082c-0.327,0.163-1.307,1.062-0.245,2.451c0,0,1.103,1.43,5.801,1.144
		c0,0,1.961,0.082,2.941-1.144s3.105-3.35,3.105-3.35L330.189,156.696z"/>
	<path class="st25" d="M332.19,93.807c0,0,1.737,6.742,1.628,8.484s-0.662,15.238-0.662,15.478s-0.521,8.755-0.521,8.995
		c0,0.24-1.184,9.789-1.184,9.789l-1.127,11.426l-0.98,5.285c0,0-3.811-4.312-6.046-1.081l-0.436-4.865c0,0,0.872-0.06,1.035-1.441
		c0.163-1.381,0.374-6.852,0.157-7.693c-0.218-0.841,0.148-6.02,0.148-6.2c0-0.18-0.74-4.731-0.74-4.731s-0.273-6.962-0.981-9.484
		c-0.708-2.523-1.089-7.628-1.089-7.628s-0.461,7.05-1.333,8.791s-0.192,4.422-0.192,4.963s-0.272,3.904,0.381,5.826
		c0.654,1.922,1.743,5.466,1.798,6.186c0.054,0.721,1.525,6.427,1.525,7.508s0.381,3.243,0.381,3.243s-1.355,4.196-4.628,3.928
		c-0.072-0.006-0.146-0.014-0.22-0.024c-3.432-0.48-3.595-1.682-3.595-1.682s0.599-1.021,0.49-2.282
		c-0.109-1.261-0.599-2.943-0.654-3.243s-3.105-13.454-3.323-14.114c-0.218-0.661,1.035-3.604,0.163-5.406
		c-0.872-1.802-1.925-12.245-2.633-13.387c-0.708-1.141,0.202-9.207,0.148-10.768s-0.74-5.547-0.74-5.547L332.19,93.807z"/>
	<path class="st26" d="M348.34,67.969c0,0-2.113-3.842-2.113-5.571c0-1.729,0.768,0,1.729,0c0.96,0,0.768-1.921,1.345-2.881
		c0.576-0.96,3.842-0.96,4.802-0.96c0.96,0,2.881,1.345,0.96,2.305s-4.034,4.226-4.226,5.571
		C350.645,67.777,348.34,67.969,348.34,67.969z"/>
	<ellipse class="st26" cx="321.704" cy="54.459" rx="6.147" ry="8.708"/>
	<ellipse class="st26" cx="327.338" cy="54.587" rx="2.689" ry="2.433"/>
	<ellipse class="st26" cx="316.296" cy="53.987" rx="2.689" ry="2.177"/>
	<polygon class="st26" points="324.315,61.246 318.222,61.246 316.872,68.555 325.289,68.103 	"/>
	<path class="st27" d="M325.289,64.703c0,0-3.458,5.571-8.452,0.96l-4.994,16.712l-1.345,14.022c0,0,13.83,2.689,18.632-0.768
		l-0.768-25.355L325.289,64.703z"/>
	<path class="st15" d="M328.939,63.551l5.57,1.537c0,0,6.723,9.796,6.723,9.22c0-0.576,5.955-9.796,5.955-9.796l4.802,3.458
		l-8.644,16.712l-10.181-10.373l-0.384,23.05l-7.972,1.825l0.096-17.064L328.939,63.551z"/>
	<path class="st15" d="M315.557,63.557c0,0-6.639,0.77-8.944,2.499c-2.305,1.729-6.182,24.595-6.182,24.595l2.482,13.503
		l2.121-4.296l2.499-15.125l1.62-4.086l-1.752,17.107l9.435,1.91l-1.345-20.937L315.557,63.557z"/>
	<path class="st28" d="M324.521,62.398c0.576,0.576,6.531,1.537,6.531,1.537s-7.235,22.026-6.659,20.105
		C324.969,82.119,324.521,62.398,324.521,62.398z"/>
	<path class="st28" d="M318.056,62.548c-0.576,0.576-5.861,1.387-5.861,1.387s4.322,23.306,3.746,21.386
		C315.365,83.4,318.056,62.548,318.056,62.548z"/>
	<g>
		<g>
			<g>
				<polygon class="st29" points="299.412,93.784 297.424,101.27 299.084,102.315 301.072,94.829 				"/>
			</g>
			<g>
				<polygon class="st30" points="301.072,94.829 299.084,102.315 311.113,103.534 313.101,96.048 				"/>
			</g>
			<g>
				<polygon class="st31" points="313.101,96.048 311.441,95.002 299.412,93.784 301.072,94.829 				"/>
			</g>
		</g>
	</g>
	<path class="st26" d="M308.025,102.028l-0.188,2.26c0,0-3.063,3.024-4.144,1.507c-0.571-0.802-2.033,0.059-0.615-3.435
		C304.495,98.867,308.025,102.028,308.025,102.028z"/>
	<g>
		
			<ellipse transform="matrix(0.9235 -0.3836 0.3836 0.9235 -56.2582 128.4497)" class="st1" cx="293.906" cy="205.269" rx="21.671" ry="10.514"/>
		<g>
			<path class="st26" d="M314.465,124.729c0,0,1.195,9.404,1.033,10.537c-0.162,1.133-0.89,2.681-1.503,2.711
				c-0.613,0.03-2.288,0.972-3.609-0.732c-1.321-1.703,0.111-10.527,0.111-10.527L314.465,124.729z"/>
			<g>
				<path class="st26" d="M303.724,110.784l-0.722-3.805c0,0,0.448-1.236,1.49-3.527c1.281,0.068,2.406-0.815,2.55-2.05
					c0.084-0.726-0.197-1.407-0.691-1.898c1.869-4.489-6.7-6.644-8.825-7.332c-1.572-0.509-3.224,2.756-4.163,5.859
					c-1.326-0.12-2.532,0.98-2.708,2.49c-0.178,1.532,0.77,2.901,2.119,3.058c0.103,0.012,0.203,0.003,0.304,0
					c0.226,0.472,0.521,0.911,0.839,1.321l1.041,2.735l1.346-0.042c0.07,0.121,0.114,0.231,0.103,0.321
					c-0.103,0.888-1.074,3.12-1.074,3.12c4.201,8.36,12.355,0.797,12.355,0.797L303.724,110.784z"/>
				<path class="st32" d="M301.155,195.668c0,0-2.904-3.351-4.245,0.223c-1.34,3.575,2.011,7.596,4.692,8.49
					c2.681,0.894,0.67,3.351,5.362,3.128l0.447-7.819L301.155,195.668z"/>
				<path class="st32" d="M289.314,205.052c0,0-1.787,2.904-5.362,4.021s-8.043,1.34-6.479,4.692s10.053-0.223,12.064,0.223
					c2.011,0.447,3.575,1.117,5.809-1.117c2.234-2.234-0.67-7.149-0.67-7.149L289.314,205.052z"/>
				<path class="st33" d="M297.622,88.954c0,0-3.491-0.573-4.74,2.431c-1.249,3.004-2.53,4.452-1.168,8.209
					c1.363,3.757,7.123,8.929,7.123,8.929l1.458-1.823l1.58,1.823c0,0,1.161-3.789,2.699-5.41c1.538-1.621,3.994-4.371,2.828-7.881
					C306.237,91.723,303.943,86.28,297.622,88.954z"/>
				<path class="st34" d="M290.207,141.379l-2.234,2.681c0,0-3.798,23.011-2.234,31.501c1.564,8.49,2.234,31.278,2.234,31.278
					s8.266,8.669,8.266,0.223c0-1.34-1.117-34.182-1.117-34.182l4.692-17.649c0,0,7.149,1.34,10.277-5.585
					c1.658-3.671,1.117-13.405,1.117-13.405L290.207,141.379z"/>
				<path class="st34" d="M309.644,149.422c-0.447,1.787-2.011,17.203-1.564,22.565c0.447,5.362,0,31.054,0,31.054
					s-6.032,2.904-6.926-4.245s-2.234-26.809-2.011-27.703c0.223-0.894-0.447-19.213-0.447-19.213L309.644,149.422z"/>
				<polygon class="st26" points="285.177,124.018 282.741,133.305 277.717,126.911 278.174,123.409 277.412,122.343 
					276.803,123.104 274.824,117.776 273.759,118.233 275.281,122.952 272.693,124.475 272.236,127.672 274.672,129.499 
					281.523,141.526 285.786,140.917 291.267,124.17 				"/>
				<path class="st35" d="M311.439,127.976c-0.114,6.28-0.114,20.553-0.114,20.553s-7.903,7.603-24.435,2.912l2.346-23.229
					c0,0-7.142,0.449-6.114-3.319c1.19-4.364-0.49-14.952,12.224-14.642c0,0,1.564,1.564,3.798,1.34
					c2.234-0.223,3.709-0.61,4.379-1.504c0,0,0.719-0.64,2.36-0.761c1.641-0.122,5.712,0.97,7.263,2.457
					c1.416,1.357,1.377,11.74,2.176,14.366C313.571,127.596,312.657,127.672,311.439,127.976z"/>
			</g>
		</g>
	</g>
	<path class="st33" d="M323.975,48.497l-1.315,2.236l-1.118-0.46l-1.447,1.184l-0.658-1.841l-1.644,2.17c0,0,0,0.921-0.197,1.447
		s-1.052,0.723-1.052,0.723l-0.73-2.058c0,0-1.637,0.545-1.44,1.334c0.197,0.789,0.658,2.565,0.658,2.565l1.096,0.482l0.68,2.806
		l1.381,2.565l-2.565-2.236c0,0-0.986,0.395-1.052-0.658s-0.723-1.381-1.184-2.039c-0.46-0.658-1.776-0.921-0.855-2.302
		s1.447-1.447,1.447-2.696s-0.723-2.696-0.592-3.42s0.395-1.513,0.986-2.104c0.592-0.592,0.986-2.104,1.71-2.631
		c0.723-0.526,1.118-1.644,2.433-1.381c1.315,0.263,2.894,1.118,3.485,1.118c0.592,0,3.749-0.395,4.143,0
		c0.395,0.395,0.197,0.855,1.381,2.039c1.184,1.184,4.012,1.381,4.077,2.236c0.066,0.855,0.066,2.565-0.329,3.288
		c-0.395,0.723-0.329,0.789-0.526,1.381c-0.197,0.592-0.526,0.789-0.46,1.776c0.066,0.986-0.132,1.578-0.395,1.841
		c-0.263,0.263-0.789,0.855-0.789,1.447s-0.263,1.447-0.526,1.71c-0.263,0.263-1.381,0.986-1.381,0.986l-1.315,0.526l1.184-3.551
		c0,0,1.907-0.986,1.973-1.447s0.46-2.104-0.329-2.367c-0.789-0.263-1.249,0.592-1.249,0.592l-0.592,1.184
		c0,0,0.263-1.447,0.197-2.433c-0.066-0.986-1.71-2.565-1.71-2.565l-0.46,1.184l-0.46-1.71L323.975,48.497z"/>
</g>
<g>
	<g>
		<g>
			<g>
				<path class="st13" d="M103.836,37.087l-0.408-0.596l0,0l-0.419-0.612l-0.827-1.208l-0.408,0.366l0,0l-0.419,0.375l-0.827,0.741
					l1.198,1.75l0,0l0.048,0.07c0.225,0.328,0.592,0.432,0.817,0.231l0.085-0.076l0,0L103.836,37.087z"/>
			</g>
		</g>
		<g>
			<g>
				<path class="st13" d="M103.585,31.566l-0.839-1.225c0,0,0,0,0-0.001l-0.409-0.597l-1.2,1.075v0l-0.048,0.043
					c-0.225,0.201-0.225,0.635,0,0.964l0.085,0.125v0l1.162,1.698l0.409-0.366l0,0l0.839-0.751
					C103.81,32.328,103.81,31.894,103.585,31.566z"/>
			</g>
			<g>
				<path class="st13" d="M105.976,35.139l-0.408-0.596c0-0.001-0.001-0.001-0.001-0.001l-0.839-1.225
					c-0.225-0.329-0.593-0.433-0.818-0.231l-0.839,0.751c0,0,0,0,0,0l-0.409,0.366l1.2,1.753l0,0l0.048,0.07
					c0.225,0.329,0.593,0.433,0.818,0.231l0.085-0.077l0,0L105.976,35.139z"/>
			</g>
			<g>
				<path class="st13" d="M100.215,32.406c0-0.375,0.184-0.413,0.409-0.084l0.839,1.225c0.225,0.329,0.225,0.762,0,0.964
					l-0.839,0.751c-0.225,0.202-0.409,0.06-0.409-0.315L100.215,32.406z"/>
			</g>
		</g>
	</g>
	<g>
		<path class="st13" d="M110.415,35.661l-0.002,0.59c-0.001,0.056-0.015,0.1-0.045,0.135c-0.029,0.034-0.069,0.047-0.122,0.038
			l-0.344-0.057l-0.005,1.305l-0.728-0.122l0.005-1.305l-1.818-0.304c-0.053-0.009-0.101-0.037-0.144-0.085s-0.069-0.105-0.08-0.172
			l-0.086-0.537l2.078-3.1l0.794,0.133l-0.013,3.396L110.415,35.661z M109.177,35.453l0.006-1.634c0-0.085,0.003-0.176,0.008-0.272
			c0.005-0.097,0.013-0.197,0.024-0.301l-1.283,1.999L109.177,35.453z"/>
		<path class="st13" d="M113.988,34.453l-0.02,5.159l-0.838-0.14l0.006-1.72c-0.12,0.136-0.258,0.238-0.41,0.308
			c-0.152,0.069-0.33,0.086-0.534,0.052c-0.168-0.028-0.322-0.098-0.46-0.209c-0.14-0.112-0.26-0.262-0.362-0.449
			c-0.101-0.188-0.181-0.409-0.236-0.665c-0.056-0.257-0.083-0.544-0.082-0.862c0.001-0.29,0.034-0.554,0.098-0.794
			c0.065-0.239,0.156-0.44,0.274-0.601c0.118-0.162,0.261-0.281,0.426-0.356c0.167-0.076,0.351-0.096,0.553-0.062
			c0.095,0.016,0.182,0.041,0.261,0.075c0.079,0.035,0.151,0.077,0.216,0.125c0.065,0.049,0.126,0.105,0.181,0.17
			s0.109,0.136,0.162,0.212l0.04-0.182c0.03-0.115,0.1-0.164,0.207-0.146L113.988,34.453z M113.146,35.326
			c-0.079-0.126-0.164-0.22-0.255-0.281c-0.092-0.061-0.19-0.1-0.293-0.117c-0.101-0.017-0.193-0.009-0.277,0.026
			c-0.082,0.034-0.155,0.097-0.215,0.189c-0.059,0.092-0.106,0.215-0.139,0.368c-0.033,0.153-0.05,0.34-0.051,0.559
			c-0.001,0.217,0.011,0.403,0.037,0.559c0.025,0.155,0.063,0.284,0.112,0.386c0.05,0.101,0.109,0.179,0.18,0.232
			c0.071,0.054,0.15,0.088,0.237,0.102c0.147,0.025,0.271,0.009,0.372-0.047c0.101-0.057,0.195-0.144,0.284-0.263L113.146,35.326z"
			/>
		<path class="st13" d="M117.73,35.079l-0.015,3.9l-0.516-0.086c-0.107-0.018-0.176-0.09-0.205-0.216l-0.054-0.282
			c-0.063,0.066-0.128,0.124-0.195,0.176c-0.067,0.052-0.139,0.094-0.214,0.127c-0.077,0.033-0.159,0.054-0.246,0.065
			c-0.088,0.011-0.184,0.007-0.287-0.01c-0.169-0.028-0.32-0.09-0.454-0.185c-0.131-0.095-0.242-0.216-0.33-0.362
			c-0.089-0.146-0.156-0.314-0.202-0.503s-0.069-0.393-0.068-0.61l0.01-2.477l0.838,0.14l-0.01,2.477
			c-0.001,0.217,0.038,0.392,0.118,0.526c0.079,0.133,0.198,0.213,0.356,0.239c0.117,0.02,0.228,0.006,0.331-0.041
			c0.104-0.047,0.202-0.118,0.296-0.213l0.011-2.803L117.73,35.079z"/>
		<path class="st13" d="M118.653,35.775c0.184-0.176,0.388-0.296,0.611-0.361c0.223-0.065,0.464-0.075,0.723-0.032
			c0.186,0.031,0.353,0.097,0.499,0.197c0.146,0.1,0.271,0.226,0.372,0.378s0.179,0.326,0.233,0.521
			c0.054,0.196,0.081,0.405,0.08,0.627l-0.01,2.451l-0.383-0.064c-0.079-0.013-0.139-0.037-0.18-0.072
			c-0.043-0.034-0.075-0.098-0.101-0.191l-0.066-0.261c-0.079,0.073-0.155,0.135-0.23,0.189c-0.073,0.053-0.15,0.096-0.229,0.127
			c-0.079,0.031-0.163,0.05-0.253,0.058c-0.09,0.007-0.191,0.002-0.302-0.016c-0.138-0.023-0.263-0.067-0.377-0.131
			c-0.114-0.065-0.21-0.148-0.292-0.251c-0.082-0.103-0.144-0.226-0.188-0.367c-0.044-0.141-0.066-0.298-0.065-0.472
			c0.001-0.144,0.03-0.283,0.089-0.416c0.059-0.134,0.161-0.248,0.303-0.341c0.143-0.093,0.334-0.159,0.572-0.196
			c0.238-0.037,0.537-0.031,0.895,0.019l0.001-0.2c0.001-0.245-0.04-0.431-0.123-0.56c-0.082-0.129-0.202-0.206-0.358-0.233
			c-0.116-0.019-0.212-0.018-0.288,0.003c-0.077,0.021-0.145,0.046-0.203,0.076c-0.057,0.029-0.111,0.057-0.162,0.083
			c-0.05,0.025-0.11,0.033-0.177,0.021c-0.059-0.01-0.107-0.036-0.146-0.079c-0.04-0.043-0.072-0.092-0.098-0.147L118.653,35.775z
			 M120.351,37.789c-0.204-0.021-0.374-0.028-0.51-0.019c-0.136,0.009-0.243,0.032-0.324,0.068c-0.08,0.038-0.137,0.085-0.17,0.144
			c-0.034,0.059-0.051,0.126-0.052,0.202c0,0.151,0.033,0.264,0.101,0.339c0.068,0.074,0.162,0.121,0.283,0.141
			c0.14,0.024,0.261,0.013,0.363-0.032c0.103-0.045,0.206-0.124,0.306-0.238L120.351,37.789z"/>
		<path class="st13" d="M122.987,34.218l-0.022,5.64l-0.837-0.14l0.022-5.64L122.987,34.218z"/>
		<path class="st13" d="M124.947,35.178c0,0.088-0.014,0.168-0.043,0.239c-0.028,0.071-0.066,0.131-0.115,0.181
			c-0.047,0.051-0.103,0.087-0.167,0.109s-0.133,0.027-0.206,0.015c-0.068-0.011-0.133-0.039-0.194-0.082
			c-0.062-0.043-0.115-0.098-0.162-0.164c-0.046-0.066-0.083-0.139-0.11-0.219c-0.027-0.08-0.04-0.164-0.04-0.252
			c0.001-0.089,0.014-0.169,0.043-0.241c0.027-0.072,0.064-0.133,0.111-0.184c0.047-0.05,0.101-0.086,0.162-0.109
			c0.063-0.022,0.128-0.028,0.196-0.016c0.073,0.012,0.142,0.04,0.204,0.083c0.064,0.043,0.12,0.098,0.167,0.164
			c0.047,0.067,0.085,0.141,0.114,0.222C124.934,35.005,124.947,35.09,124.947,35.178z M124.843,36.27l-0.015,3.9l-0.838-0.14
			l0.015-3.9L124.843,36.27z"/>
		<path class="st13" d="M125.791,36.969c0.184-0.176,0.388-0.296,0.611-0.36c0.223-0.066,0.464-0.076,0.723-0.033
			c0.186,0.031,0.353,0.097,0.499,0.197c0.146,0.101,0.271,0.226,0.372,0.378c0.101,0.152,0.179,0.326,0.233,0.521
			c0.054,0.196,0.08,0.405,0.079,0.627l-0.01,2.451l-0.382-0.064c-0.079-0.013-0.139-0.037-0.181-0.072
			c-0.042-0.034-0.075-0.098-0.101-0.191l-0.066-0.261c-0.079,0.073-0.155,0.135-0.23,0.189c-0.073,0.053-0.15,0.096-0.229,0.127
			c-0.079,0.031-0.163,0.05-0.253,0.058c-0.091,0.008-0.191,0.003-0.303-0.016c-0.137-0.023-0.262-0.067-0.376-0.131
			c-0.114-0.064-0.21-0.148-0.293-0.251c-0.081-0.103-0.144-0.225-0.188-0.366c-0.044-0.141-0.066-0.299-0.066-0.473
			c0.001-0.144,0.031-0.283,0.09-0.416c0.059-0.134,0.161-0.248,0.303-0.341c0.143-0.093,0.333-0.159,0.572-0.196
			c0.238-0.037,0.536-0.03,0.894,0.019l0.001-0.2c0.001-0.245-0.04-0.431-0.122-0.56c-0.083-0.129-0.202-0.206-0.358-0.232
			c-0.116-0.02-0.212-0.018-0.289,0.003c-0.076,0.021-0.144,0.046-0.203,0.076c-0.057,0.029-0.111,0.058-0.162,0.083
			c-0.05,0.025-0.109,0.033-0.176,0.022c-0.059-0.01-0.107-0.036-0.146-0.08c-0.04-0.043-0.072-0.092-0.098-0.147L125.791,36.969z
			 M127.489,38.983c-0.204-0.022-0.374-0.028-0.509-0.019s-0.243,0.032-0.324,0.068c-0.08,0.038-0.137,0.085-0.17,0.144
			c-0.034,0.06-0.051,0.126-0.052,0.202c0,0.151,0.033,0.264,0.101,0.338c0.068,0.074,0.162,0.122,0.282,0.141
			c0.14,0.024,0.261,0.013,0.364-0.032c0.102-0.045,0.205-0.124,0.306-0.238L127.489,38.983z"/>
	</g>
</g>
<g>
	<g>
		<path class="st13" d="M265.368,63.07l-5.578-0.939c-0.214-0.036-0.382-0.222-0.374-0.415c0.007-0.193,0.186-0.321,0.4-0.285
			l5.578,0.939c0.214,0.036,0.382,0.222,0.374,0.415C265.761,62.979,265.582,63.106,265.368,63.07z"/>
	</g>
	<g>
		<path class="st13" d="M265.304,64.797l-5.578-0.939c-0.214-0.036-0.382-0.222-0.374-0.415c0.007-0.193,0.186-0.321,0.4-0.285
			l5.578,0.939c0.214,0.036,0.382,0.222,0.374,0.415S265.518,64.833,265.304,64.797z"/>
	</g>
	<g>
		<path class="st13" d="M265.239,66.523l-5.578-0.939c-0.214-0.036-0.382-0.222-0.374-0.415c0.007-0.193,0.186-0.321,0.4-0.285
			l5.578,0.939c0.214,0.036,0.382,0.222,0.374,0.415C265.632,66.431,265.453,66.559,265.239,66.523z"/>
	</g>
</g>
<g>
	<g>
		<g>
			<g>
				<path class="st13" d="M210.034,57.652l-0.408-0.596l0,0l-0.419-0.612l-0.827-1.208l-0.408,0.366l0,0l-0.419,0.375l-0.827,0.741
					l1.198,1.75l0,0l0.048,0.07c0.225,0.328,0.592,0.432,0.817,0.231l0.085-0.076l0,0L210.034,57.652z"/>
			</g>
		</g>
		<g>
			<g>
				<path class="st13" d="M209.783,52.13l-0.839-1.225c0,0,0,0,0-0.001l-0.409-0.597l-1.2,1.075v0l-0.048,0.043
					c-0.225,0.201-0.225,0.635,0,0.964l0.085,0.125v0l1.162,1.698l0.409-0.366l0,0l0.839-0.751
					C210.008,52.892,210.008,52.459,209.783,52.13z"/>
			</g>
			<g>
				<path class="st13" d="M212.175,55.703l-0.408-0.596c0-0.001-0.001-0.001-0.001-0.001l-0.839-1.225
					c-0.225-0.329-0.593-0.433-0.818-0.231l-0.839,0.751c0,0,0,0,0,0l-0.409,0.366l1.2,1.753l0,0l0.048,0.07
					c0.225,0.329,0.593,0.433,0.818,0.231l0.085-0.077l0,0L212.175,55.703z"/>
			</g>
			<g>
				<path class="st13" d="M206.413,52.97c0-0.375,0.184-0.413,0.409-0.084l0.839,1.225c0.225,0.329,0.225,0.762,0,0.964
					l-0.839,0.751c-0.225,0.202-0.409,0.06-0.409-0.315L206.413,52.97z"/>
			</g>
		</g>
	</g>
	<g>
		<path class="st13" d="M216.613,56.225l-0.002,0.59c-0.001,0.056-0.015,0.1-0.045,0.135c-0.029,0.034-0.069,0.047-0.122,0.038
			L216.1,56.93l-0.005,1.305l-0.728-0.122l0.005-1.305l-1.818-0.304c-0.053-0.009-0.101-0.037-0.144-0.085
			c-0.043-0.048-0.069-0.105-0.08-0.172l-0.086-0.537l2.078-3.1l0.794,0.133l-0.013,3.396L216.613,56.225z M215.375,56.018
			l0.006-1.634c0-0.085,0.003-0.176,0.008-0.272c0.005-0.097,0.013-0.197,0.024-0.301l-1.283,1.999L215.375,56.018z"/>
		<path class="st13" d="M220.186,55.018l-0.02,5.159l-0.838-0.14l0.006-1.72c-0.12,0.136-0.258,0.238-0.41,0.308
			c-0.152,0.069-0.33,0.086-0.534,0.052c-0.168-0.028-0.322-0.098-0.46-0.209c-0.14-0.112-0.26-0.262-0.362-0.449
			c-0.101-0.188-0.181-0.409-0.236-0.665c-0.056-0.257-0.083-0.544-0.082-0.862c0.001-0.29,0.034-0.554,0.098-0.794
			c0.065-0.239,0.156-0.44,0.274-0.601c0.118-0.162,0.261-0.281,0.426-0.356c0.167-0.076,0.351-0.096,0.553-0.062
			c0.095,0.016,0.182,0.041,0.261,0.075c0.079,0.035,0.151,0.077,0.217,0.125c0.065,0.049,0.126,0.105,0.181,0.17
			c0.056,0.065,0.109,0.136,0.162,0.212l0.04-0.182c0.03-0.115,0.1-0.164,0.207-0.146L220.186,55.018z M219.344,55.891
			c-0.079-0.126-0.164-0.22-0.255-0.281c-0.092-0.061-0.19-0.1-0.293-0.117c-0.101-0.017-0.193-0.009-0.277,0.026
			c-0.082,0.034-0.155,0.097-0.215,0.189c-0.059,0.092-0.106,0.215-0.139,0.368c-0.033,0.153-0.05,0.34-0.051,0.559
			c-0.001,0.217,0.011,0.403,0.037,0.559c0.025,0.155,0.063,0.284,0.112,0.386c0.05,0.101,0.109,0.179,0.18,0.232
			c0.071,0.054,0.15,0.088,0.237,0.102c0.147,0.025,0.271,0.009,0.372-0.047c0.101-0.057,0.195-0.144,0.284-0.263L219.344,55.891z"
			/>
		<path class="st13" d="M223.928,55.644l-0.015,3.9l-0.516-0.086c-0.107-0.018-0.176-0.09-0.205-0.216l-0.054-0.282
			c-0.063,0.066-0.128,0.124-0.195,0.176c-0.067,0.052-0.139,0.094-0.214,0.127c-0.077,0.033-0.159,0.054-0.246,0.065
			c-0.088,0.011-0.184,0.007-0.287-0.01c-0.169-0.028-0.32-0.09-0.454-0.185c-0.131-0.095-0.242-0.216-0.33-0.362
			c-0.089-0.146-0.156-0.314-0.202-0.503c-0.046-0.189-0.069-0.393-0.068-0.61l0.01-2.477l0.838,0.14l-0.01,2.477
			c-0.001,0.217,0.038,0.392,0.118,0.526c0.079,0.133,0.198,0.213,0.356,0.239c0.117,0.02,0.228,0.006,0.331-0.041
			c0.104-0.047,0.202-0.118,0.296-0.213l0.011-2.803L223.928,55.644z"/>
		<path class="st13" d="M224.851,56.339c0.184-0.176,0.388-0.296,0.611-0.361c0.223-0.065,0.464-0.075,0.723-0.032
			c0.186,0.031,0.353,0.097,0.499,0.197c0.146,0.1,0.271,0.226,0.372,0.378c0.101,0.152,0.179,0.326,0.233,0.521
			c0.054,0.196,0.081,0.405,0.08,0.627l-0.01,2.451l-0.383-0.064c-0.079-0.013-0.139-0.037-0.18-0.072
			c-0.043-0.034-0.075-0.098-0.101-0.191l-0.066-0.261c-0.079,0.073-0.155,0.135-0.23,0.189c-0.073,0.053-0.15,0.096-0.229,0.127
			s-0.163,0.05-0.253,0.058c-0.09,0.007-0.191,0.002-0.302-0.016c-0.138-0.023-0.263-0.067-0.377-0.131
			c-0.114-0.065-0.21-0.148-0.292-0.251c-0.082-0.103-0.144-0.226-0.188-0.367c-0.044-0.141-0.066-0.298-0.065-0.472
			c0.001-0.144,0.03-0.283,0.089-0.416c0.059-0.134,0.161-0.248,0.303-0.341c0.143-0.093,0.334-0.159,0.572-0.196
			c0.238-0.037,0.537-0.031,0.895,0.019l0.001-0.2c0.001-0.245-0.04-0.431-0.123-0.56c-0.082-0.129-0.202-0.206-0.358-0.233
			c-0.116-0.019-0.212-0.018-0.288,0.003c-0.077,0.021-0.145,0.046-0.203,0.076c-0.057,0.029-0.111,0.057-0.162,0.083
			c-0.05,0.025-0.11,0.033-0.177,0.021c-0.059-0.01-0.107-0.036-0.146-0.079c-0.04-0.043-0.072-0.092-0.098-0.147L224.851,56.339z
			 M226.55,58.353c-0.204-0.021-0.374-0.028-0.51-0.019c-0.136,0.009-0.243,0.032-0.324,0.068c-0.08,0.038-0.137,0.085-0.17,0.144
			c-0.034,0.059-0.051,0.126-0.052,0.202c0,0.151,0.033,0.264,0.101,0.339c0.068,0.074,0.162,0.121,0.283,0.141
			c0.139,0.024,0.261,0.013,0.363-0.032c0.103-0.045,0.206-0.124,0.306-0.238L226.55,58.353z"/>
		<path class="st13" d="M229.185,54.782l-0.022,5.64l-0.837-0.14l0.022-5.64L229.185,54.782z"/>
		<path class="st13" d="M231.145,55.743c0,0.088-0.014,0.168-0.043,0.239c-0.028,0.071-0.066,0.131-0.115,0.181
			c-0.047,0.051-0.103,0.087-0.167,0.109c-0.064,0.022-0.133,0.027-0.206,0.015c-0.068-0.011-0.133-0.039-0.194-0.082
			c-0.062-0.043-0.115-0.098-0.162-0.164c-0.046-0.066-0.083-0.139-0.11-0.219c-0.027-0.08-0.04-0.164-0.04-0.252
			c0.001-0.089,0.014-0.169,0.043-0.241c0.027-0.072,0.064-0.133,0.111-0.184c0.047-0.05,0.101-0.086,0.162-0.109
			c0.062-0.022,0.128-0.028,0.196-0.016c0.073,0.012,0.142,0.04,0.204,0.083c0.064,0.043,0.12,0.098,0.167,0.164
			c0.047,0.067,0.085,0.141,0.114,0.222C231.132,55.569,231.146,55.655,231.145,55.743z M231.041,56.834l-0.015,3.9l-0.838-0.14
			l0.015-3.9L231.041,56.834z"/>
		<path class="st13" d="M231.989,57.533c0.184-0.176,0.388-0.296,0.611-0.36c0.223-0.066,0.464-0.076,0.723-0.033
			c0.186,0.031,0.353,0.097,0.499,0.197c0.146,0.101,0.271,0.226,0.372,0.378c0.101,0.152,0.179,0.326,0.233,0.521
			c0.054,0.196,0.08,0.405,0.079,0.627l-0.01,2.451l-0.382-0.064c-0.079-0.013-0.139-0.037-0.181-0.072
			c-0.042-0.034-0.075-0.098-0.101-0.191l-0.066-0.261c-0.079,0.073-0.155,0.135-0.23,0.189c-0.073,0.053-0.15,0.096-0.229,0.127
			c-0.079,0.031-0.163,0.05-0.253,0.058c-0.091,0.008-0.191,0.003-0.303-0.016c-0.137-0.023-0.262-0.067-0.376-0.131
			c-0.114-0.064-0.21-0.148-0.293-0.251c-0.081-0.103-0.144-0.225-0.188-0.366c-0.044-0.141-0.066-0.299-0.066-0.473
			c0.001-0.144,0.031-0.283,0.09-0.416c0.059-0.134,0.161-0.248,0.303-0.341c0.143-0.093,0.333-0.159,0.572-0.196
			c0.238-0.037,0.536-0.03,0.894,0.019l0.001-0.2c0.001-0.245-0.04-0.431-0.122-0.56c-0.083-0.129-0.202-0.206-0.358-0.232
			c-0.116-0.02-0.212-0.018-0.289,0.003c-0.076,0.021-0.144,0.046-0.203,0.076c-0.057,0.029-0.111,0.058-0.162,0.083
			c-0.05,0.025-0.109,0.033-0.176,0.022c-0.059-0.01-0.107-0.036-0.146-0.08c-0.04-0.043-0.072-0.092-0.098-0.147L231.989,57.533z
			 M233.687,59.548c-0.204-0.022-0.374-0.028-0.509-0.019c-0.136,0.009-0.243,0.032-0.324,0.068c-0.08,0.038-0.137,0.085-0.17,0.144
			c-0.034,0.06-0.051,0.126-0.052,0.202c0,0.151,0.033,0.264,0.101,0.338c0.068,0.074,0.162,0.122,0.282,0.141
			c0.14,0.024,0.261,0.013,0.364-0.032c0.102-0.045,0.205-0.124,0.306-0.238L233.687,59.548z"/>
	</g>
</g>
<g>
	<polygon class="st1" points="7.708,153.022 2.884,154.378 0,156.09 20.232,169.194 40.656,154.751 36.889,153.159 	"/>
	<g>
		<g>
			<polygon class="st36" points="20.232,166.683 2.884,154.378 20.232,123.771 			"/>
		</g>
		<g>
			<polygon class="st37" points="20.232,166.683 20.232,123.771 37.579,154.378 			"/>
		</g>
		<g>
			<polygon class="st38" points="20.232,154.751 20.232,123.771 7.708,145.867 			"/>
		</g>
		<g>
			<polygon class="st39" points="20.232,123.771 20.232,154.751 32.756,145.867 			"/>
		</g>
		<g>
			<polygon class="st40" points="20.232,142.819 20.232,123.771 12.531,137.357 			"/>
		</g>
		<g>
			<polygon class="st41" points="20.232,123.771 20.232,142.819 27.932,137.357 			"/>
		</g>
	</g>
</g>
<g>
	
		<ellipse transform="matrix(0.9802 -0.1982 0.1982 0.9802 -35.5188 17.4984)" class="st1" cx="69.658" cy="186.192" rx="24.714" ry="11.687"/>
	<path class="st26" d="M95.28,87.268c0,0-0.407,9.963-5.286,10.979c-5.132,1.069-5.398-1.286-5.398-1.286s1.379-14.936,2.188-14.72
		S95.28,87.268,95.28,87.268z"/>
	<path class="st26" d="M91.575,110.31l8.371,0.28c0,0,4.367-0.136,5.406,1.656c1.039,1.792,4.476,2.708,0.769,2.803
		c-3.707,0.096-5.311-1.198-5.473-0.591s2.441,3.032,0.365,2.696s-7.86-3.825-7.86-3.825L91.575,110.31z"/>
	<path class="st26" d="M116.756,115.107c0.333-1.828,1.048-4.832,1.048-4.832l-3.754-2.413l-1.207,1.341l0.164,2.817
		c-0.15,0.021-0.242,0.036-0.242,0.036s-0.243-1.797-1.268-1.204c-1.024,0.593-2.344,5.006-2.344,5.006l-11.523,6.676
		c0,0-3.496-13.707-6.678-18.02c-3.183-4.312-1.405-1.781-2.549-2.628c-6.391-4.734-3.155,10.493-3.155,10.493
		s8,19.021,10.579,18.553c2.579-0.468,15.78-11.822,15.78-11.822s1.623,1.377,4.187-1.628c0.335-0.392,0.557-0.774,0.71-1.144
		l0.092,0.103c-0.015-0.061-0.009-0.194,0.009-0.37C116.713,115.737,116.759,115.414,116.756,115.107z"/>
	<polygon class="st26" points="87.96,97.231 84.606,100.891 85.419,102.314 75.659,101.704 81.962,95.604 	"/>
	<path class="st42" d="M95.28,83.913l0.712,2.033l-0.712,2.237l-1.118-1.322l-1.017,1.322L92.23,86.76l-1.118,0.813l-1.017-0.915
		l-1.118,2.948c0,0-0.813-2.338-1.423-0.813c-0.61,1.525-1.322,1.22-0.61,2.643c0.712,1.423,0.915,2.338,0.915,2.338
		s-1.83,4.575-5.591,3.965c-3.761-0.61-4.981-6.811-3.558-11.284C80.133,81.982,85.114,75.374,95.28,83.913z"/>
	<polygon class="st43" points="85.368,100.942 80.336,100.027 79.268,97.587 74.389,98.959 70.345,101.427 70.271,112.531 
		76.676,112.379 86.893,103.077 	"/>
	<g>
		<path class="st44" d="M81.193,174.542c-0.401-0.347-0.561-0.773-0.513-1.31c0.395-4.428,0.019-8.868,0.207-13.3
			c0.101-2.372,0.955-4.577,1.415-6.868c0.154-0.77,0.092-1.328-0.535-1.849c-3.604-2.997-7.199-6.004-10.774-9.035
			c-0.681-0.577-0.779-0.069-0.988,0.389c-2.27,4.969-4.56,9.928-6.806,14.907c-0.644,1.428-1.273,2.863-2.247,4.094
			c-1.868,2.36-1.998,5.241-2.504,8.017c-0.716,3.934-1.154,7.883-0.742,11.886c0.081,0.784-0.074,1.405-1.003,1.517
			c-0.586,0.983-1.642,0.984-2.578,1.2c-1.004,0.232-2.022,0.263-3.027-0.044c-0.77-4.414-0.021-8.847-0.18-13.262
			c-0.177-4.926,1.34-9.387,3.223-13.782c1.718-4.009,2.452-8.236,3.074-12.512c0.42-2.893,0.634-5.793,0.748-8.708
			c0.127-3.249,1.463-6.116,2.88-8.954c0.254-0.509,0.503-1.021,0.754-1.531c1.684,0.062,3.284,0.656,4.954,0.797
			c4.729,0.4,8.76,2.513,12.607,5.089c0.239,0.16,0.483,0.315,0.549,0.626c-0.591,1.387-0.077,2.579,0.733,3.661
			c2.588,3.454,5.116,6.959,7.852,10.293c1.843,2.246,2.336,4.373,1.382,7.244c-2.142,6.452-2.587,13.191-2.57,19.959
			c0.001,0.551,0.18,1.187-0.518,1.508C85.23,175.921,82.499,175.905,81.193,174.542z"/>
		<path class="st45" d="M58.706,188.396c1.342,1.772,3.089,3.011,5.093,3.935c0.506,0.233,1.119,0.573,0.978,1.256
			c-0.125,0.605-0.774,0.63-1.288,0.771c-1.748,0.479-3.513,0.793-5.337,0.719c-0.902-0.036-1.665-0.298-2.301-0.98
			c-1.039-1.114-2.243-2.037-3.53-2.85c-0.199-0.126-0.426-0.395-0.638-0.181c-0.136,0.138-0.109,0.453-0.123,0.691
			c-0.007,0.116,0.098,0.242,0.083,0.355c-0.077,0.576,0.832,1.448-0.369,1.675c-1.023,0.193-1.956-0.669-1.97-1.659
			c-0.017-1.273-0.002-2.547-0.004-3.821c-0.003-1.472,1.198-2.38,1.689-3.62c0.563,0.344,0.452,1.022,0.743,1.506
			c0.849,1.411,1.982,2.516,3.462,3.231C56.987,190.29,57.701,190.062,58.706,188.396z"/>
		<path class="st45" d="M87.666,177.767c1.248,1.566,2.941,2.269,4.86,2.621c0.639,0.117,1.606,0.226,1.635,1.024
			c0.03,0.81-0.916,0.918-1.559,1.156c-2.406,0.892-4.696,0.99-6.862-0.732c-0.687-0.546-1.611-0.801-2.44-1.159
			c-0.808-0.35-0.94,0.095-0.842,0.767c0.006,0.04,0.033,0.083,0.025,0.12c-0.113,0.544,1.036,1.379-0.292,1.624
			c-1.768,0.326-2.169,0.004-2.248-1.594c-0.064-1.29-0.726-2.538-0.249-3.869c0.222-0.62,0.398-1.256,0.949-1.686
			c0.259,0.047,0.436,0.22,0.579,0.417c1.511,2.081,3.484,2.296,5.726,1.422C87.182,177.786,87.422,177.773,87.666,177.767z"/>
		<path class="st26" d="M58.706,188.396c0.248,1.131-0.232,1.763-1.48,1.951c-2.402,0.363-6.332-3.204-6.237-5.66
			c0.036-0.18,0.072-0.36,0.108-0.541c0.195-0.161,0.221-0.533,0.634-0.416c1.765,0.504,3.356-0.212,4.971-0.742
			C56.429,185.14,57.373,186.84,58.706,188.396z"/>
		<path class="st26" d="M87.666,177.767c-2.338,2.036-5.973,1.141-7.022-1.728c0.183-0.499,0.365-0.997,0.548-1.496
			c1.794,0.681,3.592,0.74,5.394,0.031C86.8,175.688,86.971,176.816,87.666,177.767z"/>
	</g>
	<path class="st42" d="M63.666,121.876c0,0-1.162,1.877-2.033,3.218c0.201,1.207,1.743,5.162,6.569,6.904
		c0,0,6.837,3.195,10.993,1.05l0.871-2.324L63.666,121.876z"/>
	<path class="st43" d="M85.91,100.14c0,0,2.246-0.845,4.89,3.323c0,0-4.564,1.961-5.496,9.797l1.844,2.931
		c0,0,1.083,3.303-2.135,4.778c-4.704,2.156-4.524,9.251-4.524,9.251s-1.073,2.905-10.457-0.715
		c-8.711-3.36-5.899-8.401-5.899-8.401l6.212-19.677L85.91,100.14z"/>
	<path class="st42" d="M90.768,103.974c0,0-2.145,0.715-3.486,3.218c-1.341,2.503-1.966,5.184-0.715,8.223
		c0,0-2.234-1.698-2.234-5.363c0-3.708,3.664-7.061,5.81-7.418C90.142,102.633,91.661,102.812,90.768,103.974z"/>
	<path class="st42" d="M79.726,86.862c0,0-3.66,0.102-4.575,1.932c-0.915,1.83-2.745,5.185-1.22,6.71s1.525,4.066,0.712,5.286
		c-0.813,1.22-1.932,3.456-0.915,4.371c1.017,0.915-0.61,1.932,1.017,3.965c0,0,0.813-2.643,2.643-2.135s-0.508-2.338,0.407-3.863
		c0.915-1.525,2.135-0.508,1.932-2.338s-1.932-1.83-1.423-3.456c0.508-1.627-1.22-2.44,1.525-3.355
		C82.572,93.063,84.402,86.252,79.726,86.862z"/>
</g>
</svg>
