<?xml version="1.0" encoding="utf-8"?>
<!-- Generator: Adobe Illustrator 24.3.0, SVG Export Plug-In . SVG Version: 6.00 Build 0)  -->
<svg version="1.1" id="レイヤー_4" xmlns="http://www.w3.org/2000/svg" xmlns:xlink="http://www.w3.org/1999/xlink" x="0px"
	 y="0px" viewBox="0 0 690 490" style="enable-background:new 0 0 690 490;" xml:space="preserve">
<style type="text/css">
	.st0{fill:#9B9B9B;}
	.st1{fill:#84CEA7;}
	.st2{fill:#40B284;}
	.st3{fill:#E3E6E8;}
	.st4{fill:#4FC98C;}
	.st5{fill:#77E5B4;}
	.st6{fill:#48D9A5;}
	.st7{fill:#FFFFFF;}
</style>
<g>
	<path class="st0" d="M296.7,247.7c-0.3,0.9-0.9,1.7-1.5,2.3c-0.7,0.7-1.5,1.2-2.4,1.6c-1,0.4-2.1,0.6-3.2,0.6H285v8.8h-4.6v-23.4
		h9.1c1.1,0,2.2,0.2,3.2,0.6c0.9,0.4,1.7,0.9,2.4,1.6c0.7,0.7,1.2,1.5,1.5,2.3C297.4,243.9,297.4,245.9,296.7,247.7L296.7,247.7z
		 M291.8,242.5c-0.7-0.6-1.6-0.9-2.5-0.9H285v6.4h4.3c0.9,0.1,1.8-0.3,2.5-0.9c0.6-0.6,0.9-1.5,0.9-2.3
		C292.7,244,292.4,243.2,291.8,242.5z"/>
	<path class="st0" d="M320,251.8c0,0.8-0.1,1.7-0.2,2.5c-0.1,0.8-0.4,1.6-0.7,2.3c-0.8,1.8-2.3,3.2-4.2,3.8
		c-1.1,0.4-2.3,0.6-3.4,0.5H303v-23.4h8.4c1.2,0,2.3,0.2,3.4,0.5c1,0.3,2,0.9,2.8,1.7c0.6,0.6,1.1,1.3,1.5,2.1
		c0.3,0.7,0.6,1.5,0.7,2.3c0.1,0.8,0.2,1.6,0.2,2.5L320,251.8L320,251.8z M315.4,246.9c0-0.6-0.1-1.1-0.1-1.7c0-0.4-0.1-0.8-0.3-1.2
		c-0.1-0.3-0.3-0.6-0.5-0.9c-0.4-0.5-0.9-0.9-1.5-1.1c-0.6-0.3-1.3-0.4-2-0.4h-3.5v15.2h3.5c0.7,0,1.4-0.1,2-0.4
		c0.6-0.2,1-0.6,1.4-1.1c0.5-0.6,0.7-1.4,0.8-2.2c0.1-1.4,0.2-2.7,0.2-4.1C315.4,248.3,315.4,247.5,315.4,246.9z"/>
	<path class="st0" d="M342,257c-0.5,0.9-1.1,1.7-1.9,2.3c-0.8,0.6-1.6,1.1-2.6,1.4c-1,0.3-2,0.5-3,0.5c-1.2,0-2.4-0.2-3.5-0.7
		c-1.1-0.4-2-1.1-2.8-1.9c-0.6-0.5-1-1.2-1.4-1.9c-0.3-0.7-0.5-1.4-0.7-2.1c-0.1-0.8-0.2-1.6-0.2-2.5c0-0.9,0-1.8,0-2.8s0-2,0-2.8
		c0-0.8,0.1-1.7,0.2-2.5c0.1-0.7,0.3-1.5,0.7-2.1c0.3-0.7,0.8-1.3,1.4-1.9c0.8-0.8,1.8-1.5,2.8-2c1.1-0.5,2.3-0.7,3.5-0.6
		c1,0,2.1,0.1,3.1,0.4c0.9,0.3,1.8,0.8,2.6,1.4c0.8,0.6,1.4,1.4,1.9,2.3c0.5,1,0.9,2.1,1.1,3.2h-4.6c-0.2-0.9-0.7-1.7-1.3-2.4
		c-0.7-0.7-1.7-1-2.7-0.9c-0.6,0-1.2,0.1-1.7,0.3c-0.5,0.2-0.9,0.5-1.2,0.9c-0.2,0.2-0.4,0.5-0.6,0.8c-0.2,0.4-0.3,0.8-0.4,1.2
		c-0.1,0.6-0.2,1.2-0.2,1.8c0,0.7,0,1.7,0,2.8s0,2,0,2.8c0,0.6,0.1,1.2,0.2,1.8c0.1,0.4,0.2,0.8,0.4,1.2c0.2,0.3,0.3,0.6,0.6,0.8
		c0.3,0.4,0.8,0.7,1.2,0.9c0.5,0.2,1.1,0.3,1.7,0.3c1,0.1,1.9-0.3,2.7-1c0.6-0.7,1.1-1.5,1.3-2.4h4.6C342.9,254.9,342.6,256,342,257
		z"/>
	<path class="st0" d="M362.3,261l-1.4-4.1h-8.3l-1.4,4.1h-4.8l8.5-23.4h3.6L367,261H362.3z M356.8,244.5l-3,8.5h5.8L356.8,244.5z"/>
</g>
<path class="st0" d="M280.7,280.4v-1.3v-0.9c0-1.1,0-2.1-0.1-3.2h3.7c-0.1,0.6-0.1,1.3-0.1,1.9c0,1.7,0,1.7,0,3.5h1.8
	c1.2,0,2.5,0,3.7-0.2v3.5c-1.2-0.1-2.4-0.2-3.7-0.1h-1.9c0,1.6,0,3.1-0.2,4.7c-0.2,3.2-1.7,6.2-4.1,8.2c-1.6,1.4-3.5,2.4-5.6,3
	c-0.5-1.1-1.2-2.2-2.1-3c2-0.5,3.9-1.4,5.5-2.7c1.9-1.7,2.8-3.6,3-6.9c0.1-0.7,0.1-1.4,0.1-3.3h-7.4v4.3c0,0.8,0,1.6,0.1,2.4h-3.7
	c0.1-0.8,0.1-1.6,0.1-2.5v-4.3h-1.7c-1.2,0-2.4,0-3.7,0.1v-3.5c1.2,0.2,2.5,0.2,3.7,0.2h1.7v-2.9c0-0.8,0-1.7-0.1-2.5h3.7
	c-0.1,0.8-0.2,1.6-0.1,2.5v2.9L280.7,280.4z"/>
<path class="st0" d="M318.1,277c-0.4,0.3-0.7,0.6-1,1c-2.1,2.2-4.3,4.1-6.7,5.9v12.2c0,1.1,0,2.1,0.1,3.2h-4c0.2-1,0.2-2.1,0.2-3.1
	v-10c-3.2,1.9-6.6,3.5-10.2,4.6c-0.4-1.2-1.1-2.3-1.9-3.3c5.5-1.4,10.6-4,15-7.4c2.1-1.5,3.8-3.3,5.3-5.3L318.1,277z"/>
<path class="st0" d="M348.3,279.7c-0.3,0.5-0.6,1.1-0.7,1.7c-1.1,4-3.1,7.8-5.9,11c-2.8,3.1-6.3,5.6-10.2,7.3
	c-0.6-1.2-1.4-2.2-2.4-3c2.2-0.8,4.3-2,6.3-3.4c4-3,7-7.2,8.3-12l-8.6,0.1c-1.8,2.8-4,5.3-6.7,7.3c-0.7-1-1.7-1.9-2.8-2.5
	c3.1-2.1,5.7-4.9,7.4-8.3c0.7-1.1,1.2-2.4,1.5-3.8l3.9,0.8c-0.2,0.3-0.3,0.6-0.5,0.9c-0.1,0.3-0.3,0.5-0.4,0.8l-0.4,0.7
	c-0.1,0.3-0.3,0.6-0.5,0.9c0.4,0,0.8-0.1,1.4-0.1l6.3-0.1c0.7,0.1,1.4,0,2.1-0.3L348.3,279.7z"/>
<path class="st0" d="M364.1,275.8c-0.2,2.1-0.3,4.3-0.3,6.4c-0.2,5.6-0.8,8.8-2.3,11.7c-1,2-2.3,3.8-3.9,5.3c-0.8-1.1-1.7-2-2.9-2.8
	c1.2-0.9,2.2-2,2.9-3.3c2-3.3,2.7-7,2.7-15c0-0.9,0-1.7-0.1-2.6L364.1,275.8z M371.7,275.5c-0.2,0.9-0.2,1.8-0.2,2.7l-0.1,16.3
	c1.7-0.7,3.2-1.8,4.4-3.3c1.3-1.5,2.2-3.3,2.8-5.2c0.7,1,1.7,1.9,2.7,2.7c-1,2.5-2.5,4.8-4.5,6.6c-1.8,1.5-3.9,2.7-6.1,3.4
	c-0.4,0.1-0.8,0.3-1.2,0.5l-1.8-1.9c0.2-1,0.3-2,0.3-3l0.1-16.1v-0.9c0-0.6,0-1.3-0.1-1.9L371.7,275.5z"/>
<path class="st1" d="M60.8,137c-0.1,1.2-0.3,2.3-0.8,3.4c-0.4,1-1.1,1.8-1.9,2.4c-0.4-0.5-0.8-1-1.3-1.5c1.4-1,2.3-2.6,2.3-4.4
	l-1.2,0.1c0.1-0.4,0.1-0.8,0.1-1.2v-1.8c0-0.4,0-0.8-0.1-1.2c0.5,0,1.1,0.1,1.6,0.1h3.7c0.7,0,1,0,1.5-0.1c-0.1,0.4-0.1,0.8-0.1,1.1
	v1.8c0,0.4,0,0.8,0,1.2c-0.4,0-0.8,0-1.2,0v2.1c0.7-0.3,1.2-0.5,2-1l0.1,1.6c-0.9,0.5-1.8,1-2.7,1.4c-0.5,0.2-0.7,0.3-1.4,0.6
	c-0.2,0.1-0.4,0.1-0.6,0.2l-0.4-1.9c0.4-0.1,0.8-0.2,1.2-0.3V137H60.8z M60.4,127.2c0-0.4,0-0.8-0.1-1.1h2c-0.1,0.4-0.1,0.7-0.1,1.1
	v0.3h1.2c0.4,0,0.9,0,1.3-0.1v1.7c-0.1,0-0.1,0-0.2,0h-0.3c-0.1,0-0.2,0-0.2,0c-0.2,0.6-0.4,1.1-0.6,1.6h0.1c0.4,0,0.9,0,1.3-0.1
	v1.7c-0.4,0-0.7,0-1.3,0h-4.7c-0.6,0-1.1,0-1.7,0.1v-1.8c0.6,0.1,1.2,0.1,1.8,0.1h0.1c-0.1-0.6-0.3-1.1-0.5-1.6c-0.3,0-0.7,0-1,0.1
	v-1.8c0.6,0.1,1.2,0.1,1.7,0.1h1.1L60.4,127.2z M59.8,135.5h2.9v-1.1h-2.9L59.8,135.5z M61.9,130.6c0.2-0.5,0.4-1.1,0.5-1.6h-2.1
	c0.2,0.5,0.3,0.9,0.5,1.6H61.9z M68.6,137c0,1.2-0.3,2.3-0.9,3.4c-0.6,1.1-1.5,1.9-2.7,2.4c-0.4-0.5-0.8-1-1.3-1.4
	c0.8-0.3,1.5-0.9,2.1-1.5c0.7-0.8,1-1.9,1-2.9h-1.1c0.1-0.4,0.1-0.8,0.1-1.2V134c0-0.4,0-0.8-0.1-1.1c0.5,0,0.8,0.1,1.5,0.1h4
	c0.8,0,1.1,0,1.6-0.1c-0.1,0.4-0.1,0.8-0.1,1.2v1.8c0,0.4,0,0.8,0.1,1.2c-0.4,0-0.9-0.1-1.5-0.1H71v3.3c0,0.3,0.1,0.4,0.4,0.4
	s0.6-0.1,0.7-0.3c0.1-0.7,0.2-1.3,0.2-2c0.5,0.2,1,0.4,1.6,0.5c-0.1,1.8-0.2,2.4-0.6,2.9s-1,0.6-2.1,0.6c-1.4,0-1.9-0.3-1.9-1.3V137
	H68.6z M68.2,127.2c0-0.4,0-0.8-0.1-1.1h2c-0.1,0.4-0.1,0.7-0.1,1.1v0.3h1.3c0.6,0,1.2,0,1.7-0.1v1.8c-0.3-0.1-0.7-0.1-1-0.1
	c-0.2,0.6-0.4,1.1-0.6,1.6h0.3c0.6,0,1.2,0,1.8-0.1v1.8c-0.6-0.1-1.1-0.1-1.7-0.1h-5c-0.6,0-1,0-1.3,0v-1.7c0.4,0.1,0.9,0.1,1.3,0.1
	h0.1c-0.1-0.5-0.3-1.1-0.5-1.6c-0.4,0-0.5,0-0.9,0.1v-1.7c0.4,0.1,0.9,0.1,1.3,0.1h1.4V127.2z M67.5,134.4v1.1h3.2v-1.1H67.5z
	 M69.7,130.6c0.2-0.5,0.4-1.1,0.6-1.6H68c0.2,0.5,0.3,1.1,0.4,1.6L69.7,130.6z"/>
<path class="st1" d="M79.8,132.1c-0.9,0.6-1.9,1.1-2.9,1.5c-0.2-0.7-0.6-1.3-1-1.8c1.6-0.6,3.2-1.5,4.6-2.6c1.1-0.8,2.1-1.9,2.8-3
	h2.1c0.8,1.2,1.8,2.2,3,3c1.4,1.1,2.9,1.9,4.6,2.5c-0.4,0.6-0.7,1.3-1,2c-1-0.4-2-1-2.9-1.6v1.3c-0.5-0.1-1.1-0.1-1.6-0.1h-6.1
	c-0.5,0-1,0-1.5,0.1V132.1z M78.3,142.6c0.1-0.6,0.1-1.3,0.1-1.9v-4.2c0-0.6,0-1.2-0.1-1.8c0.5,0.1,1,0.1,1.5,0.1h9
	c0.5,0,1,0,1.6-0.1c-0.1,0.6-0.1,1.2-0.1,1.8v4.2c0,0.6,0,1.3,0.1,1.9h-2.1v-0.9h-7.9v0.9H78.3z M80.4,139.9h7.9v-3.4h-7.9V139.9z
	 M87.4,131.4h0.6c-1.4-1-2.7-2.2-3.7-3.5c-0.9,1.4-2.1,2.6-3.5,3.5C80.8,131.4,87.5,131.4,87.4,131.4z"/>
<path class="st1" d="M95.3,129.1c0.5,0.1,1,0.1,1.5,0.1h3.1c0.5,0,1,0,1.5-0.1v1.9c-0.5-0.1-0.9-0.1-1.4-0.1h-3.2
	c-0.5,0-1,0-1.5,0.1V129.1z M103.7,130.4c0.1,3-0.1,6.1-0.5,9.1c-0.2,1.1-0.5,2.2-1,3.3c-0.4-0.4-0.8-0.8-1.3-1.2c0,0.3,0,0.5,0,0.8
	h-1.6v-0.6h-1.8v0.9h-1.8c0-0.5,0.1-1.2,0.1-1.8v-2.7c0-0.5,0-0.9-0.1-1.4c0.4,0.1,0.8,0.1,1.2,0.1h2.9c0.8,0,0.8,0,1.1,0
	c0,0.4,0,0.9,0,1.3v2.9c0.4-0.9,0.7-1.9,0.8-2.9c0.3-2.8,0.4-5.6,0.4-8.4c0-1.1,0-2.2-0.1-3.3c0.6,0.1,1.3,0.1,1.9,0.1h5.7
	c0.6,0,1.3,0,1.9-0.1c-0.1,0.7-0.1,1.3-0.1,2v12.1c0.1,0.5-0.1,1-0.5,1.4c-0.6,0.3-1.2,0.5-1.9,0.4c-0.6,0-0.9,0-1.7-0.1
	c0-0.6-0.2-1.3-0.4-1.9c0.6,0.1,1.3,0.2,1.9,0.2c0.6,0,0.8-0.1,0.8-0.4v-11.9h-5.9L103.7,130.4z M95.9,131.8c0.4,0,0.8,0.1,1.1,0.1
	h2.8c0.4,0,0.7,0,1.1-0.1v1.7c-0.4,0-0.7-0.1-1.1-0.1H97c-0.4,0-0.8,0-1.1,0.1L95.9,131.8z M95.9,134.3c0.4,0,0.8,0,1.1,0h2.8
	c0.4,0,0.7,0,1.1,0v1.7c-0.4,0-0.8-0.1-1.1-0.1H97c-0.4,0-0.8,0-1.1,0.1L95.9,134.3z M95.9,126.6c0.5,0.1,1,0.1,1.5,0.1h2.2
	c0.5,0,1,0,1.5-0.1v1.8c-0.5,0-0.8-0.1-1.5-0.1h-2.2c-0.6,0-1,0-1.5,0.1V126.6z M97.5,140.2h1.8v-1.8h-1.8L97.5,140.2z M105.3,131.5
	c-0.4,0-0.7,0-1.1,0.1v-1.6c0.4,0,0.7,0.1,1.1,0.1h0.5c0-0.4,0-0.8-0.1-1.2h1.8c-0.1,0.4-0.1,0.8-0.1,1.2h0.6c0.4,0,0.7,0,1.1-0.1
	v1.6c-0.4,0-0.7-0.1-1.1-0.1h-0.6v1.3h0.7c0.4,0,0.7,0,1.1-0.1v1.7c-0.4-0.1-0.7-0.1-1.1-0.1h-3c-0.4,0-0.7,0-1.1,0.1v-1.7
	c0.4,0.1,0.7,0.1,1.1,0.1h0.7v-1.3H105.3z M108.7,139c0,0.3,0,0.6,0,0.9h-0.4c-0.1,0-0.3,0-0.4,0h-0.4h-1.8v1.3h-1.5
	c0.1-0.5,0.1-1,0.1-1.5v-3.3c0-0.4,0-0.8-0.1-1.3c0.4,0,0.8,0.1,1.2,0.1h2.1c0.4,0,0.8,0,1.2-0.1c0,0.4,0,0.6,0,1.2V139z
	 M105.7,138.3h1.5v-1.7h-1.5V138.3z"/>
<path class="st1" d="M121.5,127.5c0-0.5,0-0.9-0.1-1.4h2.1c-0.1,0.5-0.1,0.9-0.1,1.4v0.2h5.1c0.7,0,1.3,0,2-0.1v1.9
	c-0.7-0.1-1.3-0.1-2-0.1h-3.4c1.7,1.6,3.7,2.7,6,3.3c-0.4,0.6-0.8,1.2-1.1,1.9c-0.8-0.3-1.5-0.7-2.3-1.1c0,0.6,0,0.6,0,1.1v5.7h1
	c0.7,0,1.3,0,2-0.1v2c-0.7-0.1-1.4-0.1-2.1-0.1h-12c-0.7,0-1.4,0-2.2,0.1v-2c0.7,0.1,1.3,0.1,2,0.1h0.9v-5.9c0-0.5,0-0.6,0-1
	c-0.7,0.4-1.4,0.8-2.2,1.1c-0.3-0.6-0.7-1.2-1.1-1.7c2.1-0.6,4.1-1.8,5.7-3.4h-3.1c-0.7,0-1.3,0-2,0.1v-1.9c0.7,0.1,1.4,0.1,2.2,0.1
	h4.7L121.5,127.5z M121.5,130.9c0,0,0-0.3,0-0.9c-0.8,1.1-1.9,2-3,2.8h8c-1.2-0.8-2.3-1.7-3.2-2.9c0,0.5,0,0.8,0,1v0.4
	c0,0.4,0,0.8,0.1,1.1h-2.1c0.1-0.4,0.1-0.8,0.1-1.2L121.5,130.9z M119.3,135.4h6.6v-1h-6.6V135.4z M119.3,137.9h6.6v-1h-6.6V137.9z
	 M119.3,140.4h6.6v-1h-6.6V140.4z"/>
<path class="st1" d="M26,155c0-0.6,0-1.2-0.1-1.8h2.3c-0.1,0.6-0.1,1.2-0.1,1.8v3.9h3.9V156c0-0.5,0-0.9-0.1-1.4H34
	c-0.1,0.5-0.1,1-0.1,1.6v3.6c0,0.4,0,0.8,0,1.2c-0.4,0-0.8-0.1-1.3-0.1H28v5.9h4.5v-3c0-0.5,0-1-0.1-1.5h2.2
	c-0.1,0.6-0.1,1.1-0.1,1.7v3.9c0,0.6,0,1.2,0.1,1.8h-2.1v-0.9H21.8v0.9h-2.1c0.1-0.6,0.1-1.2,0.1-1.8V164c0-0.6,0-1.2-0.1-1.7h2.2
	c-0.1,0.5-0.1,1-0.1,1.6v2.9H26v-5.9h-4.3c-0.5,0-0.9,0-1.3,0.1c0-0.4,0.1-0.8,0.1-1.2v-3.6c0-0.5,0-1.1-0.1-1.6h2.2
	c-0.1,0.5-0.1,1-0.1,1.4v2.9H26V155z"/>
<path class="st1" d="M43.7,154.8c-0.5,0.2-1,0.4-1.6,0.6v2.4h0.7c0.4,0,0.8,0,1.2-0.1v1.9c-0.4,0-0.9-0.1-1.3-0.1h-0.6v0.1
	c0.4,0.9,1,1.7,1.7,2.4c0-0.4,0-0.5,0-0.8c0.4,0,1,0.1,1.6,0.1h7.2c0.5,0,1.1,0,1.6-0.1c-0.1,0.5-0.1,1.1-0.1,1.6v5.1
	c0,0.9-0.2,1.3-0.8,1.5c-0.6,0.2-1.1,0.2-1.7,0.2h-1c0-0.6-0.2-1.2-0.4-1.8c0.5,0.1,1.1,0.1,1.6,0.1c0.3,0,0.4-0.1,0.4-0.3v-4.7
	h-6.7v4.9c0,0.7,0,1.4,0.1,2.1h-2c0.1-0.7,0.1-1.4,0.1-2.1v-5.2c-0.3,0.5-0.5,1-0.7,1.5c-0.4-0.6-0.8-1.3-1.1-1.9c0,0.2,0,0.4,0,0.5
	c0,0.4,0,0.4,0.1,1.7v3.5c0,0.7,0,1.4,0.1,2.1h-2c0.1-0.7,0.1-1.4,0.1-2.1v-3c0,0,0-0.4,0-1.1c0,0,0-0.4,0.1-1.1
	c-0.2,0.7-0.5,1.4-0.8,2c-0.3,0.6-0.7,1.2-1.1,1.8c-0.2-0.7-0.6-1.3-1-1.8c1.2-1.4,2-3,2.6-4.8h-0.9c-0.4,0-0.8,0-1.2,0.1v-1.9
	c0.4,0.1,0.9,0.1,1.3,0.1h1v-2c-0.7,0.1-0.9,0.2-1.7,0.3c-0.2-0.6-0.4-1.1-0.7-1.7c1.5-0.2,3-0.5,4.4-1.1c0.3-0.1,0.5-0.2,0.7-0.4
	l0.9,1.3c0.4,0,1.2,0.1,1.8,0.1H48v-0.3c0-0.4,0-0.7,0-1.1h2.1c-0.1,0.4-0.1,0.8-0.1,1.1v0.3h2.5c0.7,0,1.3,0,2-0.1v1.8
	c-0.6-0.1-1.2-0.1-2-0.1h-6.8c-0.7,0-1.3,0-2,0.1L43.7,154.8z M46.4,160.4c-0.4,0-0.8,0-1.3,0.1c0-0.4,0.1-0.7,0.1-1v-1.8
	c0-0.3,0-0.5-0.1-1c0.4,0,0.8,0,1.3,0h5.3c0.5,0,0.9,0,1.2,0c0,0.3-0.1,0.7,0,1.1v1.6c0,0.4,0,0.7,0.1,1.1c-0.4,0-0.8-0.1-1.2-0.1
	H46.4z M51.4,166.4c0,0.3,0,0.7,0,1c-0.4,0-0.8-0.1-1.1-0.1H48v1h-1.5c0-0.4,0.1-0.7,0.1-1.1v-2.5c0-0.4,0-0.7-0.1-1.1
	c0.4,0,0.8,0.1,1.1,0.1h2.6c0.4,0,0.8,0,1.2-0.1c0,0.3-0.1,0.7-0.1,1L51.4,166.4z M47,159.2h4v-1.1h-4V159.2z M48,166h2v-1.1h-2V166
	z"/>
<path class="st1" d="M61.9,156.6c0.5,0,1.1,0,1.6-0.1c-0.1,1.6-0.2,2.6-0.3,3c-0.3,1.7-0.7,3.3-1.3,4.9c0.5,0.4,1,0.9,1.5,1.4
	l-1.1,1.6c-0.4-0.5-0.8-0.9-1.3-1.3c-0.8,1.3-1.7,2.4-2.9,3.3c-0.4-0.6-0.8-1.1-1.3-1.6c1.1-0.8,2.1-1.8,2.9-2.9
	c-0.7-0.7-1.5-1.3-2.3-1.8c0.6-1.5,1.1-3.1,1.4-4.7h-0.3c-0.4,0-0.9,0-1.3,0.1v-1.9c0.5,0.1,1,0.1,1.5,0.1H59
	c0.2-1.1,0.3-2.2,0.3-3.4v-0.2l2.1,0.2c-0.1,0.4-0.2,0.9-0.2,1.3c-0.1,0.8-0.2,1.4-0.3,2.1L61.9,156.6z M60.5,163.4
	c0.6-1.6,1-3.3,1.2-5h-1.1c-0.3,1.4-0.6,2.8-1.1,4.2L60.5,163.4z M69.1,162.6h2.7c0.6,0,1.2,0,1.8-0.1v1.9c-0.6-0.1-1.2-0.1-1.8-0.1
	h-1.9c1.1,1.4,2.5,2.4,4.1,3.1c-0.4,0.6-0.8,1.2-1,1.8c-1.6-0.9-3-2.3-4-3.9c0,0.6,0.1,1,0.1,1.4v1.5c0,0.5,0,1,0.1,1.5h-2
	c0.1-0.5,0.1-1,0.1-1.6v-1.5c0-0.4,0-0.8,0.1-1.4c-0.5,0.8-1.1,1.5-1.8,2.1c-0.7,0.6-1.4,1.2-2.2,1.7c-0.3-0.6-0.7-1.1-1.2-1.5
	c1.7-0.8,3.2-2,4.3-3.4h-1.8c-0.5,0-1,0-1.5,0.1v-1.9c0.5,0.1,1,0.1,1.5,0.1h2.5v-1.1h-1.1c-0.5,0-0.9,0-1.4,0.1c0-0.4,0-0.8,0-1.2
	v-4c-0.4,0-0.9,0-1.3,0.1v-1.8c0.4,0.1,0.9,0.1,1.3,0.1c0-0.5,0-1-0.1-1.5h2c-0.1,0.5-0.1,1-0.1,1.5H70c0-0.5,0-1-0.1-1.5h2
	c-0.1,0.5-0.1,1-0.1,1.5h0.4c0.5,0,0.9,0,1.4-0.1v1.8c-0.5-0.1-0.9-0.1-1.4-0.1h-0.4v4c0,0.4,0,0.8,0.1,1.2c-0.5,0-0.9-0.1-1.4-0.1
	h-1.4V162.6z M70.1,157.4v-1.1h-3.5v1.1H70.1z M66.6,160H70v-1.1h-3.4V160z"/>
<path class="st1" d="M79.9,167.6c0,0.7,0,1.4,0.1,2.1h-2.1c0.1-0.7,0.1-1.4,0.1-2.1v-5c0-0.9,0-1.2,0-2c-0.4,0.7-0.9,1.3-1.4,1.9
	c-0.2-0.8-0.4-1.5-0.8-2.2c1.9-2.1,3.3-4.6,3.8-7.4l2,0.5c-0.5,1.4-1,2.8-1.7,4.2v7.1c2.1-1.7,3.8-4,4.7-6.5h-1.9
	c-0.6,0-1.3,0-1.9,0.1v-2c0.7,0.1,1.3,0.1,2,0.1h2.6v-1.6c0-0.6,0-1.1-0.1-1.7h2.1c-0.1,0.6-0.1,1.1-0.1,1.7v1.6h3.3
	c0.7,0,1.4,0,2.1-0.1v2c-0.7-0.1-1.3-0.1-2-0.1H88c0.5,1.3,1.2,2.5,2.1,3.6c0.9,1.1,1.9,2.2,3.1,3c-0.5,0.6-0.9,1.2-1.2,1.9
	c-0.7-0.6-1.4-1.3-2-2.1v1.7c-0.4-0.1-0.9-0.1-1.3-0.1h-1.4v1.4c0,0.7,0,1.3,0.1,2h-2.1c0.1-0.7,0.1-1.3,0.1-2v-1.4h-1.3
	c-0.4,0-0.9,0-1.3,0.1v-1.7c-0.6,0.7-1.2,1.4-1.9,2c-0.3-0.5-0.6-1-1.1-1.5V167.6z M85.3,162.4c0-0.9,0-1.3,0-2.2
	c-0.6,1.6-1.4,3-2.4,4.3c0.4,0,0.8,0.1,1.2,0.1h1.2L85.3,162.4z M88.5,164.6c0.4,0,0.8,0,1.2-0.1c-1-1.3-1.9-2.8-2.6-4.4
	c0,1,0,1.4,0,2.2v2.3H88.5z"/>
<path class="st1" d="M103,164.1c-1,2.3-2.2,3.4-3.7,3.4c-2,0-3.5-2.1-3.5-5c0-1.9,0.7-3.8,2-5.2c1.6-1.7,3.9-2.6,6.2-2.5
	c4.3,0,7.1,2.6,7.1,6.7c0.1,2.9-1.6,5.6-4.4,6.7c-0.9,0.4-1.9,0.6-2.8,0.8c-0.2-0.8-0.6-1.5-1.1-2.1c1.2-0.1,2.5-0.4,3.6-1
	c1.6-0.9,2.5-2.7,2.5-4.5c0.1-1.6-0.8-3.2-2.2-4c-0.6-0.3-1.2-0.5-1.8-0.5C104.6,159.2,104,161.7,103,164.1z M100.3,157.6
	c-1.5,1.1-2.5,2.9-2.4,4.9c0,1.5,0.6,2.6,1.4,2.6c0.6,0,1.2-0.8,1.9-2.3c0.8-2,1.3-4,1.5-6.1C101.8,156.8,101,157.1,100.3,157.6
	L100.3,157.6z"/>
<path class="st1" d="M120,162.1c-1.1,1-1.6,1.7-1.6,2.5c0,1.2,1.3,1.7,4.4,1.7c1.9,0,3.8-0.2,5.6-0.8l0.2,2.5c-0.3,0-0.4,0-0.8,0.1
	c-1.6,0.3-3.2,0.4-4.9,0.4c-1.5,0.1-3-0.1-4.5-0.6c-1.4-0.4-2.3-1.6-2.3-3c0-1.4,0.7-2.6,2.3-3.9L120,162.1z M117.3,154.7
	c1.8,0.4,3.6,0.5,5.4,0.4c1.6,0.1,3.2-0.1,4.8-0.3l0.1,2c-1.7,0.8-3.3,1.9-4.8,3l-1.6-1.3c0.9-0.6,1.8-1.1,2.7-1.6
	c-0.9,0.1-1.8,0.2-2.7,0.1c-1.1,0-2.2-0.1-3.3-0.2c-0.2,0-0.4,0-0.7,0L117.3,154.7z M126.3,158.3c0.7,0.7,1.2,1.4,1.6,2.3l-1.3,0.8
	c-0.4-0.8-1-1.6-1.6-2.3L126.3,158.3z M128.5,160.2c-0.4-0.8-0.9-1.5-1.5-2.2l1.3-0.7c0.6,0.6,1.2,1.4,1.6,2.2L128.5,160.2z"/>
<path class="st1" d="M145.2,167.5c0.6,0.1,1.3,0.1,1.9,0.1c1.1,0,2,0,3-0.1c-0.2,0.6-0.4,1.2-0.5,1.9c-0.6,0-1.3,0-1.8,0
	c-2.6,0-4-0.2-5.1-0.8c-0.8-0.4-1.4-1-2-1.6c-0.5,1-1.1,2-1.9,2.8c-0.4-0.5-0.9-0.9-1.4-1.2c-0.2,0.8-0.7,1.1-2.1,1.1
	c-0.4,0-0.8,0-1.5-0.1c0-0.6-0.2-1.3-0.4-1.9c0.5,0.1,1,0.1,1.5,0.1c0.5,0,0.6-0.1,0.6-0.5v-4.1c-0.4,0.2-0.6,0.2-1,0.4
	s-0.7,0.3-0.9,0.4l-0.3-2c0.7-0.1,1.5-0.3,2.2-0.6v-3.2h-0.8c-0.4,0-0.9,0-1.3,0.1v-1.9c0.4,0.1,0.9,0.1,1.3,0.1h0.7V155
	c0-0.6,0-1.2-0.1-1.8h2.1c-0.1,0.6-0.1,1.2-0.1,1.8v1.4h0.6h0.8c0.1,0,0.1,0,0.2,0h0.1v1.9c-0.4,0-0.7,0-1.1,0h-0.6v2.5
	c0.7-0.3,0.9-0.3,1.6-0.6v0.8c0.5,0.1,1,0.1,1.5,0.1h7.4c0.6,0,1.1,0,1.7-0.1v1.8c-0.6-0.1-1.1-0.1-1.7-0.1h-2.9v1.5h2.3
	c0.5,0,1.1-0.1,1.6-0.2v1.8c-0.5-0.1-1.1-0.1-1.6-0.1h-2.3L145.2,167.5z M141.9,163.6c-0.1,0.1-0.1,0.4-0.3,1
	c-0.1,0.2-0.1,0.4-0.2,0.7c0.5,0.7,1.1,1.3,1.9,1.7v-4.5h-2.9c-0.5,0-0.9,0-1.4,0.1v-0.7c-0.6,0.3-0.8,0.4-1.5,0.6v5.4
	c0,0.1,0,0.3,0,0.4c0.6-0.6,1.2-1.3,1.6-2c0.5-1,0.9-2.1,1-3.2L141.9,163.6z M141.3,160c-0.7,0-1,0-1.5,0c0-0.3,0-0.9,0-1.8v-2.8
	c0-0.7,0-1.3,0-1.7c0.6,0.1,1.2,0.1,1.7,0.1h5.4c0.6,0,1.2,0,1.7-0.1c-0.1,0.5-0.1,1.1-0.1,1.6v3c0,0.7,0,0.7,0.1,1.8
	c-0.5,0-1.1-0.1-1.8-0.1L141.3,160z M141.7,156.2h5v-0.8h-5V156.2z M141.7,158.5h5v-0.9h-5V158.5z"/>
<path class="st1" d="M166.6,163.6c0.7,0,1.4,0,2.1-0.1v1.8c-0.7-0.1-1.4-0.1-2.1-0.1H163c1.8,1.3,3.9,2.2,6.1,2.6
	c-0.4,0.6-0.8,1.2-1,1.8c-1.4-0.4-2.7-1-4-1.7c-1-0.6-1.9-1.2-2.7-2c0,0.5,0.1,1.2,0.1,1.4v0.8c0,0.5,0,1,0.1,1.5h-2.1
	c0.1-0.5,0.1-1,0.1-1.5v-0.8c0-0.2,0-0.3,0-0.6v-0.4c0-0.1,0-0.2,0-0.4c-1.8,1.7-4,2.9-6.4,3.6c-0.3-0.6-0.6-1.2-1.1-1.7
	c2.1-0.5,4.1-1.4,5.9-2.7h-3.3c-0.7,0-1.3,0-2,0.1v-1.8c0.7,0.1,1.3,0.1,2,0.1h4.9v-0.1c0-0.4,0-0.8-0.1-1.2h2.1
	c-0.1,0.4-0.1,0.8-0.1,1.2v0.1L166.6,163.6z M165,158.7c-0.4,0.6-1,1.2-1.6,1.6c1.5,0.4,3.1,0.8,4.6,1.3l-1.2,1.4
	c-1.7-0.7-3.4-1.3-5.2-1.7c-2.5,1-5.1,1.5-7.8,1.5c-0.2-0.6-0.4-1.1-0.8-1.6h0.6c1.8,0,3.5-0.2,5.2-0.6c-0.6-0.1-1-0.2-3.5-0.5
	c0.6-0.5,1.1-1,1.6-1.6h-2.1c-0.8,0-1.4,0-2,0.1v-1.6c0.6,0.1,1.2,0.1,1.8,0.1h3.5c0.3-0.5,0.7-1,0.9-1.5l1.9,0.4
	c-0.1,0.1-0.3,0.3-0.4,0.5c-0.1,0.1-0.1,0.2-0.2,0.3c-0.1,0.1-0.1,0.2-0.2,0.3h6.5c0.6,0,1.2,0,1.8-0.1v1.6c-0.7-0.1-1.3-0.1-2-0.1
	H165z M159.6,154.1c0-0.4,0-0.8-0.1-1.2h2.2c-0.1,0.4-0.1,0.8-0.1,1.2h4.8c0.9,0,1.4,0,1.9-0.1c-0.1,0.4-0.1,0.9-0.1,1.3v0.5
	c0,0.4,0,0.7,0,1.1h-1.9v-1.2H155v1.2h-1.9c0.1-0.3,0.1-0.7,0.1-1v-0.6c0-0.4,0-0.8-0.1-1.3c0.6,0.1,1.2,0.1,2,0.1L159.6,154.1z
	 M159.1,158.7c-0.2,0.2-0.3,0.4-0.6,0.6c1.3,0.2,1.6,0.3,2.7,0.5c0.6-0.3,1.1-0.7,1.6-1.2H159.1z"/>
<path class="st1" d="M64.9,181.2c0-0.3,0-0.7-0.1-1H67c-0.1,0.3-0.1,0.7-0.1,1.1v0.9h4.5c0.7,0,1.4,0,2.1-0.1v2.1
	c-0.7-0.1-1.4-0.1-2.1-0.1H60.7c0,6.8-0.5,9.7-2.3,12.7c-0.5-0.6-1-1.2-1.6-1.7c1.4-2.3,1.8-4.7,1.8-10.4c0-1.4,0-2-0.1-2.6
	c0.6,0.1,1.2,0.1,1.9,0.1h4.4V181.2z M60.1,194c0.2,0,0.3,0,0.5,0h1.3c1.5-3,2.5-6.2,3.1-9.5l2.3,0.6c-0.2,0.5-0.2,0.6-0.3,1
	c-0.7,2.7-1.7,5.3-2.9,7.8c2-0.1,3.9-0.4,5.9-0.7c-0.7-1.2-1.5-2.4-2.3-3.5l1.7-1c1.6,2.2,3,4.5,4.1,7l-1.8,1.1
	c-0.4-0.9-0.5-1.2-0.8-2c-2.5,0.5-2.6,0.5-4.6,0.8l-5,0.6c-0.2,0-0.4,0-0.6,0.1L60.1,194z"/>
<path class="st1" d="M80.1,184.3c-0.6,0.8-1.2,1.6-2,2.2c-0.5-0.5-1-1-1.6-1.4c1.2-0.9,2.1-2,2.7-3.4c0.3-0.5,0.4-1,0.6-1.5l2.1,0.6
	c-0.4,0.9-0.7,1.4-0.8,1.6h2.5v-0.6c0-0.6,0-1.1-0.1-1.7h2.2c-0.1,0.6-0.1,1.1-0.1,1.7v0.6h3.6c0.7,0,1.3,0,2-0.1v2
	c-0.6-0.1-1.3-0.1-1.9-0.1h-3.7v2.3h4.8c0.7,0,1.4,0,2.1-0.1v2.1c-0.7-0.1-1.3-0.1-2-0.1h-12c-0.7,0-1.4,0-2.1,0.1v-2.1
	c0.7,0.1,1.3,0.1,2,0.1h5.2v-2.3L80.1,184.3z M78.3,196.7c0.1-0.7,0.1-1.3,0.1-2v-3.3c0-0.6,0-1.1-0.1-1.7c0.6,0.1,1.2,0.1,1.8,0.1
	h8.6c0.6,0,1.2,0,1.8-0.1c-0.1,0.6-0.1,1.1-0.1,1.7v3.4c0,0.7,0,1.3,0.1,2h-2.1v-0.8h-8.1v0.8L78.3,196.7z M80.4,194.1h8.1v-2.6
	h-8.1V194.1z"/>
<path class="st1" d="M100.1,182.9c-0.5,0-1,0-1.7,0.1v-2.2c0.6,0.1,1.1,0.1,1.7,0.1h2.9c0.5,0,1.1,0,1.6-0.1c0,0.4-0.1,0.8-0.1,1.1
	c0,2.5,0.7,5,1.9,7.1c0.8,1.3,1.7,2.5,2.9,3.5c0.8,0.8,1.7,1.4,2.6,1.9c-0.6,0.6-1.1,1.3-1.5,2c-1.7-1.2-3.2-2.6-4.4-4.2
	c-0.6-0.8-1.2-1.7-1.6-2.7c-0.4-0.8-0.7-1.7-0.9-2.6c-0.5,2-1.4,3.8-2.6,5.4c-1.2,1.6-2.8,3-4.5,4.1c-0.3-0.7-0.8-1.4-1.5-1.9
	c1.4-0.7,2.6-1.7,3.6-2.8c1.4-1.5,2.5-3.3,3.1-5.3c0.4-1.2,0.6-2.4,0.6-3.6L100.1,182.9z"/>
<path class="st1" d="M120,181.8c-0.5,0.2-1,0.4-1.6,0.6v2.4h0.7c0.4,0,0.8,0,1.2-0.1v1.9c-0.4,0-0.9-0.1-1.3-0.1h-0.6v0.1
	c0.4,0.9,1,1.7,1.7,2.4c0-0.4,0-0.5,0-0.8c0.4,0,1,0.1,1.6,0.1h7.2c0.5,0,1.1,0,1.6-0.1c-0.1,0.5-0.1,1.1-0.1,1.6v5.1
	c0,0.9-0.2,1.3-0.8,1.5c-0.6,0.2-1.1,0.2-1.7,0.2h-1c0-0.6-0.2-1.2-0.4-1.8c0.5,0.1,1.1,0.1,1.6,0.1c0.3,0,0.4-0.1,0.4-0.3v-4.7H122
	v4.9c0,0.7,0,1.4,0.1,2.1h-2c0.1-0.7,0.1-1.4,0.1-2.1v-5.2c-0.3,0.5-0.5,1-0.7,1.5c-0.4-0.6-0.8-1.3-1.1-1.9c0,0.2,0,0.4,0,0.5
	c0,0.4,0,0.4,0.1,1.7v3.5c0,0.7,0,1.4,0.1,2.1h-2c0.1-0.7,0.1-1.4,0.1-2.1v-3c0,0,0-0.4,0-1.1c0,0,0-0.4,0.1-1.1
	c-0.2,0.7-0.5,1.4-0.8,2c-0.3,0.6-0.7,1.2-1.1,1.8c-0.2-0.7-0.5-1.3-0.9-1.8c1.2-1.4,2-3,2.6-4.8h-0.9c-0.4,0-0.8,0-1.2,0.1v-1.9
	c0.4,0.1,0.9,0.1,1.3,0.1h1v-2c-0.7,0.1-0.9,0.2-1.7,0.3c-0.2-0.6-0.4-1.1-0.7-1.7c1.5-0.2,3-0.5,4.4-1.1c0.3-0.1,0.5-0.2,0.7-0.4
	l0.9,1.3c0.4,0,1.2,0.1,1.8,0.1h2.3v-0.3c0-0.4,0-0.7-0.1-1.1h2.1c-0.1,0.4-0.1,0.8-0.1,1.1v0.3h2.5c0.7,0,1.3,0,2-0.1v1.8
	c-0.6-0.1-1.2-0.1-2-0.1H122c-0.7,0-1.3,0-2,0.1V181.8z M122.7,187.4c-0.4,0-0.8,0-1.3,0.1c0-0.4,0.1-0.7,0.1-1v-1.8
	c0-0.3,0-0.5-0.1-1c0.4,0,0.8,0,1.3,0h5.3c0.5,0,0.9,0,1.2,0c0,0.3-0.1,0.7-0.1,1.1v1.6c0,0.4,0,0.7,0.1,1.1c-0.4,0-0.8-0.1-1.1-0.1
	L122.7,187.4z M127.7,193.4c0,0.3,0,0.7,0,1c-0.4,0-0.8-0.1-1.1-0.1h-2.3v1h-1.6c0-0.4,0.1-0.7,0.1-1.1v-2.5c0-0.4,0-0.7-0.1-1.1
	c0.4,0,0.8,0.1,1.1,0.1h2.6c0.4,0,0.8,0,1.2-0.1c0,0.3-0.1,0.7-0.1,1L127.7,193.4z M123.4,186.2h4v-1.1h-4V186.2z M124.4,193h2v-1.1
	h-2V193z"/>
<path class="st2" d="M163.2,30.3c-2.4,0.5-2.4,0.5-5.1,0.9c-2,0.3-2.9,0.4-3.5,0.5l-0.6-2.6c0.1,0,0.3,0,0.4,0c0.4,0,1.1,0,2.1-0.1
	v-7.7c-0.8,0-1.7,0-2.5,0.1V19c0.9,0.1,1.7,0.2,2.6,0.1h17.7c0.9,0,1.7,0,2.6-0.1v2.4c-0.9-0.1-1.8-0.1-2.6-0.1h-8.7v9.1
	c1.2-0.4,2.3-1,3.4-1.8c-0.9-1-1.6-2-2.3-3.2l2.1-1h-0.6c-0.6,0-1.3,0-1.9,0.1v-2.3c0.7,0.1,1.4,0.1,2.1,0.1h4.2
	c0.6,0,1.3,0,1.9-0.1l1.3,1.4c-0.2,0.2-0.3,0.5-0.4,0.7c-0.8,1.5-1.7,3-2.9,4.3c1.4,0.8,2.8,1.4,4.4,1.8c-0.5,0.8-0.9,1.6-1.2,2.5
	c-1.8-0.6-3.4-1.4-4.9-2.6c-1.2,1-2.5,1.8-3.9,2.4c-0.3-0.8-0.7-1.5-1.3-2.1c0,0.8,0,1.6,0.1,2.4h-2.8c0.1-0.8,0.2-1.7,0.1-2.5
	L163.2,30.3z M174.3,16.2c0,0.7,0,1.4,0.1,2.2c-0.6,0-1.5-0.1-2.3-0.1h-12.7c-1.1,0-1.8,0-2.6,0.1c0.1-0.7,0.1-1.4,0.1-2.1v-3.4
	c0-0.7,0-1.5-0.1-2.2c0.9,0.1,1.8,0.1,2.6,0.1h12.3c0.9,0,1.8,0,2.6-0.1c-0.1,0.7-0.1,1.5-0.1,2.2L174.3,16.2z M163.2,21.3h-4.1v1.1
	h4.1V21.3z M163.2,24.3h-4.1v1.2h4.1V24.3z M163.2,27.3h-4.1v1.5c1.2-0.1,1.8-0.2,4.1-0.5V27.3z M159.5,13.7h12.2v-1h-12.2V13.7z
	 M159.5,16.4h12.2v-1h-12.2V16.4z M169,24.6c0.5,1,1.1,1.9,1.8,2.6c0.7-0.8,1.4-1.7,1.9-2.6L169,24.6z"/>
<path class="st2" d="M180.5,19.5c0.7,0.1,1.3,0.1,2,0.1h1.8c0.6,0,1.3,0,1.9-0.1c-0.1,0.9-0.1,1.8-0.1,2.7v5.4
	c0.3,0.5,0.6,1,1.1,1.3c0.5,0.4,1,0.6,1.6,0.8c1.3,0.3,2.7,0.4,4.1,0.4c3.7,0.1,7.3-0.1,11-0.5c-0.4,0.9-0.6,1.9-0.8,2.8
	c-2.5,0.1-5.2,0.2-8,0.2c-4.2,0-5.9-0.1-7.2-0.5c-1.3-0.4-2.4-1.2-3.2-2.3c-1.1,1.1-2.3,2.1-3.6,3l-1.2-2.8c1.3-0.6,2.5-1.5,3.5-2.5
	V22h-1.3c-0.6,0-1.1,0-1.7,0.1L180.5,19.5z M182.6,10.2c1.6,1.4,3,2.9,4.3,4.6l-2.1,2c-1.2-1.7-2.6-3.3-4.2-4.7L182.6,10.2z
	 M193.7,26.9V28h-2.3c0.1-0.5,0.1-1.1,0.1-1.6v-3c0-0.6,0-1.1-0.1-1.6c0.6,0.1,1.2,0.1,1.8,0.1h0.7v-1.2h-1.1c-0.7,0-1.4,0-2.1,0.1
	v-2c0.7,0.1,1.4,0.1,2.1,0.1h1.1v-1.2h-3.7V26c0,0.9,0,1.9,0.1,2.8h-2.7c0.1-0.7,0.1-1.8,0.1-2.8v-8c0-1.3,0-1.8-0.1-2.6
	c0.7,0.1,1.3,0.1,2.6,0.1h0.7c-0.3-0.6-0.4-1-0.7-1.6h-0.8c-0.9,0-1.7,0-2.6,0.1v-2.5c0.9,0.1,1.8,0.2,2.6,0.1h4.1
	c0-0.6-0.1-1.2-0.1-1.8h3c-0.1,0.6-0.2,1.2-0.1,1.8h4.3c0.9,0,1.7,0,2.6-0.1V14c-0.8-0.1-1.6-0.1-2.4-0.1h-1
	c-0.2,0.5-0.5,1.1-0.8,1.6h1.1c0.8,0,1.6,0,2.4-0.1c-0.1,0.9-0.1,1.8-0.1,2.7v8.6c0,1.4-0.3,1.9-1.2,2.2c-0.9,0.2-1.9,0.3-2.8,0.2
	c-0.1,0-0.5,0-0.9,0c-0.1-0.7-0.2-1.4-0.4-2.1L193.7,26.9z M196.4,15.4c0.2-0.4,0.4-0.9,0.6-1.6h-4c0.3,0.5,0.5,1,0.7,1.6H196.4z
	 M193.7,25.1h2.8v-1.6h-2.8V25.1z M198.6,25.6v1.1h0.4c0.8,0,1-0.1,1-0.5v-8.6h-3.8v1.2h1.1c0.7,0,1.4,0,2.1-0.1v2
	c-0.7-0.1-1.4-0.1-2.1-0.1h-1.1v1.2h0.8c0.6,0,1.1,0,1.7-0.1c-0.1,0.6-0.1,1.1-0.1,1.7L198.6,25.6z"/>
<path class="st2" d="M216.8,10.6c-0.2,0.6-0.3,1.1-0.4,1.7c-0.1,0.6-0.3,1.1-0.5,2.2c1.4-0.1,2.7-0.3,4-0.7l0.1,2.9
	c-0.3,0-0.5,0.1-0.8,0.1c-0.9,0.1-2.4,0.3-4,0.5c-0.7,2.5-1.6,4.9-2.8,7.2c-0.6,1.2-0.8,1.7-1.8,3.4c-0.3,0.6-0.3,0.6-0.5,0.9
	l-2.9-1.6c0.9-1.2,1.8-2.6,2.4-4c0.9-1.9,1.7-3.9,2.4-5.9h-1.6h-1h-1.3v-2.9c1.1,0.2,2.2,0.3,3.4,0.2c0.3,0,0.7,0,1.3,0
	c0.4-1.4,0.6-2.9,0.8-4.3L216.8,10.6z M228.1,30.8c-1.1-1.2-2.4-2.3-3.8-3.1c0,0.2,0.1,0.4,0.1,0.5c0,1-0.4,1.9-1.1,2.6
	c-1.1,1-2.6,1.5-4.1,1.4c-3.3,0-5.4-1.6-5.4-4.2s2.2-4.3,5.4-4.3c0.8,0,1.6,0.1,2.3,0.2c-0.1-1.1-0.1-2.1-0.1-2.9
	c0-0.8,0.1-1.7,0.2-2.5l2.9,0.1c-0.2,0.8-0.3,1.7-0.3,2.5c0,1.1,0.1,2.3,0.2,3.4c1.4,0.6,2.7,1.3,3.9,2.3c0.3,0.2,0.6,0.4,0.9,0.7
	c0.2,0.2,0.2,0.2,0.4,0.4L228.1,30.8z M219.3,26.3c-1.6,0-2.7,0.7-2.7,1.7s0.9,1.6,2.4,1.6c1.7,0,2.5-0.7,2.5-2.1c0-0.3,0-0.9,0-0.9
	C220.8,26.4,220.1,26.2,219.3,26.3L219.3,26.3z M228.3,19.3c-2.2-1.5-4.7-2.7-7.2-3.5l1.5-2.4c2.4,0.9,4.8,2,7,3.4L228.3,19.3z"/>
<path class="st2" d="M244.4,11.5c0-0.5,0-1-0.1-1.4h3.1c-0.1,0.5-0.1,1-0.1,1.5v1.2h6.2c1,0,1.9,0,2.9-0.1v2.9
	c-1-0.1-1.9-0.1-2.9-0.1h-14.8c0,9.4-0.8,13.5-3.1,17.6c-0.6-0.9-1.4-1.7-2.2-2.4c1.9-3.2,2.5-6.5,2.5-14.4c0-1.9,0-2.7-0.1-3.6
	c0.9,0.1,1.7,0.1,2.6,0.1h6.1V11.5z M237.8,29.3c0.3,0,0.4,0,0.6,0s1.3,0,1.8,0c1.9-3.9,4.1-10.6,4.3-13.1l3.2,0.8
	c-0.2,0.6-0.2,0.8-0.4,1.3c-1,3.7-2.3,7.3-4,10.8c2.7-0.2,5.5-0.5,8.1-1c-0.9-1.7-2-3.4-3.2-4.9l2.3-1.3c2.2,3,4.1,6.3,5.6,9.7
	l-2.5,1.6c-0.5-1.3-0.7-1.7-1.1-2.8c-3.5,0.7-3.7,0.7-6.4,1c-0.6,0.1-2.9,0.3-7,0.8c-0.4,0-0.6,0.1-0.9,0.1L237.8,29.3z"/>
<path class="st2" d="M265.5,15.7c-0.8,1.1-1.7,2.2-2.7,3.1c-0.6-0.7-1.4-1.4-2.2-1.9c1.6-1.2,2.9-2.8,3.8-4.6
	c0.3-0.7,0.6-1.4,0.8-2.1l2.9,0.8c-0.6,1.3-1,2-1.1,2.3h3.4v-0.9c0-0.8,0-1.6-0.1-2.3h3.1c-0.1,0.8-0.2,1.6-0.2,2.4v0.9h5
	c0.9,0,1.8,0,2.7-0.1v2.8c-0.9-0.1-1.8-0.2-2.7-0.1h-5.1v3.1h6.7c1,0,1.9,0,2.9-0.1v2.9c-0.9-0.1-1.9-0.2-2.8-0.1h-16.7
	c-1,0-1.9,0-2.9,0.1v-2.9c0.9,0.1,1.8,0.2,2.8,0.1h7.3v-3.1H265.5z M263.1,33c0.1-0.9,0.2-1.9,0.1-2.8v-4.6c0-0.8,0-1.6-0.1-2.4
	c0.8,0.1,1.7,0.1,2.5,0.1h12c0.8,0,1.7,0,2.5-0.1c-0.1,0.8-0.1,1.6-0.1,2.4v4.6c0,0.9,0,1.9,0.1,2.8h-2.9v-1.1H266V33H263.1z
	 M266,29.4h11.3v-3.6H266L266,29.4z"/>
<path class="st2" d="M298.7,16.9c-0.1,0.7-0.1,1.3-0.1,2c-0.1,4.3-0.8,6.7-2.5,8.9c-1.7,2.1-3.9,3.6-6.5,4.5c-0.5-1.1-1.2-2-2-2.9
	c1.6-0.4,3.1-1.1,4.4-2.1c2.5-2,3.4-4.2,3.4-8.9c0-0.5,0-1-0.1-1.5L298.7,16.9z M308.9,13.8c-0.4,0.5-0.8,1.1-1,1.8
	c-0.9,1.9-2.2,3.6-3.9,5c-0.9,0.8-1.9,1.5-3,2.1c-0.6-0.9-1.4-1.7-2.3-2.3c1.4-0.5,2.6-1.3,3.6-2.3c1-0.9,1.8-2,2.4-3.2h-13.1
	c-1.1,0-2.3,0-3.4,0.1v-3.1c1.1,0.2,2.3,0.2,3.5,0.2h13c0.8,0.1,1.6,0,2.4-0.2L308.9,13.8z"/>
<path class="st2" d="M334.1,16.2c-0.2,0.5-0.3,1.1-0.3,1.7c-0.1,2.8-0.4,6.7-0.6,8.3c-0.6,4.3-1.5,5.4-4.5,5.4c-1,0-2.1-0.1-3.1-0.3
	c0-1.1-0.2-2.2-0.6-3.2c1.1,0.3,2.2,0.5,3.3,0.6c1.1,0,1.5-0.5,1.9-2.7c0.4-2.7,0.6-5.3,0.5-8h-5.8c-0.2,2.5-0.9,4.9-2,7.1
	c-1.6,2.9-3.9,5.2-6.8,6.9c-0.6-1-1.3-1.9-2.3-2.6c2.8-1.3,5.1-3.5,6.5-6.3c0.7-1.4,1.1-2.8,1.3-4.4c0-0.4,0.1-0.6,0.1-0.8h-4.1
	c-0.9,0-1.8,0-2.7,0.1V15c0.9,0.2,1.8,0.2,2.8,0.2h4.4c0.1-1,0.1-2.4,0.1-3.1v-0.6c0-0.3,0-0.7-0.1-1l3.4,0.1c0,0.3-0.1,0.4-0.1,0.8
	c0,0.1,0,0.3,0,0.5c0,0.5,0,0.5-0.1,1.8c0,0.6,0,0.8-0.1,1.6h5.5c0.7,0.1,1.4,0,2-0.2L334.1,16.2z"/>
<path class="st2" d="M360.9,15.8c-0.2,0.4-0.3,0.9-0.4,1.4c-0.2,2.1-0.7,4.1-1.5,6c-1.3,2.9-3.4,5.3-6.2,6.9c-1.6,0.9-3.2,1.7-5,2.3
	c-0.5-1.1-1.1-2.1-2-3c1.9-0.4,3.7-1.1,5.3-2.1c3.6-2.3,5.5-5.4,6-10h-12.2v3.2c0,0.8,0,1.5,0.1,2h-3.4c0.1-0.7,0.1-1.4,0.1-2.1
	v-3.6c0-0.8,0-1.6-0.1-2.4c0.9,0.1,1.8,0.1,2.7,0.1h4.9v-2.2c0-0.6,0-1.2-0.1-1.8h3.5c-0.1,0.6-0.1,1.2-0.1,1.8v2.1h4.5
	c1.8,0,1.8,0,2.4-0.2L360.9,15.8z"/>
<path class="st2" d="M368,28c2.5-0.2,5-0.8,7.4-1.9c3-1.3,5.6-3.4,7.4-6.1c1.1-1.5,1.9-3.2,2.5-5c0.7,1,1.6,1.8,2.6,2.5
	c-2.1,4.6-4.5,7.5-7.9,9.8c-2.9,1.8-6.1,3.1-9.5,3.7c-0.6,0.1-1.1,0.2-1.6,0.4L368,28z M370.1,12.5c2.3,1.4,4.5,3,6.5,4.8l-2.2,2.7
	c-1.9-2-4-3.7-6.4-5.1L370.1,12.5z"/>
<path class="st2" d="M398.1,32.1c0.1-0.9,0.2-1.9,0.1-2.8v-16c0-0.9,0-1.7-0.1-2.6h3.4c-0.1,0.9-0.1,1.8-0.1,2.6V18
	c3.9,1.4,7.7,3.2,11.4,5.3l-1.8,3c-2.8-1.8-5.8-3.4-8.9-4.8c-0.3-0.1-0.6-0.3-0.9-0.4c0.1,0.6,0.1,1.1,0.1,1.7v6.6
	c0,1.3,0,2,0.1,2.8H398.1z"/>
<path class="st2" d="M420.8,13c1.9,0.3,3.9,0.4,5.8,0.3c0.5-1,0.8-2,1-3.1l3.3,0.4c-0.4,0.7-0.7,1.5-1,2.3c-0.1,0.3-0.2,0.4-0.2,0.4
	l1.6-0.1c2.2-0.1,4.4-0.4,6.5-0.9l0.2,2.8c-0.7,0.1-0.7,0.1-2,0.2c-1.8,0.2-5,0.4-7.5,0.5c-0.6,1.2-1.4,2.3-2.3,3.3v0l0.5-0.4
	c1-0.7,2.3-1.1,3.5-1.1c1.7-0.2,3.3,1,3.6,2.6c1.9-0.7,3.2-1.1,3.8-1.4c0.6-0.2,1.3-0.4,1.9-0.8l1.2,2.9c-0.9,0.2-1.9,0.4-2.8,0.7
	c-0.4,0.1-1.6,0.5-3.8,1.3v0.3c0,0.6,0,0.6,0,1v1c0,0.4,0,0.6,0,0.8c0,0.4,0,0.9,0.1,1.3l-2.9,0.1c0.1-1,0.2-1.9,0.1-2.9v-0.6
	c-0.8,0.4-1.6,0.8-2.4,1.3c-0.7,0.4-1.2,1.2-1.3,2c0,1.3,1.2,1.8,4.2,1.8c2.5,0.1,5-0.2,7.4-1l0.3,3.2c-0.4,0-0.8,0-1.1,0.1
	c-2.1,0.3-4.2,0.4-6.3,0.4c-2.6,0-4.3-0.3-5.6-1c-1.2-0.7-1.9-1.9-1.8-3.2c0-1,0.4-2,1.1-2.8c1.1-1.4,2.5-2.4,5.4-3.5
	c0-0.8-0.6-1.4-1.4-1.4c0,0-0.1,0-0.1,0c-1.5,0-3.2,0.9-5.1,2.6c-0.8,0.7-1.6,1.5-2.2,2.4l-2.2-2.3c0.8-0.7,1.6-1.4,2.3-2.2
	c1.1-1.3,2.1-2.8,3-4.3c0.1-0.1,0.1-0.2,0.2-0.3H425l-3.1-0.1h-0.7c-0.1,0-0.3,0-0.4,0L420.8,13z"/>
<path class="st2" d="M447.6,20.7c0.2-0.3,0.7-1,1.4-1.9c-1-1.3-2.1-2.6-3.3-3.7l1.4-2.1c0.4,0.4,0.4,0.4,0.8,0.9
	c0.8-1.2,1.5-2.5,1.9-3.9l2.4,0.9c-0.1,0.2-0.3,0.5-0.7,1.3c-0.5,1-1.3,2.2-2,3.3c0.5,0.6,0.6,0.7,1,1.3c0.9-1.3,1.7-2.7,2.4-4.2
	l2.3,1.2c-0.2,0.3-0.3,0.4-0.6,0.9c-1.5,2.3-3,4.4-4.3,6.1c1.5-0.1,2-0.1,2.6-0.2c-0.3-0.7-0.4-1-0.8-1.8l1.7-0.9
	c0.8,1.6,1.5,3.3,2,5l-2,0.9c-0.1-0.5-0.1-0.6-0.3-1.1l-1.5,0.2v7.8c0,0.9,0,1.8,0.1,2.6h-2.7c0.1-0.9,0.2-1.8,0.1-2.6v-7.6
	l-2.3,0.1c-0.5,0-1,0.1-1.5,0.1l-0.3-2.5c0.4,0.1,0.8,0.1,1.3,0.1h0.5L447.6,20.7z M448.9,24.2c-0.1,2.6-0.5,5.1-1.1,7.6l-2.1-1
	c0.7-2.2,1.1-4.5,1.1-6.9L448.9,24.2z M454.7,23.9c0.4,2,0.7,4.1,0.9,6.1l-2.1,0.5c0-2.1-0.3-4.1-0.7-6.2L454.7,23.9z M464.4,29.2
	h1.7c0.8,0,1.6,0,2.5-0.1v2.6c-0.8-0.1-1.7-0.1-2.5-0.1h-7V33h-2.6c0.1-0.9,0.2-1.8,0.1-2.6V19.2c-0.2,0.4-0.5,0.7-0.8,1.1
	c-0.3-0.9-0.8-1.7-1.5-2.3c1.2-1.3,2.2-2.8,2.9-4.4c0.6-1.2,1-2.4,1.3-3.7l2.7,0.7c-0.1,0.2-0.1,0.2-0.6,1.5
	c-0.5,1.1-0.7,1.7-1.1,2.4h2.5c0.7-1.4,1.3-2.9,1.7-4.4l2.6,0.7c-0.2,0.4-0.2,0.5-0.5,1.3s-0.7,1.5-1.1,2.4h1.1c0.8,0,1.7,0,2.5-0.1
	V17c-0.8-0.1-1.7-0.1-2.5-0.1h-1.4v2.3h1.3c0.7,0,1.4,0,2-0.1v2.5c-0.7-0.1-1.4-0.1-2-0.1h-1.3V24h1.3c0.7,0,1.4,0,2-0.1v2.5
	c-0.7-0.1-1.4-0.1-2.1-0.1h-1.3L464.4,29.2z M462,19.3V17h-3v2.3L462,19.3z M459,24h3v-2.4h-3V24z M459,29.2h3v-3h-3V29.2z"/>
<path class="st2" d="M491.9,22.2h0.4c0.8,0,1.6,0,2.5-0.1v2.7c-0.8-0.1-1.6-0.2-2.5-0.1h-0.4v6c0.1,0.6-0.2,1.3-0.6,1.7
	c-0.5,0.5-1.3,0.7-3,0.7c-0.5,0-1,0-2.3-0.1c-0.1-0.9-0.3-1.8-0.7-2.6c0.9,0.2,1.9,0.3,2.8,0.3c0.9,0,1.1-0.1,1.1-0.7v-5.2h-6.3
	c-0.9,0-1.9,0-2.8,0.1v-2.2c-1.1,0.5-1.4,0.6-2.2,0.9v7.1c0,2-0.6,2.5-3.3,2.5c-0.5,0-0.8,0-1.6,0c-0.1-0.9-0.3-1.7-0.6-2.5
	c0.9,0.1,1.5,0.1,2.1,0.1s0.8-0.1,0.8-0.8v-5.4c-1.3,0.5-1.3,0.5-1.8,0.6c-0.3,0.1-0.7,0.3-1,0.4l-0.4-2.8c1.1-0.2,2.1-0.4,3.1-0.8
	v-4.6h-1.1c-0.6,0-1.2,0-1.8,0.1v-2.7c0.6,0.1,1.2,0.2,1.9,0.1h1.1v-2.1c0-0.8,0-1.7-0.1-2.5h2.9c-0.1,0.8-0.2,1.7-0.1,2.5v2.1h0.8
	c0.5,0,0.9,0,1.4-0.1v2.6c-0.5-0.1-0.9-0.1-1.4-0.1h-0.8v3.7c0.9-0.3,1.1-0.4,2.1-0.8h-0.1v-2.6c0.6,0.1,1.7,0.1,2.8,0.1h3v-2.5
	h-2.3c-0.8,0-1.7,0-2.5,0.1v-2.6c0.8,0.1,1.7,0.2,2.5,0.1h2.3V12c0-0.6,0-1.3-0.1-1.9h3c-0.1,0.6-0.2,1.2-0.1,1.9v0.8h3
	c0.8,0,1.7,0,2.5-0.1v2.6c-0.8-0.1-1.7-0.1-2.5-0.1h-3v2.5h3.8c0.9,0,1.9,0,2.8-0.1v2.6c-1-0.1-1.9-0.1-2.9-0.1L491.9,22.2z
	 M482.7,19.9c-0.8,0-2,0-2.5,0.1v2c0.9,0.1,1.9,0.1,2.8,0.1h6.3v-2.2H482.7z M483.4,24.9c1.1,1.1,2.1,2.4,3,3.8l-2.2,1.6
	c-0.8-1.5-1.8-2.8-2.9-4L483.4,24.9z"/>
<path class="st2" d="M67.6,79.6c-0.3,0.9-0.9,1.7-1.5,2.4c-0.7,0.7-1.5,1.2-2.4,1.6c-1,0.4-2.1,0.6-3.2,0.6h-4.5V93h-4.6V69.5h9.1
	c1.1,0,2.2,0.2,3.2,0.6c0.9,0.4,1.7,0.9,2.4,1.6c0.7,0.7,1.2,1.4,1.5,2.3C68.3,75.8,68.3,77.8,67.6,79.6L67.6,79.6z M62.7,74.5
	c-0.7-0.6-1.6-0.9-2.5-0.9h-4.3V80h4.3c0.9,0.1,1.8-0.3,2.5-0.9c0.6-0.6,0.9-1.4,0.9-2.3C63.6,76,63.3,75.1,62.7,74.5z"/>
<path class="st2" d="M74,92.9V69.5h4.6v19.3h10.6v4.1H74z"/>
<path class="st2" d="M108.1,92.9l-1.4-4.1h-8.3L97,92.9h-4.8l8.5-23.4h3.6l8.5,23.4H108.1z M102.7,76.4l-3,8.5h5.8L102.7,76.4z"/>
<path class="st2" d="M131.6,92.9l-9.3-14.4v14.4h-4.6V69.5h4.1l9.3,14.3V69.5h4.6v23.4H131.6z"/>
<path class="st1" d="M24.4,420.2c-0.2,0.3-0.4,0.7-0.5,1.1c-0.7,2.6-2,5-3.7,7c-1.8,2-4,3.5-6.4,4.6c-0.4-0.7-0.9-1.4-1.5-1.9
	c1.4-0.5,2.8-1.2,4-2.1c2.5-1.9,4.4-4.6,5.3-7.6l-5.4,0.1c-1.1,1.8-2.5,3.3-4.2,4.6c-0.4-0.7-1-1.2-1.8-1.5c2-1.3,3.6-3.1,4.7-5.2
	c0.5-0.7,0.8-1.5,0.9-2.4l2.5,0.5c-0.1,0.2-0.2,0.4-0.3,0.6c-0.1,0.2-0.2,0.3-0.2,0.5l-0.2,0.5c-0.1,0.2-0.2,0.4-0.3,0.6
	c0.2,0,0.5,0,0.9,0l4,0c0.4,0,0.9,0,1.3-0.2L24.4,420.2z"/>
<path class="st1" d="M33.8,417.5c-0.1,0.5-0.1,1.1-0.1,1.6v5c0,0.5,0,1.1,0.1,1.6h-2.5c0.1-0.5,0.1-1.1,0.1-1.6v-5
	c0-0.5,0-1.1-0.1-1.6L33.8,417.5z M42,417.5c-0.1,0.6-0.1,1.1-0.1,1.7v2.4c0.1,1.8-0.1,3.7-0.5,5.5c-0.6,1.8-1.8,3.3-3.5,4.2
	c-1.1,0.6-2.3,1.1-3.5,1.4c-0.3-0.8-0.7-1.5-1.3-2.1c1.4-0.2,2.7-0.7,3.9-1.4c1.7-1.1,2.3-2.2,2.5-4.6c0.1-1,0.1-2,0.1-3v-2.3
	c0-0.6,0-1.1-0.1-1.7L42,417.5z"/>
<path class="st1" d="M56.8,428.6h4.4c0.8,0,1.6,0,2.3-0.1v2.3c-0.8-0.1-1.5-0.1-2.3-0.1H50.4c-0.8,0-1.5,0-2.3,0.1v-2.3
	c0.8,0.1,1.6,0.2,2.3,0.1h4.1v-7.4h-2.8c-0.8,0-1.5,0-2.3,0.1V419c0.8,0.1,1.6,0.2,2.3,0.1h8c0.8,0,1.6,0,2.3-0.1v2.3
	c-0.8-0.1-1.5-0.1-2.3-0.1h-3L56.8,428.6z"/>
<path class="st1" d="M81.7,418.5c-0.2,0.2-0.5,0.4-0.7,0.6c-1.3,1.4-2.7,2.6-4.3,3.7v7.7c0,0.7,0,1.3,0.1,2h-2.5
	c0.1-0.6,0.1-1.3,0.1-1.9v-6.3c-2,1.2-4.2,2.2-6.4,2.9c-0.3-0.8-0.7-1.5-1.2-2.1c3.4-0.9,6.7-2.5,9.5-4.7c1.3-0.9,2.4-2.1,3.3-3.4
	L81.7,418.5z"/>
<path class="st1" d="M95.4,424.4c0,1.7-0.4,3.4-1.3,4.8c-1,1.6-2.3,2.6-4.7,3.5c-0.3-0.8-0.8-1.5-1.5-2c2.2-0.7,3.5-1.6,4.3-3
	c0.5-1.1,0.8-2.2,0.8-3.4h-4.4c-0.8,0-1.5,0-2.3,0.1v-2.1c0.8,0.1,1.6,0.1,2.3,0.1h10.5c0.8,0,1.6,0,2.3-0.1v2.1
	c-0.8-0.1-1.5-0.1-2.3-0.1L95.4,424.4z M88.2,417.8c0.8,0.1,1.6,0.2,2.3,0.1h6.9c0.8,0,1.6,0,2.3-0.1v2.2c-0.8-0.1-1.5-0.1-2.3-0.1
	h-7c-0.8,0-1.5,0-2.3,0.1L88.2,417.8z"/>
<path class="st1" d="M118.7,421.4c-0.2,0.2-0.4,0.4-0.6,0.6c-1,1.1-2.1,2.1-3.3,3v6.1c0,0.6,0,1.2,0.1,1.7h-2.3
	c0.1-0.6,0.1-1.1,0.1-1.7v-4.8c-1.6,0.9-3.3,1.7-5.1,2.3c-0.3-0.7-0.7-1.3-1.1-1.9c1.5-0.4,2.9-0.9,4.3-1.6c1.9-0.9,3.6-2.2,5.1-3.6
	c0.4-0.4,0.8-0.8,1.1-1.3L118.7,421.4z"/>
<path class="st1" d="M138.8,420.1c-0.1,0.3-0.2,0.5-0.3,0.8c-0.6,2.8-1.8,5.4-3.7,7.5c-1.8,2-4.1,3.6-6.7,4.6
	c-0.4-0.8-0.9-1.5-1.6-2.1c1.4-0.4,2.8-1,4-1.8c2.8-1.8,4.7-4.6,5.4-7.9h-8.6c-0.8,0-1.5,0-2.3,0.1V419c0.8,0.1,1.5,0.2,2.3,0.1h8.3
	c0.5,0,1.1,0,1.6-0.1c-0.3-0.6-0.7-1.2-1.2-1.8l1.4-0.6c0.6,0.7,1.2,1.6,1.6,2.4l-0.8,0.4L138.8,420.1z M139.6,418.9
	c-0.4-0.9-0.9-1.7-1.5-2.4l1.3-0.6c0.6,0.7,1.2,1.5,1.6,2.3L139.6,418.9z"/>
<path class="st1" d="M148.8,417.1c-0.2,0.5-0.3,0.6-0.4,1c-0.3,0.8-0.3,0.8-1.2,2.9v10c0,0.7,0,1.5,0.1,2.2h-2.2
	c0.1-0.7,0.1-1.5,0.1-2.2v-5.2c0-0.5,0-0.5,0.1-2c-0.5,0.7-1.1,1.4-1.7,2.1c-0.2-0.7-0.6-1.5-1-2.1c1.5-1.4,2.6-3.1,3.4-5
	c0.3-0.8,0.6-1.6,0.8-2.4L148.8,417.1z M151.7,420.9c-0.8,1.6-1.8,3.1-2.9,4.4c-0.3-0.6-0.8-1.2-1.3-1.7c1.3-1.3,2.3-2.9,3-4.6
	c0.4-0.8,0.6-1.7,0.8-2.6l2,0.6c-0.2,0.4-0.2,0.6-0.4,1c-0.3,0.8-0.3,0.8-0.4,1.2h4.9c0.7,0,1.3,0,1.9-0.1v1.9
	c-0.5,0-1.2-0.1-1.9-0.1H154v2.3h2.9c0.6,0,1.2,0,1.8-0.1v1.9c-0.6-0.1-1.2-0.1-1.8-0.1H154v2.3h3c0.6,0,1.2,0,1.8-0.1v2
	c-0.6-0.1-1.2-0.1-1.8-0.1h-3v2.1c0,0.7,0,1.4,0.1,2.2H152c0.1-0.7,0.1-1.4,0.1-2.2v-10.2H151.7z"/>
<path class="st1" d="M177.4,422.9l-0.4,1c-0.6,1.6-1.4,3.1-2.4,4.5c0.3,0.6,0.7,1.1,1.1,1.5c0.2,0.3,0.5,0.5,0.8,0.6
	c0.1,0,0.1-0.1,0.2-0.3c0.2-0.7,0.3-1.4,0.3-2.1c0.5,0.5,1,0.9,1.6,1.2c-0.4,2.4-1,3.5-2,3.5s-2.3-1.2-3.4-2.9
	c-1.3,1.3-2.7,2.3-4.4,3.1c-0.4-0.6-0.8-1.1-1.4-1.6c1.8-0.7,3.5-1.9,4.9-3.3c-0.8-2.3-1.3-4.7-1.4-7.2h-5.6c0,1.7,0,1.7,0,2.4h3.3
	c0.4,0,0.9,0,1.3-0.1c0,0.3-0.1,0.8-0.1,1.5c-0.2,3.2-0.3,4.2-0.6,5s-0.9,1-2.3,1c-0.5,0-0.8,0-1.4,0c-0.1-0.7-0.2-1.3-0.5-1.9
	c0.6,0.1,1.2,0.1,1.7,0.1c0.6,0,0.7-0.1,0.8-0.6c0.2-1.1,0.3-2.2,0.3-3.3h-2.6c-0.1,1.5-0.3,3-0.6,4.5c-0.3,1.3-0.8,2.4-1.5,3.5
	c-0.4-0.6-1-1.1-1.6-1.5c0.6-0.9,1-1.8,1.3-2.9c0.4-2.3,0.6-4.7,0.5-7.1c0-0.9,0-1.7-0.1-2.6c0.6,0.1,1.4,0.1,2.3,0.1h5.2
	c0-0.1,0-0.6-0.1-1.4c0-0.4,0-0.8-0.1-1.1h2.1c-0.1,0.6-0.1,1.1-0.1,1.7v0.8h2.4c-0.5-0.6-1-1.2-1.6-1.6l1.4-0.9
	c0.7,0.5,1.3,1.2,1.8,1.9l-0.9,0.6h0.5c0.6,0,1.3,0,1.9-0.1v2c-0.7-0.1-1.5-0.1-2.2-0.1H173c0.1,1.8,0.4,3.6,0.8,5.4
	c0.8-1.3,1.4-2.7,1.7-4.2L177.4,422.9z"/>
<path class="st1" d="M55.3,444.7c0-0.3,0-0.7-0.1-1h2.2c-0.1,0.3-0.1,0.7-0.1,1.1v0.9h4.5c0.7,0,1.4,0,2.1-0.1v2.1
	c-0.7-0.1-1.4-0.1-2.1-0.1H51.2c0,6.8-0.5,9.7-2.3,12.6c-0.5-0.6-1-1.2-1.6-1.7c1.4-2.3,1.8-4.7,1.8-10.4c0-1.4,0-1.9-0.1-2.6
	c0.6,0.1,1.2,0.1,1.9,0.1h4.4L55.3,444.7z M50.6,457.5h0.5c0.2,0,0.9,0,1.3,0c1.5-3,2.5-6.2,3.1-9.5l2.3,0.5c-0.2,0.5-0.2,0.6-0.3,1
	c-0.7,2.7-1.7,5.3-2.9,7.8c2-0.1,3.9-0.4,5.9-0.7c-0.7-1.2-1.4-2.4-2.3-3.5l1.7-1c1.6,2.2,2.9,4.5,4,7l-1.8,1.1
	c-0.4-0.9-0.5-1.2-0.8-2c-2.5,0.5-2.6,0.5-4.6,0.8l-5,0.6c-0.2,0-0.4,0-0.6,0.1L50.6,457.5z"/>
<path class="st1" d="M70.6,447.7c-0.6,0.8-1.2,1.6-2,2.2c-0.4-0.5-1-1-1.6-1.4c1.2-0.9,2.1-2,2.7-3.4c0.2-0.5,0.4-1,0.6-1.5l2.1,0.6
	c-0.4,0.9-0.7,1.4-0.8,1.6H74v-0.6c0-0.6,0-1.1-0.1-1.7h2.2c-0.1,0.6-0.1,1.1-0.1,1.7v0.6h3.6c0.7,0,1.3,0,2-0.1v2
	c-0.6-0.1-1.3-0.1-1.9-0.1H76v2.3h4.8c0.7,0,1.4,0,2.1-0.1v2.1c-0.7-0.1-1.3-0.1-2-0.1h-12c-0.7,0-1.3,0-2,0.1v-2.1
	c0.7,0.1,1.3,0.1,2,0.1h5.2v-2.3H70.6z M68.8,460.2c0.1-0.7,0.1-1.3,0.1-2v-3.3c0-0.6,0-1.1-0.1-1.7c0.6,0.1,1.2,0.1,1.8,0.1h8.6
	c0.6,0,1.2,0,1.8-0.1c-0.1,0.6-0.1,1.1-0.1,1.7v3.3c0,0.7,0,1.3,0.1,2H79v-0.8h-8.1v0.8L68.8,460.2z M70.9,457.6H79V455h-8.1
	L70.9,457.6z"/>
<path class="st1" d="M99,448.2c-0.3,1.3-0.8,2.5-1.4,3.6c-0.6,1.1-1.3,2.1-2.1,3c2.1,1.6,4.5,2.7,7,3.2c-0.5,0.6-1,1.3-1.2,2.1
	c-2.6-0.8-5.1-2.1-7.2-3.8c-1.1,0.9-2.3,1.7-3.5,2.3c-1.2,0.6-2.5,1.1-3.8,1.5c-0.3-0.7-0.7-1.4-1.2-1.9c2.6-0.6,5-1.7,7.1-3.3
	c-0.8-0.9-1.5-1.8-2.1-2.8c-0.7-1.2-1.2-2.5-1.6-3.8H88c-0.7,0-1.5,0-2.2,0.1v-2c0.7,0.1,1.5,0.1,2.3,0.1h4.8v-1.3
	c0-0.5,0-0.9-0.1-1.4H95c-0.1,0.5-0.1,0.9-0.1,1.4v1.3h5c0.8,0,1.5,0,2.3-0.1v2c-0.7-0.1-1.5-0.1-2.2-0.1L99,448.2z M90.9,448.2
	c0.3,1.1,0.8,2.1,1.4,3.1c0.5,0.8,1.1,1.6,1.7,2.3c0.6-0.7,1.2-1.5,1.6-2.3c0.5-1,1-2,1.2-3.1H90.9z"/>
<path class="st1" d="M110.6,444.1c-0.2,0.5-0.3,0.6-0.4,1c-0.3,0.8-0.3,0.8-1.2,2.9v10c0,0.7,0,1.5,0.1,2.2h-2.2
	c0.1-0.7,0.1-1.5,0.1-2.2v-5.2c0-0.5,0-0.5,0.1-2c-0.5,0.7-1.1,1.4-1.7,2.1c-0.2-0.7-0.6-1.5-1-2.1c1.5-1.4,2.6-3.1,3.4-5
	c0.4-0.8,0.6-1.6,0.8-2.4L110.6,444.1z M113.5,447.9c-0.8,1.6-1.8,3.1-3,4.4c-0.3-0.6-0.8-1.2-1.3-1.7c1.3-1.3,2.3-2.9,3-4.6
	c0.4-0.8,0.6-1.7,0.8-2.6l2,0.6c-0.2,0.4-0.2,0.6-0.4,1c-0.3,0.8-0.3,0.8-0.5,1.2h4.9c0.7,0,1.3,0,2-0.1v1.9c-0.5,0-1.2-0.1-2-0.1
	h-3.4v2.3h2.9c0.6,0,1.2,0,1.8-0.1v1.9c-0.6-0.1-1.2-0.1-1.8-0.1h-2.9v2.3h3c0.6,0,1.2,0,1.8-0.1v2c-0.6-0.1-1.2-0.1-1.8-0.1h-3v2.1
	c0,0.7,0,1.4,0.1,2.2h-2.2c0.1-0.7,0.1-1.4,0.1-2.2v-10.2H113.5z"/>
<path class="st1" d="M139.3,449.9l-0.4,1c-0.6,1.6-1.4,3.1-2.4,4.5c0.3,0.6,0.7,1.1,1.1,1.5c0.2,0.3,0.5,0.5,0.8,0.6
	c0.1,0,0.1-0.1,0.2-0.3c0.2-0.7,0.3-1.4,0.4-2.1c0.5,0.5,1,0.9,1.6,1.2c-0.4,2.4-1,3.5-2,3.5s-2.3-1.2-3.4-2.9
	c-1.3,1.3-2.7,2.3-4.4,3.1c-0.4-0.6-0.8-1.1-1.4-1.6c1.8-0.7,3.5-1.9,4.9-3.3c-0.8-2.3-1.3-4.7-1.4-7.2h-5.6c0,1.7,0,1.7,0,2.4h3.3
	c0.4,0,0.9,0,1.3-0.1c0,0.3-0.1,0.8-0.1,1.5c-0.2,3.2-0.3,4.2-0.6,5s-0.9,1-2.3,1c-0.5,0-0.8,0-1.4,0c-0.1-0.7-0.2-1.3-0.5-1.9
	c0.6,0.1,1.2,0.1,1.7,0.1c0.6,0,0.7-0.1,0.8-0.6c0.2-1.1,0.3-2.2,0.3-3.3h-2.6c-0.1,1.5-0.2,3-0.6,4.5c-0.3,1.3-0.8,2.4-1.5,3.5
	c-0.4-0.6-1-1.1-1.6-1.5c0.6-0.9,1-1.8,1.3-2.9c0.4-2.3,0.6-4.7,0.5-7.1c0-0.9,0-1.7-0.1-2.6c0.7,0.1,1.4,0.1,2.3,0.1h5.2
	c0-0.1,0-0.6-0.1-1.4c0-0.4,0-0.8-0.1-1.1h2.1c-0.1,0.6-0.1,1.1-0.1,1.7v0.8h2.4c-0.5-0.6-1-1.2-1.6-1.6l1.4-0.9
	c0.7,0.5,1.3,1.2,1.8,1.9l-0.9,0.6h0.5c0.6,0,1.3,0,1.9-0.1v2c-0.8-0.1-1.5-0.1-2.3-0.1h-3.2c0.1,1.8,0.4,3.6,0.8,5.4
	c0.8-1.3,1.4-2.7,1.7-4.2L139.3,449.9z"/>
<path class="st1" d="M31.6,471.8c0.6,0.1,1.2,0.1,1.8,0.1c1.6,0,3.9-0.1,5.3-0.2c0.6,0,1.1-0.1,1.7-0.3l1.2,1.5
	c-0.4,0.3-0.7,0.6-1,0.9c-1.6,1.4-3.2,2.7-5,3.9c0.9-0.1,2.2-0.3,4.4-0.4l2.4-0.2l1.3-0.1c0.2,0,0.4,0,0.6-0.1l0.1,2.1h-0.5
	c-1.7-0.1-3.4,0.2-5,0.9c-1.5,0.7-2.5,1.8-2.5,2.7c0,1.2,1.3,1.8,3.6,1.8c0.6,0,1.1,0,1.7-0.2l0.1,2.3c-0.2,0-0.4,0-0.7,0h-0.9H40
	c-1.1,0-2.3-0.2-3.3-0.5c-1.5-0.4-2.5-1.7-2.5-3.1c0-0.9,0.4-1.7,1-2.3c0.5-0.6,1.2-1,1.9-1.4c-0.8,0.1-1.3,0.2-2.2,0.3l-2,0.3
	c-0.7,0.1-1.7,0.2-2.9,0.4c-0.3,0-0.6,0.1-0.8,0.2l-0.2-2.2c0.1,0,0.2,0,0.3,0c0.4,0,1.1-0.1,1.5-0.1l0.7-0.1c0.4,0,0.6-0.1,1-0.1
	c2-1.3,3.8-2.8,5.5-4.4c-1.7,0.2-3.3,0.4-5,0.4c-0.4,0-0.8,0.1-1.1,0.1L31.6,471.8z"/>
<path class="st1" d="M55.3,481.5c-1,2.3-2.2,3.4-3.7,3.4c-2,0-3.5-2.1-3.5-5c0-1.9,0.7-3.8,2-5.2c1.6-1.7,3.9-2.6,6.2-2.5
	c4.3,0,7.1,2.6,7.1,6.7c0.1,2.9-1.6,5.6-4.4,6.7c-0.9,0.4-1.9,0.6-2.8,0.8c-0.2-0.8-0.6-1.5-1.1-2.1c1.3-0.1,2.5-0.4,3.6-1
	c1.6-0.9,2.6-2.7,2.5-4.5c0.1-1.6-0.8-3.2-2.2-4c-0.6-0.3-1.2-0.5-1.8-0.5C56.9,476.7,56.3,479.2,55.3,481.5z M52.7,475.1
	c-1.6,1.1-2.5,3-2.5,4.9c0,1.5,0.6,2.6,1.4,2.6c0.6,0,1.2-0.8,1.9-2.3c0.8-2,1.3-4,1.5-6.1C54.2,474.3,53.3,474.6,52.7,475.1z"/>
<path class="st1" d="M68.5,479.9c0-0.4,0-0.4,0.1-2c-0.4,0.8-0.9,1.5-1.5,2.1c-0.2-0.7-0.6-1.5-0.9-2.1c1.4-1.4,2.5-3.1,3.2-5
	c0.3-0.8,0.6-1.6,0.7-2.4l2,0.6c-0.1,0.4-0.2,0.5-0.4,1c-0.3,1-0.7,2-1.3,3v10c0,0.8,0,1.5,0.1,2.2h-2.1c0.1-0.7,0.1-1.5,0.1-2.2
	L68.5,479.9z M74.5,477.9v6.3c0,0.4,0.1,0.5,0.5,0.5c0.7,0.1,1.5,0.2,2.3,0.1c2,0,2.8-0.1,3.2-0.3c0.2-0.2,0.4-0.5,0.4-0.8
	c0-0.3,0.1-0.6,0.1-1.4c0.6,0.3,1.3,0.5,2,0.6c-0.2,2-0.4,2.8-1,3.2s-1.9,0.6-5.2,0.6s-4.2-0.4-4.2-1.8v-6.4
	c-0.2,0.1-0.3,0.1-0.4,0.1c-0.3,0.1-0.7,0.3-1,0.4l-0.2-2c0.5-0.1,1.1-0.2,1.6-0.4v-2.1c0-0.6,0-1.3-0.1-1.9h2.1
	c-0.1,0.6-0.1,1.2-0.1,1.8v1.5l1.8-0.6v-2.9c0-0.6,0-1.2-0.1-1.8h2.1c-0.1,0.6-0.1,1.2-0.1,1.8v2.4l2.6-0.8c0.5-0.1,1-0.3,1.5-0.5
	c0,0.4,0,0.5,0,1c0,2.2-0.2,4.6-0.3,5.8c-0.2,1.4-0.6,1.8-2,1.8c-0.3,0-0.5,0-1,0c-0.1-0.6-0.2-1.3-0.5-1.8c0.4,0.1,0.8,0.1,1.2,0.2
	c0.4,0,0.5-0.1,0.6-1c0.1-1.1,0.2-2.2,0.1-3.3l-2.2,0.7v4.7c0,0.6,0,1.2,0.1,1.8h-2.1c0.1-0.6,0.1-1.2,0.1-1.9v-4L74.5,477.9z"/>
<path class="st1" d="M102.3,475.3c-0.5-0.1-1.1-0.1-1.6-0.1c0,1.6-0.3,3.1-0.9,4.5c-0.3,0.9-0.8,1.8-1.3,2.7c1.1,1.2,2.5,2.2,4,2.9
	c-0.5,0.6-0.9,1.3-1.1,2c-1.6-0.8-2.9-1.9-4.1-3.3c-1.3,1.4-2.9,2.5-4.7,3.3c-0.3-0.7-0.7-1.3-1.2-1.9c1.8-0.6,3.4-1.6,4.7-3
	c-0.8-1.3-1.4-2.7-1.8-4.2c-0.3,0.5-0.7,1-1.1,1.5c-0.4-0.5-0.8-0.9-1.2-1.3c-0.4,0-0.8,0-1.4,0h-2.5v4.3c0,0.6,0.2,0.7,1.4,0.7
	s1.5-0.1,1.7-0.5c0.1-0.7,0.2-1.3,0.2-2v-0.3c0.6,0.3,1.2,0.6,1.9,0.7c0.1,1-0.1,2.1-0.6,3c-0.5,0.6-1.4,0.9-3.4,0.9
	c-2.6,0-3.1-0.3-3.1-1.9v-4.8c0-0.6,0-1.3-0.1-1.9c0.6,0.1,1.2,0.1,1.8,0.1h2.7v-3.3H88c-0.7,0-1.3,0-2,0.1v-2
	c0.7,0.1,1.3,0.1,2,0.1h2.7c0.6,0,1.3,0,1.9-0.1c-0.1,0.6-0.1,1.2-0.1,1.9v3.2c0,0.5,0,0.7,0,1c1-1.4,1.7-2.9,2.2-4.6
	c0.2-0.9,0.4-1.7,0.4-2.6l2.1,0.3c-0.1,0.2-0.2,0.5-0.2,0.7c-0.2,0.7-0.3,1.2-0.5,1.9h4c0.6,0,1.2,0,1.8-0.1L102.3,475.3z M96,475.2
	c-0.2,0.4-0.2,0.4-0.3,0.8c0.2,1.7,0.8,3.4,1.7,4.9c1-1.7,1.5-3.7,1.5-5.6L96,475.2z"/>
<path class="st1" d="M109.4,472.2c-0.3-0.5-0.7-1-1.1-1.5l2-0.4c0.5,0.6,0.9,1.2,1.2,1.8h3c0.5-0.6,0.8-1.2,1.1-1.8l2.1,0.4
	c-0.3,0.5-0.7,1-1.1,1.4h2.1c0.6,0,1.2,0,1.8-0.1v1.7c-0.6-0.1-1.2-0.1-1.8-0.1h-4.9v0.8h4.1c0.6,0,1.1,0,1.7-0.1v1.6
	c-0.6,0-1.1,0-1.7,0h-4.2v0.9h5.5c0.6,0,1.2,0,1.8-0.1v1.7c-0.6-0.1-1.2-0.1-1.8-0.1h-5.5v1.6h1.8c0.4-0.5,0.7-1,1-1.6l1.8,0.7
	l-0.5,0.7l-0.2,0.2h1.5c0.6,0,1.2,0,1.8-0.1v1.7c-0.6-0.1-1.2-0.1-1.8-0.1h-12.6c-0.6,0-1.2,0-1.8,0.1v-1.7c0.6,0.1,1.2,0.1,1.8,0.1
	h1.5c-0.2-0.4-0.5-0.7-0.8-1l1.8-0.6c0.4,0.5,0.7,1,0.9,1.6h1.7v-1.7h-5.2c-0.6,0-1.2,0-1.8,0.1v-1.7c0.6,0.1,1.2,0.1,1.8,0.1h5.2
	V476h-3.8c-0.6,0-1.1,0-1.7,0.1v-1.6c0.6,0.1,1.1,0.1,1.7,0.1h3.8v-0.8h-4.6c-0.6,0-1.2,0-1.8,0.1v-1.7c0.6,0.1,1.2,0.1,1.8,0.1
	L109.4,472.2z M106.7,487.2c0.1-0.6,0.1-1.2,0.1-1.8v-1.7c0-0.5,0-1-0.1-1.5c0.5,0.1,1,0.1,1.5,0.1h9.5c0.5,0,1,0,1.5-0.1
	c-0.1,0.5-0.1,1-0.1,1.4v1.7c0,0.6,0,1.2,0.1,1.8h-2.1v-0.7h-8.4v0.7L106.7,487.2z M108.7,484.9h8.4v-1.1h-8.4L108.7,484.9z"/>
<path class="st1" d="M135.6,485c0.6,0.1,1.3,0.1,1.9,0.1c1.1,0,2,0,3-0.1c-0.2,0.6-0.4,1.3-0.5,1.9h-1.8c-2.6,0-4-0.2-5.1-0.8
	c-0.8-0.4-1.5-1-2-1.6c-0.5,1-1.1,2-1.9,2.8c-0.4-0.5-0.9-0.9-1.4-1.2c-0.2,0.8-0.7,1.1-2.1,1.1c-0.4,0-0.8,0-1.5,0
	c0-0.6-0.2-1.3-0.4-1.9c0.7,0.1,1.1,0.1,1.5,0.1s0.6-0.1,0.6-0.5v-4c-0.4,0.2-0.6,0.2-1,0.3s-0.7,0.3-0.9,0.4l-0.3-2
	c0.7-0.1,1.5-0.3,2.2-0.6v-3.2h-0.8c-0.4,0-0.9,0-1.3,0.1v-1.9c0.4,0.1,0.9,0.1,1.3,0.1h0.7v-1.4c0-0.6,0-1.2-0.1-1.8h2.1
	c-0.1,0.6-0.1,1.2-0.1,1.8v1.4h1.4c0.1,0,0.1,0,0.2,0h0.1v1.9c-0.4,0-0.6,0-1.1,0H128v2.5c0.7-0.3,0.9-0.3,1.6-0.6v0.8
	c0.5,0.1,1,0.1,1.5,0.1h7.5c0.6,0,1.1,0,1.7-0.1v1.8c-0.6-0.1-1.1-0.1-1.7-0.1h-2.9v1.5h2.3c0.5,0,1.1,0,1.6-0.1v1.7
	c-0.5-0.1-1.1-0.1-1.6-0.1h-2.3L135.6,485z M132.4,481.1c-0.1,0.1-0.1,0.4-0.3,1l-0.2,0.7c0.4,0.7,1.1,1.3,1.9,1.7V480h-2.9
	c-0.5,0-0.9,0-1.4,0.1v-0.7c-0.6,0.3-0.8,0.4-1.5,0.6v5.3c0,0.1,0,0.3,0,0.5c0.6-0.6,1.2-1.2,1.6-2c0.5-1,0.9-2.1,1-3.2L132.4,481.1
	z M131.8,477.5c-0.7,0-1,0-1.5,0c0-0.3,0-0.9,0.1-1.8v-2.8c0-0.7,0-1.2-0.1-1.7c0.5,0,1.1,0.1,1.7,0.1h5.4c0.6,0,1.2,0,1.7-0.1
	c-0.1,0.5-0.1,1.1-0.1,1.6v3c0,0.7,0,0.7,0.1,1.8c-0.5,0-1.1-0.1-1.8-0.1L131.8,477.5z M132.1,473.6h5v-0.8h-5V473.6z M132.1,476h5
	v-0.9h-5V476z"/>
<path class="st1" d="M157.1,481.1c0.7,0,1.4,0,2.1-0.1v1.8c-0.6,0-1.2-0.1-2.1-0.1h-3.7c1.8,1.3,3.9,2.2,6.1,2.6
	c-0.4,0.6-0.7,1.2-1,1.8c-1.4-0.4-2.7-0.9-4-1.7c-1-0.6-1.9-1.2-2.7-2c0,0.5,0.1,1.2,0.1,1.4v0.8c0,0.5,0,1,0.1,1.5h-2.1
	c0.1-0.5,0.1-1,0.1-1.5v-0.8c0-0.2,0-0.3,0-0.6v-0.5c0-0.1,0-0.2,0-0.4c-1.8,1.7-4,2.9-6.4,3.6c-0.3-0.6-0.6-1.2-1.1-1.7
	c2.1-0.5,4.1-1.4,5.9-2.7h-3.3c-0.7,0-1.3,0-2,0.1V481c0.7,0.1,1.3,0.1,2,0.1h4.9V481c0-0.4,0-0.8-0.1-1.2h2.1
	c-0.1,0.4-0.1,0.8-0.1,1.2v0.1L157.1,481.1z M155.4,476.2c-0.5,0.6-1,1.2-1.6,1.6c1.5,0.3,3.1,0.8,4.6,1.3l-1.2,1.4
	c-1.7-0.7-3.4-1.3-5.2-1.7c-2.5,1-5.1,1.5-7.8,1.5c-0.2-0.6-0.4-1.1-0.8-1.5h0.5c1.8,0,3.5-0.2,5.2-0.6c-0.6-0.1-1-0.2-3.5-0.5
	c0.6-0.5,1.1-1,1.6-1.6h-2.1c-0.7,0-1.3,0-2,0.1v-1.7c0.6,0.1,1.2,0.1,1.8,0.1h3.5c0.4-0.5,0.7-1,0.9-1.5l1.9,0.5
	c-0.1,0.1-0.3,0.3-0.4,0.5c0,0-0.1,0.2-0.2,0.3c-0.1,0.1-0.1,0.2-0.2,0.3h6.5c0.6,0,1.2,0,1.8-0.1v1.7c-0.7-0.1-1.3-0.1-2-0.1H155.4
	z M150.1,471.6c0-0.4,0-0.8-0.1-1.2h2.2c-0.1,0.4-0.1,0.8-0.1,1.2h4.8c0.6,0,1.3,0,1.9-0.1c-0.1,0.4-0.1,0.9-0.1,1.3v0.5
	c0,0.4,0,0.7,0.1,1.1h-1.9v-1.2h-11.4v1.2h-2c0.1-0.3,0.1-0.7,0.1-1v-0.6c0-0.4,0-0.8-0.1-1.3c0.7,0.1,1.3,0.1,2,0.1L150.1,471.6z
	 M149.5,476.2c-0.2,0.2-0.3,0.3-0.6,0.6c1.3,0.2,1.6,0.3,2.7,0.5c0.6-0.3,1.1-0.7,1.6-1.2L149.5,476.2z"/>
<path class="st2" d="M47.3,385.5l-1.3-4.1h-8.4l-1.4,4.1h-4.8l8.5-23.4h3.6l8.5,23.4H47.3z M41.9,369l-3,8.5h5.8L41.9,369z"/>
<path class="st2" d="M72.3,381.5c-0.5,0.9-1.1,1.7-1.9,2.3c-0.8,0.6-1.6,1.1-2.6,1.4c-1,0.3-2,0.5-3,0.5c-1.2,0-2.4-0.2-3.5-0.7
	c-1.1-0.4-2-1.1-2.8-1.9c-0.6-0.5-1-1.2-1.4-1.9c-0.3-0.7-0.5-1.4-0.7-2.1c-0.1-0.8-0.2-1.6-0.2-2.5c0-0.9,0-1.8,0-2.8
	c0-1,0-2,0-2.8c0-0.8,0.1-1.6,0.2-2.5c0.1-0.7,0.3-1.5,0.7-2.1c0.3-0.7,0.8-1.3,1.4-1.9c1.7-1.7,3.9-2.6,6.3-2.6
	c1,0,2.1,0.1,3.1,0.5c0.9,0.3,1.8,0.8,2.6,1.4c0.8,0.6,1.4,1.4,1.9,2.3c0.5,1,0.9,2.1,1.1,3.2h-4.7c-0.2-0.9-0.7-1.7-1.3-2.3
	c-0.7-0.7-1.7-1-2.7-1c-0.6,0-1.2,0.1-1.7,0.3c-0.5,0.2-0.9,0.5-1.2,0.9c-0.2,0.2-0.4,0.5-0.6,0.8c-0.2,0.4-0.3,0.7-0.3,1.1
	c-0.1,0.6-0.2,1.2-0.2,1.8c0,0.8,0,1.7,0,2.8s0,2,0,2.8c0,0.6,0.1,1.2,0.2,1.8c0.1,0.4,0.2,0.8,0.4,1.2c0.4,0.7,1,1.3,1.8,1.7
	c0.5,0.2,1.1,0.3,1.7,0.3c1,0.1,1.9-0.3,2.7-1c0.6-0.7,1.1-1.5,1.3-2.4h4.6C73.2,379.5,72.9,380.5,72.3,381.5z"/>
<path class="st2" d="M88.2,366.2v19.3h-4.6v-19.3h-6.1v-4.1h16.8v4.1H88.2z"/>
<path class="st2" d="M100,385.5v-23.4h4.6v23.4H100z"/>
<path class="st2" d="M128.4,376.6c0,0.8-0.1,1.6-0.3,2.5c-0.1,0.7-0.4,1.5-0.7,2.1c-0.3,0.7-0.8,1.3-1.4,1.9
	c-1.6,1.7-3.9,2.6-6.3,2.6c-1.2,0-2.4-0.2-3.6-0.7c-1-0.4-2-1.1-2.8-1.9c-0.6-0.5-1-1.2-1.4-1.9c-0.3-0.7-0.5-1.4-0.7-2.1
	c-0.1-0.8-0.2-1.6-0.2-2.5c0-0.9,0-1.8,0-2.8s0-2,0-2.8c0-0.8,0.1-1.6,0.2-2.5c0.1-0.7,0.3-1.5,0.7-2.1c0.3-0.7,0.8-1.3,1.4-1.9
	c0.8-0.8,1.7-1.5,2.8-1.9c1.1-0.5,2.3-0.7,3.6-0.7c1.2,0,2.4,0.2,3.5,0.7c1,0.5,2,1.1,2.8,1.9c0.6,0.5,1,1.2,1.4,1.9
	c0.3,0.7,0.6,1.4,0.7,2.1c0.2,0.8,0.2,1.6,0.3,2.5c0,0.9,0,1.8,0,2.8S128.4,375.8,128.4,376.6z M123.8,371c0-0.6-0.1-1.2-0.2-1.8
	c-0.1-0.4-0.2-0.8-0.4-1.2c-0.2-0.3-0.3-0.6-0.6-0.8c-0.3-0.4-0.8-0.7-1.2-0.9c-0.5-0.2-1.1-0.4-1.7-0.4c-0.6,0-1.2,0.1-1.7,0.4
	c-0.5,0.2-0.9,0.5-1.3,0.9c-0.2,0.2-0.4,0.5-0.5,0.8c-0.2,0.4-0.3,0.8-0.3,1.2c-0.1,0.6-0.2,1.2-0.2,1.8c0,0.7,0,1.7,0,2.8
	s0,2,0,2.8c0,0.6,0.1,1.2,0.2,1.8c0.1,0.4,0.2,0.8,0.3,1.2c0.1,0.3,0.3,0.6,0.5,0.8c0.3,0.4,0.8,0.7,1.3,0.9
	c0.5,0.2,1.1,0.4,1.7,0.4c0.6,0,1.2-0.1,1.7-0.4c0.5-0.2,0.9-0.5,1.2-0.9c0.2-0.2,0.4-0.5,0.6-0.8c0.2-0.4,0.3-0.8,0.4-1.2
	c0.1-0.6,0.2-1.2,0.2-1.8c0-0.7,0-1.7,0-2.8S123.9,371.8,123.8,371z"/>
<path class="st2" d="M148.9,385.5l-9.3-14.3v14.3h-4.6v-23.4h4.1l9.3,14.3v-14.3h4.6v23.4H148.9z"/>
<path class="st1" d="M474.4,144.9c-0.7,0-1.5,0-2.2,0.1v-2.3c0.7,0.1,1.5,0.2,2.3,0.1h8.2V135h-7.9c-0.8,0-1.5,0-2.3,0.1v-2.3
	c0.8,0.1,1.6,0.2,2.3,0.1h8.7c0.9,0,0.9,0,1.6,0c0,0.5-0.1,1,0,1.5v9.9c0,0.6,0,1.2,0.1,1.9h-2.4V145L474.4,144.9z"/>
<path class="st1" d="M503.8,146.4c-1.6-2-3.5-3.8-5.5-5.4c-1.9,2.2-4.2,4-6.9,5.2c-0.4-0.7-0.9-1.4-1.5-2c1.3-0.5,2.5-1.2,3.6-2
	c2.6-1.8,4.7-4.4,6-7.3l0.2-0.5c-0.3,0-0.3,0-6,0.1c-0.7,0-1.3,0-2,0.1l-0.1-2.3c0.5,0.1,1.1,0.1,1.6,0.1h0.4l6.3-0.1
	c0.5,0,1.1,0,1.6-0.2l1.2,1.2c-0.2,0.3-0.4,0.6-0.6,1c-0.7,1.8-1.7,3.5-2.8,5c1.2,0.8,2.3,1.7,3.3,2.6c0.5,0.4,0.5,0.4,2.6,2.5
	L503.8,146.4z"/>
<path class="st1" d="M512.6,146.6c0.1-0.7,0.1-1.3,0.1-2v-11.6c0-0.6,0-1.2-0.1-1.8h2.5c-0.1,0.6-0.1,1.3-0.1,1.9v3.4
	c2.8,1,5.6,2.3,8.2,3.8l-1.3,2.1c-2-1.3-4.2-2.5-6.4-3.4c-0.2-0.1-0.4-0.2-0.6-0.3c0.1,0.4,0.1,0.8,0.1,1.2v4.8c0,0.7,0,1.3,0.1,2
	L512.6,146.6z"/>
<path class="st1" d="M531.7,144.9c-0.7,0-1.5,0-2.2,0.1v-2.3c0.7,0.1,1.5,0.2,2.3,0.1h8.2V135H532c-0.8,0-1.5,0-2.3,0.1v-2.3
	c0.8,0.1,1.6,0.2,2.3,0.1h8.7c0.9,0,0.9,0,1.6,0c0,0.5,0,1,0,1.5v9.9c0,0.6,0,1.2,0.1,1.9h-2.4V145L531.7,144.9z"/>
<path class="st1" d="M548.2,143.7c1.8-0.2,3.6-0.6,5.3-1.3c2.2-0.9,4-2.4,5.3-4.4c0.8-1.1,1.4-2.3,1.8-3.6c0.5,0.7,1.2,1.3,1.9,1.8
	c-1.2,2.8-3.2,5.3-5.7,7c-2.1,1.3-4.4,2.2-6.9,2.7c-0.4,0.1-0.8,0.2-1.2,0.3L548.2,143.7z M549.7,132.5c1.7,1,3.2,2.2,4.7,3.5
	l-1.5,2c-1.3-1.4-2.9-2.7-4.6-3.6L549.7,132.5z"/>
<path class="st1" d="M569.9,146.6c0.1-0.7,0.1-1.3,0.1-2v-11.6c0-0.6,0-1.2-0.1-1.8h2.5c-0.1,0.6-0.1,1.3-0.1,1.9v3.4
	c2.8,1,5.6,2.3,8.2,3.8l-1.3,2.1c-2-1.3-4.2-2.5-6.4-3.4c-0.2-0.1-0.4-0.2-0.6-0.3c0.1,0.4,0.1,0.8,0.1,1.2v4.8c0,0.9,0,1.4,0.1,2
	L569.9,146.6z"/>
<path class="st1" d="M588.9,144.8v1.2h-2.3c0.1-0.5,0.1-1,0.1-1.6v-10.3c0-0.5,0-1-0.1-1.5c0.5,0,1,0.1,1.5,0.1h10.2
	c0.5,0,1,0,1.5-0.1c0,0.5-0.1,0.8-0.1,1.5v10.3c0,0.5,0,1,0.1,1.6h-2.3v-1.2L588.9,144.8z M597.5,134.8h-8.6v8h8.6V134.8z"/>
<path class="st1" d="M604.5,137.7c1,0.1,1.9,0.2,2.9,0.1h9.6c1,0,2,0,2.9-0.1v2.5c-1-0.1-2-0.1-2.9-0.1h-9.6c-1,0-2,0-2.9,0.1
	L604.5,137.7z"/>
<path class="st1" d="M629,131.9c-0.1,1.3-0.2,2.7-0.2,4c-0.1,3.5-0.5,5.5-1.5,7.4c-0.6,1.3-1.5,2.4-2.5,3.3
	c-0.5-0.7-1.1-1.3-1.8-1.8c0.7-0.6,1.4-1.3,1.9-2.1c1.3-2.1,1.7-4.4,1.7-9.4c0-0.5,0-1.1-0.1-1.6L629,131.9z M633.8,131.6
	c-0.1,0.6-0.1,1.1-0.1,1.7l-0.1,10.2c1.1-0.4,2-1.1,2.8-2c0.8-1,1.4-2.1,1.8-3.3c0.5,0.7,1,1.2,1.7,1.7c-0.6,1.6-1.6,3-2.9,4.2
	c-1.2,0.9-2.5,1.7-3.9,2.1c-0.4,0.1-0.5,0.2-0.8,0.3l-1.2-1.2c0.1-0.6,0.2-1.3,0.2-1.9l0.1-10.1v-0.5c0-0.4,0-0.8-0.1-1.2
	L633.8,131.6z"/>
<path class="st1" d="M504,160.5c-0.5,0-1,0-1.7,0.1v-2.2c0.6,0.1,1.1,0.1,1.7,0.1h2.9c0.5,0,1.1,0,1.6-0.1c0,0.4-0.1,0.8-0.1,1.1
	c0,2.5,0.7,5,1.9,7.1c0.8,1.3,1.7,2.5,2.9,3.4c0.8,0.8,1.7,1.5,2.7,2c-0.6,0.6-1.1,1.3-1.5,2c-1.7-1.2-3.2-2.6-4.4-4.2
	c-0.6-0.8-1.2-1.7-1.6-2.7c-0.4-0.8-0.7-1.7-0.9-2.6c-0.5,2-1.4,3.8-2.6,5.4c-1.2,1.6-2.8,3-4.5,4.1c-0.3-0.7-0.8-1.4-1.5-1.9
	c1.3-0.7,2.6-1.7,3.6-2.8c1.4-1.5,2.5-3.3,3.1-5.3c0.4-1.2,0.6-2.4,0.6-3.6L504,160.5z"/>
<path class="st1" d="M523.7,162.8c0.7,1.6,1.7,3,3,4.1c-0.4,0.6-0.7,1.3-0.9,2c-0.9-1.1-1.7-2.3-2.3-3.6c0,0.6,0.1,1.3,0.1,3v4.1
	c0,0.7,0,1.3,0.1,2h-2.2c0.1-0.7,0.1-1.3,0.1-2v-3.7c0-1,0.1-2.3,0.1-3c-0.6,1.8-1.5,3.5-2.7,5c-0.2-0.7-0.6-1.4-1-2
	c1.5-1.7,2.7-3.6,3.3-5.8H520c-0.4,0-0.9,0-1.3,0.1v-2c0.4,0,0.9,0.1,1.3,0h1.6v-1.7c0-0.5,0-1.1-0.1-1.6h2.2
	c-0.1,0.5-0.1,1.1-0.1,1.7v1.6h1.4c0.5,0,1,0,1.4-0.1v2c-0.5-0.1-0.9-0.1-1.4-0.1L523.7,162.8z M529.7,157.8c-0.1,0.7-0.1,1.3-0.1,2
	v11.6c0,0.4,0.3,0.5,1.5,0.5c0.5,0.1,1-0.1,1.3-0.4c0.3-0.4,0.3-1,0.4-3.7c0.6,0.3,1.3,0.6,2,0.7c-0.1,2.9-0.3,3.9-0.8,4.6
	c-0.4,0.5-1.3,0.7-3,0.7c-0.8,0.1-1.7,0-2.5-0.3c-0.6-0.3-1-0.9-0.9-1.6v-12.2c0-0.7,0-1.3-0.1-2L529.7,157.8z"/>
<path class="st1" d="M553.2,165.9c-0.1,0.1-0.2,0.3-0.3,0.4c0,0.1-0.1,0.2-0.1,0.3c-0.6,1.1-1.2,2.2-2,3.2c0.4,1.2,0.9,2.1,1.2,2.1
	s0.4-0.8,0.6-2.3c0.4,0.5,0.9,0.9,1.5,1.2c-0.4,2.4-1,3.5-1.9,3.5c-0.6-0.1-1.2-0.5-1.6-1c-0.5-0.6-0.9-1.3-1.2-2
	c-1.1,1.1-2.3,2-3.7,2.8c-0.3-0.6-0.8-1.1-1.3-1.5c0.7-0.3,1.4-0.7,2-1.1c-0.5,0-1.1-0.1-1.6-0.1H543v1.1c0,0.6,0,1.3,0.1,1.9h-2
	c0.1-0.6,0.1-1.3,0.1-1.9v-1h-2c-0.7,0-1.3,0-2,0.1v-1.9c0.6,0.1,1.3,0.1,1.9,0.1h2v-1.3h-1.7c-0.6,0-1.1,0-1.7,0.1
	c0-0.4,0-0.7,0-1.5v-4c0-0.8,0-1.2,0-1.6c0.5,0.1,0.9,0.1,1.4,0.1h3.9c0.8-1.1,1.3-2.3,1.7-3.6l1.8,0.6c-0.5,1-1,2.1-1.7,3
	c0.4,0,0.9,0,1.3-0.1c-0.1,0.6-0.1,1.1-0.1,1.7v3.8c0,0.5,0,1.1,0.1,1.6c-0.6-0.1-1.1-0.1-1.7-0.1H543v1.3h1.9c0.6,0,1.2,0,1.8-0.1
	v1.7c0.8-0.5,1.5-1.2,2.1-1.8c-0.4-1.6-0.6-3.2-0.7-4.8c-0.5,0-0.9,0.1-1.4,0.2l-0.1-1.9h0.3c0.3,0,0.7,0,1.1-0.1
	c0-0.9-0.1-2.1-0.1-3.4c0-0.5,0-1-0.1-1.6h2.1c-0.1,0.6-0.1,1.1-0.1,1.7c0,0.9,0,2,0,3.1l2.2-0.2c0.5,0,1.1-0.1,1.6-0.2l0.1,1.9
	h-0.2c-0.4,0-0.7,0-1.4,0.1l-2.2,0.2c0.1,1.1,0.2,2.2,0.4,3.3c0.6-0.8,1-1.8,1.3-2.7L553.2,165.9z M538.9,157.9
	c0.5,0.8,1,1.8,1.3,2.7l-1.7,0.6c-0.3-0.9-0.7-1.8-1.2-2.7L538.9,157.9z M539.6,163v1.1h1.6V163L539.6,163z M539.6,165.6v1.2h1.6
	v-1.2H539.6z M542.2,157.7c0.4,0.9,0.8,1.9,1.1,2.9l-1.7,0.5c-0.2-1-0.5-1.9-1-2.8L542.2,157.7z M542.9,164.1h1.6V163H543
	L542.9,164.1z M542.9,166.8h1.6v-1.2H543L542.9,166.8z M551.9,162c-0.5-1.1-1.1-2.1-1.9-3l1.3-0.8c0.7,0.9,1.4,1.8,1.9,2.9
	L551.9,162z"/>
<path class="st1" d="M563.8,167.9c-0.2-0.4-0.4-0.8-0.6-1.2v3.4c0,0.6,0,1.2,0.1,1.8h-1.6v-0.8h-3.2v1.4h-1.7
	c0.1-0.7,0.1-1.4,0.1-2.1v-10.1c0-0.8,0-1.4-0.1-1.8c0.4,0,1,0.1,1.7,0.1h3c0.9,0,1.3,0,1.8-0.1c0,0.3-0.1,1.1-0.1,1.8v1.6
	c1.4-1.1,2.5-2.7,3-4.4l1.8,0.6c-0.1,0.2-0.1,0.2-0.3,0.5l-0.2,0.4h2.3c0.5,0,1,0,1.4-0.1l1,1.2c-0.1,0.1-0.1,0.2-0.2,0.4
	c-0.7,1.3-1.6,2.6-2.6,3.7c1.2,0.8,2.5,1.4,3.9,1.9c-0.4,0.6-0.7,1.2-0.8,1.9c-0.4-0.2-0.5-0.2-0.7-0.3c0,0.3,0,0.5,0,1v3.9
	c0,0.7,0,1.3,0.1,2h-2v-0.9h-3.7v0.9h-2c0.1-0.7,0.1-1.3,0.1-2v-3.9c0-0.4,0-0.5,0-0.8L563.8,167.9z M558.4,163.9h0.9v-3.6h-0.9
	V163.9z M558.4,169.4h0.9v-3.8h-0.9V169.4z M560.8,163.9h0.9v-3.6h-0.9V163.9z M560.8,169.4h0.9v-3.8h-0.9V169.4z M563.2,166.2
	c1.3-0.5,2.5-1.1,3.6-2c-0.6-0.5-1-1.1-1.5-1.8c-0.4,0.5-0.9,1-1.4,1.4c-0.3-0.5-0.4-0.6-0.8-1V166.2z M570.4,167.3
	c0.5,0,0.7,0,0.9,0c-1.1-0.5-2.2-1.2-3.2-2c-0.9,0.8-1.9,1.4-3,2H570.4L570.4,167.3z M566.2,171.7h3.7V169h-3.7V171.7z M566.7,160.6
	l-0.3,0.4c0.4,0.8,1,1.4,1.6,2c0.7-0.7,1.3-1.6,1.7-2.4H566.7z"/>
<path class="st1" d="M575.5,160.6c0.5,0.1,1,0.1,1.5,0.1h3.7c0.5,0,1,0,1.5-0.1v1.9c-0.5-0.1-0.9-0.1-1.4-0.1H577
	c-0.5,0-1,0-1.5,0.1L575.5,160.6z M591.1,166.1c-0.1,0.2-0.3,0.5-0.4,0.7c-0.6,1.4-1.4,2.7-2.4,3.8c1.2,0.8,2.6,1.3,4,1.6
	c-0.4,0.6-0.7,1.3-0.9,1.9c-1.6-0.5-3.1-1.2-4.5-2.3c-1.3,1-2.8,1.8-4.3,2.3c-0.2-0.6-0.5-1.1-0.9-1.5c0,0.4,0,0.9,0.1,1.3h-1.8
	v-0.6h-2.1v0.9H576c0.1-0.6,0.1-1.2,0.1-1.8v-2.6c0-0.5,0-0.9-0.1-1.4c0.5,0,0.8,0.1,1.4,0.1h3.1c0.4,0,0.8,0,1.2-0.1
	c-0.1,0.4-0.1,0.9-0.1,1.3v2.7c1.4-0.4,2.7-1,3.8-1.8c-1-1.1-1.8-2.3-2.3-3.7c-0.3,0-0.5,0-0.8,0.1v-1.9c0.4,0.1,0.8,0.1,1.2,0.1
	h5.3c0.4,0,0.8,0,1.3-0.1L591.1,166.1z M576.1,158.1c0.5,0.1,1,0.1,1.5,0.1h2.6c0.5,0,1,0,1.5-0.1v1.7c-0.5-0.1-1-0.1-1.5-0.1h-2.6
	c-0.5,0-1,0-1.5,0.1V158.1z M576.1,163.4c0.4,0,0.8,0.1,1.2,0.1h3.2c0.4,0,0.8,0,1.2-0.1v1.6c-0.4,0-0.8-0.1-1.2-0.1h-3.2
	c-0.4,0-0.8,0-1.2,0.1V163.4z M576.1,165.9c0.4,0,0.8,0.1,1.2,0.1h3.2c0.4,0,0.8,0,1.2-0.1v1.7c-0.4-0.1-0.8-0.1-1.2-0.1h-3.2
	c-0.4,0-0.8,0-1.2,0.1L576.1,165.9z M577.8,171.9h2.1v-1.8h-2.1V171.9z M585.4,160c0,1.2-0.2,2.4-0.7,3.4c-0.3,0.7-0.8,1.2-1.3,1.7
	c-0.5-0.5-1-0.9-1.6-1.2c1.4-1,1.9-2.1,1.9-4.5c0-0.4,0-0.8-0.1-1.2c0.5,0.1,0.9,0.1,1.4,0.1h2.8c0.5,0,1,0,1.5-0.1
	c-0.1,0.5-0.1,1-0.1,1.5v2.7c0,0.2,0.1,0.3,0.5,0.3c0.7,0,0.7,0,0.8-2.2c0.5,0.3,1.1,0.5,1.6,0.6c-0.2,3-0.4,3.2-2.7,3.2
	c-1.7,0-2.1-0.2-2.1-1.2V160H585.4z M585,167c0.4,1,1,1.9,1.8,2.6c0.7-0.8,1.3-1.6,1.8-2.6H585z"/>
<path class="st1" d="M601.9,164.6h-2.7c-0.6,0-1.2,0-1.8,0.1v-1.9c0.6,0.1,1.2,0.1,1.8,0.1h6.9c0.6,0,1.2,0,1.8-0.1v1.9
	c-0.6-0.1-1.2-0.1-1.8-0.1h-2.4v2.4h3.4c0.6,0,1.2,0,1.8-0.1v1.9c-0.6-0.1-1.2-0.1-1.8-0.1h-3.4v3.1c1,0.1,2,0.2,2.9,0.2
	c1,0,2.3,0,4.1-0.2c-0.3,0.6-0.4,1.3-0.5,2c-1.5,0-2.4,0.1-3.8,0.1c-4.2,0-6.6-0.9-8-3.1c-0.6,1.3-1.4,2.5-2.5,3.5
	c-0.4-0.6-0.9-1.1-1.5-1.5c1.5-1.4,2.6-3.1,3.1-5.1c0.2-0.6,0.3-1.3,0.4-1.9l2,0.4c-0.1,0.3-0.1,0.3-0.3,1.1
	c-0.1,0.4-0.2,0.8-0.5,1.6c0.6,1.1,1.6,2,2.7,2.5L601.9,164.6z M601.6,158.9c0-0.4,0-0.8-0.1-1.1h2.2c-0.1,0.4-0.1,0.8-0.1,1.1v0.7
	h4.9c0.7,0,1.3,0,2-0.1c-0.1,0.4-0.1,0.9-0.1,1.3v1.4c0,0.5,0,0.9,0.1,1.4h-1.9v-2.3h-11.6v2.3h-2c0.1-0.5,0.1-1,0.1-1.4v-1.4
	c0-0.5,0-0.9-0.1-1.3c0.7,0,1.3,0.1,2,0.1h4.7L601.6,158.9z"/>
<path class="st2" d="M551.9,83.8c0,0.8-0.1,1.7-0.2,2.5c-0.1,0.8-0.4,1.6-0.7,2.3c-0.4,0.8-0.9,1.5-1.5,2.1
	c-0.8,0.8-1.7,1.3-2.7,1.7c-1.1,0.4-2.3,0.6-3.4,0.6h-8.4V69.5h8.4c1.2,0,2.3,0.2,3.4,0.5c1,0.3,2,0.9,2.7,1.7
	c0.6,0.6,1.1,1.3,1.5,2.1c0.3,0.7,0.6,1.5,0.7,2.3c0.1,0.8,0.2,1.6,0.2,2.5L551.9,83.8L551.9,83.8z M547.3,78.8
	c0-0.7-0.1-1.2-0.1-1.7c0-0.4-0.1-0.8-0.3-1.2c-0.1-0.3-0.3-0.6-0.5-0.9c-0.4-0.4-0.8-0.8-1.4-1c-0.6-0.3-1.3-0.4-2-0.4h-3.5v15.2
	h3.4c0.7,0,1.4-0.1,2-0.4c0.5-0.2,1-0.6,1.4-1.1c0.5-0.6,0.7-1.4,0.8-2.2c0.1-1.4,0.2-2.7,0.2-4.1C547.3,80.2,547.3,79.5,547.3,78.8
	z"/>
<path class="st2" d="M575,84c0,0.8-0.1,1.6-0.3,2.5c-0.1,0.7-0.4,1.5-0.7,2.2c-0.3,0.7-0.8,1.3-1.4,1.9c-1.6,1.7-3.9,2.6-6.3,2.6
	c-1.2,0-2.4-0.2-3.5-0.7c-1-0.5-2-1.1-2.8-1.9c-0.6-0.5-1-1.2-1.4-1.9c-0.3-0.7-0.6-1.4-0.7-2.1c-0.1-0.8-0.2-1.6-0.2-2.5
	c0-0.9,0-1.8,0-2.8s0-2,0-2.8c0-0.8,0.1-1.6,0.2-2.5c0.1-0.7,0.4-1.5,0.7-2.2c0.3-0.7,0.8-1.3,1.4-1.9c0.8-0.8,1.7-1.5,2.8-1.9
	c1.1-0.5,2.3-0.7,3.5-0.7c1.2,0,2.4,0.2,3.5,0.7c1,0.5,2,1.1,2.8,1.9c0.6,0.5,1,1.2,1.4,1.9c0.3,0.7,0.6,1.4,0.7,2.2
	c0.1,0.8,0.2,1.6,0.3,2.5c0,0.9,0,1.8,0,2.8S575,83.2,575,84z M570.4,78.4c0-0.6-0.1-1.2-0.2-1.8c-0.1-0.4-0.2-0.8-0.4-1.2
	c-0.2-0.3-0.3-0.6-0.6-0.8c-0.3-0.4-0.8-0.7-1.2-0.9c-0.5-0.2-1.1-0.4-1.7-0.3c-0.6,0-1.2,0.1-1.7,0.3c-0.5,0.2-0.9,0.5-1.3,0.9
	c-0.2,0.2-0.4,0.5-0.5,0.8c-0.2,0.4-0.3,0.8-0.3,1.2c-0.1,0.6-0.2,1.2-0.2,1.8c0,0.7,0,1.7,0,2.8s0,2,0,2.8c0,0.6,0.1,1.2,0.2,1.8
	c0.1,0.4,0.2,0.8,0.3,1.2c0.1,0.3,0.3,0.6,0.5,0.8c0.3,0.4,0.8,0.7,1.3,0.9c0.5,0.2,1.1,0.4,1.7,0.3c0.6,0,1.2-0.1,1.7-0.3
	c0.5-0.2,0.9-0.5,1.2-0.9c0.2-0.2,0.4-0.5,0.6-0.8c0.2-0.4,0.3-0.8,0.4-1.2c0.1-0.6,0.2-1.2,0.2-1.8c0-0.7,0-1.7,0-2.8
	S570.4,79.2,570.4,78.4L570.4,78.4z"/>
<path class="st1" d="M501.3,418.9c-0.7,0-1.3,0-2,0.1v-2c0.7,0.1,1.3,0.1,2,0.1h4.4c0.7,0,1.3,0,2-0.1v1.9c-0.5,0-1.2-0.1-1.8-0.1
	h-0.6v1.5h0.3c0.6,0,1.2,0,1.9-0.1c0,0.6,0,1.2,0,2v8.6c0,0.9,0,1.5,0.1,2h-1.7v-0.7h-4.3v1h-1.8c0.1-0.8,0.1-1.6,0.1-2.5v-8.3
	c0-0.9,0-1.5-0.1-2.2c0.6,0.1,1.2,0.1,1.8,0.1h0.4v-1.5L501.3,418.9z M501.4,427.6h4.3v-1.4h-0.5c-1.2,0-1.4-0.1-1.4-0.8v-3.5h-0.5
	v0.2c0,1.1-0.1,2.3-0.4,3.4c-0.1,0.7-0.4,1.3-0.8,1.9c-0.2-0.5-0.4-0.9-0.8-1.3L501.4,427.6z M501.4,425.8c0.6-1.3,0.8-2.6,0.7-4
	h-0.7V425.8z M501.4,430.5h4.3v-1.4h-4.3V430.5z M503.4,420.3h0.5v-1.5h-0.5V420.3z M505,424.3c0,0.3,0,0.3,0.7,0.3v-2.8H505
	L505,424.3z M514.9,422.9c0,0.6,0,1.2,0.1,1.8c-0.6,0-1-0.1-1.8-0.1h-2.9v5.9c0,0.3,0,0.4,0.1,0.5c0.4,0.1,0.8,0.2,1.3,0.1
	c1.3,0,1.7-0.1,1.9-0.6c0.2-0.9,0.2-1.8,0.2-2.6c0.6,0.4,1.2,0.6,1.9,0.7c-0.1,2.2-0.3,3-0.6,3.5s-1.3,0.8-3.4,0.8
	c-2.8,0-3.2-0.2-3.2-1.9v-6.6c0-0.6,0-1.2-0.1-1.8c0.5,0,1,0.1,1.8,0.1h2.9V419h-2.9c-0.7,0-1.3,0-2,0.1v-2c0.7,0.1,1.3,0.1,2,0.1h3
	c0.6,0,1.2,0,1.8-0.1c0,0.6-0.1,1-0.1,1.8L514.9,422.9z"/>
<path class="st1" d="M521.8,431.1c0,0.7,0,1.4,0.1,2.1h-2.1c0.1-0.7,0.1-1.4,0.1-2.1v-5.4c0-0.6,0-0.7,0.1-2c-0.4,0.7-0.8,1.4-1.3,2
	c-0.2-0.7-0.5-1.5-0.8-2.1c1.2-1.3,2.1-2.9,2.7-4.6c0.3-0.8,0.5-1.6,0.7-2.5l2,0.7c0,0.2-0.2,0.5-0.4,1.1c-0.3,0.9-0.6,1.8-1,2.6
	L521.8,431.1z M522.8,419.7c0.5,0.1,1,0.1,1.5,0.1h8.8c0.6,0,1.1,0,1.7-0.1v1.9c-0.6-0.1-1.1-0.1-1.7-0.1h-8.8c-0.5,0-1,0-1.5,0.1
	L522.8,419.7z M525.5,433.2h-1.9c0.1-0.6,0.1-1.1,0.1-1.7V429c0-0.5,0-1-0.1-1.5c0.4,0,0.9,0,1.5,0h6.8c0.7,0,1.1,0,1.5,0
	c-0.1,0.5-0.1,1-0.1,1.5v2.5c0,0.6,0,1.1,0.1,1.7h-2v-0.8h-5.9L525.5,433.2z M533.4,424c-0.5-0.1-0.9-0.1-1.4-0.1h-7
	c-0.4,0-0.8,0-1.3,0.1v-1.7c0.4,0.1,0.8,0.1,1.3,0.1h6.9c0.5,0,0.9,0,1.4-0.1L533.4,424z M533.4,426.6c-0.5-0.1-0.9-0.1-1.4-0.1h-7
	c-0.4,0-0.8,0-1.3,0.1v-1.7c0.4,0.1,0.8,0.1,1.3,0.1h6.9c0.5,0,0.9,0,1.4-0.1L533.4,426.6z M533.4,418.9c-0.6-0.1-1.2-0.1-1.8-0.1
	h-6.1c-0.5,0-1.1,0-1.6,0.1v-1.7c0.6,0.1,1.2,0.1,1.8,0.1h5.8c0.6,0,1.3,0,1.9-0.1L533.4,418.9z M531.5,430.7v-1.5h-5.9v1.5H531.5z"
	/>
<path class="st1" d="M539.5,427.1c0,1.8-0.3,3.6-0.8,5.3l-1.6-0.8c0.5-1.5,0.8-3.2,0.8-4.8L539.5,427.1z M537.2,424.2
	c0.5,0,0.7,0,1.2,0h0.3c0.5-0.6,0.5-0.7,0.8-1.1c-0.7-0.9-1.5-1.8-2.4-2.6l1-1.5l0.5,0.6c0.6-1,1.1-2,1.4-3.1l1.8,0.7
	c-0.2,0.2-0.3,0.4-0.4,0.7c-0.5,1-1.1,2-1.7,3c0.3,0.3,0.4,0.4,0.7,0.8c0.7-0.9,1.2-1.9,1.7-3l1.6,0.9c-0.2,0.3-0.3,0.5-0.6,0.9
	c-1.1,1.7-1.8,2.7-2.6,3.8c0.9-0.1,1.2-0.1,2-0.1c-0.1-0.4-0.3-0.9-0.5-1.3l1.3-0.5c0.6,1.2,1,2.4,1.3,3.6l-1.4,0.6
	c-0.1-0.4-0.1-0.5-0.2-0.8l-1.3,0.1v5.6c0,0.6,0,1.3,0.1,1.9h-2c0.1-0.6,0.1-1.3,0.1-1.9v-5.4l-2.7,0.2L537.2,424.2z M543.7,426.7
	c0.3,1.4,0.5,2.9,0.6,4.4l-1.5,0.3c0-1.5-0.2-2.9-0.5-4.3L543.7,426.7z M546.2,420.7c-0.7,0-1.3,0-2,0.1v-1.9c0.7,0.1,1.3,0.1,2,0.1
	h1.7v-1c0-0.5,0-0.9-0.1-1.4h2.1c-0.1,0.5-0.1,0.9-0.1,1.4v1h2c0.7,0,1.3,0,2-0.1v1.9c-0.7-0.1-1.3-0.1-2-0.1h-2v2.1h1.7
	c0.6,0,1.3,0,1.9-0.1v2c-0.6-0.1-1.3-0.1-1.9-0.1h-4.8c-0.7,0-1.3,0-1.9,0.1v-1.9c0.6,0.1,1.3,0.1,1.9,0.1h1.2v-2.1L546.2,420.7z
	 M546.8,433.1h-2c0.1-0.6,0.1-1.2,0.1-1.8v-3.8c0-0.6,0-1.2-0.1-1.7c0.5,0.1,1.1,0.1,1.6,0.1h4.9c0.5,0,1.1,0,1.6-0.1
	c-0.1,0.6-0.1,1.2-0.1,1.7v3.6c0,0.7,0,1.4,0.1,1.9h-2v-0.9h-4.2L546.8,433.1z M546.8,430.5h4.2v-2.9h-4.2L546.8,430.5z"/>
<path class="st1" d="M560.3,424.6c-0.7,0-1.5,0-2.2,0.1c0.1-0.7,0.1-1.3,0.1-2v-3.5c0-0.6,0-1.3-0.1-1.9c0.7,0.1,1.4,0.1,2.1,0.1
	h8.5c0.7,0,1.4,0,2.2-0.1c-0.1,0.7-0.1,1.3-0.1,2v3.4c0,0.7,0,1.3,0.1,2c-0.7-0.1-1.5-0.1-2.2-0.1h-3.4v1h5.2c0.7,0,1.4,0,2.1-0.1v2
	c-0.7-0.1-1.3-0.1-2-0.1h-3.9c0.7,0.8,1.5,1.5,2.5,2c1.2,0.7,2.5,1.2,3.9,1.6c-0.4,0.6-0.7,1.2-1,1.9c-2.6-0.8-4.9-2.4-6.6-4.4
	c0,0.2,0,0.2,0,0.6s0,0.5,0,0.7v1.6c0,0.7,0,1.3,0.1,2h-2.2c0.1-0.6,0.1-1.3,0.1-1.9v-1.6c0-0.7,0-0.7,0.1-1.2
	c-0.8,1-1.8,1.8-2.8,2.6c-1.1,0.7-2.2,1.4-3.5,1.9c-0.3-0.7-0.6-1.3-1.1-1.9c1.2-0.4,2.4-0.9,3.5-1.6c0.9-0.6,1.8-1.3,2.4-2.1h-3.6
	c-0.7,0-1.3,0-2,0.1v-2c0.7,0.1,1.3,0.1,2,0.1h5v-1L560.3,424.6z M560.2,418.9v1.2h3.3v-1.2H560.2z M560.2,421.7v1.2h3.3v-1.2H560.2
	z M565.4,420.2h3.6v-1.2h-3.6V420.2z M565.4,422.9h3.6v-1.2h-3.6V422.9z"/>
<path class="st1" d="M584.5,422.4c-0.7,0-1,0-1.5,0v-0.8c-0.5,0.4-1.1,0.8-1.7,1.2c-0.2-0.4-0.4-0.8-0.6-1.1c-0.3,0-0.4,0-0.6,0
	h-0.5c0.4,1.1,1.1,2.2,1.8,3.1c-0.3,0.5-0.6,1.1-0.8,1.7c-0.5-0.8-0.9-1.6-1.2-2.4c0,0.5,0.1,1.3,0.1,2.4v4.6c0,0.7,0,1.5,0.1,2.2
	h-2c0.1-0.7,0.1-1.5,0.1-2.2v-3.7c0-0.6,0-1.5,0.1-2.4c-0.2,0.9-0.5,1.7-0.9,2.5c-0.1,0.2-0.3,0.7-0.8,1.6c-0.2-0.7-0.6-1.3-1-1.9
	c1.1-1.7,1.9-3.6,2.4-5.6h-0.7c-0.4,0-0.8,0-1.2,0.1v-2c0.4,0.1,0.8,0.1,1.2,0.1h0.9v-1.4c0-0.6,0-1.3-0.1-1.9h2
	c-0.1,0.6-0.1,1.2-0.1,1.9v1.4h0.5c0.3,0,0.7,0,1-0.1v1c0.7-0.4,1.3-0.9,1.9-1.5c0.8-0.7,1.6-1.6,2.1-2.6h2c0.5,0.9,1.3,1.7,2.1,2.3
	c1,0.8,2,1.4,3.2,1.9c-0.4,0.5-0.7,1.1-0.9,1.8c-0.7-0.3-1.4-0.7-2-1.2v1c-0.4,0-0.7,0-1.5,0h-1v1.1h2.4c0.7,0,1.1,0,1.6-0.1
	c0,0.5,0,0.9,0,1.4v2.3c0,0.6,0,0.9,0,1.4c-0.6-0.1-1.1-0.1-1.7-0.1h-1.9c1.2,1.5,2.9,2.6,4.8,2.9c-0.5,0.6-0.8,1.2-1,1.9
	c-1.3-0.5-2.6-1.2-3.6-2.1c-0.6-0.5-1.1-1.2-1.5-1.9c-0.9,2-2.7,3.5-4.8,4c-0.2-0.7-0.6-1.3-1.1-1.8c2.3-0.5,3.5-1.3,4.4-3h-1.4
	c-0.6,0-1.1,0-1.7,0.1c0-0.5,0.1-0.7,0.1-1.1v-2.6c0-0.4,0-0.8-0.1-1.2c0.5,0.1,1,0.1,1.5,0.1h2.2v-1.1H584.5z M583.3,425v1.8h1.7
	c0.1-0.6,0.1-1.2,0.1-1.8H583.3z M587.9,420.7h0.4c-0.9-0.7-1.7-1.5-2.3-2.5c-0.5,0.9-1.2,1.7-2,2.5H587.9L587.9,420.7z M587,425
	c0,0.6-0.1,1.2-0.2,1.8h2.3V425H587z"/>
<path class="st1" d="M594.4,419.5c0.5,0.1,1,0.1,1.4,0.1h3.8c0.5,0,1,0,1.4-0.1v1.9c-0.5-0.1-0.9-0.1-1.4-0.1h-3.8
	c-0.5,0-1,0-1.4,0.1V419.5z M594.9,433.2c0.1-0.6,0.1-1.2,0.1-1.8v-2.7c0-0.5,0-0.9-0.1-1.4c0.5,0.1,0.9,0.1,1.4,0.1h3
	c0.4,0,0.8,0,1.2,0c0,0.4-0.1,0.9-0.1,1.3v2.9c0,0.5,0,0.9,0.1,1.4h-1.8v-0.6h-2v0.9L594.9,433.2z M595,417c0.5,0.1,1,0.1,1.5,0.1
	h2.6c0.5,0,1,0,1.5-0.1v1.7c-0.5-0.1-1-0.1-1.5-0.1h-2.6c-0.5,0-1,0-1.5,0.1V417z M595.1,422.3c0.4,0,0.8,0,1.2,0h3.2
	c0.4,0,0.8,0,1.2,0v1.7c-0.4,0-0.6,0-1.2,0h-3.2c-0.4,0-0.8,0-1.2,0V422.3z M595.1,424.8c0.4,0,0.8,0.1,1.2,0.1h3.2
	c0.4,0,0.8,0,1.2-0.1v1.7c-0.4-0.1-0.8-0.1-1.2-0.1h-3.1c-0.4,0-0.8,0-1.2,0.1L595.1,424.8z M596.8,430.8h2V429h-2V430.8z
	 M605.5,419.2h-2c-0.7,0-1.4,0-2.1,0.1v-2c0.7,0.1,1.4,0.1,2.1,0.1h5.3c0.7,0,1.4,0,2.1-0.1v2c-0.7-0.1-1.4-0.1-2.1-0.1h-1.5v4.4
	h1.5c0.6,0,1.2,0,1.8-0.1v2c-0.6-0.1-1.2-0.1-1.8-0.1h-1.5v5.3h1.7c0.7,0,1.3,0,2-0.1v2.1c-0.7-0.1-1.3-0.1-2-0.1H603
	c-0.7,0-1.3,0-2,0.1v-2c0.4,0.1,0.7,0.1,1.1,0.1v-6.9c0-0.7,0-1.3-0.1-2h2c-0.1,0.7-0.1,1.3-0.1,2v6.9h1.6L605.5,419.2z"/>
<path class="st1" d="M457.4,453.5c0,2-0.7,2.6-2.7,2.6h-0.3c0-0.6-0.1-1.2-0.4-1.8c0.5,0,0.6,0.1,0.9,0.1c0.5,0,0.7-0.3,0.7-1
	c0-0.6-0.1-1.1-0.2-1.7c-0.2-0.8-0.6-1.5-1.2-2c0.7-1.2,1.3-2.5,1.7-3.9h-2V458c0,0.8,0,1.6,0.1,2.2h-2.1c0.1-0.7,0.1-1.5,0.1-2.2
	v-12.2c0-0.6,0-1.2,0-1.7c0.3,0,0.8,0,1.4,0h2.4c0.4,0,0.9,0,1.3-0.1l1,0.9c-0.2,0.4-0.2,0.4-0.3,0.6c-0.3,1-0.5,1.4-0.9,2.3
	c0.8-0.4,1.5-0.9,2.1-1.5c0.9-0.8,1.6-1.7,2.1-2.7h2c1.2,2,3.1,3.5,5.3,4.4c-0.4,0.6-0.7,1.3-0.8,2c-0.6-0.3-1.1-0.6-1.6-1v1.2
	c-0.5-0.1-1-0.1-1.5-0.1H463v1.5h3c0.6,0,1.2,0,1.7-0.1v2c-0.6-0.1-1.2-0.1-1.7-0.1h-3v4.7c0,1.4-0.5,1.8-2.4,1.8
	c-0.4,0-0.8,0-1.6,0c0-0.7-0.2-1.3-0.5-1.9c0.6,0.1,1.2,0.1,1.7,0.2c0.7,0,0.9-0.1,0.9-0.5v-4.3L457.4,453.5z M460.1,454.7
	c-0.4,1.1-0.9,2.1-1.5,3c-0.5,0.7-1,1.3-1.6,1.8c-0.4-0.6-0.8-1.1-1.4-1.5c0.6-0.5,1.2-1,1.6-1.6c0.5-0.7,0.9-1.6,1.2-2.5
	L460.1,454.7z M461.1,450.3h-1c-0.5,0-1,0-1.5,0.1v-1.2c-0.4,0.3-0.5,0.4-1,0.6c-0.2-0.5-0.5-1-0.9-1.4c-0.2,0.4-0.3,0.6-0.6,1.2
	c0.5,0.6,0.9,1.4,1.1,2.2h3.9L461.1,450.3z M464.4,448.6c0.4,0,0.5,0,0.8,0c-1.2-0.9-2.2-1.9-3-3.2c-0.8,1.2-1.7,2.3-2.9,3.2
	L464.4,448.6L464.4,448.6z M465.5,454.1c0.3,0.8,0.7,1.5,1.2,2.2c0.4,0.6,0.9,1.2,1.5,1.7c-0.5,0.5-1,1-1.3,1.6
	c-1.3-1.4-2.3-3-2.9-4.8L465.5,454.1z"/>
<path class="st1" d="M474.7,450.1c0.7,0.5,1.4,1.2,2,1.8c0.5-1.4,0.9-2.8,1.1-4.3h-2.6c-0.8,2.1-2,3.9-3.5,5.6
	c-0.3-0.7-0.7-1.2-1.2-1.7c1.5-1.6,2.6-3.5,3.3-5.6c0.2-0.8,0.4-1.6,0.5-2.4l2.1,0.4c-0.1,0.4-0.2,0.6-0.3,1s-0.2,0.7-0.3,1h2.6
	c0.7,0,1,0,1.5,0c-0.1,0.4-0.1,0.5-0.2,1.2c0.4,1,1,1.9,1.8,2.6v-4c0-0.7,0-1.4-0.1-2.1h2.2c-0.1,0.7-0.2,1.4-0.1,2.1v5.9
	c0.5,0.4,1.1,0.8,1.7,1.1c0.8,0.5,1.6,0.9,2.4,1.2c-0.4,0.6-0.7,1.3-1,2c-1.1-0.5-2.1-1.2-3.1-1.9v3.9c0,0.8,0,1.6,0.1,2.4h-2.3
	c0.1-0.8,0.1-1.6,0.1-2.4v-5.5c-0.8-0.8-1.6-1.6-2.2-2.6c-0.4,2.1-1.3,4.2-2.4,6c-1.2,1.8-2.7,3.3-4.5,4.5c-0.4-0.6-0.9-1.2-1.4-1.6
	c0.8-0.4,1.5-1,2.1-1.6c1.1-0.9,2-2,2.7-3.3c-0.6-0.8-1.4-1.5-2.2-2.1L474.7,450.1z"/>
<path class="st1" d="M493,445.4c0-0.6,0-1.1-0.1-1.7h2.1c-0.1,0.6-0.1,1.1-0.1,1.7v1h1.3c0.6,0,1.2,0,1.7-0.1v1.9
	c-0.4,0-0.7,0-1.4,0c-0.1,1.9-0.5,3.7-1.2,5.5c1.1,1.4,1.3,1.6,2.6,3.4l-1.4,1.6c-0.6-1.1-1.3-2.1-2.1-3.1c-0.9,1.7-2.2,3.2-3.6,4.5
	c-0.4-0.6-0.8-1.2-1.4-1.7c1.6-1.2,2.8-2.7,3.7-4.4c-0.9-1.2-2-2.3-3.1-3.3l1.3-1.3c0.4,0.4,0.4,0.4,1.4,1.5
	c0.1,0.1,0.5,0.5,1.1,1.3c0.4-1.2,0.6-2.5,0.7-3.8h-3.3c-0.6,0-1.1,0-1.7,0.1v-2c0.6,0.1,1.2,0.1,1.8,0.1h1.6V445.4z M499,450.2
	c1,1.3,1.9,2.7,2.5,4.2l-1.6,1.1c-0.6-1.6-1.5-3-2.5-4.4L499,450.2z M500,449.1c-0.6,0-1.1,0-1.7,0.1v-2c0.6,0.1,1.1,0.1,1.7,0.1
	h2.3v-1.4c0-0.7,0-1.4-0.1-2.1h2.2c-0.1,0.7-0.1,1.4-0.1,2.1v1.4h0.2c0.6,0,1.1,0,1.7-0.1v2l-0.4-0.1c-0.4,0-0.8-0.1-1.3,0h-0.2v8.7
	c0,0.9,0,1.2-0.3,1.6s-1,0.6-2.2,0.6c-0.7,0-1.4,0-2.1-0.1c-0.1-0.7-0.3-1.4-0.6-2c0.7,0.1,1.4,0.2,2.2,0.2c1,0,1.1,0,1.1-0.4v-8.6
	L500,449.1z"/>
<path class="st1" d="M519.8,451.3c0.2,0.7,0.5,1.4,0.8,2c0.8-0.5,1.4-1.1,2-1.8l1.7,1.2c-0.2,0.1-0.3,0.2-0.5,0.4
	c-0.7,0.6-1.5,1.2-2.3,1.7c1,1.3,2.4,2.4,4,2.9c-0.5,0.6-0.9,1.2-1.2,1.9c-1.8-0.9-3.3-2.2-4.4-3.9c-0.9-1.4-1.5-2.8-2-4.4h-0.5
	c-0.3,0.2-0.4,0.3-0.7,0.5c0.7,0.7,1.3,1.6,1.6,2.6c0.4,0.9,0.5,1.8,0.5,2.8c0,2.3-0.8,3-3.2,3h-0.9c-0.1-0.7-0.3-1.3-0.7-1.9
	c0.5,0.1,1,0.1,1.5,0.1c1.2,0,1.3-0.2,1.3-1.4c0-0.1,0-0.2,0-0.3c-2.2,1.4-4.6,2.4-7.1,3.1c-0.2-0.6-0.6-1.1-1-1.6
	c2.8-0.6,5.4-1.6,7.8-3.1c-0.1-0.3-0.1-0.4-0.3-0.6c-2,1.1-4.2,1.9-6.4,2.5c-0.2-0.5-0.5-1-0.9-1.5c2.3-0.4,4.5-1.2,6.6-2.2
	c-0.2-0.2-0.2-0.3-0.4-0.5c-1.7,0.8-3.5,1.4-5.3,1.7c-0.2-0.5-0.5-1.1-0.9-1.5c1.9-0.3,3.8-0.8,5.6-1.6h-2.3c-0.7,0-1.2,0-1.8,0.1
	c0.1-0.5,0.1-1.1,0.1-1.6v-1.3c-0.4,0.3-0.8,0.5-1.2,0.7c-0.2-0.6-0.5-1.2-0.9-1.7c1.2-0.5,2.4-1.2,3.4-2.1c0.8-0.6,1.5-1.4,2-2.2
	l2.2,0.4l-0.7,0.8h2.9c0.6,0,1.1,0,1.7-0.1l1,0.9c-0.2,0.2-0.2,0.2-0.4,0.5c-0.5,0.5-0.8,0.8-1.3,1.2h2.7c0.6,0,1.3,0,1.9-0.1
	c-0.1,0.5-0.1,1.1-0.1,1.6v1.4c0,0.5,0,1.1,0.1,1.6c-0.5,0-0.9-0.1-1.7-0.1L519.8,451.3z M516.1,449.7v-1.1h-3.7v1.1H516.1z
	 M516.9,446.9c0.4-0.3,0.7-0.7,1-1.1h-4c-0.4,0.4-0.8,0.7-1.2,1.1H516.9z M521.8,449.7v-1.1h-3.9v1.1H521.8z"/>
<path class="st1" d="M533.7,446c-0.1-0.6-0.2-1.1-0.4-1.7l2.4-0.4c0,0.6,0.1,1.1,0.2,1.7l0.3,1.6l3.8-0.6c0.6-0.1,1.2-0.2,1.7-0.4
	l0.4,2.2c-0.5,0-0.5,0-1.7,0.2l-3.8,0.6l0.5,3l4.2-0.7c0.6-0.1,1.3-0.2,1.9-0.4l0.4,2.2c-0.3,0-0.6,0-0.8,0.1c-0.1,0-0.2,0-0.3,0
	l-0.7,0.1l-4.3,0.7l0.7,3.5c0.1,0.6,0.2,1.3,0.4,1.9l-2.4,0.4c0-0.6-0.1-1.3-0.2-1.9l-0.7-3.5l-4.4,0.7c-0.6,0.1-1.2,0.2-1.8,0.4
	l-0.4-2.2c0.6,0,1.3-0.1,1.9-0.2l4.4-0.7l-0.5-3l-3.3,0.5c-0.7,0.1-1.3,0.2-2,0.4l-0.3-2.2c0.7,0,1.3-0.1,2-0.2l3.3-0.5L533.7,446z"
	/>
<path class="st1" d="M547.3,450.6c1,0.1,1.9,0.2,2.9,0.1h9.6c1,0,2,0,2.9-0.1v2.5c-1-0.1-2-0.1-2.9-0.1h-9.6c-1,0-2,0-2.9,0.1V450.6
	z"/>
<path class="st1" d="M581.2,446.3c-0.2,0.4-0.3,0.8-0.3,1.3c-0.6,4.2-1.4,6.3-3.3,8.4c-1.6,1.6-3.5,2.8-5.6,3.6
	c-0.4-0.8-0.9-1.5-1.5-2.1c1.3-0.3,2.5-0.9,3.7-1.7c2.6-1.7,3.9-4.4,4.3-8.3h-8.6v2.7c0,0.5,0,1.1,0.1,1.6h-2.4
	c0.1-0.5,0.1-1,0.1-1.5v-3.4c0-0.5,0-1,0-1.5c0.5,0,1.1,0.1,1.5,0.1h8.7c0.7,0,1.5,0,2.2-0.2L581.2,446.3z"/>
<path class="st1" d="M585.5,450.6c1,0.1,1.9,0.2,2.9,0.1h9.6c1,0,2,0,2.9-0.1v2.5c-1-0.1-2-0.1-2.9-0.1h-9.6c-1,0-2,0-2.9,0.1
	L585.5,450.6z"/>
<path class="st1" d="M607.7,459.5c0.1-0.7,0.1-1.3,0.1-2V446c0-0.6,0-1.2-0.1-1.8h2.5c-0.1,0.6-0.1,1.3-0.1,1.9v3.4
	c2.8,1,5.6,2.3,8.2,3.8l-1.3,2.1c-2-1.3-4.2-2.5-6.4-3.4c-0.2-0.1-0.4-0.2-0.6-0.3c0,0.4,0.1,0.8,0.1,1.2v4.8c0,0.9,0,1.4,0.1,2
	H607.7z M615.3,445.3c0.7,0.7,1.3,1.5,1.7,2.4l-1.3,0.8c-0.5-0.9-1.1-1.7-1.7-2.5L615.3,445.3z M617.6,447.4c-0.5-0.9-1-1.7-1.7-2.4
	l1.3-0.7c0.7,0.7,1.3,1.5,1.7,2.3L617.6,447.4z"/>
<path class="st1" d="M632.2,449.4c-0.7,0-1,0-1.5,0v-0.8c-0.5,0.4-1.1,0.8-1.7,1.2c-0.2-0.4-0.4-0.8-0.6-1.1c-0.3,0-0.4,0-0.6,0
	h-0.5c0.4,1.1,1.1,2.2,1.8,3.1c-0.3,0.5-0.6,1.1-0.8,1.7c-0.5-0.8-0.9-1.6-1.2-2.4c0,0.5,0.1,1.3,0.1,2.4v4.6c0,0.7,0,1.5,0.1,2.2
	h-2.1c0.1-0.7,0.1-1.5,0.1-2.2v-3.7c0-0.6,0-1.5,0.1-2.4c-0.2,0.9-0.5,1.7-0.9,2.5c-0.1,0.2-0.3,0.7-0.8,1.6c-0.2-0.7-0.6-1.3-1-1.9
	c1.1-1.7,1.9-3.6,2.4-5.6h-0.7c-0.4,0-0.8,0-1.2,0.1v-2c0.4,0.1,0.8,0.1,1.2,0.1h0.9v-1.4c0-0.6,0-1.3-0.1-1.9h2
	c-0.1,0.6-0.1,1.2-0.1,1.9v1.4h0.5c0.3,0,0.7,0,1-0.1v1c0.7-0.4,1.3-0.9,1.9-1.5c0.8-0.7,1.6-1.6,2.1-2.6h2c0.5,0.9,1.3,1.7,2.1,2.3
	c1,0.8,2,1.4,3.2,1.9c-0.4,0.5-0.7,1.1-0.9,1.8c-0.7-0.3-1.4-0.7-2-1.2v1c-0.4,0-0.7,0-1.5,0h-1v1.1h2.4c0.7,0,1.1,0,1.6-0.1
	c0,0.5,0,0.9,0,1.4v2.3c0,0.6,0,0.9,0,1.4c-0.6-0.1-1.1-0.1-1.7-0.1h-1.9c1.2,1.5,2.9,2.6,4.8,2.9c-0.5,0.6-0.8,1.2-1,1.9
	c-1.3-0.5-2.6-1.2-3.6-2.1c-0.6-0.5-1.1-1.2-1.5-1.9c-0.9,2-2.7,3.5-4.8,4c-0.2-0.7-0.6-1.3-1.1-1.8c2.3-0.5,3.5-1.3,4.3-3h-1.4
	c-0.6,0-1.1,0-1.7,0.1c0-0.5,0.1-0.7,0.1-1.1v-2.6c0-0.4,0-0.8-0.1-1.2c0.5,0.1,1,0.1,1.5,0.1h2.2v-1.1H632.2z M631,452v1.8h1.7
	c0.1-0.6,0.1-1.2,0.1-1.8H631z M635.7,447.7h0.4c-0.9-0.7-1.7-1.5-2.3-2.5c-0.6,0.9-1.2,1.7-2,2.5H635.7L635.7,447.7z M634.7,452
	c0,0.6-0.1,1.2-0.2,1.8h2.3V452H634.7z"/>
<path class="st1" d="M649.3,445.5c0-0.6,0-1.2-0.1-1.8h2.3c-0.1,0.6-0.1,1.2-0.1,1.8v4h3.9v-2.9c0-0.5,0-0.9-0.1-1.4h2.2
	c-0.1,0.5-0.1,1-0.1,1.6v3.6c0,0.4,0,0.8,0.1,1.1c-0.4,0-0.8,0-1.3,0h-4.7v5.9h4.5v-3c0-0.5,0-1-0.1-1.5h2.2
	c-0.1,0.6-0.1,1.1-0.1,1.7v3.9c0,0.6,0,1.2,0.1,1.8h-2.1v-0.9H645v0.9h-2.1c0.1-0.6,0.1-1.2,0.1-1.8v-3.8c0-0.6,0-1.2-0.1-1.7h2.2
	c-0.1,0.5-0.1,1-0.1,1.5v2.9h4.2v-5.9H645c-0.5,0-0.9,0-1.3,0c0-0.4,0.1-0.8,0-1.1v-3.6c0-0.5,0-1.1-0.1-1.6h2.2
	c-0.1,0.5-0.1,1-0.1,1.4v2.9h3.6L649.3,445.5z"/>
<path class="st1" d="M437,480.5c0,2-0.7,2.6-2.7,2.6H434c0-0.6-0.1-1.2-0.4-1.8c0.5,0,0.6,0.1,0.9,0.1c0.5,0,0.7-0.3,0.7-1
	c0-0.6-0.1-1.1-0.2-1.7c-0.2-0.8-0.6-1.5-1.2-2c0.7-1.2,1.3-2.5,1.7-3.9h-1.9V485c0,0.8,0,1.6,0.1,2.2h-2.1c0.1-0.7,0.1-1.5,0.1-2.2
	v-12.2c0-0.6,0-1.2,0-1.7c0.3,0,0.8,0,1.4,0h2.4c0.4,0,0.9,0,1.3-0.1l1,0.9c-0.2,0.4-0.2,0.4-0.3,0.6c-0.3,1-0.5,1.4-0.9,2.3
	c0.8-0.4,1.5-0.9,2.1-1.5c0.9-0.8,1.6-1.7,2.1-2.7h2c1.2,2,3.1,3.5,5.3,4.4c-0.4,0.6-0.7,1.3-0.8,2c-0.6-0.3-1.1-0.6-1.6-1v1.2
	c-0.5-0.1-1-0.1-1.5-0.1h-1.4v1.5h3c0.6,0,1.2,0,1.7-0.1v2c-0.6-0.1-1.2-0.1-1.7-0.1h-3v4.7c0,1.4-0.5,1.8-2.4,1.8
	c-0.4,0-0.8,0-1.6,0c0-0.7-0.2-1.3-0.5-1.9c0.6,0.1,1.2,0.1,1.7,0.2c0.7,0,0.9-0.1,0.9-0.5v-4.3L437,480.5z M439.7,481.7
	c-0.4,1.1-0.9,2.1-1.5,3c-0.5,0.7-1,1.3-1.6,1.8c-0.4-0.6-0.8-1.1-1.4-1.5c0.6-0.5,1.2-1,1.6-1.6c0.5-0.7,0.9-1.5,1.2-2.4
	L439.7,481.7z M440.7,477.3h-1c-0.5,0-1,0-1.5,0.1v-1.2c-0.4,0.3-0.5,0.4-1,0.6c-0.2-0.5-0.5-1-0.9-1.4c-0.2,0.4-0.3,0.6-0.6,1.2
	c0.5,0.6,0.9,1.4,1.1,2.2h3.9L440.7,477.3z M444,475.6c0.4,0,0.5,0,0.8,0c-1.2-0.9-2.2-1.9-3-3.2c-0.8,1.2-1.7,2.3-2.9,3.2
	L444,475.6L444,475.6z M445.1,481.1c0.3,0.8,0.7,1.5,1.2,2.2c0.4,0.6,0.9,1.2,1.5,1.7c-0.5,0.5-1,1-1.3,1.6c-1.3-1.4-2.3-3-2.9-4.8
	L445.1,481.1z"/>
<path class="st1" d="M454.3,477.1c0.7,0.5,1.4,1.2,2,1.8c0.5-1.4,0.9-2.8,1.1-4.3h-2.6c-0.8,2.1-2,3.9-3.5,5.6
	c-0.3-0.7-0.7-1.2-1.2-1.7c1.5-1.6,2.6-3.5,3.3-5.6c0.2-0.8,0.4-1.6,0.5-2.4l2.1,0.4c-0.1,0.4-0.2,0.6-0.3,1s-0.2,0.7-0.3,1h2.6
	c0.7,0,1,0,1.5,0c-0.1,0.4-0.1,0.5-0.2,1.2c0.4,1,1,1.9,1.7,2.7v-4c0-0.7,0-1.4-0.1-2.1h2.2c-0.1,0.7-0.2,1.4-0.1,2.1v5.9
	c0.5,0.4,1.1,0.8,1.7,1.1c0.8,0.5,1.6,0.9,2.4,1.2c-0.4,0.6-0.7,1.3-1,2c-1.1-0.5-2.1-1.2-3.1-1.9v3.9c0,0.8,0,1.6,0.1,2.4h-2.2
	c0.1-0.8,0.1-1.6,0.1-2.4v-5.5c-0.8-0.8-1.6-1.6-2.2-2.6c-0.4,2.1-1.3,4.2-2.4,6c-1.2,1.8-2.7,3.3-4.5,4.5c-0.4-0.6-0.9-1.2-1.4-1.6
	c0.8-0.4,1.5-1,2.1-1.6c1.1-0.9,2-2,2.7-3.3c-0.6-0.8-1.4-1.5-2.2-2.1L454.3,477.1z"/>
<path class="st1" d="M472.5,472.4c0-0.6,0-1.1-0.1-1.7h2.1c-0.1,0.6-0.1,1.1-0.1,1.7v1h1.3c0.6,0,1.2,0,1.7-0.1v1.9
	c-0.4,0-0.7,0-1.4,0c-0.1,1.9-0.5,3.7-1.2,5.5c1.1,1.4,1.3,1.6,2.6,3.4l-1.4,1.6c-0.6-1.1-1.3-2.1-2.1-3.1c-0.9,1.7-2.2,3.2-3.6,4.5
	c-0.4-0.6-0.8-1.2-1.4-1.7c1.6-1.2,2.8-2.7,3.7-4.4c-0.9-1.2-2-2.3-3.1-3.3l1.3-1.3c0.4,0.4,0.4,0.4,1.4,1.5
	c0.1,0.1,0.5,0.5,1.1,1.3c0.4-1.2,0.6-2.5,0.7-3.8h-3.4c-0.6,0-1.1,0-1.7,0.1v-2c0.6,0.1,1.2,0.1,1.8,0.1h1.6L472.5,472.4z
	 M478.5,477.2c1,1.3,1.9,2.7,2.5,4.2l-1.6,1.1c-0.6-1.6-1.5-3-2.5-4.4L478.5,477.2z M479.5,476.1c-0.6,0-1.1,0-1.7,0.1v-2
	c0.6,0.1,1.1,0.1,1.7,0.1h2.3v-1.4c0-0.7,0-1.4-0.1-2.1h2.2c-0.1,0.7-0.1,1.4-0.1,2.1v1.4h0.2c0.6,0,1.1,0,1.7-0.1v2l-0.4-0.1
	c-0.4,0-0.8-0.1-1.3,0h-0.2v8.7c0,0.9,0,1.2-0.3,1.6s-1,0.6-2.2,0.6c-0.7,0-1.4,0-2.1-0.1c-0.1-0.7-0.3-1.4-0.6-2
	c0.7,0.1,1.4,0.2,2.2,0.2c1,0,1.1,0,1.1-0.4v-8.6L479.5,476.1z"/>
<path class="st1" d="M499.3,478.3c0.2,0.7,0.5,1.4,0.8,2c0.8-0.5,1.4-1.1,2-1.8l1.7,1.2c-0.2,0.1-0.3,0.2-0.5,0.4
	c-0.7,0.6-1.5,1.2-2.3,1.7c1,1.3,2.4,2.4,4,2.9c-0.5,0.6-0.9,1.2-1.2,1.9c-1.8-0.9-3.3-2.2-4.4-3.9c-0.9-1.4-1.5-2.8-2-4.4H497
	c-0.3,0.2-0.4,0.3-0.7,0.5c0.7,0.7,1.3,1.6,1.6,2.6c0.4,0.9,0.5,1.8,0.5,2.8c0,2.3-0.8,3-3.1,3h-0.9c-0.1-0.7-0.3-1.3-0.7-1.9
	c0.5,0.1,1,0.1,1.5,0.1c1.1,0,1.4-0.2,1.4-1.4c0-0.1,0-0.2,0-0.3c-2.2,1.4-4.6,2.4-7.1,3.1c-0.2-0.6-0.6-1.1-1-1.6
	c2.8-0.6,5.4-1.6,7.8-3.1c-0.1-0.3-0.1-0.4-0.3-0.6c-2,1.1-4.2,1.9-6.4,2.5c-0.2-0.5-0.5-1-0.9-1.5c2.3-0.4,4.5-1.2,6.6-2.2
	c-0.2-0.2-0.2-0.3-0.4-0.5c-1.7,0.8-3.5,1.4-5.3,1.7c-0.2-0.5-0.5-1.1-0.9-1.5c1.9-0.3,3.8-0.8,5.6-1.6h-2.3c-0.7,0-1.2,0-1.8,0.1
	c0.1-0.5,0.1-1.1,0.1-1.6v-1.3c-0.4,0.3-0.8,0.5-1.2,0.7c-0.2-0.6-0.5-1.2-0.9-1.7c1.2-0.5,2.4-1.2,3.4-2.1c0.8-0.6,1.5-1.4,2-2.2
	l2.2,0.4l-0.7,0.8h2.9c0.6,0,1.1,0,1.7-0.1l1,0.9c-0.2,0.2-0.2,0.2-0.4,0.5c-0.5,0.5-0.8,0.8-1.3,1.2h2.7c0.6,0,1.3,0,1.9-0.1
	c-0.1,0.5-0.1,1.1-0.1,1.6v1.4c0,0.5,0,1.1,0.1,1.6c-0.5,0-0.9-0.1-1.7-0.1L499.3,478.3z M495.6,476.7v-1.1H492v1.1H495.6z
	 M496.5,473.9c0.4-0.3,0.7-0.7,1-1.1h-4.1c-0.4,0.4-0.8,0.7-1.2,1.1H496.5z M501.4,476.7v-1.1h-3.9v1.1H501.4z"/>
<path class="st1" d="M516.9,479c0-0.1,0-1,0.1-1.3c-0.5,0.9-1.1,1.8-1.8,2.5c-1.1,1.2-2.3,2.2-3.5,3.1c-0.9,0.6-1.7,1.2-2.7,1.6
	c-0.3-0.7-0.9-1.4-1.5-1.9c2.1-0.9,4-2.3,5.7-3.9c0.9-0.9,1.7-1.9,2.4-3h-4.9c-0.7,0-1.5,0-2.2,0.1v-2.2c0.8,0.1,1.5,0.2,2.3,0.1
	h6.2v-1.4c0-0.6,0-1.1-0.1-1.6h2.4c-0.1,0.5-0.1,1-0.1,1.5v0.1v1.5h1.8c0.7,0,1.4,0,2.1-0.1v2.2c-0.7-0.1-1.4-0.1-2.1-0.1H519
	l0.1,8.4c0,0.9,0,1.6,0.1,2.1h-2.5c0.1-0.6,0.1-1.2,0.1-1.7v-0.3l-0.1-5.4L516.9,479z"/>
<path class="st1" d="M526.9,477.6c1,0.1,1.9,0.2,2.9,0.1h9.6c1,0,2,0,2.9-0.1v2.5c-1-0.1-2-0.1-2.9-0.1h-9.6c-1,0-2,0-2.9,0.1V477.6
	z"/>
<path class="st1" d="M555.1,478.4c0,1.7-0.4,3.4-1.3,4.8c-1,1.6-2.3,2.6-4.7,3.5c-0.3-0.8-0.8-1.5-1.5-2c1.8-0.4,3.3-1.5,4.3-3
	c0.5-1.1,0.8-2.2,0.8-3.4h-4.4c-0.8,0-1.5,0-2.3,0.1v-2.1c0.8,0.1,1.5,0.2,2.3,0.1h10.5c0.8,0,1.6,0,2.3-0.1v2.1
	c-0.8-0.1-1.5-0.1-2.3-0.1L555.1,478.4z M559.2,472.4c0.5,0.8,1,1.6,1.3,2.5l-1.4,0.6c-0.3-0.9-0.7-1.7-1.2-2.5v1
	c-0.8-0.1-1.5-0.1-2.3-0.1h-5.5c-0.8,0-1.5,0-2.3,0.1v-2.2c0.8,0.1,1.5,0.2,2.3,0.1h5.4c0.8,0,1.6,0,2.3-0.1v1.1L559.2,472.4z
	 M561.1,474.7c-0.3-0.9-0.7-1.7-1.2-2.5l1.3-0.5c0.5,0.7,1,1.5,1.3,2.4L561.1,474.7z"/>
<path class="st1" d="M578.4,475.4c-0.2,0.2-0.4,0.4-0.6,0.6c-1,1.1-2.1,2.1-3.3,3v6.1c0,0.6,0,1.1,0.1,1.7h-2.3
	c0.1-0.6,0.1-1.1,0.1-1.7v-4.8c-1.6,0.9-3.3,1.7-5.1,2.3c-0.3-0.7-0.7-1.3-1.1-1.9c1.5-0.4,2.9-0.9,4.3-1.6c1.9-0.9,3.6-2.2,5.1-3.6
	c0.4-0.4,0.8-0.8,1.1-1.3L578.4,475.4z"/>
<path class="st1" d="M592.8,482.6h4.4c0.8,0,1.6,0,2.3-0.1v2.3c-0.8-0.1-1.5-0.1-2.3-0.1h-10.8c-0.8,0-1.5,0-2.3,0.1v-2.3
	c0.8,0.1,1.6,0.2,2.3,0.1h4.1v-7.4h-2.8c-0.8,0-1.5,0-2.3,0.1V473c0.8,0.1,1.6,0.2,2.3,0.1h8c0.8,0,1.6,0,2.3-0.1v2.3
	c-0.8-0.1-1.5-0.1-2.3-0.1h-3L592.8,482.6z"/>
<path class="st1" d="M604.1,483.6c1.8-0.2,3.6-0.6,5.3-1.3c2.2-0.9,4-2.4,5.3-4.4c0.8-1.1,1.4-2.3,1.8-3.6c0.5,0.7,1.2,1.3,1.9,1.8
	c-1.2,2.9-3.2,5.3-5.7,7.1c-2.1,1.3-4.4,2.3-6.8,2.7c-0.4,0.1-0.8,0.2-1.2,0.3L604.1,483.6z M605.6,472.4c1.7,1,3.2,2.1,4.7,3.5
	l-1.5,2c-1.3-1.4-2.9-2.7-4.6-3.7L605.6,472.4z"/>
<path class="st1" d="M636.1,486.3c-1.6-2-3.5-3.8-5.5-5.4c-1.9,2.2-4.2,4-6.9,5.2c-0.4-0.7-0.9-1.4-1.5-2c1.3-0.5,2.5-1.2,3.6-2
	c2.6-1.8,4.7-4.4,6-7.3l0.2-0.5c-0.3,0-0.3,0-6,0.1c-0.7,0-1.3,0-2,0.1l-0.1-2.3c0.5,0.1,1.1,0.1,1.6,0.1h0.4l6.3-0.1
	c0.5,0.1,1.1,0,1.6-0.2l1.2,1.2c-0.2,0.3-0.4,0.6-0.6,1c-0.7,1.8-1.7,3.5-2.8,5c1.2,0.8,2.3,1.7,3.3,2.6c0.5,0.4,0.5,0.4,2.6,2.5
	L636.1,486.3z"/>
<path class="st1" d="M650.1,481.4c0,0.7,0.2,1.4,0.7,2c1.1,1.2,3,1.4,4.2,0.3c0.1-0.1,0.1-0.1,0.2-0.2c0.2-0.3,0.4-0.6,0.5-0.9
	l2.1,0.7c-0.3,0.6-0.6,1.2-1.1,1.7c-1,0.9-2.3,1.4-3.7,1.4c-3.2,0-5.2-2.1-5.2-5.5s2-5.5,5.1-5.5c1.9-0.1,3.7,1,4.5,2.9
	c0.3,0.9,0.5,1.8,0.5,2.7c0,0,0,0.1,0,0.5L650.1,481.4z M655.6,479.6c-0.1-0.6-0.3-1.3-0.8-1.7c-0.5-0.5-1.2-0.8-1.9-0.7
	c-1.4,0-2.6,1.1-2.7,2.4H655.6z"/>
<path class="st1" d="M664.6,472.8c-0.1,0.7-0.1,1.5-0.1,2.2v0.6h0.8c0.6,0,1.2,0,1.8-0.1v2.1c-0.6-0.1-1.2-0.1-1.8-0.1h-0.8v5.6
	c0,0.9,0.3,1.2,1.2,1.2c0.5,0,0.9-0.1,1.3-0.4l0.3,1.9c-0.7,0.3-1.5,0.4-2.3,0.4c-2.1,0-2.9-0.7-2.9-2.6v-6h-0.7
	c-0.5,0-1.1,0-1.6,0.1v-2.1c0.5,0.1,1.1,0.1,1.6,0.1h0.7V475c0-0.7,0-1.5-0.1-2.2H664.6z"/>
<path class="st1" d="M676.9,479.1c-0.1-0.4-0.3-0.8-0.6-1.1c-0.5-0.6-1.1-0.9-1.8-0.8c-1.8,0-2.9,1.4-2.9,3.6s1.1,3.6,2.9,3.6
	c0.8,0,1.6-0.3,2.1-1c0.2-0.3,0.3-0.6,0.4-0.9l2.2,0.5c-0.2,0.5-0.4,1.1-0.8,1.5c-0.9,1.2-2.4,1.9-4,1.8c-3.2,0-5.2-2.1-5.2-5.5
	c-0.1-1.5,0.5-3,1.5-4.2c1-0.9,2.3-1.4,3.6-1.4c1.6-0.1,3.1,0.7,4,2c0.3,0.4,0.5,0.8,0.6,1.3L676.9,479.1z"/>
<path class="st2" d="M516.3,381.5c-0.5,0.9-1.1,1.7-1.9,2.3c-0.8,0.6-1.6,1.1-2.6,1.4c-1,0.3-2,0.5-3.1,0.5c-1.2,0-2.4-0.2-3.5-0.7
	c-1.1-0.4-2-1.1-2.8-1.9c-0.6-0.5-1-1.2-1.4-1.9c-0.3-0.7-0.6-1.4-0.7-2.1c-0.1-0.8-0.2-1.6-0.2-2.5c0-0.9,0-1.8,0-2.8
	c0-1,0-2,0-2.8c0-0.8,0.1-1.6,0.2-2.5c0.1-0.7,0.4-1.5,0.7-2.1c0.3-0.7,0.8-1.3,1.4-1.9c1.7-1.7,3.9-2.6,6.3-2.6
	c1,0,2.1,0.1,3.1,0.5c0.9,0.3,1.8,0.8,2.6,1.4c0.8,0.6,1.4,1.4,1.9,2.3c0.5,1,0.9,2.1,1.1,3.2h-4.6c-0.2-0.9-0.7-1.7-1.3-2.4
	c-0.7-0.7-1.7-1-2.6-1c-0.6,0-1.2,0.1-1.7,0.3c-0.5,0.2-0.9,0.5-1.2,0.9c-0.2,0.2-0.4,0.5-0.6,0.8c-0.2,0.4-0.3,0.8-0.4,1.2
	c-0.1,0.6-0.2,1.2-0.2,1.8c0,0.8,0,1.7,0,2.8s0,2,0,2.8c0,0.6,0.1,1.2,0.2,1.8c0.1,0.4,0.2,0.8,0.4,1.2c0.2,0.3,0.3,0.6,0.6,0.8
	c0.3,0.4,0.8,0.7,1.2,0.9c0.5,0.2,1.1,0.3,1.7,0.3c1,0.1,1.9-0.3,2.6-1c0.6-0.7,1.1-1.5,1.3-2.4h4.6
	C517.2,379.4,516.8,380.5,516.3,381.5z"/>
<path class="st2" d="M535.7,385.5v-9.8h-7.9v9.8h-4.6v-23.4h4.6v9.5h7.9v-9.5h4.6v23.4H535.7z"/>
<path class="st2" d="M547.7,385.5v-23.4h15.4v4.1h-10.8v5.5h9.2v4.1h-9.2v5.7h10.8v4.1L547.7,385.5z"/>
<path class="st2" d="M584.9,381.5c-0.5,0.9-1.1,1.7-1.9,2.3c-0.8,0.6-1.6,1.1-2.6,1.4c-1,0.3-2,0.5-3,0.5c-1.2,0-2.4-0.2-3.5-0.7
	c-1.1-0.4-2-1.1-2.8-1.9c-0.6-0.5-1-1.2-1.4-1.9c-0.3-0.7-0.6-1.4-0.7-2.1c-0.1-0.8-0.2-1.6-0.2-2.5c0-0.9,0-1.8,0-2.8
	c0-1,0-2,0-2.8c0-0.8,0.1-1.6,0.2-2.5c0.1-0.7,0.4-1.5,0.7-2.1c0.3-0.7,0.8-1.3,1.4-1.9c1.7-1.7,3.9-2.6,6.3-2.6
	c1,0,2.1,0.1,3.1,0.5c0.9,0.3,1.8,0.8,2.6,1.4c0.8,0.6,1.4,1.4,1.9,2.3c0.5,1,0.9,2.1,1.1,3.2h-4.6c-0.2-0.9-0.7-1.7-1.4-2.3
	c-0.7-0.7-1.7-1-2.7-1c-0.6,0-1.2,0.1-1.7,0.3c-0.5,0.2-0.9,0.5-1.2,0.9c-0.2,0.2-0.4,0.5-0.6,0.8c-0.2,0.4-0.3,0.8-0.4,1.2
	c-0.1,0.6-0.2,1.2-0.2,1.8c0,0.8,0,1.7,0,2.8s0,2,0,2.8c0,0.6,0.1,1.2,0.2,1.8c0.1,0.4,0.2,0.8,0.4,1.2c0.2,0.3,0.3,0.6,0.6,0.8
	c0.3,0.4,0.8,0.7,1.2,0.9c0.5,0.2,1.1,0.3,1.7,0.3c1,0.1,1.9-0.3,2.7-1c0.6-0.7,1.1-1.5,1.3-2.4h4.7
	C585.8,379.5,585.4,380.6,584.9,381.5z"/>
<path class="st2" d="M605.5,385.5l-6-10.6l-3,3.6v7h-4.6v-23.3h4.6v10.2l8.2-10.2h5.5l-7.8,9.3l8.3,14.1H605.5z"/>
<path class="st3" d="M110.4,112.1H78.6c-0.8,0-1.5-0.7-1.5-1.5s0.7-1.5,1.5-1.5h31.8c0.8,0,1.5,0.7,1.5,1.5S111.2,112.1,110.4,112.1
	z"/>
<path class="st3" d="M110.4,403.3H78.6c-0.8,0-1.5-0.7-1.5-1.5s0.7-1.5,1.5-1.5h31.8c0.8,0,1.5,0.7,1.5,1.5S111.2,403.3,110.4,403.3
	z"/>
<path class="st3" d="M571.5,112.1h-31.8c-0.8,0-1.5-0.7-1.5-1.5s0.7-1.5,1.5-1.5h31.8c0.8,0,1.5,0.7,1.5,1.5
	S572.3,112.1,571.5,112.1z"/>
<path class="st3" d="M571.5,403.3h-31.8c-0.8,0-1.5-0.7-1.5-1.5s0.7-1.5,1.5-1.5h31.8c0.8,0,1.5,0.7,1.5,1.5
	S572.3,403.3,571.5,403.3z"/>
<path class="st3" d="M322.5,124c-81.9,0-148.2,66.4-148.2,148.2s66.4,148.2,148.2,148.2s148.2-66.4,148.2-148.2S404.3,124,322.5,124
	L322.5,124z M322.5,363.3c-50.3,0-91.1-40.8-91.1-91.1s40.8-91.1,91.1-91.1s91.1,40.8,91.1,91.1l0,0
	C413.6,322.5,372.8,363.3,322.5,363.3z"/>
<path class="st4" d="M428.4,269.5h66.5c-1-93.5-77-169.2-170.4-170.6v66.5C381.2,166.8,427.5,212.7,428.4,269.5z"/>
<path class="st2" d="M322.5,165.3c0.7,0,1.4,0,2.1,0.1l32.6-30.9l-32.6-35.6c-0.7,0-1.4,0-2.1,0c-94.6,0-171.5,77.2-172.5,171.6
	h66.5C217.5,212.8,264.5,165.3,322.5,165.3z"/>
<path class="st5" d="M322.5,377.3c-58.5,0-106-47.5-106-106c0-0.3,0-0.6,0-0.9l-31.8-27.6L150,270.4c0,0.3,0,0.6,0,0.9
	c0,95.3,77.2,172.5,172.5,172.5l0,0h2.6v-66.5C324.4,377.3,323.2,377.3,322.5,377.3z"/>
<path class="st6" d="M428.5,271.3c0,57.5-45.8,104.5-103.3,105.9l-34.3,29.8l34.3,36.7c94.2-1.5,169.8-78.2,169.8-172.4
	c0-0.3,0-0.6,0-0.9h-66.5C428.5,270.7,428.5,271,428.5,271.3z"/>
<polygon class="st4" points="476.2,262 494.9,269.5 494.9,270.4 461.1,298.4 428.5,270.4 428.5,269 "/>
<path class="st7" d="M213.1,209.3c-0.9-0.7-1.8-1.4-2.8-2l-12.4-7.7c-1-0.6-2-1.2-3.1-1.7c0.7-1,1.1-1.6,1.9-2.9l3-4.8
	c1.4-2.2,2.9-3.4,4.7-3.9c1.7-0.3,3.4,0,4.8,1c1.6,0.9,2.8,2.4,3.3,4.2c0.4,1.8,0,3.7-1.4,5.9l-2.7,4.4l3.8,2.4c1,0.6,2,1.2,3.1,1.7
	L213.1,209.3z M208.4,195.9c1.3-2.1,0.9-3.9-1.1-5.2c-1.4-1.1-3.5-0.8-4.6,0.6c-0.2,0.2-0.3,0.5-0.4,0.7l-2.7,4.4l6.1,3.9
	L208.4,195.9z"/>
<path class="st7" d="M236.9,179c-1,0.8-1.9,1.7-2.8,2.6l-5.5,5.8c-1,1.1-1.7,1.8-2.3,2.6c-0.7-0.9-1.6-1.8-2.4-2.6l-10.2-9.6
	c-0.9-0.9-1.9-1.8-3-2.6l2.8-3c0.8,1,1.8,2,2.7,2.9l10.4,9.8l5.2-5.5c0.9-0.9,1.7-1.9,2.5-2.9L236.9,179z"/>
<path class="st7" d="M253.5,166c-0.7-0.7-1.5-1.3-2.3-1.9l-2.6-1.7l-7,5.1l0.9,3c0.2,1,0.6,1.9,1,2.8l-3.5,2.6
	c-0.2-1.2-0.4-2.3-0.7-3.4l-4.4-16.1c-0.2-0.9-0.5-1.8-0.9-2.7l3.8-2.8c0.7,0.6,1.5,1.2,2.3,1.7l14,9c1,0.6,2,1.2,3,1.8L253.5,166z
	 M239,155.7c-0.3-0.2-0.5-0.4-1.3-0.9l0.5,1.5l2.4,8.1l5.4-3.9L239,155.7z"/>
<path class="st7" d="M274.1,154.7c-0.9-0.7-1.8-1.3-2.8-1.8l-10.9-6.4c-0.8-0.5-1.9-1.2-3.1-2.1l0.7,1.2c0.3,0.4,0.8,1.5,1.1,2.1
	l3.9,7.9c0.6,1.2,1.3,2.4,2,3.6l-3.5,1.7c-0.4-1.3-1-2.5-1.6-3.8l-6.1-12.5c-0.5-1-1.1-2-1.7-3l3.8-1.9c0.8,0.7,1.8,1.3,2.7,1.8
	l10.6,6.2c1,0.6,2.4,1.4,3.4,2.2c-0.6-0.9-1.4-2.3-1.8-3.3l-4-8.1c-0.5-1.1-1.1-2.2-1.8-3.2l3.5-1.7c0.4,1.2,0.9,2.3,1.5,3.4
	l6.3,12.8c0.5,1,1.1,2.1,1.7,3L274.1,154.7z"/>
<path class="st7" d="M421.1,164.9c0.8-0.8,1.6-1.7,2.3-2.7c0.7,0.8,1.2,1.3,2.4,2.4l3.5,3.4c2.4,2.4,3.5,4.4,3.6,6.8
	c0.1,2.7-1.1,5.4-3.6,7.9s-5.4,4-8.2,3.9c-2.4,0-4.4-1-6.7-3.2l-3.5-3.4c-1.2-1.1-1.7-1.6-2.5-2.3c0.9-0.7,1.8-1.5,2.6-2.4
	L421.1,164.9z M416.4,181c1.6,1.5,3,2.2,4.6,2.1c2.2-0.2,4.2-1.3,5.6-2.9c1.8-1.8,2.7-3.6,2.7-5.4c0-1.6-0.7-2.9-2.3-4.5l-3.1-3
	L413.3,178L416.4,181z"/>
<path class="st7" d="M450.5,197.8c-0.7,3-2.6,5.6-5.2,7.3c-5.6,3.9-11.5,3.1-15-2s-2.1-10.8,3.6-14.6c2.5-1.9,5.6-2.7,8.7-2.2
	c2.5,0.5,4.8,2,6.1,4.2C450.3,192.5,450.9,195.2,450.5,197.8z M443.1,202c2-1.2,3.4-3.1,4-5.3c0.3-1.5-0.1-3.1-1-4.4
	c-2.2-3.2-6.1-3.5-10.1-0.7c-2,1.2-3.4,3.1-4,5.4c-0.3,1.5,0.1,3.1,1,4.4C435.1,204.5,439,204.8,443.1,202z"/>
<path class="st7" d="M378.1,401c0.2,1.5,0.1,3-0.4,4.4c-0.9,2.3-3,4.1-6,5.1c-2.4,1-5.1,0.9-7.4-0.2c-5.4-3.5-7.7-10.3-5.4-16.3
	c1.2-2.2,3.2-3.9,5.5-4.6c1.7-0.7,3.5-0.8,5.3-0.5c1.4,0.3,2.6,0.9,3.6,1.9c0.6,0.5,1,1.1,1.5,1.7l-3.3,2c-0.5-0.7-1.1-1.4-1.8-1.8
	c-1.3-0.7-2.9-0.8-4.3-0.3c-3.6,1.2-4.9,4.8-3.3,9.5s4.8,6.8,8.4,5.6c1.6-0.5,2.9-1.7,3.5-3.3c0.2-0.9,0.2-1.8,0-2.6L378.1,401z"/>
<path class="st7" d="M393.9,375.5c0.4,1.1,0.9,2.1,1.5,3.1l7.3,12.5c0.6,1,1.2,2,1.9,2.9l-3.5,2c-0.4-1.1-1-2.1-1.6-3.1l-3.1-5.3
	l-9.4,5.5l3.1,5.3c0.6,1,1.2,2,1.9,2.9l-3.5,2c-0.4-1.1-1-2.1-1.6-3.1l-7.3-12.5c-0.6-1-1.2-2-1.9-2.9l3.5-2c0.4,1.1,1,2.1,1.5,3.1
	l2.6,4.5l9.4-5.5l-2.6-4.5c-0.6-1-1.2-2-1.9-2.9L393.9,375.5z"/>
<path class="st7" d="M425.1,377.4c-1,0.7-1.9,1.4-2.7,2.2l-6.3,5.6c-1.2,1.1-1.7,1.6-2.5,2.3c-0.7-1-1.4-1.9-2.2-2.8l-9.7-10.9
	c-0.8-0.9-1.6-1.7-2.5-2.5c0.8-0.7,1.4-1.1,2.6-2.2l6.1-5.4c0.9-0.8,1.7-1.6,2.5-2.5l2.4,2.7c-1,0.7-1.9,1.4-2.7,2.2l-5.8,5.2
	l3.7,4.1l4.9-4.4c0.9-0.8,1.7-1.6,2.5-2.5l2.4,2.6c-1,0.7-1.9,1.4-2.7,2.2l-4.9,4.4l4.2,4.8l6-5.4c0.9-0.8,1.7-1.6,2.5-2.4
	L425.1,377.4z"/>
<path class="st7" d="M437.9,351.1c1,1.1,1.7,2.4,2.1,3.9c0.6,2.4-0.1,5.1-2.1,7.6c-1.4,2.1-3.7,3.6-6.3,4
	c-6.4,0.1-12.1-4.3-13.5-10.5c-0.3-2.5,0.4-5,2-6.9c1-1.5,2.5-2.6,4.2-3.3c1.3-0.5,2.7-0.7,4.1-0.5c0.7,0.1,1.5,0.3,2.2,0.6
	l-1.6,3.5c-0.8-0.3-1.7-0.5-2.5-0.5c-1.5,0.1-2.8,0.9-3.7,2.1c-2.3,3-1.4,6.7,2.6,9.7s7.8,2.9,10.1-0.1c1.1-1.3,1.5-3.1,1.1-4.7
	c-0.3-0.8-0.8-1.6-1.4-2.2L437.9,351.1z"/>
<path class="st7" d="M452.2,331c1.4-0.2,2.9-0.5,4.3-0.9l-2.2,4.5c-1.1,0-2.2,0.1-3.3,0.3l-9.1,1.4l1.3,3.9l3.5,1.8
	c1,0.5,2.1,1,3.2,1.3l-1.8,3.6c-1-0.7-2-1.2-3-1.8l-13-6.5c-1-0.5-2.1-1-3.2-1.4l1.8-3.6c0.9,0.7,1.9,1.3,3,1.8l5.6,2.8l-3.3-9.4
	c-0.3-1.1-0.8-2.1-1.4-3l2.3-4.5c0.4,1,0.7,2.2,1.3,3.8l2.7,7.8L452.2,331z"/>
<path class="st7" d="M194.8,340.8c0.8-0.5,1.6-1.1,2.4-1.7l2.4-2.1l-3.1-8h-3.1c-1,0-2,0.1-2.9,0.3l-1.6-4.1
	c1.2,0.1,2.3,0.2,3.5,0.2h16.6c1,0,1.9,0,2.9-0.2l1.7,4.4c-0.8,0.5-1.5,1.2-2.2,1.8l-12.4,11.1c-0.9,0.8-1.7,1.6-2.5,2.4
	L194.8,340.8z M208.5,329.5c0.2-0.2,0.5-0.4,1.2-1l-1.6,0l-8.4,0.2l2.4,6.3L208.5,329.5z"/>
<path class="st7" d="M215.7,364.6c-1.4,0.5-2.9,0.7-4.4,0.6c-2.4-0.3-4.7-1.9-6.4-4.6c-1.5-2.1-2-4.7-1.5-7.2
	c2.1-6.1,8.2-9.8,14.6-9c2.4,0.6,4.5,2.2,5.8,4.3c1,1.5,1.6,3.2,1.7,5.1c0,1.4-0.3,2.8-1,4c-0.4,0.7-0.8,1.3-1.3,1.8l-2.7-2.7
	c0.6-0.6,1.1-1.4,1.3-2.2c0.4-1.4,0.1-3-0.7-4.2c-2.1-3.2-5.8-3.6-10-1s-5.5,6.3-3.5,9.5c0.8,1.5,2.3,2.5,4,2.6
	c0.9,0,1.8-0.2,2.6-0.6L215.7,364.6z"/>
<path class="st7" d="M225.5,380.2c-0.9,0.8-1.7,1.7-2.4,2.6l-2.8-2.9c1-0.7,1.9-1.5,2.7-2.3l10.6-10.1l-2.5-2.6
	c-0.8-0.9-1.7-1.8-2.7-2.5l2.6-2.5c0.7,1,1.5,1.9,2.4,2.8l7.4,7.7c0.9,1,1.9,1.9,2.9,2.8l-2.7,2.5c-0.8-1.1-1.7-2.1-2.6-3l-2.3-2.5
	L225.5,380.2z"/>
</svg>
