<?xml version="1.0" encoding="utf-8"?>
<!-- Generator: Adobe Illustrator 25.2.1, SVG Export Plug-In . SVG Version: 6.00 Build 0)  -->
<svg version="1.1" id="レイヤー_1" xmlns="http://www.w3.org/2000/svg" xmlns:xlink="http://www.w3.org/1999/xlink" x="0px"
	 y="0px" viewBox="0 0 577.6 521.2" style="enable-background:new 0 0 577.6 521.2;" xml:space="preserve">
<style type="text/css">
	.st0{fill-rule:evenodd;clip-rule:evenodd;fill:#FFFFFF;stroke:#FF8D2C;stroke-width:6;stroke-miterlimit:10;}
	.st1{fill:#FF8D2C;}
	.st2{fill-rule:evenodd;clip-rule:evenodd;fill:#FF8D2C;}
	.st3{fill:none;stroke:#CCCCCC;stroke-width:3.0069;stroke-miterlimit:10;}
	.st4{fill:#FF8D2C;stroke:#FFDBD4;stroke-width:1.3771;stroke-miterlimit:10;}
	.st5{fill:#9F4C00;}
	.st6{fill:#FF8D2C;stroke:#FFDBD4;stroke-width:1.3695;stroke-miterlimit:10;}
	.st7{fill:none;stroke:#B3B3B3;stroke-width:1.9139;stroke-miterlimit:10;}
	.st8{fill:#808080;}
	.st9{fill-rule:evenodd;clip-rule:evenodd;fill:#C1CAD1;}
	.st10{fill-rule:evenodd;clip-rule:evenodd;fill:#131A30;}
	.st11{fill-rule:evenodd;clip-rule:evenodd;fill:#DB9669;}
	.st12{fill-rule:evenodd;clip-rule:evenodd;fill:#1D2645;}
	.st13{fill-rule:evenodd;clip-rule:evenodd;fill:#F1B287;}
	.st14{fill-rule:evenodd;clip-rule:evenodd;fill:#E8A476;}
	.st15{fill-rule:evenodd;clip-rule:evenodd;fill:#232E54;}
	.st16{fill-rule:evenodd;clip-rule:evenodd;fill:#CEDDF0;}
	.st17{fill-rule:evenodd;clip-rule:evenodd;fill:#E2ECF8;}
	.st18{fill-rule:evenodd;clip-rule:evenodd;fill:#2C3A6B;}
	.st19{fill-rule:evenodd;clip-rule:evenodd;fill:#241304;}
	.st20{fill-rule:evenodd;clip-rule:evenodd;fill:#361D07;}
	.st21{fill-rule:evenodd;clip-rule:evenodd;fill:#4A2B12;}
	.st22{fill-rule:evenodd;clip-rule:evenodd;fill:#EBE8E8;}
	.st23{enable-background:new    ;}
	.st24{fill:#FFFFFF;}
</style>
<g>
	<rect x="40.6" y="49.5" class="st0" width="200.8" height="105.7"/>
	<g>
		<path class="st1" d="M110,72.7H92.7v10.6h13.4V89H92.7v12.6h18.9v5.7H66.1v-5.7h7.3V79h5.3c1.4,0,1.9,0.3,1.6,1
			c-0.1,0.3-0.4,0.5-0.8,0.8v20.7h7.1V72.7H67.7V67H110V72.7z"/>
		<path class="st1" d="M130.8,64.6v7.1h3.9l0.8-0.8l3.5,3.5c1.1,1.1,0.9,1.6-0.4,1.4c-1.5,3.3-3.7,6.4-6.5,9.6
			c2.8,1.4,5.7,2.9,8.5,4.7l-3.1,5.3c-2.3-1.9-4.3-3.3-5.9-4.1v19.3h-5.7v-19c-2,1.6-4.3,3.3-6.7,4.9l-2.8-5.7
			c2.3-1.1,4.5-2.4,6.5-4.1c4.3-3.5,7.2-6.8,8.5-9.8h-13.2v-5.3h6.9V63h4.9C131.6,63.1,131.9,63.6,130.8,64.6z M154.6,65.2
			c-0.1,0.3-0.4,0.5-0.8,0.8v10.6h8.3v6.1h-8.3v19.5h10.8v6.1h-28.5v-6.1h11.2V82.7h-7.9v-6.1h7.9V64.2h5.7
			C154.3,64.2,154.8,64.5,154.6,65.2z"/>
		<path class="st1" d="M210.1,101.2h-5.7v-0.4h-1.2c0.7,0.5,1.7,1.1,3.1,1.6c3,1.1,6,1.8,9.2,2.2l-1.8,5.5c-3-0.3-5.9-1-8.7-2.2
			c-3.9-1.8-6.8-3.3-8.5-4.7l3.5-2.4h-13.6l2.2,2.2c0.5,0.5,0.8,1,0.8,1.2c0,0.5-0.5,0.7-1.4,0.6c-1.1,0.8-2.5,1.6-4.3,2.4
			c-3.4,1.8-6.8,3.1-10.2,3.9l-2.8-5.7c3.9-0.8,8.3-2.4,13-4.7H181v1h-5.7V76.2h34.8V101.2z M206.6,75.2h-28.3V62.8h28.3V75.2z
			 M181,81.1v1.6h23.4v-1.6H181z M181,87.6v1.6h23.4v-1.6H181z M181,94.1v1.8h23.4v-1.8H181z M183.7,67.6v2.6h17.7v-2.6H183.7z"/>
	</g>
</g>
<rect x="250.8" y="49.5" class="st2" width="271.7" height="105.7"/>
<g>
	<polygon class="st3" points="194.6,414.4 131.4,474 362,472.8 415.1,414.4 	"/>
	<g>
		<rect x="207.3" y="276.9" class="st4" width="112.5" height="187.5"/>
		<polygon class="st5" points="356.1,430.2 320.2,464.2 319.8,276.9 358.9,241.1 		"/>
		<polygon class="st6" points="319.4,275.8 208.5,275.8 243.5,241.7 357.1,241.7 		"/>
	</g>
</g>
<g>
	<g>
		<line class="st7" x1="118.2" y1="462.2" x2="92.9" y2="462.2"/>
		<line class="st7" x1="118.2" y1="453.9" x2="101.7" y2="453.9"/>
		<line class="st7" x1="118.2" y1="445.7" x2="101.7" y2="445.7"/>
		<line class="st7" x1="118.2" y1="437.5" x2="101.7" y2="437.5"/>
		<line class="st7" x1="118.2" y1="429.2" x2="101.7" y2="429.2"/>
		<line class="st7" x1="118.2" y1="421" x2="92.9" y2="421"/>
		<line class="st7" x1="118.2" y1="412.7" x2="101.7" y2="412.7"/>
		<line class="st7" x1="118.2" y1="404.5" x2="101.7" y2="404.5"/>
		<line class="st7" x1="118.2" y1="396.3" x2="101.7" y2="396.3"/>
		<line class="st7" x1="118.2" y1="388" x2="101.7" y2="388"/>
		<line class="st7" x1="118.2" y1="379.8" x2="92.9" y2="379.8"/>
		<line class="st7" x1="118.2" y1="371.6" x2="101.7" y2="371.6"/>
		<line class="st7" x1="118.2" y1="363.3" x2="101.7" y2="363.3"/>
		<line class="st7" x1="118.2" y1="355.1" x2="101.7" y2="355.1"/>
		<line class="st7" x1="118.2" y1="346.9" x2="101.7" y2="346.9"/>
		<line class="st7" x1="118.2" y1="338.6" x2="92.9" y2="338.6"/>
		<line class="st7" x1="118.2" y1="330.4" x2="101.7" y2="330.4"/>
		<line class="st7" x1="118.2" y1="322.2" x2="101.7" y2="322.2"/>
		<line class="st7" x1="118.2" y1="313.9" x2="101.7" y2="313.9"/>
		<line class="st7" x1="118.2" y1="305.7" x2="101.7" y2="305.7"/>
		<line class="st7" x1="118.2" y1="297.5" x2="92.9" y2="297.5"/>
		<line class="st7" x1="118.2" y1="289.2" x2="101.7" y2="289.2"/>
		<line class="st7" x1="118.2" y1="281" x2="101.7" y2="281"/>
		<line class="st7" x1="118.2" y1="272.7" x2="101.7" y2="272.7"/>
		<line class="st7" x1="118.2" y1="264.5" x2="101.7" y2="264.5"/>
		<line class="st7" x1="118.2" y1="256.3" x2="92.9" y2="256.3"/>
	</g>
	<g>
		<path class="st8" d="M81.3,462.7c0,0.6-0.2,1-0.5,1.4s-0.8,0.5-1.4,0.5s-1-0.2-1.4-0.5s-0.5-0.8-0.5-1.4v-6.1c0-0.6,0.2-1,0.5-1.4
			c0.3-0.3,0.8-0.5,1.3-0.5s1,0.2,1.3,0.5s0.5,0.8,0.5,1.4v6.1H81.3z M78.8,462.7c0,0.2,0.1,0.4,0.2,0.5s0.3,0.2,0.5,0.2
			s0.4-0.1,0.5-0.2s0.2-0.3,0.2-0.5v-6.1c0-0.2-0.1-0.4-0.2-0.5s-0.3-0.2-0.5-0.2s-0.4,0.1-0.5,0.2s-0.2,0.3-0.2,0.5V462.7z"/>
	</g>
	<g>
		<path class="st8" d="M71.4,422.6h-1.2v-7.5H69v-0.9c0.4,0,0.7-0.1,0.9-0.3s0.3-0.5,0.3-0.8h1.1L71.4,422.6L71.4,422.6z"/>
		<path class="st8" d="M78.5,420.9c0,0.6-0.2,1-0.5,1.4s-0.8,0.5-1.4,0.5s-1-0.2-1.4-0.5s-0.5-0.8-0.5-1.4v-6.1c0-0.6,0.2-1,0.5-1.4
			c0.3-0.3,0.8-0.5,1.3-0.5s1,0.2,1.3,0.5s0.5,0.8,0.5,1.4v6.1H78.5z M75.9,420.9c0,0.2,0.1,0.4,0.2,0.5s0.3,0.2,0.5,0.2
			s0.4-0.1,0.5-0.2s0.2-0.3,0.2-0.5v-6.1c0-0.2-0.1-0.4-0.2-0.5s-0.3-0.2-0.5-0.2s-0.4,0.1-0.5,0.2s-0.2,0.3-0.2,0.5V420.9z"/>
		<path class="st8" d="M84.5,420.9c0,0.6-0.2,1-0.5,1.4s-0.8,0.5-1.4,0.5s-1-0.2-1.4-0.5s-0.5-0.8-0.5-1.4v-6.1c0-0.6,0.2-1,0.5-1.4
			c0.3-0.3,0.8-0.5,1.3-0.5s1,0.2,1.3,0.5s0.5,0.8,0.5,1.4v6.1H84.5z M81.9,420.9c0,0.2,0.1,0.4,0.2,0.5s0.3,0.2,0.5,0.2
			s0.4-0.1,0.5-0.2s0.2-0.3,0.2-0.5v-6.1c0-0.2-0.1-0.4-0.2-0.5s-0.3-0.2-0.5-0.2s-0.4,0.1-0.5,0.2s-0.2,0.3-0.2,0.5V420.9z"/>
	</g>
	<g>
		<path class="st8" d="M72.2,371.8c0.3,0.3,0.5,0.8,0.5,1.3s-0.1,1-0.3,1.5l-2.3,5.1h2.3v1.1h-3.6v-1l2.3-5.1
			c0.4-0.8,0.5-1.4,0.3-1.9c-0.1-0.4-0.4-0.6-0.8-0.6c-0.2,0-0.4,0.1-0.5,0.2s-0.2,0.4-0.2,0.7v0.8h-1.1v-1c0-0.5,0.2-0.9,0.5-1.3
			s0.8-0.5,1.3-0.5C71.3,371.2,71.8,371.4,72.2,371.8z"/>
		<path class="st8" d="M78.5,379.1c0,0.6-0.2,1-0.5,1.4s-0.8,0.5-1.4,0.5s-1-0.2-1.4-0.5s-0.5-0.8-0.5-1.4V373c0-0.6,0.2-1,0.5-1.4
			c0.3-0.3,0.8-0.5,1.3-0.5s1,0.2,1.3,0.5s0.5,0.8,0.5,1.4v6.1H78.5z M75.9,379.1c0,0.2,0.1,0.4,0.2,0.5s0.3,0.2,0.5,0.2
			s0.4-0.1,0.5-0.2s0.2-0.3,0.2-0.5V373c0-0.2-0.1-0.4-0.2-0.5s-0.3-0.2-0.5-0.2s-0.4,0.1-0.5,0.2s-0.2,0.3-0.2,0.5V379.1z"/>
		<path class="st8" d="M84.5,379.1c0,0.6-0.2,1-0.5,1.4s-0.8,0.5-1.4,0.5s-1-0.2-1.4-0.5s-0.5-0.8-0.5-1.4V373c0-0.6,0.2-1,0.5-1.4
			c0.3-0.3,0.8-0.5,1.3-0.5s1,0.2,1.3,0.5s0.5,0.8,0.5,1.4v6.1H84.5z M81.9,379.1c0,0.2,0.1,0.4,0.2,0.5s0.3,0.2,0.5,0.2
			s0.4-0.1,0.5-0.2s0.2-0.3,0.2-0.5V373c0-0.2-0.1-0.4-0.2-0.5s-0.3-0.2-0.5-0.2s-0.4,0.1-0.5,0.2s-0.2,0.3-0.2,0.5V379.1z"/>
	</g>
	<g>
		<path class="st8" d="M72,330.8c0.3,0.3,0.5,0.8,0.5,1.3v2.1c0,0.3-0.1,0.5-0.2,0.6s-0.2,0.2-0.3,0.3c0.1,0.1,0.3,0.2,0.4,0.3
			c0.2,0.2,0.2,0.3,0.2,0.6v2.3c0,0.5-0.2,1-0.5,1.3s-0.8,0.5-1.4,0.5s-1.1-0.2-1.4-0.5s-0.5-0.8-0.5-1.3v-0.8H70v0.8
			c0,0.2,0.1,0.4,0.2,0.5s0.3,0.2,0.5,0.2s0.4-0.1,0.5-0.2s0.2-0.3,0.2-0.5v-1.9c0-0.2-0.1-0.3-0.2-0.5c-0.1-0.1-0.2-0.1-0.4-0.1
			h-0.5v-1.1h0.5c0.2,0,0.3,0,0.4-0.1s0.1-0.3,0.1-0.5v-1.9c0-0.2,0-0.4-0.1-0.5s-0.3-0.2-0.5-0.2s-0.3,0.1-0.5,0.2S70,332,70,332.2
			v0.8h-1.2v-0.8c0-0.5,0.2-1,0.5-1.3s0.8-0.5,1.4-0.5S71.7,330.5,72,330.8z"/>
		<path class="st8" d="M78.5,338.3c0,0.6-0.2,1-0.5,1.4s-0.8,0.5-1.4,0.5s-1-0.2-1.4-0.5s-0.5-0.8-0.5-1.4v-6.1c0-0.6,0.2-1,0.5-1.4
			c0.3-0.3,0.8-0.5,1.3-0.5s1,0.2,1.3,0.5s0.5,0.8,0.5,1.4v6.1H78.5z M75.9,338.3c0,0.2,0.1,0.4,0.2,0.5s0.3,0.2,0.5,0.2
			s0.4-0.1,0.5-0.2s0.2-0.3,0.2-0.5v-6.1c0-0.2-0.1-0.4-0.2-0.5s-0.3-0.2-0.5-0.2s-0.4,0.1-0.5,0.2s-0.2,0.3-0.2,0.5V338.3z"/>
		<path class="st8" d="M84.5,338.3c0,0.6-0.2,1-0.5,1.4s-0.8,0.5-1.4,0.5s-1-0.2-1.4-0.5s-0.5-0.8-0.5-1.4v-6.1c0-0.6,0.2-1,0.5-1.4
			c0.3-0.3,0.8-0.5,1.3-0.5s1,0.2,1.3,0.5s0.5,0.8,0.5,1.4v6.1H84.5z M81.9,338.3c0,0.2,0.1,0.4,0.2,0.5s0.3,0.2,0.5,0.2
			s0.4-0.1,0.5-0.2s0.2-0.3,0.2-0.5v-6.1c0-0.2-0.1-0.4-0.2-0.5s-0.3-0.2-0.5-0.2s-0.4,0.1-0.5,0.2s-0.2,0.3-0.2,0.5V338.3z"/>
	</g>
	<g>
		<path class="st8" d="M72,294.7h0.8v1.1H72v2.3h-1.2v-2.3h-2.4v-1.1l2.3-6.1H72V294.7z M69.6,294.7h1.2v-3.4L69.6,294.7z"/>
		<path class="st8" d="M78.5,296.4c0,0.6-0.2,1-0.5,1.4s-0.8,0.5-1.4,0.5s-1-0.2-1.4-0.5s-0.5-0.8-0.5-1.4v-6.1c0-0.6,0.2-1,0.5-1.4
			c0.3-0.3,0.8-0.5,1.3-0.5s1,0.2,1.3,0.5s0.5,0.8,0.5,1.4v6.1H78.5z M75.9,296.4c0,0.2,0.1,0.4,0.2,0.5s0.3,0.2,0.5,0.2
			s0.4-0.1,0.5-0.2s0.2-0.3,0.2-0.5v-6.1c0-0.2-0.1-0.4-0.2-0.5s-0.3-0.2-0.5-0.2s-0.4,0.1-0.5,0.2s-0.2,0.3-0.2,0.5V296.4z"/>
		<path class="st8" d="M84.5,296.4c0,0.6-0.2,1-0.5,1.4s-0.8,0.5-1.4,0.5s-1-0.2-1.4-0.5s-0.5-0.8-0.5-1.4v-6.1c0-0.6,0.2-1,0.5-1.4
			c0.3-0.3,0.8-0.5,1.3-0.5s1,0.2,1.3,0.5s0.5,0.8,0.5,1.4v6.1H84.5z M81.9,296.4c0,0.2,0.1,0.4,0.2,0.5s0.3,0.2,0.5,0.2
			s0.4-0.1,0.5-0.2s0.2-0.3,0.2-0.5v-6.1c0-0.2-0.1-0.4-0.2-0.5s-0.3-0.2-0.5-0.2s-0.4,0.1-0.5,0.2s-0.2,0.3-0.2,0.5V296.4z"/>
	</g>
	<g>
		<path class="st8" d="M72.4,248.8H70v2.7c0.2-0.2,0.5-0.3,0.8-0.3c0.5,0,0.9,0.1,1.2,0.4s0.4,0.7,0.4,1.2v2.7c0,0.6-0.2,1-0.5,1.4
			c-0.3,0.3-0.8,0.5-1.4,0.5s-1-0.2-1.4-0.5c-0.3-0.3-0.5-0.8-0.5-1.4v-0.9H70v0.9c0,0.2,0.1,0.4,0.2,0.5s0.3,0.2,0.5,0.2
			s0.4-0.1,0.5-0.2s0.1-0.3,0.1-0.5V253c0-0.3-0.1-0.5-0.2-0.6s-0.3-0.2-0.5-0.2s-0.3,0.1-0.4,0.2s-0.2,0.3-0.2,0.5h-1.2v-5.2h3.6
			V248.8z"/>
		<path class="st8" d="M78.5,255.5c0,0.6-0.2,1-0.5,1.4s-0.8,0.5-1.4,0.5s-1-0.2-1.4-0.5s-0.5-0.8-0.5-1.4v-6.1c0-0.6,0.2-1,0.5-1.4
			c0.3-0.3,0.8-0.5,1.3-0.5s1,0.2,1.3,0.5s0.5,0.8,0.5,1.4v6.1H78.5z M75.9,255.5c0,0.2,0.1,0.4,0.2,0.5s0.3,0.2,0.5,0.2
			s0.4-0.1,0.5-0.2s0.2-0.3,0.2-0.5v-6.1c0-0.2-0.1-0.4-0.2-0.5s-0.3-0.2-0.5-0.2s-0.4,0.1-0.5,0.2s-0.2,0.3-0.2,0.5V255.5z"/>
		<path class="st8" d="M84.5,255.5c0,0.6-0.2,1-0.5,1.4s-0.8,0.5-1.4,0.5s-1-0.2-1.4-0.5s-0.5-0.8-0.5-1.4v-6.1c0-0.6,0.2-1,0.5-1.4
			c0.3-0.3,0.8-0.5,1.3-0.5s1,0.2,1.3,0.5s0.5,0.8,0.5,1.4v6.1H84.5z M81.9,255.5c0,0.2,0.1,0.4,0.2,0.5s0.3,0.2,0.5,0.2
			s0.4-0.1,0.5-0.2s0.2-0.3,0.2-0.5v-6.1c0-0.2-0.1-0.4-0.2-0.5s-0.3-0.2-0.5-0.2s-0.4,0.1-0.5,0.2s-0.2,0.3-0.2,0.5V255.5z"/>
	</g>
</g>
<g>
	<path class="st9" d="M509.6,479l-39.8-22.6c-4.3-2-10.5-3.6-15-1.3c-4,2.1-10.7,6.4-13.6,8.1c-2.2,1.3-10,5.9-5.1,8.5
		c14.2,7.7,28.2,16.4,42.5,24.2c2.7,1.5,6.7,2,10.9,1.7c4.2-0.3,8.4-1.6,11.8-3.5c2.4-1.4,4.7-2.8,7.1-4.1c3.1-1.8,4.8-4,4.9-5.9
		C513.5,482.1,512.3,480.3,509.6,479z"/>
	<g>
		<path class="st10" d="M449.9,341c2.1-0.9,4.9,5.5,2.8,6.2C450.6,347.9,447.8,341.9,449.9,341z"/>
		<path class="st11" d="M451.4,340.5c-1,0.6-2.3,0.8-2.8,1.4c-3,3.4,3.5,6.1,3.8,6c0.8-0.5,1.7-2.4,3.2-4L451.4,340.5z"/>
		<path class="st12" d="M473.6,333.6c-4.8,4.2-10.4,8.9-20.8,13.6c1.6-0.9-0.4-6.6-2.9-6.2c6-5.1,12.8-11.3,19.1-14.6
			c3.6-1.5,6.6-0.3,7.3,1.7C476.7,329.5,476.4,331.2,473.6,333.6z"/>
		<path class="st10" d="M473.6,333.6c-4.8,4.2-10.4,8.9-20.8,13.6c0.8-0.5,0.7-2.1,0.1-3.6c4.3-2.9,7.8-5.1,8-5.7
			c0.4-1.3,0-3.7,0.1-6.2c2.7-2.1,5.4-3.9,8-5.3c3.6-1.5,6.6-0.3,7.3,1.7C476.7,329.5,476.4,331.2,473.6,333.6z"/>
		<path class="st13" d="M477.6,358.1c1.7,5.2,0.1,13.8-1.3,22.8c-0.8,5-2,10.1-2.6,14.5c-0.7,4.9-1,8-0.8,10.4
			c0.4,5.7,2.9,6.9,3.8,14.4c1.1,9-3.7,19.4-3.3,29.4c0.2,0.9,0.6,1.7,1.2,2.4c4,4.9-0.1,4.3,0.3,10.7c0,0.6-2.2,10.5-2.2,10.5
			s-5.9,1.6-6.4,1.6c-0.4-0.1-4.1-1.3-4.1-1.3c0.3-0.5,0.7-1.8,0.9-2.3c2.7-5.7,3-12.6,3-19c0-8.7-2.4-29.3-4.7-37.7
			c-2.3-5.1-3.1-5.7-2.7-14.6c0.5-14.5-0.5-25.3,1.3-40.6L477.6,358.1z"/>
		<path class="st14" d="M473,401.2c-0.2,1.9-0.2,3.4-0.1,4.6c0.4,5.7,2.9,6.9,3.8,14.4c1.1,9-3.7,19.4-3.3,29.4
			c0.2,0.9,0.6,1.7,1.2,2.4c4,4.9-0.1,4.3,0.3,10.7c0,0.6-2.2,10.5-2.2,10.5s-3.6,1-5.4,1.4c2.2-2.9,3.8-6.2,4.2-10.6
			c0.4-4.3-1.1-10.9-1.1-13.4c-0.1-7.7,0.2-24.7-0.1-27.7c-0.5-5-2.3-8.9-4.2-16c-0.5-2,0.1-3.2,4.8-3.7L473,401.2z"/>
		<path class="st15" d="M463.8,469.3c-0.6,1.2-1.3,2.8-1.9,4.1c-0.8,1.6-1.1,2.7-1.5,4c-0.2,0.6-0.1,1.2,0.1,1.6
			c1.4,1.9,8.6-1.6,11-3.7c1.6-1.4,1.6-3,1.9-5c0.5-3,0.6-3.3,1.4-6.4l0.8,8.3l0.7,0.4c0.1-3.4,0.5-7.8,1-10.7
			c0.2-1.1,0.6-2.5,0.6-3.1c0.3-3.8-1.6-5.6-3.3-6.7c0.6,2.3-1,6-1.8,10.7c-0.8,4.9-3.5,10.2-5.6,10.7c-0.9,0.2-2.9-0.9-4-1.5
			C462.9,471.8,463.4,470.4,463.8,469.3z"/>
		<path class="st10" d="M462.5,479.5c2.7-0.3,7.2-2.6,9-4.2c1.6-1.4,1.6-3,1.9-5c0.5-3,0.6-3.3,1.4-6.4l0.8,8.3l0.7,0.5l0.6-0.6
			c0.1-3.2-0.1-7.6,0.4-10.1c0.2-1.1,0.6-2.5,0.6-3.1c0.3-3.8-1.6-5.6-3.3-6.7c0.6,2.3-1,6-1.8,10.7c-0.6,4-2.6,8.4-4.5,10
			C466.9,475.3,464.8,477.4,462.5,479.5z"/>
		<g>
			<path class="st13" d="M483.7,416.3c1.6,2.5,3.4,5,4.2,7c3,7.8,1.8,21.4,2.6,33.2c0.1,1.2,0.8,2.2,1.1,3.4c0.5,1.7,1.1,3.6,1.4,6
				c0.4,3,0.8,6.7,0.6,11.2c-0.1,1.6-0.6,2.4-0.7,4.5l-8.7,3c0.2-1.9,0.3-4.7,0.4-7.9c0-2.8-0.1-5.9-0.2-8.7
				c-0.1-3.2,0.1-6.1-0.2-7.9c-1.7-11.2-4.7-15-8.1-26.4c-1.4-4.7-1.5-6.7-3.6-11c-0.9-2.2-1.4-6-0.9-9.9
				C472,409.3,478.4,412.7,483.7,416.3z"/>
			<path class="st13" d="M492.9,388.7c-4.2,13.5-7.5,18.5-8.1,24.3c-0.2,1.9,0.3,4.3,0.8,6.8l-13,0.8c-0.4-1.5-0.7-3.5-1.1-6.3
				c-0.4-3.2,0-6.5,0.5-8.4c1.1-4.4,3-10.9,6.1-19.6l15,1.2L492.9,388.7z"/>
			<path class="st14" d="M480.4,406.5c0.1,1.7,0.3,3.3,0.8,4.8c1,3.7,5.4,8.6,6.7,12.1c3,7.8,1.8,21.4,2.6,33.2
				c0.1,1.2,0.8,2.2,1.1,3.4c0.5,1.7,1.1,3.6,1.4,6c0.4,3,0.8,6.7,0.6,11.2c-0.1,1.6-0.6,2.4-0.7,4.5l-3.3,1.1
				c0.7-5.8-0.1-13.4-0.9-20.6c-1.5-12.3-4.2-26.2-7.7-35.6c-1.2-3.2-2.3-5.6-4.8-7.2c3-0.5-0.6-3.3-2.6-7.8L480.4,406.5z"/>
			<path class="st15" d="M491.3,459.2c0.8,1.7,1.6,2.6,2,5.1c0.5,2.5-0.1,6.5,0.5,9.5l0.9,4.8c0.5,2.8,0.1,4.9-2.7,7.7
				c-2.6,2.6-5.3,3.9-6.9,3.4c-1.2-0.4-2.4-2.2-1.5-7.8c0.8-4.6,0.6-9,0.7-13.9c0.4,4.7,0.6,6.4,0.2,11.1c-0.1,1.3-0.1,3.5,1.4,3.5
				c6.4-0.1,6.5-1.8,6.7-3.9C493.2,473.4,492.7,464,491.3,459.2z"/>
		</g>
		<path class="st10" d="M491.3,459.2c0.8,1.7,1.6,2.6,2,5.1c0.5,2.5-0.1,6.5,0.5,9.5l0.9,4.8c0.5,2.8,0.1,4.9-2.7,7.7
			c-1.4,1.4-2.8,2.4-4.1,3c-0.3,0.1,2.2-4.5,1.8-7.1c2.7-0.6,2.7-2,2.9-3.5C493.2,473.4,492.7,464,491.3,459.2z"/>
		<path class="st16" d="M490.5,336.4c-2.4,4.7-3.6,9.9-3.2,13l0,0c0.1,0.3,0.1,0.7,0.2,1c0.7,2.2,1.9,4,3.2,5.9
			c2.2,3.3,3.5,5.6,4.5,9.6c1.4,5.2,0.2,13.2-1.7,22.3c-1.1,5-2.6,10.1-3.5,14.5c-0.8,4-3.6,9.7-2.1,13.9c-2,1.8-2.7,2.9-6,2.9
			c-8.9,0.2-20.4-4.7-22.5-8.2c-0.7-2-0.9-3.5-1-5.9c-0.2-1.9-0.1-4-0.2-9.7c-0.3-10.4,0.3-20.2,0.4-30.7c0.3-2.9,0.5-6.1,0.7-9.1
			c0-0.7,0.1-1.4,0.2-2.1c0.1-0.7,0.2-1.5,0.3-2.2c0.8-3.8,2.4-6.7,3-9.6c0.9-4.5-1.1-8.9-0.6-14.1c0.1-1.4,0.3-2.8,0.4-4.2
			c0.5-4.8,0.5-9,1.1-13.1c0.7-5.4,1.3-9.9,2-12.1c0.2-0.8,0.6-1.5,1-2.1c1.4-2,4-3.1,8.4-1.2c4,1.7,9.2,3.9,13.9,6.8
			c2,1.2,8.4,6,9.7,7.9c0.7,1,1.1,2.1,1.2,3.6C500.4,320,493.5,330.3,490.5,336.4z"/>
		<path class="st17" d="M468.8,325.8c2.1,1.1,4.2,4.2,7.5,6c2.2,1.2,6.9,2,10.3-2c0.6-1.8,1.1-3.5,1.2-5.3
			c0.3-6.8,1.2-10.4,5.1-15.9c-2.4-1.3-4.9-2.7-6.2-4.2l-15.2-8.3l-4.9,1.3c-1.6,4.6-2.6,7-5.6,11.4c-1.7,2.5-2.4,5.5-1.7,8.6
			C460.3,322.3,465,323.8,468.8,325.8z"/>
		<path class="st16" d="M495.2,365.8c1.4,5.2,0.2,13.2-1.7,22.3c-1.1,5-2.6,10.1-3.5,14.5c-0.6,2.8-1.6,8.5-1.9,14
			c-1,1.7-4.1,2.9-6.2,2.8c-2.7-15.5,2.5-32.6,3-45.7c0.2-6.7-3.5-5.7-10.7-9c-6.8-3.1-9-8.5-3.3-6.7c7.1,2.2,11.6,0.4,11.2-3.1
			c-0.2-1.7-0.4-3.4-0.5-4.8l-0.2-0.3c2,0.1,3.9,0,5.8-0.5c0.1,0.4,0.1,0.8,0.2,1.2c0.7,2.2,1.9,4,3.2,5.9
			C492.8,359.4,494.2,362,495.2,365.8z"/>
		<path class="st17" d="M481.4,378.7c-0.9,8.7-1.6,16.6-2.6,25.4c-0.5,4.2-0.6,9.2,0.4,13.4c-6.2-1.3-13.8-3.6-17.5-6
			c-3.2-2.1-2.6-8.3-2.7-12c-0.2-12.5,0.1-25,0.4-37.5c0.1-6.7,0.3-10.8,2.6-16.7c4.4,3.4,8.8,5.4,16,7c-2.6,3.8-4.2,4.9-6.6,4.3
			c-2-0.5-4.4-0.9-5.6-0.2c-1.4,0.8-1.4,2.8,0.9,5.6c1.5,1.8,8.1,6.1,13.1,8C483.1,371.2,481.8,375.3,481.4,378.7z"/>
		<g>
			<path class="st12" d="M490.5,336.4c-2.6,5.2-3.9,11.1-3,13.9c1,3.1,10.5,12,8.9,23.8c-1.7,4.6-7.2,7.1-13.8,5.9
				c-2.1-0.4-16.7-7.7-16.8-8.6c-0.6-11.8-0.8-33.7,4.1-43.3c3.9-7.8,9.6-11.6,13.4-16.2c1.1-1.5,3.1-4.4,4.4-6.7
				c0.4-0.2,0.7-0.6,0.9-1.1c0.3-0.8,0.5-1.8-0.1-2.9c2.7,1.6,5.2,3.5,7.2,5.6c2.4,1.4,4.1,3.2,4.3,6.3
				C500.4,320.1,493.5,330.4,490.5,336.4L490.5,336.4z M476.4,297.4c0.9-0.3,1.9-0.6,3-0.8c-1.5-0.7-3-1.3-4.3-1.8
				c-4.4-1.9-7-0.8-8.4,1.2c-0.4,0.6-0.9,1.4-1,2.1c-0.7,2.2-1.3,6.7-2,12.1c-0.5,4.2-1.1,8.9-1.5,13.6c-0.1,1.4-0.3,2.8-0.4,4.2
				c-0.5,5.2,1.4,9,0.5,13.5c-0.7,3.6-2.2,5.5-3.2,11.1c-0.4,2.1-0.9,8.3-1.1,13c0.6,0.9,2.5,3,5.7,4.5c-0.3-10.5,0.7-21,2.2-31.6
				c0.8-12.3,0.2-24.7,4.8-36.4C471.8,299.1,474,297.8,476.4,297.4z"/>
			<path class="st10" d="M490.5,336.4c-2.6,5.2-3.9,11.1-3,13.9c1,3.1,10.5,12,8.9,23.8c-1.1,2.8-3.5,4.9-6.8,5.8
				c-0.1-10.3-8.3-18-7.8-30.7c0.2-4.5,2.3-7.8-0.9-11.3c-0.7-0.8-2.8-1.4-4.5-2.1c-4.1-1.5-5.7-3.6-7.5-5.1
				c3.2-7.1,7.6-11.4,11.4-15.2l8.2,3.2c0.9-4.6,2.7-8.2,5.5-11.3v-1.5c3.2,1.7,5.7,3.4,6,7.2C500.4,320.1,493.5,330.4,490.5,336.4
				L490.5,336.4z M466.1,328.9c-1.6-0.7-2.9-1.4-4.3-2c0-0.1,0-0.1,0-0.2c0.1-1,0.2-1.9,0.3-2.9l0.1-1c0.8-4.4,2.6-8.7,4-12.8l2.6,1
				C467.1,317.1,466.5,322.8,466.1,328.9z"/>
			<path class="st12" d="M470.5,327c1.6,1.4,3.4,3.5,5.8,4.8c2.2,1.2,6.9,2,10.3-2c0.6-1.8,1.1-3.5,1.2-5.3
				c0.3-6.8,1.2-10.4,5.1-15.9c-2.2-1.2-4.1-1.8-5.5-3.1C483.5,313.4,476.5,316.8,470.5,327L470.5,327z M476.4,297.4
				c-2.5,1-4.6,5-5.4,7c-2.9,7.2-4,13.6-4.5,20.3c-3.2-1.6-6.3-3.3-7.2-7.2c-0.7-3.1,0-6.1,1.7-8.6c3-4.4,4-6.8,5.6-11.4l4.9-1.3
				L476.4,297.4z"/>
			<path class="st15" d="M489.9,307.6l1.3,1.3c-1.5,2.2-3.6,5.4-3.7,9.2c-0.1,3.8-0.8,7.4-1.9,9.6c-1.6,3.6-4.5,4.2-8.1,3.2
				c-2.3-0.6-4.5-2.2-5.8-5.1C474.4,321.1,487.3,310,489.9,307.6z"/>
			<path class="st18" d="M467.1,301.2l2.1,1.8l-2.7,0.9c-0.8,6.4-0.9,11.7-0.1,20.9c0.8-8.1,2.3-15.8,5.7-22.6
				c0.6-1.1,2.3-4.8,7.2-5.4l-2.9-1.3C471.9,294.5,468.9,297.3,467.1,301.2z"/>
			<path class="st10" d="M489.3,315c1.7,0.9,5.7,10.4,7.3,8.2c3.6-5,5.4-11.2,0.2-15.8c-2.3-2-5.2-4-8.3-5.9l0,3.4
				c1.4,1.3,2.7,2.7,4.2,4.1C491.3,311.1,490.2,312.4,489.3,315z"/>
			<path class="st18" d="M487.7,300.3c1.6,1.2,2.3,2.2,2.8,3.7c0.9,3-0.7,6-3.3,9.9L484,313l1.1,3.2c-7.2,3.5-10.1,5.7-14.6,11.1
				c5.8-11.8,14.9-16.4,16.8-23.1c0.8-2.9-0.3-3.7-0.9-4.8C486.2,299.2,487.7,300.5,487.7,300.3z"/>
			<path class="st15" d="M480.5,346.5c-0.5,5.8,0,10.4,0.6,12.9c1.5,5.5,5.1,12,6.8,20c-7.4-0.1-20.7-8.3-20.7-8.3
				c-0.3-8-2.3-24.5,2-38.5c2.7,2.9,5.7,4.2,8,5.4C482.3,340.7,481,341.3,480.5,346.5z"/>
		</g>
		<path class="st15" d="M462.1,328.3c1.2,0.5,2.2,1,3.3,1.4c-0.2,5-0.4,9.7-1.1,14.3c-1.5,10.2-1.9,13.9-1.8,24.4
			c-1.8-1.3-2.6-2-4-3.6c0.2-12.2,2.6-15.9,4-22.9C463.2,338.6,462.1,334.9,462.1,328.3z"/>
		<path class="st19" d="M490.8,290.4c0.8-10.9-3.3-29.8-19.4-24.7c-4.9,1.5-8.1,5.3-9.2,11.8c-2.6,14.6,7.5,23.8,9.7,26.7
			C476.7,303.4,490.2,298,490.8,290.4z"/>
		<g>
			<path class="st14" d="M486.2,301.1c0.4,3.2-6.6,4.7-11,4.1c-0.5-0.1-0.9-0.2-1.2-0.4c-0.3-0.2-0.5-0.4-0.5-0.4
				c-0.5-1.1-0.6-2.6-0.6-2.8c-0.3-2.8-0.9-5.4-2.7-8.8l11.5-4.5l2.9-1.3C483.1,293,484.2,295.9,486.2,301.1z"/>
			<path class="st11" d="M486.3,300.2c0,0.1,0,0.2,0,0.2c-4.1-3.7-9.8-1.2-13.9-1.5c-0.1-0.3-1.1-4.8-1.2-4.9c-0.4-1-0.5-0.8-1-2.2
				l11.5-4.5l2.9-1.3C483.2,292.2,484.3,295,486.3,300.2z"/>
		</g>
		<g>
			<path class="st19" d="M468.3,286.5l4.9-3.1l-2-8.7l-4-6.2C460.5,272.6,464.1,285.9,468.3,286.5z"/>
			<path class="st13" d="M473.6,296.8c6.2-2.7,8-5.8,9.5-12.2c2.7-1.9,3.9-3.4,4.2-5.1c0.7-4.1-1.6-8.5-4.6-11
				c-2.7-2.2-5.8-2.8-9.3-2.1c-6.9,1.3-9.4,5.7-9.9,11.6c-0.1,1.1,0.5,3.6,0.9,4.7c0.6,1.9-0.3,1.4-0.2,3.4c0,0.9,0.7,3.9,1.9,7.2
				c0.7,1.9,0.8,3.9,1.8,4.2C468.8,297.8,470.8,298,473.6,296.8z"/>
			<path class="st14" d="M473.6,296.8c6.2-2.7,8-5.8,9.5-12.2c2.7-1.9,3.9-3.4,4.2-5.1c0.7-4.1-1.6-8.5-4.6-11
				c-2.7-2.2-5.8-2.8-9.3-2.1c-4.3,0.8-8.3,11.4-9.6,14.6c2.5-1.8,7.9-4.4,10.3-3.3c1.5,0.6,1.7,3,2,4.1c0.5,2.3-2.2,2.5-2.2,3.6
				c0,1.1,3,3.7,2.4,6.7c-0.2,0.8-2.1,4-3,5C473.4,296.9,473.5,296.8,473.6,296.8z"/>
			<path class="st20" d="M464.3,272.3c1.5-0.7,9.4-2.5,11.7,1.3c2.1,3.6,4.1,7.1,6.1,10.1c0.7,1.1,1.3,0.8,1.4,2.8
				c0.1,2.1,3.1-4.4,3.8-6.5c1.9-5.6,0.2-10.2-5-13.3C475.6,262.6,466.5,266.3,464.3,272.3z"/>
			<g>
				<path class="st14" d="M483.6,280.3c2.5-1.2,2.9,1.8,2.8,3.7c-0.1,1.3-1.2,1.4-1.4,2.4c-0.3,1.3-1.2,1.9-2,2
					c-1.6,0.2-0.9-2.4-0.8-3.3C481.7,283.6,482,281.1,483.6,280.3z"/>
				<path class="st11" d="M482.9,284.1c0.4-1.3,0.5-3,2.3-3C483.6,281.4,483.4,282.9,482.9,284.1z"/>
			</g>
			<path class="st20" d="M462.7,283.6c0-1.7,1.8-3.9,2.3-4.3c2.7-2.2,7.8-3.5,11.4-5.6c3.4,2.2,4.8,6,7.5,4.1
				c5.7-3.9,4.3-11.2-6.1-13.4C472,263.8,459,268.9,462.7,283.6z"/>
			<path class="st20" d="M478.7,306.5c21.2-5,18.1-46.3-4.5-41.8c0.9,2.2-0.5,5.4,1.1,7.8c2.5,3.7,5.2,9.8,6.1,16.7
				C482.1,294.5,481.8,302.2,478.7,306.5z"/>
			<path class="st19" d="M478.7,306.5c16.5-3.9,18.3-29.8,7.6-38.9c-0.4-0.3-0.8-0.6-1.3-0.9c2.3,2.6,3.1,3.9,4.4,8
				c-1.2-2.7-2.3-3.9-3.7-5.4c1.3,2.7,2.2,4.5,2.8,7.5c-1.1-2.3-1.8-3.5-2.7-4.5c1,2.2,1.7,4.3,1.9,6.7c-0.6-1.8-1.1-2.7-2-4.3
				c1.1,2.8,1.1,3.3,1.6,5.8c-0.7-2-1.3-3-2.2-4.1c1.4,3.3,1.7,5.3,2,8.7c-0.8-3.1-0.9-4.5-2.6-7.1c1.3,3.6,1.3,5.4,1.7,9.1
				c-0.5-2-1.2-4.4-2.2-6.2c0.8,3.3,1.7,6.7,2.2,10.1c-1.1-3.4-2.4-6.4-3.6-9.4c0.8,2.9,1.6,7.1,2.1,11.6c-0.7-2.4-1.9-6.6-2.6-8.6
				c0.5,2.4,0.9,6.3,0.6,9.1c-1.3-9-2.3-11.8-3.9-14.5c1.2,2.9,2.1,6.3,2.6,9.9C482.1,294.5,481.8,302.2,478.7,306.5z"/>
			<path class="st19" d="M478.9,270.4c-2.6,7-15.3,5.8-16.1,13.4C461.9,274.5,472.6,274.6,478.9,270.4z"/>
			<path class="st21" d="M479.4,264.7c-0.5-0.1-0.9-0.3-1.4-0.4c-5.7-0.5-17.8,4.1-15.6,17.3c0.5-7.8,14.2-9.8,17.9-13.1
				c-3.4,0.8-7.7,2.5-11.7,4.2c4.4-3.3,9.9-4.9,13.1-6.1c-3.7,0.4-7.3,1.6-10.8,3.2c3.7-2.4,6.1-3.2,10.3-4.2
				c-3.5-0.1-6,0.9-9.1,1.7C474.6,265.7,477.6,265,479.4,264.7z"/>
		</g>
		<path class="st12" d="M500.6,312.6c2.6,7.5,0.8,19,0.7,29.8c-0.1,5.7-7.8,5.5-8.7,0c-1.2-6.5-1.5-14.5-1.7-20.9
			c-0.2-5.9-0.1-12.1,4-13C497.9,307.8,499.6,309.8,500.6,312.6z"/>
		<path class="st10" d="M500.6,312.6c2.6,7.5,0.8,19,0.7,29.8c-0.1,4.4-4.6,5.3-7.2,3l0,0c3.7-3.2,2.4-1.8,2.4-5.8
			c0-11,0.3-20-1.4-31C498,307.9,499.7,309.8,500.6,312.6z"/>
		<path class="st10" d="M474.7,354.8c2.1-0.9,4.9,5.5,2.8,6.2C475.4,361.7,472.6,355.6,474.7,354.8z"/>
		<path class="st13" d="M477.6,353.7c-0.8,0.7-2.3,1.1-2.9,1.2c-0.7,0.1-1.8,0.3-2.5,0.4c-1.2,0.3-2.7,1.3-4.8,2.1
			c1,2,3.3,0.4,4.4,0.3c1-0.1,2,0,2.9-0.2C476.1,357.2,477.9,355.2,477.6,353.7z"/>
		<path class="st11" d="M444.3,341.9c-0.8,0.2-1.6,0.5-2.5,0.6c0.4,1.8,2.1,1.4,3.5,1.2L444.3,341.9z"/>
		<path class="st22" d="M473.9,363c0.1,0.2,0.5,1.2-1.1,0.6l-18.6-11.1l-2.9-2.6L430.9,332c-1.3-1.2-1.8-2.4,0.9-0.8l18,10.5
			c1.2,0.7,1.5,0.9,1.9,1.3L473.9,363z"/>
		<path class="st11" d="M445.6,343.3c-1.3,0.8-1.3,0.2-1.1,1.1c0.4,1.3,3.4,4.2,4.8,4.8c0,0,0.7,0.2,1.1-0.3
			c0.3-0.4-0.1-0.5-0.6-1.3l-2.4-3.5C446.6,343,446.3,342.8,445.6,343.3z"/>
		<path class="st13" d="M478.7,352.6c-0.7,0.9-2.2,2-3.1,2.5c-0.9,0.5-1.3,0.7-2,0.9c-2.1,0.7-3.1,3-4.4,2.8
			c-1.3-0.1-4.8-2.3-4.7-1.6c0.1,0.5,1,2.2,1.4,2.7c0.8,1.1,1.7,1.7,2.9,2.5c1.3,0.8,2.6,1.3,3.4,1.6c0.9,0.3,1.1,0,1.7-0.2
			c0.6-0.2,2.5-2.1,2.9-2.6c1.9-2.2,2.3-2.7,4.2-3.8L478.7,352.6z"/>
		<path class="st14" d="M478.7,352.6C478.7,352.6,478.7,352.6,478.7,352.6l0.3,1c-0.6,0.2-3.3,2.9-3.7,3.3c-2.1,2-3.1,4-4.9,3.3
			c-2.2-0.8-3.5-1.3-5.5-2.3c0.3,0.7,0.8,1.6,1.1,1.9c0.8,1.1,1.7,1.7,2.9,2.5c1.3,0.8,2.6,1.3,3.4,1.6c0.9,0.3,1.1,0,1.7-0.2
			c0.6-0.2,2.5-2.1,2.9-2.6c1.9-2.2,2.3-2.7,4.2-3.8L478.7,352.6z"/>
		<path class="st12" d="M498.4,347.4c-4.8,4.2-10.4,8.9-20.8,13.6c1.6-0.9-0.4-6.6-2.9-6.2c4.9-3.6,12.8-11.3,19.1-14.6
			c3.6-1.5,6.6-0.3,7.3,1.7C501.6,343.3,501.2,344.9,498.4,347.4z"/>
		<path class="st10" d="M498.4,347.4c-4.8,4.2-10.4,8.9-20.8,13.6c0.8-0.5,0.7-2.2,0-3.7c5.7-3.7,11.5-7.7,16.6-12.1
			c3.7-3.2,2.4-1.8,2.4-5.7c2.3-0.1,4,0.9,4.5,2.3C501.6,343.3,501.2,344.9,498.4,347.4z"/>
	</g>
</g>
<g class="st23">
	<path class="st1" d="M86.8,131.2c0,3.8,1.8,6.9,5.4,9.2l-1.6,1.9c-4.3-3-6.5-6.7-6.5-11.1c0-4.4,2.2-8.1,6.5-11.1l1.6,1.9
		C88.6,124.3,86.8,127.3,86.8,131.2z"/>
	<path class="st1" d="M108.2,120.7c-0.1,0.1-0.2,0.3-0.4,0.4v2h8.6v2.6H99.4v2.3h2.9v-2.1h2.3c0.8,0.1,0.9,0.3,0.4,0.8v1.3h3.6v-2.1
		h2.3c0.8,0.1,0.9,0.3,0.4,0.8v1.3h5.1v2.4h-5.1v5.3h-2.6v-0.7H105v0.9h-2.6v-5.6h-2.9v4.4c0,1.1-0.2,2.2-0.5,3.3
		c-0.6,1.9-1.3,3.2-2.3,4.1l-2-2c0.5-0.4,1-1.3,1.5-2.4c0.4-0.9,0.6-1.8,0.6-2.9V123h8.3v-2.8h2.4
		C108.1,120.2,108.4,120.3,108.2,120.7z M103,138.2c-0.6,1.6-1.3,3-2.2,4.2l-2.3-1.6c1.1-1.4,2-2.9,2.5-4.5l2,1
		C103.6,137.8,103.6,138.1,103,138.2z M106.8,141.4l-2.8,0.5c0.1-1.9-0.1-3.5-0.5-4.8l2.3-0.3C106.6,138.3,106.9,139.9,106.8,141.4z
		 M105,130.4v2.3h3.6v-2.3H105z M110.7,139c0.3,0.9,0.5,1.7,0.6,2.4l-2.9,0.6c-0.1-1.6-0.5-3.3-1-5l2.3-0.6
		C110,137.2,110.4,138,110.7,139z M114.1,141.9c-0.9-1.6-2-3.2-3.2-4.8l2-1.1c1.5,1.4,2.7,2.9,3.5,4.4L114.1,141.9z"/>
	<path class="st1" d="M134.1,120.7c0.1,0.1,0.1,0.1,0,0.2c-0.1,0.1-0.2,0.1-0.4,0.2c-0.2,0.4-0.3,0.8-0.5,1.1h7.5v2.3h-2
		c-0.6,1.3-1.3,2.5-2.1,3.7c1.1,0.8,2.7,1.4,4.6,1.8l-0.7,2.8c-0.6-0.1-1.2-0.3-1.9-0.7c-1.6-0.8-2.8-1.5-3.8-2.3
		c-0.4,0.3-0.8,0.5-1.1,0.8h1.1c0.4,0,0.7,0.1,0.8,0.4c0,0.1,0,0.1,0,0.2c-0.1,0.1-0.2,0.1-0.4,0.2v1.8h4.6l-0.3,6.3
		c0,0.6-0.1,1-0.3,1.4c-0.3,0.5-0.6,0.8-1.1,0.9c-0.4,0.1-1,0.2-1.6,0.2h-1.9l-0.4-2.4h1.8c0.4,0,0.7-0.1,0.8-0.2
		c0.1-0.1,0.2-0.4,0.2-0.8l0.2-3.2h-2.2c-0.1,0.8-0.3,1.7-0.8,2.5c-0.4,0.9-1.1,1.8-2.1,2.5c-1.1,0.9-2.5,1.5-4.3,1.9l-0.9-2.7
		c1.9-0.3,3.3-0.8,4.1-1.6c0.8-0.7,1.2-1.6,1.3-2.6h-3.5V133h3.6v-1.8c-0.6,0.4-1.2,0.8-2,1.2c-0.4,0.2-0.8,0.3-1.1,0.4l-0.7-1.6
		c-0.6,1.3-1.1,2.4-1.7,3.3l-1.3-1.6v7.4c0,0.2,0,0.5-0.1,0.8c-0.3,0.8-0.8,1.2-1.8,1.2h-2.3l-0.3-2.8h1.2c0.2,0,0.4-0.1,0.5-0.2
		c0.1-0.1,0.1-0.3,0.1-0.5v-3.8c-0.5,0.9-1.5,2.2-3.1,3.8l-1.5-2.2c0.4-0.4,0.8-0.8,1.2-1.2c1.6-1.8,2.7-3.6,3.4-5.4h-4.2v-2.3h5.6
		c-1.3-1-2.6-1.8-3.8-2.5l1.4-1.8c0.6,0.2,1.3,0.6,2.1,1.1l1.3-1.5h-5.9v-2.3h7l0.4-0.5l2.3,1.5c0.2,0.1,0.3,0.3,0.3,0.4
		c0,0.1,0,0.1-0.1,0.2c-0.1,0.1-0.2,0.1-0.4,0.1l-3.2,3.2c0.3,0.3,0.6,0.5,0.9,0.8l-1.3,1.3h1.8l0.5-0.7l1.7,1.3
		c0.7,0.6,0.7,0.9,0.1,0.9l-0.3,0.6c0.8-0.1,1.7-0.5,2.6-1.1c0.4-0.2,0.7-0.5,0.9-0.8c-0.8-0.8-1.4-1.5-1.9-2.2
		c-0.4,0.7-1,1.4-1.8,2.1l-1.6-1.9c1.8-1.7,3.1-3.9,3.8-6.4l2.1,0.6C133.9,120.4,134.1,120.5,134.1,120.7z M126,130.1v1.4
		c0.2-0.5,0.5-1,0.8-1.4H126z M134.7,126.7c0.6-0.6,1-1.4,1.4-2.3h-3.3C133.2,125.2,133.9,125.9,134.7,126.7z"/>
	<path class="st1" d="M153.4,120.9v3.2h1v-3.9h2.3c0.8,0.1,0.9,0.3,0.4,0.8v3.2h1.2l-0.8-0.5c0.7-0.8,1.4-1.7,2.2-2.8l1.8,1.2
		c0.2,0.2,0.4,0.3,0.4,0.5c0,0.2-0.2,0.3-0.6,0.3l-1,1.3h4.1v2.3h-6.1l-0.5,1h4.5v2.3h-7v0.7h5.9v2.3h-5.9v0.8h9.2v2.3h-7.6
		c0.9,0.8,2.1,1.4,3.6,2.1c1.6,0.7,3,1.1,4.2,1.2l-0.8,2.6c-3.3-0.6-6.1-2-8.6-4.1v5h-2.6v-4.8c-0.5,0.4-1,0.8-1.5,1.2
		c-1.9,1.3-4.1,2.2-6.7,2.8l-1-2.5c1.6-0.4,3.2-0.9,4.7-1.5c1.4-0.6,2.5-1.3,3.3-2h-8v-2.3h9.2v-0.8h-6.1v-2.3h6.1v-0.7h-7.1v-2.3
		h4.6l-0.5-1h-6.2v-2.3h4.2c-0.4-0.5-0.9-1-1.5-1.5l1.7-1.5c1.1,0.8,2,1.6,2.7,2.5l-0.8,0.5h0.9v-3.9h2.3
		C153.8,120.2,153.9,120.5,153.4,120.9z M152.2,126.4l0.5,1h2.7l0.4-1H152.2z"/>
	<path class="st1" d="M182.1,120.7c0.1,0.1,0.1,0.1,0,0.2c-0.1,0.1-0.2,0.1-0.4,0.2c-0.2,0.4-0.3,0.8-0.5,1.1h7.5v2.3h-2
		c-0.6,1.3-1.3,2.5-2.1,3.7c1.1,0.8,2.7,1.4,4.6,1.8l-0.7,2.8c-0.6-0.1-1.2-0.3-1.9-0.7c-1.6-0.8-2.8-1.5-3.8-2.3
		c-0.4,0.3-0.8,0.5-1.1,0.8h1.1c0.4,0,0.7,0.1,0.8,0.4c0,0.1,0,0.1,0,0.2c-0.1,0.1-0.2,0.1-0.4,0.2v1.8h4.6l-0.3,6.3
		c0,0.6-0.1,1-0.3,1.4c-0.3,0.5-0.6,0.8-1.1,0.9c-0.4,0.1-1,0.2-1.6,0.2h-1.9l-0.4-2.4h1.8c0.4,0,0.7-0.1,0.8-0.2
		c0.1-0.1,0.2-0.4,0.2-0.8l0.2-3.2h-2.2c-0.1,0.8-0.3,1.7-0.8,2.5c-0.4,0.9-1.1,1.8-2.1,2.5c-1.1,0.9-2.5,1.5-4.3,1.9l-0.9-2.7
		c1.9-0.3,3.3-0.8,4.1-1.6c0.8-0.7,1.2-1.6,1.3-2.6h-3.5V133h3.6v-1.8c-0.6,0.4-1.2,0.8-2,1.2c-0.4,0.2-0.8,0.3-1.1,0.4l-0.7-1.6
		c-0.6,1.3-1.1,2.4-1.7,3.3l-1.3-1.6v7.4c0,0.2,0,0.5-0.1,0.8c-0.3,0.8-0.8,1.2-1.8,1.2h-2.3l-0.3-2.8h1.2c0.2,0,0.4-0.1,0.5-0.2
		c0.1-0.1,0.1-0.3,0.1-0.5v-3.8c-0.5,0.9-1.5,2.2-3.1,3.8l-1.5-2.2c0.4-0.4,0.8-0.8,1.2-1.2c1.6-1.8,2.7-3.6,3.4-5.4h-4.2v-2.3h5.6
		c-1.3-1-2.6-1.8-3.8-2.5l1.4-1.8c0.6,0.2,1.3,0.6,2.1,1.1l1.3-1.5h-5.9v-2.3h7l0.4-0.5l2.3,1.5c0.2,0.1,0.3,0.3,0.3,0.4
		c0,0.1,0,0.1-0.1,0.2c-0.1,0.1-0.2,0.1-0.4,0.1l-3.2,3.2c0.3,0.3,0.6,0.5,0.9,0.8l-1.3,1.3h1.8l0.5-0.7l1.7,1.3
		c0.7,0.6,0.7,0.9,0.1,0.9l-0.3,0.6c0.8-0.1,1.7-0.5,2.6-1.1c0.4-0.2,0.7-0.5,0.9-0.8c-0.8-0.8-1.4-1.5-1.9-2.2
		c-0.4,0.7-1,1.4-1.8,2.1l-1.6-1.9c1.8-1.7,3.1-3.9,3.8-6.4l2.1,0.6C181.9,120.4,182.1,120.5,182.1,120.7z M174,130.1v1.4
		c0.2-0.5,0.5-1,0.8-1.4H174z M182.7,126.7c0.6-0.6,1-1.4,1.4-2.3h-3.3C181.2,125.2,181.9,125.9,182.7,126.7z"/>
	<path class="st1" d="M193.1,142.2l-1.6-1.9c3.6-2.3,5.4-5.4,5.4-9.2c0-3.8-1.8-6.9-5.4-9.2l1.6-1.9c4.3,3,6.5,6.7,6.5,11.1
		C199.6,135.5,197.4,139.2,193.1,142.2z"/>
</g>
<g class="st23">
	<path class="st24" d="M282.1,111.3v-7.5l13.2-20.7h6v22.6h4v5.6h-4v7.9h-5.6v-7.9H282.1z M286.5,105.5h9.1V91.1L286.5,105.5z"/>
	<path class="st24" d="M310.6,106.7h5.3c0.4,3.4,1.4,5.6,3.2,6.5c1.9,0.9,3.5,1,4.9,0.2c1.8-1.1,2.7-2.5,2.8-4.4
		c0.2-2.6-0.5-4.3-2.3-5.1c-0.9-0.5-2.6-0.7-4.9-0.7v-5.4c2.9,0,4.8-0.8,5.6-2.5c0.8-1.8,0.9-3.3,0.2-4.7c-0.6-1.4-1.6-2.2-3-2.5
		c-1.8-0.4-3.2,0.1-4.2,1.4c-1.1,1.3-1.7,2.9-1.9,4.7h-4.7c0.1-3.9,1.2-6.8,3.2-8.8c1.8-1.9,4.2-2.8,7.2-2.8c2.3,0,4.4,0.8,6.1,2.5
		c1.6,1.6,2.6,3.7,2.8,6.3c0.2,3.9-1,6.7-3.7,8.4c2.9,0.7,4.6,3,5.1,7c0.5,3-0.3,5.9-2.3,8.4c-2.1,2.8-4.8,4.2-8.1,4.2
		c-3.2,0-5.7-1-7.5-3C311.8,114.1,310.6,110.8,310.6,106.7z"/>
	<path class="st24" d="M339,110.2h5.6c0.2,1.4,0.8,2.5,1.8,3.2c1.1,0.8,2.2,1.1,3.5,0.9c1.4-0.2,2.6-1.3,3.5-3.3
		c0.6-1.3,1.1-3.3,1.4-6c-1.6,2.1-4.1,3.1-7.4,3c-2.6-0.1-4.7-1.2-6.5-3.2c-1.5-1.9-2.4-4.2-2.6-7c-0.4-4.7,0.6-8.5,3-11.4
		c1.9-2.3,4.6-3.6,8.1-3.7c3.5,0,6.3,1.3,8.2,3.9c2,2.6,3,6.3,3,11.2v2.6c0,3.9-0.3,7-0.9,9.5c-0.7,2.9-1.9,5.3-3.7,7
		c-1.8,1.8-4,2.6-6.7,2.6c-2.6,0-4.8-0.8-6.7-2.3C340.7,115.6,339.5,113.3,339,110.2z M348.8,102.3c1.8,0.1,3.2-0.5,4.2-1.8
		c1.2-1.4,1.8-3.2,1.8-5.3c0-1.9-0.5-3.4-1.4-4.7c-0.9-1.3-2.2-2-3.7-2.1c-1.8-0.1-3.2,0.5-4.4,1.8c-1.1,1.2-1.6,2.7-1.6,4.7
		c0,2,0.4,3.7,1.2,5.1C345.9,101.5,347.2,102.2,348.8,102.3z"/>
	<path class="st24" d="M371.3,115.2c0.6,0.6,0.9,1.3,0.9,2.1c0,0.8-0.3,1.5-0.9,2.1c-0.7,0.7-1.5,1.1-2.3,1.1
		c-0.8,0-1.6-0.4-2.3-1.1c-0.6-0.6-0.9-1.3-0.9-2.1c0-0.8,0.3-1.5,0.9-2.1c0.7-0.7,1.5-1.1,2.3-1.1
		C369.8,114.1,370.6,114.5,371.3,115.2z"/>
	<path class="st24" d="M377.6,110.2h5.6c0.2,1.4,0.8,2.5,1.8,3.2c1.1,0.8,2.2,1.1,3.5,0.9c1.4-0.2,2.6-1.3,3.5-3.3
		c0.6-1.3,1.1-3.3,1.4-6c-1.6,2.1-4.1,3.1-7.4,3c-2.6-0.1-4.7-1.2-6.5-3.2c-1.5-1.9-2.4-4.2-2.6-7c-0.4-4.7,0.6-8.5,3-11.4
		c1.9-2.3,4.6-3.6,8.1-3.7c3.5,0,6.3,1.3,8.2,3.9c2,2.6,3,6.3,3,11.2v2.6c0,3.9-0.3,7-0.9,9.5c-0.7,2.9-1.9,5.3-3.7,7
		c-1.8,1.8-4,2.6-6.7,2.6c-2.6,0-4.8-0.8-6.7-2.3C379.3,115.6,378,113.3,377.6,110.2z M387.4,102.3c1.8,0.1,3.2-0.5,4.2-1.8
		c1.2-1.4,1.8-3.2,1.8-5.3c0-1.9-0.5-3.4-1.4-4.7c-0.9-1.3-2.2-2-3.7-2.1c-1.8-0.1-3.2,0.5-4.4,1.8c-1.1,1.2-1.6,2.7-1.6,4.7
		c0,2,0.4,3.7,1.2,5.1C384.5,101.5,385.8,102.2,387.4,102.3z"/>
	<path class="st24" d="M415.8,88.8h-11.4v-5.8H445v5.8h-22.8l-0.2,4.9h18.8l-0.5,8.1l-1.2,14c-0.4,3.9-2.4,5.8-6.1,5.8H425l-2.1-6.3
		h7.7c1.3,0,2-0.9,2.3-2.6l0.5-4.9l0.5-8.2h-12.5c-0.7,6-2.4,10.9-5.1,14.9c-2.5,3.6-5,6.1-7.7,7.5l-4.4-5.4
		c2.3-1.5,4.4-3.3,6.1-5.4c2.2-2.7,3.7-5.6,4.4-8.6C415.5,99.3,415.8,94.7,415.8,88.8z"/>
	<path class="st24" d="M481.3,121.6h-4.2l-1.6-6h4.4c0.9,0,1.5-0.4,1.8-1.1c0.1-0.5,0.1-1.3,0-2.5v-5.1h-23.5v14.4h-6.3V83.1h36.1
		v31.4c0,3-0.4,4.9-1.2,5.6c-0.6,0.7-1.4,1.2-2.5,1.4C483.7,121.6,482.7,121.6,481.3,121.6z M458.1,101.3h8.6V88.8h-8.6V101.3z
		 M473,101.3h8.6V88.8H473V101.3z"/>
</g>
</svg>
