<svg xmlns="http://www.w3.org/2000/svg" width="20.436" height="16.54" viewBox="0 0 20.436 16.54"><g transform="translate(-73 -153.91)"><path d="M90.881,153.91H75.554A2.733,2.733,0,0,0,73,156.786v10.787a2.733,2.733,0,0,0,2.554,2.876H90.881a2.733,2.733,0,0,0,2.554-2.876V156.786A2.733,2.733,0,0,0,90.881,153.91Zm1.277,13.663a1.366,1.366,0,0,1-1.277,1.438H75.554a1.366,1.366,0,0,1-1.277-1.438V156.786a1.366,1.366,0,0,1,1.277-1.438H90.881a1.366,1.366,0,0,1,1.277,1.438Z" fill="#fff"/><path d="M91.067,159.061l-6.52,5.664-6.52-5.664a.6.6,0,0,0-.885.094.7.7,0,0,0,.089.94l6.918,6.01a.6.6,0,0,0,.8,0l6.918-6.01a.7.7,0,0,0,.089-.94A.6.6,0,0,0,91.067,159.061Z" transform="translate(-1.329 -1.169)" fill="#fff"/></g></svg>