<svg xmlns="http://www.w3.org/2000/svg" width="48.469" height="49.308" viewBox="0 0 48.469 49.308"><g transform="translate(-170.16 -2274.824)"><path d="M17.04.576A14.147,14.147,0,0,1,9.072-1.608,14.225,14.225,0,0,1,3.96-7.7a21.561,21.561,0,0,1-1.8-9.1,21.6,21.6,0,0,1,1.8-9.072,14.2,14.2,0,0,1,5.112-6.12,14.147,14.147,0,0,1,7.968-2.184,14.147,14.147,0,0,1,7.968,2.184,14.2,14.2,0,0,1,5.112,6.12,21.6,21.6,0,0,1,1.8,9.072,21.561,21.561,0,0,1-1.8,9.1,14.225,14.225,0,0,1-5.112,6.1A14.147,14.147,0,0,1,17.04.576Zm0-5.52a7.433,7.433,0,0,0,6.192-3.168q2.4-3.168,2.4-8.688t-2.4-8.688a7.433,7.433,0,0,0-6.192-3.168,7.414,7.414,0,0,0-6.216,3.168Q8.448-22.32,8.448-16.8t2.376,8.688A7.414,7.414,0,0,0,17.04-4.944ZM42.912,0V-26.592l-5.52,1.3V-30L45.5-33.6H49.3V0Z" transform="translate(168 2309)" fill="#0b7ac0"/><path d="M3.377.132a3.618,3.618,0,0,1-1.5-.292A2.4,2.4,0,0,1,.858-1,2.345,2.345,0,0,1,.473-2.321H1.958a1.313,1.313,0,0,0,.39.907,1.375,1.375,0,0,0,1.017.368,1.367,1.367,0,0,0,.891-.27.883.883,0,0,0,.33-.721A.944.944,0,0,0,4.3-2.772,2.2,2.2,0,0,0,3.52-3.2L2.486-3.553a3.4,3.4,0,0,1-1.359-.792A1.774,1.774,0,0,1,.66-5.632,1.963,1.963,0,0,1,.985-6.8,2.209,2.209,0,0,1,1.9-7.562a3.166,3.166,0,0,1,1.342-.27A3.176,3.176,0,0,1,4.6-7.557a2.226,2.226,0,0,1,.924.77A2.177,2.177,0,0,1,5.885-5.61H4.378a1.051,1.051,0,0,0-.313-.721,1.115,1.115,0,0,0-.842-.313,1.2,1.2,0,0,0-.776.225.808.808,0,0,0-.313.688.794.794,0,0,0,.242.611,1.943,1.943,0,0,0,.66.379q.418.154.957.33a6.509,6.509,0,0,1,1.045.462,2.142,2.142,0,0,1,.759.7,2,2,0,0,1,.286,1.117,2.153,2.153,0,0,1-.308,1.122,2.215,2.215,0,0,1-.913.83A3.2,3.2,0,0,1,3.377.132ZM7.755,0V-7.7h5.027v1.133H9.163v2.112h3.289v1.1H9.163v2.222h3.619V0Zm6.8,0V-7.7H17.38a3.273,3.273,0,0,1,1.523.313,2.113,2.113,0,0,1,.9.847,2.39,2.39,0,0,1,.3,1.183,2.36,2.36,0,0,1-.368,1.287,2.091,2.091,0,0,1-1.149.847L20.174,0H18.557l-1.43-3.036H15.961V0Zm1.408-4.07h1.331a1.383,1.383,0,0,0,1.034-.341,1.242,1.242,0,0,0,.33-.9,1.2,1.2,0,0,0-.324-.88,1.426,1.426,0,0,0-1.051-.33h-1.32ZM23.815,0,21-7.7h1.507l2.178,6.259L26.873-7.7h1.485L25.542,0Zm5.9,0V-7.7h1.408V0Zm6.831.132a3.827,3.827,0,0,1-2-.5,3.34,3.34,0,0,1-1.287-1.4A4.555,4.555,0,0,1,32.8-3.839a4.589,4.589,0,0,1,.451-2.079A3.369,3.369,0,0,1,34.54-7.326a3.794,3.794,0,0,1,2-.506,3.6,3.6,0,0,1,2.271.688,3,3,0,0,1,1.105,1.931H38.368a1.657,1.657,0,0,0-.611-.984,1.984,1.984,0,0,0-1.237-.358,2.058,2.058,0,0,0-1.672.726,3.017,3.017,0,0,0-.6,1.991,2.994,2.994,0,0,0,.6,1.985,2.065,2.065,0,0,0,1.672.721,2.078,2.078,0,0,0,1.237-.335,1.548,1.548,0,0,0,.611-.93h1.551A2.9,2.9,0,0,1,38.813-.539,3.657,3.657,0,0,1,36.542.132ZM41.6,0V-7.7h5.027v1.133H43.01v2.112H46.3v1.1H43.01v2.222h3.619V0Z" transform="translate(172 2324)" fill="#0b7ac0"/></g></svg>