<svg xmlns="http://www.w3.org/2000/svg" width="50.553" height="43.336" viewBox="0 0 50.553 43.336"><g transform="translate(-1.867 -11.808)"><path d="M-12.423.492a12.084,12.084,0,0,1-6.806-1.866A12.151,12.151,0,0,1-23.6-6.581a18.417,18.417,0,0,1-1.538-7.769A18.452,18.452,0,0,1-23.6-22.1a12.13,12.13,0,0,1,4.367-5.227,12.084,12.084,0,0,1,6.806-1.866,12.084,12.084,0,0,1,6.806,1.866A12.13,12.13,0,0,1-1.251-22.1,18.452,18.452,0,0,1,.287-14.35,18.417,18.417,0,0,1-1.251-6.581,12.151,12.151,0,0,1-5.617-1.373,12.084,12.084,0,0,1-12.423.492Zm0-4.715A6.349,6.349,0,0,0-7.134-6.929a12.026,12.026,0,0,0,2.05-7.421,12.026,12.026,0,0,0-2.05-7.421,6.349,6.349,0,0,0-5.289-2.706,6.333,6.333,0,0,0-5.309,2.706,12.114,12.114,0,0,0-2.03,7.421,12.114,12.114,0,0,0,2.03,7.421A6.333,6.333,0,0,0-12.423-4.223ZM5.658,0V-3.813q2.624-2.173,5.1-4.3a55.335,55.335,0,0,0,4.428-4.223,23.662,23.662,0,0,0,3.116-4.08A7.634,7.634,0,0,0,19.475-20.3a5.235,5.235,0,0,0-.964-3.116,3.63,3.63,0,0,0-3.177-1.353,4.046,4.046,0,0,0-3.4,1.476,5.635,5.635,0,0,0-1.148,3.567H5.7A10.338,10.338,0,0,1,7.093-24.99a8.252,8.252,0,0,1,3.485-3.157,11.11,11.11,0,0,1,4.879-1.046,9.321,9.321,0,0,1,6.826,2.4,8.329,8.329,0,0,1,2.439,6.212,10.561,10.561,0,0,1-1.086,4.633,20.667,20.667,0,0,1-2.85,4.346,38.193,38.193,0,0,1-3.813,3.915Q14.924-5.863,13-4.3H25.42V0Z" transform="translate(27 41)" fill="#0b7ac0"/><path d="M-21.426,0V-8.4h3.084a3.571,3.571,0,0,1,1.662.342,2.305,2.305,0,0,1,.978.924,2.607,2.607,0,0,1,.324,1.29,2.575,2.575,0,0,1-.4,1.4,2.281,2.281,0,0,1-1.254.924L-15.294,0h-1.764l-1.56-3.312H-19.89V0Zm1.536-4.44h1.452a1.509,1.509,0,0,0,1.128-.372,1.355,1.355,0,0,0,.36-.984,1.31,1.31,0,0,0-.354-.96,1.556,1.556,0,0,0-1.146-.36h-1.44ZM-10.974.144a3.249,3.249,0,0,1-1.6-.384,2.779,2.779,0,0,1-1.092-1.08,3.2,3.2,0,0,1-.4-1.608,3.4,3.4,0,0,1,.39-1.644,2.831,2.831,0,0,1,1.08-1.122,3.173,3.173,0,0,1,1.626-.4,3.065,3.065,0,0,1,1.548.384,2.758,2.758,0,0,1,1.05,1.05A2.949,2.949,0,0,1-7.986-3.18q0,.132-.006.276t-.018.3h-4.524a1.55,1.55,0,0,0,.486,1.092,1.527,1.527,0,0,0,1.062.4,1.4,1.4,0,0,0,.786-.21,1.3,1.3,0,0,0,.474-.546h1.56A2.828,2.828,0,0,1-8.724-.846a2.751,2.751,0,0,1-.96.726A3.035,3.035,0,0,1-10.974.144Zm.012-4.992a1.636,1.636,0,0,0-1,.318,1.474,1.474,0,0,0-.552.966h2.964A1.3,1.3,0,0,0-9.978-4.5,1.437,1.437,0,0,0-10.962-4.848Zm6.8,4.992A2.816,2.816,0,0,1-5.418-.1,1.7,1.7,0,0,1-6.15-.756a1.742,1.742,0,0,1-.24-.9A1.638,1.638,0,0,1-5.742-3,3.082,3.082,0,0,1-3.8-3.516h1.512V-3.66a1.1,1.1,0,0,0-.348-.9A1.31,1.31,0,0,0-3.5-4.848a1.484,1.484,0,0,0-.816.222.956.956,0,0,0-.432.654h-1.5A2.093,2.093,0,0,1-5.808-5.1a2.452,2.452,0,0,1,.978-.738A3.37,3.37,0,0,1-3.486-6.1a2.953,2.953,0,0,1,2,.636A2.257,2.257,0,0,1-.75-3.66V0H-2.058L-2.2-.96a2.218,2.218,0,0,1-.738.792A2.176,2.176,0,0,1-4.158.144Zm.348-1.2a1.271,1.271,0,0,0,1.026-.432,2.1,2.1,0,0,0,.462-1.068H-3.63a1.364,1.364,0,0,0-.876.222.687.687,0,0,0-.264.546.629.629,0,0,0,.264.54A1.157,1.157,0,0,0-3.81-1.056ZM3.654.144A3.5,3.5,0,0,1,2.262-.114,2.4,2.4,0,0,1,1.3-.828,2.067,2.067,0,0,1,.87-1.884H2.418a1,1,0,0,0,.39.594,1.305,1.305,0,0,0,.822.246,1.107,1.107,0,0,0,.738-.2A.608.608,0,0,0,4.6-1.716a.515.515,0,0,0-.336-.522,5.921,5.921,0,0,0-.936-.27q-.384-.084-.78-.2a3.6,3.6,0,0,1-.726-.306A1.587,1.587,0,0,1,1.29-3.5a1.243,1.243,0,0,1-.2-.726,1.687,1.687,0,0,1,.63-1.332,2.638,2.638,0,0,1,1.77-.54A2.666,2.666,0,0,1,5.172-5.6a1.994,1.994,0,0,1,.75,1.356H4.47q-.132-.66-1-.66a1.13,1.13,0,0,0-.666.168.5.5,0,0,0-.234.42q0,.264.348.42a5.111,5.111,0,0,0,.924.288q.624.144,1.146.318a1.926,1.926,0,0,1,.834.516,1.4,1.4,0,0,1,.312.978,1.671,1.671,0,0,1-.288,1,1.99,1.99,0,0,1-.864.7A3.244,3.244,0,0,1,3.654.144Zm7.176,0a3.065,3.065,0,0,1-1.554-.4,2.907,2.907,0,0,1-1.092-1.1,3.214,3.214,0,0,1-.4-1.626A3.177,3.177,0,0,1,8.19-4.6a2.952,2.952,0,0,1,1.1-1.1,3.065,3.065,0,0,1,1.554-.4,3.042,3.042,0,0,1,1.542.4,2.907,2.907,0,0,1,1.092,1.1,3.214,3.214,0,0,1,.4,1.626,3.214,3.214,0,0,1-.4,1.626,2.9,2.9,0,0,1-1.1,1.1A3.075,3.075,0,0,1,10.83.144Zm0-1.332a1.42,1.42,0,0,0,1.044-.45,1.831,1.831,0,0,0,.444-1.338,1.831,1.831,0,0,0-.444-1.338,1.406,1.406,0,0,0-1.032-.45,1.413,1.413,0,0,0-1.05.45,1.846,1.846,0,0,0-.438,1.338,1.846,1.846,0,0,0,.438,1.338A1.4,1.4,0,0,0,10.83-1.188ZM15.726,0V-5.952h1.356l.12,1.008a2.093,2.093,0,0,1,.8-.84A2.352,2.352,0,0,1,19.23-6.1a2.165,2.165,0,0,1,1.716.7,3,3,0,0,1,.612,2.04V0H20.022V-3.216a1.907,1.907,0,0,0-.312-1.176,1.146,1.146,0,0,0-.972-.408,1.37,1.37,0,0,0-1.062.456,1.824,1.824,0,0,0-.414,1.272V0Z" transform="translate(27 55)" fill="#0b7ac0"/></g></svg>