<?xml version="1.0" encoding="UTF-8" standalone="no"?>
<svg
   xmlns:dc="http://purl.org/dc/elements/1.1/"
   xmlns:cc="http://creativecommons.org/ns#"
   xmlns:rdf="http://www.w3.org/1999/02/22-rdf-syntax-ns#"
   xmlns:svg="http://www.w3.org/2000/svg"
   xmlns="http://www.w3.org/2000/svg"
   xmlns:xlink="http://www.w3.org/1999/xlink"
   xmlns:sodipodi="http://sodipodi.sourceforge.net/DTD/sodipodi-0.dtd"
   xmlns:inkscape="http://www.inkscape.org/namespaces/inkscape"
   id="Layer_1"
   data-name="Layer 1"
   viewBox="0 0 461.89 402.7"
   width="271.229"
   height="272.266"
   class="illustration"
   version="1.1"
   sodipodi:docname="service006.svg"
   inkscape:version="1.0.2 (e86c870879, 2021-01-15, custom)">
  <metadata
     id="metadata130">
    <rdf:RDF>
      <cc:Work
         rdf:about="">
        <dc:format>image/svg+xml</dc:format>
        <dc:type
           rdf:resource="http://purl.org/dc/dcmitype/StillImage" />
        <dc:title>Customer services</dc:title>
      </cc:Work>
    </rdf:RDF>
  </metadata>
  <sodipodi:namedview
     pagecolor="#ffffff"
     bordercolor="#666666"
     borderopacity="1"
     objecttolerance="10"
     gridtolerance="10"
     guidetolerance="10"
     inkscape:pageopacity="0"
     inkscape:pageshadow="2"
     inkscape:window-width="1920"
     inkscape:window-height="1002"
     id="namedview128"
     showgrid="false"
     inkscape:zoom="1.4019608"
     inkscape:cx="-10.580181"
     inkscape:cy="170.85944"
     inkscape:window-x="-8"
     inkscape:window-y="-8"
     inkscape:window-maximized="1"
     inkscape:current-layer="Layer_1" />
  <defs
     id="defs25">
    <linearGradient
       id="linear-gradient"
       x1="291.45"
       y1="352.16"
       x2="249.14"
       y2="410.85"
       gradientUnits="userSpaceOnUse">
      <stop
         offset="0"
         stop-color="#010101"
         stop-opacity="0"
         id="stop2" />
      <stop
         offset="0.95"
         stop-color="#010101"
         id="stop4" />
    </linearGradient>
    <linearGradient
       id="linear-gradient-2"
       x1="285.83"
       y1="107.59"
       x2="279.01"
       y2="160.49"
       xlink:href="#linear-gradient"
       gradientTransform="matrix(-1,0,0,1,489.01612,-20.334182)" />
    <linearGradient
       id="linear-gradient-3"
       x1="328.84"
       y1="361.64"
       x2="326.11"
       y2="292.7"
       gradientTransform="rotate(180,244.51308,10.167092)"
       xlink:href="#linear-gradient" />
    <linearGradient
       id="linear-gradient-4"
       x1="322.03"
       y1="362.75"
       x2="333.28"
       y2="362.75"
       gradientTransform="translate(655.31 725.51) rotate(180)"
       gradientUnits="userSpaceOnUse">
      <stop
         offset="0"
         stop-color="#fff"
         stop-opacity="0"
         id="stop9" />
      <stop
         offset="0.95"
         stop-color="#fff"
         id="stop11" />
    </linearGradient>
    <linearGradient
       id="linear-gradient-5"
       x1="411.6"
       y1="231.93"
       x2="232.1"
       y2="246.94"
       xlink:href="#linear-gradient"
       gradientTransform="matrix(-1,0,0,1,489.01612,-20.334182)" />
    <linearGradient
       id="linear-gradient-6"
       x1="223.12"
       y1="195.79"
       x2="292.4"
       y2="157.23"
       xlink:href="#linear-gradient"
       gradientTransform="matrix(-1,0,0,1,489.01612,-20.334182)" />
    <linearGradient
       id="linear-gradient-7"
       x1="259.55"
       y1="203.21"
       x2="375.57"
       y2="180.69"
       xlink:href="#linear-gradient"
       gradientTransform="matrix(-1,0,0,1,489.01612,-20.334182)" />
    <linearGradient
       id="linear-gradient-8"
       x1="133"
       y1="207.94"
       x2="133.76"
       y2="235.58"
       xlink:href="#linear-gradient"
       gradientTransform="translate(-459.27612,-18.424182)" />
    <linearGradient
       id="linear-gradient-9"
       x1="154.99"
       y1="357.57"
       x2="167.96"
       y2="120.74"
       xlink:href="#linear-gradient"
       gradientTransform="translate(-459.27612,-18.424182)" />
    <linearGradient
       id="linear-gradient-10"
       x1="115.65"
       y1="206.1"
       x2="119.06"
       y2="95.54"
       xlink:href="#linear-gradient-4"
       gradientTransform="translate(-459.27612,-18.424182)" />
    <linearGradient
       id="linear-gradient-11"
       x1="141.78"
       y1="187.74"
       x2="77.03"
       y2="201.05"
       xlink:href="#linear-gradient-4"
       gradientTransform="matrix(-1,0,0,1,459.27612,-18.424182)" />
    <linearGradient
       id="linear-gradient-12"
       x1="270.39"
       y1="101.64"
       x2="271.75"
       y2="210.16"
       xlink:href="#linear-gradient"
       gradientTransform="matrix(-1,0,0,1,489.01612,-20.334182)" />
    <linearGradient
       id="linear-gradient-13"
       x1="266.88"
       y1="80.44"
       x2="263.47"
       y2="142.21"
       xlink:href="#linear-gradient"
       gradientTransform="matrix(-1,0,0,1,489.01612,-20.334182)" />
    <linearGradient
       id="linear-gradient-14"
       x1="275.79"
       y1="108.63"
       x2="270.16"
       y2="137.29"
       xlink:href="#linear-gradient"
       gradientTransform="matrix(-1,0,0,1,489.01612,-20.334182)" />
    <linearGradient
       id="linear-gradient-15"
       x1="341.48"
       y1="152.52"
       x2="175.12"
       y2="224.18"
       xlink:href="#linear-gradient"
       gradientTransform="matrix(-1,0,0,1,489.01612,-20.334182)" />
    <linearGradient
       inkscape:collect="always"
       xlink:href="#linear-gradient"
       id="linearGradient132"
       gradientUnits="userSpaceOnUse"
       x1="291.45"
       y1="352.16"
       x2="249.14"
       y2="410.85"
       gradientTransform="matrix(-1,0,0,1,489.01612,-20.334182)" />
    <linearGradient
       inkscape:collect="always"
       xlink:href="#linear-gradient-4"
       id="linearGradient134"
       gradientUnits="userSpaceOnUse"
       gradientTransform="rotate(180,244.51308,10.167092)"
       x1="322.03"
       y1="362.75"
       x2="333.28"
       y2="362.75" />
  </defs>
  <title
     id="title27">Customer services</title>
  <path
     d="m 254.48315,400.9674 c -49.71623,-0.76 -99.57531,-1.53 -148.87256,-8.4 -12.302882,-1.72 -25.015242,-4 -35.232733,-11.41 -8.741521,-6.35 -14.873921,-15.93 -19.787458,-25.83 -7.617885,-15.4 -12.92184,-32.49 -12.540947,-49.86 0.438027,-20.21 8.436805,-39.84 7.26556,-60 -1.275998,-21.72 -12.893272,-41 -21.663371,-60.69 -9.15099,-20.55 -15.5119195,-43.25 -12.893272,-65.77 3.72324,-32.000012 25.500881,-59.440012 51.877816,-76.000012 26.376923,-16.56 57.038925,-23.85 87.348595,-29.21 A 810.35276,851 0 0 1 264.70065,1.9673879 c 18.41624,-0.42 37.46095,0 54.4298,7.46 15.76903,6.9700001 28.61469,19.5400001 40.44146,32.5400001 A 496.62911,521.54 0 0 1 434.85568,149.3374 c 7.72264,14.62 14.93107,30.3 15.14056,47 0.36185,28.65 -19.33992,52.63 -30.06209,79 -10.16988,24.9 -11.24591,51.17 -6.36094,77.49 3.34235,18.12 8.57013,37.42 -10.77931,46.77 -18.92093,9.15 -47.97366,2.94 -68.06583,2.63 z"
     fill="#ff8d2c  "
     opacity="0.8"
     style="isolation:isolate;stroke-width:0.975826"
     id="path29" />
  <path
     d="m 208.16611,373.02579 a 1.53,1.53 0 0 0 1.54,2 c 11.84,2 23.94,1.3 35.92,0.63 0.92,-5.2 -3.23,-10.11 -8,-12.36 -4.77,-2.25 -10.19,-2.65 -15.28,-4 a 34.91,34.91 0 0 0 -6.49,-1.51 c -9.33,-0.74 -7.38,8.8 -7.69,15.24 z"
     fill="#ff8d2c  "
     id="path31" />
  <path
     d="m 208.16611,373.02579 a 1.53,1.53 0 0 0 1.54,2 c 11.84,2 23.94,1.3 35.92,0.63 0.92,-5.2 -3.23,-10.11 -8,-12.36 -4.77,-2.25 -10.19,-2.65 -15.28,-4 a 34.91,34.91 0 0 0 -6.49,-1.51 c -9.33,-0.74 -7.38,8.8 -7.69,15.24 z"
     fill="url(#linear-gradient)"
     id="path33"
     style="fill:url(#linearGradient132)" />
  <path
     d="m 244.01611,91.995806 c 1.24,-8.589988 1.73,-18.169988 -3.48,-25.109988 -4.22,-5.62 -11.61,-8.32 -18.62,-7.92 -7.01,0.4 -13.65,3.56 -19.23,7.82 a 30.81,30.81 0 0 0 -7.95,8.43 c -7.43,12.409992 -1.75,30.549972 -11.65,41.099972 -3.49,3.72 -8.45,5.81 -12,9.48 a 18.54,18.54 0 0 0 11.74,31.38 c 5.41,0.46 10.72,-1.46 16.1,-2.18 8.61,-1.16 17.39,0.73 26,-0.24 8.61,-0.97 18,-6.26 19,-14.88 1,-8.62 -6.41,-16.19 -5.76,-24.71 0.46,-5.91 4.67,-10.75 7.36,-15.999996 2.69,-5.249992 3.3,-12.91998 -1.72,-16.099976"
     fill="#606161"
     id="path35" />
  <path
     d="m 244.01611,91.995806 c 1.24,-8.589988 1.73,-18.169988 -3.48,-25.109988 -4.22,-5.62 -11.61,-8.32 -18.62,-7.92 -7.01,0.4 -13.65,3.56 -19.23,7.82 a 30.81,30.81 0 0 0 -7.95,8.43 c -7.43,12.409992 -1.75,30.549972 -11.65,41.099972 -3.49,3.72 -8.45,5.81 -12,9.48 a 18.54,18.54 0 0 0 11.74,31.38 c 5.41,0.46 10.72,-1.46 16.1,-2.18 8.61,-1.16 17.39,0.73 26,-0.24 8.61,-0.97 18,-6.26 19,-14.88 1,-8.62 -6.41,-16.19 -5.76,-24.71 0.46,-5.91 4.67,-10.75 7.36,-15.999996 2.69,-5.249992 3.3,-12.91998 -1.72,-16.099976"
     fill="url(#linear-gradient-2)"
     id="path37"
     style="fill:url(#linear-gradient-2)" />
  <rect
     x="160.16618"
     y="-364.65588"
     width="2.4100001"
     height="3.8699999"
     transform="scale(1,-1)"
     fill="#cce8ec"
     id="rect39" />
  <rect
     x="153.33617"
     y="-332.43585"
     width="16.07"
     height="42.009998"
     transform="scale(1,-1)"
     fill="#ff8d2c  "
     id="rect41" />
  <rect
     x="153.33617"
     y="-332.43585"
     width="16.07"
     height="42.009998"
     transform="scale(1,-1)"
     fill="url(#linear-gradient-3)"
     id="rect43"
     style="fill:url(#linear-gradient-3)" />
  <rect
     x="153.33617"
     y="-360.25589"
     width="16.07"
     height="7.8499999"
     transform="scale(1,-1)"
     fill="#ff8d2c  "
     id="rect45" />
  <rect
     x="155.74617"
     y="-352.63586"
     width="11.25"
     height="20.43"
     transform="scale(1,-1)"
     fill="#ff8d2c  "
     id="rect47" />
  <rect
     x="155.74617"
     y="-352.63586"
     width="11.25"
     height="20.43"
     transform="scale(1,-1)"
     fill="url(#linear-gradient-4)"
     id="rect49"
     style="fill:url(#linearGradient134)" />
  <rect
     x="124.74615"
     y="-360.90588"
     width="73.239998"
     height="3.9000001"
     transform="scale(1,-1)"
     fill="#ff8d2c  "
     id="rect51" />
  <rect
     x="157.85619"
     y="-373.30588"
     width="7.02"
     height="10.45"
     rx="1.41"
     transform="scale(1,-1)"
     fill="#2a2d6b"
     id="rect53" />
  <rect
     x="126.79615"
     y="-365.95587"
     width="2.4100001"
     height="5.2800002"
     transform="scale(1,-1)"
     fill="#cce8ec"
     id="rect55" />
  <rect
     x="-195.81618"
     y="360.67587"
     width="2.4100001"
     height="5.2800002"
     fill="#cce8ec"
     id="rect57"
     transform="scale(-1,1)" />
  <circle
     cx="-126.12617"
     cy="368.65585"
     r="5.21"
     fill="#2a2d6b"
     id="circle59"
     transform="scale(-1,1)" />
  <circle
     cx="-196.60616"
     cy="368.31586"
     r="5.21"
     fill="#2a2d6b"
     id="circle61"
     transform="scale(-1,1)" />
  <path
     d="m 97.276118,153.55579 h 56.299992 a 12.61,12.61 0 0 1 12.39,10.28 l 22.78,121.5 -65.54,-5.46 z"
     fill="#ff8d2c  "
     id="path63" />
  <path
     d="m 97.276118,153.55579 h 56.299992 a 12.61,12.61 0 0 1 12.39,10.28 l 22.78,121.5 -65.54,-5.46 z"
     fill="url(#linear-gradient-5)"
     id="path65"
     style="fill:url(#linear-gradient-5)" />
  <path
     d="m 176.93611,283.28579 a 9.11,9.11 0 0 0 -9.11,-9.11 h -43.81 c -7.23,-45.33 -17.08,-107.44 -17.65,-112.21 a 9.11,9.11 0 0 0 -18.189984,0.69 c 0,0.92 0,2.62 19.079984,122.06 a 9.11,9.11 0 0 0 9,7.67 h 51.57 a 9.11,9.11 0 0 0 9.11,-9.1 z m -70.56,-120.62 c 0,-0.2 0,-0.41 0,-0.61 a 5,5 0 0 1 0,0.61 z"
     fill="#ff8d2c  "
     id="path67" />
  <path
     d="m 222.82611,292.38579 h -61.07 a 9.11,9.11 0 0 1 0,-18.21 h 61.07 a 9.11,9.11 0 1 1 0,18.21 z"
     fill="#ff8d2c  "
     id="path69" />
  <path
     d="m 164.59611,235.60579 c 0,0 83.17,31.16 83.56,32.58 2.68,10 -23,92 -23,92 0,0 -8.55,5.47 -18.61,-1.09 l 7.95,-73.67 -40.74,-11.87 c 0,0 -18.74,-8.05 -9.16,-37.95 z"
     fill="#606161"
     id="path71" />
  <path
     d="m 219.40611,234.07579 c 0,0 58,27.36 57.49,28.75 -0.51,1.39 -11.24,89.51 -11.24,89.51 0,0 -7.7,5.19 -18.53,0 l -1.7,-74.07 -70.09,-10.07 c 0,0 -6.9,-10.35 -10.74,-32.58 7.55,-6.02 52.77,-2.26 54.81,-1.54 z"
     fill="#606161"
     id="path73" />
  <path
     d="m 284.35611,190.66579 c 0,0 11.76,-3.43 16.38,-3 4.62,0.43 14.78,5.47 15.74,5.88 0.96,0.41 2.25,2.7 -7,1.87 -9.25,-0.83 -12.84,6.16 -19.68,4.72 -6.84,-1.44 -8.47,-5.57 -8.47,-5.57"
     fill="#f2ddca"
     id="path75" />
  <path
     d="m 231.12611,121.23579 19.35,56 35.7,11.79 c 0,0 3.53,2.53 -1,11.42 0,0 -35.84,-0.32 -44.15,-3.94 -8.31,-3.62 -22.36,-56.41 -22.36,-56.41"
     fill="#ff8d2c  "
     id="path77" />
  <path
     d="m 231.12611,121.23579 19.35,56 35.7,11.79 c 0,0 3.53,2.53 -1,11.42 0,0 -35.84,-0.32 -44.15,-3.94 -8.31,-3.62 -22.36,-56.41 -22.36,-56.41"
     fill="url(#linear-gradient-6)"
     id="path79"
     style="fill:url(#linear-gradient-6)" />
  <path
     d="m 194.75611,124.93579 c -4.93,6.2 -8.54,13.95 -11.74,20.62 a 140.81,140.81 0 0 0 -13,44.47 c -1.06,9.18 -1,18.57 -2.06,27.92 -0.17,1.45 -3,17.83 -1.79,18.35 0,0 19.06,6.83 47.93,7.22 3.09,0 13.44,1.62 15.29,-1.74 1.17,-2.12 -1,-8.88 -1.15,-11.22 -1.17,-13.61 -0.92,-20.59 -1.33,-34.24 -0.15,-5 8.07,-25.62 10.38,-28.23 3.05,-3.44 4.15,-8.31 3.72,-12.89 -0.38,-4.14 -2.57,-7.48 -3.38,-11.41 -0.75,-3.57 -0.39,-7.06 -1.57,-10.68 -3.91,-11.87 -14.6,-21.79 -27.81,-19.5 -7.07,1.23 -9.12,5.84 -13.49,11.33 z"
     fill="#ff8d2c  "
     id="path81" />
  <path
     d="m 194.75611,124.93579 c -4.93,6.2 -8.54,13.95 -11.74,20.62 a 140.81,140.81 0 0 0 -13,44.47 c -1.06,9.18 -1,18.57 -2.06,27.92 -0.17,1.45 -3,17.83 -1.79,18.35 0,0 19.06,6.83 47.93,7.22 3.09,0 13.44,1.62 15.29,-1.74 1.17,-2.12 -1,-8.88 -1.15,-11.22 -1.17,-13.61 -0.92,-20.59 -1.33,-34.24 -0.15,-5 8.07,-25.62 10.38,-28.23 3.05,-3.44 4.15,-8.31 3.72,-12.89 -0.38,-4.14 -2.57,-7.48 -3.38,-11.41 -0.75,-3.57 -0.39,-7.06 -1.57,-10.68 -3.91,-11.87 -14.6,-21.79 -27.81,-19.5 -7.07,1.23 -9.12,5.84 -13.49,11.33 z"
     fill="url(#linear-gradient-7)"
     id="path83"
     style="fill:url(#linear-gradient-7)" />
  <path
     d="m 228.27611,230.55579 c 0,0 13.53,9.62 9.62,11.95 -3.58,2.14 -28.84,2.49 -32.23,4.74 -3.39,2.25 -9.11,10.21 -22.71,13.74 -13.6,3.53 -18.37,-5.84 -19.36,-13.74 a 20.4,20.4 0 0 1 2.61,-13.16 c 0,0 49.81,5.58 62.07,-3.53 z"
     fill="#effaff"
     id="path85" />
  <rect
     x="-366.94614"
     y="195.01587"
     width="81.790001"
     height="5.3800001"
     fill="#ff8d2c  "
     id="rect87"
     transform="scale(-1,1)" />
  <rect
     x="-366.94614"
     y="195.01587"
     width="81.790001"
     height="5.3800001"
     fill="url(#linear-gradient-8)"
     id="rect89"
     style="fill:url(#linear-gradient-8)"
     transform="scale(-1,1)" />
  <rect
     x="-375.47614"
     y="200.06587"
     width="182.91"
     height="5.46"
     fill="#ff8d2c  "
     id="rect91"
     transform="scale(-1,1)" />
  <rect
     x="-374.45615"
     y="205.16586"
     width="145.49001"
     height="174.06"
     fill="#ff8d2c  "
     id="rect93"
     transform="scale(-1,1)" />
  <rect
     x="-374.45615"
     y="205.16586"
     width="145.49001"
     height="174.06"
     fill="url(#linear-gradient-9)"
     id="rect95"
     style="fill:url(#linear-gradient-9)"
     transform="scale(-1,1)" />
  <rect
     x="-396.12616"
     y="102.12582"
     width="107.84"
     height="79.169998"
     rx="10.31"
     fill="#ff8d2c  "
     id="rect97"
     transform="scale(-1,1)" />
  <rect
     x="-396.12616"
     y="102.12582"
     width="107.84"
     height="79.169998"
     rx="10.31"
     fill="url(#linear-gradient-10)"
     id="rect99"
     style="fill:url(#linear-gradient-10)"
     transform="scale(-1,1)" />
  <path
     d="m 354.93611,149.22579 h -13.34 a 8.94,8.94 0 0 0 -8.94,8.94 v 42.24 h 31.22001 v -42.24 a 8.94,8.94 0 0 0 -8.94001,-8.94 z"
     fill="#ff8d2c  "
     id="path101" />
  <path
     d="m 354.93611,149.22579 h -13.34 a 8.94,8.94 0 0 0 -8.94,8.94 v 42.24 h 31.22001 v -42.24 a 8.94,8.94 0 0 0 -8.94001,-8.94 z"
     fill="url(#linear-gradient-11)"
     id="path103"
     style="fill:url(#linear-gradient-11)" />
  <path
     d="m 225.68611,124.12579 a 5.42,5.42 0 0 1 -0.32,2 3.75,3.75 0 0 1 -2.92,2.05 8.32,8.32 0 0 1 -3.66,-0.43 c -5.35,-1.63 -10.3,-5.93 -10.9,-11.49 a 16.54,16.54 0 0 1 0.38,-5 36.69,36.69 0 0 1 2.33,-7.46 c 1,-2.25 2.48,-4.629996 4.89,-5.049996 2.41,-0.42 4.88,1.579996 6.34,3.729996 4.19,6.08 4.03,14.55 3.86,21.65 z"
     fill="#f2ddca"
     id="path105" />
  <path
     d="m 211.31611,111.86579 a 14.42,14.42 0 0 0 6.05,7.73 6.31,6.31 0 0 0 3.69,0.95 c 2.2,-0.22 3.93,-2.07 4.8,-4.1 a 16.09,16.09 0 0 0 1.12,-5.72 18.34,18.34 0 0 0 -2.1,-10.13 c -1.77,-2.999996 -5,-5.299992 -8.53,-5.219992 -8.96,0.21 -7.06,10.949992 -5.03,16.489992 z"
     fill="url(#linear-gradient-12)"
     id="path107"
     style="fill:url(#linear-gradient-12)" />
  <path
     d="m 241.01611,79.445818 -2.09,13.219984 a 71.73,71.73 0 0 1 -2.91,13.259988 c -1.24,3.43 -3.15,6.83 -6.32,8.63 a 11.92,11.92 0 0 1 -10.35,0.31 19.36,19.36 0 0 1 -8.05,-6.88 c -5.07,-7.21 -6.47,-16.469984 -5.73,-25.249972 0.43,-5.17 1.65,-10.47 4.85,-14.55 a 17.65,17.65 0 0 1 16,-6.44 c 8.51,1.2 15.91,9.1 14.6,17.7 z"
     fill="#f2ddca"
     id="path109" />
  <path
     d="m 197.87611,84.435814 a 14.31,14.31 0 0 1 1.21,-2.749996 25.78,25.78 0 0 1 -0.31,-4 24.92,24.92 0 1 1 49.84,0 25.86,25.86 0 0 1 -0.33,4.06 15.22,15.22 0 0 1 1.18,2.709996 c 0.58,1.58 0.21,9.219988 -0.51,10.259988 -1.32,1.909996 -4.9,3.399992 -7.18,3.689992 a 1.39,1.39 0 0 1 -1.16,0.45 1.34,1.34 0 0 1 -1.24,-1.45 l 1.25,-13.739976 a 1.36,1.36 0 0 1 1.49,-1.2 1.41,1.41 0 0 1 0.86,0.42 h 0.37 a 3.47,3.47 0 0 0 2.31,-1.77 22.26,22.26 0 0 0 0.27,-3.39 c 0,-12.46 -9.95,-21 -22.23,-21 -12.28,0 -22.23,8.56 -22.23,21 a 21.43,21.43 0 0 0 0.27,3.42 3.46,3.46 0 0 0 2.26,1.67 h 0.37 a 1.37,1.37 0 0 1 2.35,0.78 l 1.25,13.73998 a 1.35,1.35 0 0 1 -1.24,1.449996 1.39,1.39 0 0 1 -1.16,-0.45 c -2.28,-0.29 -5.86,-1.779996 -7.18,-3.689992 -0.72,-0.98 -1.1,-8.629988 -0.51,-10.209988 z"
     fill="#ff8d2c  "
     id="path111" />
  <path
     d="m 197.87611,84.435814 a 14.31,14.31 0 0 1 1.21,-2.749996 25.78,25.78 0 0 1 -0.31,-4 24.92,24.92 0 1 1 49.84,0 25.86,25.86 0 0 1 -0.33,4.06 15.22,15.22 0 0 1 1.18,2.709996 c 0.58,1.58 0.21,9.219988 -0.51,10.259988 -1.32,1.909996 -4.9,3.399992 -7.18,3.689992 a 1.39,1.39 0 0 1 -1.16,0.45 1.34,1.34 0 0 1 -1.24,-1.45 l 1.25,-13.739976 a 1.36,1.36 0 0 1 1.49,-1.2 1.41,1.41 0 0 1 0.86,0.42 h 0.37 a 3.47,3.47 0 0 0 2.31,-1.77 22.26,22.26 0 0 0 0.27,-3.39 c 0,-12.46 -9.95,-21 -22.23,-21 -12.28,0 -22.23,8.56 -22.23,21 a 21.43,21.43 0 0 0 0.27,3.42 3.46,3.46 0 0 0 2.26,1.67 h 0.37 a 1.37,1.37 0 0 1 2.35,0.78 l 1.25,13.73998 a 1.35,1.35 0 0 1 -1.24,1.449996 1.39,1.39 0 0 1 -1.16,-0.45 c -2.28,-0.29 -5.86,-1.779996 -7.18,-3.689992 -0.72,-0.98 -1.1,-8.629988 -0.51,-10.209988 z"
     fill="url(#linear-gradient-13)"
     id="path113"
     style="fill:url(#linear-gradient-13)" />
  <path
     d="m 203.71611,97.665794 c 1.49,-1.159996 2,0 2,0 0.8,1.43 5.4,7.849996 15.37,10.709996 a 4.89,4.89 0 0 1 3.57,-1.28 c 2.24,0 4.05,1.07 4.05,2.39 0,1.32 -1.81,2.4 -4.05,2.4 -2.24,0 -4,-1.06 -4.05,-2.38 -3.49,-1.07 -12.19,-4.31 -16.89,-11.839996 z"
     fill="#ff8d2c  "
     id="path115" />
  <path
     d="m 203.71611,97.665794 c 1.49,-1.159996 2,0 2,0 0.8,1.43 5.4,7.849996 15.37,10.709996 a 4.89,4.89 0 0 1 3.57,-1.28 c 2.24,0 4.05,1.07 4.05,2.39 0,1.32 -1.81,2.4 -4.05,2.4 -2.24,0 -4,-1.06 -4.05,-2.38 -3.49,-1.07 -12.19,-4.31 -16.89,-11.839996 z"
     fill="url(#linear-gradient-14)"
     id="path117"
     style="fill:url(#linear-gradient-14)" />
  <path
     d="m 237.23611,73.415818 a 21.18,21.18 0 0 0 -2.5,2.91 15.47,15.47 0 0 1 -17.46,4.21 c -2,-0.86 -4.1,-2.19 -6.19,-1.59 a 14.76,14.76 0 0 0 -3.07,1.72 c -1,0.59 -2.41,0.89 -3.32,0.14 a 2.92,2.92 0 0 1 -0.86,-2.22 c -0.1,-3.1 1.8,-5.86 3.61,-8.37 a 24,24 0 0 1 5.2,-5.74 16.14,16.14 0 0 1 5.63,-2.38 24.73,24.73 0 0 1 15.64,1.47 13.35,13.35 0 0 1 4.76,3.31 c 0.8,0.94 2.27,3.18 1.83,4.52 -0.44,1.34 -2.17,1.09 -3.27,2.02 z"
     fill="#606161"
     id="path119" />
  <path
     d="m 197.01611,81.405818 a 3.13,3.13 0 0 1 1.76,-0.62 2.24,2.24 0 0 1 1.81,1.58 6.59,6.59 0 0 1 0.19,2.509996 l -0.63,11.479984 a 17.51,17.51 0 0 1 -0.48,3.749992 c -0.9,3.24 -3.52,5.66 -6,7.89 a 8.28,8.28 0 0 1 -3.72,2.28 5.61,5.61 0 0 1 -5.26,-2.37 c -6.76,-8.689996 5.13,-22.089976 12.33,-26.499972 z"
     fill="#f2ddca"
     id="path121" />
  <path
     d="m 184.87611,169.21579 c -6.37,7.08 -14.65,12.74 -24,14.56 a 2.28,2.28 0 0 1 -3.18,-1.76 c -2.82,-7.49 -2.25,-15.88 -0.31,-23.65 1.94,-7.77 5.16,-15.15 7.65,-22.76 3,-9.29 16.76,-34.33 17.8,-34.33 3.72,0 7.34,4.09 9.55,6.65 -0.36,8.52 -7.08,14.77 -8.36,23.21 1,-4.68 7.85,-10 12.12,-12.13 1.78,-0.9 9.46,-5.74 11.09,-4.59 1.27,0.89 -3.66,6.86 -3.37,8.39 3.07,16.14 -8.6,34.86 -18.99,46.41 z"
     fill="#ff8d2c  "
     id="path123" />
  <path
     d="m 184.87611,169.21579 c -6.37,7.08 -14.65,12.74 -24,14.56 a 2.28,2.28 0 0 1 -3.18,-1.76 c -2.82,-7.49 -2.25,-15.88 -0.31,-23.65 1.94,-7.77 5.16,-15.15 7.65,-22.76 3,-9.29 16.76,-34.33 17.8,-34.33 3.72,0 7.34,4.09 9.55,6.65 -0.36,8.52 -7.08,14.77 -8.36,23.21 1,-4.68 7.85,-10 12.12,-12.13 1.78,-0.9 9.46,-5.74 11.09,-4.59 1.27,0.89 -3.66,6.86 -3.37,8.39 3.07,16.14 -8.6,34.86 -18.99,46.41 z"
     fill="url(#linear-gradient-15)"
     id="path125"
     style="fill:url(#linear-gradient-15)" />
</svg>
