<svg xmlns="http://www.w3.org/2000/svg" xmlns:xlink="http://www.w3.org/1999/xlink" width="371" height="241" viewBox="0 0 371 241">
  <defs>
    <filter id="長方形_17" x="0" y="0" width="371" height="241" filterUnits="userSpaceOnUse">
      <feOffset dy="3" input="SourceAlpha"/>
      <feGaussianBlur stdDeviation="3" result="blur"/>
      <feFlood flood-opacity="0.161"/>
      <feComposite operator="in" in2="blur"/>
      <feComposite in="SourceGraphic"/>
    </filter>
  </defs>
  <g id="グループ_501" data-name="グループ 501" transform="translate(-492 -230)">
    <g transform="matrix(1, 0, 0, 1, 492, 230)" filter="url(#長方形_17)">
      <rect id="長方形_17-2" data-name="長方形 17" width="353" height="223" transform="translate(9 6)" fill="#fff"/>
    </g>
    <g id="グループ_388" data-name="グループ 388" transform="translate(602.298 284.022)">
      <rect id="長方形_150" data-name="長方形 150" width="46.796" height="28.286" transform="translate(74.608 28.191)" fill="#21a365"/>
      <rect id="長方形_151" data-name="長方形 151" width="46.796" height="28.286" transform="translate(74.608 56.478)" fill="#107c41"/>
      <rect id="長方形_152" data-name="長方形 152" width="46.701" height="28.286" transform="translate(27.907 28.191)" fill="#107c41"/>
      <path id="パス_31" data-name="パス 31" d="M211.089,80.321V52.036H164.483v50.971a5.509,5.509,0,0,0,5.506,5.506h82.3a5.509,5.509,0,0,0,5.506-5.506V80.321Z" transform="translate(-136.481 4.442)" fill="#185b37"/>
      <path id="パス_32" data-name="パス 32" d="M247.971.8H206.68V29.082h46.891V6.3A5.654,5.654,0,0,0,247.971.8Z" transform="translate(-132.167 -0.796)" fill="#33c481"/>
      <path id="パス_33" data-name="パス 33" d="M211.08.8H170.075A5.509,5.509,0,0,0,164.569,6.3V28.988h46.605V.8Z" transform="translate(-136.472 -0.796)" fill="#21a365"/>
      <path id="パス_34" data-name="パス 34" d="M195.461,85.745H145.153a6.118,6.118,0,0,1-6.075-6.074V30.122a6.118,6.118,0,0,1,6.075-6.074h50.308a6.117,6.117,0,0,1,6.074,6.074V79.671A6.055,6.055,0,0,1,195.461,85.745Z" transform="translate(-139.078 1.581)" fill="#17864c"/>
      <g id="グループ_31" data-name="グループ 31" transform="translate(17.371 39.866)">
        <path id="パス_35" data-name="パス 35" d="M175.816,71.041l-3.7-6.739c-1.519-2.659-2.468-4.462-3.512-6.455h-.095c-.854,1.993-1.708,3.8-3.133,6.455l-3.322,6.739h-7.214l10.251-17.18-9.966-16.9h7.309l3.7,7.025c1.139,2.088,1.993,3.8,2.847,5.7h.19c.95-2.089,1.614-3.608,2.753-5.7l3.7-7.025h7.214L172.683,53.577l10.536,17.465Z" transform="translate(-154.838 -36.965)" fill="#fff"/>
      </g>
      <path id="パス_36" data-name="パス 36" d="M199.628,29.042V79.16a6.117,6.117,0,0,1-6.074,6.074H165.172v5.411h33.412a6.117,6.117,0,0,0,6.074-6.074V35.023A5.88,5.88,0,0,0,199.628,29.042Z" transform="translate(-136.41 2.092)" opacity="0.2" style="isolation: isolate"/>
    </g>
    <path id="パス_1715" data-name="パス 1715" d="M15.6,0H2.272V-19.132H15.6v3.174H6.437v4.088h8.519v3.161H6.437v5.535H15.6ZM33.3,0H28.666l-3.44-4.862L21.734,0H17.342l5.624-7.338L17.418-14.7h4.621l3.39,4.773L28.844-14.7h4.405L27.663-7.452ZM46.96-.724A10.94,10.94,0,0,1,42.5.394,8.535,8.535,0,0,1,36.486-1.6a7.357,7.357,0,0,1-2.158-5.687,7.53,7.53,0,0,1,2.184-5.77,8.186,8.186,0,0,1,5.84-2.05,10.044,10.044,0,0,1,4.608,1.13v3.58h-.2a6.467,6.467,0,0,0-4.253-1.93,3.669,3.669,0,0,0-3.021,1.333A5.739,5.739,0,0,0,38.4-7.287,5.426,5.426,0,0,0,39.489-3.65a3.838,3.838,0,0,0,3.079,1.263,6.18,6.18,0,0,0,4.189-1.93h.2ZM62.905-6.741H52.482q.254,4.418,5.015,4.418a8.559,8.559,0,0,0,5-1.8h.14V-.749A15.727,15.727,0,0,1,57.027.394q-4.139,0-6.31-1.968a7.268,7.268,0,0,1-2.171-5.675,7.957,7.957,0,0,1,2.057-5.8,7.551,7.551,0,0,1,5.675-2.114q6.627,0,6.627,7.046Zm-3.9-2.209q-.051-3.8-3.085-3.8-3.225,0-3.44,3.8ZM69.685,0h-3.9V-19.982h3.9Z" transform="translate(641 429)" fill="#707070"/>
    <path id="パス_1716" data-name="パス 1716" d="M5.742-5.554q0,1.547-.054,2.119T5.543-2.4a3.134,3.134,0,0,0,.945,1.037V-6.1H3.84V-7.289H5.307Q4.764-8.572,4.6-8.873l1.311-.354a20.151,20.151,0,0,1,.881,1.939H7.7a18.44,18.44,0,0,0,.779-1.96l1.429.242A18.884,18.884,0,0,1,9.1-7.289h1.45V-6.1H8.008v1.627h2.057v1.208H8.008V-.94q.682.064,2.283.064h.478L10.506.4H9.883Q8.852.4,8.3.371A7.937,7.937,0,0,1,7.111.212a2.912,2.912,0,0,1-1.1-.451,4.424,4.424,0,0,1-.881-.841A5.968,5.968,0,0,1,4,.564l-.967-.87a5.668,5.668,0,0,0,.6-.843,4.807,4.807,0,0,0,.406-1A6.959,6.959,0,0,0,4.281-3.3a12.463,12.463,0,0,0,.064-1.41q0-.376-.011-.843ZM3.577-8.819A7.505,7.505,0,0,1,2.5-7.093,10.025,10.025,0,0,1,1-5.586L.145-6.424A9.355,9.355,0,0,0,2.256-9.206ZM2.981.618H1.574V-2.653a7.265,7.265,0,0,1-.682.72L.086-2.8a10.472,10.472,0,0,0,1.5-1.969A10.409,10.409,0,0,0,2.594-6.7l1.225.44A7.938,7.938,0,0,1,2.847-4.34l.134-.005ZM15.71-2.369A11.3,11.3,0,0,1,14.067-1,12.446,12.446,0,0,1,11.736.29l-.7-1.176a14.148,14.148,0,0,0,2.24-1.281,13.116,13.116,0,0,0,1.649-1.415H11.462V-4.861H13.2q-.494-1.047-.768-1.563l1.364-.419q.349.639,1.031,1.982h.849v-2H11.849V-8.126h3.824v-.945H17.2v.945h3.937v1.262H19.271l1.332.408a14.707,14.707,0,0,1-.956,1.6H21.5v1.278H17.923a11.884,11.884,0,0,0,4.012,2.551l-.9,1.311a10.407,10.407,0,0,1-2.347-1.354A8.873,8.873,0,0,1,17.2-2.4L17.2.639H15.71Zm1.493-4.5v2h.865a19.017,19.017,0,0,0,1-2Zm9.056-.87q0,.338-.027.816H27.72a1.933,1.933,0,0,1,1.482.6,2.181,2.181,0,0,1,.564,1.55,11.1,11.1,0,0,1-.553,3.846A1.937,1.937,0,0,1,27.339.548a4.9,4.9,0,0,1-2.2-.8l.494-1.3a5.337,5.337,0,0,0,.905.395,2.942,2.942,0,0,0,.626.169.484.484,0,0,0,.363-.161,1.912,1.912,0,0,0,.32-.65,5.863,5.863,0,0,0,.25-1.12,11.18,11.18,0,0,0,.083-1.448,2.883,2.883,0,0,0-.07-.768.6.6,0,0,0-.231-.33.708.708,0,0,0-.408-.11H26.125A11.171,11.171,0,0,1,23.3.714L22.134-.15A11.106,11.106,0,0,0,23.52-2.272a10.5,10.5,0,0,0,.972-3.3H22.548V-6.918h2.138V-8.986h1.574Zm6.687,4.479-1.542.4a17,17,0,0,0-.752-2.218,11.832,11.832,0,0,0-.765-1.38,7.977,7.977,0,0,0-.771-1.058l1.23-.768A11.341,11.341,0,0,1,32-5.876,9.541,9.541,0,0,1,32.946-3.255Zm9.362-4.522-.7,1.364a14.242,14.242,0,0,0-2.841-.8q-1.724-.328-2.879-.43L36.3-8.932A31.189,31.189,0,0,1,42.308-7.777ZM35.949.628l-.22-1.364A15.979,15.979,0,0,0,40-1.168q1.464-.432,1.464-1.415a1.288,1.288,0,0,0-.521-1.1A2.372,2.372,0,0,0,39.5-4.071a5.693,5.693,0,0,0-2.406.553,5.3,5.3,0,0,0-1.934,1.461L33.988-2.75A12.753,12.753,0,0,0,34.9-7.3l1.584.091a11.7,11.7,0,0,1-.473,2.836A6.227,6.227,0,0,1,37.67-5.07a6.868,6.868,0,0,1,1.818-.274,4.307,4.307,0,0,1,2.629.709,2.4,2.4,0,0,1,.948,2.052,2.479,2.479,0,0,1-.618,1.7,3.865,3.865,0,0,1-1.9,1.058A21.917,21.917,0,0,1,35.949.628ZM46.836.6H45.429V-3.916a5.262,5.262,0,0,1-.548.838L44.064-3.9A14.862,14.862,0,0,0,45.243-6.5a13.365,13.365,0,0,0,.679-2.664L47.378-9a13.679,13.679,0,0,1-.875,3h.322ZM54.9-.79,54.4.542A13.22,13.22,0,0,1,50.15-.639,5.648,5.648,0,0,1,47.421.575L46.959-.537a5.038,5.038,0,0,0,1.966-.816A12.78,12.78,0,0,1,47.588-2.4l.639-.65h-.65V-6.531H50.15V-7.2H47.357V-8.314H50.15v-.838h1.461v.838h2.981V-7.2H51.611v.671H54.13v3.486H51.5a4.008,4.008,0,0,1-.494,1.386A13.3,13.3,0,0,0,54.9-.79ZM50.15-5.532H48.963v1.456h1.182q.005-.2.005-.918Zm2.626,1.456V-5.532H51.611q0,1.305-.005,1.456ZM48.662-3.045a7.676,7.676,0,0,0,1.106.773,2.452,2.452,0,0,0,.279-.773Zm14.83.322h-2.1V.451H59.85V-2.723H57.723A6.832,6.832,0,0,1,56.268.639L55.134-.118a7.359,7.359,0,0,0,1.208-4.458V-8.841h8.68V-.725a1.04,1.04,0,0,1-.392.819,1.4,1.4,0,0,1-.94.336H62.138l-.22-1.386h1.225q.349,0,.349-.263ZM59.85-7.611H57.857v1.225H59.85Zm3.642,1.225V-7.611h-2.1v1.225Zm-2.1,2.449h2.1V-5.21h-2.1Zm-3.556,0H59.85V-5.21H57.857v.483Q57.857-4.372,57.836-3.937Zm18.482-.107A7.253,7.253,0,0,1,74.384-.51,4.634,4.634,0,0,1,71.21.575,4.483,4.483,0,0,1,69.744.357a2.846,2.846,0,0,1-1.026-.588,2.784,2.784,0,0,1-.612-.808,2.971,2.971,0,0,1-.279-.929,12.914,12.914,0,0,1-.064-1.523q0-1.128.231-5.285H69.6q-.22,3.711-.22,5.162a10.617,10.617,0,0,0,.062,1.5,1.517,1.517,0,0,0,.277.61,1.357,1.357,0,0,0,.62.451,2.732,2.732,0,0,0,.991.158,2.917,2.917,0,0,0,2.17-.886,6.28,6.28,0,0,0,1.38-2.8Zm9.9,3.11L86.142.516q-.585.016-.779.016a7,7,0,0,1-3.088-.556A3.753,3.753,0,0,1,80.69-1.367a3.381,3.381,0,0,1-.478-1.791,4.75,4.75,0,0,1,1.939-3.62l-4.775.048V-8.1h9.577v1.386H84.487A5.272,5.272,0,0,0,82.57-5.21a3.178,3.178,0,0,0-.752,1.987q0,2.32,3.529,2.32Q85.755-.9,86.217-.935Zm7.869-2.143a14.421,14.421,0,0,1-.7,1.668,6.409,6.409,0,0,1-.83,1.359,1.2,1.2,0,0,1-.94.438,2.367,2.367,0,0,1-1.993-1.431,6.423,6.423,0,0,1-.833-3.29q0-.607.118-1.8t.113-1.794h1.644q-.016.542-.161,1.778a15.709,15.709,0,0,0-.14,1.783A5.29,5.29,0,0,0,90.78-2.2q.416.935.706.935.419,0,1.321-2.455ZM98.517-1.09l-1.617.1a10.286,10.286,0,0,0-.58-3.352,9.1,9.1,0,0,0-1.579-2.9l1.3-.65A9.794,9.794,0,0,1,98.517-1.09Zm7.557.107a1.739,1.739,0,0,0,1.311-1.644,1.462,1.462,0,0,0-.647-1.26,2.748,2.748,0,0,0-1.63-.459h-.134a4.213,4.213,0,0,0-1.007.145,6.346,6.346,0,0,0-1.085.376,6.126,6.126,0,0,0-.854.462q-.346.231-1.609,1.166l-.859-1.08q4.388-3.008,5.613-3.948h-4.544V-8.481h6.488l.773.827q-1.155.768-3.443,2.342a4.546,4.546,0,0,1,1.106-.172,3.853,3.853,0,0,1,2.481.722,2.51,2.51,0,0,1,.9,2.076,2.74,2.74,0,0,1-1.27,2.425,5.936,5.936,0,0,1-3.344.846,4.443,4.443,0,0,1-2.173-.451,1.435,1.435,0,0,1-.8-1.321,1.413,1.413,0,0,1,.685-1.184,2.549,2.549,0,0,1,1.5-.481A2.408,2.408,0,0,1,106.074-.983Zm-1.386.354q-.349-1.1-1.273-1.1a.809.809,0,0,0-.478.148.451.451,0,0,0-.209.384q0,.591,1.386.591Q104.419-.6,104.688-.628Z" transform="translate(622 267)" fill="#343434"/>
  </g>
</svg>
