<?xml version="1.0" encoding="UTF-8" standalone="no"?>
<svg
   xmlns:dc="http://purl.org/dc/elements/1.1/"
   xmlns:cc="http://creativecommons.org/ns#"
   xmlns:rdf="http://www.w3.org/1999/02/22-rdf-syntax-ns#"
   xmlns:svg="http://www.w3.org/2000/svg"
   xmlns="http://www.w3.org/2000/svg"
   xmlns:xlink="http://www.w3.org/1999/xlink"
   xmlns:sodipodi="http://sodipodi.sourceforge.net/DTD/sodipodi-0.dtd"
   xmlns:inkscape="http://www.inkscape.org/namespaces/inkscape"
   id="Layer_1"
   data-name="Layer 1"
   viewBox="0 0 312.86324 310.40784"
   width="360"
   height="304"
   class="illustration"
   version="1.1"
   sodipodi:docname="service007.svg"
   inkscape:version="1.0.2 (e86c870879, 2021-01-15, custom)">
  <metadata
     id="metadata145">
    <rdf:RDF>
      <cc:Work
         rdf:about="">
        <dc:format>image/svg+xml</dc:format>
        <dc:type
           rdf:resource="http://purl.org/dc/dcmitype/StillImage" />
        <dc:title>12</dc:title>
      </cc:Work>
    </rdf:RDF>
  </metadata>
  <sodipodi:namedview
     pagecolor="#ffffff"
     bordercolor="#666666"
     borderopacity="1"
     objecttolerance="10"
     gridtolerance="10"
     guidetolerance="10"
     inkscape:pageopacity="0"
     inkscape:pageshadow="2"
     inkscape:window-width="1011"
     inkscape:window-height="629"
     id="namedview143"
     showgrid="false"
     inkscape:zoom="1.4019608"
     inkscape:cx="236.9715"
     inkscape:cy="173.55478"
     inkscape:window-x="200"
     inkscape:window-y="144"
     inkscape:window-maximized="0"
     inkscape:current-layer="Layer_1"
     inkscape:document-rotation="0" />
  <defs
     id="defs18">
    <linearGradient
       id="linear-gradient"
       x1="198.41"
       y1="159.75"
       x2="198.41"
       y2="43.740002"
       gradientTransform="matrix(1,0,0,-1,-30.76,331.41)"
       gradientUnits="userSpaceOnUse">
      <stop
         offset="0.01"
         id="stop2" />
      <stop
         offset="0.08"
         stop-opacity="0.69"
         id="stop4" />
      <stop
         offset="0.21"
         stop-opacity="0.32"
         id="stop6" />
      <stop
         offset="1"
         stop-opacity="0"
         id="stop8" />
    </linearGradient>
    <linearGradient
       id="linear-gradient-2"
       x1="311.25"
       y1="322.31"
       x2="318.47"
       y2="-73.139999"
       xlink:href="#linear-gradient"
       gradientTransform="matrix(0.92655036,0,0,0.92655036,-322.38761,28.690441)" />
    <linearGradient
       id="linear-gradient-3"
       x1="233.34"
       y1="307.51001"
       x2="240.17"
       y2="-66.93"
       xlink:href="#linear-gradient"
       gradientTransform="matrix(0.92655036,0,0,0.92655036,-322.38761,28.690441)" />
    <linearGradient
       id="linear-gradient-4"
       x1="159.34"
       y1="303.87"
       x2="166.10001"
       y2="-66.839996"
       xlink:href="#linear-gradient"
       gradientTransform="matrix(0.92655036,0,0,0.92655036,-322.38761,28.690441)" />
    <linearGradient
       id="linear-gradient-5"
       x1="77.699997"
       y1="186.2"
       x2="135.67"
       y2="151.32001"
       gradientTransform="matrix(-0.92655036,0,0,-0.92655036,350.8883,335.75843)"
       xlink:href="#linear-gradient" />
    <linearGradient
       id="linear-gradient-6"
       x1="134.62"
       y1="135.31"
       x2="136.3"
       y2="171.14999"
       gradientTransform="matrix(-0.92655036,0,0,-0.92655036,350.8883,335.75843)"
       xlink:href="#linear-gradient" />
    <linearGradient
       id="linear-gradient-7"
       x1="160.03999"
       y1="219.09"
       x2="140.08"
       y2="196.67999"
       gradientTransform="matrix(-0.92655036,0,0,-0.92655036,350.8883,335.75843)"
       xlink:href="#linear-gradient" />
    <linearGradient
       id="linear-gradient-8"
       x1="126.68"
       y1="196.07001"
       x2="170.98"
       y2="193.69"
       gradientTransform="matrix(-0.92655036,0,0,-0.92655036,350.8883,335.75843)"
       xlink:href="#linear-gradient" />
    <linearGradient
       inkscape:collect="always"
       xlink:href="#linear-gradient"
       id="linearGradient147"
       gradientUnits="userSpaceOnUse"
       gradientTransform="matrix(0.92655036,0,0,-0.92655036,-350.8883,335.75843)"
       x1="198.41"
       y1="159.75"
       x2="198.41"
       y2="43.740002" />
  </defs>
  <title
     id="title20">12</title>
  <path
     d="M 48.054578,93.041727 C 55.411389,77.915412 66.35395,63.816184 81.567904,54.894882 93.557443,47.900443 107.61323,44.343805 121.66901,42.289614 c 10.70165,-1.570352 21.72759,-2.334309 32.32732,-0.280116 24.0903,4.677106 42.13025,22.978087 55.59303,41.873258 13.46277,18.895134 24.55357,39.751084 42.82514,54.885904 11.11859,9.20142 24.40534,15.84784 36.65433,23.76752 12.24901,7.91965 23.88647,17.57096 29.39019,30.33751 5.35545,12.41852 4.3177,26.31402 2.24225,39.53897 -2.52023,16.12793 -6.81014,32.71426 -18.32718,45.09883 -16.87248,18.14818 -44.92841,22.99506 -70.75138,25.94901 -14.00944,1.59582 -28.11154,2.97945 -42.21362,2.38525 -24.36828,-1.03557 -47.96751,-7.92816 -72.13195,-11.03492 C 87.849915,291.042 55.142688,292.06908 32.31249,274.64241 20.767673,265.83144 13.392332,253.29411 7.3882875,240.68881 -2.0810567,220.79202 -8.8634047,198.14499 -1.2842237,177.59458 4.756886,161.21197 18.173332,151.73892 30.12583,139.43924 c 5.373992,-5.50898 5.957718,-12.90234 8.023928,-19.92227 a 197.26255,180.71795 0 0 1 9.90482,-26.475243 z"
     fill="#ff8d2c"
     opacity="0.8"
     style="isolation:isolate;stroke-width:0.886845"
     id="path22" />
  <ellipse
     cx="-167.05144"
     cy="271.21509"
     rx="138.1116"
     ry="13.953849"
     fill="url(#linear-gradient)"
     id="ellipse24"
     style="fill:url(#linearGradient147);stroke-width:0.92655"
     transform="scale(-1,1)" />
  <path
     d="m 110.83764,101.6099 a 4.3362551,4.3362551 0 0 1 -1.9921,0.92656 4.6327513,4.6327513 0 0 1 -1.97356,-0.35209 l -9.543451,-3.178057 a 3.6320771,3.6320771 0 0 0 -0.78759,4.864377 7.0510475,7.0510475 0 0 0 3.502381,2.12179 l 6.5507,2.35344 a 11.192728,11.192728 0 0 0 9.65465,-0.0649 c 1.95502,-0.64859 4.09537,-1.45468 5.03117,-3.28926 0.93582,-1.83457 0.25943,-4.27137 0.53741,-6.420977 0.1853,-1.39908 0.80609,-2.779637 0.76903,-4.150943 0,-1.204508 -0.98215,-3.020548 -2.42756,-2.779638 -1.24158,0.213108 -2.06621,2.371957 -2.72406,3.279982 a 30.325989,30.325989 0 0 1 -6.59702,6.689676 z"
     fill="#ffffff"
     id="path26"
     style="stroke-width:0.92655" />
  <path
     d="m 96.08694,98.487433 a 2.2700482,2.2700482 0 0 0 -0.454018,-0.68565 0.70417821,0.70417821 0 0 0 -0.759763,-0.1575 0.76903673,0.76903673 0 0 0 -0.36135,0.7505 0.41694762,0.41694762 0 0 1 -0.06482,0.28723 0.33355811,0.33355811 0 0 1 -0.296489,0 c -1.093325,-0.20385 -2.186669,-0.37061 -3.28925,-0.48179 a 1.3064359,1.3064359 0 0 0 -0.268701,0 0.7227092,0.7227092 0 0 0 -0.47255,0.92654 v 0 a 3.5023601,3.5023601 0 0 0 0.528135,1.009937 c 0.565209,0.92654 0.769049,2.13105 1.6678,2.72405 a 2.9464299,2.9464299 0 0 0 1.853098,0.37987 c 0.630051,0 1.250845,-0.14823 1.853088,-0.12044 a 1.973552,1.973552 0 0 0 1.241579,-0.12972 1.0840639,1.0840639 0 0 0 0.426221,-0.92654 3.5116255,3.5116255 0 0 0 -0.592987,-1.58441 c -0.315049,-0.648567 -0.639317,-1.315687 -1.009952,-1.992077 z"
     fill="#fdb9a9"
     id="path28"
     style="stroke-width:0.92655" />
  <path
     d="m 122.76231,170.36918 c -3.65985,-0.82463 -2.94641,4.36407 -3.91002,6.28201 a 10.395893,10.395893 0 0 1 -2.25152,2.59435 4.6327513,4.6327513 0 0 0 -1.64925,2.94642 1.1211258,1.1211258 0 0 0 0.12969,0.62079 1.1952498,1.1952498 0 0 0 0.72273,0.44475 8.496466,8.496466 0 0 0 6.26347,-0.6208 5.0126369,5.0126369 0 0 0 2.1496,-1.99207 7.0510475,7.0510475 0 0 0 0.55593,-2.95569 c 0.037,-2.15888 1.03775,-6.63411 -2.01063,-7.31976 z"
     fill="#fdb9a9"
     id="path30"
     style="stroke-width:0.92655" />
  <path
     d="m 119.52866,181.02452 c 0,0 -10.41443,0.44473 -6.00402,3.70619 4.41036,3.26146 10.98885,-0.79684 11.62818,-1.54732 0.63932,-0.75052 0.12046,-2.0199 0.12046,-2.0199 z"
     fill="#ff8d2c"
     id="path32"
     style="stroke-width:0.92655" />
  <path
     d="m 124.69882,182.47919 c -0.92656,1.13038 -5.81875,2.64994 -7.97761,2.50169 -2.15885,-0.14824 -4.10461,-1.16744 -3.89151,-2.56654 0.21311,-1.39911 4.0305,-4.63275 4.75321,-4.63275 0.7227,0 1.28791,1.66778 2.77964,2.0106 a 3.8544492,3.8544492 0 0 0 3.5209,-1.26009 0.92655027,0.92655027 0 0 1 1.18599,-0.30577 4.6327513,4.6327513 0 0 1 -0.37062,4.25286 z"
     fill="#ffffff"
     id="path34"
     style="stroke-width:0.92655" />
  <path
     d="m 135.30781,172.41686 c -3.7062,-0.84316 -2.94641,4.33624 -3.91003,6.26348 a 10.090132,10.090132 0 0 1 -2.26078,2.59433 4.6327513,4.6327513 0 0 0 -1.64,2.94644 1.0377364,1.0377364 0 0 0 0.12971,0.62077 1.1396568,1.1396568 0 0 0 0.72271,0.43548 8.4501386,8.4501386 0 0 0 6.26348,-0.6115 5.0126369,5.0126369 0 0 0 2.1496,-1.99209 6.9027994,6.9027994 0 0 0 0.54667,-2.95569 c 0.0834,-2.18666 1.04699,-6.65262 -2.00136,-7.30122 z"
     fill="#fdb9a9"
     id="path36"
     style="stroke-width:0.92655" />
  <path
     d="m 132.06488,183.0444 c 0,0 -10.40514,0.43549 -5.99478,3.70618 4.4104,3.27073 10.9889,-0.79682 11.62821,-1.53807 0.63932,-0.74122 0.12046,-2.02912 0.12046,-2.02912 z"
     fill="#ff8d2c"
     id="path38"
     style="stroke-width:0.92655" />
  <path
     d="m 137.24432,184.46203 c -0.92656,1.13965 -5.81874,2.64991 -7.97762,2.50167 -2.15886,-0.14825 -4.1046,-1.16746 -3.89151,-2.56654 0.21312,-1.3991 4.03049,-4.63274 4.74396,-4.63274 0.71343,0 1.29715,1.66778 2.77964,2.01061 a 3.8544492,3.8544492 0 0 0 3.52089,-1.26012 0.92655027,0.92655027 0 0 1 1.17671,-0.30576 4.6327513,4.6327513 0 0 1 -0.35207,4.25288 z"
     fill="#ffffff"
     id="path40"
     style="stroke-width:0.92655" />
  <path
     d="m 125.87555,125.2184 4.89217,51.45133 7.04179,-0.87095 c 2.77964,-12.55476 2.10327,-50.11712 2.10327,-50.11712 z"
     fill="#473f47"
     id="path42"
     style="stroke-width:0.92655" />
  <path
     d="m 130.76772,123.82856 -4.89217,51.45134 -7.06033,-0.87095 c -4.03049,-32.55898 -0.71345,-52.81337 -0.71345,-52.81337 z"
     fill="#473f47"
     id="path44"
     style="stroke-width:0.92655" />
  <path
     d="m 118.72256,105.2142 c -0.0834,-0.92657 -0.33354,-1.85313 -0.43547,-2.83525 a 21.236531,21.236531 0 0 1 0.11117,-5.837266 22.237207,22.237207 0 0 1 1.85311,-5.939179 c 0.81537,-1.639992 2.2886,-2.3349 3.93784,-3.141002 a 13.898253,13.898253 0 0 1 4.43819,-1.510269 11.118604,11.118604 0 0 1 3.27998,0.185307 c 3.31705,0.630053 7.69964,2.344163 9.96967,4.966297 1.70485,1.964289 1.85312,4.781002 1.95503,7.412405 q 0.11117,5.392507 -0.22237,10.775757 c 0,0.52812 -0.0649,1.04698 -0.10195,1.56586 a 58.372667,58.372667 0 0 1 -1.76971,11.79499 c -0.3521,1.19525 -0.7227,2.3905 -1.8531,3.02981 -2.60361,1.51027 -6.57852,0.68565 -9.38595,0.28723 -3.70622,-0.52812 -7.5514,-1.0748 -10.84992,-2.88157 a 3.0761469,3.0761469 0 0 1 -1.57513,-1.51953 4.0860867,4.0860867 0 0 1 0.31503,-2.50169 c 1.12112,-3.70622 0.25018,-7.54212 0.25018,-11.29463 0,-0.67639 0.0834,-1.3713 0.0834,-2.05696 a 3.002023,3.002023 0 0 0 0,-0.50031 z"
     fill="#ffffff"
     id="path46"
     style="stroke-width:0.92655" />
  <path
     d="m 129.137,122.49433 a 1.8531006,1.8531006 0 0 1 0.28722,-1.13039 c 0.41695,-0.51886 1.22304,-0.40768 1.8531,-0.24091 l 4.19728,1.03775 c 1.57514,0.38915 4.01196,1.94575 4.41963,3.52088 1.61222,-1.13039 2.02915,-3.02981 2.32565,-4.97558 0.29649,-1.94574 0.31503,-5.73534 0.66712,-7.67183 a 12.740066,12.740066 0 0 1 -6.9584,2.3905 c -2.38122,0.0556 -5.37399,0 -6.23568,-2.6036 -0.9914,-3.00203 -1.3435,-6.15228 -2.00136,-9.2655 a 0.63005418,0.63005418 0 0 0 -0.19456,-0.38914 0.52813364,0.52813364 0 0 0 -0.37062,-0.0834 l -9.0524,0.10196 a 0.77830222,0.77830222 0 0 0 -0.40769,0.0741 c -0.26868,0.15753 -0.26868,0.5374 -0.22237,0.83391 a 9.1357858,9.1357858 0 0 0 2.90937,5.29983 3.1780674,3.1780674 0 0 1 1.36204,2.01989 c 0.16677,1.13038 0.12044,2.33489 0.2409,3.47455 a 26.406683,26.406683 0 0 0 1.56587,7.06031 c 1.28789,3.27074 5.374,5.79094 5.6149,0.54667 z"
     fill="#020202"
     opacity="0.1"
     style="isolation:isolate;stroke-width:0.92655"
     id="path48" />
  <polygon
     points="225.77,104.05 227.57,81.45 213.03,81.45 211.23,104.05 "
     fill="#ff8d2c"
     id="polygon50"
     transform="matrix(-0.92655027,0,0,0.92655027,322.38758,28.690437)" />
  <path
     d="m 125.89406,80.781092 a 28.259782,28.259782 0 0 1 0.17604,-2.946431 c 0.10198,-0.926549 0.23165,-1.72338 0.39844,-2.566542 a 1.75118,1.75118 0 0 1 0.65784,-1.306437 8.2555629,8.2555629 0 0 1 4.39184,-1.204514 4.2713967,4.2713967 0 0 1 3.20587,1.158187 4.1046177,4.1046177 0 0 1 0.92655,2.344174 c 0.2409,2.158861 -0.32429,4.308455 -0.63933,6.485838 a 26.869959,26.869959 0 0 0 -0.25944,5.031164 5.9391872,5.9391872 0 0 1 -2.71477,0.926548 4.3362551,4.3362551 0 0 1 -1.33423,-0.231632 0.66711619,0.66711619 0 0 1 -0.60228,-0.926548 5.0219024,5.0219024 0 0 0 0,-0.528136 v 0 a 15.751354,15.751354 0 0 0 -0.0556,-2.955687 0.33355811,0.33355811 0 0 0 -0.0833,-0.222375 0.37988562,0.37988562 0 0 0 -0.20384,0 h -0.27796 a 7.8293497,7.8293497 0 0 1 -1.47321,0 2.4368271,2.4368271 0 0 1 -1.52882,-0.769037 3.1039434,3.1039434 0 0 1 -0.58372,-2.288572 z"
     fill="#fdb9a9"
     id="path52"
     style="stroke-width:0.92655" />
  <path
     d="m 127.88615,74.471287 c -0.35209,0.06485 -0.64859,0.185308 -0.92655,0 a 4.5678927,4.5678927 0 0 1 -0.81536,-0.926552 3.8729801,3.8729801 0 0 1 -0.75976,-2.548015 2.2329862,2.2329862 0 0 1 0.35206,-1.158186 2.4460928,2.4460928 0 0 1 0.92657,-0.694912 4.6327513,4.6327513 0 0 1 2.27931,-0.454011 5.4388501,5.4388501 0 0 1 3.04834,1.454684 1.7233835,1.7233835 0 0 0 0.63006,0.426212 1.621463,1.621463 0 0 0 0.66713,0 5.6148946,5.6148946 0 0 1 4.03048,1.241579 20.967831,20.967831 0 0 0 1.85309,1.769711 c 0.72271,0.491071 1.31572,0.685648 1.6678,1.306436 a 1.7697111,1.7697111 0 0 1 -0.20383,1.853098 2.8630403,2.8630403 0 0 1 -1.6678,0.926548 1.4917461,1.4917461 0 0 1 -0.85243,1.927229 h -0.0742 a 2.177393,2.177393 0 0 0 -0.7505,0.250167 c -0.15752,0.120456 -0.23164,0.315026 -0.38915,0.444738 -0.37987,0.305762 -0.87095,0.41695 -1.02846,0.926551 a 3.3726431,3.3726431 0 0 0 -0.065,0.685652 1.56587,1.56587 0 0 1 -0.38916,0.926548 c -0.14823,0.157514 -0.40767,0.565195 -0.63004,0.602254 -0.22238,0.03707 -0.40768,-0.213108 -0.48179,-0.435483 a 4.4752379,4.4752379 0 0 1 0.20384,-2.946419 3.3355811,3.3355811 0 0 0 0.48179,-1.501014 c -0.0556,-0.518867 -0.76904,-0.926549 -1.11186,-0.630054 -0.34282,0.2965 -0.40769,1.065537 -0.82463,0.926548 a 3.2707226,3.2707226 0 0 0 -1.5844,-3.974896 7.6718362,7.6718362 0 0 0 -2.38124,-0.333556 7.0325164,7.0325164 0 0 0 -1.16744,-0.129718 z"
     fill="#473f47"
     id="path54"
     style="stroke-width:0.92655" />
  <path
     d="m 129.44275,83.810909 a 16.770559,16.770559 0 0 0 3.32632,-1.00068 3.9656352,3.9656352 0 0 1 -2.72406,4.187998 v 0 a 16.58525,16.58525 0 0 0 -0.0649,-2.955687 0.31502709,0.31502709 0 0 0 -0.0834,-0.222375 0.25943407,0.25943407 0 0 0 -0.20383,0 h -0.25017 z"
     fill="#de9f93"
     id="path56"
     style="stroke-width:0.92655" />
  <path
     d="m 146.12065,103.43521 1.60293,7.02325 a 4.1972727,4.1972727 0 0 1 -1.42687,4.72539 11.192728,11.192728 0 0 1 -3.37265,2.98349 9.7751058,9.7751058 0 0 1 -2.88158,0.7783 41.212956,41.212956 0 0 1 -7.92199,0.43548 1.3898253,1.3898253 0 0 1 -0.61154,-0.12046 1.2601083,1.2601083 0 0 1 -0.45399,-0.48179 26.869959,26.869959 0 0 1 -2.3905,-4.42893 24.748157,24.748157 0 0 1 6.92133,-3.24292 2.7796508,2.7796508 0 0 0 1.33423,-0.65784 2.2700482,2.2700482 0 0 0 0.4818,-1.07477 c 1.03773,-4.49379 -1.37131,-9.497137 0.5652,-13.685148 1.09332,-2.381236 3.43752,-4.947778 5.16088,-1.751178 1.56587,2.909364 2.26079,6.300536 2.99275,9.497126 z"
     fill="#ffffff"
     id="path58"
     style="stroke-width:0.92655" />
  <path
     d="m 126.8299,114.40555 a 5.9947802,5.9947802 0 0 0 -0.92657,-0.58373 1.0840639,1.0840639 0 0 0 -1.03773,0 c -0.14826,0.10198 -0.25944,0.26869 -0.42621,0.32429 a 0.75050571,0.75050571 0 0 1 -0.3521,0 l -2.14032,-0.2131 a 1.1396568,1.1396568 0 0 0 -0.98214,0.2131 c -0.27798,0.3243 -0.1112,0.81536 0.0742,1.18597 a 34.171174,34.171174 0 0 0 1.85309,3.25221 2.7796508,2.7796508 0 0 0 0.46329,0.57446 2.1310655,2.1310655 0 0 0 0.83389,0.37989 6.2727453,6.2727453 0 0 0 3.33558,-0.139 9.2655027,9.2655027 0 0 0 2.94644,-1.60291 1.1489224,1.1489224 0 0 0 0.33355,-0.33357 1.2415774,1.2415774 0 0 0 0.14825,-0.5096 c 0.10196,-0.82463 -0.15751,-2.16812 -1.23231,-2.10326 a 4.2991934,4.2991934 0 0 1 -2.89083,-0.44475 z"
     fill="#fdb9a9"
     id="path60"
     style="stroke-width:0.92655" />
  <rect
     x="-82.133156"
     y="142.80434"
     width="45.465824"
     height="128.4106"
     fill="#ff8d2c"
     id="rect62"
     transform="scale(-1,1)"
     style="stroke-width:0.92655" />
  <rect
     x="-154.19093"
     y="185.00871"
     width="45.465824"
     height="86.206245"
     fill="#ff8d2c"
     id="rect64"
     transform="scale(-1,1)"
     style="stroke-width:0.92655" />
  <rect
     x="-222.54253"
     y="214.71391"
     width="45.465824"
     height="56.501034"
     fill="#ff8d2c"
     id="rect66"
     transform="scale(-1,1)"
     style="stroke-width:0.92655" />
  <rect
     x="-82.133156"
     y="142.80434"
     width="45.465824"
     height="128.4106"
     fill="url(#linear-gradient-2)"
     id="rect68"
     style="fill:url(#linear-gradient-2);stroke-width:0.92655"
     transform="scale(-1,1)" />
  <rect
     x="-154.19093"
     y="185.00871"
     width="45.465824"
     height="86.206245"
     fill="url(#linear-gradient-3)"
     id="rect70"
     style="fill:url(#linear-gradient-3);stroke-width:0.92655"
     transform="scale(-1,1)" />
  <rect
     x="-222.54253"
     y="214.71391"
     width="45.465824"
     height="56.501034"
     fill="url(#linear-gradient-4)"
     id="rect72"
     style="fill:url(#linear-gradient-4);stroke-width:0.92655"
     transform="scale(-1,1)" />
  <path
     d="m 260.02147,177.06814 c -2.23297,-2.63141 -5.31838,-1.26936 -7.77374,0.20384 -1.32499,0.78757 -2.35346,2.22373 -3.52091,3.26147 a 36.746983,36.746983 0 0 1 -4.39184,3.36336 7.0047201,7.0047201 0 0 1 -1.02846,0.58372 8.1536423,8.1536423 0 0 1 -2.20519,0.52815 l -5.05897,0.70418 a 17.687845,17.687845 0 0 1 -4.84586,0.23163 8.7744312,8.7744312 0 0 0 -2.77964,-0.25017 c -1.34349,0.2409 -1.65854,1.29717 -1.78825,2.4739 -0.12971,1.17672 -0.25017,1.41761 0.77831,1.85309 a 23.710423,23.710423 0 0 0 4.27138,0.67638 c 1.33424,0.2409 2.66849,0.50961 3.98418,0.85244 a 19.022076,19.022076 0 0 0 3.79886,0.7505 c 2.8723,0.13898 5.55929,-1.27863 8.0795,-2.64993 l 9.56201,-5.20723 c 2.52022,-1.38983 5.3184,-4.5308 2.91862,-7.37533 z"
     fill="#ff8d2c"
     id="path74"
     style="stroke-width:0.92655" />
  <path
     d="m 260.02147,177.06814 c -2.23297,-2.63141 -5.31838,-1.26936 -7.77374,0.20384 -1.32499,0.78757 -2.35346,2.22373 -3.52091,3.26147 a 36.746983,36.746983 0 0 1 -4.39184,3.36336 7.0047201,7.0047201 0 0 1 -1.02846,0.58372 8.1536423,8.1536423 0 0 1 -2.20519,0.52815 l -5.05897,0.70418 a 17.687845,17.687845 0 0 1 -4.84586,0.23163 8.7744312,8.7744312 0 0 0 -2.77964,-0.25017 c -1.34349,0.2409 -1.65854,1.29717 -1.78825,2.4739 -0.12971,1.17672 -0.25017,1.41761 0.77831,1.85309 a 23.710423,23.710423 0 0 0 4.27138,0.67638 c 1.33424,0.2409 2.66849,0.50961 3.98418,0.85244 a 19.022076,19.022076 0 0 0 3.79886,0.7505 c 2.8723,0.13898 5.55929,-1.27863 8.0795,-2.64993 l 9.56201,-5.20723 c 2.52022,-1.38983 5.3184,-4.5308 2.91862,-7.37533 z"
     fill="url(#linear-gradient-5)"
     id="path76"
     style="fill:url(#linear-gradient-5);stroke-width:0.92655" />
  <path
     d="m 227.00852,185.65727 c 0.32426,0.18531 0.83389,0.20383 1.11182,0.48181 0.27798,0.27795 0.27798,1.00065 0.33358,1.38055 a 1.1859843,1.1859843 0 0 1 -0.10197,0.81537 1.2415774,1.2415774 0 0 1 -0.33356,0.28724 6.6896929,6.6896929 0 0 1 -2.31636,1.21378 4.975575,4.975575 0 0 1 -3.34487,-0.66713 7.1992957,7.1992957 0 0 1 -3.45602,-3.82665 c -0.13897,-0.41694 -0.17604,-0.99142 0.22238,-1.19526 a 1.0840639,1.0840639 0 0 1 0.81537,0.0742 13.360854,13.360854 0 0 0 4.54934,0.79681 1.6955871,1.6955871 0 0 1 -0.065,-1.16744 c 1.047,0.27797 1.68633,1.23231 2.58508,1.80678 z"
     fill="#fcbdba"
     id="path78"
     style="stroke-width:0.92655" />
  <path
     d="m 216.6404,180.45932 v 16.6779 c 0,1.01922 0.49108,1.8531 1.09332,1.8531 h 14.82481 c 0.60226,0 1.08406,-0.82463 1.08406,-1.8531 v -16.6779 c 0,-1.01921 -0.4818,-1.8531 -1.08406,-1.8531 h -14.82481 c -0.60224,0.009 -1.09332,0.83389 -1.09332,1.8531 z"
     fill="#ff8d2c"
     id="path80"
     style="stroke-width:0.92655" />
  <path
     d="m 216.6404,180.45932 v 16.6779 c 0,1.01922 0.49108,1.8531 1.09332,1.8531 h 14.82481 c 0.60226,0 1.08406,-0.82463 1.08406,-1.8531 v -16.6779 c 0,-1.01921 -0.4818,-1.8531 -1.08406,-1.8531 h -14.82481 c -0.60224,0.009 -1.09332,0.83389 -1.09332,1.8531 z"
     fill="url(#linear-gradient-6)"
     id="path82"
     style="fill:url(#linear-gradient-6);stroke-width:0.92655" />
  <path
     d="m 275.83769,222.50616 c 0,0 -14.15769,16.67791 -16.6779,19.9579 -2.52022,3.27998 -2.53875,22.69122 -2.53875,22.69122 h -5.98551 c 0,0 -0.19457,-19.24445 1.85309,-25.77663 2.04768,-6.53219 13.0551,-27.30545 13.0551,-27.30545 z"
     fill="#473f47"
     id="path84"
     style="stroke-width:0.92655" />
  <path
     d="m 282.6849,215.30687 c 0,0 -1.85309,19.20738 -2.57581,24.22002 -0.72271,5.01265 12.34164,22.16309 12.34164,22.16309 l -5.08675,2.72407 c 0,0 -9.43228,-10.84993 -12.8883,-16.8725 -3.45605,-6.02257 -10.10868,-32.93884 -10.10868,-32.93884 9.11726,-4.2992 18.3179,0.70416 18.3179,0.70416 z"
     fill="#473f47"
     id="path86"
     style="stroke-width:0.92655" />
  <path
     d="m 252.0717,186.58381 c 1.6307,3.60428 4.12312,6.59704 5.70754,10.19205 2.23297,5.08676 5.44811,9.5342 6.00403,15.23249 0.12973,1.29716 0.18532,2.77965 1.17672,3.63207 a 4.2528658,4.2528658 0 0 0 1.71412,0.78758 54.814714,54.814714 0 0 0 7.31047,1.53807 14.667291,14.667291 0 0 0 4.63277,0.12045 5.9947802,5.9947802 0 0 0 3.93783,-2.34419 6.1893558,6.1893558 0 0 0 0.61153,-5.03115 c -0.78756,-2.94643 -2.64993,-5.07749 -4.82734,-7.10664 -2.77963,-2.62215 -4.02121,-7.69036 -5.24426,-11.18347 -0.86169,-2.46462 -1.6678,-4.94778 -2.49243,-7.41239 -1.00066,-3.0113 -2.6314,-4.70686 -4.77173,-7.06959 a 14.824804,14.824804 0 0 0 -4.81804,-4.0583 7.4865261,7.4865261 0 0 0 -10.47003,6.92135 12.471366,12.471366 0 0 0 0.59298,3.29851 18.215978,18.215978 0 0 0 0.93584,2.48316 z"
     fill="#ff8d2c"
     id="path88"
     style="stroke-width:0.92655" />
  <path
     d="m 251.04321,156.87862 c 1.75119,-1.74193 4.91997,-0.92657 6.94912,-0.26872 a 6.3931968,6.3931968 0 0 1 1.66779,0.68565 5.2257435,5.2257435 0 0 1 1.67705,1.91797 7.0881095,7.0881095 0 0 1 0.92656,2.64065 8.2555629,8.2555629 0 0 1 -0.40768,3.70623 13.750006,13.750006 0 0 0 -1.13967,2.49241 c -0.52812,2.37197 -1.06552,4.74392 -1.58439,7.12517 a 1.1211258,1.1211258 0 0 1 -0.25943,0.57448 0.99140881,0.99140881 0 0 1 -0.48182,0.18528 15.093504,15.093504 0 0 1 -3.70619,0.28725 1.3064359,1.3064359 0 0 1 -0.62079,-0.12047 1.3805599,1.3805599 0 0 1 -0.58371,-1.23229 c -0.0649,-0.71345 0.0556,-1.42691 0,-2.14034 a 2.2515172,2.2515172 0 0 0 -0.67639,-1.57514 5.1238229,5.1238229 0 0 0 -1.79751,-0.58372 3.1410055,3.1410055 0 0 1 -1.5844,-1.00994 c -1.1026,-1.43615 -0.26869,-3.65062 -1.18598,-5.23502 a 1.8531006,1.8531006 0 0 1 -0.38915,-0.88021 c 0,-0.42623 0.38915,-0.74126 0.69491,-1.04701 1.53807,-1.55659 1.05626,-4.05828 2.50168,-5.52223 z"
     fill="#fcbdba"
     id="path90"
     style="stroke-width:0.92655" />
  <path
     d="m 257.48274,165.53259 a 3.1688019,3.1688019 0 0 0 0.57444,-1.07479 1.1118604,1.1118604 0 0 1 0.92657,-0.75978 0.92655027,0.92655027 0 0 1 0.77829,0.63932 1.9086935,1.9086935 0 0 1 -0.22235,1.65852 6.1337629,6.1337629 0 0 1 -1.1582,1.2879 l 0.55592,1.3991 a 1.5473389,1.5473389 0 0 0 0.25017,0.47254 1.2045154,1.2045154 0 0 0 0.56521,0.30577 2.5387477,2.5387477 0 0 0 2.34418,-0.87097 7.5050571,7.5050571 0 0 0 1.25082,-2.27931 l 0.92656,-2.39976 c 0.47255,-1.15819 -0.25943,-1.60294 -0.21309,-2.687 a 1.5936665,1.5936665 0 0 1 0.23163,-0.49107 3.8544492,3.8544492 0 0 0 0,-3.34485 2.5665442,2.5665442 0 0 0 -0.79685,-1.05626 3.0112885,3.0112885 0 0 0 -0.86168,-0.38914 c -1.42688,-0.4633 -2.91864,-0.7042 -4.35479,-1.11187 a 45.73452,45.73452 0 0 0 -4.55863,-1.31571 6.0874353,6.0874353 0 0 0 -4.54936,0.79683 1.621463,1.621463 0 0 0 -0.78757,1.27863 2.0569416,2.0569416 0 0 0 0.65785,1.16746 10.544142,10.544142 0 0 0 4.91071,3.07616 c 0.92655,0.26869 2.42756,0.25944 2.97423,1.24159 0.6208,1.13038 0.37988,3.18731 0.55594,4.45669 z"
     fill="#fc682d"
     id="path92"
     style="stroke-width:0.92655" />
  <path
     d="m 257.83484,177.24418 c -3.0113,-1.68631 -5.42034,0.66714 -7.20859,2.90011 -0.92654,1.2045 -1.42687,2.91863 -2.15884,4.29918 a 37.06201,37.06201 0 0 1 -2.93717,4.67909 7.1344373,7.1344373 0 0 1 -0.75051,0.92655 7.9220049,7.9220049 0 0 1 -1.85311,1.26938 l -4.48449,2.42755 a 17.789766,17.789766 0 0 1 -4.46598,1.9087 8.6076518,8.6076518 0 0 0 -2.66846,0.74125 c -1.17672,0.6949 -1.10259,1.78822 -0.80609,2.93715 0.29649,1.14891 0.25017,1.41763 1.36202,1.43616 a 26.314027,26.314027 0 0 0 4.24361,-0.8617 c 1.31569,-0.24089 2.66846,-0.44475 4.02122,-0.59299 a 19.744785,19.744785 0 0 0 3.82665,-0.62078 c 2.77965,-0.92654 4.75321,-3.15027 6.64338,-5.31839 l 7.12516,-8.22779 c 1.83456,-2.16813 3.35412,-6.08742 0.1112,-7.90347 z"
     fill="#ff8d2c"
     id="path94"
     style="stroke-width:0.92655" />
  <path
     d="m 229.91786,196.84999 c 0.37063,0.0556 0.8617,-0.11119 1.21378,0.0556 0.3521,0.16679 0.61154,0.84318 0.79684,1.18599 a 1.1303913,1.1303913 0 0 1 0.18529,0.78757 1.3064359,1.3064359 0 0 1 -0.20383,0.38916 6.7638169,6.7638169 0 0 1 -1.75116,1.94576 4.9477784,4.9477784 0 0 1 -3.3634,0.54665 7.1344373,7.1344373 0 0 1 -4.57715,-2.37196 c -0.27796,-0.34282 -0.5096,-0.87096 -0.2131,-1.19525 a 1.0562672,1.0562672 0 0 1 0.78756,-0.22237 13.370121,13.370121 0 0 0 4.54937,-0.84316 1.7048525,1.7048525 0 0 1 -0.47255,-1.06553 c 1.07481,-0.12045 2.01063,0.54666 3.04835,0.78756 z"
     fill="#fcbdba"
     id="path96"
     style="stroke-width:0.92655" />
  <path
     d="m 292.43222,261.90308 c -1.30644,0 -4.45671,1.19525 -5.09603,2.38123 a 3.5486875,3.5486875 0 0 0 -0.27797,1.38983 9.6453884,9.6453884 0 0 1 -1.26937,3.95637 c -0.51886,0.92657 -1.17672,2.09401 -0.55593,2.87231 0.62079,0.7783 1.8531,0.4818 2.77966,0.065 a 28.296847,28.296847 0 0 0 8.6447,-6.30053 0.71344373,0.71344373 0 0 0 0.20383,-0.20384 0.92655027,0.92655027 0 0 0 -0.20383,-1.24158 c -1.05627,-1.23231 -2.49243,-2.92789 -4.22506,-2.91863 z"
     fill="#ff8d2c"
     id="path98"
     style="stroke-width:0.92655" />
  <path
     d="m 256.38013,264.78464 c -1.13965,-0.65785 -4.4845,-1.14891 -5.62415,-0.43546 a 3.4097049,3.4097049 0 0 0 -0.92655,1.06554 9.9696814,9.9696814 0 0 1 -3.05761,2.77963 c -0.92654,0.51888 -2.06621,1.22306 -1.91797,2.21448 0.14825,0.99139 1.38057,1.34347 2.37199,1.42688 a 28.083737,28.083737 0 0 0 10.66457,-1.186 0.92655027,0.92655027 0 0 0 0.30578,-0.0834 0.87095727,0.87095727 0 0 0 0.39841,-1.16746 v 0 c -0.28724,-1.56588 -0.68565,-3.75252 -2.21447,-4.61423 z"
     fill="#ff8d2c"
     id="path100"
     style="stroke-width:0.92655" />
  <path
     d="m 230.88148,128.64664 a 6.6711619,6.6711619 0 0 0 -3.93784,-2.64068 7.4124022,7.4124022 0 0 0 -5.97625,0.88022 1.2508428,1.2508428 0 0 1 -0.80609,0.32428 1.2323119,1.2323119 0 0 1 -0.50962,-0.26869 6.930596,6.930596 0 0 0 -4.86436,-1.22305 c -2.06623,0.25017 -2.93718,1.64926 -4.26215,3.10395 a 1.7882421,1.7882421 0 0 0 -1.27865,-0.92655 4.8180613,4.8180613 0 0 0 -1.63071,0 5.3739916,5.3739916 0 0 0 -2.38125,0.72271 c -1.1304,0.78756 -1.51953,2.25153 -2.29784,3.40044 a 0.41694762,0.41694762 0 0 1 -0.27797,0.22238 0.43547862,0.43547862 0 0 1 -0.28721,-0.14826 7.9220049,7.9220049 0 0 0 -0.70419,-0.86168 1.8531006,1.8531006 0 0 0 -2.35344,0.20384 6.2912764,6.2912764 0 0 0 -1.35276,2.16812 4.4011137,4.4011137 0 0 1 -1.52882,2.01988 4.9292474,4.9292474 0 0 1 -1.72337,0.54665 7.6996327,7.6996327 0 0 0 -4.57715,2.33492 3.576484,3.576484 0 0 0 -0.86171,2.32564 2.4368271,2.4368271 0 0 0 1.2323,2.07547 c 1.76045,0.92655 3.91006,-0.92654 5.81875,-0.39841 1.9087,0.52813 4.90144,-0.0463 6.89353,-0.76905 1.61219,-0.59299 3.32632,-1.37128 4.97558,-0.92654 a 5.6519565,5.6519565 0 0 0 1.59366,0.43547 3.0854123,3.0854123 0 0 0 1.17673,-0.31502 11.674535,11.674535 0 0 0 3.14101,-1.7697 c 1.79749,-1.51956 2.77963,-3.94712 4.90144,-5.03118 a 4.8736545,4.8736545 0 0 1 3.95637,-0.22239 c 0.5374,0.21313 1.02847,0.51888 1.57513,0.71347 a 6.0225769,6.0225769 0 0 0 1.98283,0.33355 5.7260807,5.7260807 0 0 0 4.53082,-1.64 c 1.09333,-1.26011 0.71346,-3.34484 -0.16677,-4.66979 z"
     fill="#473f47"
     id="path102"
     style="stroke-width:0.92655" />
  <path
     d="m 233.21638,133.77044 a 2.6777304,2.6777304 0 0 1 -0.41694,3.45605 3.817387,3.817387 0 0 1 -1.49175,0.57445 l -3.15954,0.75051 1.17672,-3.20587 a 2.7796508,2.7796508 0 0 0 0.21311,-1.85309 1.973552,1.973552 0 0 0 -1.64926,-1.14892 20.078345,20.078345 0 0 0 -2.11255,0 0.57446116,0.57446116 0 0 1 -0.5096,-0.22238 c -0.10195,-0.22238 0.1112,-0.47255 0.31504,-0.6208 2.52021,-1.78825 6.1801,-0.17605 7.63477,2.27005 z"
     fill="#473f47"
     id="path104"
     style="stroke-width:0.92655" />
  <path
     d="m 202.34372,206.28228 a 6.0040458,6.0040458 0 0 0 0.32432,3.25219 c 0.65783,1.43616 2.094,2.32564 3.18731,3.4653 a 1.0377364,1.0377364 0 0 1 0.37988,0.80608 0.75050571,0.75050571 0 0 1 -0.63005,0.52814 1.9179589,1.9179589 0 0 1 -0.85243,-0.13898 36.617266,36.617266 0 0 0 -3.91002,-1.32496 c -0.66712,-0.13899 -1.4547,-0.2687 -1.76045,-0.87096 a 2.1310655,2.1310655 0 0 1 0.0833,-1.54734 20.634275,20.634275 0 0 0 0.87096,-5.81875 3.8081216,3.8081216 0 0 1 0.17606,-1.44542 1.3342324,1.3342324 0 0 1 1.77896,-0.6393 1.2786395,1.2786395 0 0 1 0.49107,0.39841 c 0.61154,0.84316 -0.0277,2.41831 -0.13899,3.33559 z"
     fill="#fcbdba"
     id="path106"
     style="stroke-width:0.92655" />
  <path
     d="m 179.2541,208.42259 a 5.9947802,5.9947802 0 0 0 -0.33357,3.25221 c 0.35212,1.54733 1.58442,2.69624 2.42758,4.03975 a 1.0470018,1.0470018 0 0 1 0.20383,0.87096 0.71344373,0.71344373 0 0 1 -0.7227,0.3799 1.9457556,1.9457556 0 0 1 -0.80612,-0.30577 35.959415,35.959415 0 0 0 -3.55794,-2.07548 c -0.63005,-0.27797 -1.38056,-0.56518 -1.55662,-1.22304 a 2.1495966,2.1495966 0 0 1 0.39843,-1.49175 20.847382,20.847382 0 0 0 2.02914,-5.55931 3.8637146,3.8637146 0 0 1 0.46327,-1.38056 1.3342324,1.3342324 0 0 1 1.8531,-0.26869 1.3712945,1.3712945 0 0 1 0.39842,0.49107 c 0.44476,0.99141 -0.50034,2.39976 -0.79682,3.27071 z"
     fill="#fcbdba"
     id="path108"
     style="stroke-width:0.92655" />
  <path
     d="m 187.25023,155.38686 c 0,0 7.19002,18.96649 13.27746,25.55426 a 24.201492,24.201492 0 0 0 -1.04701,4.92923 c -0.25015,2.77966 0.49108,5.36475 0.2965,8.07028 l -0.66712,9.07093 c 0,0.41693 0,0.92654 0.31504,1.13966 a 1.2137808,1.2137808 0 0 0 0.7227,0.12043 l 3.24295,-0.12043 a 143.68015,143.68015 0 0 1 4.03973,-15.75137 35.903824,35.903824 0 0 0 1.64927,-6.36541 c 0.59298,-4.76246 -2.24225,-9.76584 -3.99345,-14.09283 -1.06551,-2.61287 -1.98279,-6.36539 -3.79885,-8.57984 -1.51953,-1.85309 -4.28993,-1.79751 -6.66189,-2.11253 a 15.751354,15.751354 0 0 1 -5.12381,-1.58442 2.4368271,2.4368271 0 0 0 -2.25152,-0.27796 z"
     fill="#473f47"
     id="path110"
     style="stroke-width:0.92655" />
  <path
     d="m 183.08076,154.3028 c 0,0 -0.24092,20.28219 3.02054,28.63041 a 25.424539,25.424539 0 0 0 -2.77964,4.20652 23.645563,23.645563 0 0 0 -1.3991,3.85446 l -4.74393,15.86254 a 13.055093,13.055093 0 0 0 4.63275,0.49107 l 8.97828,-12.86979 a 20.597213,20.597213 0 0 0 3.5394,-6.69895 c 1.16746,-4.82734 0.63005,-23.57143 0.2965,-24.59064 -0.73197,-2.27932 -3.33558,-3.23367 -5.42959,-4.40112 a 15.908868,15.908868 0 0 1 -4.18799,-3.34484 c -0.53741,-0.63932 -1.07479,-1.20452 -1.92722,-1.13966 z"
     fill="#473f47"
     id="path112"
     style="stroke-width:0.92655" />
  <path
     d="m 214.33328,167.84896 a 14.074298,14.074298 0 0 0 3.88226,6.80088 5.4388501,5.4388501 0 0 1 1.53808,1.74191 c -0.60227,0 -1.3991,0.24093 -1.38057,0.84317 a 1.0933292,1.0933292 0 0 0 0.18532,0.50033 4.1602107,4.1602107 0 0 0 1.3435,1.35277 2.1310655,2.1310655 0 0 1 0.74121,0.60226 1.1118604,1.1118604 0 0 1 -0.54665,1.46396 2.3534378,2.3534378 0 0 1 -1.70485,0 5.4666466,5.4666466 0 0 1 -3.7062,-4.15096 c -0.10195,-0.56519 -0.12045,-1.13964 -0.22237,-1.70485 a 11.350241,11.350241 0 0 0 -1.21378,-2.99277 63.144401,63.144401 0 0 1 -3.65061,-8.82074 3.3726431,3.3726431 0 0 1 -0.10196,-2.69626 c 0.79683,-1.41763 3.45602,-2.11255 3.79885,-0.10196 0.40769,2.40902 0.39842,4.79952 1.03771,7.16222 z"
     fill="#fcbdba"
     id="path114"
     style="stroke-width:0.92655" />
  <path
     d="m 226.6842,163.06795 a 14.09283,14.09283 0 0 0 5.60563,5.44814 5.4944432,5.4944432 0 0 1 1.95502,1.24158 c -0.56519,0.18529 -1.26935,0.62079 -1.08406,1.19524 a 1.0284708,1.0284708 0 0 0 0.31503,0.42621 4.4196448,4.4196448 0 0 0 1.66779,0.92654 2.0847382,2.0847382 0 0 1 0.92655,0.37064 1.1025949,1.1025949 0 0 1 -0.11118,1.54733 2.2607826,2.2607826 0 0 1 -1.63074,0.50034 5.4666466,5.4666466 0 0 1 -4.7254,-2.94644 c -0.25018,-0.50959 -0.42621,-1.05625 -0.68564,-1.56586 a 11.757924,11.757924 0 0 0 -1.99209,-2.53875 64.626881,64.626881 0 0 1 -5.98552,-7.4124 3.4189704,3.4189704 0 0 1 -0.84316,-2.56656 c 0.36136,-1.58439 2.72406,-2.99273 3.61354,-1.15817 1.03775,2.14032 1.69561,4.43815 2.97423,6.53216 z"
     fill="#fcbdba"
     id="path116"
     style="stroke-width:0.92655" />
  <path
     d="m 219.54051,147.59458 a 33.031517,33.031517 0 0 0 6.72675,10.57193 c 0.12046,0.13899 0.25943,0.32431 0.19458,0.50034 a 0.50960265,0.50960265 0 0 1 -0.2687,0.23163 21.699808,21.699808 0 0 1 -5.29988,2.01062 1.621463,1.621463 0 0 1 -0.6671,0.0556 1.5566043,1.5566043 0 0 1 -0.88022,-0.79682 q -2.34419,-3.61356 -4.34554,-7.4124 a 17.150445,17.150445 0 0 1 -2.32562,-6.97691 5.9391872,5.9391872 0 0 1 0.87095,-3.6043 c 0.78755,-1.1582 3.30778,-2.4739 4.34551,-0.92656 a 8.4316075,8.4316075 0 0 1 0.65785,2.77966 28.973227,28.973227 0 0 0 0.99142,3.56722 z"
     fill="#ff8d2c"
     id="path118"
     style="stroke-width:0.92655" />
  <path
     d="m 219.54051,147.59458 a 33.031517,33.031517 0 0 0 6.72675,10.57193 c 0.12046,0.13899 0.25943,0.32431 0.19458,0.50034 a 0.50960265,0.50960265 0 0 1 -0.2687,0.23163 21.699808,21.699808 0 0 1 -5.29988,2.01062 1.621463,1.621463 0 0 1 -0.6671,0.0556 1.5566043,1.5566043 0 0 1 -0.88022,-0.79682 q -2.34419,-3.61356 -4.34554,-7.4124 a 17.150445,17.150445 0 0 1 -2.32562,-6.97691 5.9391872,5.9391872 0 0 1 0.87095,-3.6043 c 0.78755,-1.1582 3.30778,-2.4739 4.34551,-0.92656 a 8.4316075,8.4316075 0 0 1 0.65785,2.77966 28.973227,28.973227 0 0 0 0.99142,3.56722 z"
     fill="url(#linear-gradient-7)"
     id="path120"
     style="fill:url(#linear-gradient-7);stroke-width:0.92655" />
  <path
     d="m 183.08076,154.3028 a 2.177393,2.177393 0 0 0 0.29649,0.92654 27.954022,27.954022 0 0 0 2.01061,3.60429 14.954522,14.954522 0 0 0 8.44088,5.86507 14.38006,14.38006 0 0 0 4.16947,0.47253 3.6042806,3.6042806 0 0 0 1.49176,-0.29649 4.1046177,4.1046177 0 0 0 1.54733,-1.70485 c 2.06621,-3.4375 4.08609,-7.06958 6.89352,-9.84923 a 16.529657,16.529657 0 0 1 3.16881,-2.50168 c 1.65853,-1.00994 3.53016,-1.6956 4.95705,-3.00203 a 7.8942083,7.8942083 0 0 0 2.4646,-6.1245 c -0.12042,-2.50168 -1.42686,-5.5593 -3.97488,-6.27273 a 15.751354,15.751354 0 0 0 -9.0524,0.35207 35.699982,35.699982 0 0 0 -9.00606,4.76248 c -1.13041,0.75977 -2.24225,1.52879 -3.29853,2.38123 a 56.352786,56.352786 0 0 0 -6.78235,7.00473 l -2.6592,3.09468 a 2.1032692,2.1032692 0 0 0 -0.6671,1.28789 z"
     fill="#ff8d2c"
     id="path122"
     style="stroke-width:0.92655" />
  <path
     d="m 193.82874,164.6987 a 14.38006,14.38006 0 0 0 4.16947,0.47253 3.6042806,3.6042806 0 0 0 1.49176,-0.29649 4.1046177,4.1046177 0 0 0 1.54733,-1.70485 c 2.06621,-3.4375 4.08609,-7.06958 6.89352,-9.84923 -0.12044,-0.66711 -0.30575,-1.32498 -0.49107,-1.97355 -0.41694,-1.49175 -0.70417,-4.03976 -2.17739,-4.92926 a 54.175394,54.175394 0 0 1 -2.38123,5.09604 c -0.86169,1.64926 -2.0384,3.17807 -2.85377,4.83658 a 33.754225,33.754225 0 0 1 -5.79094,7.82935 3.706201,3.706201 0 0 0 -0.40768,0.51888 z"
     fill="url(#linear-gradient-8)"
     id="path124"
     style="fill:url(#linear-gradient-8);stroke-width:0.92655" />
  <path
     d="m 214.56493,160.39024 a 0.81536423,0.81536423 0 0 1 0,0.59299 0.75050571,0.75050571 0 0 1 -0.46327,0.32429 15.167628,15.167628 0 0 1 -5.49445,0.85244 0.87095727,0.87095727 0 0 1 -0.54667,-0.12973 0.92655027,0.92655027 0 0 1 -0.32429,-0.55593 c -0.92654,-2.8445 -1.76972,-5.68902 -2.62215,-8.5428 a 17.400612,17.400612 0 0 1 -1.00066,-5.37398 16.622312,16.622312 0 0 1 0.92654,-4.55863 c 1.40836,-4.46597 6.0133,-3.57647 6.48586,0.73197 0.66711,5.79094 1.0748,11.1464 3.03909,16.65938 z"
     fill="#ff8d2c"
     id="path126"
     style="stroke-width:0.92655" />
  <path
     d="m 198.93403,212.1288 a 0.7319747,0.7319747 0 0 1 1.3157,-0.61152 13.675883,13.675883 0 0 0 2.04766,1.34349 3.354112,3.354112 0 0 0 2.37199,0.29649 2.3904996,2.3904996 0 0 1 1.36201,-0.25943 1.8531006,1.8531006 0 0 1 0.57446,0.38915 7.5884467,7.5884467 0 0 0 2.02917,1.27864 1.9920831,1.9920831 0 0 1 0.84314,0.51887 0.42621313,0.42621313 0 0 1 0.12046,0.2687 c 0,0.25017 -0.31502,0.36136 -0.55593,0.39843 -2.6314,0.37061 -5.23502,-0.61153 -7.73669,-1.49175 a 3.1502709,3.1502709 0 0 0 -0.87097,-0.2131 c -0.44475,0 -1.00993,0.0741 -1.29717,-0.36135 a 3.1873329,3.1873329 0 0 1 -0.20383,-1.55662 z"
     fill="#473f47"
     id="path128"
     style="stroke-width:0.92655" />
  <path
     d="m 174.56575,213.37038 a 0.92655027,0.92655027 0 0 1 0.42622,-0.80611 c 0.33356,-0.13898 0.69491,0.12047 0.92655,0.36136 a 15.149096,15.149096 0 0 0 1.8531,1.59367 3.3911739,3.3911739 0 0 0 2.32564,0.58374 2.3534378,2.3534378 0 0 1 1.38057,-0.0834 1.6307285,1.6307285 0 0 1 0.51886,0.45403 7.6903673,7.6903673 0 0 0 1.85309,1.51954 2.0291451,2.0291451 0 0 1 0.77831,0.62077 0.45400963,0.45400963 0 0 1 0.0834,0.28724 c 0,0.24092 -0.35208,0.31504 -0.60225,0.31504 -2.64993,0.0463 -5.11456,-1.25084 -7.48653,-2.43684 a 3.0946778,3.0946778 0 0 0 -0.84316,-0.31502 c -0.43549,-0.0834 -1.00995,-0.0556 -1.24158,-0.51887 a 3.2336604,3.2336604 0 0 1 0.0277,-1.57513 z"
     fill="#473f47"
     id="path130"
     style="stroke-width:0.92655" />
  <path
     d="m 226.93438,139.32975 c -0.53741,0.41695 -1.08407,0.83389 -1.60294,1.27864 a 19.290777,19.290777 0 0 1 -2.31637,1.93649 3.446767,3.446767 0 0 1 -2.87232,0.52815 1.9642866,1.9642866 0 0 1 -1.30643,-2.37198 c -0.53739,-0.22237 -1.11186,0.24089 -1.44542,0.72271 -0.33355,0.48181 -0.65784,1.05626 -1.22303,1.20451 -0.80613,0.21311 -1.51028,-0.60227 -1.85311,-1.38057 a 6.485852,6.485852 0 0 1 1.60293,-7.00471 c 2.00135,-1.8531 3.81739,-4.43819 6.37467,-5.43884 a 7.2734197,7.2734197 0 0 1 2.77965,-0.41696 5.2628053,5.2628053 0 0 1 2.48315,0.58373 6.6063034,6.6063034 0 0 1 1.38983,1.14892 c 1.8531,1.79752 3.34484,3.32631 1.68632,5.70755 a 16.58525,16.58525 0 0 1 -3.69693,3.50236 z"
     fill="#fcbdba"
     id="path132"
     style="stroke-width:0.92655" />
  <path
     d="m 227.10114,133.67778 c -0.32426,-0.23163 -0.6393,-0.56518 -1.03772,-0.55592 -0.39842,0.009 -0.75051,0.41696 -1.13966,0.61153 -0.79683,0.39841 -1.72339,-0.12047 -2.60361,-0.25017 a 2.9278988,2.9278988 0 0 0 -2.77964,1.28792 1.8531006,1.8531006 0 0 0 0.37061,-0.92657 c 0,-0.35208 -0.30575,-0.71343 -0.64859,-0.65787 a 0.81536423,0.81536423 0 0 0 -0.40768,0.26873 2.0106141,2.0106141 0 0 0 -0.38914,1.90869 2.9649608,2.9649608 0 0 1 -3.18733,-0.19458 1.2971705,1.2971705 0 0 1 -0.55593,-1.58439 c 0.53738,-1.94577 2.55728,-3.00203 3.91003,-4.49379 a 8.218501,8.218501 0 0 1 1.49173,-1.51027 4.3733173,4.3733173 0 0 1 1.46397,-0.54666 9.0801926,9.0801926 0 0 1 5.09602,0.11118 c 1.55661,0.56519 4.02123,2.57582 4.2992,4.31773 0.28724,1.96429 -2.30709,3.34485 -3.88226,2.21444 z"
     fill="#473f47"
     id="path134"
     style="stroke-width:0.92655" />
  <rect
     x="-72.098572"
     y="142.80434"
     width="45.465824"
     height="128.4106"
     fill="#ff8d2c"
     id="rect136"
     transform="scale(-1,1)"
     style="stroke-width:0.92655" />
  <rect
     x="-144.16562"
     y="185.00871"
     width="45.465824"
     height="86.206245"
     fill="#ff8d2c"
     id="rect138"
     transform="scale(-1,1)"
     style="stroke-width:0.92655" />
  <rect
     x="-212.51727"
     y="214.71391"
     width="45.465824"
     height="56.501034"
     fill="#ff8d2c"
     id="rect140"
     transform="scale(-1,1)"
     style="stroke-width:0.92655" />
</svg>
