<svg xmlns="http://www.w3.org/2000/svg" xmlns:xlink="http://www.w3.org/1999/xlink" width="371" height="241" viewBox="0 0 371 241">
  <defs>
    <filter id="長方形_17" x="0" y="0" width="371" height="241" filterUnits="userSpaceOnUse">
      <feOffset dy="3" input="SourceAlpha"/>
      <feGaussianBlur stdDeviation="3" result="blur"/>
      <feFlood flood-opacity="0.161"/>
      <feComposite operator="in" in2="blur"/>
      <feComposite in="SourceGraphic"/>
    </filter>
  </defs>
  <g id="グループ_477" data-name="グループ 477" transform="translate(-492 -230)">
    <g transform="matrix(1, 0, 0, 1, 492, 230)" filter="url(#長方形_17)">
      <rect id="長方形_17-2" data-name="長方形 17" width="353" height="223" transform="translate(9 6)" fill="#fff"/>
    </g>
    <g id="グループ_388" data-name="グループ 388" transform="translate(602.298 284.022)">
      <rect id="長方形_150" data-name="長方形 150" width="46.796" height="28.286" transform="translate(74.608 28.191)" fill="#21a365"/>
      <rect id="長方形_151" data-name="長方形 151" width="46.796" height="28.286" transform="translate(74.608 56.478)" fill="#107c41"/>
      <rect id="長方形_152" data-name="長方形 152" width="46.701" height="28.286" transform="translate(27.907 28.191)" fill="#107c41"/>
      <path id="パス_31" data-name="パス 31" d="M211.089,80.321V52.036H164.483v50.971a5.509,5.509,0,0,0,5.506,5.506h82.3a5.509,5.509,0,0,0,5.506-5.506V80.321Z" transform="translate(-136.481 4.442)" fill="#185b37"/>
      <path id="パス_32" data-name="パス 32" d="M247.971.8H206.68V29.082h46.891V6.3A5.654,5.654,0,0,0,247.971.8Z" transform="translate(-132.167 -0.796)" fill="#33c481"/>
      <path id="パス_33" data-name="パス 33" d="M211.08.8H170.075A5.509,5.509,0,0,0,164.569,6.3V28.988h46.605V.8Z" transform="translate(-136.472 -0.796)" fill="#21a365"/>
      <path id="パス_34" data-name="パス 34" d="M195.461,85.745H145.153a6.118,6.118,0,0,1-6.075-6.074V30.122a6.118,6.118,0,0,1,6.075-6.074h50.308a6.117,6.117,0,0,1,6.074,6.074V79.671A6.055,6.055,0,0,1,195.461,85.745Z" transform="translate(-139.078 1.581)" fill="#17864c"/>
      <g id="グループ_31" data-name="グループ 31" transform="translate(17.371 39.866)">
        <path id="パス_35" data-name="パス 35" d="M175.816,71.041l-3.7-6.739c-1.519-2.659-2.468-4.462-3.512-6.455h-.095c-.854,1.993-1.708,3.8-3.133,6.455l-3.322,6.739h-7.214l10.251-17.18-9.966-16.9h7.309l3.7,7.025c1.139,2.088,1.993,3.8,2.847,5.7h.19c.95-2.089,1.614-3.608,2.753-5.7l3.7-7.025h7.214L172.683,53.577l10.536,17.465Z" transform="translate(-154.838 -36.965)" fill="#fff"/>
      </g>
      <path id="パス_36" data-name="パス 36" d="M199.628,29.042V79.16a6.117,6.117,0,0,1-6.074,6.074H165.172v5.411h33.412a6.117,6.117,0,0,0,6.074-6.074V35.023A5.88,5.88,0,0,0,199.628,29.042Z" transform="translate(-136.41 2.092)" opacity="0.2" style="isolation: isolate"/>
    </g>
    <text id="Excel" transform="translate(641 429)" fill="#707070" font-size="26" font-family="Meiryo-Bold, Meiryo" font-weight="700"><tspan x="0" y="0">Excel</tspan></text>
    <text id="従来から使用している" transform="translate(622 267)" fill="#343434" font-size="11" font-family="Meiryo-Bold, Meiryo" font-weight="700"><tspan x="0" y="0">従来から使用している</tspan></text>
  </g>
</svg>
