<svg xmlns="http://www.w3.org/2000/svg" xmlns:xlink="http://www.w3.org/1999/xlink" width="372" height="241" viewBox="0 0 372 241">
  <defs>
    <filter id="長方形_20" x="0" y="0" width="372" height="241" filterUnits="userSpaceOnUse">
      <feOffset dy="3" input="SourceAlpha"/>
      <feGaussianBlur stdDeviation="3" result="blur"/>
      <feFlood flood-opacity="0.161"/>
      <feComposite operator="in" in2="blur"/>
      <feComposite in="SourceGraphic"/>
    </filter>
    <filter id="パス_30" x="300.984" y="136.604" width="52.576" height="71.643" filterUnits="userSpaceOnUse">
      <feOffset dy="3" input="SourceAlpha"/>
      <feGaussianBlur stdDeviation="3" result="blur-2"/>
      <feFlood flood-opacity="0.161"/>
      <feComposite operator="in" in2="blur-2"/>
      <feComposite in="SourceGraphic"/>
    </filter>
  </defs>
  <g id="グループ_496" data-name="グループ 496" transform="translate(-1053 -223)">
    <g transform="matrix(1, 0, 0, 1, 1053, 223)" filter="url(#長方形_20)">
      <rect id="長方形_20-2" data-name="長方形 20" width="354" height="223" transform="translate(9 6)" fill="#fff"/>
    </g>
    <g id="グループ_366" data-name="グループ 366" transform="translate(0 -5217)">
      <g transform="matrix(1, 0, 0, 1, 1053, 5440)" filter="url(#パス_30)">
        <path id="パス_30-2" data-name="パス 30" d="M60.09,87.472h5.494v23.049a3.409,3.409,0,0,0,3.4,3.4h8.8a3.411,3.411,0,0,0,3.4-3.4V87.472h5.492c3.561,0,5.016-2.216,3.239-4.93L76.614,62.31c-1.773-2.712-4.684-2.712-6.463,0l-13.3,20.232C55.084,85.256,56.531,87.472,60.09,87.472Z" transform="translate(253.89 82.33)" fill="#ffb56c"/>
      </g>
      <path id="パス_1681" data-name="パス 1681" d="M4.964,1.021H2.706v-7.23q-.515.772-1.229,1.644L.066-5.844A24.242,24.242,0,0,0,2.187-9.293a23.012,23.012,0,0,0,2-4.968l2.291.44A20.307,20.307,0,0,1,4.582-9.363h.382ZM11.9.855H9.6V-9.82h-.6a20.4,20.4,0,0,1-2.424,4.4L5-6.641A24.143,24.143,0,0,0,8.01-14.194l2.241.34a22.586,22.586,0,0,1-.589,2.191h6.9V-9.82H11.9v1.61h4.009v1.751H11.9v1.7h4.109v1.818H11.9ZM24.3-1.893A19.31,19.31,0,0,1,17.813.681l-.606-1.66a20.728,20.728,0,0,0,5.1-1.843H17.764V-4.4H24.3v-.78H18.635V-6.657H24.3v-.78H18.378V-9.023h3.1l-.374-.955H17.988v-1.594h1.876L19.025-13.5l1.984-.49,1.063,2.416h.755v-2.64h2.009v2.64H26.1v-2.64h1.984v2.64h.855L29.991-14l2.075.49-1.021,1.942h2v1.594H29.833l-.573.955h3.412v1.585H26.538v.78h5.711V-5.18H26.538v.78h6.616v1.577H28.629a22.074,22.074,0,0,0,5.1,1.668L32.863.7a17.984,17.984,0,0,1-6.325-2.731V.938H24.3ZM23.25-9.978l.382.955H27.1l.5-.955Zm19.847-.54H34.7v-1.751h3.387v-1.785h2.125v1.785H43.1ZM46.725-8.84a15,15,0,0,1-1.187,5.562A15.32,15.32,0,0,1,42.517.888L41.022-.457a13.358,13.358,0,0,0,2.569-3.652A12.585,12.585,0,0,0,44.6-8.84H43.131v-1.851h1.461v-3.345H46.8v3.345h3.129V-5.42q0,1.436-.145,2.918a9.459,9.459,0,0,1-.34,2.009,1.882,1.882,0,0,1-.73.9,2.174,2.174,0,0,1-1.266.369H45.455l-.266-1.959h1.32a.988.988,0,0,0,.718-.261,3.182,3.182,0,0,0,.411-1.59,27.44,27.44,0,0,0,.141-2.889L47.771-8.84Zm-2.789,1.1L42.417-6.483a11.508,11.508,0,0,1-1.66-1.473A9.212,9.212,0,0,1,39.4-9.679l1.851-.772A11.473,11.473,0,0,0,43.936-7.736Zm-5.213-2a11.006,11.006,0,0,1-3.2,3.586L34.149-7.338a10.052,10.052,0,0,0,2.772-3.1Zm3.063,2.806a17.781,17.781,0,0,1-1.27,2.582q1.295,1.237,1.71,1.735L40.715-1.154Q40.2-1.727,39.3-2.665A16.72,16.72,0,0,1,35.345.872L34.208-.623a16.62,16.62,0,0,0,1.93-1.631,15.143,15.143,0,0,0,1.7-1.88,23.645,23.645,0,0,0-1.793-1.66l1.27-1.428q.407.291,1.627,1.4a18,18,0,0,0,.805-1.826Zm14.958.6a6.8,6.8,0,0,1-.9.664q.647-.017,1.137-.042.581-.623,1.212-1.378a25.571,25.571,0,0,0-2.424-2.357l1.2-1.229q.083.066.357.307.423-.556.764-1.087h-6.1v-1.718h6.25v-1.121h2.382v1.121h6.292v1.718H65.468l1.328.872a19.816,19.816,0,0,1-1.519,1.507A17.924,17.924,0,0,1,63.6-7.662L62.322-8.973a17.571,17.571,0,0,0,2.44-2.482H60.181a23.707,23.707,0,0,1-1.644,2.183l.805.747a22.564,22.564,0,0,0,1.552-2.266l1.735.863a24.717,24.717,0,0,1-2.241,2.814l1.544-.6a12.533,12.533,0,0,1,.755,1.345l1.253-1.312q.365.208,1.693,1.208T67.3-5.146L65.908-3.553l-3.08-2.54q.481.938.855,1.743l-1.8.548q-.075-.208-.324-.8-.432.058-.988.116v1.2H67.2v1.818H60.571V.955H58.188V-1.461H51.7V-3.279h6.491v-.988q-1.245.091-2.391.158l-.133-1.436a19.877,19.877,0,0,1-3.121,1.71l-.8-1.81A15.052,15.052,0,0,0,53.98-6.711a14.862,14.862,0,0,0,1.951-1.224Zm2.507.473q.805-.066,1.685-.174-.274-.589-.556-1.071Q59.757-6.4,59.251-5.86Zm-3.287-3L54.453-7.429a27.048,27.048,0,0,0-2.532-2.631l1.428-1.295q.3.224,1.278,1.158T55.964-8.857ZM16.113,22.422H13.5v4.614H9.644V22.422H.757V19.188L9.473,8.6H13.5V19.59h2.612ZM9.644,19.59V12.376L3.687,19.59Zm11.9-2v-.073a4.668,4.668,0,0,1-3.052-4.358,4.241,4.241,0,0,1,1.9-3.564,8.286,8.286,0,0,1,5-1.392,8.749,8.749,0,0,1,5.029,1.276,3.928,3.928,0,0,1,1.855,3.387q0,2.759-3.235,4.175v.073q3.711,1.453,3.711,4.773a4.8,4.8,0,0,1-2.032,4,8.665,8.665,0,0,1-5.365,1.538,8.85,8.85,0,0,1-5.4-1.471,4.631,4.631,0,0,1-1.971-3.9Q17.993,19.053,21.545,17.588Zm6.812-4.358a2.039,2.039,0,0,0-.818-1.7A3.386,3.386,0,0,0,25.4,10.9a3.565,3.565,0,0,0-2.075.574,1.761,1.761,0,0,0-.83,1.514,2.059,2.059,0,0,0,.891,1.636,11.85,11.85,0,0,0,3.552,1.514A3.767,3.767,0,0,0,28.357,13.23Zm-4.651,5.237a3.793,3.793,0,0,0-1.721,3.125,2.854,2.854,0,0,0,1,2.277,3.793,3.793,0,0,0,2.563.861,3.622,3.622,0,0,0,2.271-.7,2.266,2.266,0,0,0,.916-1.9,2.682,2.682,0,0,0-.214-1.117,2.077,2.077,0,0,0-.818-.854,8.337,8.337,0,0,0-1.1-.6Q26.1,19.334,23.706,18.467ZM40.552,19.92q-5.286,0-5.286-5.835t5.286-5.847q5.237,0,5.237,5.811Q45.789,19.92,40.552,19.92Zm-.024-9.387a1.759,1.759,0,0,0-1.581.745,5.52,5.52,0,0,0-.494,2.808,5.479,5.479,0,0,0,.494,2.808,2.061,2.061,0,0,0,3.162-.012,5.52,5.52,0,0,0,.494-2.808,5.5,5.5,0,0,0-.494-2.777A1.745,1.745,0,0,0,40.527,10.533ZM55.09,8.6,44.226,27H41.3L52.161,8.6Zm.793,18.762q-5.286,0-5.286-5.835t5.286-5.847q5.237,0,5.237,5.811Q61.121,27.366,55.884,27.366Zm-.024-9.387a1.759,1.759,0,0,0-1.581.745,5.52,5.52,0,0,0-.494,2.808,5.479,5.479,0,0,0,.494,2.808,2.061,2.061,0,0,0,3.162-.012,5.52,5.52,0,0,0,.494-2.808,5.5,5.5,0,0,0-.494-2.777A1.745,1.745,0,0,0,55.859,17.979Zm24.109,2.136a6.932,6.932,0,0,1-2.032,5.444,8.419,8.419,0,0,1-5.8,1.819,8.336,8.336,0,0,1-5.8-1.837,6.966,6.966,0,0,1-2.02-5.426V8.6h4.041v11.4a4.832,4.832,0,0,0,.94,3.32,4.51,4.51,0,0,0,5.719.006,4.852,4.852,0,0,0,.922-3.3V8.6h4.041Zm8.167.623V27H84.106V8.6h6.958A8.653,8.653,0,0,1,96.5,10.063a5.1,5.1,0,0,1,1.855,4.266A5.81,5.81,0,0,1,96.3,19a7.982,7.982,0,0,1-5.347,1.74ZM88.11,11.5V17.82h1.074q3.027,0,4.01-.836a3.189,3.189,0,0,0,.983-2.57,2.6,2.6,0,0,0-.946-2.173q-.946-.745-3.741-.745Z" transform="translate(1267 5608)" fill="#ffb56c"/>
    </g>
    <path id="Icon_open-plus" data-name="Icon open-plus" d="M13.5,0V13.5H0v9H13.5V36h9V22.5H36v-9H22.5V0Z" transform="translate(1099 263)" fill="#3e3e3e"/>
    <text id="数学_三角関数_論理関数_検索_行列関数" data-name="数学/三角関数
論理関数
検索/行列関数" transform="translate(1163 292)" fill="#ffacac" font-size="22" font-family="HiraginoSans-W6, Hiragino Sans" letter-spacing="0.117em"><tspan x="0" y="0">数学</tspan><tspan y="0" font-family="Arial-BoldMT, Arial" font-weight="700">/</tspan><tspan y="0">三角関数</tspan><tspan y="0" font-family="Arial-BoldMT, Arial" font-weight="700"></tspan><tspan x="0" y="38">論理関数</tspan><tspan y="38" font-family="Arial-BoldMT, Arial" font-weight="700"></tspan><tspan x="0" y="76">検索</tspan><tspan y="76" font-family="Arial-BoldMT, Arial" font-weight="700">/</tspan><tspan y="76">行列関数</tspan></text>
  </g>
</svg>
