<svg xmlns="http://www.w3.org/2000/svg" width="471.971" height="420.9" viewBox="0 0 471.971 420.9">
  <g id="Time_management-amico" data-name="Time management-amico" transform="translate(0 -12.113)">
    <g id="freepik--Floor--inject-1--inject-95" transform="translate(0 156.293)">
      <ellipse id="freepik--floor--inject-1--inject-95-2" data-name="freepik--floor--inject-1--inject-95" cx="235.985" cy="138.36" rx="235.985" ry="138.36" fill="#f5f5f5"/>
    </g>
    <g id="freepik--Shadows--inject-1--inject-95" transform="translate(36.672 171.506)">
      <path id="freepik--Shadow--inject-1--inject-95" d="M384.75,421.53l-71.39,41.22a3.83,3.83,0,0,1-3.46,0l-96.35-55.63c-1-.55-1-1.44,0-2l71.39-41.21a3.79,3.79,0,0,1,3.47,0l96.34,55.62a1.05,1.05,0,0,1,0,2Z" transform="translate(-147.358 -221.272)" fill="#e0e0e0"/>
      <path id="freepik--shadow--inject-1--inject-95-2" data-name="freepik--shadow--inject-1--inject-95" d="M451.342,331.87l-54.42,31.4a3.83,3.83,0,0,1-3.46,0l-76.42-44c-1-.55-1-1.44,0-2l54.41-31.39a3.79,3.79,0,0,1,3.47,0l76.42,43.99a1.06,1.06,0,0,1,0,2Z" transform="translate(-315.364 -221.272)" fill="#e0e0e0"/>
      <path id="freepik--shadow--inject-1--inject-95-3" data-name="freepik--shadow--inject-1--inject-95" d="M385.308,343.5l4.69-2.71a2.84,2.84,0,0,1,2.86,0l53.75,31.5,6.37,7.5-13.27-3.52-54.4-31.41a.79.79,0,0,1,0-1.36Z" transform="translate(-384.92 -221.272)" fill="#455a64" opacity="0.1"/>
      <path id="freepik--shadow--inject-1--inject-95-4" data-name="freepik--shadow--inject-1--inject-95" d="M233.07,431.44a27.5,27.5,0,0,0,13.73-3.36l.64-.39a2.69,2.69,0,0,0,1.23-2.85,2.94,2.94,0,0,0-2.68-2.23l-13.9-2-.74-1.55,3.33-1.95,13.66,2h.49a3.32,3.32,0,0,0,2.79-5.1,14.07,14.07,0,0,0-5-4.54,27.76,27.76,0,0,0-13.5-3.23,32.079,32.079,0,0,0-5.58.48l-58-33.48a8.49,8.49,0,0,0,.11-4.5c-.72-2.87-2.87-5.4-6.22-7.3a29.78,29.78,0,0,0-27.25.12l-.64.39a2.7,2.7,0,0,0-1.22,2.85,2.94,2.94,0,0,0,2.6,2.2l13.91,2,.74,1.55-3.33,1.95-13.66-2a2.766,2.766,0,0,0-.49,0,3.32,3.32,0,0,0-2.79,5.1,14.089,14.089,0,0,0,5,4.55,27.749,27.749,0,0,0,13.5,3.22,32.08,32.08,0,0,0,5.58-.48l58,33.48a8.53,8.53,0,0,0-.11,4.51c.72,2.87,2.87,5.39,6.22,7.3a27.86,27.86,0,0,0,13.58,3.26Z" transform="translate(65.015 -221.272)" fill="#e0e0e0"/>
      <path id="freepik--shadow--inject-1--inject-95-5" data-name="freepik--shadow--inject-1--inject-95" d="M345.16,316.55,389,291.24a1.25,1.25,0,0,0,0-2.36L272.77,221.76a4.51,4.51,0,0,0-4.08,0l-43.92,25.31a1.25,1.25,0,0,0,0,2.36l116.31,67.12a4.51,4.51,0,0,0,4.08,0Z" transform="translate(-162.663 -221.272)" fill="#e0e0e0"/>
      <path id="freepik--shadow--inject-1--inject-95-6" data-name="freepik--shadow--inject-1--inject-95" d="M172.29,416.49l-129-74.38c-4.78-2.76-4.78-7.24,0-10L86.9,306.93c4.78-2.76,12.54-2.76,17.32,0l129,74.38c4.78,2.77,4.78,7.24,0,10l-43.61,25.18C184.83,419.25,177.07,419.25,172.29,416.49Z" transform="translate(169.139 -221.272)" fill="#e0e0e0"/>
    </g>
    <g id="freepik--Calendar--inject-1--inject-95" transform="translate(122.831 100.173)">
      <g id="freepik--calendar--inject-1--inject-95-2" data-name="freepik--calendar--inject-1--inject-95">
        <g id="freepik--calendar--inject-1--inject-95-3" data-name="freepik--calendar--inject-1--inject-95">
          <path id="パス_1449" data-name="パス 1449" d="M231.731,263.011a1.536,1.536,0,0,1-.65-1.626l15.624-69.16A2.91,2.91,0,0,1,247.9,190.6l92.993-53.65a2.049,2.049,0,0,1,1.845,0,1.553,1.553,0,0,1,.658,1.626L327.741,207.67a2.837,2.837,0,0,1-1.195,1.626l-92.969,53.65A2.049,2.049,0,0,1,231.731,263.011Z" transform="translate(-231.042 -136.673)" fill="#ff8d2c"/>
          <path id="パス_1450" data-name="パス 1450" d="M231.731,263.011a1.536,1.536,0,0,1-.65-1.626l15.624-69.16A2.91,2.91,0,0,1,247.9,190.6l92.993-53.65a2.049,2.049,0,0,1,1.845,0,1.553,1.553,0,0,1,.658,1.626L327.741,207.67a2.837,2.837,0,0,1-1.195,1.626l-92.969,53.65A2.049,2.049,0,0,1,231.731,263.011Z" transform="translate(-231.042 -136.673)" fill="#fff" opacity="0.8"/>
          <path id="パス_1451" data-name="パス 1451" d="M248.906,193.531l-15.624,69.176c-.138.593.187.813.707.528l92.993-53.683a2.837,2.837,0,0,0,1.195-1.626l15.632-69.176c.13-.593-.187-.813-.715-.52L250.117,191.9a2.886,2.886,0,0,0-1.211,1.626Z" transform="translate(-231.455 -136.93)" fill="#ff8d2c"/>
          <path id="パス_1452" data-name="パス 1452" d="M248.906,193.531l-15.624,69.176c-.138.593.187.813.707.528l92.993-53.683a2.837,2.837,0,0,0,1.195-1.626l15.632-69.176c.13-.593-.187-.813-.715-.52L250.117,191.9a2.886,2.886,0,0,0-1.211,1.626Z" transform="translate(-231.455 -136.93)" fill="#fff" opacity="0.6"/>
          <path id="パス_1453" data-name="パス 1453" d="M248.906,193.531l-15.624,69.176c-.138.593.187.813.707.528l92.993-53.683a2.837,2.837,0,0,0,1.195-1.626l15.632-69.176c.13-.593-.187-.813-.715-.52L250.117,191.9a2.886,2.886,0,0,0-1.211,1.626Z" transform="translate(-231.455 -136.93)" opacity="0.05"/>
          <path id="パス_1454" data-name="パス 1454" d="M348.642,138.153a2.04,2.04,0,0,0-1.853.041l-92.977,53.683A1.748,1.748,0,0,0,253,193.5l12.193,85.686a2.52,2.52,0,0,0,1.049,1.626,2.065,2.065,0,0,0,1.853,0l93.018-53.723a1.764,1.764,0,0,0,.813-1.626l-12.193-85.7A2.52,2.52,0,0,0,348.642,138.153Z" transform="translate(-235.149 -136.901)" fill="#ff8d2c"/>
          <path id="パス_1455" data-name="パス 1455" d="M348.642,138.153a2.04,2.04,0,0,0-1.853.041l-92.977,53.683A1.748,1.748,0,0,0,253,193.5l12.193,85.686a2.52,2.52,0,0,0,1.049,1.626,2.065,2.065,0,0,0,1.853,0l93.018-53.723a1.764,1.764,0,0,0,.813-1.626l-12.193-85.7A2.52,2.52,0,0,0,348.642,138.153Z" transform="translate(-235.149 -136.901)" fill="#fff" opacity="0.8"/>
          <path id="パス_1456" data-name="パス 1456" d="M255.208,194.811,267.4,280.5a.7.7,0,0,0,1.114.545l93.01-53.691a1.764,1.764,0,0,0,.813-1.626l-12.193-85.7a.691.691,0,0,0-1.114-.536l-92.985,53.65a1.756,1.756,0,0,0-.837,1.675Z" transform="translate(-235.562 -137.162)" fill="#ff8d2c"/>
          <path id="パス_1457" data-name="パス 1457" d="M255.208,194.811,267.4,280.5a.7.7,0,0,0,1.114.545l93.01-53.691a1.764,1.764,0,0,0,.813-1.626l-12.193-85.7a.691.691,0,0,0-1.114-.536l-92.985,53.65a1.756,1.756,0,0,0-.837,1.675Z" transform="translate(-235.562 -137.162)" fill="#fff" opacity="0.95"/>
          <path id="パス_1458" data-name="パス 1458" d="M257.906,279.016l-10.917,6.3h0a1.626,1.626,0,0,0-.675,0l-12.884,2.479h0L257.2,274Z" transform="translate(-231.489 -162.359)" fill="#ff8d2c"/>
          <path id="パス_1459" data-name="パス 1459" d="M257.906,279.016l-10.917,6.3h0a1.626,1.626,0,0,0-.675,0l-12.884,2.479h0L257.2,274Z" transform="translate(-231.489 -162.359)" fill="#fff" opacity="0.5"/>
          <path id="パス_1460" data-name="パス 1460" d="M257.906,279.016l-10.917,6.3h0a1.626,1.626,0,0,0-.675,0l-12.884,2.479h0L257.2,274Z" transform="translate(-231.489 -162.359)" opacity="0.2"/>
          <path id="パス_1461" data-name="パス 1461" d="M264.6,305.15l-13.413-18.078a1.837,1.837,0,0,0-1.016-.634l10.868-6.267Z" transform="translate(-234.621 -163.513)" fill="#ff8d2c"/>
          <path id="パス_1462" data-name="パス 1462" d="M264.6,305.15l-13.413-18.078a1.837,1.837,0,0,0-1.016-.634l10.868-6.267Z" transform="translate(-234.621 -163.513)" fill="#fff" opacity="0.6"/>
          <path id="パス_1463" data-name="パス 1463" d="M264.6,305.15l-13.413-18.078a1.837,1.837,0,0,0-1.016-.634l10.868-6.267Z" transform="translate(-234.621 -163.513)" opacity="0.1"/>
          <path id="パス_1464" data-name="パス 1464" d="M260.683,307.424l-13.006-16.867a2.105,2.105,0,0,0-1.764-.715L233.769,291.6a3.576,3.576,0,0,1-1.983-.358c-.5-.285-.415-.61.187-.724l13.949-2.691a1.9,1.9,0,0,1,1.74.683l14.8,19.932c.358.5.252.658-.244.374A6.5,6.5,0,0,1,260.683,307.424Z" transform="translate(-231.12 -164.943)" fill="#ff8d2c"/>
          <path id="パス_1465" data-name="パス 1465" d="M260.683,307.424l-13.006-16.867a2.105,2.105,0,0,0-1.764-.715L233.769,291.6a3.576,3.576,0,0,1-1.983-.358c-.5-.285-.415-.61.187-.724l13.949-2.691a1.9,1.9,0,0,1,1.74.683l14.8,19.932c.358.5.252.658-.244.374A6.5,6.5,0,0,1,260.683,307.424Z" transform="translate(-231.12 -164.943)" fill="#fff" opacity="0.8"/>
          <path id="パス_1466" data-name="パス 1466" d="M346.519,138.131a1.512,1.512,0,0,0-.675-1.252,2.065,2.065,0,0,0-1.853,0L251,190.586a2.934,2.934,0,0,0-1.195,1.626l-2.2,9.755L249.388,203l94.9-54.788,2.211-9.755a1.729,1.729,0,0,0,0-.341Z" transform="translate(-234.14 -136.66)" fill="#ff8d2c"/>
          <path id="パス_1467" data-name="パス 1467" d="M346.909,138.741c.13-.593-.187-.813-.715-.52L253.216,191.9a2.886,2.886,0,0,0-1.2,1.626l-2.2,9.755,94.9-54.788Z" transform="translate(-234.554 -136.928)" opacity="0.6"/>
          <path id="パス_1468" data-name="パス 1468" d="M252.063,204.889a2.544,2.544,0,0,0-.463.943l-2.211,9.755-1.788-1.049,2.2-9.755a2.634,2.634,0,0,1,.471-.943Z" transform="translate(-234.14 -149.231)" opacity="0.5"/>
          <path id="パス_1469" data-name="パス 1469" d="M347.137,138.144c-.041-.333-.333-.423-.74-.179L253.42,191.648a2.5,2.5,0,0,0-.732.683L250.9,191.3a2.585,2.585,0,0,1,.723-.683l92.985-53.666a2.065,2.065,0,0,1,1.853,0,1.512,1.512,0,0,1,.675,1.195Z" transform="translate(-234.758 -136.673)" opacity="0.2"/>
          <path id="パス_1470" data-name="パス 1470" d="M349.805,140.593h0l-.114-.813v-.122h0a2.544,2.544,0,0,0-1.016-1.455,2.04,2.04,0,0,0-1.853.041l-93.01,53.642a1.626,1.626,0,0,0-.642.732h0a1.626,1.626,0,0,0-.163.91l1.756,12.274,1.788,1.04,94.9-54.788Z" transform="translate(-235.15 -136.911)" fill="#ff8d2c"/>
          <path id="パス_1471" data-name="パス 1471" d="M351.859,152.314l-94.9,54.788-1.748-12.283a1.626,1.626,0,0,1,.154-.91,1.764,1.764,0,0,1,.642-.732L349,139.527a.675.675,0,0,1,1.065.35v.13l.114.813h0Z" transform="translate(-235.562 -137.17)" opacity="0.4"/>
          <path id="パス_1472" data-name="パス 1472" d="M256.542,219.415l-1.788-1.04L253,206.1a1.626,1.626,0,0,1,.163-.91l1.8,1.032a1.626,1.626,0,0,0-.163.91Z" transform="translate(-235.148 -149.483)" opacity="0.5"/>
          <path id="パス_1473" data-name="パス 1473" d="M349.7,139.618a.675.675,0,0,0-1.073-.382l-92.993,53.65a1.626,1.626,0,0,0-.634.732l-1.8-1.032a1.626,1.626,0,0,1,.642-.732l92.985-53.65a2.04,2.04,0,0,1,1.853-.041,2.439,2.439,0,0,1,1.016,1.455Z" transform="translate(-235.188 -136.903)" opacity="0.3"/>
          <g id="グループ_334" data-name="グループ 334" transform="translate(28.165 11.127)" opacity="0.2">
            <path id="パス_1474" data-name="パス 1474" d="M265.7,206.962a3.2,3.2,0,0,1,1.512-2.943c.992-.569,1.91-.179,2.065.878a3.2,3.2,0,0,1-1.52,2.943,1.252,1.252,0,0,1-2.057-.878Z" transform="translate(-265.691 -160.343)"/>
            <path id="パス_1475" data-name="パス 1475" d="M281.128,198.062a3.178,3.178,0,0,1,1.52-2.943,1.252,1.252,0,0,1,2.057.87,3.2,3.2,0,0,1-1.512,2.951C282.2,199.509,281.274,199.118,281.128,198.062Z" transform="translate(-268.578 -158.676)"/>
            <path id="パス_1476" data-name="パス 1476" d="M296.538,189.162a3.186,3.186,0,0,1,1.512-2.943c.992-.569,1.91-.179,2.065.878a3.252,3.252,0,0,1-1.52,2.943C297.611,190.609,296.685,190.219,296.538,189.162Z" transform="translate(-271.462 -157.012)"/>
            <path id="パス_1477" data-name="パス 1477" d="M327.368,171.362a3.187,3.187,0,0,1,1.512-2.943c.992-.569,1.91-.179,2.065.878a3.2,3.2,0,0,1-1.52,2.943C328.441,172.809,327.514,172.419,327.368,171.362Z" transform="translate(-277.23 -153.681)"/>
            <path id="パス_1478" data-name="パス 1478" d="M342.8,162.452a3.178,3.178,0,0,1,1.52-2.943c.984-.569,1.91-.179,2.057.878a3.186,3.186,0,0,1-1.512,2.943A1.255,1.255,0,0,1,342.8,162.452Z" transform="translate(-280.118 -152.014)"/>
            <path id="パス_1479" data-name="パス 1479" d="M358.208,153.552a3.2,3.2,0,0,1,1.512-2.943c.992-.569,1.91-.179,2.065.878a3.2,3.2,0,0,1-1.52,2.943C359.281,155,358.355,154.609,358.208,153.552Z" transform="translate(-283.001 -150.348)"/>
          </g>
          <path id="パス_1480" data-name="パス 1480" d="M267.908,200.946a5.882,5.882,0,0,1-.1,1.081,5.327,5.327,0,0,1-.138.545,3.317,3.317,0,0,1-1.5,2,3.1,3.1,0,0,1-1.585.415h-.439l-.049-.236a2.821,2.821,0,0,1,.236-1.439,1.626,1.626,0,0,0,1-.171,2.081,2.081,0,0,0,.813-1.561.31.31,0,0,0,0-.081,4.969,4.969,0,0,0,0-.528,8.681,8.681,0,0,0-1.675-4.755,9.241,9.241,0,0,0-1.187-1.374,6.73,6.73,0,0,0-1.195-.894,2.439,2.439,0,0,0-2.325-.317,2.374,2.374,0,0,0-.894,2.17,6.506,6.506,0,0,0,.187,1.479l-1.5.87v-.1a8.446,8.446,0,0,1-.333-2.252,3.554,3.554,0,0,1,5.747-3.308,8.242,8.242,0,0,1,1.845,1.488,10.18,10.18,0,0,1,1.13,1.406A10.429,10.429,0,0,1,267.908,200.946Z" transform="translate(-235.939 -146.971)" fill="#37474f"/>
          <path id="パス_1481" data-name="パス 1481" d="M283.339,192.036a5.808,5.808,0,0,1-.1,1.081,4.068,4.068,0,0,1-.13.561,3.349,3.349,0,0,1-1.5,1.983,3.1,3.1,0,0,1-1.585.415h-.431a1.1,1.1,0,0,1-.049-.236,2.739,2.739,0,0,1,.228-1.439,1.626,1.626,0,0,0,1-.171,2.04,2.04,0,0,0,.813-1.561.25.25,0,0,0,0-.073,3.59,3.59,0,0,0,0-.536,9.34,9.34,0,0,0-2.861-6.129,6.446,6.446,0,0,0-1.195-.894,2.439,2.439,0,0,0-2.325-.309,2.365,2.365,0,0,0-.894,2.162,6.5,6.5,0,0,0,.187,1.479l-1.5.87v-.1a8.422,8.422,0,0,1-.325-2.252,3.548,3.548,0,0,1,5.739-3.308,8.242,8.242,0,0,1,1.845,1.488,11.256,11.256,0,0,1,1.13,1.406,10.364,10.364,0,0,1,1.959,5.56Z" transform="translate(-238.828 -145.304)" fill="#37474f"/>
          <path id="パス_1482" data-name="パス 1482" d="M298.739,183.14a6.794,6.794,0,0,1-.089,1.089,4.23,4.23,0,0,1-.138.553,3.251,3.251,0,0,1-1.5,1.983,3.105,3.105,0,0,1-1.585.423,2.563,2.563,0,0,1-.431,0,1.108,1.108,0,0,1-.049-.236,2.739,2.739,0,0,1,.228-1.439,1.528,1.528,0,0,0,.992-.171,2.032,2.032,0,0,0,.813-1.561.229.229,0,0,0,0-.073,3.526,3.526,0,0,0,0-.536,8.722,8.722,0,0,0-1.674-4.747,8.856,8.856,0,0,0-1.187-1.374,6.789,6.789,0,0,0-1.195-.9,2.439,2.439,0,0,0-2.325-.309,2.366,2.366,0,0,0-.894,2.17,6.5,6.5,0,0,0,.187,1.479l-1.512.87v-.106a8.429,8.429,0,0,1-.333-2.244,3.548,3.548,0,0,1,5.739-3.308,8.42,8.42,0,0,1,1.853,1.479,11.261,11.261,0,0,1,1.13,1.406A10.421,10.421,0,0,1,298.739,183.14Z" transform="translate(-241.709 -143.642)" fill="#37474f"/>
          <path id="パス_1483" data-name="パス 1483" d="M329.566,165.366a5.889,5.889,0,0,1-.089,1.081,5.694,5.694,0,0,1-.138.561,3.349,3.349,0,0,1-1.5,1.983,3.129,3.129,0,0,1-1.577.415,2.5,2.5,0,0,1-.431,0,1.264,1.264,0,0,1-.057-.252,2.772,2.772,0,0,1,.219-1.423,1.626,1.626,0,0,0,1.008-.163,2.073,2.073,0,0,0,.853-1.626.122.122,0,0,1,0-.057,5.019,5.019,0,0,0,0-.528,8.747,8.747,0,0,0-1.683-4.772,8.837,8.837,0,0,0-1.195-1.374,6.627,6.627,0,0,0-1.179-.878,2.439,2.439,0,0,0-2.325-.317,2.39,2.39,0,0,0-.886,2.17,6.293,6.293,0,0,0,.179,1.455l-1.439.894v-.081a8.43,8.43,0,0,1-.333-2.244,3.548,3.548,0,0,1,5.739-3.308,7.9,7.9,0,0,1,1.837,1.471,11.453,11.453,0,0,1,1.138,1.406A10.462,10.462,0,0,1,329.566,165.366Z" transform="translate(-247.499 -140.313)" fill="#37474f"/>
          <path id="パス_1484" data-name="パス 1484" d="M345.018,156.449a5.965,5.965,0,0,1-.1,1.089c-.041.2-.081.374-.138.561a3.252,3.252,0,0,1-1.5,1.975,3.1,3.1,0,0,1-1.626.415,3.829,3.829,0,0,1-.431,0,1.34,1.34,0,0,1-.057-.26,2.715,2.715,0,0,1,.219-1.414,1.569,1.569,0,0,0,1.008-.171,2.048,2.048,0,0,0,.854-1.626.122.122,0,0,0,0-.057,4.875,4.875,0,0,0,0-.528,8.641,8.641,0,0,0-1.691-4.763,8.941,8.941,0,0,0-1.187-1.382,6.927,6.927,0,0,0-1.179-.878,2.439,2.439,0,0,0-2.325-.309,2.349,2.349,0,0,0-.894,2.17,6.755,6.755,0,0,0,.179,1.447l-1.5.878v-.081a8.429,8.429,0,0,1-.333-2.244,3.555,3.555,0,0,1,5.739-3.317,8.13,8.13,0,0,1,1.886,1.528h0a11.315,11.315,0,0,1,1.138,1.406A10.421,10.421,0,0,1,345.018,156.449Z" transform="translate(-250.367 -138.639)" fill="#37474f"/>
          <path id="パス_1485" data-name="パス 1485" d="M360.419,147.55a5.97,5.97,0,0,1-.1,1.089,5.342,5.342,0,0,1-.13.545,3.341,3.341,0,0,1-1.5,2,3.154,3.154,0,0,1-1.585.406h-.423a1.345,1.345,0,0,1-.057-.26,2.739,2.739,0,0,1,.22-1.414,1.626,1.626,0,0,0,1.008-.171,2.057,2.057,0,0,0,.813-1.626.106.106,0,0,0,0-.049,3.594,3.594,0,0,0,0-.536,8.657,8.657,0,0,0-1.683-4.763,8.893,8.893,0,0,0-1.195-1.374,6.5,6.5,0,0,0-1.171-.886,2.439,2.439,0,0,0-2.325-.309,2.349,2.349,0,0,0-.894,2.17,6.3,6.3,0,0,0,.179,1.455l-1.512.87v-.081a8.427,8.427,0,0,1-.333-2.244,3.553,3.553,0,0,1,5.739-3.317,8.128,8.128,0,0,1,1.829,1.471,10.194,10.194,0,0,1,1.138,1.414A10.4,10.4,0,0,1,360.419,147.55Z" transform="translate(-253.251 -136.975)" fill="#37474f"/>
          <path id="パス_1486" data-name="パス 1486" d="M259.433,224.507l94.888-54.739-2.057-14.477-94.9,54.747Z" transform="translate(-235.967 -140.146)" fill="#ff8d2c"/>
          <g id="グループ_335" data-name="グループ 335" transform="translate(21.393 15.144)" opacity="0.65">
            <path id="パス_1487" data-name="パス 1487" d="M259.433,224.507l94.888-54.739-2.057-14.477-94.9,54.747Z" transform="translate(-257.36 -155.29)" fill="#fff"/>
          </g>
          <path id="パス_1488" data-name="パス 1488" d="M269.109,243.246c.122.813.862,1.073,1.626.61l7.121-4.064a2.52,2.52,0,0,0,1.236-2.284c-.114-.813-.854-1.073-1.626-.61l-7.121,4.064A2.528,2.528,0,0,0,269.109,243.246Z" transform="translate(-238.165 -155.374)" fill="#ff8d2c"/>
          <path id="パス_1489" data-name="パス 1489" d="M283.889,234.716c.114.813.854,1.073,1.626.61l7.121-4.064a2.512,2.512,0,0,0,1.244-2.284c-.114-.813-.813-1.073-1.626-.61l-7.121,4.064A2.512,2.512,0,0,0,283.889,234.716Z" transform="translate(-240.93 -153.777)" fill="#ff8d2c"/>
          <path id="パス_1490" data-name="パス 1490" d="M298.669,226.186c.114.813.854,1.073,1.626.61l7.121-4.064a2.5,2.5,0,0,0,1.236-2.284c-.114-.813-.853-1.073-1.626-.61L299.9,223.9a2.512,2.512,0,0,0-1.236,2.284Z" transform="translate(-243.696 -152.181)" fill="#ff8d2c"/>
          <path id="パス_1491" data-name="パス 1491" d="M313.44,217.646c.114.813.854,1.073,1.626.61l7.121-4.113a2.5,2.5,0,0,0,1.236-2.276c-.114-.813-.854-1.073-1.626-.618l-7.088,4.113A2.5,2.5,0,0,0,313.44,217.646Z" transform="translate(-246.46 -150.575)" fill="#ff8d2c"/>
          <path id="パス_1492" data-name="パス 1492" d="M328.219,209.108c.114.813.813,1.073,1.626.618l7.121-4.113a2.512,2.512,0,0,0,1.244-2.276c-.114-.813-.854-1.073-1.626-.618l-7.121,4.113A2.5,2.5,0,0,0,328.219,209.108Z" transform="translate(-249.225 -148.979)" fill="#ff8d2c"/>
          <path id="パス_1493" data-name="パス 1493" d="M343,200.577c.114.813.854,1.073,1.626.618l7.121-4.113a2.512,2.512,0,0,0,1.236-2.284c-.114-.813-.854-1.073-1.626-.61l-7.121,4.113A2.5,2.5,0,0,0,343,200.577Z" transform="translate(-251.991 -147.382)" fill="#ff8d2c"/>
          <path id="パス_1494" data-name="パス 1494" d="M357.77,192.056c.114.813.854,1.073,1.626.61l7.121-4.064a2.5,2.5,0,0,0,1.244-2.284c-.114-.813-.813-1.073-1.626-.61l-7.121,4.113A2.5,2.5,0,0,0,357.77,192.056Z" transform="translate(-254.755 -145.795)" fill="#ff8d2c"/>
          <g id="グループ_336" data-name="グループ 336" transform="translate(30.603 46.821)" opacity="0.17">
            <path id="パス_1495" data-name="パス 1495" d="M378.372,235.392a.374.374,0,0,1-.4-.293l-5.8-40.514a.3.3,0,0,1,.317-.325.4.4,0,0,1,.406.293l5.8,40.514a.3.3,0,0,1-.317.325Z" transform="translate(-288.052 -194.259)" fill="#ff8d2c"/>
            <path id="パス_1496" data-name="パス 1496" d="M363.572,243.931a.374.374,0,0,1-.4-.293l-5.8-40.514a.3.3,0,0,1,.317-.325.374.374,0,0,1,.4.293l5.82,40.514a.3.3,0,0,1-.333.325Z" transform="translate(-285.283 -195.857)" fill="#ff8d2c"/>
            <path id="パス_1497" data-name="パス 1497" d="M348.812,252.461a.39.39,0,0,1-.406-.293l-5.8-40.514a.3.3,0,0,1,.309-.325.382.382,0,0,1,.406.293l5.8,40.514a.3.3,0,0,1-.317.325Z" transform="translate(-282.521 -197.453)" fill="#ff8d2c"/>
            <path id="パス_1498" data-name="パス 1498" d="M334.03,261a.39.39,0,0,1-.406-.3l-5.8-40.514a.3.3,0,0,1,.317-.317.382.382,0,0,1,.406.293l5.8,40.514a.3.3,0,0,1-.309.325Z" transform="translate(-279.753 -199.051)" fill="#ff8d2c"/>
            <path id="パス_1499" data-name="パス 1499" d="M319.243,269.531a.382.382,0,0,1-.406-.293L313,228.725a.3.3,0,0,1,.317-.325.39.39,0,0,1,.406.293l5.8,40.514a.3.3,0,0,1-.276.325Z" transform="translate(-276.98 -200.647)" fill="#ff8d2c"/>
            <path id="パス_1500" data-name="パス 1500" d="M304.462,278.071a.382.382,0,0,1-.4-.3l-5.8-40.514a.307.307,0,0,1,.317-.317.374.374,0,0,1,.4.293l5.8,40.514a.3.3,0,0,1-.317.325Z" transform="translate(-274.222 -202.245)" fill="#ff8d2c"/>
            <path id="パス_1501" data-name="パス 1501" d="M289.682,286.6a.39.39,0,0,1-.406-.293l-5.8-40.514a.3.3,0,0,1,.317-.325.374.374,0,0,1,.4.293l5.8,40.514a.3.3,0,0,1-.317.325Z" transform="translate(-271.456 -203.841)" fill="#ff8d2c"/>
            <path id="パス_1502" data-name="パス 1502" d="M274.9,295.132a.382.382,0,0,1-.406-.293l-5.8-40.514a.309.309,0,0,1,.317-.325.39.39,0,0,1,.406.3l5.8,40.514a.3.3,0,0,1-.317.317Z" transform="translate(-268.689 -205.438)" fill="#ff8d2c"/>
            <path id="パス_1503" data-name="パス 1503" d="M270.906,255.9a.382.382,0,0,1-.333-.138.268.268,0,0,1,.065-.423l84.117-48.57a.415.415,0,0,1,.5.1.268.268,0,0,1-.073.423L271.06,255.851a.342.342,0,0,1-.154.049Z" transform="translate(-269.027 -196.592)" fill="#ff8d2c"/>
            <path id="パス_1504" data-name="パス 1504" d="M272.667,268.36a.407.407,0,0,1-.333-.138.268.268,0,0,1,.073-.423l84.109-48.57a.423.423,0,0,1,.512.1.276.276,0,0,1-.073.423l-84.092,48.562A.317.317,0,0,1,272.667,268.36Z" transform="translate(-269.357 -198.923)" fill="#ff8d2c"/>
            <path id="パス_1505" data-name="パス 1505" d="M274.447,280.82a.406.406,0,0,1-.333-.138.276.276,0,0,1,.073-.431L358.3,231.689a.415.415,0,0,1,.5.1.268.268,0,0,1-.073.423l-84.109,48.561A.349.349,0,0,1,274.447,280.82Z" transform="translate(-269.69 -201.255)" fill="#ff8d2c"/>
            <path id="パス_1506" data-name="パス 1506" d="M274.9,283.962a.366.366,0,0,1-.187,0,.333.333,0,0,1-.219-.26l-5.8-40.514a.293.293,0,0,1,.146-.276l84.109-48.561a.415.415,0,0,1,.366,0,.358.358,0,0,1,.219.252l5.8,40.514a.276.276,0,0,1-.138.276l-84.117,48.521A.3.3,0,0,1,274.9,283.962Zm-5.463-40.644,5.69,39.831,83.45-48.179-5.69-39.831Z" transform="translate(-268.689 -194.268)" fill="#ff8d2c"/>
          </g>
          <g id="グループ_337" data-name="グループ 337" transform="translate(30.603 46.821)" opacity="0.17">
            <path id="パス_1507" data-name="パス 1507" d="M378.372,235.392a.374.374,0,0,1-.4-.293l-5.8-40.514a.3.3,0,0,1,.317-.325.4.4,0,0,1,.406.293l5.8,40.514a.3.3,0,0,1-.317.325Z" transform="translate(-288.052 -194.259)"/>
            <path id="パス_1508" data-name="パス 1508" d="M363.572,243.931a.374.374,0,0,1-.4-.293l-5.8-40.514a.3.3,0,0,1,.317-.325.374.374,0,0,1,.4.293l5.82,40.514a.3.3,0,0,1-.333.325Z" transform="translate(-285.283 -195.857)"/>
            <path id="パス_1509" data-name="パス 1509" d="M348.812,252.461a.39.39,0,0,1-.406-.293l-5.8-40.514a.3.3,0,0,1,.309-.325.382.382,0,0,1,.406.293l5.8,40.514a.3.3,0,0,1-.317.325Z" transform="translate(-282.521 -197.453)"/>
            <path id="パス_1510" data-name="パス 1510" d="M334.03,261a.39.39,0,0,1-.406-.3l-5.8-40.514a.3.3,0,0,1,.317-.317.382.382,0,0,1,.406.293l5.8,40.514a.3.3,0,0,1-.309.325Z" transform="translate(-279.753 -199.051)"/>
            <path id="パス_1511" data-name="パス 1511" d="M319.243,269.531a.382.382,0,0,1-.406-.293L313,228.725a.3.3,0,0,1,.317-.325.39.39,0,0,1,.406.293l5.8,40.514a.3.3,0,0,1-.276.325Z" transform="translate(-276.98 -200.647)"/>
            <path id="パス_1512" data-name="パス 1512" d="M304.462,278.071a.382.382,0,0,1-.4-.3l-5.8-40.514a.307.307,0,0,1,.317-.317.374.374,0,0,1,.4.293l5.8,40.514a.3.3,0,0,1-.317.325Z" transform="translate(-274.222 -202.245)"/>
            <path id="パス_1513" data-name="パス 1513" d="M289.682,286.6a.39.39,0,0,1-.406-.293l-5.8-40.514a.3.3,0,0,1,.317-.325.374.374,0,0,1,.4.293l5.8,40.514a.3.3,0,0,1-.317.325Z" transform="translate(-271.456 -203.841)"/>
            <path id="パス_1514" data-name="パス 1514" d="M274.9,295.132a.382.382,0,0,1-.406-.293l-5.8-40.514a.309.309,0,0,1,.317-.325.39.39,0,0,1,.406.3l5.8,40.514a.3.3,0,0,1-.317.317Z" transform="translate(-268.689 -205.438)"/>
            <path id="パス_1515" data-name="パス 1515" d="M270.906,255.9a.382.382,0,0,1-.333-.138.268.268,0,0,1,.065-.423l84.117-48.57a.415.415,0,0,1,.5.1.268.268,0,0,1-.073.423L271.06,255.851a.342.342,0,0,1-.154.049Z" transform="translate(-269.027 -196.592)"/>
            <path id="パス_1516" data-name="パス 1516" d="M272.667,268.36a.407.407,0,0,1-.333-.138.268.268,0,0,1,.073-.423l84.109-48.57a.423.423,0,0,1,.512.1.276.276,0,0,1-.073.423l-84.092,48.562A.317.317,0,0,1,272.667,268.36Z" transform="translate(-269.357 -198.923)"/>
            <path id="パス_1517" data-name="パス 1517" d="M274.447,280.82a.406.406,0,0,1-.333-.138.276.276,0,0,1,.073-.431L358.3,231.689a.415.415,0,0,1,.5.1.268.268,0,0,1-.073.423l-84.109,48.561A.349.349,0,0,1,274.447,280.82Z" transform="translate(-269.69 -201.255)"/>
            <path id="パス_1518" data-name="パス 1518" d="M274.9,283.962a.366.366,0,0,1-.187,0,.333.333,0,0,1-.219-.26l-5.8-40.514a.293.293,0,0,1,.146-.276l84.109-48.561a.415.415,0,0,1,.366,0,.358.358,0,0,1,.219.252l5.8,40.514a.276.276,0,0,1-.138.276l-84.117,48.521A.3.3,0,0,1,274.9,283.962Zm-5.463-40.644,5.69,39.831,83.45-48.179-5.69-39.831Z" transform="translate(-268.689 -194.268)"/>
          </g>
        </g>
        <path id="パス_1519" data-name="パス 1519" d="M301.152,206.661a6,6,0,0,1-.187,1.5,5.422,5.422,0,0,1-.512,1.3,4.723,4.723,0,0,1-.748,1.04,4.266,4.266,0,0,1-.894.715,2.325,2.325,0,0,1-.935.333,1.2,1.2,0,0,1-.732-.146,1.228,1.228,0,0,1-.488-.618,2.886,2.886,0,0,1-.187-1.073.537.537,0,0,1,.049-.219.285.285,0,0,1,.122-.146l1.008-.585c.1-.057.163-.065.2-.041a.553.553,0,0,1,.1.228.65.65,0,0,0,.293.455c.13.065.325,0,.577-.122a1.7,1.7,0,0,0,.675-.74,2.634,2.634,0,0,0,.219-1.122v-3.382l-2.683,1.553a.122.122,0,0,1-.154,0,.268.268,0,0,1-.057-.2v-1.284a.6.6,0,0,1,.057-.26.406.406,0,0,1,.154-.187l3.943-2.276a.114.114,0,0,1,.146,0,.236.236,0,0,1,.065.2Z" transform="translate(-243.285 -148.768)" fill="#455a64"/>
        <path id="パス_1520" data-name="パス 1520" d="M303.51,207.309a3.252,3.252,0,0,1,.4-1.553,5.3,5.3,0,0,1,1.293-1.512l.919-.772a.618.618,0,0,0-.106-.415c-.065-.089-.187-.081-.35,0a.919.919,0,0,0-.285.236,2.136,2.136,0,0,0-.138.228.87.87,0,0,1-.138.2.7.7,0,0,1-.146.114l-1,.577a.122.122,0,0,1-.13,0,.2.2,0,0,1,0-.171,2.155,2.155,0,0,1,.155-.667,4.722,4.722,0,0,1,.39-.813,5.031,5.031,0,0,1,.585-.764,3.382,3.382,0,0,1,.748-.593,1.951,1.951,0,0,1,.813-.3.813.813,0,0,1,.585.163,1.1,1.1,0,0,1,.341.569,3.253,3.253,0,0,1,.114.91v3.666a.585.585,0,0,1-.065.26.4.4,0,0,1-.146.187l-.992.569a.114.114,0,0,1-.146,0,.268.268,0,0,1-.065-.2v-.333a4.066,4.066,0,0,1-.471.813,2.545,2.545,0,0,1-.732.634,1.349,1.349,0,0,1-.6.2.65.65,0,0,1-.439-.146.976.976,0,0,1-.276-.447,2.627,2.627,0,0,1-.114-.642Zm1.788-.764a1.032,1.032,0,0,0,.325-.276,1.984,1.984,0,0,0,.26-.4,2.258,2.258,0,0,0,.171-.463,2.123,2.123,0,0,0,.065-.488l-.723.585a1.74,1.74,0,0,0-.341.4.862.862,0,0,0-.13.455c0,.154,0,.236.1.26s.154,0,.276-.073Z" transform="translate(-244.602 -148.717)" fill="#455a64"/>
        <path id="パス_1521" data-name="パス 1521" d="M314.206,202.566a.545.545,0,0,1-.065.268.4.4,0,0,1-.146.187l-.992.569a.114.114,0,0,1-.146,0,.268.268,0,0,1-.065-.2V200.29a1.293,1.293,0,0,0-.163-.74c-.114-.146-.285-.146-.52,0a1.171,1.171,0,0,0-.512.618,2.357,2.357,0,0,0-.163.927v3.056a.65.65,0,0,1-.065.268.4.4,0,0,1-.146.187l-.992.569a.122.122,0,0,1-.154,0,.268.268,0,0,1-.057-.2v-5.641a.635.635,0,0,1,.057-.268.431.431,0,0,1,.154-.179l.951-.553a.114.114,0,0,1,.146,0,.244.244,0,0,1,.065.187v.285c.041-.106.1-.219.154-.35a2.988,2.988,0,0,1,.228-.366,3.073,3.073,0,0,1,.309-.35,2.261,2.261,0,0,1,.415-.3,1.553,1.553,0,0,1,.691-.236.7.7,0,0,1,.545.187,1.471,1.471,0,0,1,.35.658,4.545,4.545,0,0,1,.122,1.162Z" transform="translate(-245.82 -147.989)" fill="#455a64"/>
        <path id="パス_1522" data-name="パス 1522" d="M316.674,195.393a.643.643,0,0,1,.065-.26.4.4,0,0,1,.146-.187l.992-.569a.114.114,0,0,1,.146,0,.268.268,0,0,1,.065.2v3.065a1.454,1.454,0,0,0,.146.748c.106.154.268.163.5,0a1.089,1.089,0,0,0,.5-.593,2.693,2.693,0,0,0,.146-.919v-3.065a.634.634,0,0,1,.057-.268.382.382,0,0,1,.154-.179l.992-.577a.114.114,0,0,1,.146,0,.26.26,0,0,1,.065.187v5.674a.65.65,0,0,1-.065.268.438.438,0,0,1-.146.187l-.919.52a.114.114,0,0,1-.146,0,.268.268,0,0,1-.065-.2v-.276a2.563,2.563,0,0,1-.154.35,2.119,2.119,0,0,1-.219.358,3.068,3.068,0,0,1-.309.35,2.439,2.439,0,0,1-.423.309c-.512.293-.91.309-1.211,0a2.5,2.5,0,0,1-.455-1.829Z" transform="translate(-247.061 -147.157)" fill="#455a64"/>
        <path id="パス_1523" data-name="パス 1523" d="M323,196.03a3.308,3.308,0,0,1,.4-1.544,5.463,5.463,0,0,1,1.292-1.512l.919-.813a.675.675,0,0,0-.1-.415c-.073-.089-.187-.081-.358,0a.813.813,0,0,0-.276.236,2.433,2.433,0,0,0-.146.228.888.888,0,0,1-.13.2.765.765,0,0,1-.154.114l-1,.577a.122.122,0,0,1-.13,0,.244.244,0,0,1,0-.171,2.234,2.234,0,0,1,.163-.675,4.3,4.3,0,0,1,.382-.813,5.693,5.693,0,0,1,.593-.764,3.17,3.17,0,0,1,.74-.593,2.016,2.016,0,0,1,.813-.3.813.813,0,0,1,.585.163,1.1,1.1,0,0,1,.341.569,3.251,3.251,0,0,1,.114.91v3.666a.584.584,0,0,1-.065.26.366.366,0,0,1-.154.187l-.984.569h-.154a.268.268,0,0,1-.065-.2v-.26a3.689,3.689,0,0,1-.463.813,2.438,2.438,0,0,1-.74.634,1.317,1.317,0,0,1-.6.2.683.683,0,0,1-.439-.146,1.04,1.04,0,0,1-.268-.447A2.341,2.341,0,0,1,323,196.03Zm1.8-.756a1.106,1.106,0,0,0,.317-.276,1.683,1.683,0,0,0,.26-.4,2.881,2.881,0,0,0,.179-.463,2.114,2.114,0,0,0,.057-.5l-.723.593a1.738,1.738,0,0,0-.341.4.943.943,0,0,0-.13.455c0,.146,0,.236.1.26a.358.358,0,0,0,.293-.073Z" transform="translate(-248.249 -146.598)" fill="#455a64"/>
        <path id="パス_1524" data-name="パス 1524" d="M332.343,186.144a.114.114,0,0,1,.146,0c.049,0,.065.1.065.187v1.227a.5.5,0,0,1-.065.26.4.4,0,0,1-.146.187l-.715.415a1.626,1.626,0,0,0-.723,1.528v2.975a.634.634,0,0,1-.057.268.463.463,0,0,1-.154.187l-.992.569a.114.114,0,0,1-.146,0,.268.268,0,0,1-.065-.2v-5.641a.65.65,0,0,1,.065-.268.374.374,0,0,1,.146-.179l.91-.528h.154a.268.268,0,0,1,.065.2v.317a3.333,3.333,0,0,1,.431-.683,2.08,2.08,0,0,1,.61-.52Z" transform="translate(-249.463 -145.914)" fill="#455a64"/>
        <path id="パス_1525" data-name="パス 1525" d="M336.5,191.82a1.542,1.542,0,0,1-.073.236.4.4,0,0,1-.154.187l-1.024.593a.106.106,0,0,1-.138,0,.26.26,0,0,1-.057-.179v-.089l.6-2.512-1.577-4.739a.252.252,0,0,1,0-.081.61.61,0,0,1,.049-.236.4.4,0,0,1,.138-.163l1.024-.593a.114.114,0,0,1,.154,0,.561.561,0,0,1,.081.154l.87,2.642.862-3.65a1.013,1.013,0,0,1,.081-.236.39.39,0,0,1,.146-.187l1.04-.593a.1.1,0,0,1,.13,0,.236.236,0,0,1,.057.179.334.334,0,0,1,0,.089Z" transform="translate(-250.322 -145.209)" fill="#455a64"/>
        <path id="パス_1526" data-name="パス 1526" d="M367.416,214.595l.707,1a.154.154,0,0,0,.187.057l1.195-.463c.187-.073.3.163.2.4l-.7,1.5a.4.4,0,0,0,0,.285l.406,1.309c.065.211-.106.5-.285.488l-1.138-.073a.244.244,0,0,0-.211.122l-.943,1.268c-.154.2-.366.146-.374-.1v-1.544a.228.228,0,0,0-.106-.211l-.984-.52c-.154-.081-.122-.406.057-.545l1.138-.886a.463.463,0,0,0,.146-.244l.333-1.626C367.058,214.579,367.3,214.44,367.416,214.595Z" transform="translate(-256.158 -151.231)" fill="#f28f8f"/>
        <path id="パス_1527" data-name="パス 1527" d="M373.246,212.894a4.138,4.138,0,0,0-3.048-3.406c-2.276-.577-3.886.984-5.064,2.284-.309.35.358.48.61.236,1.236-1.195,3.666-2.439,5.389-.975s1.26,3.715.732,5.4a7.852,7.852,0,0,1-7.479,5.479c-8.21-.187-1.171-12.819,3.544-13.713.382-.073.577-.6.049-.65-2.439-.244-3.934,1.683-5.251,3.146a13.982,13.982,0,0,0-3.138,5.471c-1.081,3.772,1.959,8.218,7.015,6.56C371.035,221.267,374.132,217.178,373.246,212.894Z" transform="translate(-255.055 -149.92)" fill="#f28f8f"/>
        <path id="パス_1528" data-name="パス 1528" d="M301.716,267.822a4.138,4.138,0,0,0-3.048-3.406c-2.276-.577-3.886.975-5.064,2.284-.309.341.358.471.61.236,1.236-1.195,3.666-2.439,5.389-.975s1.26,3.715.732,5.4a7.852,7.852,0,0,1-7.479,5.479c-8.21-.187-1.171-12.819,3.544-13.713.382-.073.577-.6.049-.658-2.439-.236-3.934,1.691-5.251,3.154a13.924,13.924,0,0,0-3.138,5.471c-1.081,3.764,1.959,8.218,7.015,6.56C299.505,276.2,302.6,272.1,301.716,267.822Z" transform="translate(-241.67 -160.197)" fill="#f28f8f"/>
      </g>
    </g>
    <g id="freepik--Wrench--inject-1--inject-95" transform="translate(235.193 306.759)">
      <g id="freepik--wrench--inject-1--inject-95-2" data-name="freepik--wrench--inject-1--inject-95">
        <path id="パス_1554" data-name="パス 1554" d="M133.25,373a1.38,1.38,0,0,0,.21.74,11.659,11.659,0,0,0,4.07,3.6c5,2.83,12.14,3.58,18.29,2.29l60.76,35.08-.11.19-1-.16v3.45c0,2.6,1.73,5.21,5.21,7.18,6.88,3.92,18,3.87,24.75-.11l.44-.27a.58.58,0,0,0,.25-.46v-3.25l-15.82.91-2.31-4.82,1.29-.76,4.78-2.8,14.8,2.11a.66.66,0,0,0,.75-.65v-3.62l-4.28-.71s-12.14-3.59-18.3-2.29l-60.75-35.08a6.42,6.42,0,0,0,1.05-3.61s0-3.42,0-3.42l-.92.33a11.24,11.24,0,0,0-4.29-4c-6.89-3.92-25.43-2.8-25.43-2.8v3.38a.32.32,0,0,0,.28.32l15.53,2.28,1,2.12,1.3,2.7-6.08,3.56L133.62,369l-.37.65Z" transform="translate(-133.25 -356.526)" fill="#37474f"/>
        <path id="パス_1555" data-name="パス 1555" d="M133.25,413.88l1.29,2.7,4.78-2.8,14.75,2.14a.66.66,0,0,0,.75-.65v-3.62l-15.47-1.33Z" transform="translate(-38.46 -356.526)" fill="#263238"/>
        <path id="パス_1556" data-name="パス 1556" d="M243.9,362.63l-15.81-2.55v3.41a.32.32,0,0,0,.28.32l15.53,2.28,1,2.12,1.29-.76Z" transform="translate(-224.67 -356.526)" fill="#263238"/>
        <path id="パス_1557" data-name="パス 1557" d="M166.28,379.6v-3.46l60.76,35.08v3.46Z" transform="translate(-143.71 -356.526)" fill="#37474f"/>
        <path id="パス_1558" data-name="パス 1558" d="M245.281,407.48a11.62,11.62,0,0,1,4.16,3.72.82.82,0,0,1-.8,1.25l-14.54-2.13-6.07,3.56,2.31,4.83,15.22,2.23c.57.08.76.31.46.5l-.55.34c-6.79,4-17.87,4-24.75.11-5.05-2.87-6.43-7.07-4.15-10.67l-60.72-35.08c-6.15,1.3-13.31.55-18.29-2.28a11.75,11.75,0,0,1-4.15-3.72.82.82,0,0,1,.81-1.25L148.7,371l6.07-3.56-2.3-4.83-15.23-2.23c-.54-.08-.73-.32-.45-.5l.55-.34c6.78-4,17.86-4,24.75-.11,5,2.87,6.42,7.07,4.15,10.67l60.75,35.1C233.151,403.9,240.3,404.65,245.281,407.48Z" transform="translate(-133.241 -356.526)" fill="#455a64"/>
      </g>
    </g>
    <g id="freepik--Books--inject-1--inject-95" transform="translate(40.305 211.349)">
      <g id="freepik--books--inject-1--inject-95-2" data-name="freepik--books--inject-1--inject-95">
        <path id="パス_1559" data-name="パス 1559" d="M447.41,328.32l-51.25,29.44L322.79,315.4l51.25-29.44Z" transform="translate(-320.855 -257.25)" fill="#455a64"/>
        <path id="パス_1560" data-name="パス 1560" d="M324.54,356l49.81-28.78q-1.53-4.39.22-10.27l-49.52,28.52S324.26,348,324.54,356Z" transform="translate(-249.705 -257.25)" fill="#f5f5f5"/>
        <path id="パス_1561" data-name="パス 1561" d="M326.53,342.26a8.39,8.39,0,0,0-3.78,6.55v7.65c0,2.41,1.7,3.39,3.78,2.19l49.25-28.43v-1.9l-48.72,28c-1.26.72-2.27.14-2.27-1.31v-7.09a5,5,0,0,1,2.27-3.93l48.68-28v-2.15Z" transform="translate(-249.185 -257.25)" fill="#263238"/>
        <path id="パス_1562" data-name="パス 1562" d="M449.195,313.84l-73.37-42.36-49.24,28.42a8.36,8.36,0,0,0-3.78,6.55v7.66a2.64,2.64,0,0,0,1.11,2.44l73.36,42.36a2.66,2.66,0,0,1-1.1-2.44v-7.66a8.35,8.35,0,0,1,3.78-6.55Z" transform="translate(-322.64 -257.25)" fill="#455a64"/>
        <path id="パス_1563" data-name="パス 1563" d="M449.2,345.08a7.68,7.68,0,0,0-1.11,3.73v7.66a2.66,2.66,0,0,0,1.1,2.44l-73.36-42.36a2.64,2.64,0,0,1-1.11-2.44v-7.66a7.65,7.65,0,0,1,1.11-3.72Z" transform="translate(-374.57 -257.25)" fill="#37474f"/>
        <path id="パス_1564" data-name="パス 1564" d="M447.56,310.65l-40.8,23.4-67.4-38.91,40.8-23.4Z" transform="translate(-337.575 -257.25)" fill="#ff8d2c"/>
        <path id="パス_1565" data-name="パス 1565" d="M447.56,310.65l-40.8,23.4-67.4-38.91,40.8-23.4Z" transform="translate(-337.575 -257.25)" opacity="0.35"/>
        <path id="パス_1566" data-name="パス 1566" d="M341.113,332.27l39.36-22.72q-1.55-4.4.21-10.27l-39.11,22.48S340.833,324.24,341.113,332.27Z" transform="translate(-272.389 -257.25)" fill="#ebebeb"/>
        <path id="パス_1567" data-name="パス 1567" d="M341.113,332.27l39.36-22.72q-1.55-4.4.21-10.27l-39.11,22.48S340.833,324.24,341.113,332.27Z" transform="translate(-272.389 -257.25)" fill="#f5f5f5"/>
        <path id="パス_1568" data-name="パス 1568" d="M343.14,318.56a8.33,8.33,0,0,0-3.78,6.55v7.65c0,2.41,1.69,3.39,3.78,2.18l38.79-22.39v-1.9l-38.27,22c-1.25.72-2.26.13-2.26-1.31v-7.09a5,5,0,0,1,2.27-3.93l38.23-22v-2.15Z" transform="translate(-271.945 -257.25)" fill="#ff8d2c"/>
        <path id="パス_1569" data-name="パス 1569" d="M343.14,318.56a8.33,8.33,0,0,0-3.78,6.55v7.65c0,2.41,1.69,3.39,3.78,2.18l38.79-22.39v-1.9l-38.27,22c-1.25.72-2.26.13-2.26-1.31v-7.09a5,5,0,0,1,2.27-3.93l38.23-22v-2.15Z" transform="translate(-271.945 -257.25)" opacity="0.25"/>
        <path id="パス_1570" data-name="パス 1570" d="M449.345,296.17l-67.4-38.92-38.79,22.39a8.39,8.39,0,0,0-3.78,6.55v7.66a2.64,2.64,0,0,0,1.11,2.44l67.4,38.92a2.68,2.68,0,0,1-1.11-2.45V325.1a8.36,8.36,0,0,1,3.78-6.55Z" transform="translate(-339.36 -257.25)" fill="#ff8d2c"/>
        <path id="パス_1571" data-name="パス 1571" d="M449.335,321.38a7.74,7.74,0,0,0-1.1,3.72v7.66a2.68,2.68,0,0,0,1.11,2.45l-67.4-38.92a2.64,2.64,0,0,1-1.11-2.44v-7.66a7.761,7.761,0,0,1,1.11-3.72Z" transform="translate(-380.82 -257.25)" opacity="0.15"/>
      </g>
    </g>
    <g id="freepik--List--inject-1--inject-95" transform="translate(104.571 310.71)">
      <g id="freepik--list--inject-1--inject-95-2" data-name="freepik--list--inject-1--inject-95">
        <path id="パス_1572" data-name="パス 1572" d="M217.3,401.13v1.7a1.85,1.85,0,0,0,.84,1.46l94.34,54.47a1.91,1.91,0,0,0,1.68,0l67.58-39a1.85,1.85,0,0,0,.84-1.46v-1.69a1.85,1.85,0,0,0-.84-1.46L287.4,360.68a1.84,1.84,0,0,0-1.68,0l-67.58,39a1.84,1.84,0,0,0-.84,1.45Z" transform="translate(-217.3 -360.477)" fill="#ff8d2c"/>
        <path id="パス_1573" data-name="パス 1573" d="M285.82,415.21c.34.27.31.65-.12.89l-67.58,39a1.63,1.63,0,0,1-.84.2V459a1.771,1.771,0,0,0,.84-.2l67.58-39a1.85,1.85,0,0,0,.84-1.46v-1.69A1.87,1.87,0,0,0,285.82,415.21Z" transform="translate(-121.24 -360.477)" fill="#fff" opacity="0.4"/>
        <path id="パス_1574" data-name="パス 1574" d="M287.177,399.78h0l-.07.06h0l-.12.12h0a1.81,1.81,0,0,0-.42.91.711.711,0,0,0,0,.2v1.7a1.9,1.9,0,0,0,.84,1.46l94.25,54.53a1.771,1.771,0,0,0,.84.2v-3.64a1.56,1.56,0,0,1-.84-.2l-94.35-54.47a.65.65,0,0,1-.31-.33.43.43,0,0,1,.1-.46.3.3,0,0,1,.08-.08Z" transform="translate(-286.477 -360.477)" opacity="0.15"/>
        <path id="パス_1575" data-name="パス 1575" d="M323.35,375.73c0-.63.38-1.26,1.4-1.85a6.27,6.27,0,0,1,3-.8h.26c2.63,0,5.37,1.22,7.7,1.56h.1c3.27.45,5-.57,6.6-.73a7.151,7.151,0,0,1,.78,0h1.1a22.75,22.75,0,0,0,4.26-.09c1.13-.12,2-.18,2.59-.19h.21a3.41,3.41,0,0,1,1.91.37l3.78,2.19v1.25L328.72,393.8l-3.78-2.19a1.11,1.11,0,0,1-.64-1.15v-1.24a5.31,5.31,0,0,1,.31-1.6,6.493,6.493,0,0,0,.22-.94,6.461,6.461,0,0,1-.12-.89c0-.15,0-1,0-1.28a1.388,1.388,0,0,1,.07-.44c.18-.64,1.07-1.31,1.36-2.27a2.786,2.786,0,0,0-.12-.34c-.59-1.36-2.71-3-2.71-4.47A12.437,12.437,0,0,0,323.35,375.73Zm5.82,3.62a7.271,7.271,0,0,0,2.05.79,5.68,5.68,0,0,0,3.85-.3,1.8,1.8,0,0,0,.68-.66,3.64,3.64,0,0,0-1.53-1.48,7.18,7.18,0,0,0-5.18-.78,3,3,0,0,0-.71.29,1.8,1.8,0,0,0-.68.66,3.55,3.55,0,0,0,1.48,1.48Z" transform="translate(-297.77 -360.477)" fill="#263238"/>
        <path id="パス_1576" data-name="パス 1576" d="M353.26,374l3.78,2.19-28.32,16.35-3.78-2.18c-.48-.28-1-.66-.33-2.74s-.13-2.6.17-3.55,2.07-1.95,1.24-3.87-4.77-4.33-1.31-6.33a6.27,6.27,0,0,1,3-.8h.26c2.63,0,5.37,1.22,7.7,1.56h.1c3.27.45,5-.57,6.6-.73a7.151,7.151,0,0,1,.78,0h1.1a22.75,22.75,0,0,0,4.26-.09c1.13-.12,2-.18,2.59-.19h.25a3.41,3.41,0,0,1,1.91.38ZM329.9,388.66a1.76,1.76,0,0,0-1.56-.14c-.37.22-.26.62.23.91a1.77,1.77,0,0,0,1.55.13c.38-.21.23-.56-.22-.89Zm4.28-12.23a7.23,7.23,0,0,0-5.18-.78,3,3,0,0,0-.71.29c-1.39.81-1,2.33.84,3.41a7.561,7.561,0,0,0,2.05.78,5.68,5.68,0,0,0,3.85-.3c1.39-.83,1.01-2.32-.85-3.39Zm17.57-.39a1.77,1.77,0,0,0-1.55-.13c-.38.22-.28.62.22.9a1.75,1.75,0,0,0,1.56.13c.37-.2.26-.61-.23-.89Z" transform="translate(-297.77 -360.477)" fill="#37474f"/>
        <path id="パス_1577" data-name="パス 1577" d="M309.06,449.19l58.81-33.95a1.11,1.11,0,0,0,.51-.87v-.66a1.11,1.11,0,0,0-.51-.87L290.17,368a1.12,1.12,0,0,0-1,0l-58.81,33.95a1.13,1.13,0,0,0-.5.88v.65a1.13,1.13,0,0,0,.5.87l77.7,44.86a1.06,1.06,0,0,0,1-.02Z" transform="translate(-215.66 -360.477)" fill="#f5f5f5"/>
        <path id="パス_1578" data-name="パス 1578" d="M289.31,412.93c.14.16.1.36-.13.49l-58.81,34a1,1,0,0,1-.5.12v1.81a.93.93,0,0,0,.5-.12l58.81-33.95a1.08,1.08,0,0,0,.5-.87v-.66a1.21,1.21,0,0,0-.37-.82Z" transform="translate(-136.97 -360.477)" fill="#fafafa"/>
        <path id="パス_1579" data-name="パス 1579" d="M290.074,402l-.14.14-.06.08a1.712,1.712,0,0,0-.14.27,1.206,1.206,0,0,0-.05.18.572.572,0,0,0,0,.13v.65a1.1,1.1,0,0,0,.5.87l77.7,44.86a1,1,0,0,0,.51.12v-1.8a1.07,1.07,0,0,1-.51-.12l-77.7-44.86C289.954,402.38,289.914,402.17,290.074,402Z" transform="translate(-275.494 -360.477)" fill="#e0e0e0"/>
        <path id="パス_1580" data-name="パス 1580" d="M303.18,378.07l-9.45,5.38,9.45,5.45,9.45-5.37Z" transform="translate(-223.78 -360.477)" fill="#fafafa"/>
        <path id="パス_1581" data-name="パス 1581" d="M303.268,378.52l8.67,5-8.67,4.93-8.67-5Zm9.78,5.2a.41.41,0,0,0,0-.19.39.39,0,0,0-.19-.34l-9.45-5.45a.37.37,0,0,0-.38,0l-9.45,5.37a.4.4,0,0,0,0,.68l9.45,5.45a.37.37,0,0,0,.38,0l9.45-5.38A.32.32,0,0,0,313.048,383.72Z" transform="translate(-223.868 -360.477)" fill="#455a64"/>
        <path id="パス_1582" data-name="パス 1582" d="M350.946,386.37l.68.39a.41.41,0,0,1,0,.78l-33.29,19.22a1.5,1.5,0,0,1-1.34,0l-.69-.4a.41.41,0,0,1,0-.77l33.29-19.22a1.46,1.46,0,0,1,1.35,0Z" transform="translate(-285.366 -360.477)" fill="#e0e0e0"/>
        <path id="パス_1583" data-name="パス 1583" d="M346.832,388.75l.68.39c.37.22.37.57,0,.78l-33.28,19.22a1.53,1.53,0,0,1-1.35,0l-.68-.4a.41.41,0,0,1,0-.77l33.29-19.22a1.5,1.5,0,0,1,1.34,0Z" transform="translate(-277.142 -360.477)" fill="#e0e0e0"/>
        <path id="パス_1584" data-name="パス 1584" d="M342.716,391.12l.69.39a.41.41,0,0,1,0,.78l-33.29,19.22a1.5,1.5,0,0,1-1.34,0l-.69-.4a.41.41,0,0,1,0-.77l33.29-19.22a1.44,1.44,0,0,1,1.34,0Z" transform="translate(-268.926 -360.477)" fill="#e0e0e0"/>
        <path id="パス_1585" data-name="パス 1585" d="M315.33,385.06l-.73-2.94-2.19-.18.41,1.67-12.05-.99.31,1.26Z" transform="translate(-233.52 -360.477)" fill="#ff8d2c"/>
        <path id="パス_1586" data-name="パス 1586" d="M285.87,388.07l-9.45,5.38,9.45,5.45,9.44-5.38Z" transform="translate(-189.15 -360.477)" fill="#fafafa"/>
        <path id="パス_1587" data-name="パス 1587" d="M285.87,388.52l8.66,5-8.66,4.93-8.67-5Zm9.78,5.2a.41.41,0,0,0,.05-.19.39.39,0,0,0-.19-.34l-9.45-5.45a.37.37,0,0,0-.38,0l-9.45,5.37a.4.4,0,0,0-.2.34.37.37,0,0,0,.2.33l9.44,5.46a.39.39,0,0,0,.39,0l9.44-5.38A.4.4,0,0,0,295.65,393.72Z" transform="translate(-189.15 -360.477)" fill="#455a64"/>
        <path id="パス_1588" data-name="パス 1588" d="M333.634,396.37l.68.39c.38.21.38.56,0,.78l-33.28,19.22a1.5,1.5,0,0,1-1.34,0l-.69-.4a.41.41,0,0,1,0-.77l33.33-19.22A1.44,1.44,0,0,1,333.634,396.37Z" transform="translate(-250.754 -360.477)" fill="#e0e0e0"/>
        <path id="パス_1589" data-name="パス 1589" d="M329.522,398.75l.68.39a.41.41,0,0,1,0,.78l-33.29,19.22a1.5,1.5,0,0,1-1.34,0l-.68-.4c-.38-.21-.38-.56,0-.77l33.28-19.22a1.46,1.46,0,0,1,1.35,0Z" transform="translate(-242.512 -360.477)" fill="#e0e0e0"/>
        <path id="パス_1590" data-name="パス 1590" d="M325.406,401.12l.68.39a.41.41,0,0,1,0,.78l-33.28,19.22a1.53,1.53,0,0,1-1.35,0l-.68-.4a.41.41,0,0,1,0-.77l33.29-19.22a1.44,1.44,0,0,1,1.34,0Z" transform="translate(-234.296 -360.477)" fill="#e0e0e0"/>
        <path id="パス_1591" data-name="パス 1591" d="M298.02,395.06l-.73-2.94-2.19-.18.42,1.67-12.06-.99.32,1.26Z" transform="translate(-198.9 -360.477)" fill="#ff8d2c"/>
        <path id="パス_1592" data-name="パス 1592" d="M268.54,398.52l8.67,5-8.67,4.93-8.66-5Zm9.78,5.2a.36.36,0,0,0,.06-.2.38.38,0,0,0-.2-.33l-9.44-5.46a.41.41,0,0,0-.39,0l-9.44,5.38a.4.4,0,0,0-.2.34.39.39,0,0,0,.19.33l9.45,5.45a.41.41,0,0,0,.39,0l9.44-5.38a.38.38,0,0,0,.14-.13Z" transform="translate(-154.51 -360.477)" fill="#455a64"/>
        <path id="パス_1593" data-name="パス 1593" d="M316.355,406.36l.68.4a.41.41,0,0,1,0,.77l-33.3,19.22a1.44,1.44,0,0,1-1.34,0l-.68-.39a.41.41,0,0,1,0-.78L315,406.36a1.5,1.5,0,0,1,1.35,0Z" transform="translate(-216.154 -360.477)" fill="#e0e0e0"/>
        <path id="パス_1594" data-name="パス 1594" d="M312.2,408.75l.69.39a.41.41,0,0,1,0,.77L279.6,429.14a1.5,1.5,0,0,1-1.34,0l-.69-.4a.41.41,0,0,1,0-.77l33.29-19.22A1.44,1.44,0,0,1,312.2,408.75Z" transform="translate(-207.88 -360.477)" fill="#e0e0e0"/>
        <path id="パス_1595" data-name="パス 1595" d="M308.125,411.11l.68.4a.41.41,0,0,1,0,.77l-33.29,19.22a1.44,1.44,0,0,1-1.34,0l-.69-.39a.41.41,0,0,1,0-.78l33.29-19.22a1.53,1.53,0,0,1,1.35,0Z" transform="translate(-199.694 -360.477)" fill="#e0e0e0"/>
        <path id="パス_1596" data-name="パス 1596" d="M280.47,405.46l-.73-2.94-2.19-.18.41,1.68-12.05-1,.31,1.27Z" transform="translate(-163.8 -360.477)" fill="#ff8d2c"/>
        <path id="パス_1597" data-name="パス 1597" d="M251.318,408.51l8.67,5-8.67,4.93-8.67-5Zm9.78,5.2a.381.381,0,0,0,0-.19.39.39,0,0,0-.19-.34l-9.45-5.45a.37.37,0,0,0-.38,0l-9.45,5.38a.37.37,0,0,0-.19.33.39.39,0,0,0,.19.34l9.45,5.45a.37.37,0,0,0,.38,0l9.45-5.37A.4.4,0,0,0,261.1,413.71Z" transform="translate(-119.968 -360.477)" fill="#455a64"/>
        <path id="パス_1598" data-name="パス 1598" d="M299.019,416.36l.69.4a.41.41,0,0,1,0,.77l-33.29,19.22a1.44,1.44,0,0,1-1.34,0l-.69-.39c-.37-.22-.37-.57,0-.78l33.29-19.22A1.5,1.5,0,0,1,299.019,416.36Z" transform="translate(-181.508 -360.477)" fill="#e0e0e0"/>
        <path id="パス_1599" data-name="パス 1599" d="M294.9,418.74l.68.4a.41.41,0,0,1,0,.77L262.3,439.13a1.46,1.46,0,0,1-1.35,0l-.68-.39a.41.41,0,0,1,0-.78l33.29-19.22a1.5,1.5,0,0,1,1.34,0Z" transform="translate(-173.265 -360.477)" fill="#e0e0e0"/>
        <path id="パス_1600" data-name="パス 1600" d="M290.794,421.11l.69.4a.41.41,0,0,1,0,.77l-33.29,19.22a1.44,1.44,0,0,1-1.34,0l-.69-.39a.41.41,0,0,1,0-.78l33.29-19.22a1.5,1.5,0,0,1,1.34,0Z" transform="translate(-165.054 -360.477)" fill="#e0e0e0"/>
        <path id="パス_1601" data-name="パス 1601" d="M262.93,415.87l-.73-2.94-2.19-.18.42,1.67-12.06-.99.32,1.26Z" transform="translate(-128.72 -360.477)" fill="#ff8d2c"/>
        <path id="パス_1602" data-name="パス 1602" d="M314.17,391.3l4.19-3.3a2.762,2.762,0,0,0,.24-.34l-.12-.12-1-.95-3.25-3a.81.81,0,0,1-.31-.63V381.7a1.33,1.33,0,0,1,.37-.84,3.3,3.3,0,0,0,.68-1.61,2.6,2.6,0,0,0-.77-1.48,3.38,3.38,0,0,1-1.21-3.23,3.43,3.43,0,0,1,2.1-3.74,7.19,7.19,0,0,1,3.2-.77h.14a7.24,7.24,0,0,1,4.82,1.71,6.33,6.33,0,0,0,3.13,1.19,9,9,0,0,0,2.88,0,5.735,5.735,0,0,1,.66-.07h.07a1.71,1.71,0,0,1,1.33.43l2.8,2.6,1,.95h.05a2.56,2.56,0,0,0,2.36.34c1.54-.65,2.27-1,4.78-2.15a5.651,5.651,0,0,1,2.31-.47h0a7.62,7.62,0,0,1,3.38.85v1.26l-34.65,20a3,3,0,0,1-.66-1.73V393.8a3.48,3.48,0,0,1,1.48-2.5Zm7.15-17.47a4.72,4.72,0,0,0-4.53-.8,3.482,3.482,0,0,0-.48.21,2.5,2.5,0,0,0-1.23,1.29,2.4,2.4,0,0,0,.67,1,4,4,0,0,0,1.39.8,4.82,4.82,0,0,0,3.64-.22,1.18,1.18,0,0,0,.54-2.25Z" transform="translate(-278.11 -360.477)" fill="#37474f"/>
        <path id="パス_1603" data-name="パス 1603" d="M347.939,375.54l-34.65,20c-.94-1.28-1-2.61.77-4.24l4.19-3.3s.91-1,.12-1.72l-1-.95-3.25-3s-.74-.52.06-1.47,1.18-3.19-.09-4.35c-2-1.84-1.61-4.39.89-5.71a7.191,7.191,0,0,1,3.2-.77h.14a7.24,7.24,0,0,1,4.82,1.71,6.33,6.33,0,0,0,3.13,1.19,9,9,0,0,0,2.88,0,5.735,5.735,0,0,1,.66-.07h.07a1.71,1.71,0,0,1,1.33.43l2.8,2.6,1,.95h.05a2.56,2.56,0,0,0,2.36.34c1.54-.65,2.27-1,4.78-2.15a5.651,5.651,0,0,1,2.31-.47h0a7.621,7.621,0,0,1,3.43.98Zm-31.26-3.77a3.507,3.507,0,0,0-.48.22,2,2,0,0,0-.56,3.51,4,4,0,0,0,1.39.8,4.82,4.82,0,0,0,3.64-.22,2,2,0,0,0,.54-3.51,4.72,4.72,0,0,0-4.53-.8Z" transform="translate(-277.999 -360.477)" fill="#455a64"/>
      </g>
    </g>
    <g id="freepik--Pencil--inject-1--inject-95" transform="translate(39.465 287.277)">
      <g id="freepik--pencil--inject-1--inject-95-2" data-name="freepik--pencil--inject-1--inject-95">
        <path id="パス_1604" data-name="パス 1604" d="M392.77,346.89l1,.58,1.15.71,41.61,25.24c-.34-.82,0-2.45.85-4,1-1.81,2.54-3.21,3.62-3.24l-41.3-25.06-2.21-1.34C398.87,340.74,394.21,347.82,392.77,346.89Z" transform="translate(-383.584 -334.222)" fill="#ff8d2c"/>
        <path id="パス_1605" data-name="パス 1605" d="M438.794,339.88c-.61-.4-1.71.73-2.77,2.18-1.42,1.91-2.6,4.47-1.79,5l1.58,1,.57.33c-.81-.52.37-3.08,1.78-5,1-1.39,2.18-2.44,2.8-2.16h0Z" transform="translate(-424.749 -334.222)" fill="#ebebeb"/>
        <path id="パス_1606" data-name="パス 1606" d="M437.213,340.9c-1.42-.92-6.07,6.2-4.66,7.13l2.14,1.3c-1.41-.92,3.24-8.05,4.66-7.12Z" transform="translate(-421.458 -334.222)" fill="#ff8d2c"/>
        <path id="パス_1607" data-name="パス 1607" d="M437.33,343.45l-2.12-1.29c-1.38-.92-5.94,5.92-4.77,7a.22.22,0,0,0,.07.06l2.14,1.28C431.26,349.6,435.93,342.52,437.33,343.45Z" transform="translate(-417.394 -334.222)" fill="#ebebeb"/>
        <path id="パス_1608" data-name="パス 1608" d="M386.5,366.18v.01h0l-.01-.01h.01l6.28,7.48h-.01Z" transform="translate(-329.084 -334.222)" fill="#fafafa"/>
        <path id="パス_1609" data-name="パス 1609" d="M384.97,373.66l1.52,1.81-1.52-1.81Z" transform="translate(-321.274 -334.222)" fill="#e0e0e0"/>
        <path id="パス_1610" data-name="パス 1610" d="M388.015,368.06a4.56,4.56,0,0,1,3.36-1.88h0l6.28,7.48a1.1,1.1,0,0,0-.68.35c-.77,1-.71,1.49-.71,1.49l-9.36-2.08C386.015,372,386.685,369.68,388.015,368.06Z" transform="translate(-333.969 -334.222)" fill="#ffa8a7"/>
        <path id="パス_1611" data-name="パス 1611" d="M385.6,374a.85.85,0,0,1,.68-.35l1.49,1.82h0a.36.36,0,0,1,0,.51.35.35,0,0,1-.33.09l-2.54-.57S384.771,375,385.6,374Z" transform="translate(-322.586 -334.222)" fill="#37474f"/>
        <path id="パス_1612" data-name="パス 1612" d="M436.975,341.77l8.39,5.13a.471.471,0,0,0,.15.06c-.57-.69.55-3.08,1.9-4.9,1-1.33,2.13-2.35,2.77-2.18l-8.78-5.35c-1.92-1.39-4.55,2.23-5.11,4.85a2.19,2.19,0,0,0,.68,2.39Z" transform="translate(-436.18 -334.222)" fill="#f28f8f"/>
        <path id="パス_1613" data-name="パス 1613" d="M385.765,341.77a2.19,2.19,0,0,1-.64-2.39,1.43,1.43,0,0,1,.1-.38l52.44,31.67,12.49,5.33a.35.35,0,0,1-.33.09l-2.54-.57-9.36-2.08h0Z" transform="translate(-384.969 -334.222)" opacity="0.15"/>
      </g>
    </g>
    <g id="freepik--Character--inject-1--inject-95" transform="translate(230.141 12.113)">
      <g id="freepik--Clock--inject-1--inject-95" transform="translate(0 121.663)">
        <path id="パス_1614" data-name="パス 1614" d="M75.324,365.22l12.92,25.21a6.69,6.69,0,1,1-11.8,6.29l-13-25.35c-1.26-2.43.38-5.78,3.67-7.47S74.074,362.79,75.324,365.22Z" transform="translate(100.016 -173.246)" fill="#455a64"/>
        <path id="パス_1615" data-name="パス 1615" d="M210.331,312.45l-25.21,12.92a6.69,6.69,0,0,1-6.29-11.8l25.35-13c2.43-1.26,5.78.39,7.48,3.67S212.761,311.2,210.331,312.45Z" transform="translate(-135.941 -173.246)" fill="#455a64"/>
        <path id="パス_1616" data-name="パス 1616" d="M59.871,200.62h0l.12-.06h0l45.55-23.37h0l.17-.08h0c13.47-6.82,31.47-4.82,50.85,7.66,38.93,25.07,68.67,82.89,66.43,129.14-1.12,23.06-10,38.88-23.4,45.85h0l-.12.06h0L153.9,383.19h0l-.14.07h0c-13.48,6.85-31.49,4.85-50.89-7.64-38.93-25.08-68.67-82.89-66.42-129.15C37.591,223.42,46.441,207.6,59.871,200.62Z" transform="translate(-7.261 -173.246)" fill="#ff8d2c"/>
        <path id="パス_1617" data-name="パス 1617" d="M36.361,382.65l44.52-22.85h0l.13-.08c13.41-7,22.27-22.82,23.39-45.84,1-20.63-4.37-43.54-14.06-64.82l-45.46,23.38c9.67,21.28,15,44.19,14,64.82C57.8,359.82,49.3,375.45,36.361,382.65Z" transform="translate(111.299 -173.246)" opacity="0.1"/>
        <ellipse id="楕円形_11" data-name="楕円形 11" cx="102.69" cy="59.29" rx="102.69" ry="59.29" transform="matrix(-0.457, -0.889, 0.889, -0.457, 93.943, 237.072)" fill="#fff" opacity="0.4"/>
        <path id="パス_1618" data-name="パス 1618" d="M181.04,372.39c23,1.12,26.68-24.69,27.23-35.84,2-40.79-25.36-93.94-59.69-116-8.74-5.63-17.27-8.79-24.66-9.15-23-1.12-26.69,24.69-27.23,35.84-2,40.79,25.35,93.94,59.69,116.05,8.74,5.63,17.27,8.79,24.65,9.15Z" transform="translate(-52.78 -173.246)" fill="#fafafa"/>
        <path id="パス_1619" data-name="パス 1619" d="M156.621,345.76a1.1,1.1,0,0,0,.35-.05,1.05,1.05,0,0,0,.71-1.3l-13.85-46.68a1.043,1.043,0,1,0-2,.59L155.661,345a1.08,1.08,0,0,0,.96.76Z" transform="translate(-47.331 -173.246)" fill="#ff8d2c"/>
        <path id="パス_1620" data-name="パス 1620" d="M119.669,285.31a3.14,3.14,0,0,0,.88.94l23.12,16.31,37.3-22.8a3.153,3.153,0,0,0-3.29-5.38L143.949,295l-19.79-13.94a3.16,3.16,0,0,0-4.51,4.23Z" transform="translate(-49.489 -173.246)" fill="#37474f"/>
        <path id="パス_1621" data-name="パス 1621" d="M157.161,287.87c-4.58-2.95-8.51-.93-8.78,4.51s3.24,12.24,7.82,15.19,8.51.93,8.77-4.51S161.741,290.82,157.161,287.87Z" transform="translate(-61.171 -173.246)" fill="#ff8d2c"/>
      </g>
      <g id="freepik--character--inject-1--inject-95-2" data-name="freepik--character--inject-1--inject-95" transform="translate(59.454)">
        <path id="パス_1622" data-name="パス 1622" d="M141.576,127.8a7,7,0,0,0-4.9-1.55,18.27,18.27,0,0,1-2.74,0,3.52,3.52,0,0,1-2.88-1.82c-.13-.28-.2-.57-.33-.84-.21-.43-.55-.78-.78-1.2a2.76,2.76,0,0,1-.25-2,1.63,1.63,0,0,0,.11-.78,1.54,1.54,0,0,0-.35-.59,2.82,2.82,0,0,1-.26-2.87,4,4,0,0,0,.34-.73c.13-.55-.17-1.1-.19-1.66-.11-2.51,4.06-2.15,5.55-1.81.42.1,2.51.52,3.46.75a13.38,13.38,0,0,1,0-4.14c.35-2.65,2.88-3.9,3.18-2.34.17.89,0,3.39,1.07,5.47a11.66,11.66,0,0,1,1.53,3c.39,1.41.87,2.4,4,5.39,2.92,2.79,14,11.67,14,11.67s11.63-20.1,14.51-25.45c5.81-10.87,16.08-8.58,16.08-8.58l-2.2,14.43s-18.5,29.34-21.67,33.39-7.41,2.8-9.69.76C155.876,143.37,147.326,133.48,141.576,127.8Z" transform="translate(-128.92 -51.583)" fill="#b16668"/>
        <path id="パス_1623" data-name="パス 1623" d="M159.21,97.9s-8.78-2.09-13.08,2c-4,3.8-5.63,7-10.74,16.72-4.7,8.9-8,14-8,14s4.07,9,11.46,8.44l11.51-16.86Z" transform="translate(-93.874 -51.583)" fill="#ff8d2c"/>
        <path id="パス_1624" data-name="パス 1624" d="M159.21,97.9s-8.78-2.09-13.08,2c-4,3.8-5.63,7-10.74,16.72-4.7,8.9-8,14-8,14s4.07,9,11.46,8.44l11.51-16.86Z" transform="translate(-93.874 -51.583)" opacity="0.6"/>
        <path id="パス_1625" data-name="パス 1625" d="M183.91,113.63c1.18.34,1.94,1.15,2.27,3.23.2,1.24,1.13,3.36,2.63,4a3.29,3.29,0,0,1-1.88-.44c-.75-.54-.93-.58-1.22-.14a2.3,2.3,0,0,1-.83.69,1.63,1.63,0,0,1,.49,1.88c-.45,1.17-3.33,1.72-5.91.93,0,0,4.05.49,4.72-.88s-1.64-2.54-3.22-2.68c0,0,3.86.22,4.21-1.1s-1.35-2-3.63-2.11c0,0,3.16,0,3.5-1.13a1.92,1.92,0,0,0-1.13-2.25Z" transform="translate(-175.544 -51.583)" fill="#9a4a4d"/>
        <path id="パス_1626" data-name="パス 1626" d="M130.363,126.47s1.33,7.27.12,13.4-2.1,11.34-2.1,11.34,3.71,4.25,10.73,3.28c7.64-1.06,5.31-19.19.92-23.64a14.42,14.42,0,0,0-9.67-4.38Z" transform="translate(-79.758 -51.583)" fill="#ff8d2c"/>
        <path id="パス_1627" data-name="パス 1627" d="M130.363,126.47s1.33,7.27.12,13.4-2.1,11.34-2.1,11.34,3.71,4.25,10.73,3.28c7.64-1.06,5.31-19.19.92-23.64a14.42,14.42,0,0,0-9.67-4.38Z" transform="translate(-79.758 -51.583)" opacity="0.5"/>
        <path id="パス_1628" data-name="パス 1628" d="M142.84,272.65l-1-.16c0-3,.23-5.8-.5-7.24l1.46-3.69Z" transform="translate(-91.454 -51.583)" fill="#263238"/>
        <path id="パス_1629" data-name="パス 1629" d="M141.34,258.91c-.26,2.07-1.48,4.18-1.65,8.27a35.338,35.338,0,0,0,0,5.23l-1,.24V261.56Z" transform="translate(-87.304 -51.583)" fill="#263238"/>
        <path id="パス_1630" data-name="パス 1630" d="M138.417,275a2.76,2.76,0,0,0,.63,1.53c.52.41,2.15,1.78,7.49,1.58s7.23-1.48,9.08-3.11,2.43-6,2.74-8a15.2,15.2,0,0,1,3.9-8,3.52,3.52,0,0,0,.2-2.07,6.73,6.73,0,0,0-6.41,4.51c-2,4.84-3.62,10.48-7.95,11.74A66.861,66.861,0,0,1,138.417,275Z" transform="translate(-108.222 -51.583)" fill="#263238"/>
        <path id="パス_1631" data-name="パス 1631" d="M141.714,270.37c-1.66,1.37-2.91,2-2.79,3.28s1.48,1.93,2.58,2.28c2.6.84,5.57.57,8.2.16s5.59-1.59,6.74-4.09a10,10,0,0,0,.67-2.29,33.24,33.24,0,0,1,2.16-7.57,18,18,0,0,1,1.52-2.92,7.48,7.48,0,0,0,1.72-3.28c.13-1-.64-2.51-1.64-4.1h0a6.38,6.38,0,0,1-1.17-4.82l.43-7.53-11.9,2.59s.95,6.56,1,8.27a29.81,29.81,0,0,1-.77,7.49,37.75,37.75,0,0,1-3.2,8.48,8.19,8.19,0,0,1-1.27,1.9A21.43,21.43,0,0,1,141.714,270.37Z" transform="translate(-108.718 -51.583)" fill="#b16668"/>
        <path id="パス_1632" data-name="パス 1632" d="M162.423,253.8c-.73-1.35-1.75-2.18-2.45-3.35a13.091,13.091,0,0,0-1.46,3.21c-.34,1.06-1.3,6.27-2.68,10.41-1,3.11-2.68,4.73-4.93,5.53a8.94,8.94,0,0,1-4.41.41h0c-2.76-.44-2.07-2.41-2.07-2.41a34.94,34.94,0,0,1-5.34,4.23,2.25,2.25,0,0,0-.28,3.13c.76.68,3.35,2.35,10,1.53,5.89-.73,7.32-3.42,7.9-4.63a29.11,29.11,0,0,0,1.34-5.49,17.28,17.28,0,0,1,2.18-5.8,6.7,6.7,0,0,1,.4-.62h0a22.094,22.094,0,0,1,1.43-1.83c.42-.49.74-.72.87-1.19a4.47,4.47,0,0,0-.5-3.13Z" transform="translate(-108.587 -51.583)" fill="#37474f"/>
        <path id="パス_1633" data-name="パス 1633" d="M163.33,263.79l-1-.14c-.09-3,.06-5.8-.7-7.22l1.33-3.73Z" transform="translate(-132.234 -51.583)" fill="#263238"/>
        <path id="パス_1634" data-name="パス 1634" d="M162,250c-.2,2.07-1.36,4.21-1.41,8.31a33.651,33.651,0,0,0,.15,5.22l-1,.28-.37-11.11Z" transform="translate(-128.644 -51.583)" fill="#263238"/>
        <path id="パス_1635" data-name="パス 1635" d="M159.14,266.7a2.71,2.71,0,0,0,.68,1.51c.52.39,2.19,1.65,7.52,1.29s7.19-1.62,9-3.3,2.25-6,2.5-8.1a15.15,15.15,0,0,1,3.67-8.12,3.65,3.65,0,0,0,.14-2.08,6.74,6.74,0,0,0-6.28,4.69c-1.86,4.9-3.31,10.58-7.61,12a67.653,67.653,0,0,1-9.62,2.11Z" transform="translate(-149.154 -51.583)" fill="#263238"/>
        <path id="パス_1636" data-name="パス 1636" d="M162.384,262c-1.62,1.42-2.85,2.06-2.7,3.36s1.54,1.88,2.65,2.2a18,18,0,0,0,8.2-.07c2.69-.51,5.54-1.75,6.63-4.26a10.079,10.079,0,0,0,.61-2.31,33.18,33.18,0,0,1,1.94-7.62,16.871,16.871,0,0,1,1.44-3,7.5,7.5,0,0,0,1.62-3.34c.1-1-.71-2.49-1.76-4h0c-1.19-1.76-1.57-2.46-1.57-5.65l.38-6.67-11.83,2.93s.89,4.38,1.27,7.74a24.19,24.19,0,0,1-.45,8,37.671,37.671,0,0,1-3,8.57,8.06,8.06,0,0,1-1.2,1.94,22.437,22.437,0,0,1-2.23,2.18Z" transform="translate(-149.728 -51.583)" fill="#b16668"/>
        <path id="パス_1637" data-name="パス 1637" d="M182.511,244.55a34.867,34.867,0,0,0-2.38-2.86,11,11,0,0,0-1.41,2.94c-.48,1.36-1.09,6.53-2.34,10.7-.94,3.13-2.55,4.8-4.77,5.67a8.88,8.88,0,0,1-4.39.53h0c-2.78-.36-2.15-2.36-2.15-2.36a35,35,0,0,1-5.21,4.4,2.23,2.23,0,0,0-.19,3.13c.78.66,3.42,2.26,10,1.24,5.87-.9,7.22-3.63,7.77-4.86a29.86,29.86,0,0,0,1.17-5.52,17.19,17.19,0,0,1,2-5.87c.13-.23.26-.44.38-.62h0c.39-.59.86-1.24,1.38-1.88s.72-.74.84-1.21A5,5,0,0,0,182.511,244.55Z" transform="translate(-149.665 -51.583)" fill="#37474f"/>
        <path id="パス_1638" data-name="パス 1638" d="M182.17,166.77a39.081,39.081,0,0,0-3.67-9.48c-11.32,5.38-15.66,3.81-27.08.15-5.33,5.88-12.95,8.89-20.23,12.61s-15.54,7.6-20.1,12.3c-2.06,2.12-1.44,7.29-.4,13.93,1.41,9,7,37.44,7,37.44,7.75,2.76,11.75-1.82,11.75-1.82s1.22-12,2.2-21.68S129.17,196,129.17,196s23.27-8.82,32.07-10.64C175.9,182.28,184.08,180.41,182.17,166.77Z" transform="translate(-99.444 -51.583)" fill="#37474f"/>
        <path id="パス_1639" data-name="パス 1639" d="M158.754,171.94c-1-6.4-7.48-19.83-8.69-22.15-11.32,5.38-27.57,11.31-39,7.65a39.28,39.28,0,0,0,8.4,19.34c-17.21,12.58-20.74,17-24.94,22.18-1.16,1.45-2.29,4.43-1.6,8.58,1.47,9,6,37.09,6,37.09a13.62,13.62,0,0,0,11.64-1s1.41-10.64,2.39-20.32-.06-14.43-.06-14.43,23.24-10.36,32-14.4C159.744,187.72,159.774,178.33,158.754,171.94Z" transform="translate(-59.118 -51.583)" fill="#455a64"/>
        <path id="パス_1640" data-name="パス 1640" d="M126.805,98.3s12.72,1.47,14.25,2.15c-11.94,8.4-2.27,27.08-2.27,27.08l-4.58,14.34c1.9,5,8.06,11.45,9.94,19.36-16.57,10-37.57,8.1-44.39-3.79.35-5.79.3-14.55.83-18.23-.16-2.71.08-5.82-.23-10.25a12.77,12.77,0,0,1-2.7-14.82c4.74-9.4,12.88-16.24,15.48-16.24Z" transform="translate(-47.799 -51.583)" fill="#ff8d2c"/>
        <path id="パス_1641" data-name="パス 1641" d="M103.914,98.69s8,.65,10.33,1.76,6.22,7.83,2.74,17.6-6.63,21.23-6.27,23.54,6.62,15.7,6.62,15.7a9,9,0,0,1-6,4.24l-3.82-11.33,1.2,12.3s-7.9,1.63-13.37,1.16C95.344,163.66,95.224,124,103.914,98.69Z" transform="translate(-20.988 -51.583)" fill="#ff8d2c"/>
        <g id="グループ_338" data-name="グループ 338" transform="translate(74.356 47.107)" opacity="0.5">
          <path id="パス_1642" data-name="パス 1642" d="M103.914,98.69s8,.65,10.33,1.76,6.22,7.83,2.74,17.6-6.63,21.23-6.27,23.54,6.62,15.7,6.62,15.7a9.14,9.14,0,0,1-6,4.24l-3.82-11.33,1.2,12.3s-7.9,1.63-13.37,1.16C95.344,163.66,95.224,124,103.914,98.69Z" transform="translate(-95.344 -98.69)"/>
        </g>
        <path id="パス_1643" data-name="パス 1643" d="M122.97,51.88c11.81-.82,23.77,8.64,21.29,24.43-1.69,10.74-8,14.48-10,14.54l-12.09.49c-2.79-8.49-16.27-9.55-19.17-22.1S111.12,52.7,122.97,51.88Z" transform="translate(-54.394 -51.583)" fill="#263238"/>
        <path id="パス_1644" data-name="パス 1644" d="M90.541,57.1c4.71,1.51,7,5.57,8.32,10.09,1,3.33,1.54,6.81,2.94,10a10.37,10.37,0,0,0,1.79,2.89,19.451,19.451,0,0,0,3.59,2.62,7.55,7.55,0,0,1,3,3.18c.76,1.86-1,3.62-2.52,4.58a11,11,0,0,1-9.53.87,10.42,10.42,0,0,1-6.44-6.62,24.23,24.23,0,0,1-.94-8.71,22.548,22.548,0,0,0-1.36-9.24,6.66,6.66,0,0,0-2-2.77,12.16,12.16,0,0,0-2.93-1.4,5.12,5.12,0,0,1-2.59-1.9c-1.53-2.53,2.15-3.8,4-4a10.65,10.65,0,0,1,4.67.41Z" transform="translate(0.855 -51.583)" fill="#263238"/>
        <path id="パス_1645" data-name="パス 1645" d="M104.172,57.9l5.12-2.37a2.75,2.75,0,0,0-3.69-1.47,3,3,0,0,0-1.43,3.84Z" transform="translate(-20.506 -51.583)" fill="#263238"/>
        <path id="パス_1646" data-name="パス 1646" d="M110.322,57.19l1.07-5.52a2.72,2.72,0,0,0-3.35,2.1A3,3,0,0,0,110.322,57.19Z" transform="translate(-26.666 -51.583)" fill="#263238"/>
        <path id="パス_1647" data-name="パス 1647" d="M110.958,62.37c-3.91,2.19-5.41,7.36-4.31,19.25.93,10.07,4.37,12.34,6.07,12.94s4.82,0,7.87-.77l.35,4.21s-5,6.6-4.49,9.35,7.49,3.54,11.28.55,6.8-8.45,6.8-8.45l-1.05-14s1.94,1.63,4.82-1.27c2.39-2.39,3-6.19.86-8.06a4.43,4.43,0,0,0-6.93,1.88,30.84,30.84,0,0,1-12.25-3.77C113.548,70.75,111.528,66.47,110.958,62.37Z" transform="translate(-54.042 -51.583)" fill="#b16668"/>
        <path id="パス_1648" data-name="パス 1648" d="M125.286,77.66a1.3,1.3,0,0,0,1.29,1.34,1.33,1.33,0,0,0,0-2.65A1.3,1.3,0,0,0,125.286,77.66Z" transform="translate(-60.35 -51.583)" fill="#263238"/>
        <path id="パス_1649" data-name="パス 1649" d="M131.559,86.88,128.679,88a1.52,1.52,0,0,0,2,.93,1.62,1.62,0,0,0,.88-2.05Z" transform="translate(-67.613 -51.583)" fill="#9a4a4d"/>
        <path id="パス_1650" data-name="パス 1650" d="M136.433,75.13l2.83-1.33a1.51,1.51,0,0,0-2-.79A1.65,1.65,0,0,0,136.433,75.13Z" transform="translate(-82.847 -51.583)" fill="#263238"/>
        <path id="パス_1651" data-name="パス 1651" d="M135.233,77.66a1.28,1.28,0,1,0,1.25-1.35,1.31,1.31,0,0,0-1.25,1.35Z" transform="translate(-80.297 -51.583)" fill="#263238"/>
        <path id="パス_1652" data-name="パス 1652" d="M134.59,76.31l.65,8.27-4.1-.97Z" transform="translate(-73.654 -51.583)" fill="#9a4a4d"/>
        <path id="パス_1653" data-name="パス 1653" d="M115.56,93.79c3.21-.65,9.76-3,10.62-5.75a6.89,6.89,0,0,1-2.11,3.53c-1.88,1.85-8.37,4.24-8.37,4.24Z" transform="translate(-49.014 -51.583)" fill="#9a4a4d"/>
        <path id="パス_1654" data-name="パス 1654" d="M120.02,97.9l5.5,1.1s-2.55,11-9.34,13-9.33-2.2-9.33-2.2A24.85,24.85,0,0,0,120.02,97.9Z" transform="translate(-39.644 -51.583)" fill="#ff8d2c"/>
        <path id="パス_1655" data-name="パス 1655" d="M120.02,97.9l5.5,1.1s-2.55,11-9.34,13-9.33-2.2-9.33-2.2A24.85,24.85,0,0,0,120.02,97.9Z" transform="translate(-39.644 -51.583)" fill="#fff" opacity="0.7"/>
        <path id="パス_1656" data-name="パス 1656" d="M132.514,98s-3.8,8.62.31,11.81c0,0-5.44,1.62-6.89-.68s1.2-8.85,3.47-11.37Z" transform="translate(-65.618 -51.583)" fill="#ff8d2c"/>
        <path id="パス_1657" data-name="パス 1657" d="M132.514,98s-3.8,8.62.31,11.81c0,0-5.44,1.62-6.89-.68s1.2-8.85,3.47-11.37Z" transform="translate(-65.618 -51.583)" fill="#fff" opacity="0.7"/>
        <path id="パス_1658" data-name="パス 1658" d="M182,189.12v.95a2.74,2.74,0,0,1-1.31,2.36L155.18,207.6a2.69,2.69,0,0,1-2.69,0l-47.57-26.56a2.7,2.7,0,0,1-1.39-2.32v-.65l50.3,28.11Z" transform="translate(-92.804 -51.583)" fill="#ebebeb"/>
        <path id="パス_1659" data-name="パス 1659" d="M103.543,178.11l27.74-16.55a1.6,1.6,0,0,1,1.61,0l48.93,27.32a.36.36,0,0,1,0,.62l-28,16.71Z" transform="translate(-92.817 -51.583)" fill="#fafafa"/>
        <path id="パス_1660" data-name="パス 1660" d="M161.08,203.8l14.96-8.92-44.49-24.83-15.04,8.88Z" transform="translate(-99.824 -51.583)" fill="#e0e0e0"/>
        <path id="パス_1661" data-name="パス 1661" d="M145.56,179.49l-.28.17-7.33,4.37-13.26-7.4-.28-.15,7.61-4.54Z" transform="translate(-77.244 -51.583)" fill="#e0e0e0"/>
        <path id="パス_1662" data-name="パス 1662" d="M145.28,179.66l-7.33,4.37-13.26-7.4,7.34-4.38Z" transform="translate(-77.244 -51.583)" fill="#e6e6e6"/>
        <path id="パス_1663" data-name="パス 1663" d="M182.01,206.18v1.8a2.79,2.79,0,0,1-1.35-.34l-47.57-26.56a2.7,2.7,0,0,1-1.39-2.32v-.65Z" transform="translate(-120.984 -51.583)" fill="#ebebeb"/>
        <g id="グループ_339" data-name="グループ 339" transform="translate(10.716 126.527)" opacity="0.5" style="mix-blend-mode: multiply;isolation: isolate">
          <path id="パス_1664" data-name="パス 1664" d="M182.01,206.18v1.8a2.79,2.79,0,0,1-1.35-.34l-47.57-26.56a2.7,2.7,0,0,1-1.39-2.32v-.65Z" transform="translate(-131.7 -178.11)" fill="#e0e0e0"/>
        </g>
        <path id="パス_1665" data-name="パス 1665" d="M189.79,206.59a3.19,3.19,0,0,1-2.76-.17L139.67,180a3.23,3.23,0,0,1-1.59-2.21L132.5,147.2a3.22,3.22,0,0,1,.86-2.81l49.22,27.48a2.37,2.37,0,0,1,1.17,1.64Z" transform="translate(-129.514 -51.583)" fill="#ff8d2c"/>
        <g id="グループ_340" data-name="グループ 340" transform="translate(2.936 92.807)" opacity="0.7">
          <path id="パス_1666" data-name="パス 1666" d="M189.79,206.59a3.19,3.19,0,0,1-2.76-.17L139.67,180a3.23,3.23,0,0,1-1.59-2.21L132.5,147.2a3.22,3.22,0,0,1,.86-2.81l49.22,27.48a2.37,2.37,0,0,1,1.17,1.64Z" transform="translate(-132.45 -144.39)" fill="#fff"/>
        </g>
        <path id="パス_1667" data-name="パス 1667" d="M188.84,206.18l-.32.19a3.48,3.48,0,0,1-.43.22l-6-33.1a2.37,2.37,0,0,0-1.17-1.64L131.7,144.37a4,4,0,0,1,.64-.51l49.32,27.53a2.35,2.35,0,0,1,1.17,1.64Z" transform="translate(-127.814 -51.583)" fill="#fafafa"/>
        <path id="パス_1668" data-name="パス 1668" d="M167.607,178.67c-.37-2-2.53-4.75-4.82-6s-3.84-.65-3.47,1.4,2.54,4.74,4.83,6S167.987,180.71,167.607,178.67Z" transform="translate(-134.201 -51.583)" fill="#ff8d2c"/>
        <path id="パス_1669" data-name="パス 1669" d="M101.142,184.18c2.59-1.78,19.07-13.76,25.66-18.87,6.85-5.31,6.43-7,5.6-10.85-1.64-7.57-10.1-31.82-13-38.89-3.2-7.89-4.21-13.26-9.85-14.27-4.3,3.39-7.56,11.43-2.68,25.61l9.25,27.63s-7.06,8.37-11.7,12.71-8.75,8.41-12.09,9.39c-3,.88-6.45,1.48-7.5,2.44a81.878,81.878,0,0,0-7.08,8.21c-1,1.62-3.32,4.9,0,6,3,1,5.49-.34,8-2a31.147,31.147,0,0,0,3.29-2.72,12,12,0,0,0,7.11-1.41C98.012,186,101.142,184.18,101.142,184.18Z" transform="translate(-16.157 -51.583)" fill="#b16668"/>
        <path id="パス_1670" data-name="パス 1670" d="M83.012,100.45c5,.85,6.45,4.32,10.16,14,2.61,6.81,12,36.52,12,36.52s-5.22,6-15.36,3.55l-11.7-31.68S74.382,107.84,83.012,100.45Z" transform="translate(10.244 -51.583)" fill="#ff8d2c"/>
        <g id="グループ_341" data-name="グループ 341" transform="translate(87.554 48.867)" opacity="0.6">
          <path id="パス_1671" data-name="パス 1671" d="M83.012,100.45c5,.85,6.45,4.32,10.16,14,2.61,6.81,12,36.52,12,36.52s-5.22,6-15.36,3.55l-11.7-31.68S74.382,107.84,83.012,100.45Z" transform="translate(-77.31 -100.45)"/>
        </g>
      </g>
    </g>
  </g>
</svg>
