<?xml version="1.0" encoding="UTF-8" standalone="no"?>
<svg
   xmlns:dc="http://purl.org/dc/elements/1.1/"
   xmlns:cc="http://creativecommons.org/ns#"
   xmlns:rdf="http://www.w3.org/1999/02/22-rdf-syntax-ns#"
   xmlns:svg="http://www.w3.org/2000/svg"
   xmlns="http://www.w3.org/2000/svg"
   xmlns:xlink="http://www.w3.org/1999/xlink"
   xmlns:sodipodi="http://sodipodi.sourceforge.net/DTD/sodipodi-0.dtd"
   xmlns:inkscape="http://www.inkscape.org/namespaces/inkscape"
   id="Layer_1"
   data-name="Layer 1"
   viewBox="0 0 414.13 326.54332"
   width="271.229"
   height="254.26599"
   class="illustration"
   version="1.1"
   sodipodi:docname="service005.svg"
   inkscape:version="1.0.2 (e86c870879, 2021-01-15, custom)">
  <metadata
     id="metadata113">
    <rdf:RDF>
      <cc:Work
         rdf:about="">
        <dc:format>image/svg+xml</dc:format>
        <dc:type
           rdf:resource="http://purl.org/dc/dcmitype/StillImage" />
        <dc:title>Analyza Data and chart</dc:title>
      </cc:Work>
    </rdf:RDF>
  </metadata>
  <sodipodi:namedview
     pagecolor="#ffffff"
     bordercolor="#666666"
     borderopacity="1"
     objecttolerance="10"
     gridtolerance="10"
     guidetolerance="10"
     inkscape:pageopacity="0"
     inkscape:pageshadow="2"
     inkscape:window-width="1920"
     inkscape:window-height="1002"
     id="namedview111"
     showgrid="false"
     inkscape:zoom="1.982672"
     inkscape:cx="177.02455"
     inkscape:cy="97.059667"
     inkscape:window-x="-8"
     inkscape:window-y="-8"
     inkscape:window-maximized="1"
     inkscape:current-layer="Layer_1"
     inkscape:document-rotation="0" />
  <defs
     id="defs30">
    <linearGradient
       id="linear-gradient"
       x1="361.95999"
       y1="-94.790001"
       x2="341.39999"
       y2="280.85999"
       gradientUnits="userSpaceOnUse"
       gradientTransform="matrix(1.0026433,0,0,1.0026433,-393.54035,3.6416774)">
      <stop
         offset="0.02"
         stop-color="#fff"
         stop-opacity="0"
         id="stop2" />
      <stop
         offset="0.14"
         stop-color="#fff"
         stop-opacity="0.6"
         id="stop4" />
      <stop
         offset="0.32"
         stop-color="#fff"
         stop-opacity="0.69"
         id="stop6" />
      <stop
         offset="0.68"
         stop-color="#fff"
         stop-opacity="0.8"
         id="stop8" />
      <stop
         offset="1"
         stop-color="#fff"
         id="stop10" />
    </linearGradient>
    <linearGradient
       id="linear-gradient-2"
       x1="276.72"
       y1="-291.89999"
       x2="256.14999"
       y2="83.75"
       gradientUnits="userSpaceOnUse">
      <stop
         offset="0.02"
         stop-color="#fff"
         stop-opacity="0"
         id="stop13" />
      <stop
         offset="0.32"
         stop-color="#fff"
         stop-opacity="0.9"
         id="stop15" />
      <stop
         offset="0.68"
         stop-color="#fff"
         stop-opacity="1"
         id="stop17" />
      <stop
         offset="1"
         stop-color="#fff"
         id="stop19" />
    </linearGradient>
    <linearGradient
       id="linear-gradient-3"
       x1="99.559998"
       y1="-203.95"
       x2="78.989998"
       y2="171.7"
       xlink:href="#linear-gradient-2"
       gradientTransform="matrix(0.98767235,0,0,0.98767235,-407.90104,11.388077)" />
    <linearGradient
       id="linear-gradient-4"
       x1="78.900002"
       y1="-97.110001"
       x2="58.34"
       y2="278.54001"
       xlink:href="#linear-gradient-2"
       gradientTransform="matrix(1.0777628,0,0,1.0777628,-416.43359,-6.338696)" />
    <linearGradient
       id="linear-gradient-5"
       x1="171.99001"
       y1="198.08"
       x2="209.46001"
       y2="249.88"
       xlink:href="#linear-gradient-2"
       gradientTransform="matrix(-1.0777628,0,0,1.0777628,427.18966,-43.435291)" />
    <linearGradient
       id="linear-gradient-6"
       x1="136.72"
       y1="253.92999"
       x2="91.040001"
       y2="293.64001"
       gradientUnits="userSpaceOnUse"
       gradientTransform="matrix(-1.0777628,0,0,1.0777628,427.18966,-43.435291)">
      <stop
         offset="0"
         stop-opacity="0"
         id="stop25" />
      <stop
         offset="0.99"
         id="stop27" />
    </linearGradient>
    <linearGradient
       inkscape:collect="always"
       xlink:href="#linear-gradient-2"
       id="linearGradient115"
       gradientUnits="userSpaceOnUse"
       x1="276.72"
       y1="-291.89999"
       x2="256.14999"
       y2="83.75"
       gradientTransform="matrix(1.0109899,0,0,1.0109899,-402.19636,1.075789)" />
  </defs>
  <title
     id="title32">Analyza Data and chart</title>
  <path
     d="m 9.2790137,225.65597 c 7.2540293,13.36928 20.3846213,23.8107 24.0215533,38.52757 1.575671,6.35016 1.209001,13.01058 1.981981,19.50617 2.854035,22.76365 20.295433,41.73659 41.096273,52.48825 0.872068,0.46537 1.754052,0.89193 2.636027,1.31851 13.645907,6.52468 28.431442,10.08271 43.504372,12.30284 9.16665,1.3379 18.4423,2.17166 27.63867,2.90847 q 57.3485,4.44028 114.95463,3.23811 c 18.54137,-0.36841 37.44943,-1.23126 54.89082,-7.2518 0.89189,-0.30054 1.77385,-0.62047 2.65584,-0.96949 14.15131,-5.38068 26.70715,-14.19336 37.82603,-24.29546 l 0.5054,-0.46535 c 16.58914,-15.16283 30.2945,-33.47653 39.16385,-53.92309 a 143.87166,140.75073 0 0 0 6.30268,-92.31496 c -5.24232,-18.17796 -14.39906,-35.51246 -15.8558,-54.2915 -1.06036,-14.15459 2.33873,-28.483664 0.0694,-42.502507 -4.48921,-27.824398 -30.92878,-48.309747 -58.84492,-55.20283 -27.91613,-6.893081 -57.29893,-2.966641 -85.80966,0.969492 -13.93329,1.938983 -30.23504,7.14515 -44.01968,2.976338 -16.91618,-5.128608 -31.18641,-11.46908 -49.44041,-11.507859 -7.46212,0 -15.07293,0.765897 -21.91074,3.693761 -8.28466,3.538641 -14.86482,9.956673 -21.5738,15.860876 C 90.292281,53.20286 68.886936,66.523669 49.691504,82.520275 30.496052,98.516883 13.114129,117.98427 6.08802,141.65925 c -3.458549,11.57571 -4.3107972,23.74283 -4.6774661,35.79361 -0.53513679,16.46196 0.0099,33.67043 7.8684513,48.20311 z"
     fill="#ff8d2c"
     opacity="0.7"
     style="isolation:isolate;stroke-width:0.980159"
     id="path34" />
  <rect
     x="-312.6127"
     y="115.55629"
     width="244.57669"
     height="174.18802"
     rx="16.457438"
     fill="#ff8d2c"
     id="rect36"
     style="stroke-width:1.07776"
     transform="scale(-1,1)" />
  <rect
     x="-297.6857"
     y="127.99366"
     width="214.72267"
     height="145.75664"
     fill="#ffffff"
     id="rect38"
     style="stroke-width:1.07776"
     transform="scale(-1,1)" />
  <rect
     x="-199.21049"
     y="195.82802"
     width="6.4019108"
     height="58.533298"
     fill="#ff8d2c"
     id="rect40"
     style="stroke-width:1.07776"
     transform="scale(-1,1)" />
  <rect
     x="-188.07721"
     y="205.39856"
     width="6.4019108"
     height="48.962765"
     fill="#ff8d2c"
     id="rect42"
     style="stroke-width:1.07776"
     transform="scale(-1,1)" />
  <rect
     x="-177.17026"
     y="214.13922"
     width="6.4019108"
     height="40.222107"
     fill="#ff8d2c"
     id="rect44"
     style="stroke-width:1.07776"
     transform="scale(-1,1)" />
  <rect
     x="-166.03697"
     y="205.39856"
     width="6.4019108"
     height="48.962765"
     fill="#ff8d2c"
     id="rect46"
     style="stroke-width:1.07776"
     transform="scale(-1,1)" />
  <rect
     x="-155.13"
     y="225.08928"
     width="6.4019108"
     height="29.272038"
     fill="#ff8d2c"
     id="rect48"
     style="stroke-width:1.07776"
     transform="scale(-1,1)" />
  <rect
     x="-143.9967"
     y="205.39856"
     width="6.4019108"
     height="48.962765"
     fill="#ff8d2c"
     id="rect50"
     style="stroke-width:1.07776"
     transform="scale(-1,1)" />
  <rect
     x="-133.08975"
     y="220.09924"
     width="6.4019108"
     height="34.262081"
     fill="#ff8d2c"
     id="rect52"
     style="stroke-width:1.07776"
     transform="scale(-1,1)" />
  <rect
     x="-121.95645"
     y="213.50333"
     width="6.4019108"
     height="40.857986"
     fill="#ff8d2c"
     id="rect54"
     style="stroke-width:1.07776"
     transform="scale(-1,1)" />
  <rect
     x="-274.22278"
     y="231.44809"
     width="36.611603"
     height="2.1339703"
     fill="#ff8d2c"
     id="rect56"
     style="stroke-width:1.07776"
     transform="scale(-1,1)" />
  <rect
     x="-274.22278"
     y="237.36499"
     width="36.611603"
     height="2.1339703"
     fill="#ff8d2c"
     id="rect58"
     style="stroke-width:1.07776"
     transform="scale(-1,1)" />
  <rect
     x="-274.22278"
     y="243.29269"
     width="36.611603"
     height="2.1339703"
     fill="#ff8d2c"
     id="rect60"
     style="stroke-width:1.07776"
     transform="scale(-1,1)" />
  <rect
     x="-274.22278"
     y="249.22038"
     width="36.611603"
     height="2.1339703"
     fill="#ff8d2c"
     id="rect62"
     style="stroke-width:1.07776"
     transform="scale(-1,1)" />
  <rect
     x="-274.22278"
     y="255.14809"
     width="36.611603"
     height="2.1339703"
     fill="#ff8d2c"
     id="rect64"
     style="stroke-width:1.07776"
     transform="scale(-1,1)" />
  <rect
     x="-224.45171"
     y="231.44809"
     width="36.611603"
     height="26.308189"
     fill="none"
     id="rect66"
     style="stroke-width:1.07776"
     transform="scale(-1,1)" />
  <path
     d="m 236.85676,156.48971 a 23.81866,23.81866 0 0 1 0.14011,47.63711 v -8.29877 h 0.097 a 15.756892,15.756892 0 1 0 -15.7569,-15.75689 14.215691,14.215691 0 0 0 0.17245,2.25252 h -8.37422 a 18.020194,18.020194 0 0 1 -0.097,-2.01541 23.80778,23.80778 0 0 1 23.81856,-23.81856 z"
     fill="#ff8d2c"
     id="path68"
     style="stroke-width:1.07776" />
  <rect
     x="-80.284523"
     y="136.85286"
     width="70.556015"
     height="69.232529"
     rx="7.4897456"
     fill="url(#linear-gradient)"
     id="rect70"
     style="fill:url(#linear-gradient);stroke-width:1.00264"
     transform="scale(-1,1)" />
  <rect
     x="-177.90825"
     y="34.499119"
     width="71.143364"
     height="69.808861"
     rx="7.5520949"
     fill="url(#linear-gradient-2)"
     id="rect72"
     style="fill:url(#linearGradient115);stroke-width:1.01099"
     transform="scale(-1,1)" />
  <rect
     x="-358.58655"
     y="36.435452"
     width="69.502502"
     height="68.198776"
     rx="7.3779125"
     fill="url(#linear-gradient-3)"
     id="rect74"
     style="fill:url(#linear-gradient-3);stroke-width:0.98767"
     transform="scale(-1,1)" />
  <rect
     x="-384.68271"
     y="132.56337"
     width="75.842171"
     height="74.419525"
     rx="8.0508881"
     fill="url(#linear-gradient-4)"
     id="rect76"
     style="fill:url(#linear-gradient-4);stroke-width:1.07776"
     transform="scale(-1,1)" />
  <polygon
     points="313.03,160.56 290.04,160.56 277.09,210.29 276.31,210.09 289.41,159.75 313.03,159.75 "
     fill="#ff8d2c"
     id="polygon78"
     transform="matrix(-1.0777628,0,0,1.0777628,416.43359,-6.338696)" />
  <polygon
     points="210.43,81.47 221.92,81.47 221.92,82.28 211.05,82.28 181.58,181.41 180.89,181.34 "
     fill="#ff8d2c"
     id="polygon80"
     transform="matrix(-1.0777628,0,0,1.0777628,416.43359,-6.338696)" />
  <polygon
     points="164.99,158.17 139.03,76.73 118.76,76.73 118.76,75.92 139.62,75.92 139.71,76.21 165.76,157.92 "
     fill="#ff8d2c"
     id="polygon82"
     transform="matrix(-1.0777628,0,0,1.0777628,416.43359,-6.338696)" />
  <polygon
     points="116.96,167.63 135.67,188.48 135.06,189.02 116.6,168.44 98.5,168.44 98.5,167.63 "
     fill="#ff8d2c"
     id="polygon84"
     transform="matrix(-1.0777628,0,0,1.0777628,416.43359,-6.338696)" />
  <path
     d="m 213.1352,182.61468 a 23.786224,23.786224 0 0 0 23.71078,21.80314 h 0.14011 v -8.288 a 15.746114,15.746114 0 0 1 -15.48745,-13.51514 z"
     fill="#ff8d2c"
     id="path86"
     style="stroke-width:1.07776" />
  <path
     d="m 213.1352,182.32368 a 23.786224,23.786224 0 0 0 23.71078,21.80314 h 0.14011 v -8.29877 a 15.735336,15.735336 0 0 1 -15.48745,-13.50437 z"
     fill="url(#linear-gradient-5)"
     id="path88"
     style="fill:url(#linear-gradient-5);stroke-width:1.07776" />
  <polygon
     points="129.63,224.13 116.87,217.03 111.93,198.1 122.22,176.49 145.99,190.38 "
     fill="#ff8d2c"
     id="polygon90"
     transform="matrix(-1.0777628,0,0,1.0777628,416.43359,-6.338696)" />
  <polygon
     points="127.26,220.33 117.18,212.61 113.88,195.94 122.53,179.17 142.08,190.59 "
     fill="#ffffff"
     id="polygon92"
     transform="matrix(-1.0777628,0,0,1.0777628,416.43359,-6.338696)" />
  <path
     d="m 294.44162,262.14279 -7.36112,45.54626 7.36112,45.49237 -4.14938,3.23328 6.81146,-0.29099 -0.59277,-47.02279 12.7176,-33.11965 -1.5412,34.39141 7.415,44.33916 -3.23328,1.76753 7.39345,-0.291 -3.16862,-45.97736 5.76603,-27.49372 c 0,0 5.08704,-19.98173 0,-23.23657 -5.08704,-3.25484 -27.41829,2.66207 -27.41829,2.66207 z"
     fill="#3e3e54"
     id="path94"
     style="stroke-width:1.07776" />
  <path
     d="m 321.35336,193.82341 c 0,0 -17.90164,2.00464 -22.33125,5.23793 -4.4296,3.23329 -9.02087,8.36344 -9.02087,12.50205 0,4.13861 -1.77831,24.54066 -1.77831,24.54066 l -7.39345,-17.14721 -4.13861,2.3603 c 0,0 4.73138,29.7247 7.39345,30.60846 2.66208,0.88377 9.90464,-1.07776 9.90464,-1.07776 l 0.45266,11.24107 c 0,0 24.24966,2.3603 27.49373,-2.66208 3.24407,-5.02237 10.90696,-57.39087 -0.58199,-65.60342 z"
     fill="#ff8d2c"
     id="path96"
     style="stroke-width:1.07776" />
  <path
     d="m 305.98446,188.20827 c 0,0 2.15553,4.55893 1.00232,8.28799 0,0 6.6498,-0.90532 6.8438,-1.69208 0.19399,-0.78677 -0.82988,-7.7599 -0.0647,-9.90464 0.76521,-2.14475 -7.78145,3.30873 -7.78145,3.30873 z"
     fill="#eea886"
     id="path98"
     style="stroke-width:1.07776" />
  <path
     d="m 313.13003,169.64919 c -2.61896,-1.07776 -9.78609,-2.6944 -12.43738,8.00778 -2.6513,10.70219 1.37953,11.21951 5.55048,11.26262 4.17094,0.0431 11.19795,-6.73602 11.85539,-8.92387 0.65743,-2.18786 2.47885,-7.13479 -4.96849,-10.34653 z"
     fill="#eea886"
     id="path100"
     style="stroke-width:1.07776" />
  <path
     d="m 280.45226,213.99913 a 2.9099595,2.9099595 0 0 0 -0.10777,-0.86221 c -0.24789,-0.78677 -1.07777,-1.21787 -1.53043,-1.91842 a 3.9338341,3.9338341 0 0 1 -0.4311,-1.4442 3.502729,3.502729 0 0 0 -0.35566,-1.28254 1.1532062,1.1532062 0 0 0 -1.07777,-0.63588 c -0.60354,0.0862 -0.9161,0.75444 -1.07776,1.33643 a 16.554436,16.554436 0 0 0 0.43111,10.77763 c 0.19399,0.50655 0.54965,1.07776 1.07776,1.07776 a 1.2933153,1.2933153 0 0 0 0.51732,-0.18322 c 1.07777,-0.58199 2.60819,-1.07776 2.66208,-2.33874 0.0539,-1.54121 -0.0754,-3.05007 -0.10778,-4.52661 z"
     fill="#eea886"
     id="path102"
     style="stroke-width:1.07776" />
  <path
     d="m 277.95185,210.23774 5.02238,-4.70982 0.44188,0.88376 -4.60205,4.82838 c 0,0 -0.93765,-0.32333 -0.86221,-1.00232 z"
     fill="#ff8d2c"
     id="path104"
     style="stroke-width:1.07776" />
  <path
     d="m 293.98896,250.90173 c 0,0 2.59741,-1.07776 3.48118,-8.6221 0.88376,-7.54434 1.99386,-15.30423 1.99386,-15.30423 v 35.45839 h -5.91692 z"
     fill="url(#linear-gradient-6)"
     id="path106"
     style="fill:url(#linear-gradient-6);stroke-width:1.07776" />
  <path
     d="m 305.12225,167.31045 a 5.1948166,5.1948166 0 0 1 2.43575,-2.73752 2.8237385,2.8237385 0 0 1 2.73751,-0.15089 2.780628,2.780628 0 0 1 2.25253,-1.13165 3.6967263,3.6967263 0 0 1 2.15552,0.33411 1.7783086,1.7783086 0 0 1 0.9161,1.89686 11.35962,11.35962 0 0 1 3.23329,0 2.3926334,2.3926334 0 0 1 0.94843,0.30178 2.3279676,2.3279676 0 0 1 0.75443,1.07776 11.025513,11.025513 0 0 1 0.9161,4.31105 4.5589365,4.5589365 0 0 1 1.90764,3.4704 4.6236023,4.6236023 0 0 1 -1.56275,3.65361 5.2379271,5.2379271 0 0 1 -0.58199,4.21405 3.6105053,3.6105053 0 0 1 -3.80451,1.55198 c 0,0.64666 -0.0862,1.43343 -0.67899,1.72442 a 1.4873126,1.4873126 0 0 1 -0.65743,0.10778 4.9577088,4.9577088 0 0 1 -1.84298,-0.388 3.4057304,3.4057304 0 0 1 0,1.50887 1.1639838,1.1639838 0 0 1 -1.07776,0.88377 1.7244204,1.7244204 0 0 1 -0.94843,-0.54966 4.9038206,4.9038206 0 0 1 -1.57353,-2.09086 20.951708,20.951708 0 0 1 -0.194,-2.33875 c -0.17244,-0.91609 -0.75444,-1.81064 -0.51733,-2.70518 0.23711,-0.89454 0.98077,-1.29332 1.55198,-1.88609 0.57121,-0.59277 0.9161,-1.64897 0.291,-2.15552 -0.62511,-0.50655 -1.5412,-0.0539 -2.10164,0.50655 -0.28022,0.26944 -0.67899,0.58199 -1.00232,0.37721 -0.32333,-0.20477 -0.22633,-0.63588 -0.10778,-0.9592 a 13.5367,13.5367 0 0 0 0.74366,-2.15553 2.2525242,2.2525242 0 0 0 -0.60355,-2.15553 c -0.92687,-0.78676 -2.42496,-0.34488 -3.33028,-1.07776 -0.90533,-0.73288 -0.60355,-2.50041 -0.25867,-3.43806 z"
     fill="#3e3e54"
     id="path108"
     style="stroke-width:1.07776" />
</svg>
