<svg xmlns="http://www.w3.org/2000/svg" xmlns:xlink="http://www.w3.org/1999/xlink" width="291.433" height="290.986" viewBox="0 0 291.433 290.986">
  <defs>
    <linearGradient id="linear-gradient" x1="0.195" y1="0.578" x2="0.377" y2="0.547" gradientUnits="objectBoundingBox">
      <stop offset="0" stop-color="#faa85d"/>
      <stop offset="1" stop-color="#fed7b3"/>
    </linearGradient>
    <linearGradient id="linear-gradient-2" x1="0.513" y1="0.493" x2="0.555" y2="0.176" gradientUnits="objectBoundingBox">
      <stop offset="0" stop-color="#c9d5e3"/>
      <stop offset="1" stop-color="#f4f5fb"/>
    </linearGradient>
    <linearGradient id="linear-gradient-3" x1="0.394" y1="0.671" x2="0.716" y2="0.202" xlink:href="#linear-gradient"/>
    <linearGradient id="linear-gradient-4" x1="0.579" y1="0.501" x2="1.319" y2="0.535" gradientUnits="objectBoundingBox">
      <stop offset="0" stop-color="#151d2c"/>
      <stop offset="1" stop-color="#454e5b"/>
    </linearGradient>
    <linearGradient id="linear-gradient-5" x1="0.491" y1="0.478" x2="1.176" y2="0.331" xlink:href="#linear-gradient-4"/>
    <linearGradient id="linear-gradient-6" x1="0.304" y1="0.753" x2="0.573" y2="0.351" xlink:href="#linear-gradient"/>
    <linearGradient id="linear-gradient-7" x1="0.279" y1="0.833" x2="0.797" y2="0.151" gradientUnits="objectBoundingBox">
      <stop offset="0" stop-color="#c9d5e3"/>
      <stop offset="0.56" stop-color="#e2e7f0"/>
      <stop offset="1" stop-color="#f4f5fb"/>
    </linearGradient>
    <linearGradient id="linear-gradient-8" x1="0.447" y1="0.398" x2="0.599" y2="-0.011" gradientUnits="objectBoundingBox">
      <stop offset="0"/>
      <stop offset="1" stop-color="#262525"/>
    </linearGradient>
    <linearGradient id="linear-gradient-9" x1="0.952" y1="0.773" x2="-0.329" gradientUnits="objectBoundingBox">
      <stop offset="0" stop-color="#faa85d"/>
      <stop offset="1" stop-color="#ffead2"/>
    </linearGradient>
    <linearGradient id="linear-gradient-10" x1="0.439" y1="0.78" x2="0.53" y2="0.11" xlink:href="#linear-gradient-7"/>
    <linearGradient id="linear-gradient-11" x1="0.502" y1="0.556" x2="0.496" y2="0.006" gradientUnits="objectBoundingBox">
      <stop offset="0" stop-color="#253453"/>
      <stop offset="1" stop-color="#0a5791"/>
    </linearGradient>
  </defs>
  <g id="グループ_383" data-name="グループ 383" transform="translate(-834.817 -4581.406)">
    <g id="グループ_32" data-name="グループ 32" transform="translate(834.817 4581.406)">
      <path id="パス_3" data-name="パス 3" d="M223.368,106.789c-40.479,0-78.589,2.028-73.3,3.2,23.774,5.257,158.818,2.632,145.885-.442C291.022,107.994,260.417,106.789,223.368,106.789Z" transform="translate(-11.653 145.283)" fill="#8cbae6" fill-rule="evenodd"/>
      <g id="グループ_29" data-name="グループ 29" transform="translate(131.674 0)">
        <path id="パス_4" data-name="パス 4" d="M182.5,71.9l10.538-4.4-.535.2-.532.2-.517.219-.517.237-.493.246-.5.255-.493.276-.484.288-.484.3-.466.306-.472.333-.463.336-.454.351-.442.369-.454.382-.433.391-.433.4-.412.421-.412.433-.411.442-.394.466-.369.472-.369.484-.348.493-.33.517-.33.526-.306.535-.309.544-.285.568-.27.577-.267.586-.246.607-.249.607-.222.628-.21.649-.2.646-.186.673-.174.679-.165.688-.153.709-.135.724-.123.73-.114.739-.1.751-.081.772-.084.781-.06.805-.042.8-.039.823-.033.844-10.526,4.4.018-.832.039-.826.045-.811.063-.793.081-.781.081-.772.1-.76.117-.742.132-.733.123-.718.162-.709.156-.694.177-.676.183-.67.2-.649.216-.64.216-.628.246-.616.249-.607.267-.586.267-.577.285-.556.309-.556.312-.535.327-.526.339-.5.339-.5.372-.481.369-.475.391-.466.412-.439.412-.436.412-.409.433-.412.445-.394.442-.382.451-.37.454-.348.451-.342.475-.327.475-.306.475-.3.493-.288.5-.279L179.9,73l.5-.249.5-.225.523-.225.529-.207.532-.2ZM176.24,224.936l10.538-4.407,1.133-.493,1.174-.445,1.181-.382,1.217-.306,1.226-.246,1.256-.177,1.274-.111,1.3-.042,1.289.042,1.265.111,1.256.177,1.235.246,1.214.306,1.2.382,1.16.445,1.145.493,1.111.565,1.069.619,1.048.67,1.03.73.976.784.949.832.913.874.868.928.832.976.784,1.018.751,1.051.7,1.1.646,1.133.61,1.172.556,1.208.493,1.244.454,1.277.391,1.295.34,1.331.279,1.358.222,1.379.156,1.4.093,1.418.042,1.442-.042,1.439-.093,1.421-.156,1.4-.222,1.379-.279,1.358-.34,1.325-.391,1.3-.454,1.277-.493,1.235-.556,1.2-.61,1.184-.646,1.133-.7,1.1-.751,1.048-.784,1.021-.832.967-.868.925-.913.886-.949.832-.976.772-1.03.73-1.048.682-1.069.616-10.538,4.407,1.081-.619,1.048-.67,1.018-.73.988-.784.946-.832.907-.874.865-.928.832-.976.793-1.009.739-1.057.7-1.1.649-1.13.607-1.175.556-1.2.5-1.247.451-1.274.391-1.3.339-1.328.279-1.349.225-1.391.165-1.4.081-1.421.042-1.439-.042-1.442-.081-1.421-.165-1.4-.225-1.379-.279-1.361-.339-1.325-.391-1.3-.451-1.274-.5-1.238-.556-1.2-.607-1.175-.649-1.139-.7-1.1-.739-1.048-.793-1.021-.832-.964-.865-.928-.907-.886L201,228.3l-.988-.772L199,226.8l-1.048-.682-1.081-.616-1.114-.565-1.133-.5L193.447,224l-1.184-.382-1.214-.306-1.235-.249-1.256-.174-1.265-.114-1.3-.03-1.286.03-1.277.114-1.244.174-1.247.249-1.2.306-1.193.382-1.175.442-1.133.5ZM162.43,31.112l1.709-.493,1.727-.463,1.748-.424,1.781-.391,1.8-.36,1.829-.318,1.854-.288,1.871-.258,1.9-.216,1.929-.186,1.953-.15,1.977-.126,2.007-.081,2.028-.051,2.058-.009,2.2.009,2.172.06,2.148.1,2.115.135,2.088.174,2.058.216,2.016.246,2,.3,1.977.327,1.935.373,1.9.412,1.884.442,1.841.484,1.82.526,1.79.565,1.76.61,1.727.646,1.7.679,1.667.721,1.646.751,1.6.8,1.586.844,1.553.874,1.523.916,1.493.958,1.463.988,1.439,1.027,1.4,1.084,1.37,1.1,1.346,1.154,1.322,1.193,1.274,1.223,1.256,1.268,1.214,1.286,1.172,1.328,1.133,1.349,1.093,1.37,1.06,1.4,1.018,1.433.964,1.448.94,1.487.9,1.508.853,1.535.811,1.565.784,1.6.73,1.616.691,1.646.658,1.667.619,1.709.577,1.718.535,1.76.493,1.778.463,1.811.412,1.832.382,1.875.339,1.884.3,1.923.246,1.947.225,1.974.174,2,.144,2.04.1,2.049.057,2.088.024,2.109-.012,1.3-.03,1.295-.063,1.277-.06,1.277-.105,1.277-.123,1.268-.132,1.256-.168,1.244-.171,1.247-.207,1.232-.225,1.238-.249,1.223-.279,1.214-.294,1.217-.309,1.2-.33,1.2-.36,1.193-.379,1.187-.391,1.181-.436,1.175-.43,1.16-.472,1.166-.5,1.154-.5,1.142-.526,1.145-.556,1.13-.577,1.124-.595,1.12-.619,1.124-.649,1.1-.67,1.111-.676,1.09-.7,1.081-.7,1.069-.73,1.06-.736,1.039-.739,1.027-.763,1.021-.769,1-.784.976-.793.97-.8.955-.826.946-.82.928-.847.907-.844.9-.862.88-.886.868-.886.853-.9.844-.9.823-.928.814-.934.793-.949.769-.955.772-.976.751-.982.73-1.009.724-1,.709-1.015.688-1.03.67-1.051.67-1.048.64-1.069.637-.6.43-.574.445-.571.442-.544.445-.556.442-.526.451-.526.454-.493.454-.5.454-.493.454-.472.46-.457.457-.439.472-.442.454-.415.472-.412.475-.391.463-.391.475-.373.481-.36.475-.348.487-.336.472-.324.493-.3.484-.3.484-.288.493-.267.5-.267.493-.246.5-.237.5-.228.5-.216.5-.2.517-.2.526-.192.526-.186.553-.183.559-.168.553-.165.589-.162.586-.156.595-.153.619-.135.616-.132.64-.126.637-.123.661-.123.67-.1.676-.1.682-.1.709-.084.709-.081.724-.072.73-.072.751-.06.751-.063.772-.039.772-.042.79-.042.805-.021.811-.03.826-.012.832-.018.841v.856l10.538-4.4v-.856l.021-.853v-.832l.03-.823.03-.814.042-.793.039-.79.042-.784.063-.76.06-.763.063-.742.081-.739.084-.721.084-.712.1-.7.105-.688.1-.679.111-.661.126-.658.132-.646.123-.628.144-.628.144-.607.168-.6.15-.595.177-.574.165-.571.183-.553.186-.547.183-.535.21-.517.2-.514.2-.5.225-.5.246-.5.246-.493.258-.5.279-.5.288-.493.288-.484.318-.5.321-.484.327-.481.348-.475.372-.484.369-.475.382-.472.4-.475.414-.463.409-.475.433-.463.454-.463.454-.466.472-.451.487-.451.493-.466.5-.442.514-.451.538-.457.544-.442.547-.442.574-.442.577-.445.6-.442,1.057-.628,1.06-.649,1.042-.661,1.036-.676,1.009-.691,1.009-.7,1-.718.988-.733.97-.751.955-.769.943-.775.949-.8.928-.8.9-.826.9-.841.886-.853.886-.865.853-.886.853-.9.847-.916.82-.925.823-.937.805-.955.793-.97.781-.988.772-1,.76-1.009.742-1.027.73-1.039.724-1.06.709-1.069.7-1.081.682-1.1.67-1.1.646-1.111.616-1.111.6-1.124.574-1.12.547-1.142.526-1.133.511-1.154.5-1.154.466-1.151.439-1.166.424-1.184.4-1.172.382-1.184.361-1.193.327-1.2.309-1.2.3-1.211.267-1.217.246-1.226.228-1.235.207-1.235.183-1.244.156-1.247.141-1.265.126-1.268.09-1.265.075-1.277.06-1.286.021-1.289.021-1.3-.021-2.109-.063-2.088-.1-2.058L277,88.537l-.171-1.995-.231-1.977-.246-1.944-.306-1.926-.33-1.893-.379-1.863-.424-1.832-.454-1.811-.493-1.781-.535-1.76-.58-1.727-.616-1.7-.658-1.679-.7-1.637-.73-1.625-.772-1.583-.823-1.568L267.71,56.7l-.9-1.5-.925-1.481-.976-1.454-1.021-1.427-1.051-1.4-1.091-1.379-1.129-1.349-1.172-1.319L258.223,44.1l-1.256-1.274L255.681,41.6l-1.319-1.184-1.337-1.151-1.37-1.111-1.409-1.072-1.433-1.027-1.46-1-1.5-.949-1.514-.925-1.553-.874-1.586-.835-1.6-.8-1.646-.751-1.664-.73-1.712-.679-1.727-.64-1.751-.607L229.3,26.7l-1.82-.523-1.854-.487-1.883-.451-1.893-.412-1.947-.36-1.965-.339-2-.288-2.028-.258-2.046-.213-2.1-.177-2.109-.132-2.151-.093-2.157-.06-2.205-.024-2.058.024-2.028.048-2.007.084-1.977.114-1.956.153-1.923.2-1.9.216-1.875.255-1.85.291-1.835.315-1.808.36-1.769.394-1.751.421-1.727.463-1.712.5Z" transform="translate(-117.566 -22.878)" fill="#082742" fill-rule="evenodd"/>
        <path id="パス_5" data-name="パス 5" d="M190.713,200.98q.153-23.094,7.48-34.775c4.888-7.789,13.741-16.714,26.667-26.829A51.224,51.224,0,0,0,240.583,122.1c3.869-6.939,5.744-14.831,5.744-23.816q0-13.973-6.711-22.335c-4.485-5.576-10.845-8.3-19.079-8.3a22.463,22.463,0,0,0-16.693,6.822q-6.732,6.827-7.017,20.3h-49.02l-.3-.967q-.464-34.7,19.74-52.063,20.228-17.384,53.292-17.381,35.49,0,55.821,19.941,20.376,20.043,20.358,53.992a69.657,69.657,0,0,1-11.094,38.253,81.966,81.966,0,0,1-28.241,27.511c-6.36,4.659-10.685,9.661-12.887,15.053-2.232,5.4-3.353,12.68-3.353,21.881Zm25.213,18.814c13.855,0,25.069,12.536,25.069,27.995s-11.214,28-25.069,28-25.069-12.533-25.069-28S202.083,219.795,215.926,219.795Z" transform="translate(-147.495 -19.93)" fill="#1b7eda" fill-rule="evenodd"/>
        <path id="パス_6" data-name="パス 6" d="M191.023,199.27h48.587c.072-7.05.811-14.87,3.437-21.272,2.674-6.537,7.934-11.632,13.2-15.5l.042-.027.042-.021a81.259,81.259,0,0,0,27.923-27.193A68.758,68.758,0,0,0,295.173,97.6c0-20.944-5.825-39.242-20.037-53.22-15.264-15-35.385-19.688-55.214-19.688-18.7,0-37.629,4.191-52.724,17.18-14.633,12.575-19.625,30.966-19.388,51.054l.027.123h47.476c.3-7.48,2.172-14.828,7.3-20.025a23.3,23.3,0,0,1,17.309-7.09c7.531,0,14.615,2.241,19.761,8.643S246.64,89.157,246.64,97.6a49.237,49.237,0,0,1-5.888,24.36,52.357,52.357,0,0,1-15.994,17.589,173.443,173.443,0,0,0-16.24,14.191,73.115,73.115,0,0,0-10.19,12.374c-5.72,9.105-7.153,22.206-7.306,33.159Zm24.288,20.869c-13.338,0-24.146,12.073-24.146,26.967s10.809,26.961,24.146,26.961,24.143-12.07,24.143-26.961S228.649,220.139,215.311,220.139Z" transform="translate(-146.881 -19.247)" fill="#0d3f6a" fill-rule="evenodd"/>
        <path id="パス_7" data-name="パス 7" d="M265.456,76.36c-1.232-11.412-4.506-21.857-10.334-31.029l-37.791,37.8c.105,1.367.147,2.737.147,4.116a49.237,49.237,0,0,1-5.888,24.36A52.357,52.357,0,0,1,195.6,129.2a173.439,173.439,0,0,0-16.24,14.191,73.114,73.114,0,0,0-10.19,12.374c-4.137,6.585-6.032,15.261-6.813,23.7l103.1-103.1ZM248.227,36.367,214.267,70.339a28.775,28.775,0,0,0-3.746-6.113,20.015,20.015,0,0,0-1.709-1.9L241.27,29.854a61.712,61.712,0,0,1,4.7,4.176C246.743,34.793,247.506,35.577,248.227,36.367Z" transform="translate(-117.718 -8.898)" fill="#10497c" fill-rule="evenodd"/>
      </g>
      <g id="グループ_30" data-name="グループ 30" transform="translate(89.838 154.475)">
        <path id="パス_8" data-name="パス 8" d="M164.207,116.125c-16.928,0-30.638,2.439-30.638,5.434s13.71,5.434,30.638,5.434,30.641-2.427,30.641-5.434S181.129,116.125,164.207,116.125Z" transform="translate(-133.569 9.518)" fill="#8cbae6" fill-rule="evenodd"/>
        <path id="パス_9" data-name="パス 9" d="M138.364,114.789c-.267,3.416-.475,8.892.619,10.3l15.54.354c.5-.2,2.244-2.409-1.307-3.746-1.637-.424-7.36-1.866-8.429-5.951C144.787,115.744,139.332,113.77,138.364,114.789Z" transform="translate(-124.386 6.255)" fill="#131417" fill-rule="evenodd"/>
        <path id="パス_10" data-name="パス 10" d="M148.94,116.9c.784,1.583,1.676,2.758,2.92,2.851a2.13,2.13,0,0,0,2.833,1.163c1.247-.535,2.8-2.749,2.274-3.653a1.177,1.177,0,0,0-.73-.682,3.907,3.907,0,0,0-1.163-1.625c-1.4-.865-2.193-.369-3.563-.976-4.158-2.7-6.6-6.906-10.406-9.838,0,0,.736-1.968,1.968-6.257,0,0,6.317-12.353,1.238-14.72,0,0-5.314.886-7.165,12.863,0,0-2.9,8.1-2.571,10.385C136.735,108.217,148.745,116.688,148.94,116.9Z" transform="translate(-131.607 -56.552)" fill-rule="evenodd" fill="url(#linear-gradient)"/>
        <path id="パス_11" data-name="パス 11" d="M143.567,82.777s-5.485.105-6.549,11.581a35.441,35.441,0,0,0-2.181,7.18,21.4,21.4,0,0,0,6.69,1.76,27.777,27.777,0,0,0,2.388-6.81S148.65,85.144,143.567,82.777Z" transform="translate(-131.028 -57.313)" fill-rule="evenodd" fill="url(#linear-gradient-2)"/>
        <path id="パス_12" data-name="パス 12" d="M162.947,89.8c.7-2.668.105-4.293.544-6.537s2.4-3.89,4.122-6.813c1.057.258.4,1.6-1.373,5.527.33-.174,3.953.679,3.719,3.488,0,0,.03,2-1.412,2.244a3.04,3.04,0,0,1-2,2.893c-2.142,4.437-3.611,15.837-7.955,19.43-1.79-.123-10.4-4-13.038-6.762-2.782-1.412-4.942-7.717-1.691-7.943a6.1,6.1,0,0,1,4.013.832c1.133.628,7.393,4.7,8.565,6.852C157.1,98.43,160.745,95.371,162.947,89.8Z" transform="translate(-116.201 -70.001)" fill-rule="evenodd" fill="url(#linear-gradient-3)"/>
        <path id="パス_13" data-name="パス 13" d="M137.948,95.038c-1.151,5.185-.8,10.3,1.544,14.377.135,5.3,2.544,13.308,2.163,19.388-3.479,8.378-1.625,15.327-2.5,26.9a32.722,32.722,0,0,0,7.771.237c.844-9.631,1.739-16.919,4.155-26.117.478-6.783,0-15.191.478-21.975q-1.054-6.516-2.109-13.038C145.235,95.089,142.168,94.759,137.948,95.038Z" transform="translate(-126.07 -33.193)" fill-rule="evenodd" fill="url(#linear-gradient-4)"/>
        <path id="パス_14" data-name="パス 14" d="M142.584,115.077c-.333,3.686-.64,9.592.514,11.124l16.775.577c.535-.2,2.427-2.562-1.37-4.052-1.76-.484-7.913-2.1-9.024-6.528C149.479,116.2,143.63,114,142.584,115.077Z" transform="translate(-116.11 6.82)" fill="#131417" fill-rule="evenodd"/>
        <path id="パス_15" data-name="パス 15" d="M139.1,94.717s-1.256,9.928,5.621,15.456a113.309,113.309,0,0,0,6.5,18.4c-3.644,8.132-1.688,17.435-3,27.6,2.316,1.2,5.762,1.295,8.252.823.493-9.889,4.87-23.9,4.674-29.641-1.986-9.331-3.4-21.136-6.278-31.984Z" transform="translate(-122.657 -33.385)" fill-rule="evenodd" fill="url(#linear-gradient-5)"/>
        <path id="パス_16" data-name="パス 16" d="M151.621,79.074s3.428,2.686,3.058,12.536a25.028,25.028,0,0,1-3.512,1.76c-.288.583.228,2.932.577,4.076,0,0-7.39,1.078-10.31-.288,0,0,.925-2.659.348-3.344,0,0-5.434-8.844-4.085-13.939,0,0,.5-5.032,4.23-4.692C141.927,75.184,151.108,73.063,151.621,79.074Z" transform="translate(-125.726 -73.257)" fill-rule="evenodd" fill="url(#linear-gradient-6)"/>
        <path id="パス_17" data-name="パス 17" d="M143.9,81.65A44.438,44.438,0,0,0,154.273,82a13.088,13.088,0,0,1,.682,1.493,17.064,17.064,0,0,1,4.134.853c-2.385,2.16-1.006,5.083.288,7.678.165,7.519-.658,8.345-.943,11.875-1.445,12.082,6.708,12.9,3,18.73-2.574,3.7-21.1,4.293-23.044-.988-1.277-3.458,1.82-5.434,2.049-10.64-2.872-5.978-6.957-21.16-.781-26.108.841-.682,1.9-1.051,3.377-1.959C143.366,82.731,143.531,81.857,143.9,81.65Z" transform="translate(-127.823 -59.572)" fill-rule="evenodd" fill="url(#linear-gradient-7)"/>
        <path id="パス_18" data-name="パス 18" d="M155.81,81.19a3.525,3.525,0,0,1,1.214.09,4.706,4.706,0,0,0-3,2.307c.709,1.16.577,3.19.658,4.323-3.292-4-.976,6.275-3.839,6.987,0,0-4.969,1.217-7.264-.186-1.289-3.169-1.823-3.869-3.079-5.095a6.718,6.718,0,0,1-1.463-1.625c-2.13-3.346-1.244-5.392-1.244-5.392l-1.328-2.037,1.875.306a6.248,6.248,0,0,1,.586-3.623,2.829,2.829,0,0,0,.649,1.781c6.444-9.961,12.824-.526,16.465-3.992a4.143,4.143,0,0,1-1.718,2.737c1.727.382,3.821-1.349,3.821-1.349A5.267,5.267,0,0,1,155.81,81.19Z" transform="translate(-127.773 -74.3)" fill-rule="evenodd" fill="url(#linear-gradient-8)"/>
        <path id="パス_19" data-name="パス 19" d="M142.32,77.732c.436-.1,1.009.988,1.3,2.406s.162,2.644-.267,2.728-1.021-.988-1.3-2.406S141.887,77.813,142.32,77.732Z" transform="translate(-116.879 -67.436)" fill-rule="evenodd" fill="url(#linear-gradient-9)"/>
        <path id="パス_20" data-name="パス 20" d="M143.765,82.311a8.076,8.076,0,0,1,7.666,4,54.571,54.571,0,0,1,4.443,3.713,34.011,34.011,0,0,1-1.769,8.051c-2.641-1.649-5.554-3.214-8.291-5.314C143.011,91.017,139.965,82.9,143.765,82.311Z" transform="translate(-116.705 -58.379)" fill-rule="evenodd" fill="url(#linear-gradient-10)"/>
      </g>
      <g id="グループ_31" data-name="グループ 31" transform="translate(0 57.486)">
        <path id="パス_21" data-name="パス 21" d="M179.944,64.116l-76.189,1.189c-12.159,0-22.144,15.724-22.144,34.906h0c0,19.249,9.985,34.959,22.144,34.959l67.308-1.189a.323.323,0,0,1,.261.093l13.769,11.214,13.566,11.068c.227.173.463.146.632-.186a1.14,1.14,0,0,0,.118-1.038l-6.985-21.417-1.222-3.658a1.175,1.175,0,0,1,.236-1.184c6.345-6.146,10.651-17.227,10.651-29.851h0C202.088,79.84,192.136,64.116,179.944,64.116Z" transform="translate(-81.61 -64.116)" fill-rule="evenodd" fill="url(#linear-gradient-11)"/>
      </g>
    </g>
    <path id="パス_1719" data-name="パス 1719" d="M-42.868-11.074a7.557,7.557,0,0,1,.224.924,34.7,34.7,0,0,0,.938,3.794,8.655,8.655,0,0,0-1.9,1.19A3.332,3.332,0,0,0-44.856-2.66,2.633,2.633,0,0,0-43.638-.322a7.84,7.84,0,0,0,4.06.77A29.586,29.586,0,0,0-36.3.238c.742-.07.84-.084,1.134-.1l-.154-1.9a15.869,15.869,0,0,1-4.522.56c-2.254,0-3.206-.434-3.206-1.456s1.022-1.89,3.066-2.646a32.28,32.28,0,0,1,4.62-1.344l-.6-1.764a5.177,5.177,0,0,1-.994.364c-1.764.56-2.3.742-3.164,1.078a24.211,24.211,0,0,1-.924-4.382Zm5.488.21a9.449,9.449,0,0,1,1.47,2.086l.98-.518a9.073,9.073,0,0,0-1.47-2.058Zm4.116.658A8.1,8.1,0,0,0-34.72-12.18l-.938.49A10.315,10.315,0,0,1-34.23-9.66Zm6.356,5.012c.308-.658.924-2.184,1.722-4.228a13.489,13.489,0,0,1,.686-1.61l-1.89-.476c-.1.574-.1.574-3.318,9.52-.448,1.218-.574,1.554-.77,1.96l1.806.588A16.059,16.059,0,0,1-27.5-2.646c.686-1.26,1.47-1.96,2.226-1.96a.693.693,0,0,1,.63.322,1.911,1.911,0,0,1,.112.826c0,.14,0,.476-.014.98v.14A4.057,4.057,0,0,0-24.3-.784a2.191,2.191,0,0,0,2.2,1.218c2.114,0,3.486-1.456,4.088-4.354a4.378,4.378,0,0,1-1.54-1.05,8.774,8.774,0,0,1-.532,2.226c-.406.98-1.008,1.5-1.75,1.5a1.176,1.176,0,0,1-.742-.2c-.252-.21-.308-.49-.308-1.5,0-1.61-.07-2.114-.35-2.562a1.9,1.9,0,0,0-1.568-.8,2.619,2.619,0,0,0-1.806.826l-.266.308Zm15.54-6.412a14.3,14.3,0,0,1-.42,2.436c-.308.014-.546.014-.714.014a9.721,9.721,0,0,1-1.89-.126v1.6l.742.014c.294.014.378.014.56.014s.252,0,.882-.014a21.538,21.538,0,0,1-1.316,3.3,12.743,12.743,0,0,1-1.358,2.24l1.61.9c.084-.168.084-.168.266-.5.532-.98.658-1.232.98-1.918a26.873,26.873,0,0,0,1.54-4.06c.868-.07,1.722-.168,2.226-.252a2.73,2.73,0,0,1,.448-.07l-.042-1.61a12.008,12.008,0,0,1-2.24.392c.154-.616.224-.9.294-1.232a7.008,7.008,0,0,1,.224-.938Zm8.96,3.64A22.1,22.1,0,0,0-6.356-9.842L-7.2-8.484a17.135,17.135,0,0,1,4.032,1.96Zm-.056,6.314a2.507,2.507,0,0,1-.21-.2,5.162,5.162,0,0,0-.49-.378A8.747,8.747,0,0,0-5.376-3.514,14.864,14.864,0,0,1-5.5-5.432a4.666,4.666,0,0,1,.168-1.414L-6.958-6.93A7.426,7.426,0,0,0-7.07-5.516c0,.42.028.966.07,1.61a6.954,6.954,0,0,0-1.3-.126c-1.778,0-3.024.994-3.024,2.408S-10.122.728-8.274.728A3.232,3.232,0,0,0-5.95-.056a2.237,2.237,0,0,0,.6-1.484c0-.056-.014-.154-.028-.28A8.467,8.467,0,0,1-3.234-.084Zm-4.48-.77s.028.336.028.476c0,.784-.462,1.176-1.414,1.176C-9.2-.77-9.7-1.106-9.7-1.68s.588-.966,1.5-.966A3.529,3.529,0,0,1-6.944-2.422ZM6.16-6.16v.672H3.388a9.941,9.941,0,0,1-1.428-.07V-4.3a10.061,10.061,0,0,1,1.428-.07H6.16v.7H2.45A13,13,0,0,1,.77-3.752v1.4a15.389,15.389,0,0,1,1.694-.084h2.6A10.064,10.064,0,0,1,.49-.448,5.73,5.73,0,0,1,1.344.9,13.545,13.545,0,0,0,4.2-.28,7.786,7.786,0,0,0,6.216-1.82a9.426,9.426,0,0,0-.042.952V-.2A10.449,10.449,0,0,1,6.09,1.232H7.742a7.965,7.965,0,0,1-.1-1.414V-.868A9.583,9.583,0,0,0,7.6-1.862,10.924,10.924,0,0,0,12.8.91a5.544,5.544,0,0,1,.8-1.428,12.016,12.016,0,0,1-2.912-.8,7.268,7.268,0,0,1-1.9-1.12h2.814a15.124,15.124,0,0,1,1.68.084v-1.4a12.366,12.366,0,0,1-1.694.084H7.672v-.7H10.6a10.277,10.277,0,0,1,1.442.07v-1.26a10.156,10.156,0,0,1-1.442.07H7.672V-6.16h3.654a10.277,10.277,0,0,1,1.442.07V-7.42a12.875,12.875,0,0,1-1.442.056H9.7c.2-.35.252-.476.518-1.036h1.4c.686,0,1.232.028,1.666.07v-1.4a11.352,11.352,0,0,1-1.582.084h-.392c.308-.434.532-.784.868-1.344l-1.442-.532A7.47,7.47,0,0,1,9.73-9.646H8.848v-.994a7.351,7.351,0,0,1,.07-1.092H7.392A9.971,9.971,0,0,1,7.434-10.7v1.05H6.44V-10.7a9.428,9.428,0,0,1,.042-1.036H4.956a7.786,7.786,0,0,1,.07,1.092v.994h-.8A9.9,9.9,0,0,0,3.15-11.48l-1.4.532a5.918,5.918,0,0,1,.952,1.3H2.254a11.864,11.864,0,0,1-1.6-.084v1.4c.448-.042.98-.07,1.666-.07H3.836c.154.266.308.588.518,1.036H2.66A12.716,12.716,0,0,1,1.218-7.42v1.33A10.4,10.4,0,0,1,2.66-6.16Zm-.322-1.2A8.936,8.936,0,0,0,5.418-8.4H8.61a8.165,8.165,0,0,1-.462,1.036Zm17.92,4.508A4.954,4.954,0,0,1,20.482-.07a5.7,5.7,0,0,1,.868,1.246,6.121,6.121,0,0,0,3.92-4.032H27.1a10.1,10.1,0,0,1-.182,1.582c-.154.714-.294.882-.742.882a8.858,8.858,0,0,1-1.61-.2A4.716,4.716,0,0,1,24.892.868a13.627,13.627,0,0,0,1.484.1c1.092,0,1.456-.224,1.736-1.078a17.063,17.063,0,0,0,.49-3.514,5.029,5.029,0,0,1,.056-.616,6.38,6.38,0,0,1-1.106.056H25.564c.028-.252.056-.35.07-.546.014-.126.028-.154.028-.224q.021-.147.042-.252a.861.861,0,0,1,.014-.182L24.29-5.4a7.639,7.639,0,0,0,1.3-.714,10.53,10.53,0,0,0,3.15,1.3,5.11,5.11,0,0,1,.644-1.456A9.3,9.3,0,0,1,26.7-7.056a6.16,6.16,0,0,0,1.386-2.2,7.018,7.018,0,0,1,1.008.056v-1.428a12.908,12.908,0,0,1-1.484.07h-2.9c.112-.238.168-.364.238-.546a4.087,4.087,0,0,1,.21-.49l-1.456-.28a3.949,3.949,0,0,1-.35,1.064,7.167,7.167,0,0,1-2.086,2.7,4.627,4.627,0,0,1,1.064.952,11.778,11.778,0,0,0,1.078-1.232,6.334,6.334,0,0,0,1.148,1.442,8.9,8.9,0,0,1-2.3.868,2.561,2.561,0,0,1,.168-.434l-.6-.742A9.139,9.139,0,0,1,20.8-7.21h-.84l.308-.336c-.126-.154-.182-.2-.308-.336a13.729,13.729,0,0,0,1.96-2.2c.14-.2.252-.336.308-.406l-.756-.812a10.285,10.285,0,0,1-1.19.042H17.892a10.914,10.914,0,0,1-1.316-.056V-9.87a10.078,10.078,0,0,1,1.2-.056h2.436a5.329,5.329,0,0,1-1.134,1.232c-.35-.308-.42-.35-1.2-.938l-.868.84A15.156,15.156,0,0,1,18.872-7.21h-1.4a7.647,7.647,0,0,1-1.26-.07V-5.8a6.662,6.662,0,0,1,1.176-.07h.966a7.693,7.693,0,0,1-2.366,3.374,5.888,5.888,0,0,1,.7,1.526,8.343,8.343,0,0,0,2.058-2.968L18.76-.588c.014.28-.07.336-.448.336a8.032,8.032,0,0,1-1.246-.14A3.956,3.956,0,0,1,17.36.98c.42.028.854.042,1.162.042a2.062,2.062,0,0,0,1.3-.28A1.24,1.24,0,0,0,20.118-.2l-.028-5.67h.882a7.458,7.458,0,0,1-.8,1.778,3.573,3.573,0,0,1,1.022.77c.182-.378.238-.476.378-.826V-2.8a7.391,7.391,0,0,1,1.106-.056Zm-.994-1.33a9.9,9.9,0,0,1-1.148-.042c.2-.5.308-.8.49-1.386a4.908,4.908,0,0,1,.462.84c.77-.252,1.064-.35,1.6-.574a.273.273,0,0,1,.014.112,9.658,9.658,0,0,1-.07,1.05Zm3.822-5.068a3.9,3.9,0,0,1-.994,1.512,4.939,4.939,0,0,1-1.2-1.512ZM41.258-7.7a13.1,13.1,0,0,1,1.918,4.55l1.6-.8a13.021,13.021,0,0,0-2.1-4.452Zm-4.116-3.08a3.257,3.257,0,0,1,.112-.434l-1.82-.182v.252a19.693,19.693,0,0,1-.364,2.828,28.754,28.754,0,0,1-2.982.294l.168,1.652a5.749,5.749,0,0,1,.574-.14L34.1-6.72c.448-.084.448-.084.658-.112A20.592,20.592,0,0,1,31.948-.238l1.624.9a30.057,30.057,0,0,0,2.856-7.616c.322-.028.546-.042.84-.042,1.078,0,1.4.378,1.4,1.666A12.44,12.44,0,0,1,38.3-2.142c-.21.686-.434.952-.84.952a5.861,5.861,0,0,1-2.044-.56,5.258,5.258,0,0,1,.14,1.19c0,.14-.014.35-.028.616a6.49,6.49,0,0,0,2.156.42,1.773,1.773,0,0,0,1.554-.63c.672-.77,1.078-2.688,1.078-5.1a3.4,3.4,0,0,0-.658-2.478A2.712,2.712,0,0,0,37.59-8.47c-.252,0-.448.014-.868.028.042-.182.042-.182.084-.42.14-.756.238-1.33.308-1.736Zm3.248.1A9.449,9.449,0,0,1,41.86-8.6l.98-.518a9.073,9.073,0,0,0-1.47-2.058Zm4.116.658A8.1,8.1,0,0,0,43.05-12l-.938.49a10.315,10.315,0,0,1,1.428,2.03ZM-37.961,15.062a17.571,17.571,0,0,1,2.324-.28c2.716-.2,3.584-.28,4.718-.448a6.191,6.191,0,0,0-1.946,1.414,4.875,4.875,0,0,0-1.33,3.29,3.746,3.746,0,0,0,2,3.374,8.423,8.423,0,0,0,3.276.924c.266.042.294.042.476.084l.252-1.9c-.14.014-.266.014-.28.014a8.5,8.5,0,0,1-2.086-.364,2.351,2.351,0,0,1-1.862-2.282c0-1.414,1.05-2.814,2.828-3.738a6.261,6.261,0,0,1,2.772-.756,2.168,2.168,0,0,1,.294.014l-.1-1.778a7.543,7.543,0,0,1-1.442.112c-3.738.182-6.132.308-7.154.364-2.058.14-2.058.14-2.31.14-.07,0-.224,0-.532-.014Zm8.568,1.344a9.449,9.449,0,0,1,1.47,2.086l.98-.518a9.073,9.073,0,0,0-1.47-2.058Zm4.116.658a8.1,8.1,0,0,0-1.456-1.974l-.938.49a10.315,10.315,0,0,1,1.428,2.03Zm3.766-2.128c.294-.014.364-.028.952-.028a33.752,33.752,0,0,0,3.752-.2c.112.252.154.336.294.63.112.266.168.35.252.518a27.543,27.543,0,0,1-3.962.266,8.3,8.3,0,0,1-1.442-.056l.056,1.526c.238-.028.336-.028.574-.042a40.189,40.189,0,0,0,5.418-.378,8.429,8.429,0,0,0,1.078,1.568,9.648,9.648,0,0,0-2.422-.294,6.241,6.241,0,0,0-3.262.7A2.338,2.338,0,0,0-21.4,21.1a2.255,2.255,0,0,0,1.078,1.918,6.4,6.4,0,0,0,3.416.686,13.479,13.479,0,0,0,3.584-.476,6.924,6.924,0,0,1,.91-.21l-.252-1.722a10.873,10.873,0,0,1-4.312.91,5.457,5.457,0,0,1-2-.308.923.923,0,0,1-.6-.812,1.01,1.01,0,0,1,.6-.854,5.4,5.4,0,0,1,2.352-.392,7.529,7.529,0,0,1,3.22.574l1.232-.882a14,14,0,0,1-1.876-2.562c.168-.042.168-.042.518-.112s.8-.168,1.372-.308c.322-.084.616-.14.882-.182l-.14-1.526a7.071,7.071,0,0,1-1.33.406c-.084.014-.728.154-1.932.406a12.606,12.606,0,0,1-.546-1.148c.434-.056,1.988-.364,2.926-.588l.476-.1-.14-1.484a23.521,23.521,0,0,1-3.78.84,8.207,8.207,0,0,1-.574-1.694l-1.75.238c.014.028.21.462.56,1.274.112.252.112.252.154.364a24.881,24.881,0,0,1-2.884.154,11.745,11.745,0,0,1-1.344-.056ZM-2.3,17.19a5.5,5.5,0,0,0,.574-.364c.28-.182,1.288-.938,1.54-1.148.476-.406,1.5-1.316,2.2-1.96a3,3,0,0,1,.728-.574l-.868-1.232A2.063,2.063,0,0,1,1,12.094c-1.358.1-3.066.168-4.256.168a12.662,12.662,0,0,1-1.652-.084l.07,1.68a4.723,4.723,0,0,1,.672-.07c2.534-.112,3.43-.168,3.962-.238l.014.014-.252.252a46.746,46.746,0,0,1-4.186,3.64A12.591,12.591,0,0,1-6.6,18.772l.952,1.512A8.626,8.626,0,0,1,.119,17.932c1.694,0,2.772.714,2.772,1.806,0,.994-.5,1.6-1.666,2.03a3.765,3.765,0,0,0-.644-1.26A3.013,3.013,0,0,0-1.841,19.36a2.155,2.155,0,0,0-2.408,2,2,2,0,0,0,.84,1.61,4.736,4.736,0,0,0,2.716.644,6.927,6.927,0,0,0,3.388-.8,3.421,3.421,0,0,0,1.9-3.094c0-1.918-1.54-3.15-3.934-3.15a6.834,6.834,0,0,0-2.94.644Zm2.016,4.984a3.789,3.789,0,0,1-.728.056c-1.036,0-1.666-.322-1.666-.882,0-.392.322-.644.826-.644C-1.071,20.7-.539,21.208-.287,22.174Zm16.2-8.148a3.06,3.06,0,0,1,1.414.42,3.468,3.468,0,0,1,1.722,3.108,3.92,3.92,0,0,1-1.946,3.5,7.44,7.44,0,0,1-2.786.77,4.466,4.466,0,0,1,.854,1.638,9.153,9.153,0,0,0,2.2-.588,5.393,5.393,0,0,0,3.4-5.222c0-3.15-2.184-5.194-5.544-5.194a6.285,6.285,0,0,0-4.816,1.96,6.014,6.014,0,0,0-1.54,4.074c0,2.254,1.148,3.878,2.744,3.878,1.148,0,2.044-.826,2.842-2.632A20.253,20.253,0,0,0,15.911,14.026ZM14.2,14.04a18.451,18.451,0,0,1-1.162,4.732c-.5,1.2-.98,1.792-1.442,1.792-.616,0-1.106-.91-1.106-2.058a4.687,4.687,0,0,1,1.9-3.78A3.564,3.564,0,0,1,14.2,14.04Zm16.926,6.132a6.682,6.682,0,0,1-.042-.714c0-.742.224-1.078,1.092-1.666A5.717,5.717,0,0,0,33.9,16.35a2.631,2.631,0,0,0,.49-1.652,2.408,2.408,0,0,0-.994-1.96,4.376,4.376,0,0,0-2.814-.84,4.53,4.53,0,0,0-3.094.98,3.541,3.541,0,0,0-1.106,2.114l2.072.252a2.031,2.031,0,0,1,.336-1.064,1.961,1.961,0,0,1,1.68-.8c1.19,0,1.932.532,1.932,1.386,0,.644-.322,1.078-1.232,1.68a4.679,4.679,0,0,0-1.316,1.05,2.8,2.8,0,0,0-.574,1.82l.014.266a4.817,4.817,0,0,1-.042.588Zm-1.96,1.162v1.918H31.2V21.334Z" transform="translate(896.932 4670.306)" fill="#fbfbfb"/>
  </g>
</svg>
