<?xml version="1.0" encoding="UTF-8" standalone="no"?>
<svg
   xmlns:dc="http://purl.org/dc/elements/1.1/"
   xmlns:cc="http://creativecommons.org/ns#"
   xmlns:rdf="http://www.w3.org/1999/02/22-rdf-syntax-ns#"
   xmlns:svg="http://www.w3.org/2000/svg"
   xmlns="http://www.w3.org/2000/svg"
   xmlns:xlink="http://www.w3.org/1999/xlink"
   xmlns:sodipodi="http://sodipodi.sourceforge.net/DTD/sodipodi-0.dtd"
   xmlns:inkscape="http://www.inkscape.org/namespaces/inkscape"
   id="Layer_1"
   data-name="Layer 1"
   viewBox="0 0 535.59 491.6"
   width="261.229"
   height="262.266"
   class="illustration"
   version="1.1"
   sodipodi:docname="service009.svg"
   inkscape:version="1.0.2 (e86c870879, 2021-01-15, custom)">
  <metadata
     id="metadata169">
    <rdf:RDF>
      <cc:Work
         rdf:about="">
        <dc:format>image/svg+xml</dc:format>
        <dc:type
           rdf:resource="http://purl.org/dc/dcmitype/StillImage" />
        <dc:title>Designer 2</dc:title>
      </cc:Work>
    </rdf:RDF>
  </metadata>
  <sodipodi:namedview
     pagecolor="#ffffff"
     bordercolor="#666666"
     borderopacity="1"
     objecttolerance="10"
     gridtolerance="10"
     guidetolerance="10"
     inkscape:pageopacity="0"
     inkscape:pageshadow="2"
     inkscape:window-width="1920"
     inkscape:window-height="1002"
     id="namedview167"
     showgrid="false"
     inkscape:zoom="1.4019608"
     inkscape:cx="49.796786"
     inkscape:cy="187.54415"
     inkscape:window-x="-8"
     inkscape:window-y="-8"
     inkscape:window-maximized="1"
     inkscape:current-layer="Layer_1"
     inkscape:document-rotation="0" />
  <defs
     id="defs54">
    <linearGradient
       id="linear-gradient"
       x1="299.35"
       y1="224.78"
       x2="465.92"
       y2="296.32"
       gradientUnits="userSpaceOnUse">
      <stop
         offset="0"
         stop-color="#010101"
         stop-opacity="0"
         id="stop2" />
      <stop
         offset="0.95"
         stop-color="#010101"
         id="stop4" />
    </linearGradient>
    <linearGradient
       id="linear-gradient-2"
       x1="286.62"
       y1="300.74"
       x2="677.71"
       y2="3.15"
       xlink:href="#linear-gradient"
       gradientTransform="matrix(-0.96362997,0,0,0.96362997,548.35107,23.804652)" />
    <linearGradient
       id="linear-gradient-3"
       x1="330.27"
       y1="222.8"
       x2="331.32"
       y2="227.11"
       xlink:href="#linear-gradient"
       gradientTransform="matrix(-0.96362997,0,0,0.96362997,548.35107,23.804652)" />
    <linearGradient
       id="linear-gradient-4"
       x1="238.79"
       y1="420.48"
       x2="240.17"
       y2="467.25"
       gradientUnits="userSpaceOnUse">
      <stop
         offset="0"
         stop-color="#fff"
         stop-opacity="0"
         id="stop9" />
      <stop
         offset="0.07"
         stop-color="#fff"
         stop-opacity="0.22"
         id="stop11" />
      <stop
         offset="0.16"
         stop-color="#fff"
         stop-opacity="0.45"
         id="stop13" />
      <stop
         offset="0.25"
         stop-color="#fff"
         stop-opacity="0.65"
         id="stop15" />
      <stop
         offset="0.33"
         stop-color="#fff"
         stop-opacity="0.8"
         id="stop17" />
      <stop
         offset="0.4"
         stop-color="#fff"
         stop-opacity="0.91"
         id="stop19" />
      <stop
         offset="0.46"
         stop-color="#fff"
         stop-opacity="0.98"
         id="stop21" />
      <stop
         offset="0.51"
         stop-color="#fff"
         id="stop23" />
    </linearGradient>
    <linearGradient
       id="linear-gradient-5"
       x1="233.62"
       y1="396.26"
       x2="243.52"
       y2="396.26"
       xlink:href="#linear-gradient-4"
       gradientTransform="matrix(-0.96362997,0,0,0.96362997,531.01536,25.115189)" />
    <linearGradient
       id="linear-gradient-6"
       x1="226.04"
       y1="347.16"
       x2="180.91"
       y2="370.55"
       xlink:href="#linear-gradient"
       gradientTransform="matrix(-0.96362997,0,0,0.96362997,548.35107,23.804652)" />
    <linearGradient
       id="linear-gradient-7"
       x1="256.95"
       y1="363.42"
       x2="257.78"
       y2="351.59"
       xlink:href="#linear-gradient"
       gradientTransform="matrix(-0.96362997,0,0,0.96362997,548.35107,23.804652)" />
    <linearGradient
       id="linear-gradient-8"
       x1="290.86"
       y1="419.35"
       x2="258.94"
       y2="429.25"
       xlink:href="#linear-gradient"
       gradientTransform="matrix(-0.96362997,0,0,0.96362997,548.35107,23.804652)" />
    <linearGradient
       id="linear-gradient-9"
       x1="343.31"
       y1="424.73"
       x2="351.01"
       y2="468.39"
       xlink:href="#linear-gradient"
       gradientTransform="matrix(-0.96362997,0,0,0.96362997,548.35107,23.804652)" />
    <linearGradient
       id="linear-gradient-10"
       x1="351.99"
       y1="409.57"
       x2="305.76"
       y2="362.24"
       xlink:href="#linear-gradient"
       gradientTransform="matrix(-0.96362997,0,0,0.96362997,548.35107,23.804652)" />
    <linearGradient
       id="linear-gradient-11"
       x1="139.01"
       y1="157.74"
       x2="275.49"
       y2="62.35"
       xlink:href="#linear-gradient-4"
       gradientTransform="matrix(0.96362997,0,0,0.96362997,-531.01536,25.115189)" />
    <linearGradient
       id="linear-gradient-12"
       x1="258.5"
       y1="196.81"
       x2="281.43"
       y2="196.81"
       gradientUnits="userSpaceOnUse">
      <stop
         offset="0"
         stop-color="#e4c5d5"
         id="stop33" />
      <stop
         offset="0.42"
         stop-color="#e9d3cf"
         id="stop35" />
      <stop
         offset="1"
         stop-color="#efe8ca"
         id="stop37" />
    </linearGradient>
    <linearGradient
       id="linear-gradient-13"
       x1="270.75"
       y1="203.42"
       x2="301.57"
       y2="175.91"
       xlink:href="#linear-gradient"
       gradientTransform="matrix(-0.96362997,0,0,0.96362997,548.35107,23.804652)" />
    <linearGradient
       id="linear-gradient-14"
       x1="246.74"
       y1="270.47"
       x2="387.25"
       y2="321.83"
       xlink:href="#linear-gradient"
       gradientTransform="matrix(-0.96362997,0,0,0.96362997,548.35107,23.804652)" />
    <linearGradient
       id="linear-gradient-15"
       x1="318.4"
       y1="239.18"
       x2="346.51"
       y2="239.18"
       xlink:href="#linear-gradient-12"
       gradientTransform="matrix(-0.96362997,0,0,0.96362997,548.35107,23.804652)" />
    <linearGradient
       id="linear-gradient-16"
       x1="326.18"
       y1="361.95"
       x2="197.95"
       y2="361.95"
       xlink:href="#linear-gradient"
       gradientTransform="matrix(-0.96362997,0,0,0.96362997,548.35107,23.804652)" />
    <linearGradient
       id="linear-gradient-17"
       x1="230.16"
       y1="231.5"
       x2="212.55"
       y2="373.85"
       xlink:href="#linear-gradient"
       gradientTransform="matrix(-0.96362997,0,0,0.96362997,548.35107,23.804652)" />
    <linearGradient
       id="linear-gradient-18"
       x1="305.95"
       y1="240.61"
       x2="263.58"
       y2="283.26"
       xlink:href="#linear-gradient"
       gradientTransform="matrix(-0.96362997,0,0,0.96362997,548.35107,23.804652)" />
    <linearGradient
       id="linear-gradient-19"
       x1="335.56"
       y1="242.09"
       x2="382.15"
       y2="251.26"
       xlink:href="#linear-gradient" />
    <linearGradient
       id="linear-gradient-20"
       x1="454.86"
       y1="306.88"
       x2="448.26"
       y2="-66.24"
       xlink:href="#linear-gradient-4"
       gradientTransform="matrix(0.96362997,0,0,0.96362997,-531.01536,25.115189)" />
    <linearGradient
       id="linear-gradient-21"
       x1="375.91"
       y1="410.59"
       x2="439.74"
       y2="93.61"
       xlink:href="#linear-gradient-4"
       gradientTransform="matrix(0.96362997,0,0,0.96362997,-531.01536,25.115189)" />
    <linearGradient
       id="linear-gradient-22"
       x1="271.87"
       y1="186.92"
       x2="301.85"
       y2="186.92"
       xlink:href="#linear-gradient-12"
       gradientTransform="matrix(-0.96362997,0,0,0.96362997,548.35107,23.804652)" />
    <linearGradient
       id="linear-gradient-23"
       x1="284.31"
       y1="187.69"
       x2="274.68"
       y2="170.08"
       xlink:href="#linear-gradient"
       gradientTransform="matrix(-0.96362997,0,0,0.96362997,548.35107,23.804652)" />
    <linearGradient
       id="linear-gradient-24"
       x1="281.26"
       y1="150.67"
       x2="265.29"
       y2="223.34"
       xlink:href="#linear-gradient"
       gradientTransform="matrix(-0.96362997,0,0,0.96362997,548.35107,23.804652)" />
    <linearGradient
       id="linear-gradient-25"
       x1="280.23"
       y1="149.39"
       x2="271.15"
       y2="222.86"
       xlink:href="#linear-gradient"
       gradientTransform="matrix(-0.96362997,0,0,0.96362997,548.35107,23.804652)" />
    <linearGradient
       id="linear-gradient-26"
       x1="45.68"
       y1="334.81"
       x2="246.07"
       y2="-97.32"
       xlink:href="#linear-gradient-4"
       gradientTransform="matrix(0.96362997,0,0,0.96362997,-531.01536,25.115189)" />
    <linearGradient
       inkscape:collect="always"
       xlink:href="#linear-gradient"
       id="linearGradient171"
       gradientUnits="userSpaceOnUse"
       x1="299.35"
       y1="224.78"
       x2="465.92"
       y2="296.32" />
    <linearGradient
       inkscape:collect="always"
       xlink:href="#linear-gradient-4"
       id="linearGradient173"
       gradientUnits="userSpaceOnUse"
       x1="238.79"
       y1="420.48"
       x2="240.17"
       y2="467.25"
       gradientTransform="matrix(0.96362997,0,0,0.96362997,-531.01536,25.115189)" />
    <linearGradient
       inkscape:collect="always"
       xlink:href="#linear-gradient-12"
       id="linearGradient175"
       gradientUnits="userSpaceOnUse"
       x1="258.5"
       y1="196.81"
       x2="281.43"
       y2="196.81"
       gradientTransform="matrix(-0.96362997,0,0,0.96362997,548.35107,23.804652)" />
  </defs>
  <title
     id="title56">Designer 2</title>
  <path
     d="m 21.399652,294.49794 c 17.4417,44.86662 64.67884,70.63408 91.043758,110.90418 2.89089,4.3267 5.42523,8.84612 7.9114,13.36555 5.50233,9.8772 10.65775,19.92786 17.34534,29.00526 21.73949,29.61235 58.12616,46.0326 94.62846,49.99312 36.50231,3.96052 73.34188,-3.35343 108.6011,-13.67391 28.138,-8.24867 57.55762,-19.81223 74.19951,-43.9608 5.68542,-8.21012 9.6363,-17.55734 15.9288,-25.27601 a 83.980352,83.980352 0 0 1 13.49082,-12.6621 c 1.42618,-1.12745 2.82344,-2.21635 4.24961,-3.31489 20.94932,-16.08298 42.19736,-32.3876 58.31889,-53.33692 16.12153,-20.94931 26.74073,-47.45877 23.24275,-73.6406 -3.43052,-25.50728 -19.66768,-47.53586 -38.15974,-65.43047 C 473.70829,188.57574 452.4217,173.70693 434.67163,155.0896 399.07514,117.79712 377.75965,65.847828 333.49049,39.367276 280.03793,7.3554891 202.13809,34.549127 156.85711,68.825445 120.05608,96.62617 90.935192,133.08992 60.571212,167.7806 c -14.387,16.46844 -29.38108,33.04287 -37.96703,53.15383 a 98.781709,98.781709 0 0 0 -1.20453,73.56351 z"
     fill="#ff8d2c"
     opacity="0.74"
     style="isolation:isolate;stroke-width:0.96363"
     id="path58" />
  <path
     d="m 120.35481,418.76767 c 5.50233,9.8772 10.65775,19.92786 17.34534,29.00526 21.73949,29.61235 58.12616,46.0326 94.62846,49.99312 36.50231,3.96052 73.34188,-3.35343 108.6011,-13.67391 28.138,-8.24867 57.55762,-19.81223 74.19951,-43.9608 5.68542,-8.21012 9.6363,-17.55734 15.9288,-25.27601 a 83.980352,83.980352 0 0 1 13.49082,-12.6621 c -19.09914,-5.45415 -39.36428,-7.52595 -59.25361,-9.5303 -49.7233,-4.97233 -99.78388,-9.94466 -149.66137,-6.21541 -28.79326,2.18744 -89.21286,5.7336 -115.27905,32.32015 z"
     fill="#ff8d2c"
     opacity="1"
     style="isolation:isolate;stroke-width:0.96363"
     id="path60" />
  <rect
     x="-161.74271"
     y="77.07412"
     width="132.93275"
     height="196.56123"
     fill="#ff8d2c"
     id="rect62"
     style="stroke-width:0.96363"
     transform="scale(-1,1)" />
  <polygon
     points="283.42,279.55 335.15,177.55 375.51,167.65 303.97,316.6 "
     fill="#ff8d2c"
     id="polygon64"
     transform="matrix(-0.96362997,0,0,0.96362997,531.01536,25.115189)" />
  <polygon
     points="283.42,279.55 335.15,177.55 375.51,167.65 303.97,316.6 "
     fill="url(#linear-gradient)"
     id="polygon66"
     style="fill:url(#linearGradient171)"
     transform="matrix(-0.96362997,0,0,0.96362997,531.01536,25.115189)" />
  <polygon
     points="291.13,267.44 328.18,191.5 352.4,188.93 305.07,291.65 "
     fill="#ffffff"
     id="polygon68"
     transform="matrix(-0.96362997,0,0,0.96362997,531.01536,25.115189)" />
  <path
     d="m 216.35163,258.29437 c 3.70997,0.78054 7.88249,1.92726 9.6363,5.26142 0.90581,1.76344 0.96363,3.85452 1.28162,5.78178 a 18.993147,18.993147 0 0 0 3.04508,7.54522 l 6.69722,-11.7852 a 3.6907028,3.6907028 0 0 0 0.60709,-1.60926 3.8545199,3.8545199 0 0 0 -0.96363,-2.21635 76.598947,76.598947 0 0 1 -8.31613,-15.33135 c -1.77307,-4.41343 -2.44762,-9.24121 -5.73359,-12.84519 -1.67672,-1.84053 -5.50233,-5.45414 -8.3354,-5.02051 -4.0087,0.60709 -1.02145,6.80323 -0.46255,9.27012 0.424,1.80199 2.71744,20.98786 2.54399,20.94932 z"
     fill="#ff8d2c"
     opacity="0.24"
     style="isolation:isolate;stroke-width:0.96363"
     id="path70" />
  <path
     d="m 214.73273,246.14299 a 22.346579,22.346579 0 0 0 2.59216,6.4756 c 5.45415,10.34938 22.16349,58.03943 24.92911,69.1019 1.43581,-2.69816 6.08051,-11.27447 7.52595,-13.97263 0.96363,-1.73454 1.87908,-3.58471 1.79235,-5.55051 a 11.101017,11.101017 0 0 0 -1.32017,-4.14361 c -3.00653,-6.41778 -6.06123,-12.89337 -10.35902,-18.53061 -3.0258,-3.97979 -2.58253,-8.14267 -5.67578,-12.07428 -5.44451,-6.89959 -9.81939,-14.04972 -12.37301,-22.44294 -0.40473,-1.32017 -9.03885,-7.59341 -11.17811,-6.85141 -1.58035,0.53963 3.82561,6.57196 4.06652,7.98849 z"
     fill="url(#linear-gradient-2)"
     id="path72"
     style="fill:url(#linear-gradient-2);stroke-width:0.96363" />
  <path
     d="m 248.35378,243.30028 c 0.79981,2.89089 -20.40968,-1.11781 -25.05438,-1.72489 -4.35561,-0.56855 -8.84612,-1.1949 -12.64283,-3.42089 0.53964,0.318 3.17035,-0.64563 4.04725,-0.59745 1.97544,0.0867 3.98943,0.50109 5.96487,0.72272 4.02797,0.41436 27.61763,2.43799 27.68509,5.02051 z"
     fill="#ff8d2c"
     id="path74"
     style="stroke-width:0.96363" />
  <path
     d="m 248.35378,243.30028 c 0.79981,2.89089 -20.40968,-1.11781 -25.05438,-1.72489 -4.35561,-0.56855 -8.84612,-1.1949 -12.64283,-3.42089 0.53964,0.318 3.17035,-0.64563 4.04725,-0.59745 1.97544,0.0867 3.98943,0.50109 5.96487,0.72272 4.02797,0.41436 27.61763,2.43799 27.68509,5.02051 z"
     fill="url(#linear-gradient-3)"
     id="path76"
     style="fill:url(#linear-gradient-3);stroke-width:0.96363" />
  <ellipse
     cx="-300.52469"
     cy="445.19998"
     rx="29.188353"
     ry="10.378295"
     fill="#ff8d2c"
     id="ellipse78"
     style="stroke-width:0.96363"
     transform="scale(-1,1)" />
  <ellipse
     cx="-300.52469"
     cy="443.16672"
     rx="29.188353"
     ry="8.3450356"
     opacity="0.65"
     fill="url(#linear-gradient-4)"
     id="ellipse80"
     style="fill:url(#linearGradient173);stroke-width:0.96363"
     transform="scale(-1,1)" />
  <path
     d="m 305.89212,373.94924 h -9.54957 v 61.24832 a 4.8181499,4.8181499 0 0 0 4.81815,4.81815 v 0 a 4.8181499,4.8181499 0 0 0 4.81815,-4.81815 v -61.24832 z"
     fill="#ff8d2c"
     id="path82"
     style="stroke-width:0.96363" />
  <path
     d="m 305.89212,373.94924 h -9.54957 v 61.24832 a 4.8181499,4.8181499 0 0 0 4.81815,4.81815 v 0 a 4.8181499,4.8181499 0 0 0 4.81815,-4.81815 v -61.24832 z"
     opacity="0.65"
     fill="url(#linear-gradient-5)"
     id="path84"
     style="fill:url(#linear-gradient-5);stroke-width:0.96363" />
  <path
     d="m 348.76402,361.47023 c -0.0675,4.6736 -0.44327,9.6363 -3.2667,13.37518 -3.32453,4.37488 -9.23158,5.89742 -14.72427,6.08051 a 24.495474,24.495474 0 0 1 -8.67267,-1.05036 13.163185,13.163185 0 0 1 -6.94777,-5.11687 c 3.44016,-1.7249 7.63195,-0.38546 11.37083,-1.28163 a 16.38171,16.38171 0 0 0 5.12651,-2.47653 c 5.78178,-3.80634 11.16848,-9.4243 11.49611,-16.33353 0.16382,-3.4787 -1.06963,-6.96704 -0.47218,-10.43611 0.27945,-1.63817 1.92726,-5.49269 4.17252,-3.38234 1.71526,1.59962 1.42617,7.60304 1.59962,9.83866 0.30837,3.5847 0.37582,7.18868 0.318,10.78302 z"
     fill="#ff8d2c"
     id="path86"
     style="stroke-width:0.96363" />
  <path
     d="m 348.76402,361.47023 c -0.0675,4.6736 -0.44327,9.6363 -3.2667,13.37518 -3.32453,4.37488 -9.23158,5.89742 -14.72427,6.08051 a 24.495474,24.495474 0 0 1 -8.67267,-1.05036 13.163185,13.163185 0 0 1 -6.94777,-5.11687 c 3.44016,-1.7249 7.63195,-0.38546 11.37083,-1.28163 a 16.38171,16.38171 0 0 0 5.12651,-2.47653 c 5.78178,-3.80634 11.16848,-9.4243 11.49611,-16.33353 0.16382,-3.4787 -1.06963,-6.96704 -0.47218,-10.43611 0.27945,-1.63817 1.92726,-5.49269 4.17252,-3.38234 1.71526,1.59962 1.42617,7.60304 1.59962,9.83866 0.30837,3.5847 0.37582,7.18868 0.318,10.78302 z"
     fill="url(#linear-gradient-6)"
     id="path88"
     style="fill:url(#linear-gradient-6);stroke-width:0.96363" />
  <path
     d="m 316.0006,356.25699 c 5.02052,0.34691 9.75194,2.39944 12.42119,5.40596 a 8.7497602,8.7497602 0 0 1 1.4069,10.18557 c -1.8598,3.39198 -6.00341,6.0516 -10.82156,7.53559 a 49.019857,49.019857 0 0 1 -15.34099,1.92726 78.150391,78.150391 0 0 1 -26.29746,-4.94342 11.794831,11.794831 0 0 1 -2.95835,-1.47436 7.6030405,7.6030405 0 0 1 -1.58999,-1.77308 21.932218,21.932218 0 0 1 -2.80416,-5.46378 6.109414,6.109414 0 0 1 -0.40472,-3.0547 c 0.50108,-2.61144 3.80633,-4.50979 7.21758,-5.61797 6.10942,-1.97544 13.02828,-2.22598 19.75442,-2.44762 7.5934,-0.25054 15.21572,-0.50109 22.80912,-0.0964"
     fill="#606161"
     id="path90"
     style="stroke-width:0.96363" />
  <path
     d="m 316.0006,356.25699 c 5.02052,0.34691 9.75194,2.39944 12.42119,5.40596 a 8.7497602,8.7497602 0 0 1 1.4069,10.18557 c -1.8598,3.39198 -6.00341,6.0516 -10.82156,7.53559 a 49.019857,49.019857 0 0 1 -15.34099,1.92726 78.150391,78.150391 0 0 1 -26.29746,-4.94342 11.794831,11.794831 0 0 1 -2.95835,-1.47436 7.6030405,7.6030405 0 0 1 -1.58999,-1.77308 21.932218,21.932218 0 0 1 -2.80416,-5.46378 6.109414,6.109414 0 0 1 -0.40472,-3.0547 c 0.50108,-2.61144 3.80633,-4.50979 7.21758,-5.61797 6.10942,-1.97544 13.02828,-2.22598 19.75442,-2.44762 7.5934,-0.25054 15.21572,-0.50109 22.80912,-0.0964"
     fill="url(#linear-gradient-7)"
     id="path92"
     style="fill:url(#linear-gradient-7);stroke-width:0.96363" />
  <path
     d="m 288.29624,418.36294 a 5.7817798,5.7817798 0 0 1 1.4069,2.23562 6.1865044,6.1865044 0 0 1 0,2.59217 c -1.37799,9.22194 -8.17158,16.6708 -15.41808,22.52967 -1.23344,0.96363 -2.71744,2.01398 -4.24961,1.67671 -2.11998,-0.48181 -2.89089,-3.13179 -2.89089,-5.29996 -0.12527,-4.50979 0.79018,-8.9714 1.70563,-13.38482 0.84799,-4.06652 0.96363,-14.24245 5.48305,-16.17935 4.51943,-1.9369 11.21666,2.77525 13.963,5.82996 z"
     fill="#ff8d2c"
     id="path94"
     style="stroke-width:0.96363" />
  <path
     d="m 231.24935,449.04492 a 1.3587183,1.3587183 0 0 1 -0.45291,0.76127 1.9850777,1.9850777 0 0 1 -1.17563,0.24091 c -10.01211,0 -20.47713,-0.0482 -29.32326,-4.01834 -0.73236,-0.32764 -1.54181,-0.81909 -1.52253,-1.5129 0.0193,-0.69381 0.75163,-1.11781 1.4069,-1.46472 7.43922,-3.85452 15.33135,-7.70904 24.04256,-8.90394 4.44234,-0.62636 6.61051,-1.03108 7.53559,3.06434 a 22.442942,22.442942 0 0 1 -0.51072,11.83338 z"
     fill="#ff8d2c"
     id="path96"
     style="stroke-width:0.96363" />
  <path
     d="m 288.29624,418.36294 a 5.7817798,5.7817798 0 0 1 1.4069,2.23562 6.1865044,6.1865044 0 0 1 0,2.59217 c -1.37799,9.22194 -8.17158,16.6708 -15.41808,22.52967 -1.23344,0.96363 -2.71744,2.01398 -4.24961,1.67671 -2.11998,-0.48181 -2.89089,-3.13179 -2.89089,-5.29996 -0.12527,-4.50979 0.79018,-8.9714 1.70563,-13.38482 0.84799,-4.06652 0.96363,-14.24245 5.48305,-16.17935 4.51943,-1.9369 11.21666,2.77525 13.963,5.82996 z"
     fill="url(#linear-gradient-8)"
     id="path98"
     style="fill:url(#linear-gradient-8);stroke-width:0.96363" />
  <path
     d="m 231.24935,449.04492 a 1.3587183,1.3587183 0 0 1 -0.45291,0.76127 1.9850777,1.9850777 0 0 1 -1.17563,0.24091 c -10.01211,0 -20.47713,-0.0482 -29.32326,-4.01834 -0.73236,-0.32764 -1.54181,-0.81909 -1.52253,-1.5129 0.0193,-0.69381 0.75163,-1.11781 1.4069,-1.46472 7.43922,-3.85452 15.33135,-7.70904 24.04256,-8.90394 4.44234,-0.62636 6.61051,-1.03108 7.53559,3.06434 a 22.442942,22.442942 0 0 1 -0.51072,11.83338 z"
     fill="url(#linear-gradient-9)"
     id="path100"
     style="fill:url(#linear-gradient-9);stroke-width:0.96363" />
  <path
     d="m 222.03704,427.01634 c 0,2.76562 0,5.71432 1.46472,8.03667 1.46472,2.32235 5.08797,3.48834 7.07305,1.57072 a 7.1983159,7.1983159 0 0 0 1.61889,-3.3438 267.44586,267.44586 0 0 1 11.38047,-32.03106 c 2.75599,-6.45632 5.78178,-12.96082 6.37923,-19.94714 0.59746,-6.98631 -1.92726,-14.74354 -8.04631,-18.24151 -4.81815,-2.74635 -14.38699,-3.44016 -18.62696,0.89617 -3.21853,3.29562 -1.01181,8.31613 -0.66491,12.31519 1.44545,16.60335 -0.32763,34.07396 -0.57818,50.74476 z"
     fill="#606161"
     id="path102"
     style="stroke-width:0.96363" />
  <path
     d="m 222.03704,427.01634 c 0,2.76562 0,5.71432 1.46472,8.03667 1.46472,2.32235 5.08797,3.48834 7.07305,1.57072 a 7.1983159,7.1983159 0 0 0 1.61889,-3.3438 267.44586,267.44586 0 0 1 11.38047,-32.03106 c 2.75599,-6.45632 5.78178,-12.96082 6.37923,-19.94714 0.59746,-6.98631 -1.92726,-14.74354 -8.04631,-18.24151 -4.81815,-2.74635 -14.38699,-3.44016 -18.62696,0.89617 -3.21853,3.29562 -1.01181,8.31613 -0.66491,12.31519 1.44545,16.60335 -0.32763,34.07396 -0.57818,50.74476 z"
     fill="url(#linear-gradient-10)"
     id="path104"
     style="fill:url(#linear-gradient-10);stroke-width:0.96363" />
  <rect
     x="-382.00925"
     y="73.980865"
     width="85.059616"
     height="125.77299"
     fill="#ff8d2c"
     id="rect106"
     style="stroke-width:0.96363"
     transform="scale(-1,1)" />
  <rect
     x="-382.00925"
     y="73.980865"
     width="85.059616"
     height="125.77299"
     fill="url(#linear-gradient-11)"
     id="rect108"
     style="fill:url(#linear-gradient-11);stroke-width:0.96363"
     transform="scale(-1,1)" />
  <path
     d="m 277.24341,215.70192 c 0.56854,3.08362 1.09853,6.21541 1.65744,9.29903 a 3.2859782,3.2859782 0 0 0 0.86727,2.03326 1.8501696,1.8501696 0 0 0 1.24308,0.45291 6.8321365,6.8321365 0 0 0 1.92726,-0.37582 c 4.97233,-1.6189 10.05066,-3.27634 14.38699,-6.21541 a 3.5461583,3.5461583 0 0 0 1.87908,-2.44762 3.9797918,3.9797918 0 0 0 -0.59745,-1.92726 c -1.85017,-3.43053 -6.96704,-15.93844 -11.30338,-16.9888 -1.92726,-0.49145 -3.49797,1.73453 -4.93378,4.51943 -1.6189,3.31488 -3.01616,7.45849 -4.33634,8.88466 a 3.8545199,3.8545199 0 0 0 -0.85763,1.35872 3.8545199,3.8545199 0 0 0 0.0675,1.4069 z"
     fill="url(#linear-gradient-12)"
     id="path110"
     style="fill:url(#linearGradient175);stroke-width:0.96363" />
  <path
     d="m 277.24341,215.70192 c 0.56854,3.08362 1.09853,6.21541 1.65744,9.29903 a 3.2859782,3.2859782 0 0 0 0.86727,2.03326 1.8501696,1.8501696 0 0 0 1.24308,0.45291 6.7454098,6.7454098 0 0 0 3.85452,-3.39198 17.403157,17.403157 0 0 0 1.54181,-5.56978 c 0.60708,-4.29779 1.02144,-8.93285 -0.106,-13.14392 -0.53,-2.00435 -2.11035,-2.00435 -3.85452,-1.35871 -1.6189,3.31488 -3.01616,7.45849 -4.33634,8.88466 a 3.8545199,3.8545199 0 0 0 -0.85763,1.35872 3.8545199,3.8545199 0 0 0 -0.01,1.43581 z"
     fill="url(#linear-gradient-13)"
     id="path112"
     style="fill:url(#linear-gradient-13);stroke-width:0.96363" />
  <path
     d="m 303.67578,219.26735 a 5.7817798,5.7817798 0 0 1 2.89089,0.96363 c 1.39726,1.13709 1.53217,3.17998 1.68635,4.97233 1.48399,17.5188 14.91699,32.26233 16.63225,49.76185 0.55891,5.65651 -0.15418,11.34193 -0.61672,17.00807 a 198.44996,198.44996 0 0 0 0.0867,33.33196 c 0.65527,7.42959 1.67672,15.19645 -1.06962,22.16349 -1.07927,2.72708 -3.29562,5.54088 -6.21542,5.36742 a 8.4992164,8.4992164 0 0 1 -3.48834,-1.3009 l -38.90174,-21.63349 c -1.53217,-0.84799 -3.16071,-1.81162 -3.85452,-3.43052 -1.1949,-2.89089 1.3009,-5.86851 3.26671,-8.31613 a 33.129599,33.129599 0 0 0 7.1694,-22.92476 c -0.68417,-5.46378 -1.82126,-12.75846 -4.59651,-14.34845 -2.77526,-1.58999 -5.85887,1.77308 -6.62978,-1.32017 -2.14889,-8.67267 -2.54398,-6.56232 -2.20671,-16.32389 a 95.399368,95.399368 0 0 1 3.49798,-22.47185 28.080177,28.080177 0 0 1 3.65216,-8.72085 c 6.44668,-8.99067 17.81751,-14.23282 28.6969,-12.77774 z"
     fill="#ff8d2c"
     id="path114"
     style="stroke-width:0.96363" />
  <path
     d="m 303.67578,219.26735 a 5.7817798,5.7817798 0 0 1 2.89089,0.96363 c 1.39726,1.13709 1.53217,3.17998 1.68635,4.97233 1.48399,17.5188 14.91699,32.26233 16.63225,49.76185 0.55891,5.65651 -0.15418,11.34193 -0.61672,17.00807 a 198.44996,198.44996 0 0 0 0.0867,33.33196 c 0.65527,7.42959 1.67672,15.19645 -1.06962,22.16349 -1.07927,2.72708 -3.29562,5.54088 -6.21542,5.36742 a 8.4992164,8.4992164 0 0 1 -3.48834,-1.3009 l -38.90174,-21.63349 c -1.53217,-0.84799 -3.16071,-1.81162 -3.85452,-3.43052 -1.1949,-2.89089 1.3009,-5.86851 3.26671,-8.31613 a 33.129599,33.129599 0 0 0 7.1694,-22.92476 c -2.20671,-17.52843 -14.04009,-18.26078 -13.73172,-24.81347 0.50108,-10.46502 1.21417,-21.0264 4.21106,-31.06743 a 24.736381,24.736381 0 0 1 3.2378,-7.30431 c 6.44668,-8.99067 17.81751,-14.23282 28.6969,-12.77774 z"
     fill="url(#linear-gradient-14)"
     id="path116"
     style="fill:url(#linear-gradient-14);stroke-width:0.96363" />
  <path
     d="m 230.74826,246.24899 a 8.4799438,8.4799438 0 0 0 -0.26018,-2.04289 6.6586831,6.6586831 0 0 0 -1.58999,-2.40908 26.143281,26.143281 0 0 0 -13.49082,-7.66086 1.8598059,1.8598059 0 0 0 -0.68418,2.66926 9.9446613,9.9446613 0 0 0 1.0889,1.01181 c 1.55145,1.58035 0.69382,4.19179 0.78054,6.40814 0.17346,4.25924 4.01834,7.26577 6.63942,10.59993 3.93161,5.05906 5.39632,11.78519 9.6363,16.57443 1.70562,1.92726 5.78177,4.58688 8.05594,1.8309 1.67672,-2.04289 -0.84799,-5.13615 -2.01398,-6.74541 -4.35561,-6.23468 -7.71868,-12.44046 -8.16195,-20.23623 z"
     fill="url(#linear-gradient-15)"
     id="path118"
     style="fill:url(#linear-gradient-15);stroke-width:0.96363" />
  <path
     d="m 216.34199,352.71083 c -1.38763,0.96363 -2.89089,2.03326 -3.2667,3.65216 a 5.9455969,5.9455969 0 0 0 0.41436,3.43052 c 1.56108,4.3267 4.64469,7.89213 7.70904,11.29374 a 329.75418,329.75418 0 0 0 50.69657,45.29061 c 0.96363,0.72273 2.1778,1.48399 3.39198,1.22381 a 3.0932522,3.0932522 0 0 0 2.09107,-3.24743 9.0484855,9.0484855 0 0 0 -1.47435,-3.85452 q -9.16412,-16.23716 -16.9888,-33.15851 c -1.80198,-3.85452 -3.57506,-7.94031 -3.70034,-12.22846 q 22.41404,-1.02145 44.77989,-2.89089 c 5.28069,-0.43363 11.10102,-1.16599 14.61827,-5.13615 a 5.8974154,5.8974154 0 0 0 1.49362,-2.76562 7.1983159,7.1983159 0 0 0 -0.96363,-4.25924 31.847971,31.847971 0 0 0 -21.12277,-17.05625 c -3.51725,-0.82872 -7.19831,-1.04072 -10.59993,-2.26453 -2.80416,-1.01181 -5.34814,-2.98725 -8.42212,-3.14144 -5.49269,-0.26981 -12.52719,3.27635 -17.68261,4.97233 a 165.93708,165.93708 0 0 0 -40.97355,20.13987 z"
     fill="#606161"
     id="path120"
     style="stroke-width:0.96363" />
  <path
     d="m 216.34199,352.71083 c -1.38763,0.96363 -2.89089,2.03326 -3.2667,3.65216 a 5.9455969,5.9455969 0 0 0 0.41436,3.43052 c 1.56108,4.3267 4.64469,7.89213 7.70904,11.29374 a 329.75418,329.75418 0 0 0 50.69657,45.29061 c 0.96363,0.72273 2.1778,1.48399 3.39198,1.22381 a 3.0932522,3.0932522 0 0 0 2.09107,-3.24743 9.0484855,9.0484855 0 0 0 -1.47435,-3.85452 q -9.16412,-16.23716 -16.9888,-33.15851 c -1.80198,-3.85452 -3.57506,-7.94031 -3.70034,-12.22846 q 22.41404,-1.02145 44.77989,-2.89089 c 5.28069,-0.43363 11.10102,-1.16599 14.61827,-5.13615 a 5.8974154,5.8974154 0 0 0 1.49362,-2.76562 7.1983159,7.1983159 0 0 0 -0.96363,-4.25924 31.847971,31.847971 0 0 0 -21.12277,-17.05625 c -3.51725,-0.82872 -7.19831,-1.04072 -10.59993,-2.26453 -2.80416,-1.01181 -5.34814,-2.98725 -8.42212,-3.14144 -5.49269,-0.26981 -12.52719,3.27635 -17.68261,4.97233 a 165.93708,165.93708 0 0 0 -40.97355,20.13987 z"
     fill="url(#linear-gradient-16)"
     id="path122"
     style="fill:url(#linear-gradient-16);stroke-width:0.96363" />
  <path
     d="m 339.19518,283.85947 c 3.74852,0.36618 7.00559,2.89089 9.05812,6.07087 2.05253,3.17998 3.05471,6.87068 3.85452,10.54211 2.84271,13.36555 3.07398,27.82963 -2.83307,40.14483 -1.45509,3.03543 -3.58471,6.13832 -6.85141,6.93813 -4.21107,1.02145 -8.31613,-2.29344 -10.54211,-6.02269 -4.29779,-7.20795 -4.40379,-16.07334 -4.38452,-24.46656 v -16.70935 c 0.0289,-7.15013 2.39944,-17.40315 11.69847,-16.49734 z"
     fill="#606161"
     id="path124"
     style="stroke-width:0.96363" />
  <path
     d="m 343.61824,301.01208 c 2.83307,12.73919 1.59962,26.58655 -4.66397,38.03448 -1.25272,2.29344 -3.35343,4.81815 -5.91669,4.25924 a 5.7817798,5.7817798 0 0 1 -3.33416,-2.7078 20.13023,20.13023 0 0 1 -2.98725,-6.98631 39.277558,39.277558 0 0 1 -0.66491,-7.13087 c -0.35654,-10.59993 -0.71308,-21.27695 0.26982,-31.8576 a 14.001544,14.001544 0 0 1 1.60926,-6.20578 c 2.94871,-4.81815 7.38141,-3.08362 10.29157,0.43363 2.91016,3.51725 4.4327,7.84395 5.39633,12.16101 z"
     fill="#606161"
     id="path126"
     style="stroke-width:0.96363" />
  <path
     d="m 343.61824,301.01208 c 2.83307,12.73919 1.59962,26.58655 -4.66397,38.03448 -1.25272,2.29344 -3.35343,4.81815 -5.91669,4.25924 a 5.7817798,5.7817798 0 0 1 -3.33416,-2.7078 20.13023,20.13023 0 0 1 -2.98725,-6.98631 39.277558,39.277558 0 0 1 -0.66491,-7.13087 c -0.35654,-10.59993 -0.71308,-21.27695 0.26982,-31.8576 a 14.001544,14.001544 0 0 1 1.60926,-6.20578 c 2.94871,-4.81815 7.38141,-3.08362 10.29157,0.43363 2.91016,3.51725 4.4327,7.84395 5.39633,12.16101 z"
     fill="url(#linear-gradient-17)"
     id="path128"
     style="fill:url(#linear-gradient-17);stroke-width:0.96363" />
  <path
     d="m 262.23005,256.63692 c -3.12216,2.50544 -7.06341,4.41343 -11.03356,3.85452 -4.12434,-0.57818 -7.70904,-3.71961 -11.86229,-3.66179 a 20.168775,20.168775 0 0 0 3.0258,9.55921 c 2.18744,3.49798 5.38669,6.23468 8.53776,8.91358 l 7.18868,6.09977 c 1.02145,0.86727 2.23562,1.79235 3.5558,1.58036 a 3.7967021,3.7967021 0 0 0 1.78271,-0.96363 c 2.82344,-2.38981 4.01834,-6.14796 5.03979,-9.70376 0.86726,-3.04507 1.70562,-6.09014 2.54398,-9.14485 a 18.077698,18.077698 0 0 0 0.85763,-4.68324 c 0,-2.37053 -0.61672,-7.25613 -1.82126,-9.01957 -2.89089,1.9658 -5.07833,4.9916 -7.81504,7.1694 z"
     fill="#ff8d2c"
     id="path130"
     style="stroke-width:0.96363" />
  <path
     d="m 262.23005,256.63692 c -3.12216,2.50544 -7.06341,4.41343 -11.03356,3.85452 -4.12434,-0.57818 -7.70904,-3.71961 -11.86229,-3.66179 a 20.168775,20.168775 0 0 0 3.0258,9.55921 c 2.18744,3.49798 5.38669,6.23468 8.53776,8.91358 l 7.18868,6.09977 c 1.02145,0.86727 2.23562,1.79235 3.5558,1.58036 a 3.7967021,3.7967021 0 0 0 1.78271,-0.96363 c 2.82344,-2.38981 4.01834,-6.14796 5.03979,-9.70376 0.86726,-3.04507 1.70562,-6.09014 2.54398,-9.14485 a 18.077698,18.077698 0 0 0 0.85763,-4.68324 c 0,-2.37053 -0.61672,-7.25613 -1.82126,-9.01957 -2.89089,1.9658 -5.07833,4.9916 -7.81504,7.1694 z"
     fill="url(#linear-gradient-18)"
     id="path132"
     style="fill:url(#linear-gradient-18);stroke-width:0.96363" />
  <polygon
     points="303.97,316.6 375.51,167.65 382.85,176.82 314.61,320.27 "
     fill="#ff8d2c"
     id="polygon134"
     transform="matrix(-0.96362997,0,0,0.96362997,531.01536,25.115189)" />
  <polygon
     points="303.97,316.6 375.51,167.65 382.85,176.82 314.61,320.27 "
     fill="url(#linear-gradient-19)"
     id="polygon136"
     style="fill:url(#linear-gradient-19)"
     transform="matrix(-0.96362997,0,0,0.96362997,531.01536,25.115189)" />
  <rect
     x="-161.74271"
     y="77.07412"
     width="132.93275"
     height="196.56123"
     fill="url(#linear-gradient-20)"
     id="rect138"
     style="fill:url(#linear-gradient-20);stroke-width:0.96363"
     transform="scale(-1,1)" />
  <rect
     x="-187.54874"
     y="262.55359"
     width="78.025124"
     height="115.37542"
     fill="#ff8d2c"
     id="rect140"
     style="stroke-width:0.96363"
     transform="scale(-1,1)" />
  <rect
     x="-187.54874"
     y="262.55359"
     width="78.025124"
     height="115.37542"
     fill="url(#linear-gradient-21)"
     id="rect142"
     style="fill:url(#linear-gradient-21);stroke-width:0.96363"
     transform="scale(-1,1)" />
  <path
     d="m 257.63354,196.52569 c 0.53963,3.01616 2.71743,5.78177 2.23562,8.80757 -0.27946,1.71526 -1.32981,3.72925 -0.12527,4.98197 a 5.7817798,5.7817798 0 0 0 1.45508,0.89618 c 2.0718,1.15635 3.0547,3.55579 3.99906,5.78178 0.94436,2.22598 2.26453,4.51942 4.54833,5.19396 1.8309,0.53963 3.79671,-0.16382 5.46379,-1.07926 a 22.163489,22.163489 0 0 0 10.76374,-23.24276 c -0.96363,-4.44233 -3.45943,-8.74976 -7.4874,-10.8312 -6.76468,-3.52689 -22.7224,-0.90581 -20.85295,9.49176 z"
     fill="url(#linear-gradient-22)"
     id="path144"
     style="fill:url(#linear-gradient-22);stroke-width:0.96363" />
  <path
     d="m 255.20519,195.09951 c 0.96363,1.38763 2.66925,2.67889 4.23997,2.0429 1.57072,-0.636 2.03326,-2.50544 3.52689,-2.89089 1.67671,-0.41436 3.13179,1.39726 4.81815,1.48399 a 10.23375,10.23375 0 0 0 2.64034,-0.58782 7.0055899,7.0055899 0 0 1 6.35032,2.33199 20.457864,20.457864 0 0 1 3.5558,6.0805 5.7239621,5.7239621 0 0 0 1.92726,-5.21323 7.5644953,7.5644953 0 0 1 5.19396,6.09014 c 0.25055,1.8598 0,4.23033 1.67672,5.10724 a 4.1917904,4.1917904 0 0 0 1.98508,0.32763 h 6.88995 c 2.47653,0 5.48306,-0.29873 6.52378,-2.54398 0.7709,-1.67672 0,-3.62325 -0.75164,-5.29033 -3.3727,-7.22723 -7.42958,-14.27136 -13.14391,-19.84114 -5.71432,-5.56978 -13.27882,-9.54958 -21.25768,-9.71339 -9.91575,-0.15418 -20.64095,13.50045 -14.17499,22.61639 z"
     fill="#606161"
     id="path146"
     style="stroke-width:0.96363" />
  <path
     d="m 255.20519,195.09951 c 0.96363,1.38763 2.66925,2.67889 4.23997,2.0429 1.57072,-0.636 2.03326,-2.50544 3.52689,-2.89089 1.67671,-0.41436 3.13179,1.39726 4.81815,1.48399 a 10.23375,10.23375 0 0 0 2.64034,-0.58782 7.0055899,7.0055899 0 0 1 6.35032,2.33199 20.457864,20.457864 0 0 1 3.5558,6.0805 5.7239621,5.7239621 0 0 0 1.92726,-5.21323 7.5644953,7.5644953 0 0 1 5.19396,6.09014 c 0.25055,1.8598 0,4.23033 1.67672,5.10724 a 4.1917904,4.1917904 0 0 0 1.98508,0.32763 h 6.88995 c 2.47653,0 5.48306,-0.29873 6.52378,-2.54398 0.7709,-1.67672 0,-3.62325 -0.75164,-5.29033 -3.3727,-7.22723 -7.42958,-14.27136 -13.14391,-19.84114 -5.71432,-5.56978 -13.27882,-9.54958 -21.25768,-9.71339 -9.91575,-0.15418 -20.64095,13.50045 -14.17499,22.61639 z"
     fill="url(#linear-gradient-23)"
     id="path148"
     style="fill:url(#linear-gradient-23);stroke-width:0.96363" />
  <path
     d="m 299.45508,171.76039 c 2.36089,0.88654 4.81815,1.92726 6.33105,3.94125 a 13.269185,13.269185 0 0 1 2.01398,5.10724 c 0.82872,3.61361 1.28163,7.90177 -1.29126,10.59993 -2.76562,2.89089 -7.8825,2.55362 -10.33012,5.69505 a 3.9894281,3.9894281 0 0 1 -1.14672,1.22381 2.6307098,2.6307098 0 0 1 -1.28162,0.18309 c -7.39104,-0.33727 -12.41156,-7.34286 -18.67515,-11.27447 a 24.264203,24.264203 0 0 0 -12.72955,-3.70034 c -2.35126,0 -4.81815,0.318 -7.01523,-0.41436 -2.19708,-0.73236 -4.23034,-3.01616 -3.60398,-5.28069 0.52036,-1.92726 2.30308,-2.53435 3.57507,-3.7967 1.27199,-1.26236 1.57072,-2.77526 2.7078,-3.85452 2.77526,-2.72707 9.32794,-3.19925 12.98973,-3.47871 9.70376,-0.78054 19.44606,1.63817 28.456,5.04942 z"
     fill="#ff8d2c"
     id="path150"
     style="stroke-width:0.96363" />
  <path
     d="m 251.66867,178.94907 a 5.1843293,5.1843293 0 0 0 3.65215,4.18216 c 2.26453,0.72272 4.67361,0.41436 7.00559,0.41436 a 24.090749,24.090749 0 0 1 12.73919,3.6907 c 6.29251,3.92198 11.29375,10.92757 18.68479,11.26484 a 2.1392585,2.1392585 0 0 0 1.28162,-0.18309 4.8181499,4.8181499 0 0 0 1.166,-1.20454 c 2.44762,-3.17034 7.53558,-2.83307 10.32047,-5.69505 2.56326,-2.66926 2.11035,-6.96705 1.28163,-10.59993 a 19.079874,19.079874 0 0 0 -0.96363,-3.2378 6.976681,6.976681 0 0 0 -1.05035,-1.92726 c -1.5129,-1.99471 -3.96052,-3.04507 -6.29251,-3.91234 -9.03885,-3.43052 -18.76187,-5.8396 -28.47526,-5.12651 -3.6618,0.26018 -10.21448,0.75163 -12.99937,3.46907 -1.12745,1.12745 -1.50327,2.7078 -2.7078,3.91234 -1.20454,1.20453 -3.05471,1.92726 -3.54616,3.76779 a 2.2452578,2.2452578 0 0 0 -0.0964,1.18526 z"
     fill="url(#linear-gradient-24)"
     id="path152"
     style="fill:url(#linear-gradient-24);stroke-width:0.96363" />
  <path
     d="m 292.92167,232.60399 c -2.27417,-1.92726 -5.66615,0 -7.91141,1.92726 a 53.645281,53.645281 0 0 0 -7.24649,7.32359 c -8.39322,10.59993 -10.21448,25.34347 -18.59806,35.99158 -3.61362,-0.96363 -5.84924,-4.41343 -8.00777,-7.44886 -2.15853,-3.03544 -5.2036,-6.16723 -8.92321,-5.8396 -4.3267,0.37582 -6.74541,5.08797 -8.20049,9.18339 a 5.656508,5.656508 0 0 0 -0.47218,3.16071 5.7817798,5.7817798 0 0 0 1.69599,2.52471 l 13.62573,13.97264 c 2.75598,2.83307 5.78178,5.78178 9.73266,6.35032 a 12.08392,12.08392 0 0 0 8.67267,-2.68853 35.953034,35.953034 0 0 0 6.35032,-6.83214 l 13.90518,-17.80788 c 4.06652,-5.23251 8.21976,-10.59993 10.25302,-16.9117 2.03326,-6.31178 1.55145,-13.84737 -2.89089,-18.75224"
     fill="#ff8d2c"
     id="path154"
     style="stroke-width:0.96363" />
  <path
     d="m 251.66867,178.94907 a 5.1843293,5.1843293 0 0 0 3.65215,4.18216 c 2.26453,0.72272 4.67361,0.41436 7.00559,0.41436 a 24.090749,24.090749 0 0 1 12.73919,3.6907 c 6.29251,3.92198 11.29375,10.92757 18.68479,11.26484 a 2.1392585,2.1392585 0 0 0 1.28162,-0.18309 4.8181499,4.8181499 0 0 0 1.166,-1.20454 c 2.44762,-3.17034 7.53558,-2.83307 10.32047,-5.69505 2.56326,-2.66926 2.11035,-6.96705 1.28163,-10.59993 a 19.079874,19.079874 0 0 0 -0.96363,-3.2378 10.821565,10.821565 0 0 0 -1.99471,2.1778 10.59993,10.59993 0 0 1 -7.30432,3.39198 31.905788,31.905788 0 0 1 -8.25831,-0.67454 4.8181499,4.8181499 0 0 1 0.30837,3.95088 31.867243,31.867243 0 0 0 -18.30897,-5.83959 c -3.31489,0 -6.59123,0.49145 -9.86758,0.4529 a 19.966413,19.966413 0 0 1 -5.61796,-0.82872 c -1.01181,-0.33727 -2.89089,-1.65744 -3.98943,-1.32017 -0.0578,0 -0.0964,0.0578 -0.1349,0.0578 z"
     fill="url(#linear-gradient-25)"
     id="path156"
     style="fill:url(#linear-gradient-25);stroke-width:0.96363" />
  <rect
     x="-152.36658"
     y="116.48659"
     width="110.20072"
     height="18.154789"
     fill="#ff8d2c"
     id="rect158"
     style="stroke-width:0.96363"
     transform="scale(-1,1)" />
  <rect
     x="-494.41669"
     y="120.55311"
     width="132.93275"
     height="196.56123"
     fill="#ff8d2c"
     id="rect160"
     style="stroke-width:0.96363"
     transform="scale(-1,1)" />
  <rect
     x="-493.90598"
     y="120.50492"
     width="132.42203"
     height="198.73904"
     fill="url(#linear-gradient-26)"
     id="rect162"
     style="fill:url(#linear-gradient-26);stroke-width:0.96363"
     transform="scale(-1,1)" />
  <path
     d="m 464.43817,184.91394 c 1.39726,3.36307 0.72272,7.89213 -2.44762,9.68449 -3.93161,2.22598 -8.76904,-0.82873 -11.7852,-4.1918 6.09978,18.13552 4.14361,39.13302 14.64718,55.13891 2.62107,3.99907 6.04196,7.76686 6.74541,12.52719 0.70345,4.76033 -3.3438,10.43611 -7.92104,9.04849 -1.39726,-0.424 -2.61144,-1.44545 -4.06652,-1.58999 -3.01616,-0.30836 -5.33851,3.17034 -8.36431,3.15107 -1.38762,0 -2.64998,-0.77091 -3.97979,-1.16599 -3.73889,-1.10818 -7.64159,0.64563 -11.42865,1.56108 -3.78707,0.91544 -8.73049,0.40472 -10.24339,-3.17998 -1.03108,2.89089 -4.81815,3.43052 -7.88249,3.49797 l -9.27012,0.20237 c -2.00435,0 -4.19179,0 -5.78178,-1.20454 -1.86945,-1.47436 -2.23562,-4.23997 -1.65745,-6.55269 0.57818,-2.31271 1.92726,-4.33633 2.89089,-6.49486 3.77743,-7.93068 3.20889,-17.14298 4.44234,-25.84456 1.82126,-12.93191 7.70904,-26.12401 3.67143,-38.5452 l -6.95741,8.41249 a 5.7817798,5.7817798 0 0 1 -1.64781,1.52254 4.2881534,4.2881534 0 0 1 -3.45943,-0.0482 c -4.61579,-1.77308 -6.74541,-7.38141 -6.1865,-12.28628 0.5589,-4.90488 3.28597,-9.27013 5.91668,-13.49082 l 6.1576,-9.70376 a 6.6297742,6.6297742 0 0 1 1.76344,-2.09108 6.7454098,6.7454098 0 0 1 3.65216,-0.83835 l 21.1035,-0.75163 c 8.49921,-0.30837 12.691,1.05035 17.46097,7.50667 4.10507,5.59869 11.87193,9.10631 14.62791,15.72644 z"
     fill="#ff8d2c"
     opacity="0.45"
     id="path164"
     style="stroke-width:0.96363" />
</svg>
