<?xml version="1.0" encoding="UTF-8" standalone="no"?>
<svg
   xmlns:dc="http://purl.org/dc/elements/1.1/"
   xmlns:cc="http://creativecommons.org/ns#"
   xmlns:rdf="http://www.w3.org/1999/02/22-rdf-syntax-ns#"
   xmlns:svg="http://www.w3.org/2000/svg"
   xmlns="http://www.w3.org/2000/svg"
   xmlns:xlink="http://www.w3.org/1999/xlink"
   xmlns:sodipodi="http://sodipodi.sourceforge.net/DTD/sodipodi-0.dtd"
   xmlns:inkscape="http://www.inkscape.org/namespaces/inkscape"
   id="Layer_1"
   data-name="Layer 1"
   viewBox="0 0 407.22 332.41"
   width="271.229"
   height="272.266"
   class="illustration"
   version="1.1"
   sodipodi:docname="service004.svg"
   inkscape:version="1.0.2 (e86c870879, 2021-01-15, custom)">
  <metadata
     id="metadata110">
    <rdf:RDF>
      <cc:Work
         rdf:about="">
        <dc:format>image/svg+xml</dc:format>
        <dc:type
           rdf:resource="http://purl.org/dc/dcmitype/StillImage" />
      </cc:Work>
    </rdf:RDF>
  </metadata>
  <sodipodi:namedview
     pagecolor="#ffffff"
     bordercolor="#666666"
     borderopacity="1"
     objecttolerance="10"
     gridtolerance="10"
     guidetolerance="10"
     inkscape:pageopacity="0"
     inkscape:pageshadow="2"
     inkscape:window-width="1920"
     inkscape:window-height="1002"
     id="namedview108"
     showgrid="false"
     inkscape:zoom="1.575665"
     inkscape:cx="136.52285"
     inkscape:cy="105.30785"
     inkscape:window-x="-8"
     inkscape:window-y="-8"
     inkscape:window-maximized="1"
     inkscape:current-layer="Layer_1"
     inkscape:document-rotation="0" />
  <defs
     id="defs15">
    <linearGradient
       id="linear-gradient"
       x1="154.44"
       y1="220.63"
       x2="204.69"
       y2="239.78"
       gradientUnits="userSpaceOnUse">
      <stop
         offset="0.01"
         id="stop2" />
      <stop
         offset="0.12"
         stop-opacity="0.75"
         id="stop4" />
      <stop
         offset="1"
         stop-opacity="0"
         id="stop6" />
    </linearGradient>
    <linearGradient
       id="linear-gradient-2"
       x1="128.92"
       y1="276.06"
       x2="113.67"
       y2="184.09"
       xlink:href="#linear-gradient"
       gradientTransform="matrix(0.87087762,0,0,0.87087762,21.459916,33.477207)" />
    <linearGradient
       id="linear-gradient-3"
       x1="134.36"
       y1="270.94"
       x2="159.48"
       y2="214.41"
       xlink:href="#linear-gradient"
       gradientTransform="matrix(0.87087762,0,0,0.87087762,21.459916,33.477207)" />
    <linearGradient
       id="linear-gradient-4"
       x1="262.98"
       y1="213.1"
       x2="219.92"
       y2="357.78"
       xlink:href="#linear-gradient"
       gradientTransform="matrix(0.87087762,0,0,0.87087762,25.718508,44.607022)" />
    <linearGradient
       id="linear-gradient-5"
       x1="85.31"
       y1="219.96"
       x2="127.03"
       y2="417.81"
       xlink:href="#linear-gradient"
       gradientTransform="matrix(0.87087762,0,0,0.87087762,25.718508,44.607022)" />
    <linearGradient
       id="linear-gradient-6"
       x1="264.92"
       y1="268.06"
       x2="265.51"
       y2="240.84"
       gradientTransform="matrix(-0.87087762,0,0,-0.87087762,-21.459918,-33.468501)"
       xlink:href="#linear-gradient" />
    <linearGradient
       id="linear-gradient-7"
       x1="307.69"
       y1="284.87"
       x2="311.73"
       y2="182.58"
       xlink:href="#linear-gradient"
       gradientTransform="matrix(0.87087762,0,0,0.87087762,21.459916,33.477207)" />
    <linearGradient
       inkscape:collect="always"
       xlink:href="#linear-gradient"
       id="linearGradient61"
       gradientUnits="userSpaceOnUse"
       x1="154.44"
       y1="220.63"
       x2="204.69"
       y2="239.78"
       gradientTransform="matrix(0.87087762,0,0,0.87087762,21.459916,33.477207)" />
  </defs>
  <title
     id="title17">Web Developer</title>
  <rect
     x="57.252979"
     y="55.327526"
     width="322.57309"
     height="211.48579"
     rx="7.7943554"
     fill="#ff8d2c"
     opacity="0.8"
     style="isolation:isolate;stroke-width:0.881082"
     id="rect19" />
  <path
     d="m 381.87936,288.51813 c -0.2413,9.51103 -1.83221,19.19345 -5.72011,27.07647 -4.89785,9.92723 -12.8524,16.07206 -20.55669,21.84968 l -21.84372,16.46377 c -9.57226,7.22202 -19.66292,14.61541 -30.57582,14.82351 -7.72217,0.15913 -15.19408,-3.32948 -22.62129,-6.255 -34.68718,-13.70962 -71.22446,-15.63141 -107.08247,-12.16728 -18.36695,1.7749 -36.64453,4.89628 -54.84166,8.65419 -14.55949,2.96225 -32.03267,12.81602 -45.162135,1.15063 C 59.175164,347.38374 50.398348,326.77037 42.318682,306.75679 35.284715,289.38722 28.152447,271.58922 25.828643,251.99182 22.25357,221.70828 30.815878,190.60462 44.213467,166.00077 A 144.03087,197.25918 0 0 1 57.378688,145.19155 V 256.374 a 8.0439202,11.016647 0 0 0 7.999233,11.01665 H 380.42252 a 62.715767,85.893123 0 0 1 1.45684,21.12748 z"
     fill="#ff8d2c"
     opacity="0.6"
     style="isolation:isolate;stroke-width:1.04597"
     id="path21" />
  <path
     d="m 252.29651,55.337866 h -85.15579 a 51.15672,51.15672 0 0 1 10.37229,-6.107725 c 6.73115,-2.936407 14.06765,-4.246495 21.38608,-4.770532 18.41352,-1.328158 36.88127,2.737635 53.39742,10.878257 z"
     fill="#ff8d2c"
     opacity="0.6"
     style="isolation:isolate;stroke-width:0.90351"
     id="path23" />
  <path
     d="m 183.64345,235.93883 a 12.732231,12.732231 0 0 0 2.84777,2.75198 13.30701,13.30701 0 0 0 5.22527,1.55016 l 27.79841,4.18892 a 1.6111236,1.6111236 0 0 1 0.77508,0.26126 1.5849973,1.5849973 0 0 1 0.40932,1.25407 48.917197,48.917197 0 0 1 -2.08141,15.3797 2.1249415,2.1249415 0 0 1 -0.56607,1.07988 2.2294467,2.2294467 0 0 1 -1.27148,0.38319 c -9.35322,0.7925 -18.75,0.53995 -28.12935,0.28739 a 19.159307,19.159307 0 0 1 -4.68531,-0.51382 c -2.61265,-0.73154 -4.74629,-2.51683 -6.71447,-4.35438 -4.22376,-3.92766 -21.31909,-19.71667 -22.35543,-21.85903 a 58.514267,58.514267 0 0 1 -3.30934,-9.50998 c -0.87088,-3.13517 5.49525,-3.52706 5.36461,-6.78415 a 21.049112,21.049112 0 0 1 0.80121,-6.67091 11.391079,11.391079 0 0 1 2.7868,-5.1556 c 0.95797,-0.87087 -0.52252,-6.77543 0.80121,-6.8451 1.53275,5.22527 8.46493,15.6758 11.47817,20.15211 a 168.67157,168.67157 0 0 0 10.82501,14.40431 z"
     fill="#ff8d2c"
     id="path25"
     style="stroke-width:0.870878" />
  <path
     d="m 183.64345,235.93883 a 12.732231,12.732231 0 0 0 2.84777,2.75198 13.30701,13.30701 0 0 0 5.22527,1.55016 l 27.79841,4.18892 a 1.6111236,1.6111236 0 0 1 0.77508,0.26126 1.5849973,1.5849973 0 0 1 0.40932,1.25407 48.917197,48.917197 0 0 1 -2.08141,15.3797 2.1249415,2.1249415 0 0 1 -0.56607,1.07988 2.2294467,2.2294467 0 0 1 -1.27148,0.38319 c -9.35322,0.7925 -18.75,0.53995 -28.12935,0.28739 a 19.159307,19.159307 0 0 1 -4.68531,-0.51382 c -2.61265,-0.73154 -4.74629,-2.51683 -6.71447,-4.35438 -4.22376,-3.92766 -21.31909,-19.71667 -22.35543,-21.85903 a 58.514267,58.514267 0 0 1 -3.30934,-9.50998 c -0.87088,-3.13517 5.49525,-3.52706 5.36461,-6.78415 a 21.049112,21.049112 0 0 1 0.80121,-6.67091 11.391079,11.391079 0 0 1 2.7868,-5.1556 c 0.95797,-0.87087 -0.52252,-6.77543 0.80121,-6.8451 1.53275,5.22527 8.46493,15.6758 11.47817,20.15211 a 168.67157,168.67157 0 0 0 10.82501,14.40431 z"
     fill="url(#linear-gradient)"
     id="path27"
     style="fill:url(#linearGradient61);stroke-width:0.870878" />
  <path
     d="m 113.30267,191.82017 a 50.981176,50.981176 0 0 0 -5.22527,5.39944 c -3.84928,4.72887 -6.40966,10.35474 -8.795866,15.96319 -6.348692,14.92684 -11.878764,30.89003 -10.232806,47.0274 a 6.0961433,6.0961433 0 0 0 0.766372,2.76939 5.3907324,5.3907324 0 0 0 2.987111,1.92464 c 3.056777,0.97538 6.322563,1.01892 9.579649,1.04505 12.54935,0.11321 25.11611,0.22643 37.65675,-0.38318 1.94205,-0.0958 3.99732,-0.24386 5.60845,-1.34115 a 9.0919622,9.0919622 0 0 0 2.73455,-3.42256 c 3.3703,-6.33999 4.3544,-13.67277 6.96703,-20.3437 3.48351,-8.70877 13.06316,-16.62505 11.04272,-25.80411 -8.6391,-38.97176 -49.13491,-26.43113 -53.08869,-22.83441 z"
     fill="#ff8d2c"
     id="path29"
     style="stroke-width:0.870878" />
  <path
     d="m 113.30267,191.82017 a 50.981176,50.981176 0 0 0 -5.22527,5.39944 c -3.84928,4.72887 -6.40966,10.35474 -8.795866,15.96319 -6.348692,14.92684 -11.878764,30.89003 -10.232806,47.0274 a 6.0961433,6.0961433 0 0 0 0.766372,2.76939 5.3907324,5.3907324 0 0 0 2.987111,1.92464 c 3.056777,0.97538 6.322563,1.01892 9.579649,1.04505 12.54935,0.11321 25.11611,0.22643 37.65675,-0.38318 1.94205,-0.0958 3.99732,-0.24386 5.60845,-1.34115 a 9.0919622,9.0919622 0 0 0 2.73455,-3.42256 c 3.3703,-6.33999 4.3544,-13.67277 6.96703,-20.3437 3.48351,-8.70877 13.06316,-16.62505 11.04272,-25.80411 -8.6391,-38.97176 -49.13491,-26.43113 -53.08869,-22.83441 z"
     fill="url(#linear-gradient-2)"
     id="path31"
     style="fill:url(#linear-gradient-2);stroke-width:0.870878" />
  <path
     d="m 170.01421,159.53675 c -1.47177,7.1499 -3.01324,14.49139 -6.96702,20.6485 a 15.989313,15.989313 0 0 1 -6.03519,5.93939 c -2.55166,1.28019 -5.79132,1.45437 -8.17753,-0.11322 -1.1931,-0.77508 -2.49942,-1.99431 -3.79703,-1.41953 -0.94054,0.42673 -1.24535,1.5937 -1.37598,2.61263 a 26.300504,26.300504 0 0 0 0.1045,7.5331 6.3661153,6.3661153 0 0 1 0.12193,2.14236 3.5357632,3.5357632 0 0 1 -2.83035,2.61263 6.7493016,6.7493016 0 0 1 -3.94508,-0.61832 12.749649,12.749649 0 0 1 -7.3502,-9.4229 30.532969,30.532969 0 0 1 -0.26127,-4.18022 c -0.16547,-6.20065 -1.14955,-12.37516 -0.94926,-18.56711 0.2003,-6.19194 1.74176,-12.63643 5.9481,-17.20854 a 27.101711,27.101711 0 0 1 8.49977,-5.88713 c 4.74627,-2.26428 10.04121,-3.85799 15.23164,-3.03065 a 14.473986,14.473986 0 0 1 10.07606,6.72317 c 2.71713,4.17151 2.72584,7.28054 1.70691,12.23584 z"
     fill="#ffdad2"
     id="path33"
     style="stroke-width:0.870878" />
  <path
     d="m 182.98158,143.78256 a 14.413025,14.413025 0 0 0 -7.62018,-14.50882 c -2.30782,-1.14955 -4.87691,-1.63725 -7.36762,-2.29912 -5.83488,-1.56757 -11.43462,-4.16279 -17.41755,-4.72015 -5.98293,-0.55736 -12.86287,1.54145 -15.52775,6.96702 -0.4877,0.9928 -0.96667,2.19461 -2.03786,2.45587 a 4.4676022,4.4676022 0 0 1 -1.74175,-0.15675 c -3.99733,-0.70541 -7.59406,2.70843 -9.39677,6.33999 -2.90873,5.87842 -3.05678,12.73223 -2.42104,19.2551 0.58349,6.03519 2.12495,12.55805 6.96702,16.23316 0.47898,0.36577 1.1844,0.69671 1.64595,0.30481 a 1.3759866,1.3759866 0 0 0 0.37449,-0.80991 26.474679,26.474679 0 0 0 0.53994,-6.96703 c -0.0958,-1.74175 -0.37447,-3.58801 0.0784,-5.30364 0.45286,-1.71563 1.90722,-3.34417 3.68382,-3.29192 1.64596,0 2.96969,1.53274 3.379,3.13516 a 11.565255,11.565255 0 0 1 -0.18288,4.91175 c 0.26126,0.65316 1.17568,-0.13064 1.33245,-0.80991 1.20181,-5.46912 1.47177,-11.59139 5.2688,-15.67581 a 6.731884,6.731884 0 0 1 1.63725,2.84778 4.3543881,4.3543881 0 0 1 4.48502,-1.11473 10.659543,10.659543 0 0 1 2.99582,1.95948 c 9.24872,7.21958 29.38342,5.07721 31.32548,-8.75233 z"
     fill="#3f3d56"
     id="path35"
     style="stroke-width:0.870878" />
  <path
     d="m 115.96755,200.73796 c -2.92615,2.12494 -4.35439,5.861 -4.44148,9.46645 -0.0871,3.60542 3.72737,26.48338 7.32408,32.98013 2.78681,5.05109 8.59557,18.23617 17.41756,21.87644 2.61263,1.07989 41.23605,0.62704 59.15871,-1.31502 -0.11321,-4.24118 -0.32222,-8.48235 -0.6009,-12.72353 a 2.412331,2.412331 0 0 0 -0.47898,-1.55887 c -0.45286,-0.47028 -1.09731,-3.54446 -1.74176,-3.54446 -10.45052,0.0435 -20.98816,3.23965 -31.43868,3.48351 a 18.392935,18.392935 0 0 1 -4.53727,-0.26998 13.063165,13.063165 0 0 1 -3.48352,-1.42824 c -8.06432,-4.5634 -12.52321,-13.52472 -15.67579,-22.24221 -2.41234,-6.72318 -4.35439,-13.68149 -7.8379,-19.96051 -1.23664,-2.23816 -2.34266,-4.41536 -4.78111,-5.39945 -2.8652,-1.15827 -6.22679,-1.2889 -8.88296,0.63574 z"
     fill="#ff8d2c"
     id="path37"
     style="stroke-width:0.870878" />
  <path
     d="m 115.96755,200.73796 c -2.92615,2.12494 -4.35439,5.861 -4.44148,9.46645 -0.0871,3.60542 3.72737,26.48338 7.32408,32.98013 2.78681,5.05109 8.59557,18.23617 17.41756,21.87644 2.61263,1.07989 41.23605,0.62704 59.15871,-1.31502 -0.11321,-4.24118 -0.32222,-8.48235 -0.6009,-12.72353 a 2.412331,2.412331 0 0 0 -0.47898,-1.55887 c -0.45286,-0.47028 -1.09731,-3.54446 -1.74176,-3.54446 -10.45052,0.0435 -20.98816,3.23965 -31.43868,3.48351 a 18.392935,18.392935 0 0 1 -4.53727,-0.26998 13.063165,13.063165 0 0 1 -3.48352,-1.42824 c -8.06432,-4.5634 -12.52321,-13.52472 -15.67579,-22.24221 -2.41234,-6.72318 -4.35439,-13.68149 -7.8379,-19.96051 -1.23664,-2.23816 -2.34266,-4.41536 -4.78111,-5.39945 -2.8652,-1.15827 -6.22679,-1.2889 -8.88296,0.63574 z"
     fill="url(#linear-gradient-3)"
     id="path39"
     style="fill:url(#linear-gradient-3);stroke-width:0.870878" />
  <path
     d="m 193.89368,245.10047 c 5.42556,-0.51381 11.45204,0.69669 14.89201,4.92046 a 2.6126329,2.6126329 0 0 1 0.67929,1.3934 2.3339521,2.3339521 0 0 1 -0.41803,1.31503 c -2.02914,3.37029 -6.43578,4.1715 -10.13702,5.50394 a 26.317921,26.317921 0 0 0 -5.47782,2.71715 8.7087762,8.7087762 0 0 1 -3.2745,1.61982 c -2.61263,0.3919 -4.78112,-1.94206 -5.96551,-4.27601 -1.35857,-2.61263 -3.48351,-7.97723 -0.87087,-10.45053 2.13364,-1.95948 7.89014,-2.49941 10.57245,-2.74326 z"
     fill="#ffdad2"
     id="path41"
     style="stroke-width:0.870878" />
  <path
     d="m 238.82225,243.75932 a 7.4285861,7.4285861 0 0 1 2.42975,2.22073 3.1961208,3.1961208 0 0 1 0.22643,3.16129 4.397932,4.397932 0 0 1 -1.62854,1.46308 c -4.81596,2.86518 -10.72051,3.37899 -15.59741,6.09614 a 8.4736392,8.4736392 0 0 1 -3.36159,1.46307 4.6417778,4.6417778 0 0 1 -3.72736,-1.74175 11.843935,11.843935 0 0 1 -2.01173,-3.71865 c -5.70425,-14.97909 15.46679,-14.16918 23.67045,-8.94391 z"
     fill="#ffdad2"
     id="path43"
     style="stroke-width:0.870878" />
  <path
     d="m 100.81428,237.07098 h 22.56443 v 18.53228 a 6.5315821,6.5315821 0 0 1 -6.53157,6.53157 h -9.50128 a 6.5315821,6.5315821 0 0 1 -6.53158,-6.53157 z"
     fill="#ffffff"
     id="path45"
     style="stroke-width:0.870878" />
  <path
     d="m 121.85468,241.56471 h 6.83639 a 5.4429851,5.4429851 0 0 1 5.44298,5.44298 v 2.25557 a 5.4429851,5.4429851 0 0 1 -5.44298,5.44299 h -6.83639 z"
     fill="none"
     stroke="#ffffff"
     stroke-miterlimit="10"
     stroke-width="2.87389"
     id="path47" />
  <rect
     x="58.770844"
     y="261.73425"
     width="321.58646"
     height="9.6754503"
     rx="4.9379196"
     fill="#ff8d2c"
     id="rect49"
     style="stroke-width:0.879453" />
  <rect
     x="146.55278"
     y="271.55774"
     width="172.77341"
     height="59.925087"
     fill="#ff8d2c"
     id="rect51"
     style="stroke-width:0.870878" />
  <rect
     x="79.86097"
     y="271.55774"
     width="67.867493"
     height="59.925087"
     fill="#ff8d2c"
     id="rect53"
     style="stroke-width:0.870878" />
  <rect
     x="147.69363"
     y="271.55774"
     width="171.64127"
     height="59.925087"
     fill="url(#linear-gradient-4)"
     id="rect55"
     style="fill:url(#linear-gradient-4);stroke-width:0.870878" />
  <rect
     x="79.86097"
     y="271.55774"
     width="67.867493"
     height="59.925087"
     fill="url(#linear-gradient-5)"
     id="rect57"
     style="fill:url(#linear-gradient-5);stroke-width:0.870878" />
  <path
     d="M 379.81735,63.130589 V 101.27503 H 57.252986 V 63.130589 A 7.8378986,7.8378986 0 0 1 65.047342,55.29269 H 372.02299 a 7.8378986,7.8378986 0 0 1 7.79436,7.837899 z"
     fill="#ff8d2c"
     opacity="0.18"
     style="isolation:isolate;stroke-width:0.870878"
     id="path59" />
  <rect
     x="-314.01382"
     y="-261.56879"
     width="123.21177"
     height="11.356244"
     rx="5.678122"
     transform="scale(-1)"
     fill="#ff8d2c"
     id="rect61"
     style="stroke-width:0.870878" />
  <rect
     x="-314.01382"
     y="-261.56879"
     width="123.21177"
     height="11.356244"
     rx="5.678122"
     transform="scale(-1)"
     fill="url(#linear-gradient-6)"
     id="rect63"
     style="fill:url(#linear-gradient-6);stroke-width:0.870878" />
  <path
     d="m 235.26908,261.58618 h 85.8424 l 22.64282,-57.41696 a 5.0510903,5.0510903 0 0 0 -4.69403,-6.89735 h -67.36239 a 16.267994,16.267994 0 0 0 -15.10101,10.29377 z"
     fill="#ff8d2c"
     id="path65"
     style="stroke-width:0.870878" />
  <path
     d="m 239.63217,261.64714 h 81.53157 l 21.50197,-54.54306 a 4.7898269,4.7898269 0 0 0 -4.45889,-6.549 h -63.97469 a 15.44066,15.44066 0 0 0 -14.36947,9.77125 z"
     fill="#ff8d2c"
     id="path67"
     style="stroke-width:0.870878" />
  <path
     d="m 239.63217,261.64714 h 81.53157 l 21.50197,-54.54306 a 4.7898269,4.7898269 0 0 0 -4.45889,-6.549 h -63.97469 a 15.44066,15.44066 0 0 0 -14.36947,9.77125 z"
     fill="url(#linear-gradient-7)"
     id="path69"
     style="fill:url(#linear-gradient-7);stroke-width:0.870878" />
  <rect
     x="211.23286"
     y="179.2534"
     width="120.70364"
     height="6.7928452"
     fill="#ffffff"
     opacity="0.51"
     id="rect71"
     style="stroke-width:0.870878" />
  <rect
     x="211.23286"
     y="167.6272"
     width="85.807571"
     height="6.7928452"
     fill="#ffffff"
     id="rect73"
     style="stroke-width:0.870878" />
  <rect
     x="308.77112"
     y="167.6272"
     width="57.443089"
     height="6.7928452"
     fill="#ffffff"
     id="rect75"
     style="stroke-width:0.870878" />
  <rect
     x="277.69824"
     y="124.62326"
     width="88.315704"
     height="6.0351815"
     fill="#ffffff"
     id="rect77"
     style="stroke-width:0.870878" />
  <rect
     x="259.20081"
     y="135.34375"
     width="94.481514"
     height="6.0351815"
     fill="#ffffff"
     opacity="0.51"
     id="rect79"
     style="stroke-width:0.870878" />
  <rect
     x="212.8701"
     y="124.62326"
     width="58.087536"
     height="6.0351815"
     fill="#ffffff"
     id="rect81"
     style="stroke-width:0.870878" />
  <rect
     x="238.35201"
     y="145.74203"
     width="127.66196"
     height="6.0351815"
     fill="#ffffff"
     id="rect83"
     style="stroke-width:0.870878" />
  <rect
     x="212.8701"
     y="145.74203"
     width="18.741285"
     height="6.0351815"
     fill="#ffffff"
     opacity="0.51"
     id="rect85"
     style="stroke-width:0.870878" />
  <rect
     x="281.7478"
     y="156.46254"
     width="84.266121"
     height="6.0351815"
     fill="#ffffff"
     opacity="0.51"
     id="rect87"
     style="stroke-width:0.870878" />
  <rect
     x="212.8701"
     y="156.46254"
     width="58.087536"
     height="6.0351815"
     fill="#ffffff"
     id="rect89"
     style="stroke-width:0.870878" />
  <rect
     x="212.8701"
     y="135.0912"
     width="37.35194"
     height="6.0351815"
     fill="#ffffff"
     id="rect91"
     style="stroke-width:0.870878" />
  <rect
     x="245.39738"
     y="104.30569"
     width="88.315704"
     height="6.0351815"
     fill="#ffffff"
     id="rect93"
     style="stroke-width:0.870878" />
  <rect
     x="226.89993"
     y="115.02618"
     width="94.481514"
     height="6.0351815"
     fill="#ffffff"
     opacity="0.51"
     id="rect95"
     style="stroke-width:0.870878" />
  <rect
     x="180.57797"
     y="104.30569"
     width="58.087536"
     height="6.0351815"
     fill="#ffffff"
     id="rect97"
     style="stroke-width:0.870878" />
  <rect
     x="244.6136"
     y="91.808601"
     width="88.315704"
     height="6.0351815"
     fill="#ffffff"
     id="rect99"
     style="stroke-width:0.870878" />
  <rect
     x="179.79416"
     y="80.469765"
     width="58.087536"
     height="6.0351815"
     fill="#ffffff"
     id="rect101"
     style="stroke-width:0.870878" />
  <rect
     x="179.79416"
     y="70.123741"
     width="58.087536"
     height="6.0351815"
     fill="#ffffff"
     id="rect103"
     style="stroke-width:0.870878" />
  <rect
     x="180.57797"
     y="114.77364"
     width="37.35194"
     height="6.0351815"
     fill="#ffffff"
     id="rect105"
     style="stroke-width:0.870878" />
</svg>
