<svg xmlns="http://www.w3.org/2000/svg" xmlns:xlink="http://www.w3.org/1999/xlink" width="372" height="241" viewBox="0 0 372 241">
  <defs>
    <filter id="長方形_20" x="0" y="0" width="372" height="241" filterUnits="userSpaceOnUse">
      <feOffset dy="3" input="SourceAlpha"/>
      <feGaussianBlur stdDeviation="3" result="blur"/>
      <feFlood flood-opacity="0.161"/>
      <feComposite operator="in" in2="blur"/>
      <feComposite in="SourceGraphic"/>
    </filter>
    <filter id="PowerQuery_VBA">
      <feOffset dy="3" input="SourceAlpha"/>
      <feGaussianBlur stdDeviation="3" result="blur-2"/>
      <feFlood flood-opacity="0.161" result="color"/>
      <feComposite operator="out" in="SourceGraphic" in2="blur-2"/>
      <feComposite operator="in" in="color"/>
      <feComposite operator="in" in2="SourceGraphic"/>
    </filter>
    <filter id="パス_30" x="300.984" y="136.604" width="52.576" height="71.643" filterUnits="userSpaceOnUse">
      <feOffset dy="3" input="SourceAlpha"/>
      <feGaussianBlur stdDeviation="3" result="blur-3"/>
      <feFlood flood-opacity="0.161"/>
      <feComposite operator="in" in2="blur-3"/>
      <feComposite in="SourceGraphic"/>
    </filter>
  </defs>
  <g id="グループ_478" data-name="グループ 478" transform="translate(-1053 -223)">
    <g transform="matrix(1, 0, 0, 1, 1053, 223)" filter="url(#長方形_20)">
      <rect id="長方形_20-2" data-name="長方形 20" width="354" height="223" transform="translate(9 6)" fill="#fff"/>
    </g>
    <g data-type="innerShadowGroup">
      <text id="PowerQuery_VBA-2" data-name="PowerQuery
VBA" transform="translate(1135 322)" fill="#ffacac" font-size="31" font-family="Meiryo-Bold, Meiryo" font-weight="700"><tspan x="0" y="0">PowerQuery</tspan><tspan x="0" y="48">VBA</tspan></text>
      <g transform="matrix(1, 0, 0, 1, 1053, 223)" filter="url(#PowerQuery_VBA)">
        <text id="PowerQuery_VBA-3" data-name="PowerQuery
VBA" transform="translate(82 99)" fill="#fff" font-size="31" font-family="Meiryo-Bold, Meiryo" font-weight="700"><tspan x="0" y="0">PowerQuery</tspan><tspan x="0" y="48">VBA</tspan></text>
      </g>
    </g>
    <g id="グループ_389" data-name="グループ 389" transform="translate(0 -5217)">
      <g transform="matrix(1, 0, 0, 1, 1053, 5440)" filter="url(#パス_30)">
        <path id="パス_30-2" data-name="パス 30" d="M60.09,87.472h5.494v23.049a3.409,3.409,0,0,0,3.4,3.4h8.8a3.411,3.411,0,0,0,3.4-3.4V87.472h5.492c3.561,0,5.016-2.216,3.239-4.93L76.614,62.31c-1.773-2.712-4.684-2.712-6.463,0l-13.3,20.232C55.084,85.256,56.531,87.472,60.09,87.472Z" transform="translate(253.89 82.33)" fill="#ffb56c"/>
      </g>
      <text id="作業効率_48_UP" data-name="作業効率
48%UP" transform="translate(1267 5608)" fill="#707070" font-size="17" font-family="Meiryo-Bold, Meiryo" font-weight="700"><tspan x="0" y="0">作業効率</tspan><tspan fill="#ffb56c" font-size="25"><tspan x="0" y="27">48%UP</tspan></tspan></text>
    </g>
    <path id="Icon_open-plus" data-name="Icon open-plus" d="M13.5,0V13.5H0v9H13.5V36h9V22.5H36v-9H22.5V0Z" transform="translate(1099 263)" fill="#3e3e3e"/>
  </g>
</svg>
