<?xml version="1.0" encoding="utf-8"?>
<!-- Generator: Adobe Illustrator 24.2.1, SVG Export Plug-In . SVG Version: 6.00 Build 0)  -->
<svg version="1.1" id="レイヤー_1" xmlns="http://www.w3.org/2000/svg" xmlns:xlink="http://www.w3.org/1999/xlink" x="0px"
	 y="0px" viewBox="0 0 118 151" style="enable-background:new 0 0 118 151;" xml:space="preserve">
<style type="text/css">
	.st0{opacity:0.5;}
	.st1{fill:#CCD2D6;}
	.st2{fill:#3F60BC;}
	.st3{fill:#FFFFFF;}
	.st4{fill:#5B5B5B;}
	.st5{fill:#7F466B;}
	.st6{fill:#35476D;}
	.st7{fill:#F2DBCC;}
	.st8{fill:#EEF7FF;}
	.st9{fill:#5E7AA1;}
	.st10{fill:#48D9A5;}
	.st11{fill:#91A5D7;}
	.st12{fill:none;stroke:#573847;stroke-width:0.531;stroke-linecap:round;stroke-linejoin:round;stroke-miterlimit:10;}
	.st13{fill:#FBE867;}
	.st14{fill:#573847;}
	.st15{fill:#40B284;}
	.st16{fill:#C3D7F0;}
</style>
<g class="st0">
	<g>
		<ellipse class="st1" cx="95.257" cy="135.552" rx="22.201" ry="11.521"/>
	</g>
</g>
<path class="st2" d="M87.841,129.249c0,0-1.703,2.082-3.123,2.176s-8.422,2.271-5.015,5.015c3.407,2.744,8.706,0.189,8.706,0.189
	l6.056-0.095c0,0,2.082-1.987,2.176-3.123c0.095-1.136-1.798-6.245-1.798-6.245L87.841,129.249z"/>
<path class="st3" d="M93.944,136.156c0,0-2.555,0.331-3.548,0c-0.994-0.331-1.514-0.142-1.845,0
	c-0.331,0.142-0.946,0.852-1.893,1.041c-0.946,0.189-2.933-0.615-2.933-0.615s-1.23-4.873-2.555-4.353c0,0-2.555,1.183-2.65,2.271
	l0.189,2.034c0,0,3.17,2.082,4.826,1.987c1.656-0.095,5.583-0.757,5.583-0.757l5.015-0.852L93.944,136.156z"/>
<path class="st2" d="M106.171,131.887c0,0,2.176,5.772,0.852,7.002s-2.839,2.65-3.501,4.542c-0.662,1.893-9.557,0.946-10.125,0
	c-0.568-0.946-0.662-2.839,0.662-3.785c1.325-0.946,3.88-1.609,3.974-2.839c0.095-1.23,2.082-5.772,2.082-5.772L106.171,131.887z"/>
<path class="st3" d="M107.401,138.132c0,0-2.65,2.366-3.217,2.65c-0.568,0.284-0.946,2.271-1.987,2.366
	c-1.041,0.095-2.508-2.176-4.305-2.65s-3.832-0.095-4.211,0.095c-0.379,0.189-1.514,1.23-0.284,2.839c0,0,1.277,1.656,6.718,1.325
	c0,0,2.271,0.095,3.407-1.325c1.136-1.419,3.596-3.88,3.596-3.88L107.401,138.132z"/>
<g>
	<g>
		<polygon class="st4" points="82.378,65.781 78.8,97.017 86.932,131.349 95.552,128.158 89.859,97.909 96.365,67.117 		"/>
	</g>
</g>
<g>
	<g>
		<path class="st4" d="M82.704,57.901l25.696,3.658l-1.626,34.051l1.301,38.078c0,0-9.061-0.268-9.324-1.735
			c-1.518-8.457-3.361-35.78-3.361-35.78l-1.626-37.079L82.704,57.901z"/>
	</g>
</g>
<g>
	<g class="st0">
		<g>
			<ellipse class="st1" cx="28.933" cy="127.638" rx="28.933" ry="16.811"/>
		</g>
	</g>
	<g>
		<path class="st5" d="M46.461,119.237c0,0,3.238,0.47,5.652-1.012c2.414-1.482,8.428-2.655,7.793,1.161s-2.911,4.621-4.426,4.454
			c-1.516-0.167-3.718,3.048-4.91,3.369c-1.192,0.321-5.904,0.632-6.274-2.402S46.461,119.237,46.461,119.237z"/>
	</g>
	<g>
		<path class="st5" d="M42.06,136.96c0,0-2.028,2.895-1.772,5.943c0.255,3.049-1.537,9.419-4.908,6.952s-3.041-5.054-2.143-6.434
			s-1.132-5.068-0.862-6.374s2.261-6.001,5.366-4.883S42.06,136.96,42.06,136.96z"/>
	</g>
	<g>
		<polygon class="st6" points="10.569,114.837 10.313,138.815 18.476,142.693 49.422,128.109 45.362,119.989 22.15,128.815 
			24.497,119.631 45.621,121.774 30.62,135.55 40.11,140.142 58.785,119.631 32.074,107.44 		"/>
	</g>
	<g>
		<polygon class="st7" points="35.01,90.281 35.207,105.484 40.933,103.51 42.315,87.32 36.392,87.517 		"/>
	</g>
	<g>
		<polyline class="st8" points="38.198,127.616 26.198,121.877 51.501,113.921 63.342,117.725 38.198,127.616 		"/>
	</g>
	<g>
		<polygon class="st9" points="26.198,121.877 26.15,122.872 38.416,128.584 38.524,127.551 		"/>
	</g>
	<g>
		<path class="st10" d="M32.443,70.735c0,0-10.859,4.738-14.61,7.108c-3.759,2.374-5.338,5.02-5.923,11.649
			c-0.306,3.463-1.777,16.782-1.777,16.782l0.888,8.885c0,0,12.984,2.97,19.418-1.514s6.824-8.969,6.824-8.969
			s-5.8-4.915-5.215-4.72c0.585,0.195,3.574-4.233,5.133-11.056l5.923-0.592C43.105,88.307,45.506,67.811,32.443,70.735z"/>
	</g>
	<g>
		<path class="st7" d="M32.475,68.556c0,0-5.685,4.338-5.165,8.497c0.52,4.159,2.305,6.321,5.685,6.841
			c3.379,0.52,5.372-5.064,5.372-5.064L32.475,68.556z"/>
	</g>
	<g>
		<path class="st7" d="M12.684,100.015c0,0,2.739,14.086,6.358,15.064s24.357,6.163,24.357,6.163s3.522,1.663,3.913,1.663
			s6.652,0,6.261-2.054s-1.076-3.032-2.25-3.032c-1.174,0-2.837,0.098-2.348,0c0.489-0.098-3.815-0.978-3.815-0.978
			s-20.815-5.741-21.207-7.111c-0.391-1.369-2.764-9.971-2.764-9.971L12.684,100.015z"/>
	</g>
	<g>
		<path class="st5" d="M32.2,67.766l4.975-3.213l-0.311,1.244l3.006-1.555l-0.311,1.451l2.591-1.244l0.207,2.28l1.036-0.415
			l0.622,4.871c0,0,2.228-5.804,1.451-7.1c-0.777-1.296-1.347-1.088-1.451-2.539c0,0-1.658-3.939-4.146-3.628
			s-7.877,1.347-7.877,1.347l-1.762,2.487c0,0-2.902-0.415-3.939,1.555s0.726,6.219,1.347,14.096L32.2,67.766z"/>
	</g>
	<g>
		<path class="st7" d="M30.23,70.564c0,0-3.846,2.055-2.487,3.835s2.695,0.415,2.695,0.415s1.959,8.337,8.04,6.448
			c2.113-0.657,3.47-3.878,3.47-3.878s0.967-5.071,1.429-8.98C44.599,58.051,29.972,65.814,30.23,70.564z"/>
	</g>
	<g>
		<path class="st3" d="M30.271,86.036c-0.08,0-0.156-0.032-0.212-0.09c-0.155-0.159-3.807-3.919-4.315-5.547
			c-0.502-1.604-0.507-4.696-0.507-4.827c0-0.163,0.133-0.296,0.296-0.296c0.163,0,0.296,0.133,0.296,0.296
			c0,0.031,0.006,3.133,0.48,4.65c0.424,1.358,3.493,4.601,4.078,5.211l4.673-0.374l2.684-3.164
			c0.106-0.125,0.291-0.139,0.418-0.034c0.125,0.106,0.14,0.293,0.034,0.418l-2.764,3.258c-0.051,0.06-0.124,0.097-0.203,0.104
			l-4.936,0.394C30.287,86.036,30.279,86.036,30.271,86.036z"/>
	</g>
	<g>
		<path class="st5" d="M44.882,66.046c0,0-0.444-1.234-0.642-1.283c-0.055-0.014-0.143,0.078-0.241,0.21
			c0.073-0.251,0.12-0.443,0.12-0.524c0-0.518-1.347-2.487-1.347-2.487s-4.146-0.725-4.56-0.725s-6.841,3.006-6.841,3.006
			l-1.658,6.011l1.036,3.006v-1.347l2.073-3.835l0.622,0.622l0.829-1.451l0.415,1.244l2.591-3.109l0.103,1.969l4.405-2.902
			l0.57,5.182c0,0,0.629-1.665,1.135-3.116l0.6,5.109L44.882,66.046z"/>
	</g>
	<g>
		<path class="st10" d="M16.846,81.792c0,0-4.936,2.172-5.726,7.305c-0.79,5.133-0.79,11.649-0.79,11.649l12.833-0.395
			L16.846,81.792z"/>
	</g>
	<g>
		<polygon class="st7" points="35.008,102.487 36.028,105.753 46.437,113.916 51.947,112.692 40.933,103.51 		"/>
	</g>
	<g>
		<path class="st3" d="M25.007,93.303c0,0,2.449-2.449,4.286-2.245c1.837,0.204,3.878,1.429,3.674,2.449
			c-0.204,1.02-3.47,6.531-2.653,7.96c0.816,1.429,2.041,3.061,1.02,4.082s-4.898,3.47-7.347-1.02
			C21.538,100.038,22.558,96.772,25.007,93.303z"/>
	</g>
	<g>
		<g>
			<polygon class="st11" points="40.514,112.493 38.406,128.598 63.338,117.764 66.491,102.103 			"/>
		</g>
		<g>
			<polygon class="st9" points="40.514,112.493 40.923,112.645 38.72,128.433 38.436,128.595 			"/>
		</g>
		<g>
			<polygon class="st8" points="65.612,102.029 40.514,112.493 40.933,112.789 66.501,102.078 			"/>
		</g>
	</g>
	<g>
		<g>
			
				<ellipse transform="matrix(0.3607 -0.9327 0.9327 0.3607 -72.8354 124.0783)" class="st8" cx="54.091" cy="115.169" rx="1.087" ry="1.351"/>
		</g>
		<g>
			
				<ellipse transform="matrix(0.2589 -0.9659 0.9659 0.2589 -69.8923 138.6242)" class="st8" cx="55.389" cy="114.858" rx="1.164" ry="0.873"/>
		</g>
	</g>
</g>
<g>
	<polygon class="st12" points="43.03,70.484 39.704,71.508 39.831,74.707 43.286,73.939 	"/>
	<polygon class="st12" points="37.09,72.02 33.05,73.043 33.205,76.242 37.4,75.474 	"/>
	<line class="st12" x1="39.831" y1="73.043" x2="37.4" y2="73.683"/>
</g>
<g>
	<path class="st7" d="M80.079,29.685c-0.119,0.356-4.033,7.118-4.983,9.135s-7.592,11.033-7.592,11.033s-1.847,14.584,4.349,6.452
		c4.174-5.478,8.289-12.273,8.289-12.273l4.258-8.345L80.079,29.685z"/>
</g>
<g>
	<path class="st13" d="M99.179,24.347c0,0,4.983-2.135,8.541,0.475s8.471,16.962,8.471,16.962s-4.729,1.612-6.389,2.323
		s-2.13,6.002-2.13,6.002s4.183,18.579-3.516,21.257c-8.906,3.098-20.948-4.258-20.948-4.258l0.263-30.553
		c0,0-4.933-6.04-3.747-8.413c1.186-2.373,0-11.863,7.118-10.44L99.179,24.347z"/>
</g>
<g>
	<path class="st7" d="M88.265,5.603c-1.424,0.949-2.135,1.898-2.61,5.22s-2.61,10.44,0.712,11.151
		c3.322,0.712,6.169,4.271,9.491,0.237c3.322-4.033,6.643-10.677,6.643-11.389C102.501,10.111,88.265,5.603,88.265,5.603z"/>
</g>
<g>
	<ellipse class="st7" cx="99.179" cy="17.11" rx="2.373" ry="2.729"/>
</g>
<g>
	<path class="st7" d="M92.061,21.974l-2.452-0.079c0,0-0.267,5.622,1.517,7.777c0.431,0.52,0.902,0.843,1.41,0.843
		c2.61,0,7.83-6.564,7.83-6.564l-1.661-0.316l-0.079-4.903L92.061,21.974z"/>
</g>
<g>
	<path class="st14" d="M94.987,2.756c-0.45,0.15-2.689-2.214-3.163-2.689s-1.74,1.74-1.74,1.74l-1.265-0.633l-0.316,1.898
		l-3.322,0.316c0,0-0.949,2.531,1.107,4.745s8.067,3.163,9.807,2.373c1.74-0.791,3.164,0.475,3.164,0.475l-1.424,5.22l2.689-1.582
		l-1.898,5.536l-0.158,2.847c0,0,4.113-10.44,6.011-10.44s0.949-6.643,0.949-6.643S102.105,0.383,94.987,2.756z"/>
</g>
<g>
	<path class="st8" d="M85.793,49.189c0,0-0.097,0-0.387,0.145c-0.29,0.145-14.715-5.421-14.715-5.421l0.823-0.194L85.793,49.189z"/>
</g>
<g>
	<polygon class="st9" points="85.406,70.825 85.987,70.39 85.842,49.237 85.406,49.334 	"/>
</g>
<g>
	<path class="st15" d="M102.84,44.116c0,0-5.37,0.298-9.925-0.17c-4.296-0.442-9.452-4.457-9.452-4.457l0.115,4.428
		c0,0,5.7,3.321,8.22,3.435c2.521,0.114,10.684,0.766,14.121-0.369l1.26-3.974L102.84,44.116z"/>
</g>
<g>
	<path class="st15" d="M102.627,51.155c0,0-5.264,0.298-9.729-0.17c-4.211-0.442-9.265-4.457-9.265-4.457l0.112,4.428
		c0,0,5.587,3.321,8.058,3.435c2.471,0.114,10.473,0.766,13.842-0.369l1.235-3.974L102.627,51.155z"/>
</g>
<g>
	<path class="st7" d="M107.03,42.185c0,0-1.577,8.633-4.309,13.452s-14.423,5.801-14.423,5.801s-2.504-2.156-3.144-0.369
		s-2.405,5.313,2.486,6.433c4.891,1.12,20.918-4.233,23.252-9.697s4.432-17.314,4.432-17.314L107.03,42.185z"/>
</g>
<g>
	<polygon class="st11" points="85.406,70.825 70.691,65.404 70.691,43.913 85.406,49.334 	"/>
</g>
<g>
	<path class="st7" d="M68.949,55.336c0,0,2.517-2.517,3.485-1.743c0.968,0.774-0.581,3.098-0.581,3.098s3.679,1.162,2.904,3.098
		c-0.774,1.936-3.098,7.164-4.647,4.066C68.562,60.757,65.851,57.853,68.949,55.336z"/>
</g>
<g>
	
		<ellipse transform="matrix(0.2209 -0.9753 0.9753 0.2209 5.2409 120.0243)" class="st16" cx="77.742" cy="56.732" rx="1.365" ry="1.536"/>
</g>
<g>
	
		<ellipse transform="matrix(0.9388 -0.3446 0.3446 0.9388 -14.7504 29.8113)" class="st16" cx="76.493" cy="56.403" rx="1.024" ry="1.365"/>
</g>
<g>
	<path class="st7" d="M86.92,63.319c0.033-0.391,0.165-0.77,0.376-1.101c0.564-0.886,1.492-2.874,0.047-4.753
		c-0.019-0.025-0.039-0.05-0.058-0.074c-1.379-1.723-4.189-0.704-4.295,1.5l-0.228,4.759c-0.05,1.044,0.559,2.026,1.536,2.397
		C85.386,66.461,86.672,66.275,86.92,63.319z"/>
</g>
<g>
	<path class="st8" d="M-18.905,71.47"/>
</g>
</svg>
