<?xml version="1.0" encoding="utf-8"?>
<!-- Generator: Adobe Illustrator 24.2.1, SVG Export Plug-In . SVG Version: 6.00 Build 0)  -->
<svg version="1.1" id="レイヤー_1" xmlns="http://www.w3.org/2000/svg" xmlns:xlink="http://www.w3.org/1999/xlink" x="0px"
	 y="0px" viewBox="0 0 100 150" style="enable-background:new 0 0 100 150;" xml:space="preserve">
<style type="text/css">
	.st0{opacity:0.5;}
	.st1{fill:#CCD2D6;}
	.st2{fill:#7F466B;}
	.st3{fill:#3F60BC;}
	.st4{fill:#FFFFFF;}
	.st5{fill:#D69D76;}
	.st6{fill:#F2DBCC;}
	.st7{fill:#71A8FB;}
	.st8{fill:#300800;}
	.st9{fill:#573847;}
	.st10{fill:#DDDDDD;}
</style>
<g>
	<g class="st0">
		<g>
			<ellipse class="st1" cx="77.506" cy="119.004" rx="20.177" ry="8.92"/>
		</g>
	</g>
	<g class="st0">
		<g>
			<ellipse class="st1" cx="23.706" cy="140.102" rx="20.177" ry="8.92"/>
		</g>
	</g>
	<g>
		<path class="st2" d="M26.313,134.5l-3.613,8.311c-0.082,0.19-0.132,0.392-0.145,0.598l-0.239,3.589
			c-0.075,1.124,0.89,2.045,2.008,1.909c1.89-0.231,4.597-0.665,6.287-1.39c2.111-0.905,5.127-1.583,6.501-1.865
			c0.475-0.098,0.884-0.381,1.146-0.789l1.272-1.978c0.799-1.243-0.156-2.867-1.631-2.772l-6.681,0.431
			c-1.141,0.074-2.061-0.92-1.899-2.052l0.431-3.019c0.2-1.402-1.221-2.476-2.515-1.901l0,0
			C26.821,133.755,26.493,134.086,26.313,134.5z"/>
	</g>
	<g>
		<path class="st2" d="M14.069,131.018c0,0,4.821-0.402,6.428,0.402c1.607,0.804-0.104,2.698-0.104,2.698l-3.722,4.263
			c-0.386,0.437-0.628,0.983-0.692,1.563h0c-0.169,1.52-1.512,2.632-3.036,2.515l-0.201-0.016c-1.369-0.105-2.475-1.174-2.604-2.541
			c-0.197-2.086-0.254-5.015,0.718-6.473C12.462,131.018,14.069,131.018,14.069,131.018z"/>
	</g>
	<g>
		<path class="st3" d="M72.014,107.173l-0.748,5.239l-8.267,4.352c-0.982,0.517-1.628,1.502-1.712,2.608l-0.125,1.647l5.239-1.123
			l5.613-1.497h4.116l2.619-0.748l-0.748-5.239l-2.619-5.239H72.014z"/>
	</g>
	<g>
		<path class="st3" d="M87.236,115.233l-0.221,3.093c-0.021,0.295-0.109,0.58-0.258,0.836l-4.537,7.778
			c-0.3,0.514-0.346,1.138-0.125,1.691l0.406,1.015c0.405,1.013,1.568,1.489,2.567,1.052l3.425-1.499
			c0.471-0.206,0.84-0.591,1.026-1.069l2.116-5.441c0.139-0.356,0.168-0.746,0.085-1.119l-0.576-2.59
			c-0.03-0.137-0.046-0.276-0.046-0.416l-0.005-3.196c-0.002-1.107-0.931-1.986-2.037-1.925h0
			C88.085,113.495,87.305,114.262,87.236,115.233z"/>
	</g>
	<g>
		<path class="st4" d="M86.723,115.04c0,0.066,0.313,2.439,0.313,2.439s0.676,0.494,1.945,0.429c1.269-0.066,2.11-0.379,2.11-0.379
			l0.099-3.544L86.723,115.04z"/>
	</g>
	<g>
		<path class="st4" d="M71.295,108.315c0,0.066,0.313,2.439,0.313,2.439s0.676,0.494,1.945,0.429
			c1.269-0.066,3.297-0.929,3.297-0.929l-1.088-2.994L71.295,108.315z"/>
	</g>
	<g>
		<path class="st5" d="M82.118,53.287l5.239,2.994l1.123,31.808l2.994,26.195c0,0-1.123,4.116-5.613,1.123l-7.11-28.44
			l-2.245-19.833l-1.853,0.134l-1.14,18.202l3.118,23.115c0,0-4.439,1.89-6.285,0.308l-5.44-25.668V52.539L82.118,53.287z"/>
	</g>
	<g>
		<path class="st6" d="M67.409,24.018c0.838-2.682-2.971-4.33-4.273-1.84c-0.019,0.037-0.038,0.074-0.057,0.111
			c-1.767,3.534-9.25,24.706-10.075,27.046c-0.051,0.144-0.113,0.276-0.191,0.408l-4.328,7.325c-0.272,0.46-0.379,0.999-0.303,1.527
			l0.371,2.6c0.15,1.053,0.991,1.869,2.047,2c1.439,0.179,1.905-0.31,2.426-0.675c1.758-1.231,0.705-4.636,0.97-6.272
			c0.037-0.229,0.107-0.446,0.209-0.654l9.123-18.611c0.053-0.108,0.097-0.219,0.133-0.333L67.409,24.018z"/>
	</g>
	<g>
		<polygon class="st4" points="62.33,31.271 66.037,57.421 83.989,60.771 87.731,34.951 75.757,22.976 68.318,23.412 		"/>
	</g>
	<g>
		<path class="st6" d="M17.685,37.006h-0.662c-2.973,0-5.623,1.876-6.609,4.681l-8.34,16.835c-0.634,1.28-0.448,2.815,0.475,3.906
			l11.899,14.071l1.982-6.371L9.072,60.103l2.587-9.839L17.685,37.006z"/>
	</g>
	<g>
		<path class="st6" d="M20.498,37.408l10.321,6.233c1.694,1.023,3.042,2.532,3.867,4.331l7.748,14.373l6.329-2.769l3.165,3.165
			l-6.481,5.623c-1.358,1.178-3.422,0.994-4.55-0.406l-9.671-8.91l-0.166,26.18l-8.151-0.413l-8.319-9.875l-3.332-28.694
			l3.615-9.105L20.498,37.408z"/>
	</g>
	<g>
		<path class="st7" d="M11.616,72.015l-1.51,10.382l1.699,26.993l-1.51,25.86c0,0,3.774,4.607,6.185-0.215
			c2.411-4.821,3.616-22.097,3.616-22.097l-0.174-24.124l1.133,1.133l3.059,27.009l-1.205,24.106c0,0,4.018,2.411,6.428-0.804
			c2.411-3.214,3.616-27.32,3.616-27.32L31.814,75.79L11.616,72.015z"/>
	</g>
	<g>
		<path class="st6" d="M18.412,39.407l1.888-5.71l-2.454-7.928l4.341-5.474l10.948-0.142l-0.585,3.193l2.472,1.479l-3.159,11.452
			c-0.365,1.325-1.558,2.252-2.932,2.279l-2.81,0.056l-2.009,5.223L18.412,39.407z"/>
	</g>
	<g>
		<path class="st3" d="M67.049,18.746l-2.075,0.972c-0.09,0.042-0.183,0.079-0.28,0.102c-0.577,0.14-3.212,1.002-3.932,5.207
			c-1.198,7-7.121,16.483-6.066,14.505l-1.235,4.653c-0.242,0.913,0.446,1.808,1.391,1.808h1.651c1.024,0,1.72,1.04,1.33,1.987
			l-0.105,0.255l1.52-0.475c0.377-0.118,0.689-0.385,0.863-0.74l0,0c0.692-1.411,2.822-0.849,2.728,0.72l-0.478,7.986
			c-0.011,0.19,0.015,0.381,0.078,0.561l1.508,4.31c0.152,0.435,0.503,0.77,0.945,0.903l1.534,0.46
			c0.882,0.265,1.783-0.356,1.849-1.275c0,0-0.832-13.813-0.305-20.142c0.527-6.329,3.679-15.586,3.679-15.586
			c0.037-0.297-0.02-0.599-0.163-0.862l-2.563-4.731C68.562,18.694,67.739,18.423,67.049,18.746z"/>
	</g>
	<g>
		<polygon class="st6" points="77.253,16.989 79.499,24.099 78.376,26.344 72.763,27.467 69.021,20.731 		"/>
	</g>
	<g>
		<polygon class="st6" points="70.518,3.892 67.524,9.131 67.524,21.854 73.137,22.976 80.247,16.989 82.118,16.241 82.492,12.873 
			78.75,12.498 78.002,6.137 73.137,6.885 		"/>
	</g>
	<g>
		<path class="st5" d="M78.3,5.973l-5.011,1.714l-0.152-0.802l-3.013,0.934l0.462-2.11l-3.099,3.758l0.066,3.297l-2.439-4.879
			l3.297-5.34l2.835-1.978c0,0,2.242,0.791,3.494,0.857c1.253,0.066,4.681-0.923,6.527,0.396s1.978,2.967,2.044,3.297
			c0.066,0.33,1.385,5.802,1.319,6.132c-0.066,0.33-1.846,6.132-1.846,6.132l-2.967,2.374l-2.242-0.857l0.857-2.308
			c0,0,2.176-0.659,2.374-1.78s0.132-1.978-0.066-1.978s-2.308,0.33-2.308,0.33l-0.989,1.121l-0.527-1.714l0.527-5.736L78.3,5.973z"
			/>
	</g>
	<g>
		<polygon class="st8" points="68.564,57.136 78.52,59.377 78.695,61.048 68.432,58.828 		"/>
	</g>
	<g>
		<path class="st6" d="M77.346,25.626c-0.587-0.978,0.302-2.177,1.408-1.9l5.983,1.496c0,0,1.497,0,5.239,6.362
			c3.362,5.715,6.421,15.054,7.009,16.893c0.068,0.212,0.078,0.432,0.032,0.65L93.069,67.79c-0.06,0.284-0.025,0.582,0.109,0.84
			c0.616,1.189,2.223,4.928-0.582,7.109c-1.126,0.876-2.043,1.375-2.765,1.652c-0.952,0.365-1.912-0.53-1.665-1.518l0.439-1.757
			c0.146-0.582-0.133-1.187-0.669-1.455l0,0c-0.699-0.35-0.924-1.239-0.476-1.879l1.537-2.196c0.151-0.215,0.231-0.471,0.231-0.734
			V49.784c0-0.158-0.029-0.315-0.086-0.462l-4.365-11.275c-0.026-0.068-0.059-0.134-0.096-0.196L77.346,25.626z"/>
	</g>
	<g>
		<path class="st3" d="M78.827,21.731c0,0,4.747,1.582,7.252,4.088s5.406,6.725,5.406,6.725l6.857,16.087l-1.714,7.384
			c0,0-5.67-3.428-7.912-0.923l-0.264-8.175l0.264,16.615l-9.89-1.187l-2.374-22.153L78.827,21.731z"/>
	</g>
	<g>
		<polygon class="st6" points="47.576,63.751 46.169,59.883 47.928,56.015 50.213,55.839 53.554,58.652 53.202,62.872 
			52.191,63.883 47.84,65.773 		"/>
	</g>
	<g>
		<path class="st9" d="M29.926,29.072c0,0-1.811-0.572-2.265,0.944c-0.283,0.944-0.094,1.982-0.094,1.982s0.094,1.793,1.321,1.604
			c1.227-0.189-1.793,4.719-1.793,4.719l-0.972,0.292c0,0-3.354-2.785-5.594-3.056c-0.604-0.073-1.047-0.579-0.974-1.183
			c0.031-0.259,0.035-0.523-0.01-0.771c-0.16-0.879-3.492-5.285-2.36-8.683c1.133-3.398,3.87-8.022,7.173-7.55
			c1.943,0.278,3.363,0.979,4.204,1.511c0.696,0.44,1.472,0.726,2.29,0.819l1.713,0.195c0.578,0.066,0.994,0.585,0.933,1.163v0
			c-0.045,0.431,0.175,0.847,0.56,1.047c0.439,0.228,0.988,0.564,1.249,0.929c0.395,0.553-0.269,1.901-0.495,2.324
			c-0.047,0.089-0.083,0.182-0.104,0.28l-0.233,1.07c-0.117,0.538-0.626,0.896-1.171,0.825l-0.282-0.037
			c-0.528-0.069-1.025,0.265-1.161,0.78l-0.172,0.652c-0.042,0.158-0.119,0.305-0.227,0.428l-1.158,1.323L29.926,29.072z"/>
	</g>
	<g>
		<path class="st5" d="M11.227,74.197l-0.354,2.194l9.426,2.607c0,0,7.173,0,7.928-0.189c0.755-0.189,3.811-0.295,3.811-0.295
			l-0.224-2.725L11.227,74.197z"/>
	</g>
	<g>
		<path class="st10" d="M22.8,38.274c0,0,7.645,4.955,9.768,6.229s5.097,7.362,5.663,8.777s1.699,4.247,1.699,4.247
			s-1.274,8.494-3.822,7.503l-3.728-3.398v10.193l-0.484,5.557l-12.163-0.366l-8.589-2.265l-0.094-8.73l0-8.293
			c0,0-4.879,1.714-8.307-3.428l7.714-13.591c0.86-2.465,3.21-4.096,5.82-4.039l2.134,0.046L22.8,38.274z"/>
	</g>
	<g>
		<polygon class="st4" points="17.336,36.974 18.349,35.221 21.94,36.453 26.55,40.327 27.502,41.695 20.371,38.093 		"/>
	</g>
</g>
</svg>
