<?xml version="1.0" encoding="utf-8"?>
<!-- Generator: Adobe Illustrator 24.3.0, SVG Export Plug-In . SVG Version: 6.00 Build 0)  -->
<svg version="1.1" id="レイヤー_3" xmlns="http://www.w3.org/2000/svg" xmlns:xlink="http://www.w3.org/1999/xlink" x="0px"
	 y="0px" viewBox="0 0 629.4 543" style="enable-background:new 0 0 629.4 543;" xml:space="preserve">
<style type="text/css">
	.st0{fill:#FFE3E8;}
	.st1{fill:#FFF3F5;}
	.st2{fill:#FFFFFF;}
	.st3{fill:#FFD2DC;}
	.st4{fill:#FF4960;}
	.st5{fill:#FF859A;}
</style>
<circle class="st0" cx="313.3" cy="326.6" r="169"/>
<circle class="st1" cx="313.3" cy="326.6" r="152.2"/>
<ellipse transform="matrix(0.7071 -0.7071 0.7071 0.7071 16.6927 252.632)" class="st2" cx="313.3" cy="106.2" rx="103.2" ry="103.2"/>
<path class="st3" d="M313.3,6c55.3,0,100.2,44.8,100.2,100.2s-44.8,100.2-100.2,100.2s-100.2-44.8-100.2-100.2
	C213.2,50.9,258,6.1,313.3,6 M313.3,0c-58.6,0-106.2,47.5-106.2,106.2s47.5,106.2,106.2,106.2s106.2-47.5,106.2-106.2
	C419.5,47.5,372,0,313.3,0C313.3,0,313.3,0,313.3,0z"/>
<circle class="st2" cx="106.2" cy="436.8" r="103.2"/>
<path class="st3" d="M106.2,336.6c55.3,0,100.2,44.8,100.2,100.2S161.5,537,106.2,537S6,492.1,6,436.8c0,0,0,0,0,0
	C6.1,381.5,50.9,336.7,106.2,336.6 M106.2,330.6C47.5,330.7,0,378.2,0,436.8C0,495.5,47.6,543,106.2,543
	c58.6,0,106.2-47.6,106.1-106.2C212.4,378.2,164.8,330.6,106.2,330.6C106.2,330.6,106.2,330.6,106.2,330.6z"/>
<path class="st4" d="M252.5,303.9c-0.4,1-1,1.8-1.8,2.5c-0.8,0.7-1.7,1.3-2.7,1.6c-2.1,0.8-4.5,0.8-6.6,0c-1-0.4-1.9-0.9-2.7-1.6
	c-0.8-0.7-1.4-1.6-1.8-2.5c-0.5-1-0.7-2.2-0.7-3.3v-15.1h4.5v14.9c-0.1,1.1,0.3,2.2,1.1,3.1c0.8,0.8,1.8,1.2,2.9,1.1
	c1.1,0.1,2.1-0.3,2.9-1.1c0.8-0.9,1.1-2,1.1-3.1v-14.9h4.4v15.1C253.2,301.7,252.9,302.8,252.5,303.9z"/>
<path class="st4" d="M260.1,308.4v-22.9h4.5v22.9H260.1z"/>
<path class="st4" d="M281.9,296.9c0,1.8-1.5,3.3-3.3,3.3s-3.3-1.5-3.3-3.3s1.5-3.3,3.3-3.3h0C280.4,293.6,281.9,295.1,281.9,296.9
	C281.9,296.9,281.9,296.9,281.9,296.9z"/>
<path class="st4" d="M308.3,303.9c-0.4,1-1,1.8-1.8,2.5c-0.8,0.7-1.7,1.3-2.7,1.6c-2.1,0.8-4.5,0.8-6.6,0c-1-0.4-1.9-0.9-2.7-1.6
	c-0.8-0.7-1.4-1.6-1.8-2.5c-0.5-1-0.7-2.2-0.7-3.3v-15.1h4.5v14.9c-0.1,1.1,0.3,2.2,1.1,3.1c0.8,0.8,1.8,1.2,2.9,1.1
	c1.1,0.1,2.1-0.3,2.9-1.1c0.8-0.8,1.1-2,1.1-3.1v-14.9h4.4v15.1C309,301.7,308.8,302.8,308.3,303.9z"/>
<path class="st4" d="M327.4,308.4l-4.4-8l-4.4,8h-5.1l7.1-11.7l-6.7-11.2h5.1l4,7.4l4-7.4h5l-6.6,11.2l7.1,11.7H327.4z"/>
<path class="st4" d="M335.7,288.8c0.7,0.1,1.5,0.2,2.2,0.1h5.7c0.7,0,1.5,0,2.2-0.1v2.8c-0.7-0.1-1.4-0.1-2.1-0.1h-5.8
	c-0.7,0-1.5,0-2.2,0.1L335.7,288.8z M359.5,297.2c-0.2,0.4-0.4,0.7-0.5,1.1c-0.9,2.1-2.2,4.1-3.7,5.8c1.9,1.2,4,2.1,6.2,2.5
	c-0.6,0.9-1,2-1.4,3c-2.5-0.7-4.8-1.9-6.9-3.4c-2,1.5-4.2,2.7-6.6,3.5c-0.4-0.8-0.8-1.6-1.4-2.3c0,0.7,0,1.3,0.1,2h-2.7v-0.9h-3.2
	v1.2h-2.8c0.1-0.9,0.2-1.8,0.2-2.7v-4c0-0.7,0-1.5-0.1-2.2c0.7,0.1,1.3,0.1,2.1,0.1h4.7c0.6,0,1.2,0,1.8-0.1c-0.1,0.7-0.1,1.3-0.1,2
	v4.1c2.1-0.6,4.1-1.5,5.9-2.7c-1.6-1.6-2.8-3.6-3.5-5.7c-0.4,0-0.8,0-1.2,0.1v-3c0.6,0.1,1.2,0.2,1.8,0.1h8.1c0.6,0,1.3,0,1.9-0.1
	L359.5,297.2z M336.5,284.9c0.8,0.1,1.5,0.2,2.3,0.1h4c0.8,0,1.5,0,2.3-0.1v2.7c-0.8-0.1-1.5-0.1-2.3-0.1h-4c-0.8,0-1.5,0-2.3,0.1
	V284.9z M336.6,292.9c0.6,0.1,1.2,0.1,1.8,0.1h4.9c0.6,0,1.2,0,1.8-0.1v2.6c-0.6-0.1-1.2-0.1-1.8-0.1h-4.9c-0.6,0-1.2,0-1.8,0.1
	L336.6,292.9z M336.6,296.8c0.6,0.1,1.2,0.1,1.8,0.1h4.9c0.6,0,1.2,0,1.8-0.1v2.6c-0.6-0.1-1.2-0.1-1.8-0.1h-4.9
	c-0.6,0-1.2,0-1.8,0.1L336.6,296.8z M339.2,305.9h3.2v-2.7h-3.2V305.9z M350.8,287.8c0.1,1.8-0.3,3.6-1.1,5.2c-0.5,1-1.2,1.9-2,2.6
	c-0.7-0.7-1.5-1.3-2.4-1.9c2.2-1.6,2.9-3.3,2.9-6.9c0-0.6,0-1.2-0.1-1.8c0.7,0.1,1.4,0.1,2.2,0.1h4.2c0.8,0,1.6,0,2.3-0.1
	c-0.1,0.8-0.1,1.6-0.1,2.3v4.1c0,0.4,0.2,0.5,0.9,0.5c1.1,0,1.1,0,1.3-3.3c0.8,0.4,1.6,0.8,2.5,1c-0.3,4.5-0.6,4.8-4.1,4.8
	c-2.7,0-3.2-0.3-3.2-1.8v-4.8L350.8,287.8z M350.2,298.4c0.6,1.5,1.6,2.9,2.8,4c1.1-1.2,2.1-2.5,2.7-4H350.2z"/>
<path class="st4" d="M364.9,288.9c0.8,0.1,1.6,0.2,2.3,0.2h7.1c0.8,0,1.6,0,2.3-0.1v2.7c-0.8-0.1-1.6-0.1-2.3-0.1h-7.1
	c-0.8,0-1.5,0-2.3,0.1L364.9,288.9z M366.1,285.1c0.8,0.1,1.6,0.2,2.4,0.1h4.8c0.8,0,1.6,0,2.3-0.1v2.7c-0.8-0.1-1.6-0.1-2.3-0.1
	h-4.8c-0.8,0-1.6,0-2.4,0.1V285.1z M369,309.6h-2.9c0.1-0.9,0.2-1.8,0.1-2.6v-4.2c0-0.7,0-1.4-0.1-2.1c0.6,0.1,1.3,0.1,1.9,0.1h5.9
	c0.6,0,1.2,0,1.8-0.1c-0.1,0.7-0.1,1.4-0.1,2.1v4c0,0.8,0,1.6,0.1,2.4h-2.9v-0.9H369L369,309.6z M366.1,292.9
	c0.6,0.1,1.2,0.1,1.8,0.1h5.8c0.6,0,1.2,0,1.8-0.1v2.6c-0.6-0.1-1.2-0.1-1.8-0.1h-5.8c-0.6,0-1.2,0-1.8,0.1V292.9z M366.1,296.8
	c0.6,0.1,1.2,0.1,1.8,0.1h5.8c0.6,0,1.2,0,1.8-0.1v2.6c-0.6-0.1-1.2-0.1-1.8-0.1h-5.8c-0.6,0-1.2,0-1.8,0.1L366.1,296.8z M368.9,306
	h3.9v-2.7h-3.9V306z M381.7,287.6c0-1.1,0-2.2-0.2-3.3h3.4c-0.2,1.1-0.2,2.2-0.2,3.3v5h2c1.1,0,2.2,0,3.3-0.2v3.2
	c-1.1-0.1-2.2-0.2-3.4-0.2h-1.9v10c0,1.4,0,2.8,0.2,4.2h-3.4c0.2-1.4,0.2-2.8,0.2-4.2v-10H380c-1.1,0-2.2,0-3.4,0.2v-3.2
	c1.1,0.1,2.2,0.2,3.3,0.2h1.7V287.6z"/>
<path class="st4" d="M253.2,340.3c0.7-2.4,1-4.8,0.9-7.3l2.2,0.5c0,2.6-0.3,5.2-0.9,7.7L253.2,340.3z M259.8,349.8
	c0,1.1,0,2.3,0.2,3.4h-3.2c0.1-1.2,0.2-2.3,0.2-3.5v-19c0-1-0.1-2-0.2-3h3.2c-0.1,1-0.2,2-0.2,3v2.3l1.6-0.6
	c0.6,1.1,1.1,2.3,1.4,3.6l-0.7,0.3c0.7,0,1.2,0.1,2.3,0.1h4v-1.1h-3.1c-0.8,0-1.5,0-2.3,0.1v-2.4c0.8,0.1,1.6,0.1,2.3,0.1h3.1v-1
	h-3.5c-0.9,0-1.8,0-2.7,0.1v-2.6c0.9,0.1,1.9,0.2,2.9,0.2h3.4c0-0.6,0-1.3-0.2-1.9h3.2c-0.1,0.6-0.2,1.2-0.2,1.9h4.2
	c1,0,1.9,0,2.9-0.2v2.6c-0.9-0.1-1.9-0.2-2.8-0.1h-4.3v1h3.9c0.8,0,1.5,0,2.3-0.1v2.4c-0.8-0.1-1.6-0.1-2.3-0.1h-3.8v1.1h4.8
	c0.9,0,1.8,0,2.7-0.1v2.7c-0.9-0.1-1.8-0.2-2.7-0.2h-11.6c-0.9,0-1.9,0-2.8,0.2v-2.4l-0.9,0.4c-0.3-1-0.6-2.1-1-3L259.8,349.8z
	 M265.8,350c0,1,0,2.1,0.2,3.1h-3.2c0.1-1,0.2-2.1,0.1-3.1V342c0-1,0-1.6-0.1-2.3c0.7,0,1.2,0.1,2.2,0.1h9.7c0.8,0,1.7,0,2.5-0.1
	c-0.1,0.9-0.1,1.9-0.1,2.8v7.8c0,2.1-0.7,2.6-3.5,2.6c-0.6,0-1.1,0-2.5-0.1c-0.1-0.9-0.3-1.8-0.6-2.6c0.9,0.1,1.8,0.2,2.7,0.2
	c0.9,0,1-0.1,1-0.6v-0.9h-8.4V350z M274.2,343.2v-1.1h-8.4v1.1H274.2z M274.2,346.6v-1.1h-8.4v1.1H274.2z"/>
<path class="st4" d="M294.4,335.1c0.8,0,1.6,0,2.4-0.1v2.9c-0.5-0.1-1-0.1-1.5-0.1c-0.2,1-0.5,2.1-0.9,3h0.3c0.7,0,1.4,0,2.1-0.1
	v2.9c-0.8-0.1-1.6-0.1-2.4-0.1h-2.1v2.2h1.9c0.8,0,1.5,0,2.3-0.1v2.9c-0.8-0.1-1.5-0.1-2.3-0.1h-1.9v2c0,0.9,0.1,1.9,0.1,2.8h-3
	c0.1-0.9,0.2-1.9,0.2-2.8v-2h-2c-0.8,0-1.5,0-2.3,0.1v-2.9c0.8,0.1,1.5,0.1,2.3,0.1h2v-2.2h-2.5c-0.8,0-1.6,0-2.4,0.1v-2.9
	c0.8,0.1,1.6,0.2,2.4,0.1h0.3c-0.1-1-0.4-2.1-0.7-3c-0.7,0-1.3,0-2,0.1v-2.9c0.8,0.1,1.6,0.2,2.4,0.1h2.5V333h-1.9
	c-0.8,0-1.5,0-2.3,0.1v-2.9c0.8,0.1,1.5,0.1,2.3,0.1h1.9v-0.5c0-0.7,0-1.4-0.2-2.1h3c-0.1,0.7-0.1,1.4-0.1,2.1v0.5h1.6
	c0.8,0,1.5,0,2.3-0.1v2.9c-0.8-0.1-1.5-0.1-2.3-0.1h-1.6v2.1L294.4,335.1z M291.7,340.8c0.4-1,0.6-2,0.8-3h-3.3c0.3,1,0.5,2,0.7,3
	H291.7z M309.2,338.8c-0.2,0.4-0.3,0.8-0.3,1.2c-0.5,2.4-1.3,4.6-2.3,6.8c1.1,1.3,2.3,2.4,3.8,3.2c-0.6,0.9-1.2,1.9-1.6,2.9
	c-1.4-1-2.6-2.2-3.7-3.6c-0.9,1.3-2,2.5-3.3,3.5c-0.4-0.8-1-1.6-1.5-2.4c0,0.9,0.1,1.7,0.2,2.6h-3.1c0.2-1.1,0.2-2.2,0.2-3.3v-18.4
	c0-1,0-2.1-0.1-2.8c0.9,0.1,1.7,0.1,2.6,0.1h6.8c0.9,0,1.7,0,2.6-0.1c-0.1,0.8-0.1,1.1-0.1,1.8c-0.3,5.1-0.7,5.6-3.7,5.6
	c-0.8,0-1.6-0.1-2.5-0.1c-0.1-0.9-0.3-1.8-0.6-2.6c0.9,0.2,1.9,0.3,2.8,0.3c0.9,0,1-0.3,1.1-2.3h-6v6h5.2c0.9,0,1.7,0,2.6-0.1
	L309.2,338.8z M300.2,350.2c1.2-0.9,2.2-2,3-3.2c-1.3-2.2-2.2-4.5-2.6-7h-0.4V350.2z M303.1,340c0.3,1.5,0.9,3,1.6,4.4
	c0.6-1.4,1.1-2.9,1.4-4.4H303.1z"/>
<path class="st4" d="M315.4,332.3c0.7,0.1,1.5,0.2,2.2,0.1h5.7c0.7,0,1.5,0,2.2-0.1v2.8c-0.7-0.1-1.4-0.1-2.1-0.1h-5.8
	c-0.7,0-1.5,0-2.2,0.1L315.4,332.3z M339.2,340.6c-0.2,0.4-0.4,0.7-0.5,1.1c-0.9,2.1-2.2,4.1-3.7,5.8c1.9,1.2,4,2,6.1,2.5
	c-0.6,0.9-1,1.9-1.4,2.9c-2.5-0.7-4.8-1.9-6.9-3.4c-2,1.5-4.2,2.7-6.6,3.5c-0.4-0.8-0.8-1.6-1.4-2.3c0,0.7,0,1.3,0.1,2h-2.7v-0.9
	H319v1.3h-2.8c0.1-0.9,0.2-1.8,0.2-2.7v-4c0-0.7,0-1.5-0.1-2.2c0.7,0.1,1.3,0.1,2.1,0.1h4.7c0.6,0,1.2,0,1.8-0.1
	c-0.1,0.7-0.1,1.3-0.1,2v4.1c2.1-0.6,4.1-1.5,5.9-2.7c-1.6-1.6-2.8-3.6-3.5-5.7c-0.4,0-0.8,0-1.2,0.1v-2.9c0.6,0.1,1.2,0.2,1.8,0.1
	h8.1c0.6,0,1.3,0,1.9-0.1L339.2,340.6z M316.4,328.4c0.8,0.1,1.5,0.2,2.3,0.1h4c0.8,0,1.5,0,2.3-0.1v2.7c-0.8-0.1-1.5-0.1-2.3-0.1
	h-4c-0.8,0-1.5,0-2.3,0.1V328.4z M316.4,336.4c0.6,0.1,1.2,0.1,1.8,0.1h4.9c0.6,0,1.2,0,1.8-0.1v2.5c-0.6-0.1-1.2-0.1-1.8-0.1h-4.9
	c-0.6,0-1.2,0-1.8,0.1V336.4z M316.4,340.3c0.6,0.1,1.2,0.1,1.8,0.1h4.9c0.6,0,1.2,0,1.8-0.1v2.6c-0.6-0.1-1.2-0.1-1.8-0.1h-4.9
	c-0.6,0-1.2,0-1.8,0.1V340.3z M319.1,349.4h3.2v-2.7h-3.2V349.4z M330.6,331.3c0.1,1.8-0.3,3.6-1.1,5.2c-0.5,1-1.2,1.9-2,2.6
	c-0.7-0.7-1.5-1.4-2.4-1.9c2.2-1.6,2.9-3.3,2.9-6.9c0-0.6,0-1.2-0.1-1.8c0.7,0.1,1.4,0.1,2.2,0.1h4.2c0.8,0,1.6,0,2.3-0.1
	c-0.1,0.8-0.1,1.6-0.1,2.3v4.1c0,0.4,0.2,0.5,0.9,0.5c1.1,0,1.1,0,1.3-3.3c0.8,0.4,1.6,0.8,2.5,1c-0.3,4.5-0.6,4.8-4.1,4.8
	c-2.7,0-3.2-0.3-3.2-1.8v-4.8L330.6,331.3z M330.1,341.9c0.6,1.5,1.6,2.9,2.8,4c1.1-1.2,2.1-2.5,2.7-4H330.1z"/>
<path class="st4" d="M346.4,332.4c0.8,0.1,1.6,0.2,2.3,0.2h7.1c0.8,0,1.6,0,2.3-0.1v2.8c-0.8-0.1-1.6-0.1-2.3-0.1h-7.1
	c-0.8,0-1.5,0-2.3,0.1V332.4z M347.5,328.5c0.8,0.1,1.6,0.2,2.4,0.1h4.8c0.8,0,1.6,0,2.3-0.1v2.7c-0.8-0.1-1.6-0.1-2.3-0.1h-4.8
	c-0.8,0-1.6,0-2.4,0.1V328.5z M350.4,353.1h-2.9c0.1-0.9,0.2-1.8,0.1-2.6v-4.2c0-0.7,0-1.4-0.1-2.1c0.6,0.1,1.3,0.1,1.9,0.1h5.9
	c0.6,0,1.2,0,1.8-0.1c-0.1,0.7-0.1,1.4-0.1,2.1v4c0,0.8,0,1.6,0.1,2.4h-2.9v-0.9h-3.8L350.4,353.1z M347.5,336.4
	c0.6,0.1,1.2,0.1,1.8,0.1h5.8c0.6,0,1.2,0,1.8-0.1v2.6c-0.6-0.1-1.2-0.1-1.8-0.1h-5.8c-0.6,0-1.2,0-1.8,0.1L347.5,336.4z
	 M347.5,340.3c0.6,0.1,1.2,0.1,1.8,0.1h5.8c0.6,0,1.2,0,1.8-0.1v2.6c-0.6-0.1-1.2-0.1-1.8-0.1h-5.8c-0.6,0-1.2,0-1.8,0.1
	L347.5,340.3z M350.4,349.5h3.9v-2.7h-3.9L350.4,349.5z M363.1,331.2c0-1.1,0-2.2-0.2-3.3h3.5c-0.2,1.1-0.2,2.2-0.2,3.3v5h2
	c1.1,0,2.2,0,3.3-0.2v3.2c-1.1-0.1-2.2-0.2-3.4-0.2h-1.9v10c0,1.4,0,2.8,0.2,4.1h-3.4c0.2-1.4,0.2-2.8,0.2-4.1v-10h-1.7
	c-1.1,0-2.2,0-3.4,0.2V336c1.1,0.1,2.2,0.2,3.3,0.2h1.7L363.1,331.2z"/>
<path class="st5" d="M271.6,84.1c-0.2,0.4-0.4,0.8-0.5,1.2c-0.8,2.4-2.2,4.6-4.2,6.2c-1.4,1.1-3,1.9-4.8,2.5
	c-0.3-0.8-0.8-1.5-1.4-2.1c1.9-0.4,3.6-1.2,5-2.4c1.4-1.1,2.4-2.6,2.9-4.3h-8.9c-0.8,0-1.5,0-2.3,0.1V83c0.8,0.1,1.6,0.2,2.4,0.1
	h8.7c0.7,0,1.4,0,2-0.2L271.6,84.1z M259,78.6c0.7,0.1,1.4,0.2,2.1,0.1h6.4c0.7,0,1.4,0,2.1-0.1v2.2c-0.7-0.1-1.4-0.1-2.1-0.1h-6.4
	c-0.7,0-1.4,0-2.1,0.1V78.6z"/>
<path class="st5" d="M276.8,90.7c1.9-0.2,3.7-0.6,5.4-1.3c2.2-0.9,4.1-2.5,5.4-4.5c0.8-1.1,1.4-2.3,1.9-3.6c0.5,0.7,1.2,1.3,1.9,1.8
	c-1.2,2.9-3.2,5.4-5.8,7.1c-2.1,1.3-4.5,2.3-6.9,2.7c-0.4,0.1-0.8,0.2-1.2,0.3L276.8,90.7z M278.4,79.4c1.7,1,3.3,2.2,4.7,3.5
	l-1.6,2c-1.3-1.5-2.9-2.7-4.6-3.7L278.4,79.4z"/>
<path class="st5" d="M304.4,85.5c0,1.7-0.4,3.4-1.3,4.9c-1,1.6-2.3,2.6-4.7,3.6c-0.3-0.8-0.9-1.5-1.5-2c1.8-0.4,3.3-1.5,4.3-3
	c0.5-1.1,0.8-2.2,0.8-3.4h-4.4c-0.8,0-1.5,0-2.3,0.1v-2.2c0.8,0.1,1.6,0.2,2.4,0.1h10.6c0.8,0,1.6,0,2.4-0.1v2.2
	c-0.8-0.1-1.5-0.1-2.3-0.1H304.4z M308.5,79.5c0.6,0.8,1,1.6,1.3,2.5l-1.4,0.6c-0.3-0.9-0.7-1.7-1.2-2.5v1c-0.8-0.1-1.5-0.1-2.3-0.1
	h-5.5c-0.8,0-1.5,0-2.3,0.1v-2.3c0.8,0.1,1.6,0.2,2.4,0.1h5.4c0.8,0,1.6,0,2.3-0.1v1.1L308.5,79.5z M310.4,81.8
	c-0.3-0.9-0.7-1.7-1.3-2.5l1.3-0.5c0.5,0.7,1,1.6,1.3,2.4L310.4,81.8z"/>
<path class="st5" d="M328,82.4c-0.2,0.2-0.4,0.4-0.6,0.6c-1,1.1-2.2,2.1-3.4,3v6.2c0,0.6,0,1.2,0.1,1.8h-2.4
	c0.1-0.6,0.1-1.2,0.1-1.7v-4.9c-1.6,1-3.4,1.7-5.1,2.3c-0.3-0.7-0.7-1.3-1.1-1.9c1.5-0.4,2.9-0.9,4.3-1.6c1.9-1,3.6-2.2,5.2-3.7
	c0.4-0.4,0.8-0.8,1.1-1.3L328,82.4z"/>
<path class="st5" d="M334.6,90.7c1.9-0.2,3.7-0.6,5.4-1.3c2.2-0.9,4.1-2.5,5.4-4.4c0.8-1.1,1.4-2.3,1.9-3.6c0.5,0.7,1.2,1.3,1.9,1.8
	c-1.2,2.9-3.2,5.4-5.8,7.1c-2.1,1.3-4.5,2.3-6.9,2.7c-0.4,0.1-0.8,0.2-1.2,0.3L334.6,90.7z M336.2,79.4c1.7,1,3.3,2.2,4.7,3.5
	l-1.6,2c-1.3-1.5-2.9-2.7-4.6-3.7L336.2,79.4z"/>
<path class="st5" d="M367.3,81.4c-0.2,0.3-0.4,0.7-0.5,1.1c-0.7,2.6-2,5-3.7,7c-1.8,2-4,3.6-6.5,4.6c-0.4-0.7-0.9-1.4-1.5-1.9
	c1.4-0.5,2.8-1.2,4-2.1c2.6-1.9,4.4-4.6,5.3-7.6l-5.5,0.1c-1.1,1.8-2.6,3.4-4.3,4.7c-0.5-0.6-1.1-1.2-1.8-1.5c2-1.3,3.6-3.1,4.7-5.3
	c0.5-0.7,0.8-1.6,0.9-2.4l2.5,0.5c-0.2,0.2-0.3,0.4-0.4,0.7c-0.3,0.7-0.5,1-0.7,1.5c0.2,0,0.5,0,0.9,0l4-0.1c0.3,0,0.6,0,0.9,0
	c-0.3-0.7-0.8-1.4-1.3-2.1l1.5-0.5c0.6,0.7,1.1,1.5,1.4,2.3l-1,0.3L367.3,81.4z M368.1,80c-0.4-0.8-0.8-1.6-1.4-2.3l1.4-0.5
	c0.6,0.7,1,1.4,1.4,2.3L368.1,80z"/>
<path class="st5" d="M266.6,117.7c0.2-0.2,0.5-0.3,0.7-0.6c0.5-0.5,2.3-2.6,3.3-3.8c0.4-0.6,0.8-1,1.4-1.4c0.4-0.2,0.8-0.4,1.2-0.4
	c0.9,0,1.3,0.3,2.7,1.8c1.8,2.1,3.8,4,5.9,5.8c0.5,0.5,1.1,1,1.7,1.4l-1.1,2.5c-2.7-2.4-5.3-5-7.7-7.7c-1.2-1.3-1.2-1.3-1.5-1.3
	s-0.4,0.1-1.1,1.1s-2,2.5-3.3,4c-0.3,0.3-0.4,0.4-0.6,0.8L266.6,117.7z M282.1,112c0,1.1-0.9,2-2,2s-2-0.9-2-2s0.9-2,2-2
	S282.1,110.9,282.1,112z M279.1,112c0,0.6,0.5,1,1,1s1-0.5,1-1c0-0.6-0.4-1-1-1c-0.5-0.1-1,0.3-1.1,0.9
	C279.1,111.9,279.1,112,279.1,112L279.1,112z"/>
<path class="st5" d="M286.4,115.2c0.9,0.1,1.8,0.2,2.7,0.1h8.9c0.9,0,1.8,0,2.7-0.1v2.5c-0.9-0.1-1.8-0.1-2.7-0.1h-8.9
	c-0.9,0-1.8,0-2.7,0.1V115.2z"/>
<path class="st5" d="M305.5,113.5c1.7,0.7,3.3,1.5,4.8,2.5l-1.1,2.1c-1.5-1.1-3.2-2-4.9-2.7L305.5,113.5z M304.7,121.7
	c1.8-0.1,3.6-0.5,5.3-1.2c2.1-0.8,3.9-2.2,5.3-4c0.9-1.2,1.6-2.6,2.1-4c0.6,0.6,1.2,1.2,1.9,1.6c-0.6,1.7-1.6,3.2-2.7,4.6
	c-2.3,2.7-5.4,4.3-9.9,5.2c-0.4,0.1-0.9,0.2-1.3,0.3L304.7,121.7z M306.9,109.1c1.7,0.6,3.3,1.4,4.8,2.3l-1.2,2
	c-1.5-1-3.1-1.9-4.9-2.5L306.9,109.1z M316.6,109.2c0.7,0.7,1.3,1.5,1.7,2.4l-1.4,0.8c-0.5-0.9-1-1.7-1.7-2.4L316.6,109.2z
	 M318.9,111.2c-0.5-0.8-1-1.6-1.6-2.3l1.3-0.7c0.7,0.7,1.2,1.4,1.7,2.3L318.9,111.2z"/>
<path class="st5" d="M325,112.2c-0.2,0.6-0.3,0.8-0.6,1.4c-0.6-0.3-1.1-0.6-1.7-0.9c0.7-1.1,1.2-2.3,1.4-3.6
	c0.1-0.2,0.1-0.5,0.1-0.7l1.9,0.3c-0.1,0.2-0.2,0.5-0.2,0.7c0,0.2-0.1,0.6-0.2,1h1.4V110c0-0.6,0-1.2-0.1-1.8h2.1
	c-0.1,0.6-0.1,1.1-0.1,1.7v0.6h1.5c0.6,0,1.2,0,1.8-0.1v1.9c-0.6-0.1-1.2-0.1-1.8-0.1h-1.5v1.6h2.1c0.6,0,1.1,0,1.7-0.1v1.9
	c-0.6-0.1-1.2-0.1-1.7-0.1h-2.1v1.4h1.8c0.6,0,1.1,0,1.7-0.1c0,0.5-0.1,1.1-0.1,1.6v3.6c0,1.1-0.5,1.4-2,1.4c-0.2,0-0.3,0-0.8,0
	c0-0.6-0.1-1.2-0.3-1.7c0.3,0,0.8,0.1,1,0.1c0.4,0,0.5-0.1,0.5-0.3v-3h-1.6v4.3c0,0.7,0,1.3,0.1,2h-2c0.1-0.7,0.1-1.3,0.1-2v-4.3
	h-1.8v3.3c0,0.6,0,1.2,0.1,1.8h-2c0.1-0.6,0.1-1.2,0.1-1.8v-3.3c0-0.6,0-1.1-0.1-1.7c0.6,0.1,1.2,0.1,1.8,0.1h1.9v-1.4h-2.3
	c-0.6,0-1.3,0-1.9,0.1v-2c0.5,0.1,1.1,0.1,1.6,0.1h2.5v-1.6L325,112.2z M335.3,109.4c-0.1,0.6-0.1,1.3-0.1,1.9v7.3
	c0,0.6,0,1.3,0.1,1.9h-2c0.1-0.7,0.1-1.3,0.1-2v-7.3c0-0.6,0-1.3-0.1-1.9L335.3,109.4z M338.9,108.3c-0.1,0.7-0.2,1.5-0.1,2.2v12.2
	c0,1-0.2,1.4-0.6,1.7c-0.7,0.4-1.4,0.5-2.2,0.4l-1.7-0.1c-0.1-0.7-0.2-1.3-0.5-1.9c0.8,0.1,1.6,0.2,2.3,0.2c0.7,0,0.8-0.1,0.8-0.6
	v-11.9c0-0.8,0-1.5-0.1-2.3H338.9z"/>
<path class="st5" d="M347.8,108.7c-0.2,0.5-0.3,0.6-0.4,1c-0.3,0.8-0.3,0.8-1.2,2.9v10.1c0,0.8,0,1.5,0.1,2.3h-2.2
	c0.1-0.7,0.1-1.5,0.1-2.3v-5.2c0-0.4,0-0.5,0.1-2.1c-0.5,0.7-1.1,1.4-1.8,2.1c-0.2-0.7-0.6-1.5-1-2.1c1.5-1.4,2.7-3.1,3.5-5
	c0.4-0.8,0.6-1.6,0.8-2.4L347.8,108.7z M350.8,112.6c-0.8,1.6-1.8,3.1-3,4.4c-0.3-0.6-0.8-1.2-1.3-1.7c1.3-1.3,2.3-2.9,3-4.6
	c0.4-0.8,0.7-1.7,0.8-2.6l2,0.6c-0.2,0.4-0.2,0.6-0.4,1c-0.3,0.8-0.3,0.8-0.5,1.2h4.9c0.7,0,1.3,0,2-0.1v2c-0.7-0.1-1.3-0.1-2-0.1
	h-3.5v2.3h3c0.6,0,1.2,0,1.8-0.1v2c-0.6-0.1-1.2-0.1-1.8-0.1h-2.9v2.3h3c0.6,0,1.2,0,1.8-0.1v2c-0.6-0.1-1.2-0.1-1.8-0.1h-3v2.1
	c0,0.7,0,1.5,0.1,2.2H351c0.1-0.7,0.1-1.5,0.1-2.2v-10.4L350.8,112.6z"/>
<path class="st5" d="M18.8,428.1c0,0.2-0.1,0.2-0.1,0.6c-0.5,2.5-1.6,4.9-3.1,7.1c-0.6-0.5-1.3-0.9-2.1-1.2c1.2-1.4,2-3,2.6-4.8
	c0.3-0.7,0.4-1.5,0.5-2.2L18.8,428.1z M20.7,423.2c0-0.6,0-1.3-0.1-1.9H23c-0.1,0.6-0.1,1.3-0.1,1.9v1h4.2c0.8,0,1.6,0,2.4-0.1v2.2
	c-0.8-0.1-1.5-0.1-2.3-0.1h-4.2v8.8c0,0.7,0,1.3,0.1,2h-2.5c0.1-0.7,0.1-1.4,0.1-2.1v-8.8h-4c-0.8,0-1.5,0-2.3,0.1v-2.2
	c0.8,0.1,1.6,0.2,2.3,0.1h4L20.7,423.2z M26.9,427.5c0.2,0.7,0.4,1.4,0.6,2c0.6,1.8,1.5,3.4,2.6,4.9c-0.7,0.4-1.4,0.8-2.1,1.3
	c-1.3-2.1-2.4-4.4-3-6.8c-0.1-0.3-0.2-0.6-0.3-0.9L26.9,427.5z"/>
<path class="st5" d="M32.9,427.9c1,0.1,2,0.2,3,0.1h9.7c1,0,2,0,3-0.1v2.5c-1-0.1-2-0.1-3-0.1h-9.7c-1,0-2,0-3,0.1L32.9,427.9z"/>
<path class="st5" d="M60.3,421.9c-0.2,0.4-0.4,0.9-0.5,1.3c-1,3.5-2.2,7-3.6,10.4c2.5-0.2,5.1-0.5,7.6-0.9c-0.2-0.4-0.4-0.8-0.9-1.6
	c-0.5-1-1.1-2-1.7-2.9l2-0.8c1.8,2.6,3.3,5.4,4.5,8.4l-2.2,1.1c-0.2-0.8-0.5-1.5-0.9-2.3l-0.7,0.1c-1.8,0.4-4.8,0.8-10.3,1.3
	c-0.6,0-1.1,0.1-1.7,0.2l-0.3-2.5h0.5c0.4,0,0.8,0,1.6-0.1c1-2.4,1.9-4.8,2.7-7.3c0.6-1.6,1-3.3,1.3-5L60.3,421.9z"/>
<path class="st5" d="M70.2,430.3c0.2-0.2,0.5-0.3,0.7-0.5c0.5-0.5,2.3-2.6,3.3-3.9c0.4-0.6,0.8-1,1.4-1.4c0.4-0.2,0.8-0.4,1.2-0.4
	c0.9,0,1.3,0.3,2.7,1.9c1.8,2.1,3.8,4,5.9,5.8c0.5,0.5,1.1,1,1.7,1.4l-1.2,2.5c-2.7-2.4-5.3-5-7.7-7.7c-1.2-1.3-1.2-1.3-1.5-1.3
	s-0.3,0-1.1,1s-2,2.5-3.3,4.1c-0.3,0.3-0.4,0.4-0.6,0.8L70.2,430.3z M85.7,424.6c0,1.1-0.9,2-2,2s-2-0.9-2-2s0.9-2,2-2
	S85.7,423.5,85.7,424.6z M82.7,424.6c0,0.6,0.5,1,1,1c0.6,0,1-0.5,1-1c0-0.6-0.4-1-1-1c-0.5-0.1-1,0.3-1.1,0.9
	C82.7,424.6,82.7,424.6,82.7,424.6L82.7,424.6z"/>
<path class="st5" d="M89.7,427.9c1,0.1,2,0.2,2.9,0.1h9.7c1,0,2,0,2.9-0.1v2.5c-1-0.1-2-0.1-3-0.1h-9.6c-1,0-2,0-3,0.1L89.7,427.9z"
	/>
<path class="st5" d="M110.2,426.2c1.7,0.7,3.3,1.5,4.8,2.5l-1.1,2.1c-1.5-1.1-3.2-2-4.9-2.7L110.2,426.2z M109.4,434.4
	c1.8-0.1,3.6-0.5,5.3-1.2c2.1-0.8,4-2.2,5.3-4c0.9-1.2,1.6-2.6,2.1-4c0.6,0.6,1.2,1.2,1.9,1.6c-0.6,1.7-1.6,3.2-2.7,4.6
	c-2.3,2.7-5.4,4.3-9.9,5.2c-0.4,0.1-0.9,0.2-1.3,0.3L109.4,434.4z M111.6,421.8c1.7,0.6,3.3,1.4,4.8,2.3l-1.2,2
	c-1.5-1-3.1-1.9-4.9-2.5L111.6,421.8z M121.3,421.9c0.7,0.7,1.3,1.5,1.7,2.4l-1.4,0.8c-0.5-0.9-1-1.7-1.7-2.4L121.3,421.9z
	 M123.6,423.9c-0.5-0.8-1-1.6-1.7-2.4l1.3-0.7c0.7,0.7,1.2,1.4,1.7,2.3L123.6,423.9z"/>
<path class="st5" d="M128.6,428.4c-0.6,0-1.1,0-1.6,0.1v-2c0.6,0.1,1.1,0.1,1.7,0.1h0.4c-0.2-0.8-0.4-1.5-0.8-2.1l1.6-0.4H129
	c-0.6,0-1.1,0-1.7,0.1v-1.9c0.6,0.1,1.2,0.1,1.8,0.1h1.4v-0.3c0-0.4,0-0.9-0.1-1.3h2.2c-0.1,0.4-0.1,0.9-0.1,1.3v0.3h1.2
	c0.6,0,1.1,0,1.7-0.1v2c-0.6-0.1-1.1-0.1-1.7-0.1h-0.8l1.6,0.4c-0.1,0.2-0.1,0.2-0.3,0.6c-0.1,0.2-0.2,0.4-0.3,0.7
	c-0.1,0.3-0.2,0.5-0.4,0.8h0.4c0.6,0,1.1,0,1.7-0.1v2c-0.6-0.1-1.1-0.1-1.7-0.1h-1.5v1.3h1.4c0.6,0,1.1,0,1.6-0.1v1.9
	c-0.5-0.1-1.1-0.1-1.6-0.1h-0.7c0.5,0.6,1.2,1.2,1.9,1.6c-0.3,0.6-0.6,1.1-0.9,1.7c-0.7-0.6-1.3-1.3-1.8-2c0,0.2,0,0.2,0,0.7
	c0,0.1,0,0.6,0,0.7v1.8c0,0.5,0,1,0.1,1.5h-2c0.1-0.5,0.1-1,0.1-1.4v-1.8c0-0.4,0-0.8,0.1-1.2c-0.7,1.4-1.7,2.5-3,3.4
	c-0.2-0.7-0.5-1.3-0.9-1.9c1.3-0.8,2.4-1.8,3.2-3.1h-1.2c-0.6,0-1.1,0-1.6,0.1v-1.9c0.6,0.1,1.1,0.1,1.7,0.1h1.8v-1.3L128.6,428.4z
	 M130,424.1c0.4,0.7,0.6,1.4,0.8,2.1l-1.6,0.4h2.5c0.4-0.8,0.8-1.7,1-2.5H130z M142.2,426.3c0.6,0,1.1,0,1.7-0.1v2
	c-0.5-0.1-1-0.1-1.5-0.1h-0.4v7.3c0,0.7,0,1.4,0.1,2.1h-2.1c0.1-0.7,0.1-1.4,0.1-2.1v-7.3H138c0,2-0.2,4-0.7,5.9
	c-0.3,1.3-0.9,2.5-1.6,3.6c-0.5-0.5-1.2-0.9-1.8-1.2c1.7-2.1,2.2-4.5,2.2-11.4c0-0.9,0-1.9-0.1-2.8c2.1,0,5.2-0.9,6.1-1.5l1.5,1.8
	c-0.2,0-0.3,0.1-0.6,0.2c-1.6,0.6-3.3,1-5,1.2v2.4L142.2,426.3z"/>
<path class="st5" d="M150.5,429.7c0.7,1.3,1.6,2.4,2.8,3.3l-0.2,0.3c-0.3,0.4-0.6,0.9-0.9,1.4c-0.9-0.8-1.6-1.8-2.2-2.9
	c-0.2,0.9-0.5,1.7-0.9,2.5c-0.5,1-1.2,1.9-2,2.7c-0.4-0.6-0.9-1.1-1.4-1.6c0.9-0.7,1.7-1.7,2.1-2.8c0.4-1,0.7-2,0.8-3h-0.8
	c-0.6,0-1.1,0-1.7,0.1v-2.1c0.5,0.1,1.1,0.1,1.6,0.1h1c0-0.8,0.1-1.4,0.1-2.4h-0.9c-0.5,0-1,0-1.5,0.1v-1.9c0.5,0.1,1.1,0.1,1.6,0.1
	h0.9c0-0.9,0-1.8-0.1-2.8h2.1c-0.1,0.9-0.2,1.8-0.1,2.8h0.6c0.5,0,1.1,0,1.6-0.1v2c-0.5-0.1-0.9-0.1-1.4-0.1h-0.8c0,1,0,1.4-0.1,2.4
	h0.9c0.5,0,1.1,0,1.6-0.1v2c-0.5-0.1-0.9-0.1-1.4-0.1L150.5,429.7z M156.7,432.1c0,1.2-0.4,2.3-1.1,3.3c-0.8,1.1-2,1.9-3.2,2.4
	c-0.4-0.6-0.9-1.1-1.4-1.6c2.6-0.8,3.6-1.9,3.9-4.1c-0.5,0-1,0-1.4,0c0-0.5,0.1-1,0.1-1.8v-7c0-0.6,0-1.2-0.1-1.8
	c0.6,0.1,1.2,0.1,1.8,0.1h4.6c0.6,0,1.2,0,1.8-0.1c-0.1,0.6-0.1,1.2-0.1,1.8v7.1c0,0.6,0,1.2,0.1,1.8c-0.2,0-0.4,0-0.5,0h-0.4h-0.8
	h-0.4v3.1c0,0.3,0.1,0.4,0.7,0.4c0.8,0,0.8-0.1,0.9-2.5c0.5,0.4,1.1,0.7,1.7,0.8c-0.2,3.2-0.5,3.5-2.9,3.5c-1.7,0-2.3-0.3-2.3-1.3
	v-4L156.7,432.1z M155.4,424.5h4.2v-1.2h-4.2V424.5z M155.4,427.4h4.2v-1.2h-4.2V427.4z M155.4,430.3h4.2V429h-4.2V430.3z"/>
<path class="st5" d="M167.1,424.9c-0.2,0.5-0.3,0.8-0.6,1.4c-0.6-0.3-1.1-0.6-1.7-0.9c0.7-1.1,1.2-2.3,1.4-3.6
	c0.1-0.2,0.1-0.5,0.1-0.7l1.9,0.3c-0.1,0.2-0.2,0.5-0.2,0.7c0,0.2-0.1,0.6-0.2,1h1.4v-0.5c0-0.6,0-1.2-0.1-1.8h2.1
	c-0.1,0.6-0.1,1.2-0.1,1.7v0.5h1.5c0.6,0,1.2,0,1.8-0.1v1.9c-0.6-0.1-1.2-0.1-1.8-0.1H171v1.5h2.1c0.6,0,1.1,0,1.7-0.1v1.9
	c-0.6-0.1-1.2-0.1-1.8-0.1h-2v1.4h1.8c0.6,0,1.1,0,1.7-0.1c0,0.4-0.1,0.8-0.1,1.6v3.6c0,1.1-0.5,1.5-2,1.5c-0.2,0-0.3,0-0.8,0
	c0-0.6-0.1-1.2-0.3-1.7c0.3,0,0.7,0.1,1,0.1c0.4,0,0.4-0.1,0.4-0.3v-2.9h-1.6v4.2c0,0.7,0,1.3,0.1,2h-2.1c0.1-0.7,0.1-1.3,0.1-2
	v-4.3h-1.9v3.3c0,0.6,0,1.2,0.1,1.8h-2c0.1-0.6,0.1-1.2,0.1-1.8v-3.3c0-0.6,0-1.1-0.1-1.7c0.6,0.1,1.2,0.1,1.8,0.1h1.9v-1.4h-2.3
	c-0.6,0-1.2,0-1.9,0.1v-2c0.5,0.1,1.1,0.1,1.6,0.1h2.5v-1.5L167.1,424.9z M177.4,422.1c-0.1,0.6-0.1,1.3-0.1,1.9v7.3
	c0,0.6,0,1.3,0.1,1.9h-2c0.1-0.6,0.1-1.3,0.1-1.9V424c0-0.6,0-1.3-0.1-1.9H177.4z M181,420.9c-0.1,0.7-0.2,1.5-0.1,2.2v12.1
	c0,1-0.2,1.4-0.6,1.7c-0.7,0.4-1.4,0.5-2.2,0.4h-1.7c-0.1-0.7-0.2-1.4-0.5-2c0.8,0.1,1.6,0.2,2.3,0.2c0.7,0,0.8-0.1,0.8-0.5v-11.9
	c0-0.8,0-1.5-0.1-2.3H181z"/>
<path class="st5" d="M189.6,421.3c-0.2,0.5-0.3,0.6-0.4,1c-0.3,0.8-0.3,0.8-1.2,2.9v10.1c0,0.8,0,1.5,0.1,2.3h-2.2
	c0.1-0.7,0.1-1.5,0.1-2.3v-5.2c0-0.5,0-0.5,0.1-2.1c-0.5,0.7-1.1,1.4-1.8,2.1c-0.2-0.8-0.6-1.5-1-2.1c1.5-1.4,2.7-3.1,3.4-5
	c0.4-0.8,0.6-1.6,0.8-2.4L189.6,421.3z M192.6,425.2c-0.8,1.6-1.8,3.1-3,4.4c-0.4-0.6-0.8-1.2-1.3-1.7c1.3-1.3,2.3-2.9,3.1-4.6
	c0.4-0.8,0.7-1.7,0.8-2.6l2.1,0.6c-0.2,0.4-0.2,0.6-0.4,1c-0.3,0.8-0.3,0.8-0.4,1.2h4.9c0.7,0,1.3,0,2-0.1v2c-0.5,0-1.2-0.1-2-0.1
	h-3.5v2.3h3c0.6,0,1.2,0,1.8-0.1v2c-0.6-0.1-1.2-0.1-1.8-0.1h-3v2.3h3c0.6,0,1.2,0,1.8-0.1v2c-0.6-0.1-1.2-0.1-1.8-0.1h-3v2.1
	c0,0.7,0,1.5,0.1,2.2h-2.2c0.1-0.7,0.1-1.5,0.1-2.2v-10.4L192.6,425.2z"/>
<path class="st5" d="M56.7,449.3c-0.1,0.5-0.1,1.1-0.1,1.6v5c0,0.5,0,1.1,0.1,1.6h-2.5c0.1-0.5,0.1-1.1,0.1-1.6v-5
	c0-0.5,0-1.1-0.1-1.6L56.7,449.3z M65,449.3c-0.1,0.6-0.1,1.1-0.1,1.7v2.5c0.1,1.8-0.1,3.7-0.5,5.5c-0.6,1.8-1.9,3.4-3.6,4.2
	c-1.1,0.6-2.3,1.1-3.5,1.4c-0.3-0.8-0.7-1.5-1.3-2.2c1.4-0.2,2.7-0.7,3.9-1.5c1.7-1.1,2.3-2.2,2.5-4.6c0.1-0.8,0.1-1.6,0.1-3V451
	c0-0.6,0-1.2-0.1-1.7L65,449.3z"/>
<path class="st5" d="M71,459.9c0.8,0.1,1.6,0.2,2.3,0.1h10.4c0.8,0,1.6,0,2.3-0.1v2.4c-0.8-0.1-1.5-0.1-2.3-0.1H73.3
	c-0.8,0-1.5,0-2.3,0.1L71,459.9z M72.8,451c0.7,0.1,1.4,0.2,2.2,0.1h7.2c0.7,0,1.4,0,2.1-0.1v2.4c-0.7-0.1-1.4-0.1-2.1-0.1H75
	c-0.7,0-1.4,0-2.1,0.1V451z"/>
<path class="st5" d="M102.2,462c0.6,0,1.1,0,1.7-0.1v2.1c-0.6-0.1-1.1-0.1-1.7-0.1h-9.4c-0.6,0-1.1,0-1.7,0.1v-2.1
	c0.6,0.1,1.1,0.1,1.7,0.1h5.4c0.3-1.6,0.7-4.2,0.9-5.8h-4.5c-0.5,0-1.1,0-1.6,0.1v-2c0.6,0.1,1.1,0.1,1.7,0.1h4.6
	c0.5,0,0.9,0,1.3-0.2l1,0.9c-0.3,0.7-0.4,1.4-0.4,2.1c-0.3,2-0.5,3.3-0.8,4.9H102.2z"/>
<path class="st5" d="M108.6,455.4c1,0.1,2,0.2,2.9,0.1h9.7c1,0,2,0,2.9-0.1v2.5c-1-0.1-2-0.1-3-0.1h-9.7c-1,0-2,0-3,0.1L108.6,455.4
	z"/>
<path class="st5" d="M135.8,453.4c-0.1,0.5-0.1,1-0.1,1.5c-0.1,3.1-0.6,4.9-1.8,6.4c-1.2,1.5-2.9,2.6-4.7,3.3
	c-0.3-0.8-0.8-1.5-1.4-2.1c1.2-0.3,2.2-0.8,3.2-1.5c1.9-1.5,2.4-3,2.4-6.5c0-0.4,0-0.7-0.1-1.1H135.8z M143.2,451.1
	c-0.3,0.4-0.6,0.8-0.7,1.3c-0.7,1.4-1.6,2.6-2.8,3.7c-0.7,0.6-1.4,1.1-2.2,1.5c-0.4-0.7-1-1.2-1.6-1.7c1-0.4,1.9-1,2.7-1.7
	c0.7-0.7,1.3-1.4,1.7-2.3h-9.6c-0.8,0-1.7,0-2.5,0.1v-2.3c0.8,0.1,1.7,0.2,2.5,0.1h9.5c0.6,0,1.2,0,1.8-0.2L143.2,451.1z"/>
<path class="st5" d="M151.8,449.5c-0.1,1.4-0.2,2.7-0.2,4.1c-0.1,3.5-0.5,5.6-1.5,7.5c-0.6,1.3-1.5,2.4-2.5,3.4
	c-0.5-0.7-1.1-1.3-1.8-1.8c0.8-0.6,1.4-1.3,1.9-2.1c1.3-2.1,1.7-4.4,1.7-9.5c0-0.6,0-1.1-0.1-1.6L151.8,449.5z M156.6,449.3
	c-0.1,0.6-0.1,1.1-0.1,1.7l-0.1,10.4c1.1-0.5,2-1.2,2.8-2.1c0.8-1,1.4-2.1,1.8-3.3c0.5,0.7,1.1,1.2,1.7,1.7
	c-0.6,1.6-1.6,3.1-2.9,4.2c-1.1,1-2.5,1.7-3.9,2.2c-0.4,0.1-0.5,0.2-0.8,0.3l-1.2-1.2c0.1-0.6,0.2-1.3,0.2-1.9l0.1-10.3v-0.5
	c0-0.4,0-0.8-0.1-1.2L156.6,449.3z"/>
<circle class="st2" cx="523.2" cy="436.8" r="103.2"/>
<path class="st3" d="M523.2,336.6c55.3,0,100.2,44.8,100.2,100.2S578.5,537,523.2,537C467.9,537,423,492.1,423,436.8c0,0,0,0,0,0
	C423.1,381.5,467.9,336.7,523.2,336.6 M523.2,330.6c-58.6,0-106.2,47.5-106.2,106.2S464.6,543,523.2,543s106.2-47.5,106.2-106.2
	c0,0,0,0,0,0C629.4,378.2,581.8,330.6,523.2,330.6z"/>
<path class="st5" d="M470.9,434.6c-0.1,0.5-0.1,1-0.1,1.5c-0.1,3.1-0.6,4.9-1.8,6.4c-1.2,1.5-2.9,2.6-4.7,3.3
	c-0.3-0.8-0.8-1.5-1.4-2.1c1.2-0.3,2.2-0.8,3.2-1.5c1.9-1.5,2.4-3,2.4-6.5c0-0.4,0-0.7-0.1-1.1H470.9z M478.3,432.4
	c-0.3,0.4-0.6,0.8-0.7,1.3c-0.7,1.4-1.6,2.6-2.8,3.7c-0.7,0.6-1.4,1.1-2.2,1.5c-0.4-0.7-1-1.2-1.6-1.7c1-0.4,1.9-0.9,2.6-1.7
	c0.7-0.7,1.3-1.4,1.7-2.3h-9.5c-0.8,0-1.7,0-2.5,0.1V431c0.8,0.1,1.7,0.2,2.5,0.1h9.5c0.6,0,1.2,0,1.8-0.2L478.3,432.4z"/>
<path class="st5" d="M493.2,431.6c0.3,0,0.7,0,1,0c0-1.1,1-2,2.1-1.9c1.1,0,2,1,1.9,2.1c0,1.1-0.9,1.9-2,1.9H496
	c-0.5,2.1-1.3,4.1-2.5,5.9c-1.2,1.8-2.7,3.3-4.5,4.4c-1.1,0.7-2.3,1.3-3.5,1.8c-0.4-0.8-0.9-1.6-1.6-2.2c1.4-0.4,2.8-1,4-1.9
	c2.8-1.8,4.8-4.7,5.5-7.9h-8.7c-0.8,0-1.5,0-2.3,0.1v-2.4c0.8,0.1,1.6,0.2,2.3,0.1L493.2,431.6z M495.2,431.6c0,0.6,0.5,1,1,1
	s1-0.5,1-1c0-0.6-0.4-1-1-1c-0.5-0.1-1,0.3-1.1,0.9C495.1,431.6,495.1,431.6,495.2,431.6L495.2,431.6z"/>
<path class="st5" d="M506,430.5c-0.1,0.5-0.1,1.1-0.1,1.6v5c0,0.5,0,1.1,0.1,1.6h-2.5c0.1-0.5,0.1-1.1,0.1-1.6v-5
	c0-0.5,0-1.1-0.1-1.6L506,430.5z M514.2,430.5c-0.1,0.6-0.1,1.1-0.1,1.7v2.5c0.1,1.8-0.1,3.7-0.5,5.5c-0.6,1.8-1.9,3.4-3.6,4.2
	c-1.1,0.6-2.3,1.1-3.5,1.4c-0.3-0.8-0.7-1.5-1.3-2.2c1.4-0.2,2.7-0.7,3.9-1.5c1.7-1.1,2.3-2.2,2.5-4.6c0.1-0.8,0.1-1.6,0.1-3v-2.3
	c0-0.6,0-1.2-0.1-1.7L514.2,430.5z"/>
<path class="st5" d="M529.6,437.4c0,1.7-0.4,3.4-1.3,4.9c-1,1.6-2.3,2.6-4.8,3.6c-0.3-0.8-0.9-1.5-1.5-2c2.2-0.7,3.5-1.6,4.3-3
	c0.5-1.1,0.8-2.2,0.8-3.4h-4.4c-0.8,0-1.5,0-2.3,0.1v-2.2c0.8,0.1,1.6,0.2,2.3,0.1h10.6c0.8,0,1.6,0,2.3-0.1v2.2
	c-0.8-0.1-1.5-0.1-2.3-0.1L529.6,437.4z M533.7,431.4c0.6,0.8,1,1.6,1.3,2.5l-1.4,0.6c-0.3-0.9-0.7-1.7-1.2-2.5v1
	c-0.8-0.1-1.5-0.1-2.3-0.1h-5.5c-0.8,0-1.5,0-2.3,0.1v-2.2c0.8,0.1,1.6,0.2,2.3,0.1h5.4c0.8,0,1.6,0,2.3-0.1v1.1L533.7,431.4z
	 M535.6,433.7c-0.3-0.9-0.7-1.7-1.3-2.5l1.3-0.5c0.5,0.7,1,1.6,1.3,2.4L535.6,433.7z"/>
<path class="st5" d="M549.6,433.8v-0.8v-0.6c0-0.7,0-1.3-0.1-2h2.3c-0.1,0.4-0.1,0.8-0.1,1.2c0,1.1,0,1.1,0,2.2h1.2
	c0.8,0,1.6,0,2.4-0.1v2.2c-0.8-0.1-1.6-0.1-2.3-0.1h-1.2c0,1,0,2-0.1,3c-0.1,2-1.1,3.9-2.6,5.2c-1,0.9-2.2,1.5-3.5,1.9
	c-0.3-0.7-0.8-1.4-1.4-1.9c1.3-0.3,2.5-0.9,3.5-1.7c1.3-1.1,2-2.7,1.9-4.4c0-0.4,0-0.8,0.1-2.1h-4.7v2.7c0,0.5,0,1,0.1,1.5h-2.4
	c0.1-0.5,0.1-1,0.1-1.6v-2.7h-1.1c-0.8,0-1.5,0-2.3,0.1v-2.3c0.8,0.1,1.6,0.2,2.4,0.1h1.1v-1.8c0-0.5,0-1.1-0.1-1.6h2.4
	c-0.1,0.5-0.1,1-0.1,1.5v1.9L549.6,433.8z M553.3,430.2c0.5,0.8,0.9,1.6,1.2,2.5l-1.3,0.5c-0.3-0.9-0.7-1.8-1.2-2.6L553.3,430.2z
	 M555.1,432.5c-0.3-0.9-0.7-1.7-1.1-2.5l1.3-0.5c0.5,0.7,0.9,1.6,1.2,2.4L555.1,432.5z"/>
<path class="st5" d="M573.6,431.5c-0.2,0.2-0.5,0.4-0.7,0.6c-1.3,1.4-2.8,2.6-4.3,3.8v7.7c0,0.7,0,1.3,0.1,2h-2.6
	c0.1-0.7,0.1-1.3,0.1-2v-6.4c-2,1.2-4.2,2.2-6.5,3c-0.3-0.8-0.7-1.5-1.2-2.1c3.5-0.9,6.7-2.5,9.5-4.7c1.3-0.9,2.5-2.1,3.4-3.4
	L573.6,431.5z"/>
<path class="st5" d="M579.1,442.6c1.9-0.2,3.7-0.6,5.4-1.4c2.2-0.9,4.1-2.5,5.4-4.5c0.8-1.1,1.4-2.3,1.8-3.6
	c0.5,0.7,1.2,1.3,1.9,1.8c-1.2,2.9-3.2,5.4-5.8,7.1c-2.1,1.3-4.5,2.3-6.9,2.7c-0.4,0.1-0.8,0.2-1.2,0.3L579.1,442.6z M580.6,431.4
	c1.7,1,3.3,2.2,4.7,3.5l-1.6,2c-1.3-1.5-2.9-2.7-4.6-3.7L580.6,431.4z"/>
<path class="st4" d="M302.7,213.5c-0.8,0-1.5-0.7-1.5-1.5c0-0.3,0.1-0.6,0.3-0.8l9.1-13.6c0.5-0.7,1.4-0.9,2.1-0.4
	c0.2,0.1,0.3,0.2,0.4,0.4l9.1,13.6c0.5,0.7,0.3,1.6-0.4,2.1c-0.2,0.2-0.5,0.3-0.8,0.3H302.7z"/>
<path class="st2" d="M311.8,198.4l9.1,13.6h-18.1L311.8,198.4 M311.8,195.4c-1,0-1.9,0.5-2.5,1.3l-9.1,13.6
	c-0.9,1.4-0.5,3.2,0.8,4.2c0.5,0.3,1.1,0.5,1.7,0.5h18.1c1.7,0,3-1.3,3-3c0-0.6-0.2-1.2-0.5-1.7l-9.1-13.7
	C313.7,195.8,312.8,195.3,311.8,195.4L311.8,195.4z"/>
<path class="st4" d="M302.7,235.5c-0.8,0-1.5-0.7-1.5-1.5c0-0.3,0.1-0.6,0.3-0.8l9.1-13.6c0.5-0.7,1.4-0.9,2.1-0.4
	c0.2,0.1,0.3,0.2,0.4,0.4l9.1,13.6c0.5,0.7,0.3,1.6-0.4,2.1c-0.2,0.2-0.5,0.3-0.8,0.3H302.7z"/>
<path class="st2" d="M311.8,220.4l9.1,13.6h-18.1L311.8,220.4 M311.8,217.4c-1,0-1.9,0.5-2.5,1.3l-9.1,13.6
	c-0.9,1.4-0.6,3.2,0.8,4.2c0.5,0.3,1.1,0.5,1.7,0.5h18.1c1.7,0,3-1.3,3-3c0-0.6-0.2-1.2-0.5-1.7l-9.1-13.6
	C313.7,217.9,312.8,217.4,311.8,217.4L311.8,217.4z"/>
<path class="st4" d="M302.7,190.4c-0.8,0-1.5-0.7-1.5-1.5c0-0.3,0.1-0.6,0.3-0.8l9.1-13.6c0.5-0.7,1.4-0.9,2.1-0.4
	c0.2,0.1,0.3,0.2,0.4,0.4l9.1,13.6c0.5,0.7,0.3,1.6-0.4,2.1c-0.2,0.2-0.5,0.3-0.8,0.3H302.7z"/>
<path class="st2" d="M311.8,175.3l9.1,13.6h-18.1L311.8,175.3 M311.8,172.3c-1,0-1.9,0.5-2.5,1.3l-9.1,13.6
	c-0.9,1.4-0.5,3.2,0.8,4.2c0.5,0.3,1.1,0.5,1.7,0.5h18.1c1.7,0,3-1.3,3-3c0-0.6-0.2-1.2-0.5-1.7l-9.1-13.6
	C313.7,172.8,312.8,172.3,311.8,172.3z"/>
<path class="st4" d="M181.6,382.9c-0.8,0-1.5-0.7-1.5-1.5c0-0.2,0-0.3,0.1-0.4l4.9-15.6c0.2-0.5,0.6-0.9,1.2-1h0.3
	c0.5,0,0.9,0.2,1.2,0.6l11.4,14.1c0.3,0.4,0.4,1,0.2,1.5c-0.2,0.5-0.7,0.9-1.3,0.9l-16.3,1.4L181.6,382.9z"/>
<path class="st2" d="M186.5,365.8l11.4,14.1l-16.3,1.4L186.5,365.8 M186.5,362.8c-0.2,0-0.4,0-0.6,0c-1.1,0.2-2,1-2.3,2l-4.9,15.6
	c-0.5,1.6,0.4,3.3,2,3.8c0.3,0.1,0.6,0.1,0.9,0.1h0.3l16.3-1.5c1.1-0.1,2.1-0.8,2.5-1.8c0.4-1,0.3-2.2-0.4-3l-11.4-14.1
	C188.3,363.1,187.4,362.7,186.5,362.8L186.5,362.8z"/>
<path class="st4" d="M198.8,369c-0.8,0-1.5-0.7-1.5-1.5c0-0.2,0-0.3,0.1-0.4l4.9-15.6c0.2-0.5,0.6-0.9,1.1-1c0.1,0,0.2,0,0.3,0
	c0.5,0,0.9,0.2,1.2,0.6l11.4,14.1c0.5,0.6,0.4,1.6-0.2,2.1c-0.2,0.2-0.5,0.3-0.8,0.3l-16.3,1.5L198.8,369z"/>
<path class="st2" d="M203.7,352l11.4,14.1l-16.3,1.4L203.7,352 M203.7,349c-0.2,0-0.4,0-0.6,0.1c-1.1,0.2-2,1-2.3,2l-4.9,15.6
	c-0.5,1.6,0.4,3.3,2,3.8c0.3,0.1,0.6,0.1,0.9,0.1h0.3l16.3-1.4c1.1-0.1,2.1-0.8,2.5-1.8c0.4-1,0.3-2.2-0.4-3l-11.4-14.1
	C205.5,349.4,204.7,349,203.7,349L203.7,349z"/>
<path class="st4" d="M163.6,397.3c-0.8,0-1.5-0.7-1.5-1.5c0-0.2,0-0.3,0.1-0.4l4.9-15.6c0.2-0.5,0.6-0.9,1.1-1h0.3
	c0.5,0,0.9,0.2,1.2,0.6l11.4,14.1c0.5,0.6,0.4,1.6-0.2,2.1c-0.2,0.2-0.5,0.3-0.8,0.3l-16.3,1.5L163.6,397.3z"/>
<path class="st2" d="M168.6,380.2l11.4,14.1l-16.3,1.4L168.6,380.2 M168.6,377.2c-0.2,0-0.4,0-0.6,0c-1.1,0.2-2,1-2.3,2l-4.9,15.6
	c-0.5,1.6,0.4,3.3,2,3.8c0.3,0.1,0.6,0.1,0.9,0.1h0.3l16.3-1.4c1.7-0.1,2.9-1.6,2.7-3.3c-0.1-0.6-0.3-1.2-0.7-1.6l-11.4-14.1
	C170.3,377.5,169.5,377.1,168.6,377.2L168.6,377.2z"/>
<path class="st4" d="M449,382.8l-16.3-1.4c-0.6,0-1-0.4-1.3-0.9c-0.2-0.5-0.1-1.1,0.2-1.5l11.4-14.1c0.3-0.4,0.7-0.6,1.2-0.6
	c0.1,0,0.2,0,0.3,0c0.5,0.1,1,0.5,1.1,1l4.9,15.6c0.2,0.8-0.2,1.6-1,1.9c-0.1,0-0.3,0.1-0.4,0.1L449,382.8z"/>
<path class="st2" d="M444.2,365.8l4.9,15.6l-16.3-1.4L444.2,365.8 M444.2,362.8c-0.9,0-1.8,0.4-2.3,1.1L430.5,378
	c-1,1.3-0.8,3.2,0.5,4.2c0.5,0.4,1,0.6,1.6,0.6l16.3,1.5h0.3c1.7,0,3-1.3,3-3c0-0.3,0-0.6-0.1-0.9l-4.9-15.6c-0.3-1-1.2-1.8-2.3-2
	C444.6,362.8,444.4,362.8,444.2,362.8L444.2,362.8z"/>
<path class="st4" d="M431.8,369l-16.3-1.4c-0.8-0.1-1.4-0.8-1.3-1.7c0-0.3,0.1-0.5,0.3-0.8l11.4-14.1c0.3-0.4,0.7-0.6,1.2-0.6
	c0.1,0,0.2,0,0.3,0c0.5,0.1,1,0.5,1.2,1l4.9,15.6c0.2,0.8-0.2,1.6-1,1.9c-0.1,0-0.3,0.1-0.4,0.1L431.8,369z"/>
<path class="st2" d="M427,352l4.9,15.6l-16.3-1.4L427,352 M427,349c-0.9,0-1.8,0.4-2.3,1.1l-11.3,14.1c-1,1.3-0.8,3.2,0.5,4.2
	c0.5,0.4,1,0.6,1.6,0.7l16.3,1.4h0.3c1.7,0,3-1.3,3-3c0-0.3,0-0.6-0.1-0.9l-4.9-15.6c-0.3-1-1.2-1.8-2.3-2
	C427.4,349,427.3,349,427,349L427,349z"/>
<path class="st4" d="M467,397.3l-16.3-1.5c-0.6,0-1-0.4-1.3-0.9c-0.2-0.5-0.1-1.1,0.2-1.5l11.4-14.1c0.3-0.4,0.7-0.6,1.2-0.6h0.3
	c0.5,0.1,1,0.5,1.1,1l4.9,15.6c0.2,0.8-0.2,1.6-1,1.9c-0.1,0-0.3,0.1-0.4,0.1L467,397.3z"/>
<path class="st2" d="M462.2,380.2l4.9,15.6l-16.3-1.4L462.2,380.2 M462.2,377.2c-0.9,0-1.8,0.4-2.3,1.1l-11.3,14.1
	c-0.7,0.9-0.9,2-0.4,3.1c0.4,1,1.4,1.7,2.5,1.8l16.3,1.4h0.3c1.7,0,3-1.3,3-3c0-0.3,0-0.6-0.1-0.9l-4.9-15.6c-0.3-1-1.2-1.8-2.3-2
	C462.6,377.3,462.4,377.3,462.2,377.2L462.2,377.2z"/>
</svg>
