<?xml version="1.0" encoding="utf-8"?>
<!-- Generator: Adobe Illustrator 24.3.0, SVG Export Plug-In . SVG Version: 6.00 Build 0)  -->
<svg version="1.1" id="レイヤー_1" xmlns="http://www.w3.org/2000/svg" xmlns:xlink="http://www.w3.org/1999/xlink" x="0px"
	 y="0px" viewBox="0 0 82 76" style="enable-background:new 0 0 82 76;" xml:space="preserve">
<style type="text/css">
	.st0{fill:#EEF7FF;}
	.st1{fill-rule:evenodd;clip-rule:evenodd;fill:#5884DB;}
</style>
<rect class="st0" width="82" height="76"/>
<path class="st1" d="M63.668,57.941H18.331c-1.337,0-2.424-1.084-2.424-2.418V20.477c0-1.333,1.087-2.418,2.424-2.418h45.339
	c1.336,0,2.424,1.085,2.424,2.418v35.046C66.093,56.857,65.006,57.941,63.668,57.941z M18.556,55.299h44.888V40.052
	c-0.001-0.009-0.001-0.018-0.001-0.026l0.001-12.029H18.556V55.299z M18.556,20.701v4.654h44.888l0.001-4.654H18.556z M29.33,24.536
	c-0.823,0-1.492-0.668-1.492-1.488c0-0.821,0.669-1.488,1.492-1.488c0.823,0,1.492,0.667,1.492,1.488
	C30.823,23.868,30.154,24.536,29.33,24.536z M25.618,24.536c-0.823,0-1.492-0.668-1.492-1.488c0-0.821,0.669-1.488,1.492-1.488
	c0.822,0,1.492,0.667,1.492,1.488C27.111,23.868,26.441,24.536,25.618,24.536z M21.853,24.527c-0.822,0-1.492-0.667-1.492-1.487
	c0-0.821,0.67-1.489,1.492-1.489c0.823,0,1.492,0.668,1.492,1.489C23.345,23.86,22.676,24.527,21.853,24.527z M60.127,52.575H21.25
	c-0.125,0-0.226-0.1-0.226-0.224v-2.182c0-0.125,0.101-0.225,0.226-0.225h38.878c0.124,0,0.225,0.1,0.225,0.225v2.182
	C60.353,52.475,60.251,52.575,60.127,52.575z M60.127,48.423H21.25c-0.125,0-0.226-0.101-0.226-0.225v-2.182
	c0-0.124,0.101-0.224,0.226-0.224h38.878c0.124,0,0.225,0.1,0.225,0.224v2.182C60.353,48.322,60.251,48.423,60.127,48.423z
	 M60.127,43.707H48.556c-0.124,0-0.225-0.1-0.225-0.224v-2.182c0-0.124,0.101-0.224,0.225-0.224h11.572
	c0.124,0,0.225,0.1,0.225,0.224v2.182C60.353,43.607,60.251,43.707,60.127,43.707z M60.127,39.555H48.556
	c-0.124,0-0.225-0.1-0.225-0.225v-2.181c0-0.124,0.101-0.224,0.225-0.224h11.572c0.124,0,0.225,0.1,0.225,0.224v2.181
	C60.353,39.455,60.251,39.555,60.127,39.555z M60.127,35.262H48.556c-0.124,0-0.225-0.101-0.225-0.225v-2.181
	c0-0.124,0.101-0.224,0.225-0.224h11.572c0.124,0,0.225,0.1,0.225,0.224v2.181C60.353,35.161,60.251,35.262,60.127,35.262z
	 M39.539,43.596h-2.895c-1.028,0-1.414,0.013-1.993,0.039c-0.004,0-0.007,0-0.011,0c-0.063,0-0.123-0.026-0.166-0.072
	c-0.045-0.05-0.065-0.116-0.057-0.183c0.082-0.604,0.107-1.062,0.107-1.955v-7.416c0-0.909-0.026-1.35-0.12-1.967
	c-0.01-0.067,0.011-0.135,0.056-0.185c0.043-0.047,0.104-0.073,0.167-0.073c0.004,0,0.008,0,0.012,0
	c0.528,0.027,0.858,0.041,2.005,0.041h2.867c1.728,0,3.145,0.488,4.099,1.409c1.042,1.024,1.57,2.497,1.57,4.381
	c0,1.903-0.57,3.478-1.649,4.554C42.566,43.116,41.222,43.596,39.539,43.596z M41.207,35.283c-0.436-0.434-1.04-0.627-1.956-0.627
	H37.69v6.109h1.602c0.823,0,1.393-0.202,1.847-0.655c0.519-0.531,0.794-1.38,0.794-2.454C41.933,36.561,41.688,35.764,41.207,35.283
	z M32.998,43.596h-3.193c-0.11,0-0.204-0.08-0.222-0.188c-0.105-0.625-0.183-0.976-0.322-1.442l-0.316-0.996h-3.56l-0.317,0.999
	c-0.173,0.526-0.266,0.927-0.334,1.432c-0.015,0.112-0.11,0.195-0.223,0.195h-3.192c-0.077,0-0.15-0.041-0.191-0.107
	c-0.041-0.065-0.045-0.148-0.01-0.217c0.197-0.396,0.32-0.722,0.644-1.636l2.948-8.193c0.248-0.678,0.363-1.065,0.426-1.431
	c0.019-0.108,0.112-0.187,0.222-0.187h3.56c0.104,0,0.195,0.071,0.219,0.172c0.091,0.375,0.183,0.719,0.455,1.443l2.963,8.194
	c0.268,0.746,0.48,1.283,0.647,1.643c0.033,0.069,0.027,0.151-0.014,0.215C33.146,43.557,33.075,43.596,32.998,43.596z
	 M27.148,35.126l-0.967,3.109h1.952L27.148,35.126z"/>
</svg>
