<?xml version="1.0" encoding="utf-8"?>
<!-- Generator: Adobe Illustrator 24.3.0, SVG Export Plug-In . SVG Version: 6.00 Build 0)  -->
<svg version="1.1" id="レイヤー_1" xmlns="http://www.w3.org/2000/svg" xmlns:xlink="http://www.w3.org/1999/xlink" x="0px"
	 y="0px" viewBox="0 0 82 76" style="enable-background:new 0 0 82 76;" xml:space="preserve">
<style type="text/css">
	.st0{fill:#EEF7FF;}
	.st1{fill-rule:evenodd;clip-rule:evenodd;fill:#5884DB;}
</style>
<rect class="st0" width="82" height="76"/>
<path class="st1" d="M54.062,58.771H27.938c-3.269,0-5.927-2.613-5.927-5.825V23.055c0-3.212,2.658-5.826,5.927-5.826h26.123
	c3.268,0,5.927,2.614,5.927,5.826v29.891C59.989,56.158,57.33,58.771,54.062,58.771z M24.736,42.91h32.484v-9.709H24.736V42.91z
	 M57.229,22.609c0-1.382-1.098-2.507-2.447-2.507H27.217c-1.349,0-2.447,1.125-2.447,2.507v7.871h32.459V22.609z M57.263,45.463
	H24.82v7.909c0,1.454,1.098,2.637,2.446,2.637h27.551c1.348,0,2.445-1.183,2.445-2.637V45.463z M51.479,52.607
	c-1.091,0-1.975-0.869-1.975-1.941c0-1.073,0.884-1.942,1.975-1.942s1.976,0.869,1.976,1.942
	C53.456,51.738,52.57,52.607,51.479,52.607z M34.558,48.724h3.607v3.883h-3.607V48.724z M28.116,48.724h3.607v3.883h-3.607V48.724z
	 M31.723,27.446h-3.607v-3.884h3.607V27.446z M38.166,27.446h-3.607v-3.884h3.607V27.446z M51.479,23.562
	c1.091,0,1.976,0.87,1.976,1.942c0,1.073-0.885,1.942-1.976,1.942s-1.975-0.869-1.975-1.942
	C49.505,24.432,50.389,23.562,51.479,23.562z M51.479,40.109c-1.091,0-1.975-0.869-1.975-1.942c0-1.072,0.884-1.941,1.975-1.941
	s1.976,0.869,1.976,1.941C53.456,39.24,52.57,40.109,51.479,40.109z M34.558,36.226h3.607v3.883h-3.607V36.226z M28.116,36.226
	h3.607v3.883h-3.607V36.226z"/>
</svg>
