<?xml version="1.0" encoding="utf-8"?>
<!-- Generator: Adobe Illustrator 24.3.0, SVG Export Plug-In . SVG Version: 6.00 Build 0)  -->
<svg version="1.1" id="レイヤー_1" xmlns="http://www.w3.org/2000/svg" xmlns:xlink="http://www.w3.org/1999/xlink" x="0px"
	 y="0px" viewBox="0 0 82 76" style="enable-background:new 0 0 82 76;" xml:space="preserve">
<style type="text/css">
	.st0{fill:#EEF7FF;}
	.st1{fill-rule:evenodd;clip-rule:evenodd;fill:#5884DB;}
</style>
<rect class="st0" width="82" height="76"/>
<path class="st1" d="M56.109,59.812H45.821c-0.71,0-1.286-0.575-1.286-1.284V17.472c0-0.708,0.576-1.283,1.286-1.283h10.287
	c0.71,0,1.286,0.575,1.286,1.283v41.056C57.395,59.236,56.819,59.812,56.109,59.812z M54.822,53.396h-1.286
	c-0.71,0-1.285-0.575-1.285-1.284c0-0.708,0.575-1.282,1.285-1.282h1.286V46.34h-1.286c-0.71,0-1.285-0.574-1.285-1.283
	s0.575-1.283,1.285-1.283h1.286v-4.491h-1.286c-0.71,0-1.285-0.574-1.285-1.282c0-0.709,0.575-1.284,1.285-1.284h1.286v-4.49h-1.286
	c-0.71,0-1.285-0.575-1.285-1.283c0-0.709,0.575-1.283,1.285-1.283h1.286V25.17h-1.286c-0.71,0-1.285-0.574-1.285-1.283
	c0-0.708,0.575-1.283,1.285-1.283h1.286v-3.849h-7.715v3.849h1.286c0.71,0,1.286,0.575,1.286,1.283c0,0.709-0.576,1.283-1.286,1.283
	h-1.286v4.491h1.286c0.71,0,1.286,0.574,1.286,1.283c0,0.708-0.576,1.283-1.286,1.283h-1.286v4.49h1.286
	c0.71,0,1.286,0.575,1.286,1.284c0,0.708-0.576,1.282-1.286,1.282h-1.286v4.491h1.286c0.71,0,1.286,0.574,1.286,1.283
	s-0.576,1.283-1.286,1.283h-1.286v4.491h1.286c0.71,0,1.286,0.574,1.286,1.282c0,0.709-0.576,1.284-1.286,1.284h-1.286v3.849h7.715
	V53.396z M34.088,58.509c-0.49,0.88-1.758,0.88-2.248,0l-3.214-5.774c-0.106-0.19-0.162-0.404-0.162-0.623V22.604h-1.286v8.981
	c0,0.709-0.576,1.283-1.286,1.283c-0.71,0-1.286-0.574-1.286-1.283V21.32c0-0.708,0.576-1.283,1.286-1.283h2.572v-1.283
	c0-0.708,0.575-1.283,1.286-1.283h6.429c0.71,0,1.286,0.575,1.286,1.283v33.358c0,0.219-0.056,0.433-0.162,0.623L34.088,58.509z
	 M31.035,51.766l1.929,3.49l1.929-3.49v-1.578h-3.858V51.766z M34.893,20.038h-3.858v10.264h3.858V20.038z M34.893,32.868h-3.858
	v14.755h3.858V32.868z"/>
</svg>
