<?xml version="1.0" encoding="utf-8"?>
<!-- Generator: Adobe Illustrator 24.3.0, SVG Export Plug-In . SVG Version: 6.00 Build 0)  -->
<svg version="1.1" id="レイヤー_1" xmlns="http://www.w3.org/2000/svg" xmlns:xlink="http://www.w3.org/1999/xlink" x="0px"
	 y="0px" viewBox="0 0 82 76" style="enable-background:new 0 0 82 76;" xml:space="preserve">
<style type="text/css">
	.st0{fill:#EEF7FF;}
	.st1{fill-rule:evenodd;clip-rule:evenodd;fill:#5884DB;}
</style>
<rect class="st0" width="82" height="76"/>
<path class="st1" d="M63.365,57.674h-44.73c-1.319,0-2.392-1.07-2.392-2.385V20.712c0-1.316,1.073-2.386,2.392-2.386h44.73
	c1.319,0,2.392,1.07,2.392,2.386v34.576C65.757,56.604,64.684,57.674,63.365,57.674z M18.857,55.067h44.286V40.023
	c-0.001-0.008-0.002-0.016-0.002-0.025l0.001-11.867H18.857V55.067z M18.857,20.934v4.591h44.286v-4.591H18.857z M29.487,24.716
	c-0.811,0-1.472-0.659-1.472-1.468c0-0.81,0.661-1.468,1.472-1.468c0.812,0,1.472,0.658,1.472,1.468
	C30.959,24.057,30.299,24.716,29.487,24.716z M25.825,24.716c-0.812,0-1.472-0.659-1.472-1.468c0-0.81,0.66-1.468,1.472-1.468
	c0.811,0,1.472,0.658,1.472,1.468C27.297,24.057,26.636,24.716,25.825,24.716z M22.11,24.708c-0.812,0-1.472-0.658-1.472-1.468
	c0-0.809,0.66-1.468,1.472-1.468c0.811,0,1.472,0.659,1.472,1.468C23.582,24.049,22.921,24.708,22.11,24.708z M52.506,49.784H38.305
	c-0.169,0-0.322-0.102-0.387-0.257c-0.065-0.156-0.03-0.336,0.089-0.456L52.208,34.8c0.081-0.08,0.188-0.123,0.298-0.123
	c0.054,0,0.108,0.01,0.159,0.031c0.158,0.065,0.26,0.217,0.26,0.386v14.27C52.925,49.597,52.738,49.784,52.506,49.784z
	 M33.72,43.633c-3.146,0-5.705-2.553-5.705-5.69c0-3.137,2.559-5.689,5.705-5.689c3.145,0,5.704,2.552,5.704,5.689
	C39.424,41.08,36.865,43.633,33.72,43.633z"/>
</svg>
