<?xml version="1.0" encoding="utf-8"?>
<!-- Generator: Adobe Illustrator 24.3.0, SVG Export Plug-In . SVG Version: 6.00 Build 0)  -->
<svg version="1.1" id="レイヤー_1" xmlns="http://www.w3.org/2000/svg" xmlns:xlink="http://www.w3.org/1999/xlink" x="0px"
	 y="0px" viewBox="0 0 82 76" style="enable-background:new 0 0 82 76;" xml:space="preserve">
<style type="text/css">
	.st0{fill:#EEF7FF;}
	.st1{fill-rule:evenodd;clip-rule:evenodd;fill:#5884DB;}
</style>
<rect class="st0" width="82" height="76"/>
<path class="st1" d="M63.383,57.69H18.617c-1.32,0-2.394-1.071-2.394-2.387V20.697c0-1.316,1.074-2.387,2.394-2.387h44.768
	c1.32,0,2.393,1.071,2.393,2.387v34.606C65.777,56.619,64.704,57.69,63.383,57.69z M18.838,55.081h44.323V40.025
	C63.16,40.017,63.16,40.009,63.16,40l0.001-11.877H18.838V55.081z M18.838,20.919v4.595h44.323l0.001-4.595H18.838z M29.478,24.705
	c-0.812,0-1.473-0.659-1.473-1.469c0-0.81,0.661-1.469,1.473-1.469c0.813,0,1.474,0.659,1.474,1.469
	C30.951,24.046,30.291,24.705,29.478,24.705z M25.812,24.705c-0.812,0-1.473-0.659-1.473-1.469c0-0.81,0.661-1.469,1.473-1.469
	s1.473,0.659,1.473,1.469C27.285,24.046,26.625,24.705,25.812,24.705z M22.094,24.697c-0.813,0-1.474-0.66-1.474-1.47
	s0.661-1.469,1.474-1.469c0.812,0,1.473,0.659,1.473,1.469S22.906,24.697,22.094,24.697z M49.792,52.742
	c-0.238,0.046-0.48,0.069-0.721,0.069c-1.819,0-3.388-1.295-3.731-3.079c-0.192-0.995,0.016-2.005,0.586-2.844
	c0.5-0.736,1.226-1.262,2.07-1.51v-7.442c0-1.318-1.075-2.391-2.397-2.391h-1.881v2.845c-0.001,0.325-0.127,0.629-0.357,0.858
	c-0.23,0.23-0.537,0.357-0.863,0.357c-0.325,0-0.631-0.126-0.862-0.355l-3.653-3.645c-0.475-0.474-0.475-1.245-0.001-1.719
	l3.654-3.644c0.229-0.231,0.537-0.359,0.865-0.359c0.675,0.002,1.221,0.549,1.219,1.22v2.009h1.881c2.667,0,4.837,2.164,4.837,4.824
	v7.539c1.225,0.467,2.121,1.523,2.371,2.826C53.204,50.355,51.85,52.347,49.792,52.742z M49.076,47.651
	c-0.752,0-1.364,0.611-1.364,1.361c0,0.751,0.612,1.361,1.364,1.361c0.753,0,1.365-0.61,1.365-1.361
	C50.44,48.262,49.828,47.651,49.076,47.651z M38.646,43.957l3.654,3.644c0.475,0.474,0.475,1.246,0,1.719l-3.654,3.645
	c-0.23,0.229-0.536,0.355-0.861,0.355h-0.001c-0.671,0-1.218-0.545-1.219-1.215v-2.01h-1.881c-2.667,0-4.837-2.165-4.837-4.825
	v-7.538c-1.226-0.466-2.123-1.523-2.374-2.827c-0.191-0.995,0.017-2.004,0.587-2.843c0.57-0.839,1.433-1.406,2.431-1.597
	c0.238-0.046,0.481-0.069,0.721-0.069c1.819,0,3.388,1.295,3.731,3.078c0.192,0.995-0.017,2.005-0.586,2.844
	c-0.501,0.736-1.227,1.263-2.071,1.51v7.442c0,1.319,1.076,2.392,2.398,2.392h1.881v-2.845c0-0.32,0.13-0.633,0.357-0.859
	c0.23-0.23,0.536-0.357,0.863-0.357C38.111,43.601,38.417,43.728,38.646,43.957z M32.57,34.194c0-0.75-0.612-1.36-1.364-1.36
	c-0.752,0-1.364,0.61-1.364,1.36c0,0.751,0.612,1.361,1.364,1.361C31.958,35.555,32.57,34.945,32.57,34.194z"/>
</svg>
