<?xml version="1.0" encoding="utf-8"?>
<!-- Generator: Adobe Illustrator 24.3.0, SVG Export Plug-In . SVG Version: 6.00 Build 0)  -->
<svg version="1.1" id="レイヤー_1" xmlns="http://www.w3.org/2000/svg" xmlns:xlink="http://www.w3.org/1999/xlink" x="0px"
	 y="0px" viewBox="0 0 82 76" style="enable-background:new 0 0 82 76;" xml:space="preserve">
<style type="text/css">
	.st0{fill:#EEF7FF;}
	.st1{fill-rule:evenodd;clip-rule:evenodd;fill:#5884DB;}
</style>
<rect class="st0" width="82" height="76"/>
<path class="st1" d="M24.263,25.907h0.978v-2.373c0-2.963,2.415-5.379,5.374-5.379h27.122c2.96,0,5.374,2.416,5.374,5.379v13.634
	c0,2.959-2.418,5.38-5.374,5.38h-0.979v2.372c0,2.959-2.419,5.38-5.374,5.38H34.769l-3.936,6.769
	c-0.829,1.433-3.022,0.736-2.902-0.897l0.44-5.872h-4.108c-2.961,0-5.374-2.417-5.374-5.38V31.286
	C18.889,28.323,21.303,25.907,24.263,25.907L24.263,25.907z M50.132,41.304c0.753,0,1.363,0.611,1.363,1.364
	c0,0.754-0.61,1.365-1.363,1.365c-0.753,0-1.363-0.611-1.363-1.365C48.769,41.915,49.379,41.304,50.132,41.304z M44.903,41.304
	c0.754,0,1.364,0.611,1.364,1.364c0,0.754-0.61,1.365-1.364,1.365c-0.752,0-1.363-0.611-1.363-1.365
	C43.54,41.915,44.151,41.304,44.903,41.304z M39.675,41.304c0.753,0,1.364,0.611,1.364,1.364c0,0.754-0.611,1.365-1.364,1.365
	s-1.363-0.611-1.363-1.365C38.312,41.915,38.922,41.304,39.675,41.304z M50.132,34.643c0.753,0,1.363,0.611,1.363,1.365
	c0,0.753-0.61,1.364-1.363,1.364c-0.753,0-1.363-0.611-1.363-1.364C48.769,35.254,49.379,34.643,50.132,34.643L50.132,34.643z
	 M44.903,34.643c0.754,0,1.364,0.611,1.364,1.365c0,0.753-0.61,1.364-1.364,1.364c-0.752,0-1.363-0.611-1.363-1.364
	C43.54,35.254,44.151,34.643,44.903,34.643L44.903,34.643z M39.675,34.643c0.753,0,1.364,0.611,1.364,1.365
	c0,0.753-0.611,1.364-1.364,1.364s-1.363-0.611-1.363-1.364C38.312,35.254,38.922,34.643,39.675,34.643L39.675,34.643z
	 M25.559,37.64c-1.412-1.486,0.844-3.638,2.258-2.151l1.704,1.786l3.736-6.06c1.073-1.74,3.722-0.105,2.648,1.637l-4.749,7.703
	c-0.499,0.922-1.764,1.103-2.498,0.331L25.559,37.64L25.559,37.64z M28.365,25.907h23.019c2.956,0,5.374,2.421,5.374,5.379v8.135
	h0.979c1.237,0,2.25-1.013,2.25-2.253V23.534c0-1.235-1.016-2.252-2.25-2.252H30.615c-1.234,0-2.25,1.017-2.25,2.252V25.907
	L28.365,25.907z M51.384,29.034H24.263c-1.234,0-2.25,1.017-2.25,2.252V44.92c0,1.235,1.016,2.252,2.25,2.252
	c1.936,0,3.987-0.066,5.906,0.007c1.472,0.109,1.462,1.381,1.381,2.455c0.555-0.955,1.085-2.462,2.325-2.462h17.509
	c1.237,0,2.25-1.012,2.25-2.252V31.286C53.634,30.045,52.622,29.034,51.384,29.034z"/>
</svg>
